<?xml version="1.0" encoding="utf-8" ?><svg xmlns="http://www.w3.org/2000/svg" xmlns:xlink="http://www.w3.org/1999/xlink" width="400" height="400" viewBox="0 0 400 400"><path fill="#350F31" transform="scale(0.390625 0.390625)" d="M601.154 37.7384C611.411 38.0804 620.326 39.9248 629.525 44.5921C642.936 43.3856 655.305 43.7095 667.48 50.0515C679.862 56.6463 690.513 66.0687 698.569 77.5534C729.236 120.415 696.226 142.054 708.449 181.274C712.201 180.013 715.852 179.046 719.835 179.673C723.26 180.213 726.146 181.707 728.935 183.699C736.54 189.129 742.974 196.382 749.658 202.87C756.458 209.471 763.596 215.671 770.557 222.096C775.919 227.046 781.127 232.427 786.781 237.032C792.349 241.567 799.082 243.611 805.474 246.691C810.996 249.381 816.384 252.337 821.618 255.55C857.199 277.442 888.228 305.983 913.011 339.613C975.877 424.345 1002.86 530.418 988.134 634.891C979.899 692.869 953.468 777.152 904.408 813.669C862.443 844.906 790.449 844.621 740.959 837.179C670.819 826.632 608.459 801.529 555.059 754.182C540.613 741.372 527.133 727.92 515.655 712.35C519.035 703.622 522.52 694.934 526.11 686.29C503.658 665.461 481.742 644.1 462.708 620.038C452.329 647.06 442.787 674.386 431.951 701.242C418.938 733.493 404.604 765.211 391.911 797.577C394.076 799.385 397.263 801.678 397.407 804.751C397.795 813.065 382.769 836.087 376.897 842.368C370.852 843.225 364.523 842.967 358.426 842.823C364.799 867.3 373.568 891.753 373.534 917.344C371.932 919.506 370.268 921.286 368.092 922.883C355.399 932.197 335.525 939.608 321.062 946.832C281.218 966.733 248.008 991.894 200.725 984.497C190.058 982.828 173.856 978.174 167.347 968.778C164.997 965.386 164.674 961.433 165.486 957.464C169.536 937.653 201.511 915.011 216.225 902.083C220.812 898.053 224.575 893.099 229.429 889.361C233.573 886.171 238.555 883.824 242.951 880.927C247.843 871.008 253.038 871.612 260.905 865.706C261.055 865.594 261.202 865.477 261.351 865.362C261.764 863.86 262.13 862.225 262.835 860.829C264.378 857.775 268.042 857.583 270.648 855.825C278.456 850.555 281.875 842.62 291.444 839.332C292.009 834.588 292.651 829.853 293.367 825.128L293.944 820.734C289.553 818.484 278.442 814.122 276.431 809.656C274.378 805.098 280.98 779.015 282.947 774.416C283.799 772.422 285.325 771.575 287.207 770.733C288.613 770.103 290.034 769.664 290.711 768.188C292.787 763.661 293.819 758.105 295.282 753.282C298.198 743.848 301.175 734.432 304.212 725.035L331.517 642.422C336.748 626.526 341.224 610.002 347.356 594.447C336.149 605.876 324.284 616.141 311.628 625.917C311.239 627.338 310.866 628.899 310.059 630.148C305.554 637.115 285.356 653.96 277.82 658.577C274.412 656.155 271.177 653.419 267.896 650.825C263.81 655.506 259.553 659.974 255.612 664.791C255.887 666.712 256.143 668.629 256.035 670.574C255.4 682.083 245.925 719.509 241.081 729.784C239.824 732.45 238.254 734.986 235.983 736.913C231.233 740.943 221.406 740.008 215.629 739.469C195.644 737.607 175.578 731.076 156.685 724.573C117.213 710.988 75.8022 694.232 43.6266 666.921C39.7514 663.631 35.4957 660.223 32.3171 656.243C30.6422 654.145 29.0082 651.705 29.4313 648.894C30.0761 644.61 33.7966 641.403 37.1736 639.087C46.8179 632.472 63.1357 626.395 74.8408 624.939C84.267 623.766 93.5064 623.999 102.631 626.895C107.115 628.318 109.81 630.476 114.716 630.423C128.131 630.278 140.873 627.669 154.084 626.156C157.533 625.761 161.116 626.541 164.518 625.995C169.63 625.175 174.455 622.722 179.676 622.376C182.274 622.205 184.469 623.816 186.976 623.937C189.246 624.047 191.547 623.209 193.833 623.196C197.992 623.172 203.092 624.954 207.222 625.747C214.018 620.969 220.029 614.425 226.029 608.675C219.858 601.036 213.908 593.2 209.298 584.506C239.046 551.162 269.041 518.04 299.283 485.143C312.857 470.115 326.699 455.332 340.803 440.8C353.395 427.813 365.958 414.643 380.8 404.175C398.265 391.856 417.872 388.144 438.782 391.708C428.155 378.877 421.49 363.615 411.399 350.526C410.045 351.468 408.73 352.365 407.062 352.61C403.743 353.099 399.896 350.586 397.467 348.597C387.907 340.768 379.663 328.545 378.525 316.01C377.604 304.85 381.14 293.78 388.36 285.221C382.698 270.01 378.321 254.249 373.6 238.728C370.577 228.786 366.996 218.907 364.319 208.879C365.452 206.561 366.957 202.53 369.729 201.785C370.962 201.454 371.694 201.77 372.685 202.465C374.83 203.969 376.594 206.176 378.569 207.911C383.403 212.155 390.159 215.565 396.122 217.895C398.111 216.931 401.274 215.021 403.588 215.65C410.936 217.647 429.796 247.641 434.277 254.659C440.719 248.722 447.458 243.796 455.257 239.762C475.648 229.214 500.297 225.846 522.317 232.822C528.095 239.189 534.429 251.962 539.157 259.72C548.438 274.947 558.357 289.816 567.395 305.184C575.208 318.468 582.733 333.76 591.824 346.108C596.126 324.267 603.297 302.534 616.496 284.329C624.739 272.959 634.479 262.494 643.094 251.353L639.893 247.537C631.701 254.751 617.097 268.453 605.601 268.147C596.943 267.916 588.249 253.426 582.385 247.991C577.604 243.559 572.039 239.877 567.615 235.075C564.381 235.718 559.702 236.927 556.842 234.631C552.747 231.341 556.416 218.278 555.778 212.839C555.171 207.668 549.29 194.664 545.467 191.544C542.55 189.163 538.396 187.505 535.122 185.61C530.639 183.014 526.456 179.723 522.475 176.424C510.185 166.237 499.371 153.502 497.992 136.979C496.393 117.809 509.716 105.462 521.468 92.3459C526.856 86.3324 531.961 80.0742 537.223 73.9525C555.192 53.0505 573.063 39.8046 601.154 37.7384ZM509.729 416.246C520.333 422.736 530.743 429.353 540.903 436.531C547.364 441.096 553.561 446.04 560.024 450.582C565.938 454.909 571.798 459.31 577.603 463.782C578.585 458.402 579.68 452.824 580.107 447.37C573.766 432.938 563.253 431.489 555.196 420.079C551.17 414.38 547.781 401.865 544.318 397.985C532.701 403.922 521.405 410.387 509.729 416.246Z"/><path fill="#F1D8A3" transform="scale(0.390625 0.390625)" d="M434.033 465.695C443.73 464.362 454.428 466.395 463.64 469.351C473.618 472.554 483.369 476.923 492.914 481.229C522.862 494.737 551.134 511.262 579.548 527.658C611.635 546.153 643.569 564.911 675.348 583.93C679.477 586.414 683.436 589.172 687.197 592.185C692.291 596.337 696.461 600.699 702.564 603.452C705.922 642.597 716.521 677.152 731.435 713.389C712.176 692.917 698.155 666.54 688.201 640.457C686.184 635.168 679.964 612.717 677.713 611.054L676.887 611.262C676.051 612.498 675.623 613.74 675.644 615.245C675.722 620.928 679.98 630.359 681.902 635.837C691.094 662.031 703.64 687.536 721.892 708.676C727.226 714.855 733.15 720.471 738.994 726.159C734.583 730.17 729.499 733.768 724.824 737.488C712.526 747.275 700.156 756.919 686.717 765.106C622.512 761.75 551.515 705.545 507.453 662.857C492.71 648.486 479.101 633.242 465.927 617.441C469.369 612.956 472.692 608.509 475.291 603.462C480.945 592.485 485.214 567.778 480.851 555.999C480.39 554.753 480.08 554.276 478.877 553.746C476.043 555.528 477.133 561.996 477.235 565.148C477.925 586.456 476.193 596.881 463.709 614.431C465.351 607.166 467.046 599.8 467.946 592.403C469.12 582.748 469.834 546.969 463.75 540.076C463.124 539.367 463.074 539.549 462.212 539.497C461.13 540.662 460.871 541.494 460.879 543.096C460.9 547.156 462.225 551.43 462.862 555.449C463.863 561.935 464.409 568.484 464.497 575.046C464.48 584.44 463.531 593.81 461.663 603.016C456.938 626.635 447.632 649.334 439.03 671.753C421.889 716.423 402.384 760.142 384.717 804.606C375.536 802.866 366.266 801.746 357.17 799.539C334.604 794.062 314.153 783.265 294.051 771.973C298.878 754.098 305.033 736.6 310.846 719.027L336.874 640.107L357.599 575.842C364.566 553.629 371.225 531.291 379.561 509.539C382.395 502.143 385.502 494.088 390.465 487.84C401.353 474.133 417.019 467.722 434.033 465.695Z"/><path fill="#F27A68" transform="scale(0.390625 0.390625)" d="M796.57 247.46C804.32 249.685 811.749 254.748 818.575 258.972C851.885 279.455 881.248 305.748 905.271 336.602C971.019 421.302 997.31 528.737 983.795 634.491C976.541 691.258 948.819 774.235 901.563 810.39C861.632 840.942 789.982 839.613 742.648 833.225C672.962 823.82 606.463 795.676 554.296 748.153C542.04 736.988 530.682 725.288 520.622 712.1C523.491 704.435 526.569 696.85 529.853 689.354C563.748 716.916 601.839 746.522 643.77 760.409C656.354 764.577 669.016 766.984 682.064 769.139C669.221 775.757 660.5 779.432 646.227 782.174C643.682 782.663 639.606 783.209 638.063 785.457C638.256 786.713 638.385 786.697 639.353 787.548C643.674 788.768 649.697 786.565 653.892 785.306C663.842 782.321 673.45 778.696 682.53 773.593C694.895 766.644 705.951 757.248 717.122 748.559C732.218 736.608 747.621 725.051 763.315 713.899C778.792 703.054 795.258 693.519 811.87 684.538C820.454 679.803 829.198 675.366 838.088 671.235C833.341 677.254 825.813 690.05 820.988 694.352C816.851 698.04 810.75 700.491 805.886 703.124C800.272 706.185 794.756 709.423 789.346 712.832C763.925 728.961 742.158 748.612 721.731 770.64C717.324 775.394 710.697 781.56 708.479 787.648C708.105 788.675 708.013 789.533 708.501 790.54C712.407 790.739 722.967 776.193 726.125 772.677C753.713 741.97 781.501 721.635 817.351 701.584C814.9 707.348 811.683 712.937 808.835 718.522C801.882 732.161 795.268 745.891 791.346 760.756C790.406 764.316 789.147 768.403 789.24 772.121C789.279 773.703 789.547 774.605 790.688 775.694L791.585 775.576C795.089 770.53 795.968 761.042 797.687 755.059C798.894 750.932 800.31 746.87 801.929 742.887C808.001 727.672 815.916 713.128 824.095 698.961C843.211 687.578 869.238 679.985 891.223 677.104C898.923 676.096 906.901 675.436 914.666 675.658C918.773 675.776 922.867 676.532 926.981 676.393C928.364 676.346 929.171 676.307 930.287 675.472L930.277 674.586C929.582 673.608 928.948 672.889 927.813 672.412C923.681 670.675 916.999 671.303 912.529 671.375C881.342 671.873 856.391 680.768 827.832 692.186C833.555 683.812 840.384 676.619 845.588 667.796C863.972 658.792 884.571 651.986 904.483 647.332C908.179 646.468 918.066 645.092 920.236 641.959L920.045 641.123C919.563 640.718 919.506 640.628 918.871 640.318C917.765 639.779 915.838 639.731 914.646 639.917C911.456 640.415 908.068 641.984 904.894 642.841C891.715 646.401 878.601 650.048 865.843 654.944C880.429 592.849 885.015 528.825 879.428 465.286C877.977 448.669 876.115 431.521 872.263 415.269C875.83 410.425 878.996 405.299 881.732 399.941C885.38 392.672 895.245 369.196 892.551 361.125L891.766 360.817C887.813 362.77 885.693 378.137 883.974 382.682C880.352 392.256 875.653 401.218 870.825 410.223C869.838 402.597 873.835 396.064 875.72 388.708C877.202 382.922 878.042 377.193 878.389 371.235C878.878 362.843 878.765 333.347 873.35 327.773C872.635 327.037 872.67 327.235 871.743 327.243C871.03 328.287 870.809 329.771 870.84 331.028C870.946 335.323 872.483 339.819 873.136 344.08C874.065 350.14 874.241 356.616 874.198 362.725C874.117 374.458 872.524 385.79 868.982 396.979C864.745 377.518 859.326 358.141 853.425 339.123C849.94 327.893 846.467 316.399 841.501 305.717C837.987 298.158 833.493 291.098 828.633 284.339C818.996 270.935 807.153 259.966 796.57 247.46Z"/><path fill="#FEFEFE" transform="scale(0.390625 0.390625)" d="M740.311 236.267C753.923 244.752 777.459 274.675 788.628 288.156C752.586 311.564 731.844 341.754 713.678 380.191L712.979 380.322C708.835 375.475 716.741 348.54 718.589 342.966C720.637 336.79 727.125 324.049 726.351 318.003L725.546 317.685C724.973 318.036 724.597 318.384 724.159 318.9C713.47 331.504 706.692 364.916 708.403 380.929C708.641 383.155 708.899 385.681 710.746 387.166C715.74 387.532 719.386 378.485 721.299 374.834C737.313 344.271 755.33 314.85 784.735 295.284C791.856 290.545 797.918 287.995 806.623 289.814C817.142 292.013 831.017 297.71 837.008 307.174C844.947 319.717 850.612 343.862 854.705 358.703C882.089 455.837 884.324 558.34 861.203 656.576C828.136 668.539 797.415 686.825 767.797 705.57C759.14 711.049 751.765 718.162 742.58 722.87C736.833 717.354 734.218 708.996 731.277 701.757C718.477 670.254 710.696 638.012 706.925 604.252C718.16 606.784 738.377 607.651 749.023 602.715C751.447 601.591 753.282 599.257 755.592 597.903C758.469 596.218 762.517 595.619 765.678 594.442C781.721 588.47 794.303 554.414 801.161 539.133C804.187 531.682 807.067 524.172 809.798 516.608C812.01 510.558 814.046 504.208 816.946 498.451C819.858 492.669 825.218 488.241 828.635 482.703C839.353 465.23 847.182 446.142 851.821 426.176C852.805 421.99 854.115 417.333 853.831 413.013C853.725 411.409 853.444 410.497 852.201 409.478L851.08 409.667C850.166 410.721 849.86 411.748 849.522 413.073C848.517 417.008 848.272 421.223 847.533 425.229C846.377 431.498 844.519 437.704 842.409 443.716C837.011 458.966 829.547 473.403 820.227 486.626C830.005 450.637 836.268 419.791 837.062 382.26C837.15 378.08 838.476 370.125 836.325 366.491C835.706 365.444 835.484 365.392 834.387 365.171C833.004 366.232 832.874 368.412 832.684 370.024C832.098 374.992 832.614 380.342 832.564 385.36C832.499 391.814 831.972 398.22 831.38 404.643C826.137 461.516 809.009 515.14 783.917 566.279C780.105 574.049 774.929 584.725 767.01 589.089C763.977 590.76 760.377 591.768 757.097 592.885C758.051 588.428 758.918 583.982 759.342 579.439C762.489 545.697 748.466 517.385 727.519 492.018C742.016 499.298 751.174 512.074 758.699 526.029C760.382 529.151 762.293 532.145 763.665 535.43C765.883 540.739 767.131 546.731 769.829 551.792C770.6 553.239 771.232 554.088 772.8 554.599L773.804 553.93C774.511 552.215 774.338 550.909 773.874 549.157C772.832 545.224 770.812 541.262 769.179 537.538C762.298 521.84 753.05 502.642 738.169 493.239C733.086 490.027 727.306 488.577 721.862 486.141C718.705 484.729 715.961 482.797 713.007 481.035C710.438 479.504 707.379 477.757 704.303 478.834C702.027 479.631 701.12 481.511 699.971 483.463C691.556 478.621 683.398 473.501 675.622 467.68C666.372 433.552 666.952 397.142 666.899 362.069C666.88 349.489 667.321 336.644 666.123 324.116C665.775 320.483 665.194 316.713 664.047 313.241C661.52 305.597 656.415 297.99 656.154 289.753C656.076 287.294 656.633 284.644 658.435 282.852C659.429 281.864 659.586 281.839 660.914 281.815C665.98 284.815 672.822 304.38 675.456 310.795C676.366 313.009 677.267 316.301 678.829 318.115C679.671 319.093 680.255 319.332 681.499 319.469C687.21 315.862 691.637 309.243 695.791 304.015C712.817 282.59 727.543 260.474 740.311 236.267Z"/><path fill="#350F31" transform="scale(0.390625 0.390625)" d="M840.411 594.196C841.288 594.503 841.87 594.879 842.642 595.383C843.32 596.735 843.231 597.691 842.887 599.119C841.601 604.455 838.13 609.647 835.405 614.373C825.994 630.69 816.087 646.116 799.849 656.503C786.349 665.138 771.041 668.774 755.259 665.374C754.929 665.231 754.583 665.106 754.309 664.857C753.301 663.944 753.255 663.48 753.18 662.223C754.036 661.223 754.258 660.967 755.668 660.837C757.105 660.706 759.369 661.482 760.842 661.741C766.864 662.799 772.355 662.6 778.278 661.032C801.369 654.917 818.551 636.805 829.501 616.249C833.224 609.261 835.951 601.724 839.981 594.915L840.411 594.196Z"/><path fill="#350F31" transform="scale(0.390625 0.390625)" d="M736.068 355.206C736.808 355.438 737.501 355.796 738.207 356.117C740.55 360.099 735.283 366.338 733.574 370.049C732.568 372.233 731.811 374.569 731.032 376.842C723.969 397.453 721.428 418.88 718.906 440.418C717.718 450.558 716.892 460.866 714.58 470.824C713.276 470.351 712.034 470.08 711.221 468.872C710.674 460.413 713.155 451.111 714.215 442.713C718.668 407.442 719.879 387.716 736.068 355.206Z"/><path fill="#350F31" transform="scale(0.390625 0.390625)" d="M737.79 483.817C741.801 484.937 745.456 486.641 749.041 488.744C757.204 493.531 773.187 507.242 775.341 516.56C775.674 518 775.347 518.854 774.611 520.11C767.904 516.137 763.139 505.015 756.471 499.159C750.79 494.17 742.158 492.292 737.182 486.916C736.792 485.467 737.181 485.148 737.79 483.817Z"/><path fill="#350F31" transform="scale(0.390625 0.390625)" d="M720.662 309.232L722.095 309.738L722.573 310.784C721.793 315.487 719.03 319.928 717.51 324.467C716.13 328.586 715.358 332.928 713.839 336.994C713.325 338.371 712.652 339.483 711.731 340.621C710.665 339.729 709.981 339.175 709.641 337.746C707.951 330.642 717.042 315.102 720.662 309.232Z"/><path fill="#F1D8A3" transform="scale(0.390625 0.390625)" d="M415.633 394.664C421.27 393.8 427.941 394.258 433.571 395.123C463.617 399.735 463.972 422.212 473.819 425.93C480.627 428.502 497.954 420.841 504.756 417.949C517.219 426.87 530.465 434.593 542.924 443.531C560.833 456.379 577.916 470.442 596.201 482.758C594.03 497.773 590.894 512.603 588.676 527.603C575.462 520.715 562.866 512.823 549.903 505.495C531.086 494.732 511.769 484.869 492.016 475.94C467.711 464.987 440.567 455.238 414.246 465.39C396.535 472.22 385.353 485.226 377.736 502.25C372.016 515.801 367.481 529.826 363.053 543.841C359.57 554.865 354.359 578.412 348.069 587.059C337.73 601.27 320.318 613.708 306.736 624.843C281.694 609.2 258.167 578.254 243.751 552.615C253.669 542.124 263.057 531.017 272.758 520.313C288.378 503.051 304.144 485.921 320.053 468.925C341.179 445.931 362.633 420.063 389.52 403.621C397.596 398.682 406.352 396.174 415.633 394.664Z"/><path fill="#594154" transform="scale(0.390625 0.390625)" d="M596.106 42.188C604.013 40.8109 612.275 42.3183 619.692 45.0714C623.036 46.3125 626.492 47.8599 630.067 48.2661C638.893 49.2692 646.322 47.5607 655.47 49.9869C668.196 53.3617 679.328 61.6652 688.177 71.1954C731.425 117.772 686.373 150.665 706.608 185.056C705.297 185.985 703.856 186.801 702.435 187.553C695.814 191.062 686.772 192.906 679.553 190.452C671.176 187.604 667.572 179.968 663.978 172.623C664.768 168.658 665.587 164.713 665.72 160.661C665.975 152.887 663.738 145.093 658.219 139.39C654.976 136.039 650.606 133.56 645.833 133.671C642.286 133.752 639.059 135.367 636.716 138.004C629.323 146.324 631.094 162.727 631.426 173.088C626.783 164.053 620.462 157.067 611.682 151.955C600.679 152.495 590.521 152.271 579.614 150.572C568.875 148.119 557.784 143.652 549.192 136.619C545.541 133.63 542.625 130.276 538.279 128.247C538.157 128.461 538.038 128.677 537.914 128.89C537.669 129.313 537.412 129.73 537.175 130.158C529.308 144.426 535.335 168.765 539.386 183.474C521.751 172.068 513.225 153.648 514.692 132.611C514.927 129.232 518.013 118.497 516.5 116.173C514.768 116.91 513.858 119.302 513.184 120.929C506.896 136.119 514.093 156.476 520.151 170.652C512.389 161.289 504.383 151.825 502.649 139.341C501.093 128.144 504.127 119.473 510.906 110.69C516.222 103.804 522.668 97.7172 528.282 91.0523C547.826 67.8507 563.744 46.3326 596.106 42.188Z"/><path fill="#350F31" transform="scale(0.390625 0.390625)" d="M625.901 58.8653C626.784 59.2677 627.472 59.678 628.073 60.4514C633.287 67.1608 632.367 86.2675 631.093 94.2721C628.971 107.596 621.039 118.803 610.142 126.537C595.779 136.729 579.964 137.575 563.117 134.707C562.473 134.275 561.915 133.825 561.323 133.326L561.281 132.439C563.825 130.736 569.143 132.64 571.992 133.08C584.783 135.053 598.924 130.655 609.117 122.939C623.905 111.744 631.34 93.9781 628.136 75.6028C627.349 71.0896 624.849 64.2298 625.691 59.7909C625.75 59.48 625.831 59.1739 625.901 58.8653Z"/><path fill="#350F31" transform="scale(0.390625 0.390625)" d="M612.985 63.6163C613.687 64.0744 614.291 64.5056 614.685 65.2849C615.642 67.1766 615.243 69.8339 614.711 71.7832C610.741 86.3207 595.006 99.6584 582.42 106.721C569.51 113.965 556.373 116.69 541.992 112.638C540.919 111.739 540.405 111.523 540.009 110.152C541.637 108.507 546.711 110.111 548.839 110.455C559.648 112.204 569.862 109.505 579.486 104.52C589.963 99.0939 601.501 89.9839 607.068 79.3648C609.689 74.3644 611.266 68.972 612.985 63.6163Z"/><path fill="#350F31" transform="scale(0.390625 0.390625)" d="M648.058 92.3048C649.105 92.3138 650.031 92.4529 651.033 92.7445C662.993 96.2256 673.174 107.142 678.992 117.753C684.97 128.655 690.187 148.467 686.688 160.697C685.92 160.463 685.474 160.133 684.82 159.683C682.735 153.23 683.733 145.113 682.488 138.267C680.174 125.546 673.215 111.432 662.52 103.71C658.318 100.676 653.387 98.4928 649.331 95.3259C648.112 94.3736 648.129 93.7863 648.058 92.3048Z"/><path fill="#350F31" transform="scale(0.390625 0.390625)" d="M646.98 72.9815C649.266 73.1799 651.557 73.3783 653.813 73.8126C668.732 76.6855 681.202 86.2151 689.535 98.6971C693.471 104.592 700.462 116.577 699.001 123.736C697.941 123.186 697.342 122.642 696.771 121.596C695.142 118.61 694.116 115.178 692.785 112.041C689.954 105.371 685.808 98.8319 680.927 93.4718C673.865 85.7157 666.486 81.2225 656.407 78.2933C653.779 77.5296 649.62 76.9202 647.573 75.1565C646.892 74.57 647.065 73.8168 646.98 72.9815Z"/><path fill="#350F31" transform="scale(0.390625 0.390625)" d="M615.573 87.3464C616.129 87.9158 616.729 88.3048 616.922 89.109C617.411 91.1383 616.024 93.5174 615.023 95.2053C605.931 110.53 589.26 120.501 572.44 124.902C572.181 124.741 571.745 124.189 571.529 123.957C572.052 121.135 579.823 119.425 582.386 118.495C597.291 113.086 607.678 100.516 615.573 87.3464Z"/><path fill="#350F31" transform="scale(0.390625 0.390625)" d="M531.176 121.783C532.851 123.931 531.142 126.796 530.37 129.139C526.856 139.816 527.89 148.149 528.498 159.172C528.593 160.899 528.452 161.737 527.307 163.027C525.864 159.981 525.219 156.713 524.803 153.385C523.52 143.127 524.622 130.208 531.176 121.783Z"/><path fill="#350F31" transform="scale(0.390625 0.390625)" d="M642.505 113.742C642.986 114.236 643.342 114.84 643.731 115.407C644.423 119.622 642.372 123.19 640.11 126.611C639.769 126.341 639.412 125.828 639.127 125.491C638.543 121.461 640.486 117.144 642.505 113.742Z"/><path fill="#F1D8A3" transform="scale(0.390625 0.390625)" d="M523.023 317.028C541.495 318.618 562.436 325.139 576.283 337.959C599.703 359.644 591.831 390.994 609.05 412.709C613.487 418.304 618.614 423.416 623.598 428.52C639.697 445.254 657.336 460.434 676.282 473.862C686.455 480.976 698.58 485.796 707.088 495.092C720.196 509.414 723.092 533.202 722.194 551.753C721.678 562.391 719.56 578.621 710.652 585.88C709.704 586.653 708.795 587.167 707.546 586.957C703.432 586.267 695.103 579.062 691.437 576.349C650.723 546.213 623.793 509.888 597.528 466.961C590.707 457.183 586.124 445.356 578.57 436.198C572.316 428.616 562.894 424.041 557.453 415.678C548.126 401.343 546.253 383.466 534.492 370.474C529.487 364.945 523.085 360.8 516.547 357.314C511.367 354.553 498.347 351.159 495.646 346.598C495.706 346.023 495.559 345.609 496.091 345.261C502.537 341.045 525.374 352.733 531.188 356.498C535.56 359.329 540.215 364.816 545.14 366.204C546.336 365.885 546.443 365.823 547.261 364.895C547.029 356.759 520.425 345.438 513.778 343.347C508.798 341.779 503.491 341.442 498.51 339.995C497.083 339.581 496.516 339.197 495.625 338.028C495.6 337.049 495.632 336.687 496.148 335.808C496.852 334.606 498.181 334.086 499.499 333.838C509.24 332.004 530.306 338.876 538.797 343.818C542.954 346.238 546.481 349.673 550.57 352.18C552.261 353.217 554.051 354.24 556.057 353.803C556.287 352.622 556.083 352.052 555.51 351.025C550.722 342.431 527.561 333.632 517.788 331.564C512.689 330.486 506.793 330.61 501.915 328.928C500.765 328.532 500.737 328.382 500.219 327.343C500.7 326.137 501.007 325.662 502.239 325.126C505.545 323.688 510.882 324.743 514.415 325.134C528.046 326.643 539.532 329.538 551.666 336.023C555.431 338.036 558.969 340.892 562.818 342.627C564.461 343.367 565.551 343.509 567.23 342.841L567.545 341.817C566.339 338.499 562.647 336.823 559.796 335.071C552.315 330.475 544.413 326.22 535.77 324.329C532.258 323.561 523.294 322.863 520.902 320.325C521.146 318.828 522.046 318.161 523.023 317.028Z"/><path fill="#F1D8A3" transform="scale(0.390625 0.390625)" d="M539.629 134.33C544.087 137.25 548.016 140.953 552.536 143.852C571.261 155.864 590.125 156.506 611.702 156.503C622.228 163.141 621.985 169.104 628.725 177.182C629.726 178.382 630.611 179.374 632.201 179.486C637.808 175.964 634.264 152.635 637.316 144.825C638.582 141.586 640.461 139.886 643.703 138.654C646.181 137.712 648.765 137.72 651.126 138.983C655.932 141.553 659.107 147.776 660.392 152.85C661.859 158.642 662.016 170.473 657.498 174.861C654.698 177.58 650.778 178.968 648.695 182.463L648.933 183.292C649.604 183.604 650.14 183.754 650.887 183.746C655.578 183.694 658.25 180.583 661.37 177.522C664.99 184.564 668.928 190.696 676.639 193.835C687.956 198.442 699.547 193.284 709.944 188.824C713.487 192.617 717.425 196.014 720.948 199.856C711.777 222.522 699.385 244.033 682.408 261.806C679.769 264.569 677.09 267.75 673.955 269.945C672.556 269.557 671.759 268.445 670.75 267.437C661.873 258.621 653.046 250.112 641.246 245.382C649.649 234.417 657.376 219.993 658.496 205.969C658.647 204.067 658.706 202.683 657.416 201.217L656.391 201.291C654.714 202.932 652.352 215.734 651.251 218.848C649.2 224.691 646.463 230.27 643.097 235.468C634.195 249.106 620.706 260.672 604.487 264.027C596.371 258.79 590.411 250.968 584.18 243.727C591.075 239.372 598.53 235.137 602.495 227.728C594.497 231.548 588.586 237.888 580.377 241.607L571.482 232.937C572.697 231.632 573.813 230.562 574.422 228.861L573.932 228.152C569.753 227.457 564.331 230.503 560.263 231.554C558.549 229.725 560.831 218.603 560.558 215.388C559.466 202.525 551.361 193.811 544.992 183.259C536.203 168.698 535.66 150.507 539.629 134.33Z"/><path fill="#350F31" transform="scale(0.390625 0.390625)" d="M569.164 163.616C573.383 163.337 577.345 163.236 581.495 164.177C583.098 164.54 584.818 164.86 585.73 166.29C584.26 169.199 574.955 170.416 571.753 171.731C569.265 172.753 567.011 174.129 564.724 175.531C562.783 176.827 560.796 178.307 558.709 179.349C556.748 180.329 554.601 180.572 552.523 179.921C551.894 179.352 551.372 179.086 551.125 178.236C550.58 176.358 551.296 174.375 552.312 172.781C555.983 167.021 562.893 164.985 569.164 163.616Z"/><path fill="#594154" transform="scale(0.390625 0.390625)" d="M568.357 167.537L568.555 167.666L568.387 168.385C565.16 170.871 561.329 172.65 557.74 174.559L557.338 174.101C559.775 171.2 565.009 169.213 568.357 167.537Z"/><path fill="#350F31" transform="scale(0.390625 0.390625)" d="M645.822 145.48C646.407 145.456 646.993 145.451 647.579 145.463C650.089 145.532 652.501 146.553 654.2 148.432C656.055 150.483 656.588 153.183 656.48 155.866L655.864 156.263C653.266 154.543 652.195 151.033 649.545 149.559C648.251 148.839 647.825 148.959 646.499 149.315C644.979 150.815 644.572 152.539 644.34 154.612C643.903 158.5 644.633 160.956 647.022 164.018C648.261 162.336 649.228 160.264 650.269 158.441C650.542 161.069 650.931 163.779 650.831 166.424C650.766 168.143 650.552 169.434 649.246 170.605C647.904 170.493 647.03 169.643 646.138 168.703C642.793 165.177 640.045 160.486 640.331 155.481C640.584 151.043 642.677 148.365 645.822 145.48Z"/><path fill="#350F31" transform="scale(0.390625 0.390625)" d="M578.575 188.626C579.203 188.862 579.291 189.294 579.638 189.848C578.534 194.011 582.074 197.958 580.129 202.693C579.536 203.219 579.179 203.772 578.352 203.866C576.188 204.111 574.307 202.881 572.653 201.652L569.691 196.009C568.49 195.454 567.504 194.973 566.454 194.148L566.383 193.066C568.412 190.257 575.206 189.454 578.575 188.626Z"/><path fill="#F27A68" transform="scale(0.390625 0.390625)" d="M513.739 256.421C515.747 257.156 517.57 259.949 518.822 261.676C523.12 267.6 526.699 274.115 530.684 280.264L557.529 321.342C548.268 317.469 533.014 310.405 522.871 313.488C518.809 314.723 517.366 316.911 515.53 320.527C511.283 320.409 506.614 319.862 502.427 320.441C500.223 320.746 498.033 321.552 496.684 323.412C494.957 325.794 495.696 328.278 496.202 330.91C494.369 331.965 491.582 333.179 490.807 335.28C489.969 337.554 491.669 340.298 492.583 342.339C491.98 343.256 491.202 344.278 490.784 345.288C489.641 348.049 491.962 350.125 493.997 351.573C498.764 354.963 504.688 356.862 510.036 359.15C528.67 367.123 534.715 376.085 542.985 393.768C534.927 398.488 526.692 402.9 518.299 406.997C510.156 410.921 501.836 414.467 493.366 417.624C487.627 408.525 482.327 399.069 476.853 389.804C458.37 358.523 440.489 326.647 420.772 296.131C451.216 281.417 482.591 269.461 513.739 256.421Z"/><path fill="#F27A68" transform="scale(0.390625 0.390625)" d="M196.226 627.29C197.538 627.192 199.377 629.643 200.987 629.973C202.788 630.343 203.469 629.208 205.167 630.613C208.199 633.121 209.626 638.643 212.149 641.809C222.784 655.157 236.871 662.279 252.304 668.648C249.11 685.412 245.473 701.659 240.545 718.006C226.692 718.93 212.878 716.721 199.401 713.709C175.31 708.325 151.871 699.69 128.947 690.655C126.763 689.794 119.921 687.858 118.756 686.021L119.232 684.885C121.616 679.84 123.519 674.625 124.404 669.099C126.566 655.591 123.257 645.463 115.429 634.547C126.018 633.713 136.632 633.301 147.179 631.976C149.626 638.305 155.615 661.881 161.087 664.316C163.287 665.296 166.693 665.225 168.905 664.3C170.397 663.69 171.572 662.491 172.152 660.987C174.988 653.826 166.702 637.451 163.703 630.263C165.613 629.861 167.57 629.609 169.498 629.3C172.659 637.294 178.19 656.826 185.938 660.516C188.106 661.549 190.883 661.674 193.105 660.731C194.434 660.167 195.426 659.17 195.95 657.811C198.37 651.525 190.18 634.464 187.589 627.935C190.442 627.569 193.355 627.475 196.226 627.29Z"/><path fill="#350F31" transform="scale(0.390625 0.390625)" d="M206.518 668.463C213.754 668.518 224.514 670.67 230.942 674.105C233.215 675.319 235.222 677.128 235.869 679.704C237.572 686.482 230.109 699.171 226.746 704.854C225.665 705.191 224.629 705.425 223.494 705.506C217.871 705.906 204.017 702.227 199.754 698.264C197.863 696.506 197.287 694.369 197.294 691.84C197.316 683.781 200.988 674.235 206.518 668.463Z"/><path fill="#FEFEFE" transform="scale(0.390625 0.390625)" d="M207.594 672.774C213.468 673.243 221.376 674.43 226.895 676.549C228.797 677.279 230.719 678.434 231.36 680.504C233.017 685.85 226.922 695.528 224.467 700.357L223.472 701.194C218.925 702.005 211.923 699.838 207.713 698.028C205.753 697.185 202.297 695.586 201.659 693.327C200.136 687.934 205.084 677.527 207.594 672.774Z"/><path fill="#350F31" transform="scale(0.390625 0.390625)" d="M202.227 630.881L202.755 631.555C203.294 638.316 204.755 651.303 203.716 657.659L202.615 658.305C202.191 657.722 202.214 657.787 201.816 657.041C198.6 651.008 200.011 637.186 202.227 630.881Z"/><path fill="#F27A68" transform="scale(0.390625 0.390625)" d="M352.253 841.675C352.457 841.772 352.673 841.846 352.866 841.964C358.022 845.103 366.972 893.505 368.201 901.825C348.197 912.327 327.836 922.146 307.841 932.66C295.904 938.936 284.438 945.985 272.386 952.081C271.239 948.56 270.063 945.047 268.529 941.672C267.366 939.115 264.804 935.53 264.201 932.941C263.861 931.48 266.213 930.522 266.209 928.579C266.204 926.469 264.035 923.692 262.54 922.37C261.385 921.35 260.158 920.683 258.639 920.824C257.775 923.565 262.01 929.604 263.376 932.298C259.712 929.66 256.444 926.448 252.83 923.722C240.832 914.671 228.496 911.66 213.864 909.796C217.92 906.188 221.926 902.442 226.75 899.88C238.632 901.337 253.046 904.411 262.296 912.554C264.53 914.52 266.011 916.916 268.015 919.047C268.943 920.033 269.357 920.318 270.7 920.339L271.336 919.447C271.465 918.186 271.429 917.304 270.915 916.153C267.634 908.8 248.611 901.526 241.231 898.592C255.709 900.474 266.201 905.638 276.691 915.852C278.447 914.766 280.193 913.667 281.931 912.554C284.376 910.583 285.872 907.916 287.441 905.259C280.123 899.234 267.219 891.052 258.015 888.833C253.594 887.768 247.502 888.308 243.529 886.198C242.592 885.701 242.891 885.996 242.566 884.963C243.945 883.71 245.108 883.205 246.954 883.174C250.308 883.119 253.924 883.856 257.22 884.439C271.283 886.928 280.366 892.247 290.535 902.114C294.457 899.897 299.828 895.373 301.58 891.053C301.981 890.063 301.945 890.486 301.563 889.492C300.056 889.527 299.494 890.194 298.276 891.042C291.465 884.097 283.175 878.777 274.023 875.481C270.326 874.111 263.264 873.724 260.482 871.031L260.577 870.255C261.844 869.234 263.372 868.992 264.957 868.833C279.019 867.415 295.604 879.842 305.748 888.319C308.951 886.519 311.422 885.27 313.283 881.938C314.823 879.179 316.397 878.892 318.602 876.964C319.926 875.806 320.856 873.42 321.663 871.852C318.733 873.417 316.072 875.161 313.369 877.089C302.33 865.857 290.699 860.716 275.643 856.979C279.99 852.234 284.743 847.205 290.415 844.056C299.867 846.234 308.817 849.752 315.702 856.829C318.717 859.927 323.519 869.55 326.121 870.486L326.981 870.076C327.022 869.93 327.081 869.789 327.104 869.64C327.627 866.27 324.465 861.632 322.674 858.91C332.368 856.031 341.98 853.561 350.021 847.144C350.577 845.195 351.348 843.485 352.253 841.675Z"/><path fill="#350F31" transform="scale(0.390625 0.390625)" d="M341.825 866.504C344.254 866.41 346.695 866.496 348.989 867.387C352.777 868.859 355.539 871.884 357.02 875.628C359.318 881.441 358.504 888.285 355.828 893.829C353.311 899.045 349.785 901.967 344.393 903.852C342.694 903.793 341.015 903.716 339.351 903.338C335.493 902.463 332.029 900.295 329.937 896.885C327.222 892.46 326.867 886.527 328.29 881.614C330.416 874.273 335.3 869.921 341.825 866.504Z"/><path fill="#FEFEFE" transform="scale(0.390625 0.390625)" d="M344.492 870.512C345.533 870.677 346.507 870.891 347.499 871.256C350.105 872.214 352.306 874.132 353.438 876.693C355.295 880.894 354.536 886.305 352.71 890.377C350.472 895.37 347.353 897.814 342.461 899.799C341.228 899.585 339.967 899.382 338.822 898.855C336.006 897.579 333.807 895.243 332.702 892.355C331.116 888.098 331.804 883.054 333.842 879.071C336.276 874.314 339.591 872.12 344.492 870.512Z"/><path fill="#82CBB5" transform="scale(0.390625 0.390625)" d="M661.43 265.924C663.176 265.907 664.673 267.526 665.971 268.586C662.54 274.037 656.743 277.286 653.426 282.665C646.514 293.877 659.686 309.07 661.232 320.439C663.077 334.012 662.26 348.371 662.315 362.045C662.452 396.226 662.309 429.944 669.963 463.464C665.85 460.56 661.97 457.257 658.036 454.114C645.998 444.49 635.086 433.975 624.341 422.941C625.588 406.623 629.057 390.222 631.727 374.087C637.186 341.085 641.857 308.98 641.446 275.438C648.424 272.757 654.912 269.55 661.43 265.924Z"/><path fill="#F1D8A3" transform="scale(0.390625 0.390625)" d="M287.937 774.143C296.363 776.678 303.067 782.34 310.768 786.356C334.772 798.876 360.286 807.214 387.511 807.984C388.078 806.712 388.629 805.353 389.58 804.312C390.397 803.417 391.513 802.995 392.694 802.988L393.253 803.97C392.807 812.607 385.513 822.03 381.088 829.259C379.136 832.372 377.121 835.446 375.046 838.479C337.679 841.147 310.987 825.552 280.022 808.168C281.506 796.735 283.755 784.9 287.937 774.143Z"/><path fill="#F1D8A3" transform="scale(0.390625 0.390625)" d="M240.211 556.477C245.246 561.241 248.565 568.81 252.605 574.486C267.415 595.29 284.03 616.173 306.319 629.263C297.455 637.119 288.53 644.908 279.547 652.628C278.802 653.013 278.947 653.117 278.245 652.974C274.794 652.273 270.71 648.446 268.048 646.243C247.439 629.184 229.368 607.638 214.263 585.645C222.128 575.261 231.084 565.75 240.211 556.477Z"/><path fill="#FEFEFE" transform="scale(0.390625 0.390625)" d="M208.222 914.546C222.782 914.25 236.165 917.507 248.33 925.671C258.762 932.672 265.502 941.504 267.932 953.924C256.74 958.516 245.577 962.049 233.704 964.383C224.064 965.971 213.856 966.31 204.214 964.555C192.725 962.464 182.052 957.611 175.309 947.783C183.705 936.411 196.256 921.927 208.222 914.546Z"/><path fill="#82CBB5" transform="scale(0.390625 0.390625)" d="M716.747 183.462C717.343 183.464 717.577 183.45 718.128 183.497C725.35 184.104 733.313 191.957 737.739 197.245C741.925 202.248 743.369 207.351 742.693 213.809C740.05 239.054 711.041 277.701 695.267 297.583C691.083 302.857 686.843 309.306 681.635 313.567C676.981 302.262 671.329 291.426 666.626 280.146C687.807 267.97 710.834 235.486 720.618 212.997C723.273 206.895 727.231 197.206 724.341 190.646C722.294 186.001 717.736 186.868 713.783 185.464C714.379 184.244 715.547 184.032 716.747 183.462Z"/><path fill="#FEFEFE" transform="scale(0.390625 0.390625)" d="M705.681 482.669C719.762 488.386 730.264 500.171 738.154 512.824C751.571 534.341 759.819 562.933 753.852 588.177C752.933 592.063 751.497 596.295 747.842 598.4C736.869 604.72 712.948 601.607 701.279 598.135C693.326 593.569 688.971 584.715 684.801 576.908C686.627 578.323 700.812 587.462 700.916 588.577C701.018 589.678 699.487 590.186 699.962 591.725C700.536 592 701.062 592.256 701.691 592.382C705.477 593.139 709.646 592.431 712.826 590.217C721.073 584.478 723.923 571.561 725.366 562.278C728.841 539.925 725.985 516.235 714.206 496.655C712.174 493.278 708.512 491.019 706.264 487.757C705.142 486.129 705.276 485.072 705.582 483.225C705.613 483.039 705.648 482.854 705.681 482.669Z"/><path fill="#FEFEFE" transform="scale(0.390625 0.390625)" d="M42.3742 641.379C44.5174 642.431 52.1533 650.572 54.8648 652.899C61.1248 658.271 67.7631 663.472 74.6893 667.959C106.037 688.267 141.9 701.981 177.677 712.145C190.107 715.677 202.604 719.002 215.411 720.851C223.402 722.005 231.431 722.288 239.491 722.458C238.978 724.208 238.487 725.999 237.799 727.69C236.246 731.506 234.083 733.408 230.303 734.904C226.584 735.621 222.945 735.631 219.174 735.401C177.76 732.877 100.797 701.341 66.2375 678.814C53.9649 670.909 42.8402 661.35 33.1774 650.407C35.8602 647.062 39.0276 644.051 42.3742 641.379Z"/><path fill="#FEFEFE" transform="scale(0.390625 0.390625)" d="M636.477 289.389L637.17 290.005C638.098 296.178 636.6 304.279 635.965 310.514C633.58 333.966 629.895 357.314 626.122 380.577C624.092 393.092 622.366 405.772 619.845 418.194C615.297 413.147 611.052 408.078 607.271 402.423C609.203 393.807 610.432 384.955 612.136 376.278L624.067 317.898C624.51 316.216 625.24 314.216 624.979 312.456C624.803 311.266 624.269 310.527 623.375 309.8L622.452 310.175C618.56 315.525 606.323 382.636 604.333 394.585C601.671 381.686 599.625 368.254 594.496 356.073C598.406 332.981 605.55 312.91 616.3 292.116C617.663 294.081 618.624 296.005 621.132 296.58C625.772 297.646 632.781 291.783 636.477 289.389Z"/><path fill="#FEFEFE" transform="scale(0.390625 0.390625)" d="M81.3326 628.688C88.7214 627.847 96.6867 628.407 103.508 631.594C110.907 635.05 116.298 641.326 118.972 648.996C123.213 661.162 119.608 673.087 114.253 684.204C108.513 681.592 102.901 678.766 97.2824 675.904C79.3387 666.561 60.4187 654.546 47.0601 639.23C58.3812 633.75 68.8427 630.331 81.3326 628.688Z"/><path fill="#FEFEFE" transform="scale(0.390625 0.390625)" d="M367.802 906.975C367.964 907.129 368.151 907.26 368.288 907.437C369.199 908.624 369.538 911.691 369.42 913.138C369.222 915.334 368.125 917.351 366.389 918.71C357.827 925.53 337.51 933.817 326.916 939.185C289.657 958.064 249.201 986.249 205.552 980.881C192.612 979.29 178.62 975.755 170.27 965.021C169.088 959.858 170.762 956.407 173.151 951.956C178.718 959.624 186.758 964.472 195.728 967.16C205.343 970.041 215.64 970.686 225.613 969.929C259.051 967.393 285.756 949.364 314.47 934.133C332.096 924.783 350.196 916.375 367.802 906.975Z"/><path fill="#F27A68" transform="scale(0.390625 0.390625)" d="M413.759 292.028C417.732 296.156 430.468 320.314 434.418 327.049C452.462 357.816 470.615 388.611 489.254 419.02C484.603 420.164 479.914 421.147 475.195 421.968C462.278 404.95 452.203 385.704 441.335 367.347C427.514 343.906 413.283 320.71 398.648 297.769C403.885 296.185 408.888 294.554 413.759 292.028Z"/><path fill="#FEFEFE" transform="scale(0.390625 0.390625)" d="M747.457 206.947C754.861 212.9 761.869 219.733 768.798 226.25C790.895 247.032 813.85 269.466 830.292 295.042C829.037 294.421 827.812 293.703 826.582 293.033C815.011 286.795 805.488 283.977 792.419 285.831C776.874 266.867 761.461 248.027 742.057 232.851C745.328 224.161 746.686 216.135 747.457 206.947Z"/><path fill="#82CBB5" transform="scale(0.390625 0.390625)" d="M612.269 498.308C615.66 500.943 619.125 508.266 621.775 512.01C624.594 515.924 627.513 519.766 630.528 523.532C639.562 535.075 649.367 545.994 659.877 556.212C665.458 561.54 672.351 566.053 677.305 571.931C679.838 574.937 682.058 578.65 682.817 582.54L682.33 582.958L680.799 582.263C656.901 567.271 632.686 552.791 608.171 538.831C608.827 525.4 609.442 511.487 612.269 498.308Z"/><path fill="#FEFEFE" transform="scale(0.390625 0.390625)" d="M493.161 233.697C501.458 232.413 511.249 233.779 519.211 236.23C527.459 246.604 533.615 258.918 540.529 270.219C553.718 291.565 566.728 313.02 579.558 334.583C569.457 325.723 563.113 312.049 555.843 300.804C548.506 289.498 541.065 278.26 533.523 267.09C528.281 258.884 523.068 250.851 517.096 243.151C481.501 245.837 445.518 258.984 417.207 280.793C419.215 277.521 421.41 274.367 423.782 271.348C441.406 249.07 465.173 236.887 493.161 233.697Z"/><path fill="#FEFEFE" transform="scale(0.390625 0.390625)" d="M228.483 612.307C232.146 613.841 239.253 623.856 242.213 627.159C249.118 634.864 256.831 641.838 264.67 648.57C261.259 652.354 256.208 660.821 251.638 662.752C249.948 663.467 248.749 662.707 247.117 662.178C230.03 654.892 218.601 644.779 209.308 628.803C216.055 623.731 222.46 618.22 228.483 612.307Z"/><path fill="#F27A68" transform="scale(0.390625 0.390625)" d="M389.122 289.872C389.294 290.05 389.481 290.216 389.639 290.407C394.163 295.891 400.177 307.979 404.116 314.553C416.379 335.016 428.452 355.658 441.098 375.885C443.141 379.153 453.791 394.379 453.42 397.209L452.337 396.893L444.075 393.282C440.088 386.129 435.185 379.505 430.744 372.628L406.845 335.441C398.94 323.319 391.005 311.69 385.907 298.026C386.791 295.195 387.907 292.571 389.122 289.872Z"/><path fill="#FEFEFE" transform="scale(0.390625 0.390625)" d="M377.312 212.294C385.111 215.734 390.324 220.829 398.965 223.252C410.168 240.8 405.17 261.973 401.936 281.114C401.741 282.659 401.469 284.063 401.035 285.559L400.572 285.534C398.157 279.587 396.711 273.482 394.875 267.354C391.906 257.442 389.085 247.441 385.981 237.572C383.348 229.203 379.015 220.864 377.312 212.294Z"/><path fill="#FEFEFE" transform="scale(0.390625 0.390625)" d="M297.701 823.294C313.127 832.291 329.996 838.134 347.512 841.357L346.288 846.299L339.44 849.013C333.21 851.372 326.938 853.621 320.629 855.76C312.642 849.073 305.117 844.298 295.187 841.035C296.19 835.146 296.691 829.187 297.701 823.294Z"/><path fill="#FEFEFE" transform="scale(0.390625 0.390625)" d="M402.368 219.844C409.831 222.921 426.025 249.981 430.701 257.513C424.066 264.009 418.429 271.12 413.265 278.819C411.409 282.028 407.993 285.513 406.953 288.971C406.857 289.292 406.776 289.618 406.687 289.942L405.679 290.454C403.972 287.948 408.886 264.772 409.379 259.556C409.907 253.962 410.089 248.281 409.524 242.683C408.688 234.404 406.002 227.274 402.368 219.844Z"/><path fill="#FEFEFE" transform="scale(0.390625 0.390625)" d="M600.619 481.172C603.848 483.04 606.717 489.084 608.712 492.279C607.466 500.271 606.147 508.295 605.298 516.341C604.651 522.464 604.686 529.184 603.166 535.122L602.237 535.452L592.795 529.731C596.255 513.742 598.544 497.39 600.619 481.172Z"/><path fill="#82CBB5" transform="scale(0.390625 0.390625)" d="M647.45 253.227C651.733 255.426 655.318 259.223 658.778 262.522C651.312 266.442 643.792 269.266 636.89 274.256C636.947 277.5 637.343 280.76 637.643 283.991C634.46 285.628 631.346 287.45 628.21 289.177L622.268 292.335C621.181 291.037 620.202 289.646 619.198 288.282C628.543 276.535 638.279 265.117 647.45 253.227Z"/><path fill="#F27A68" transform="scale(0.390625 0.390625)" d="M516.751 251.325C513.926 251.114 504.708 255.681 501.406 257.007C481.92 264.778 462.548 272.831 443.296 281.164C436.455 284.147 429.879 287.875 422.979 290.676C421.422 291.308 420.295 291.7 418.684 291.278L418.658 290.387C421.181 287.247 426.021 284.982 429.564 283.187C447.636 274.029 466.876 267.136 485.645 259.564C494.493 255.995 505.456 250.117 514.73 248.557C516.309 249.016 516.645 249.624 517.739 250.815L516.751 251.325Z"/><path fill="#F27A68" transform="scale(0.390625 0.390625)" d="M369.569 206.652L370.471 207.011C374.252 211.546 398.172 287.526 397.847 294.802C396.815 294.095 396.177 293.483 395.518 292.422C389.585 282.867 384.483 259.363 380.787 247.577C377.332 236.559 371.709 222.098 369.423 211.178C369.065 209.466 369.137 208.342 369.569 206.652Z"/><path fill="#FEFEFE" transform="scale(0.390625 0.390625)" d="M237.271 890.155C254.825 888.568 269.497 896.638 282.929 906.97C281.667 908.328 280.122 910.208 278.344 910.841C277.534 911.129 277.369 910.773 276.692 910.382C275.547 909.247 274.348 908.17 273.098 907.154C260.284 896.532 245.411 894.117 229.277 895.685C231.639 892.442 233.26 890.961 237.271 890.155Z"/><path fill="#FEFEFE" transform="scale(0.390625 0.390625)" d="M253.479 874.454C269.199 875.359 285.268 882.122 295.915 893.724L291.97 897.69C286.854 892.438 280.721 888.285 273.945 885.485C270.011 883.899 265.926 882.716 261.754 881.952C259.787 881.595 250.602 880.691 249.54 879.941C249.308 879.777 249.161 879.518 248.972 879.307C248.99 879.174 248.989 879.037 249.024 878.908C249.536 877.039 251.995 875.498 253.479 874.454Z"/><path fill="#FEFEFE" transform="scale(0.390625 0.390625)" d="M270.341 860.079C285.792 861.752 300.183 868.734 311.061 879.833L306.54 883.468C293.539 873.028 281.253 867.755 264.972 864.68C266.694 862.981 268.384 861.507 270.341 860.079Z"/><path fill="#F1D8A3" transform="scale(0.390625 0.390625)" d="M386.301 322.421C387.656 322.812 388.224 323.208 389.488 322.294C390.342 321.676 391.152 320.516 391.843 319.706C392.964 321.206 395 323.387 395.502 325.171C396.159 327.509 394.471 332.329 397.091 332.922C397.783 332.702 399.065 332.027 399.682 332.432C402.402 334.214 407.348 342.072 407.84 345.249C407.999 346.277 407.918 346.771 407.557 347.715C406.529 348.536 406.381 348.638 405.081 348.782C395.356 342.978 388.769 333.453 384.694 323.02L386.301 322.421Z"/><path fill="#FEFEFE" transform="scale(0.390625 0.390625)" d="M152.343 630.661C154.448 630.549 156.573 630.558 158.682 630.513C162.895 637.382 166.473 646.508 168.149 654.391C168.608 656.55 168.926 658.049 167.651 660.011C166.711 660.203 165.707 660.457 164.748 660.503C163.555 660.56 162.625 660.238 161.875 659.281C159.541 656.305 152.147 634.275 152.343 630.661Z"/><path fill="#FEFEFE" transform="scale(0.390625 0.390625)" d="M181.63 626.786C181.683 626.816 181.747 626.832 181.79 626.876C184.08 629.242 192.244 651.104 192.12 654.387C192.092 655.119 191.512 655.422 191.029 655.913C189.323 656.566 187.942 656.486 186.135 656.404C181.44 647.08 177.715 637.212 173.63 627.606C176.3 627.432 178.97 627.074 181.63 626.786Z"/><path fill="#FEFEFE" transform="scale(0.390625 0.390625)" d="M491.097 252.182C491.88 252.062 491.448 252.054 492.385 252.323C488.672 255.136 469.263 261.173 463.708 263.337C448.434 269.285 433.171 276.06 419.446 285.097C419.085 285.212 419.333 285.163 418.691 285.042C418.789 284.872 418.875 284.694 418.987 284.533C421.224 281.322 426.275 278.845 429.645 276.816C448.257 265.613 469.481 255.562 491.097 252.182Z"/><path fill="#FEFEFE" transform="scale(0.390625 0.390625)" d="M583.724 453.343C587.006 456.553 596.335 470.666 596.918 475.042C597.088 476.327 596.639 476.894 595.908 477.901C590.948 474.254 586.103 470.428 581.212 466.687C582.457 462.358 583.003 457.786 583.724 453.343Z"/><path fill="#F27A68" transform="scale(0.390625 0.390625)" d="M517.739 250.815C529.09 267.141 540.088 283.71 550.725 300.509C556.296 309.135 562.58 317.417 566.925 326.754C557.38 316.864 551.121 303.879 543.646 292.394C534.765 278.748 525.087 265.281 516.751 251.325L517.739 250.815Z"/><path fill="#FEFEFE" transform="scale(0.390625 0.390625)" d="M383.239 301.925C385.111 306.294 387.025 310.645 388.983 314.977L386.301 322.421L384.694 323.02C382.712 315.894 382.835 309.231 383.239 301.925Z"/></svg>