<?xml version="1.0" encoding="utf-8" ?><svg xmlns="http://www.w3.org/2000/svg" xmlns:xlink="http://www.w3.org/1999/xlink" width="400" height="400" viewBox="0 0 400 400"><path fill="#060302" transform="scale(0.390625 0.390625)" d="M58.8303 119.351C58.0282 114.067 58.236 108.167 59.7677 103.026C62.029 95.4363 67.4122 89.188 73.3252 84.1221C89.6429 70.1419 110.506 64.68 131.189 61.0486C140.039 59.4949 149.144 58.1749 157.743 55.4898C164.939 53.2427 171.302 48.7039 177.93 45.214C185.096 41.4411 192.127 39.0768 200.214 41.5586L200.689 41.6652C204.593 42.8524 208.555 43.8193 212.011 46.0682C204.511 46.9725 197.131 47.9658 189.747 49.602C197.722 50.8292 205.509 51.7857 210.646 58.8778C213.558 62.8988 215.135 67.9302 216.812 72.5439C223.665 72.4605 230.029 74.4292 235.084 79.2972C238.453 82.5419 241.402 87.4649 241.482 92.2611C241.532 95.2048 240.265 97.9641 238.114 99.9581C236.644 101.321 234.743 102.222 232.99 103.169L230.249 104.51C230.81 113.582 230.153 128.604 235.879 135.962C241.184 142.78 249.51 139.979 256.76 140.836C260.449 141.272 262.111 142.541 264.429 145.365C264.916 154.499 263.917 162.767 260.494 171.291C262.425 173.094 265.132 175.24 265.968 177.811C266.983 180.929 265.312 183.433 263.904 186.086C264.97 187.683 266.224 189.281 267.121 190.969C269.627 195.682 267.533 200.633 265.947 205.231C267.697 211.202 269.052 217.188 266.606 223.216C260.67 237.843 232.398 241.273 219.049 247.021L218.136 247.42C227.197 247.531 237.151 247.972 245.583 251.64C259.727 257.793 264.836 277.517 269.948 290.774C276.512 293.932 281.784 298.117 287.741 302.223C286.994 296.237 286.806 290.555 287.648 284.554C288.081 281.472 288.61 278.667 291.202 276.719C291.807 276.595 293.554 276.384 293.963 275.866C295.423 274.015 297.642 258.489 298.424 255.012C300.058 247.745 302.453 240.61 305.042 233.63C313.827 209.949 319.81 201.452 338.503 184.459C345.295 178.286 352.001 172.431 359.485 167.091C362.412 155.531 364.663 143.839 366.919 132.134C371.897 134.118 376.326 136.399 380.726 139.463C383.949 137.123 387.183 134.107 390.889 132.629L398.225 136.18C399.003 128.376 399.978 120.471 401.886 112.856C411.68 117.236 420.876 126.503 429.123 133.314C447.89 148.965 466.461 164.848 484.833 180.96C495.98 190.678 508.55 200.104 518.528 211.01C513.334 223.743 507.715 236.288 502.392 248.966C497.756 260.005 493.478 271.424 487.978 282.062C489.722 283.275 491.435 284.429 492.571 286.27C497.293 293.924 487.719 298.969 486.315 305.773C486.842 307.038 487.373 308.317 487.673 309.658C488.995 315.576 484.747 321.62 481.813 326.404C483.163 328.045 484.295 329.87 485.472 331.638C485.803 339.184 482.941 341.639 481.61 348.287C480.865 352.006 481.815 355.863 480.734 359.575C477.305 371.358 466.757 382.17 457.662 389.876C450.571 395.885 444.755 399.624 440.171 408.062C440.856 409.672 441.361 411.162 441.492 412.92C442.231 422.849 435.505 439.255 429.179 446.745C431.438 454.931 430.057 460.974 427.393 468.788C435.289 472.762 442.875 477.687 450.458 482.227C497.571 441.881 547.176 405.095 596.972 368.188C613.01 356.302 643.764 330.83 661.456 324.281C673.543 319.807 687.331 322.123 698.711 327.546C705.455 330.76 711.212 335.56 716.126 341.145C724.216 350.339 730.085 361.188 737.415 370.948C754.287 393.056 771.616 414.812 789.39 436.202C798.929 447.589 822.56 471.239 827.089 484.048C864.003 483.383 870.382 469.245 897.641 450.507C909.05 442.664 922.426 437.271 936.452 439.989C944.769 441.602 952.464 445.813 957.145 453.037C962.482 461.272 962.959 470.974 960.794 480.313C958.779 488.925 955.127 497.069 950.035 504.301C939.522 519.479 925.116 531.154 912.969 544.909C902.789 556.437 894.209 569.446 883.414 580.422C878.826 585.164 873.662 589.314 868.044 592.775C856.488 599.891 840.663 605.169 827.049 601.654C807.796 596.684 807.801 572.469 803.392 556.989C801.446 550.154 798.504 544.265 794.875 538.181C793.28 538.854 791.626 539.496 789.967 539.991C783.832 541.821 779.406 540.437 774.301 536.942C773.178 536.172 771.91 534.981 770.666 534.481C769.475 534.004 768.591 533.922 767.423 534.396C769.908 548.817 773.254 563.071 775.99 577.444L791.657 662.51C798.843 700.857 805.077 739.453 812.855 777.68C806.585 788.445 796.043 797.173 787.111 805.721C792.259 826.959 799.529 845.836 814.399 862.288C816.976 861.372 819.579 860.597 822.279 860.137C830.518 858.731 840.141 860.192 846.939 865.316C849.01 866.876 850.85 868.911 851.112 871.589C851.249 872.974 850.619 874.422 849.737 875.455C845.683 880.201 837.023 880.588 831.208 881.009C842.149 892.386 870.578 908.361 885.208 915.783C900 923.285 923.631 931.31 933.396 944.969C937.922 951.3 937.235 957.434 936.134 964.665C935.34 965.612 934.511 966.483 933.588 967.308C916.903 982.229 887.162 985.888 865.747 984.706C854.418 984.08 843.445 981.966 832.486 979.145C808.419 972.95 729.063 946.068 712.88 927.997C712.661 926.94 712.467 925.877 712.298 924.811C710.356 912.305 715.156 882.706 719.851 870.677C721.789 865.712 724.582 861.565 727.718 857.284C726.448 844.882 722.132 832.928 721.345 820.373C717.479 819.499 711.306 818.613 708.956 815.152C705.524 810.097 701.518 794.428 699.288 787.725C694.721 774.212 690.063 760.731 685.313 747.283C678.418 728.036 670.351 709.174 663.666 689.876C662.013 685.103 660.328 679.958 659.597 674.951C657.681 661.823 660.816 643.374 663.294 630.286C661.754 630.591 660.175 630.934 658.603 631.018C656.329 631.139 654.293 630.834 652.576 629.217C650.341 627.113 650.404 623.432 650.313 620.604C634.245 628.856 617.943 636.595 601.737 644.569C569.137 660.609 536.281 676.422 502.309 689.379C490.997 693.693 479.543 698.209 467.838 701.333C458.079 703.937 447.055 704.383 437.894 708.651C426.917 713.766 416.829 721.132 406.366 727.232L348.458 760.59L194.585 849.893C202.329 840.836 238.956 820.754 251.219 813.545L372.168 743.19C391.958 731.751 412.544 721.296 431.647 708.745C413.38 710.142 395.08 707.705 377.406 703.195C378.088 710.359 378.382 717.556 378.285 724.753C375.172 729.294 370.902 732.615 366.249 735.448C359.28 735.82 352.522 734.263 345.742 732.812C317.642 726.796 289.376 715.347 265.821 698.749C247.224 685.645 240.565 674.184 236.769 652.078C232.151 649.444 227.791 646.55 223.748 643.083C216.655 637 212.505 629.356 207.162 621.842C203.566 616.785 199.492 611.949 195.322 607.352C183.483 594.305 170.225 582.736 158.988 569.094C116.786 517.086 91.2301 453.57 85.6526 386.826C83.7437 362.863 83.9813 339.31 88.4198 315.615C89.2136 311.378 89.9174 307.006 91.0495 302.847C92.1522 298.795 94.1421 295.151 94.5957 290.907C95.8439 279.229 90.9948 256.943 99.2563 247.803C103.674 242.915 110.113 243.01 116.168 242.847C98.1605 236.756 78.7163 228.38 64.6827 215.334C50.8425 202.468 44.0375 184.11 43.5134 165.445C43.0316 148.283 46.8414 132.027 58.8303 119.351ZM802.077 542.249C802.984 543.599 803.857 545.01 804.864 546.285C815.398 548.266 826.065 550.121 835.553 543.585C839.55 540.832 842.812 537.166 846.065 533.605C853.415 525.559 859.904 519.016 869.758 513.998C874.563 511.6 879.516 509.512 884.587 507.746C889.58 505.97 924.105 495.86 925.603 494.116C924.381 490.683 920.727 484.211 917.661 482.213C917.622 482.361 917.582 482.509 917.545 482.657C917.206 484.013 917.116 484.845 917.421 486.248C914.336 491.251 881.797 499.983 874.824 501.646C854.97 506.381 843.158 506.377 825.013 496.54C819.489 513.823 812.439 525.833 797.504 536.623C799.142 538.432 800.803 540.155 802.077 542.249ZM871.12 490.918C874.311 490.134 877.394 489.206 880.506 488.153C875.601 485.66 869.102 481.493 863.601 481.051L854.275 483.575C858.339 485.796 866.738 490.757 871.12 490.918ZM872.492 475.419L867.918 478.403C872.27 479.735 876.006 481.371 880.038 483.46C881.235 484.081 884.03 486.066 885.18 486.204C885.585 486.252 886.569 486.11 886.963 485.975C888.365 485.387 891.047 484.689 891.947 483.537C888.901 479.643 878.321 476.344 873.517 475.469C873.081 475.39 872.894 475.409 872.492 475.419ZM930.951 497.03C938.454 488.906 946.774 476.85 948.275 465.614C948.962 460.467 948.109 454.81 944.823 450.644C941.537 446.478 936.37 444.706 931.231 444.279C913.452 442.801 897.387 455.623 884.821 466.484C890.782 466.966 896.445 467.617 902.109 469.642C916.256 474.697 923.691 483.782 929.959 497.026L930.951 497.03ZM865.242 494.446C860.638 490.732 853.372 485.555 847.275 485.442C851.142 489.597 856.434 494.378 862.418 494.668C863.371 494.715 864.302 494.577 865.242 494.446ZM897.264 491.583C896.814 490.002 896.807 489.499 895.553 488.376L893.052 487.943C893.542 489.289 893.837 490.259 895.202 490.977C895.776 491.279 896.655 491.434 897.264 491.583ZM945.692 447.262C947.192 449.771 948.871 452.262 949.941 454.988C951.38 459.17 951.838 463.084 951.101 467.468C949.739 475.565 945.355 483.101 940.862 489.833C927.989 509.117 911.366 525.83 895.852 542.971C884.903 555.068 875.625 568.129 862.034 577.578C848.44 587.029 834.605 591.586 818.193 588.569C818.255 588.67 818.318 588.771 818.378 588.873C818.963 589.866 819.528 590.896 820.227 591.814C822.571 594.897 827.028 596.219 830.685 596.684C845.266 598.54 860.552 592.2 871.832 583.297C885.69 572.36 895.906 556.09 907.636 542.909C920.705 528.224 936.791 515.124 947.43 498.445C952.119 491.093 955.628 481.843 956.555 473.15C957.352 465.688 955.39 458.669 950.729 452.806C949.265 450.754 947.466 449.042 945.692 447.262ZM879.963 470.585L877.636 471.706L877.493 472.26C887.062 474.009 891.263 476.344 899.107 481.87C901.069 481.408 903.276 481.083 905.113 480.254L910.564 478.359C900.879 471.926 891.611 469.595 879.963 470.585ZM650.62 501.756C668.693 498.353 686.772 494.691 705.076 492.753C695.054 486.849 685.724 480.263 676.954 472.612C673.251 469.381 669.56 464.402 665.486 461.832C653.038 480.818 636.019 495.657 618.53 509.829C629.065 506.631 639.865 504.092 650.62 501.756ZM826.105 484.99L825.747 492.067C832.255 493.445 848.783 501.153 854.582 498.707C854.966 498.088 855.874 497.112 855.622 496.396C854.419 492.971 846.77 490.169 843.562 488.965C837.853 486.822 831.852 486.698 826.105 484.99Z"/><path fill="#7A584B" transform="scale(0.390625 0.390625)" d="M200.214 41.5586L200.689 41.6652C196.772 45.2821 185.257 49.8304 179.921 52.4751C186.58 52.4005 194.599 52.4144 200.452 56.1226C201.507 58.4784 202.517 61.5143 203.983 63.6003C205.925 64.6294 206.75 66.8812 207.393 68.9202C209.115 74.3822 207.436 80.1303 204.798 84.9987C198.606 96.4251 186.529 106.585 173.972 110.147C170.648 111.09 164.159 112.211 161.017 110.562C160.823 110.46 160.637 110.342 160.447 110.232L153.994 111.734C147.211 108.942 145.512 105.921 142.566 99.3817C142.121 122.413 138.08 137.946 120.926 154.4C109.679 165.189 102.788 169.449 86.9992 169.213C85.7013 169.193 84.5286 169.173 83.4595 168.362L83.4894 167.633C95.6806 157.434 101.612 151.269 105.856 135.516C97.4774 148.531 89.7243 160.13 75.627 167.432C70.2992 168.819 65.0768 169.093 60.1758 166.168C53.0979 161.944 51.3603 154.191 49.619 146.778C50.5123 143.206 51.3926 139.585 52.6685 136.127C59.8527 116.655 80.6452 110.045 97.8821 101.986C83.8984 104.177 72.4886 110.973 60.8496 118.613C61.4235 110.72 63.5615 103.071 68.2257 96.5956C72.5328 90.6163 78.4945 85.6743 84.7152 81.7966C109.825 66.1443 134.519 68.4781 159.902 59.083C172.605 54.3815 182.878 44.2327 196.596 42.1264L200.214 41.5586Z"/><path fill="#060302" transform="scale(0.390625 0.390625)" d="M203.983 63.6003C205.925 64.6294 206.75 66.8812 207.393 68.9202C209.115 74.3822 207.436 80.1303 204.798 84.9987C198.606 96.4251 186.529 106.585 173.972 110.147C170.648 111.09 164.159 112.211 161.017 110.562C160.823 110.46 160.637 110.342 160.447 110.232C166.467 108.659 172.364 106.973 178.003 104.297C189.306 98.9324 200.485 89.8516 204.679 77.6713C205.467 75.3847 206.324 73.0433 205.194 70.7477C201.481 67.427 195.521 66.389 190.816 65.0106C195.414 65.2655 199.732 66.0828 204.247 66.5206C204.714 65.6663 204.191 64.5428 203.983 63.6003Z"/><path fill="#402D29" transform="scale(0.390625 0.390625)" d="M124.286 246.875C103.447 228.261 72.5204 225.048 57.6249 199.003C48.9961 183.915 45.0905 163.688 49.619 146.778C51.3603 154.191 53.0979 161.944 60.1758 166.168C65.0768 169.093 70.2992 168.819 75.627 167.432C74.0259 168.674 71.934 169.516 70.11 170.408C70.0801 181.568 78.1124 190.03 83.7451 198.708C86.831 203.463 89.409 208.455 92.1585 213.395C93.1968 215.26 95.23 217.977 95.4088 219.996C94.3014 220.29 94.7166 220.012 94.0736 220.679C97.1582 225.293 103.165 227.897 106.264 232.466L105.84 233.14C105.039 232.766 104.424 232.512 103.538 232.38C103.308 232.346 103.077 232.327 102.847 232.301L102.794 232.194C106.599 234.267 110.502 236.291 114.158 238.615C117.788 240.924 121.958 244.701 125.925 246.203C128.854 247.311 143.928 246.721 147.713 246.214L146.597 237.503C147.857 240.414 148.165 244.381 148.727 247.523C140.731 246.522 132.338 246.902 124.286 246.875Z"/><path fill="#402D29" transform="scale(0.390625 0.390625)" d="M200.452 56.1226C205.027 57.9276 208.751 61.0088 210.722 65.6175C213.503 72.1207 212.066 79.8106 209.371 86.1064C203.871 98.9552 193.474 108.529 180.531 113.589C173.538 116.323 167.339 117.579 160.228 114.426C158.216 113.534 156.094 112.359 153.994 111.734L160.447 110.232C160.637 110.342 160.823 110.46 161.017 110.562C164.159 112.211 170.648 111.09 173.972 110.147C186.529 106.585 198.606 96.4251 204.798 84.9987C207.436 80.1303 209.115 74.3822 207.393 68.9202C206.75 66.8812 205.925 64.6294 203.983 63.6003C202.517 61.5143 201.507 58.4784 200.452 56.1226Z"/><path fill="#F0E6D2" transform="scale(0.390625 0.390625)" d="M218.546 78.5211C220.819 79.2769 223.177 79.9851 225.365 80.9612C231.345 83.6297 234.313 87.3043 236.668 93.2469C235.632 96.6635 234.406 99.892 232.99 103.169L230.249 104.51C227.998 94.4875 224.58 86.8419 218.546 78.5211Z"/><path fill="#7A584B" transform="scale(0.390625 0.390625)" d="M703.312 498.696C717.156 497.39 732.556 498.841 744.325 506.908C751.495 511.823 755.702 518.669 758.65 526.714C763.32 539.46 765.477 553.277 768.061 566.564C771.38 583.519 774.599 600.493 777.716 617.487L806.794 776.577C789.614 798.859 772.843 812.304 744.543 816.669C742.537 801.456 738.011 787.03 734.146 772.232C729.282 753.499 724.658 734.705 720.275 715.854C715.693 696.395 711.603 676.823 708.007 657.158C705.742 644.922 704.123 632.389 701.2 620.299C699.846 614.699 698.191 609.788 695.432 604.727C698.349 615.1 699.729 625.735 701.544 636.331C704.2 651.928 707.05 667.492 710.092 683.019C719.627 727.832 730.404 772.371 742.41 816.586C732.778 816.388 723.285 814.24 713.854 812.445C710.745 806.239 708.962 799.19 706.892 792.578C703.999 783.203 700.932 773.883 697.692 764.622C691.839 748.254 685.832 731.942 679.671 715.687C674.608 702.444 668.042 689.03 665.787 674.946C663.293 659.381 665.825 642.558 667.641 627.007C675.938 619.655 685.46 613.628 693.848 606.311C700.559 600.457 723.424 576.118 723.623 567.276C723.648 566.17 723.461 566.033 722.75 565.275C711.987 563.441 667.789 607.674 653.646 614.898L653.029 615.206C660.029 593.439 670.865 573.364 682.322 553.655C686.521 546.432 691.353 539.533 695.079 532.053C681.991 545.639 672.58 551.829 657.142 561.917C614.879 589.532 587.647 598.225 538.76 610.072C499.654 619.152 461.348 630.235 421.647 636.866C414.564 638.049 407.378 639.1 400.207 639.546C393.305 639.975 386.341 639.863 379.485 640.828L378.562 640.963C380.042 641.217 381.528 641.441 383.017 641.634C391.553 642.703 400.763 641.489 409.292 640.561C447.452 636.41 484.926 626.439 522.092 617.103C550.69 609.918 586.684 601.866 613.316 590.171C638.16 579.261 661.692 563.227 683.103 546.721C669.007 568.746 657.746 590.828 648.955 615.482C628.552 624.763 608.811 635.214 588.662 644.996C564.387 656.767 539.737 667.75 514.752 677.929C485.873 689.761 455.553 701.595 424.051 703.32C408.47 704.174 392.251 701.181 377.12 697.691C375.067 675.02 371.057 652.6 368.354 630C376.581 621.719 383.866 612.371 391.959 603.912C406.254 588.969 421.43 575.036 436.753 561.165C415.577 571.947 380.946 607.132 368.118 627.308C367.907 620.622 367.329 613.952 366.384 607.329C389.724 583.466 417.888 564.858 448.993 552.749C461.604 547.827 474.58 547.617 487.777 545.533C498.655 543.816 509.424 541.283 520.183 538.951C545.861 533.474 571.43 527.496 596.874 521.02C605.371 518.852 613.767 516.309 622.265 514.145C648.716 507.407 676.129 501.513 703.312 498.696Z"/><path fill="#FBF2D8" transform="scale(0.390625 0.390625)" d="M180.801 340.173C187.403 339.262 194.681 340.469 200.97 342.532C209.606 345.388 217.588 349.928 224.456 355.891C252.623 380.203 276.862 432.905 293.695 466.327C287.772 460.743 282.353 454.64 276.585 448.9C268.487 440.842 255.182 431.134 250.363 420.952C244.581 408.737 242.074 395.077 236.018 382.855C234.237 379.26 230.614 372.768 226.705 371.439L226.055 371.78C227.138 376.98 232.727 385.286 235.127 390.654C239.439 400.297 243.165 410.206 246.975 420.056C240.425 414.231 234.446 407.67 228.377 401.35L206.707 378.979C202.302 374.398 198.032 369.325 193.261 365.132C191.627 363.695 190.124 362.592 188.046 361.851L187.686 362.426C188.591 364.989 190.105 367.066 191.825 369.138C196.942 375.303 202.845 380.984 208.392 386.774C218.549 397.404 228.799 407.943 239.142 418.392L269.107 448.147C276.617 455.663 283.899 463.467 291.763 470.616C297.013 475.389 302.564 479.639 308.405 483.648C305.913 487.379 303.384 491.087 300.821 494.771C304.306 506.812 312.497 516.998 315.133 529.304C317.71 541.33 315.686 555.1 314.616 567.281C314.276 571.152 313.524 575.439 313.897 579.295C314.023 580.596 314.084 581.342 315.113 582.218C315.66 582.15 315.774 582.173 316.337 581.906C319.403 580.454 321.581 573.316 322.473 570.283C326.015 558.24 333.863 529.59 333.766 518.048C333.732 514.106 332.929 510.288 330.936 506.853C328.829 503.224 325.42 499.825 321.204 498.901C319.654 498.561 317.548 498.414 316.187 499.261C319.327 503.778 326.967 504.231 329.653 512.188C333.859 524.651 323.533 561.896 317.763 574.397C319.472 537.452 322.322 532.414 304.973 497.523C307.113 493.387 309.827 489.668 312.524 485.889C314.179 483.609 315.856 481.345 317.554 479.097C329.294 463.484 342.837 449.386 355.759 434.751C361.505 428.245 366.994 420.172 373.705 414.725C375.23 413.488 376.987 413.113 378.914 412.885C388.559 411.745 398.147 417.268 405.275 423.203C412.773 429.448 424.978 440.043 425.694 450.472C427.222 472.734 390.822 552.265 375.406 569.368C365.864 579.954 330.828 613.314 317.637 613.6C314.219 613.674 310.767 612.006 307.789 610.451C294.777 603.659 280.161 593.214 267.769 584.974C249.835 573.05 231.644 561.302 214.275 548.565C204.708 541.626 195.452 534.267 186.536 526.509C179.354 520.127 172.556 513.324 166.178 506.138C160.995 500.221 156.244 493.951 150.561 488.492C164.575 517.187 192.653 538.275 217.939 556.466C204.816 550.924 192.126 544.03 179.713 537.065C172.821 533.199 165.406 529.296 159.174 524.418C152.953 519.55 149.605 511.696 146.209 504.755C135.72 483.317 127.171 460.017 124.202 436.227C121.032 410.827 123.493 384.297 139.813 363.58C150.18 350.419 164.119 342.189 180.801 340.173Z"/><path fill="#7A584B" transform="scale(0.390625 0.390625)" d="M454.563 486.548C500.926 448.187 548.346 411.122 596.768 375.395C610.053 365.238 623.547 355.358 637.241 345.759C644.985 340.307 652.924 334.151 661.537 330.176C667.296 327.518 674.81 326.962 681.051 327.609C693.992 328.951 704.955 335.947 712.949 345.978C720.085 354.934 726.109 364.88 733.06 374.019C755.255 403.199 777.78 431.681 801.935 459.272C809.212 467.584 815.795 476.785 823.876 484.33C819.034 504.469 810.757 524.084 792.191 535.319C788.195 537.737 784.565 538.089 780.035 536.89C774.967 535.548 770.003 532.49 765.313 530.183C760.873 516.743 756.096 506.38 742.853 499.654C732.5 494.396 721.148 493.353 709.818 491.946C704.072 486.241 697.345 481.769 690.834 477C685.373 472.942 679.995 468.773 674.705 464.496C689.762 452.918 702.103 443.236 708.58 424.672C719.072 438.131 731.982 449.995 743.928 462.169C759.149 477.68 774.02 494.611 791.564 507.567C782.549 495.923 770.764 486.31 760.404 475.847C743.159 458.429 726.435 440.464 709.045 423.206C710.32 417.902 711.385 412.696 711.914 407.254C712.78 398.358 712.951 377.42 708.265 369.598C707.657 368.582 707.085 368.019 705.998 367.503C704.385 367.626 703.5 367.978 702.455 369.271C697.373 375.561 691.996 397.021 689.054 405.616C685.064 417.277 680.697 429.48 674.585 440.217C675.77 429.198 679.661 381.271 673.414 373.014C672.761 372.15 672.348 372.068 671.363 371.746C669.158 372.383 667.453 375.838 666.388 377.802C661.663 386.52 658.058 395.03 651.804 402.914C627.338 433.764 594.426 463.644 565.93 491.096C552.544 503.991 539.645 518.669 524.753 529.827C521.388 532.348 517.893 534.057 513.885 535.282C506.842 537.435 499.285 538.529 492.042 539.843C492.594 526.226 493.579 512.783 495.386 499.269C496.941 487.638 499.547 476 499.608 464.235C492.522 480.419 487.387 522.772 488.668 540.413C483.532 541.591 478.37 542.396 473.166 543.197C469.283 538.514 465.484 533.752 460.905 529.717C447.965 518.314 429.648 513.585 413.575 508.355C415.347 504.213 417.097 500.061 418.823 495.9C429.639 499.022 440.779 500.605 451.585 503.618C460.383 506.072 468.44 509.839 477.487 511.697C479.208 518.6 481.298 531.518 485.63 537.072L486.453 537.323C488.772 532.666 484.73 501.724 484.554 494.244C484.386 487.051 485.183 479.844 484.743 472.656C479.671 485.849 481.165 502.68 482.669 516.533L481.783 516.292C478.644 501.884 465.992 494.324 454.563 486.548Z"/><path fill="#FBF2D8" transform="scale(0.390625 0.390625)" d="M98.9685 294.127C109.692 298.701 118.449 305.054 129.827 308.725C151.453 315.701 174.17 319.02 196.307 324C202.705 325.44 209.489 326.548 215.72 328.581C224.468 331.435 230.11 338.999 236.287 345.36C263.442 373.327 279.872 404.291 294.238 440.339C299.84 454.397 304.301 468.498 311.418 481.922C296.36 468.131 289.631 448.241 280.709 430.394C268.4 405.772 244.54 367.441 222.049 351.21C208.774 341.629 192.909 336.057 176.458 338.778C159.457 341.59 144.251 353.148 134.458 366.993C118.684 389.294 116.306 418.666 120.731 444.945C123.541 461.636 128.869 477.661 135.644 493.139C139.907 502.881 144.544 513.163 151.517 521.283C162.424 533.985 192.087 548.846 207.521 556.079C215.074 559.62 222.914 562.667 230.281 566.586C236.48 569.884 242.151 573.881 247.862 577.936L254.923 582.983C250.767 593.753 248.652 605.203 245.753 616.343C244.004 623.061 241.579 629.693 240.215 636.498C239.838 638.38 239.358 640.528 239.829 642.408L240.587 642.094C247.583 631.961 253.557 597.459 256.347 584.056C270.785 592.655 301.416 617.036 316.513 619.092C328.312 620.699 340.691 608.405 349.412 601.688C349.741 634.119 357.512 667.49 361.727 699.765C350.781 696.778 339.862 693.691 328.973 690.503C298.38 681.449 269.312 667.872 242.733 650.223C236.128 645.857 229.208 641.476 223.706 635.727C218.822 630.625 215.585 624.35 211.697 618.516C207.871 612.777 203.312 607.487 198.509 602.55C189.201 592.983 179.439 583.824 170.462 573.94C154.322 556.172 141.062 536.301 129.781 515.149C120.821 498.349 112.89 481.126 106.742 463.091C89.0146 411.087 82.7671 347.208 98.9685 294.127Z"/><path fill="#FBF2D8" transform="scale(0.390625 0.390625)" d="M215.176 81.8013C215.387 82.0062 215.618 82.1927 215.809 82.416C218.379 85.4088 225.145 99.1655 224.365 103.124L223.779 103.279C222.059 101.35 221.122 98.7706 220.043 96.442L219.794 96.4286L219.247 97.2199C218.998 99.8885 218.997 104.237 220.361 106.613C221.137 107.966 222.615 108.143 224.011 108.488C224.744 108.668 225.193 109.035 225.592 109.716C228.302 114.337 225.581 129.532 232.995 139.562C239.276 148.059 247.322 143.243 255.5 144.942C257.386 145.333 259.061 146.186 260.063 147.898C263.07 153.034 259.279 163.098 257.7 168.453C255.495 168.784 253.157 168.766 251.3 170.101L251.422 170.708C253.348 171.324 255.349 170.853 257.317 170.606C259.151 174.117 261.387 177.38 261.56 181.454C262.09 193.952 245.277 192.506 240.968 197.807C240.328 198.595 240.472 198.228 240.544 199.216C243.586 199.764 248.65 197.286 251.518 196.233C254.969 194.966 256.852 190.967 259.985 190.119C261.273 189.77 261.592 190.045 262.592 190.732C264.494 195.07 262.531 200.698 261.27 205.008L261.483 205.684C262.924 210.323 264.239 215.345 262.587 220.12C256.825 236.781 215.267 236.089 208.547 249.981C203.512 260.391 211.422 277.871 215.161 287.71C213.281 290.735 210.947 294.621 207.695 296.299C206.3 297.019 204.692 297.248 203.2 296.647C198.003 294.556 195.254 284.42 193.352 279.534C189.591 277.212 185.482 275.607 181.389 273.983C171.065 269.915 160.477 266.538 149.97 262.978C141.538 260.122 132.61 257.564 125.055 252.746C133.45 249.661 142.912 250.08 151.735 249.96C150.058 243.471 148.857 237.372 146.219 231.142C148.843 231.83 151.497 232.398 154.173 232.845C161.281 234.026 168.899 233.662 174.884 229.169C177.225 227.412 180.513 223.969 180.712 220.872C180.761 220.11 180.693 220.306 180.101 219.699C176.81 221.87 174.034 224.544 170.49 226.364C162.542 230.448 152.267 229.588 143.996 226.79C137.724 224.668 131.742 220.63 128.905 214.459C125.33 206.686 127.595 197.843 130.315 190.205C137.323 184.201 147.022 180.634 155.521 185.897C158.264 187.596 161.252 190.676 164.547 190.899C165.935 190.356 166.595 189.673 167.266 188.368C172.338 178.499 173.37 148.701 171.802 137.521C171.044 132.119 169.257 126.911 167.579 121.742C174.04 120.336 180.575 118.986 186.588 116.145C200.927 109.369 209.97 96.3604 215.176 81.8013Z"/><path fill="#060302" transform="scale(0.390625 0.390625)" d="M150.57 215.755C145.806 214.499 141.23 213.137 138.581 208.554C137.266 206.279 136.862 203.622 137.538 201.073C138.236 198.443 139.986 196.332 142.387 195.074C146.596 192.866 152.251 193.438 156.596 194.923C160.927 196.405 165.946 199.567 167.844 203.922C168.641 205.749 168.811 207.83 168.04 209.694C167.244 211.621 165.282 213.511 163.337 214.268C161.258 215.077 159.031 215.081 156.843 214.944L156.471 214.64C160.437 212.345 164.228 212.765 167.296 208.882L167.476 207.613C164.841 206.613 162.816 208.721 160.142 208.258C160.109 206.731 159.943 205.86 158.847 204.753C158.207 204.106 157.846 203.753 157.569 202.852C158.191 201.768 159.017 201.113 159.956 200.323C156.32 198.662 148.652 196.854 144.678 198.398C143.423 198.886 142.303 199.628 141.725 200.903C140.906 202.709 141.454 204.853 142.272 206.551C144.085 210.313 147.488 213.056 150.57 215.755Z"/><path fill="#F0E6D2" transform="scale(0.390625 0.390625)" d="M159.956 200.323C161.447 201.415 162.612 202.197 163.467 203.866C163.405 205.148 163.458 205.688 162.491 206.674C161.887 207.289 160.88 207.799 160.142 208.258C160.109 206.731 159.943 205.86 158.847 204.753C158.207 204.106 157.846 203.753 157.569 202.852C158.191 201.768 159.017 201.113 159.956 200.323Z"/><path fill="#060302" transform="scale(0.390625 0.390625)" d="M208.894 114.533L211.67 114.588C212.819 115.387 212.828 115.383 213.201 116.73C211.931 122.305 202.046 127.555 197.667 131.084C195.107 133.147 192.731 135.408 190.368 137.691C189.272 138.498 189.219 138.772 187.888 138.628C187.087 136.955 187.425 135.59 188.056 133.887C191.557 124.436 200.075 118.491 208.894 114.533Z"/><path fill="#060302" transform="scale(0.390625 0.390625)" d="M224.291 136.744C224.642 136.929 224.862 137.009 225.133 137.354C226.017 138.478 226.315 140.164 226.284 141.556C226.127 148.542 220.982 148.982 218.536 153.223C218.167 153.862 218.178 154.822 218.106 155.539C219.691 156.026 220.621 153.607 222.386 153.789C222.254 156.554 221.265 157.859 219.531 159.879C217.563 160.418 215.001 161.29 213.018 160.449C212.204 160.104 212.192 159.601 211.842 158.857C211.947 151.754 220.05 142.328 224.291 136.744Z"/><path fill="#D46653" transform="scale(0.390625 0.390625)" d="M369.715 138.379C389.697 150.765 409.93 162.782 429.8 175.341C451.431 189.013 471.776 203.494 495.519 213.393C492.581 213.553 489.628 213.663 486.696 213.895C475.105 237.504 465.369 261.6 456.378 286.297L455.336 285.473C456.843 277.859 452.596 275.85 448.953 269.946C447.613 267.775 447.523 266.07 448.149 263.651C446.998 262.291 446.177 261.234 444.508 260.539L442.98 260.606C442.335 261.603 442.316 261.777 442.572 263.005C443.15 265.771 445.342 267.805 445.972 270.517L444.039 270.093C442.128 270.79 441.008 271.067 438.982 270.772C438.469 269.52 437.798 268.875 436.745 268.058C435.725 267.267 434.882 266.511 434 265.57L433.275 264.21C432.921 263.652 432.47 263.184 431.972 262.75C430.519 261.482 429.062 261.466 427.228 261.561C424.003 262.624 421.046 263.7 418.107 265.432C403.096 275.68 383.679 283.96 373.209 299.26C371.011 297.46 368.893 295.707 366.952 293.624C369.662 288.178 370.772 284.663 375.698 280.759C373.885 279.914 372.788 278.966 371.382 277.554L370.945 278.04C371.354 279.577 371.665 280.515 371.073 282.077C370.14 282.972 369.648 283.381 368.299 283.378C364.961 283.37 360.746 280.654 358.317 278.566L357.591 279.897C356.727 279.493 355.753 279.085 355.01 278.475C353.099 276.906 352.849 274.257 352.417 271.985C352.015 269.978 351.451 268.236 350.646 266.356C348.755 263.106 348.529 260.139 344.99 258.124C345.272 255.978 346.017 255.21 347.627 253.877L349.112 250.042C348.49 248.661 348.015 247.315 347.924 245.785C347.646 241.11 349.481 230.71 352.32 226.94C353.748 225.043 355.949 223.932 357.481 222.117C357.69 221.869 357.892 221.615 358.098 221.364L361.356 218.545L364.75 215.734C365.972 213.257 367.122 212.318 369.666 211.279C369.809 211.22 369.953 211.165 370.096 211.108L370.496 210.053L369.824 209.338C370.471 207.759 372.221 206.456 373.463 205.289C373.739 200.504 373.788 197.075 371.545 192.737C364.384 191.954 358.749 195.927 353.272 199.923C360.716 180.185 366.647 159.278 369.715 138.379Z"/><path fill="#180F0A" transform="scale(0.390625 0.390625)" d="M372.933 189.162C381.605 190.64 394.463 195.603 399.811 202.918C403.669 208.194 399.803 213.036 401.55 217.344C403.633 218.658 403.95 220.616 404.474 222.857L405.704 223.065C407.175 223.791 407.836 223.971 408.779 225.349C408.63 226.87 408.349 227.48 409.139 228.823C410.791 229.735 412.802 230.546 414.132 231.893C417.68 236.845 421.554 241.907 424.337 247.329C424.169 250.535 423.819 253.847 424.134 257.042C425.035 257.667 425.915 258.314 426.793 258.972L427.228 261.561C424.003 262.624 421.046 263.7 418.107 265.432C403.096 275.68 383.679 283.96 373.209 299.26C371.011 297.46 368.893 295.707 366.952 293.624C369.662 288.178 370.772 284.663 375.698 280.759C373.885 279.914 372.788 278.966 371.382 277.554L370.945 278.04C371.354 279.577 371.665 280.515 371.073 282.077C370.14 282.972 369.648 283.381 368.299 283.378C364.961 283.37 360.746 280.654 358.317 278.566L357.591 279.897C356.727 279.493 355.753 279.085 355.01 278.475C353.099 276.906 352.849 274.257 352.417 271.985C352.015 269.978 351.451 268.236 350.646 266.356C348.755 263.106 348.529 260.139 344.99 258.124C345.272 255.978 346.017 255.21 347.627 253.877L349.112 250.042C348.49 248.661 348.015 247.315 347.924 245.785C347.646 241.11 349.481 230.71 352.32 226.94C353.748 225.043 355.949 223.932 357.481 222.117C357.69 221.869 357.892 221.615 358.098 221.364L361.356 218.545L364.75 215.734C365.972 213.257 367.122 212.318 369.666 211.279C369.809 211.22 369.953 211.165 370.096 211.108L370.496 210.053L369.824 209.338C370.471 207.759 372.221 206.456 373.463 205.289C373.739 200.504 373.788 197.075 371.545 192.737C371.797 191.324 371.885 190.238 372.933 189.162Z"/><path fill="#FEE0A0" transform="scale(0.390625 0.390625)" d="M405.704 223.065C407.175 223.791 407.836 223.971 408.779 225.349C408.63 226.87 408.349 227.48 409.139 228.823C410.791 229.735 412.802 230.546 414.132 231.893C417.68 236.845 421.554 241.907 424.337 247.329C424.169 250.535 423.819 253.847 424.134 257.042C425.035 257.667 425.915 258.314 426.793 258.972L427.228 261.561C424.003 262.624 421.046 263.7 418.107 265.432C403.096 275.68 383.679 283.96 373.209 299.26C371.011 297.46 368.893 295.707 366.952 293.624C369.662 288.178 370.772 284.663 375.698 280.759L378.516 278.221C379.932 276.863 381.334 275.405 382.567 273.877C387.687 267.534 390.471 258.348 389.106 250.218C388.626 247.364 387.588 244.702 387.295 241.804L387.677 241.574L389.16 243.514L389.687 244.318L390.683 243.254C391.205 240.963 391.033 239.47 389.773 237.433L390.753 235.515C392.037 235.653 392.677 236.417 393.456 237.438C394.59 238.924 396.232 241.982 396.199 243.809L397.848 243.869C398.326 242.675 397.679 241.471 397.446 240.208C397.4 239.958 397.36 239.708 397.318 239.458C396.593 237.534 395.364 236.083 394.362 234.309L395.574 233.904C397.386 234.41 399.883 234.048 401.77 233.856C403.456 233.685 404.57 233.296 405.643 231.883C406.654 230.552 406.828 228.843 406.512 227.258L405.704 223.065Z"/><path fill="#060302" transform="scale(0.390625 0.390625)" d="M405.744 248.578C404.66 248.025 403.581 247.654 403.022 246.503C405.911 246.111 413.388 250.163 417.68 250.229C418.316 248.53 411.448 245.842 410.668 243.487C411.284 242.3 411.453 242.473 412.62 241.969C414.803 246.419 418.045 246.377 420.931 249.705L421.287 251.585C421.385 251.858 421.488 252.13 421.581 252.406C422 253.651 421.925 254.849 421.867 256.141L422.47 256.922L424.134 257.042C425.035 257.667 425.915 258.314 426.793 258.972L427.228 261.561C424.003 262.624 421.046 263.7 418.107 265.432C417.18 264.454 416.754 263.842 416.352 262.552C416.276 262.515 416.202 262.472 416.123 262.442C415.125 262.057 414.438 261.849 413.556 261.215L413.947 258.98L413.495 258.582L411.883 260.709C409.965 261.117 409.126 255.296 407.737 254.052C407.08 253.462 405.55 252.941 404.718 252.519L404.543 251.827L406.163 249.844L405.744 248.578Z"/><path fill="#FED08C" transform="scale(0.390625 0.390625)" d="M421.287 251.585C421.385 251.858 421.488 252.13 421.581 252.406C422 253.651 421.925 254.849 421.867 256.141L422.47 256.922L424.134 257.042C425.035 257.667 425.915 258.314 426.793 258.972L427.228 261.561C424.003 262.624 421.046 263.7 418.107 265.432C417.18 264.454 416.754 263.842 416.352 262.552C418.449 261.925 420.466 260.471 422.366 259.372L419.793 257.33C419.07 255.233 420.373 253.514 421.287 251.585Z"/><path fill="#F1BD6F" transform="scale(0.390625 0.390625)" d="M405.744 248.578C407.791 249.02 409.794 249.218 411.393 250.667L411.391 251.371C409.386 251.561 407.865 250.824 406.163 249.844L405.744 248.578Z"/><path fill="#FED08C" transform="scale(0.390625 0.390625)" d="M413.385 252.653C415.108 252.523 416.923 252.177 418.528 252.945C419.177 254.473 418.886 255.046 418.593 256.649C417.492 256.462 416.223 256.067 415.259 255.495C414.131 254.826 413.678 253.89 413.385 252.653Z"/><path fill="#FED08C" transform="scale(0.390625 0.390625)" d="M412.62 241.969C413.643 242.136 414.652 242.236 415.672 242.38C417.004 242.569 418.754 243.511 419.584 244.592C420.612 245.929 421.004 248.076 420.931 249.705C418.045 246.377 414.803 246.419 412.62 241.969Z"/><path fill="#060302" transform="scale(0.390625 0.390625)" d="M389.773 237.433L390.753 235.515C392.037 235.653 392.677 236.417 393.456 237.438C394.59 238.924 396.232 241.982 396.199 243.809C394.378 241.904 393.317 239.528 392.112 237.21C392.166 239.635 392.761 243.822 391.065 245.653C390.21 245.16 390.224 245.266 389.687 244.318L390.683 243.254C391.205 240.963 391.033 239.47 389.773 237.433Z"/><path fill="#060302" transform="scale(0.390625 0.390625)" d="M397.318 239.458C398.372 240.441 399.904 241.575 400.045 243.106C400.164 244.4 399.775 245.082 398.934 245.974L398.144 245.881C398.038 245.215 397.903 244.541 397.848 243.869C398.326 242.675 397.679 241.471 397.446 240.208C397.4 239.958 397.36 239.708 397.318 239.458Z"/><path fill="#DA8E5A" transform="scale(0.390625 0.390625)" d="M372.933 189.162C381.605 190.64 394.463 195.603 399.811 202.918C403.669 208.194 399.803 213.036 401.55 217.344C401.096 219.016 400.743 222.253 399.562 223.48L398.483 223.019C397.432 219.928 393.603 217.914 393.111 214.881C392.952 213.9 392.972 213.779 392.288 213.078L391.029 213.098C388.617 212.336 386.667 212.391 384.425 210.95C385.223 210.894 384.922 210.878 385.684 210.963C385.857 210.983 386.028 211.007 386.201 211.029C380.933 208.613 376.081 209.6 370.496 210.053L369.824 209.338C370.471 207.759 372.221 206.456 373.463 205.289C373.739 200.504 373.788 197.075 371.545 192.737C371.797 191.324 371.885 190.238 372.933 189.162Z"/><path fill="#060302" transform="scale(0.390625 0.390625)" d="M385.899 194.402C390.281 196.856 387.282 197.961 388.953 200.024C389.696 200.943 390.779 201.502 391.956 201.565C392.604 201.6 393.304 201.568 393.96 201.58L394.856 201.592C396.439 202.452 396.88 203.858 397.595 205.413C396.873 205.197 397.122 205.369 396.626 204.879C393.826 202.115 388.345 203.325 386.227 200.064C385.083 198.302 385.478 196.314 385.899 194.402Z"/><path fill="#FED08C" transform="scale(0.390625 0.390625)" d="M364.976 221.952C371.327 221.918 377.182 222.074 383.457 223.19C383.542 223.349 383.638 223.503 383.713 223.667C384.761 225.966 384.516 228.433 385.997 230.605L386.607 230.769L388.117 229.713C389.176 229.922 389.402 229.899 389.958 230.917C390.156 231.279 390.468 232.078 390.631 232.483C392.139 233.488 393.757 233.522 395.507 233.72L395.574 233.904L394.362 234.309C395.364 236.083 396.593 237.534 397.318 239.458C397.36 239.708 397.4 239.958 397.446 240.208C397.679 241.471 398.326 242.675 397.848 243.869L396.199 243.809C396.232 241.982 394.59 238.924 393.456 237.438C392.677 236.417 392.037 235.653 390.753 235.515L389.773 237.433C388.226 236.427 386.675 235.483 385.054 234.6C382.633 232.962 382.475 229.311 379.975 227.681C377.982 227.39 376.563 227.831 374.659 228.422C372.644 229.048 370.924 228.72 368.897 228.449L364.976 221.952Z"/><path fill="#F1BD6F" transform="scale(0.390625 0.390625)" d="M349.112 250.042C351.287 250.893 352.751 254.029 353.874 255.954C355.987 255.318 358.022 254.131 360.141 254.696C362.565 255.342 367.627 252.558 369.931 251.607C370.584 254.09 371.917 257.476 370.79 259.962C370.241 261.172 369.067 261.743 368.054 262.494C367.795 262.687 367.547 262.896 367.289 263.09C366.755 263.492 366.316 263.737 365.703 263.982C365.248 264.536 364.874 265.043 364.297 265.475C363.581 264.048 363.403 263.147 361.99 262.353C360.53 263.104 359.827 264.544 359.172 266.041L359.771 268.067C358.728 268.467 357.983 268.376 356.885 268.274C356.927 266.642 357.064 265.009 357.174 263.38C357.846 261.986 358.747 260.344 358.502 258.734C358.352 257.748 358.072 257.397 357.257 256.941C356.799 257.971 356.557 258.55 355.756 259.369C355.305 258.935 354.848 258.512 354.392 258.083C352.171 255.993 349.295 256.427 347.627 253.877L349.112 250.042Z"/><path fill="#060302" transform="scale(0.390625 0.390625)" d="M363.739 253.081L363.136 259.497L363.483 259.863L364.751 258.265L365.538 258.72C366.23 260.418 365.874 262.205 365.703 263.982C365.248 264.536 364.874 265.043 364.297 265.475C363.581 264.048 363.403 263.147 361.99 262.353C360.53 263.104 359.827 264.544 359.172 266.041C358.416 260.812 361.183 257.387 363.739 253.081Z"/><path fill="#180F0A" transform="scale(0.390625 0.390625)" d="M368.331 254.273L369.337 255.161C370.147 256.796 369.816 258.077 369.555 259.798L368.621 258.92C368.06 257.215 368.126 256.044 368.331 254.273Z"/><path fill="#FED08C" transform="scale(0.390625 0.390625)" d="M359.172 266.041C359.827 264.544 360.53 263.104 361.99 262.353C363.403 263.147 363.581 264.048 364.297 265.475L364.981 265.89L365.64 265.728C367.372 265.317 368.527 265.061 370.269 265.461C371.178 266.298 371.505 266.758 371.471 268.05C371.411 270.277 370.623 272.224 368.894 273.636C367.747 274.574 366.271 275.277 364.766 275.156C363.972 275.093 363.837 274.795 363.279 274.308C363.331 273.202 363.363 272.129 363.319 271.021C363.087 271.203 362.86 271.392 362.623 271.568C361.904 272.104 361.642 272.286 360.802 272.416C361.01 271.324 361.314 270.336 361.683 269.287C361.041 268.682 360.602 268.368 359.771 268.067L359.172 266.041Z"/><path fill="#D5A05D" transform="scale(0.390625 0.390625)" d="M384.331 222.91C381.971 220.991 379.202 220.36 376.344 219.498L376.174 218.936C377.104 218.293 377.543 218.298 378.619 218.534C381.343 219.131 384.558 220.034 386.205 222.392L387.477 222.836C389.31 222.989 390.683 223.133 392.34 223.959L392.079 224.526C390.519 224.681 389.083 224.571 387.524 224.425L387.743 225.8C388.55 226.322 389.13 226.422 390.045 226.609C391.537 226.913 393.23 227.765 394.09 229.097C394.849 230.273 395.164 232.333 395.507 233.72C393.757 233.522 392.139 233.488 390.631 232.483C390.468 232.078 390.156 231.279 389.958 230.917C389.402 229.899 389.176 229.922 388.117 229.713L386.607 230.769L385.997 230.605C384.516 228.433 384.761 225.966 383.713 223.667C383.638 223.503 383.542 223.349 383.457 223.19L384.331 222.91Z"/><path fill="#D5A05D" transform="scale(0.390625 0.390625)" d="M401.55 217.344C403.633 218.658 403.95 220.616 404.474 222.857C404.94 225.076 405.956 227.339 404.729 229.318C403.286 230.088 402.183 230.596 400.556 230.828C398.581 229.728 397.983 226.982 397.134 224.916C397.837 224.342 398.768 223.927 399.562 223.48C400.743 222.253 401.096 219.016 401.55 217.344Z"/><path fill="#F1BD6F" transform="scale(0.390625 0.390625)" d="M358.317 278.566L359.244 277.515C361.187 276.905 362.579 277.866 364.619 277.937C365.773 277.116 366.6 276.627 367.978 276.201C369.887 276.506 369.78 276.488 370.945 278.04C371.354 279.577 371.665 280.515 371.073 282.077C370.14 282.972 369.648 283.381 368.299 283.378C364.961 283.37 360.746 280.654 358.317 278.566Z"/><path fill="#D5A05D" transform="scale(0.390625 0.390625)" d="M350.646 266.356C350.355 264.985 349.7 263.707 350.72 262.495C351.006 262.155 351.734 261.64 352.106 261.364L352.891 261.715C353.596 264.315 353.126 267.229 352.961 269.897C354.537 270.854 356.276 271.651 357.098 273.385L356.917 274.567C355.702 274.961 355.546 274.848 354.306 274.471C353.588 273.663 352.967 272.918 352.417 271.985C352.015 269.978 351.451 268.236 350.646 266.356Z"/><path fill="#D48F57" transform="scale(0.390625 0.390625)" d="M392.288 213.078C392.972 213.779 392.952 213.9 393.111 214.881C393.603 217.914 397.432 219.928 398.483 223.019L399.562 223.48C398.768 223.927 397.837 224.342 397.134 224.916C395.788 222.268 394.325 220.031 392.209 217.928C392.282 216.232 391.951 214.809 392.288 213.078Z"/><path fill="#F1BD6F" transform="scale(0.390625 0.390625)" d="M385.054 234.6C386.675 235.483 388.226 236.427 389.773 237.433C391.033 239.47 391.205 240.963 390.683 243.254L389.687 244.318L389.16 243.514C388.388 240.239 386.687 237.509 385.054 234.6Z"/><path fill="#F1BD6F" transform="scale(0.390625 0.390625)" d="M364.75 215.734L367.236 216.862C368.616 217.378 370.096 217.833 371.389 218.532C368.839 219.944 364.519 217.244 363.432 220.972C362.973 219.684 362.41 219.335 361.356 218.545L364.75 215.734Z"/><path fill="#D5A05D" transform="scale(0.390625 0.390625)" d="M371.382 277.554L370.989 276.086L371.767 275.38L371.158 274.158L371.599 274.164C372.548 275.523 373.039 276.739 374.728 277.253C376.213 277.704 376.959 277.302 378.516 278.221L375.698 280.759C373.885 279.914 372.788 278.966 371.382 277.554Z"/><path fill="#D5A05D" transform="scale(0.390625 0.390625)" d="M356.233 268.561L355.59 268.672C354.73 267.541 354.6 266.37 354.602 264.932C354.604 263.682 354.666 262.568 355.582 261.72L355.808 262.644L357.174 263.38C357.064 265.009 356.927 266.642 356.885 268.274L356.233 268.561Z"/><path fill="#402D29" transform="scale(0.390625 0.390625)" d="M355.808 262.644L357.174 263.38C357.064 265.009 356.927 266.642 356.885 268.274L356.233 268.561C355.947 266.64 355.942 264.588 355.808 262.644Z"/><path fill="#D5A05D" transform="scale(0.390625 0.390625)" d="M392.288 213.078C391.951 214.809 392.282 216.232 392.209 217.928C390.523 217.001 388.517 216.158 387.669 214.394C388.71 213.303 389.573 213.383 391.029 213.098L392.288 213.078Z"/><path fill="#1E130E" transform="scale(0.390625 0.390625)" d="M367.236 216.862L368.046 214.9C369.249 214.47 369.414 214.375 370.641 214.673L371.828 216.08C371.742 216.927 371.593 217.706 371.389 218.532C370.096 217.833 368.616 217.378 367.236 216.862Z"/><path fill="#FED08C" transform="scale(0.390625 0.390625)" d="M361.356 218.545C362.41 219.335 362.973 219.684 363.432 220.972L363.203 222.032C363.055 222.105 362.915 222.197 362.759 222.251C361.26 222.77 359.468 221.96 358.098 221.364L361.356 218.545Z"/><path fill="#7A584B" transform="scale(0.390625 0.390625)" d="M371.679 234.166C370.48 234.887 370.016 235.553 368.593 235.235C368.594 234.034 368.704 233.826 369.309 232.778L369.184 232.767C371.735 230.638 374.333 230.553 377.55 230.887C379.076 231.046 379.432 231.512 380.493 232.602C380.145 234.162 379.014 233.806 379.996 235.492C381.13 237.438 383.138 238.646 383.639 240.97C382.712 241.918 382.492 241.664 381.224 241.75C379.939 240.523 381.363 239.297 379.783 238.627L379.152 239.116C376.958 239.705 375.16 239.707 373.036 238.864L372.805 238.125L373.999 237.073L373.506 236.547C372.099 236.905 371.866 237.052 370.815 238.058C370.446 239.46 370.415 239.474 371.016 240.787C373.081 242.351 377.292 242.664 379.837 243.422C379.032 244.002 378.139 244.221 377.17 244.379C374.968 244.738 372.357 244.227 370.601 242.803C369.666 242.045 368.991 241.008 369.006 239.761C369.033 237.577 370.492 236.174 372.001 234.82L371.679 234.166Z"/><path fill="#D48F57" transform="scale(0.390625 0.390625)" d="M373.999 237.073C375.881 237.588 377.545 237.978 379.152 239.116C376.958 239.705 375.16 239.707 373.036 238.864L372.805 238.125L373.999 237.073Z"/><path fill="#060302" transform="scale(0.390625 0.390625)" d="M371.679 234.166C372.755 233.381 372.56 233.549 373.781 233.739C375.228 233.963 376.053 234.344 377.289 235.1L377.573 235.701C375.652 235.576 373.879 235.236 372.001 234.82L371.679 234.166Z"/><path fill="#DA8E5A" transform="scale(0.390625 0.390625)" d="M362.527 244.611C362.459 242.981 362.619 242.09 361.723 240.701L360.857 240.802C360.453 241.885 360.177 242.912 359.943 244.043C359.079 242.446 360.199 240.939 359.01 239.57C358.814 239.563 358.618 239.56 358.423 239.547C357.619 239.492 357.923 239.575 357.267 239.186C358.272 237.536 360.118 237.892 360.86 236.021C359.547 234.14 356.371 234.989 356.766 232.125C358.073 231.002 359.356 230.637 360.985 230.134L361.552 230.322C361.113 230.924 360.682 231.532 360.258 232.145C360.963 232.443 362.623 232.875 362.957 233.551C363.474 234.595 363.178 236.115 363.101 237.253C363.534 238.399 364.363 238.818 365.324 239.502C366.325 242.704 365.366 247.535 368.415 249.294L368.406 250.016C367.132 250.4 365.876 250.765 364.583 251.08C363.758 251.281 363.289 251.795 362.581 252.003C362.275 252.094 361.946 252.076 361.629 252.112L361.093 250.692C362.543 249.047 363.544 247.541 364.488 245.562C363.711 245.651 363.181 245.677 362.424 245.625L362.527 244.611Z"/><path fill="#1E130E" transform="scale(0.390625 0.390625)" d="M362.527 244.611C363.142 243.632 363.516 242.454 364.651 242.138C364.89 243.477 364.769 244.263 364.488 245.562C363.711 245.651 363.181 245.677 362.424 245.625L362.527 244.611Z"/><path fill="#A86947" transform="scale(0.390625 0.390625)" d="M381.861 258.672L380.219 259.522C379.712 259.421 379.212 259.355 378.748 259.094C377.744 258.527 376.954 257.371 376.555 256.313C376.007 254.857 376.143 253.626 376.776 252.216C377.866 251.302 378.243 250.914 379.769 250.984C381.045 251.042 381.825 251.949 382.593 252.818C382.329 253.703 378.309 253.695 377.189 254.448C378.15 256.082 380.224 256.675 381.95 257.151L382.396 257.269L384.804 258.106L385.228 259.051L384.994 259.178C384.912 260.659 385.017 260.726 383.996 261.774C382.671 261.554 382.903 261.489 382.122 260.522L381.861 258.672Z"/><path fill="#A86947" transform="scale(0.390625 0.390625)" d="M376.292 244.987C378.864 244.953 383.153 244.24 385.113 246.187C386.034 247.102 386.031 249.047 386.07 250.269L385.209 250.157C382.906 249.077 380.374 249.507 378.217 248.402L380.382 247.638L380.267 247.115L376.504 246.401L376.292 244.987Z"/><path fill="#F1BD6F" transform="scale(0.390625 0.390625)" d="M379.853 216.68C378.999 216.578 378.119 216.495 377.28 216.306C376.043 216.027 375.398 215.901 374.68 214.794C375.334 213.127 377.274 212.056 378.693 211.023L381.518 215.952C382.895 215.888 384.259 215.625 385.463 216.42C383.868 217.528 382.153 217.104 380.369 216.778L379.853 216.68Z"/><path fill="#905E47" transform="scale(0.390625 0.390625)" d="M374.063 263.672C374.161 263.751 374.267 263.821 374.358 263.908C379.37 268.746 377.107 267.331 376.226 271.224C376.026 272.105 376.247 273.571 376.255 274.513C376.26 274.904 376.296 274.67 375.983 275.17C375.201 272.991 374.196 270.969 373.279 268.85C372.449 266.932 373.336 265.485 374.063 263.672Z"/><path fill="#A86947" transform="scale(0.390625 0.390625)" d="M386.07 250.269C386.252 251.83 386.669 253.435 385.942 254.896L385.243 254.858C384.447 253.232 384.892 251.847 385.209 250.157L386.07 250.269Z"/><path fill="#905E47" transform="scale(0.390625 0.390625)" d="M376.504 246.401C375.053 246.205 373.784 245.913 372.382 245.488C373.057 244.862 375.31 245.044 376.292 244.987L376.504 246.401Z"/><path fill="#D48F57" transform="scale(0.390625 0.390625)" d="M361.093 250.692L361.629 252.112C360.272 252.108 359.339 252.055 358.032 251.613C358.675 250.856 360.114 250.873 361.093 250.692Z"/><path fill="#060302" transform="scale(0.390625 0.390625)" d="M372.933 189.162L371.677 188.669L371.562 187.785C373.213 186.691 374.126 186.833 376.05 187.222C401.247 192.322 425.819 223.41 441.82 242.383C445.493 247.074 450.847 253.917 449.847 260.273C449.633 261.634 449.042 262.622 448.149 263.651C446.998 262.291 446.177 261.234 444.508 260.539L442.98 260.606C442.335 261.603 442.316 261.777 442.572 263.005C443.15 265.771 445.342 267.805 445.972 270.517L444.039 270.093C442.128 270.79 441.008 271.067 438.982 270.772C438.469 269.52 437.798 268.875 436.745 268.058C435.725 267.267 434.882 266.511 434 265.57L433.275 264.21C432.921 263.652 432.47 263.184 431.972 262.75C430.519 261.482 429.062 261.466 427.228 261.561L426.793 258.972C425.915 258.314 425.035 257.667 424.134 257.042C423.819 253.847 424.169 250.535 424.337 247.329C421.554 241.907 417.68 236.845 414.132 231.893C412.802 230.546 410.791 229.735 409.139 228.823C408.349 227.48 408.63 226.87 408.779 225.349C407.836 223.971 407.175 223.791 405.704 223.065L404.474 222.857C403.95 220.616 403.633 218.658 401.55 217.344C399.803 213.036 403.669 208.194 399.811 202.918C394.463 195.603 381.605 190.64 372.933 189.162Z"/><path fill="#180F0A" transform="scale(0.390625 0.390625)" d="M414.132 231.893L414.408 229.969L414.951 229.931C416.976 230.829 419.008 231.702 420.974 232.725C422.028 234.462 423.12 236.184 424.099 237.964C427.287 238.52 430.259 238.938 433.511 238.862L434.862 238.211C436.92 240.325 438.076 242.095 438.99 244.891L439.757 245.745C440.726 244.729 441.195 243.625 441.82 242.383C445.493 247.074 450.847 253.917 449.847 260.273C449.633 261.634 449.042 262.622 448.149 263.651C446.998 262.291 446.177 261.234 444.508 260.539L442.98 260.606C442.335 261.603 442.316 261.777 442.572 263.005C443.15 265.771 445.342 267.805 445.972 270.517L444.039 270.093C442.128 270.79 441.008 271.067 438.982 270.772C438.469 269.52 437.798 268.875 436.745 268.058C435.725 267.267 434.882 266.511 434 265.57L433.275 264.21C432.921 263.652 432.47 263.184 431.972 262.75C430.519 261.482 429.062 261.466 427.228 261.561L426.793 258.972C425.915 258.314 425.035 257.667 424.134 257.042C423.819 253.847 424.169 250.535 424.337 247.329C421.554 241.907 417.68 236.845 414.132 231.893Z"/><path fill="#FED08C" transform="scale(0.390625 0.390625)" d="M414.951 229.931C416.976 230.829 419.008 231.702 420.974 232.725C422.028 234.462 423.12 236.184 424.099 237.964C427.287 238.52 430.259 238.938 433.511 238.862L434.862 238.211C436.92 240.325 438.076 242.095 438.99 244.891L437.254 245.362C435.956 245.519 434.885 245.363 433.614 245.151L433.511 246.015C434.553 246.556 434.986 246.804 435.512 247.869L435.183 248.635C433.929 249.323 432.782 249.182 431.398 249.153C430.349 249.13 430.203 249.64 429.462 250.333L428.719 250.268C424.277 243.399 418.93 237.067 414.951 229.931Z"/><path fill="#060302" transform="scale(0.390625 0.390625)" d="M433.511 246.015C432.984 245.788 432.087 245.483 431.612 245.115C430.721 244.426 430.576 244.218 430.484 243.129C432 243.258 432.516 244.138 433.614 245.151L433.511 246.015Z"/><path fill="#FED08C" transform="scale(0.390625 0.390625)" d="M434 265.57C437.104 265.339 439.049 265.383 441.43 267.532C442.333 268.348 443.186 269.224 444.039 270.093C442.128 270.79 441.008 271.067 438.982 270.772C438.469 269.52 437.798 268.875 436.745 268.058C435.725 267.267 434.882 266.511 434 265.57Z"/><path fill="#F1BD6F" transform="scale(0.390625 0.390625)" d="M426.793 258.972C430.09 258.879 433.505 259.755 436.015 262.077C436.315 262.354 436.466 262.578 436.728 262.911L436.677 263.829C435.522 264.236 434.479 264.209 433.275 264.21C432.921 263.652 432.47 263.184 431.972 262.75C430.519 261.482 429.062 261.466 427.228 261.561L426.793 258.972Z"/><path fill="#F1BD6F" transform="scale(0.390625 0.390625)" d="M438.99 244.891L439.757 245.745C441.097 246.643 442.599 247.543 443.288 249.077C443.865 250.359 443.373 251.361 442.89 252.547C441.171 251.637 439.955 247.506 437.666 245.683C437.53 245.575 437.391 245.469 437.254 245.362L438.99 244.891Z"/><path fill="#D46653" transform="scale(0.390625 0.390625)" d="M413.694 228.226C411.737 224.998 405.576 221.47 404.754 218.742C403.576 214.83 403.79 210.367 402.93 206.321L402.816 205.812C414.615 215.974 425.499 225.653 434.862 238.211L433.511 238.862L432.963 237.827C430.4 236.813 427.755 236.642 425.038 236.348C423.062 234.278 421.261 231.981 419.415 229.793C422.933 231.741 426.088 233.05 429.947 234.128C429.485 233.796 429.017 233.476 428.553 233.148C423.989 229.936 419.034 229.293 413.694 228.226Z"/><path fill="#060302" transform="scale(0.390625 0.390625)" d="M439.585 203.364C440.385 202.2 441.221 201.036 442.362 200.177C444.319 198.703 448.349 197.203 450.781 197.493C451.776 198.23 452.058 198.111 452.301 199.384C450.978 201.211 447.855 202.119 445.838 203.169L445.665 203.823C447.12 204.776 448.403 204.942 450.104 205.193L450.551 205.99C449.557 209.352 446.496 210.772 447.085 214.631L447.717 215.335C449.225 214.47 449.813 213.386 450.246 211.705C450.811 209.515 451.29 208.265 452.597 206.418L453.169 205.593L454.983 204.365C455.887 204.553 455.961 204.369 456.514 205.193C457.584 206.788 457.673 208.642 458.849 210.273L460.582 209.818C460.798 208.173 460.762 208.252 462.058 207.216C463.44 207.127 463.411 207.138 464.512 207.983C466.06 211.188 462.256 215.312 465.811 217.929L466.636 217.861C467.52 215.973 466.768 213.132 467.976 211.605C469.158 211.562 469.818 211.611 470.788 212.457C471.088 212.718 471.243 213.113 471.409 213.459L471.252 214.004L472.807 214.532C474.27 215.321 475.882 215.978 476.956 217.262L476.429 217.953C476.318 218.101 476.212 218.253 476.102 218.402C475.814 218.793 475.485 219.152 475.186 219.534C473.258 221.988 475.457 226.242 472.59 228.481C471.057 227.851 469.972 227.133 468.308 227.322C468.223 228.659 468.545 228.681 469.299 229.722C470.68 230.549 472.135 230.268 473.675 230.178C473.683 231.467 473.441 231.459 472.71 232.451C469.321 232.734 463.677 227.932 460.873 225.944L457.915 223.771C453.616 220.534 449.263 217.232 444.695 214.378C441.088 212.124 437.188 210.184 433.775 207.647C432.743 206.879 431.485 206.006 430.885 204.834C430.586 204.25 430.852 203.638 431.186 203.108C431.888 201.993 432.802 201.525 433.989 201.095C436.161 201.275 437.731 202.315 439.585 203.364Z"/><path fill="#E06D54" transform="scale(0.390625 0.390625)" d="M458.849 210.273L460.582 209.818L461.534 210.241C462.146 213.042 458.296 218.705 456.907 221.282C455.828 220.49 454.929 219.818 454.124 218.723C455.206 217.5 456.913 215.81 457.461 214.257L458.849 210.273Z"/><path fill="#E06D54" transform="scale(0.390625 0.390625)" d="M471.252 214.004L472.807 214.532C472.459 217.066 472.355 222.871 470.901 224.769C470.088 223.64 470.053 222.774 469.831 221.437L468.797 221.612L468.091 220.465C469.212 218.35 470.211 216.16 471.252 214.004Z"/><path fill="#E06D54" transform="scale(0.390625 0.390625)" d="M462.054 223.803C462.395 221.702 461.251 219.891 461.764 217.921C462.911 218.177 463.433 218.869 464.093 219.805C464.877 220.917 464.999 221.996 464.95 223.325C464.292 224.312 463.977 224.779 462.659 224.888C462.393 224.91 462.13 224.825 461.866 224.793L462.054 223.803Z"/><path fill="#D46653" transform="scale(0.390625 0.390625)" d="M464.205 227.803C465.171 225.158 466.34 222.681 468.091 220.465L468.797 221.612L469.831 221.437C467.762 223.308 465.99 225.66 464.205 227.803Z"/><path fill="#D46653" transform="scale(0.390625 0.390625)" d="M459.173 222.495L459.602 221.747C460.668 222.276 461.252 222.948 462.054 223.803L461.866 224.793L460.946 224.813L459.173 222.495Z"/><path fill="#180F0A" transform="scale(0.390625 0.390625)" d="M459.173 222.495L460.946 224.813L460.873 225.944L457.915 223.771L459.173 222.495Z"/><path fill="#E06D54" transform="scale(0.390625 0.390625)" d="M443.063 206.087C444.453 206.395 446.008 206.578 446.862 207.739L446.372 208.895C445.253 209.376 444.332 209.882 443.078 209.716C442.496 208.456 442.884 207.437 443.063 206.087Z"/><path fill="#060302" transform="scale(0.390625 0.390625)" d="M369.367 167.595C378.443 170.736 394.353 182.314 403.458 187.581C410.183 191.471 417.947 194.552 424.181 199.142C425.731 200.283 426.184 200.576 426.496 202.5C425.721 202.708 425.023 202.924 424.216 202.708C418.207 201.101 381.362 177.849 375.002 173.096C372.875 171.508 370.714 169.93 369.367 167.595Z"/><path fill="#7A584B" transform="scale(0.390625 0.390625)" d="M670.734 374.87C672.386 377.009 672.457 380.296 672.678 382.921C673.432 391.851 673.594 400.867 673.607 409.825C673.65 440.87 666.812 458.417 643.961 480.128C633.122 490.427 621.733 499.659 612.018 511.095C600.514 515.228 588.542 517.948 576.674 520.797C559.86 524.783 543.019 528.656 526.153 532.415C524.94 532.504 525.518 532.576 524.414 532.231C525.849 529.829 530.342 527.754 532.663 525.902C538.003 521.642 542.901 516.855 547.866 512.173C571.303 490.236 594.371 467.909 617.062 445.202C631.043 431.041 645.888 416.569 657.237 400.155C662.742 392.192 666.669 383.613 670.734 374.87Z"/><path fill="#FBF2D8" transform="scale(0.390625 0.390625)" d="M451.793 278.907C452.62 279.692 452.907 280.164 453.247 281.253C452.456 290.159 440.547 306.074 434.992 312.97C430.225 318.888 424.75 324.435 420.955 331.048C428.65 326.166 433.305 319.049 440.164 313.439C446.05 308.625 453.046 305.24 459.363 301.031C465.714 296.799 471.555 291.659 478.12 287.767C480.641 286.273 482.927 285.133 485.87 286C487.132 286.372 488.231 287.002 488.777 288.269C492.267 296.368 464.998 320.193 459.668 327.628C458.207 329.666 457.313 331.796 456.418 334.113L456.77 333.882C456.965 333.751 457.157 333.617 457.353 333.488C465.763 327.962 475.588 312.84 481.686 309.677C482.658 309.172 482.234 309.25 483.297 309.621C485.799 315.788 473.402 333.991 470.968 340.506L470.69 341.262C469.671 344.332 469.133 347.458 468.556 350.633C471.665 345.59 474.423 335.848 478.702 332.3C479.576 331.575 479.147 331.723 480.202 331.799C482.833 337.928 477.923 344.179 477.058 350.25C476.716 352.654 477.339 355.425 477.694 357.819C472.565 369.967 462.38 379.947 452.461 388.312C446.749 393.129 441.181 397.382 437.167 403.802C435.456 401.182 433.718 398.618 431.703 396.219C422.709 385.509 412.916 380.152 399.072 378.961C403.032 364.623 414.338 319.813 422.77 309.122C426.154 304.831 431.064 301.811 434.952 297.958C440.946 292.018 446.316 285.326 451.793 278.907Z"/><path fill="#D46653" transform="scale(0.390625 0.390625)" d="M728.164 865.339C729.91 867.468 729.079 871.21 730.609 873.73C735.858 882.377 751.646 885.919 760.683 888.008C761.113 889.638 761.414 891.56 762.856 892.586L763.466 892.131C764.104 889.915 763.647 887.815 763.35 885.573C771.144 889.25 774.6 889.575 783.157 888.236L783.437 888.732C783.124 889.539 782.837 890.347 782.554 891.165L783.073 891.866L785.219 892.112L785.381 892.591C783.758 893.294 781.817 893.916 780.85 895.482C778.711 898.943 776.332 902.288 774.314 905.819C773.569 907.122 773.628 907.124 774.002 908.538C772.649 911.015 768.308 911.373 766.549 914.017C766.575 915.291 766.529 915.928 767.685 916.778C768.701 917.525 769.898 917.549 771.056 917.201C775.505 915.863 779.351 908.898 781.67 905.196L785.514 907.401C783.312 910.925 776.302 920.058 776.778 923.874C777.833 924.51 778.432 924.722 779.673 924.379C784.409 923.073 788.057 913.141 790.067 908.963C797.942 915.261 806.304 921.004 814.488 926.893C822.389 932.735 829.692 939.239 838.062 944.444C833.159 949.235 830.769 954.172 828.133 960.408C820.336 957.506 812.189 955.501 804.285 952.897C796.039 950.181 788.006 946.786 779.838 943.838C768.362 939.696 756.574 935.915 745.426 930.946C735.917 926.707 727.162 920.732 717.962 915.839C718.247 901.927 719.404 876.075 728.164 865.339Z"/><path fill="#FBF2D8" transform="scale(0.390625 0.390625)" d="M110.881 246.61C113.691 246.359 116.126 246.109 118.695 247.468L118.556 248.3C116.65 249.649 114.143 249.708 111.878 250.028L112.27 250.4C123.53 261.326 171.291 274.372 188.9 281.932C194.944 295.337 200.693 307.679 210.26 319.004C211.738 320.753 214.951 323.777 214.755 326.139L212.825 325.792C186.721 316.203 159.311 312.655 132.795 304.775C121.268 301.35 111.687 294.187 100.371 290.603C99.4124 278.051 99.0924 263.71 101.571 251.33C104.506 248.828 107.255 247.699 110.881 246.61Z"/><path fill="#D46653" transform="scale(0.390625 0.390625)" d="M929.959 497.026L930.951 497.03C921.48 511.771 907.667 523.806 896.134 536.899C886.023 548.375 877.67 561.606 865.633 571.252C850.789 583.149 835.824 587.94 817.006 585.869C812.224 573.665 809.677 560.572 805.626 548.1C809.69 550.069 813.725 551.549 818.259 551.892C838.298 553.41 847.789 533.77 861.361 523.043C867.965 517.824 876.626 514.285 884.506 511.524C889.175 509.888 928.858 498.006 929.959 497.026Z"/><path fill="#D46653" transform="scale(0.390625 0.390625)" d="M283.228 322.518C291.74 330.968 299.77 339.608 307.012 349.187L313.4 356.975C320.9 365.514 328.029 374.105 334.707 383.305C324.65 390.687 315.873 399.533 306.62 407.864C301.697 412.296 295.595 416.614 291.586 421.877C286.63 412.53 282.154 403.014 277.797 393.378C276.287 390.366 274.531 387.48 272.833 384.571C265.709 375.287 259.452 365.493 252.126 356.288C263.454 347.606 274.346 333.639 283.228 322.518Z"/><path fill="#D46653" transform="scale(0.390625 0.390625)" d="M283.228 322.518C291.74 330.968 299.77 339.608 307.012 349.187C295.654 360.902 283.549 372.29 272.833 384.571C265.709 375.287 259.452 365.493 252.126 356.288C263.454 347.606 274.346 333.639 283.228 322.518Z"/><path fill="#FED08C" transform="scale(0.390625 0.390625)" d="M307.012 349.187L313.4 356.975C309.774 361.885 304.908 366.265 300.626 370.626C293.115 378.277 285.597 386.025 277.797 393.378C276.287 390.366 274.531 387.48 272.833 384.571C283.549 372.29 295.654 360.902 307.012 349.187Z"/><path fill="#FBF2D8" transform="scale(0.390625 0.390625)" d="M356.464 174.423L356.999 175.048C357.436 181.787 349.125 196.644 346.359 203.524C338.015 208.059 329.076 212.543 323.087 220.128C339.256 217.419 349.377 201.99 364.624 197.126C366.164 196.634 367.657 196.216 369.156 197.009C370.852 199.632 369.577 203.881 369.113 206.786C360.188 213.726 352.646 222.165 345.45 230.831C345.807 240.114 344.719 247.836 341.677 256.623C337.93 266.272 332.41 274.884 329.355 284.863C318.899 281.954 308.394 279.227 297.844 276.683C297.951 274.615 298.135 272.552 298.396 270.498C300.691 253.255 313.817 220.519 324.028 206.486C331.762 195.857 346.048 182.514 356.464 174.423Z"/><path fill="#D46653" transform="scale(0.390625 0.390625)" d="M334.707 383.305L340.078 390.086C346.535 399.079 352.827 409.926 360.029 418.133C360.447 419.525 361.074 420.467 360.296 421.846C357.946 426.014 351.994 431.089 348.687 434.763C343.863 440.121 339.362 445.87 334.341 451.033C327.797 459.544 320.339 467.281 313.823 475.855C312.267 472.125 310.731 468.388 309.215 464.641L307.121 459.41C303.525 449.964 299.228 440.84 295.797 431.317L291.586 421.877C295.595 416.614 301.697 412.296 306.62 407.864C315.873 399.533 324.65 390.687 334.707 383.305Z"/><path fill="#FED08C" transform="scale(0.390625 0.390625)" d="M307.121 459.41C309.889 456.464 313.909 453.992 317.172 451.587C323.821 446.688 330.576 441.885 337.081 436.797C344.677 430.855 351.887 423.183 360.029 418.133C360.447 419.525 361.074 420.467 360.296 421.846C357.946 426.014 351.994 431.089 348.687 434.763C343.863 440.121 339.362 445.87 334.341 451.033C327.797 459.544 320.339 467.281 313.823 475.855C312.267 472.125 310.731 468.388 309.215 464.641L307.121 459.41Z"/><path fill="#D46653" transform="scale(0.390625 0.390625)" d="M309.215 464.641C313.438 461.597 329.49 452.482 334.341 451.033C327.797 459.544 320.339 467.281 313.823 475.855C312.267 472.125 310.731 468.388 309.215 464.641Z"/><path fill="#FED08C" transform="scale(0.390625 0.390625)" d="M334.707 383.305L340.078 390.086C330.489 399.987 320.386 409.158 310.187 418.415C305.478 422.69 300.861 427.505 295.797 431.317L291.586 421.877C295.595 416.614 301.697 412.296 306.62 407.864C315.873 399.533 324.65 390.687 334.707 383.305Z"/><path fill="#7A584B" transform="scale(0.390625 0.390625)" d="M412.814 510.553C427.682 515.942 446.425 521.226 458.531 531.665C462.64 535.207 466.027 539.635 469.45 543.818C438.77 550.22 411.819 566.36 386.742 584.605C379.175 590.634 372.332 596.627 366.462 604.398C366.51 597.298 367.063 590.626 369.338 583.867C384.018 572.069 391.648 555.787 400.234 539.522C406.635 540.971 412.795 541.176 419.332 540.821C413.28 539.39 407.06 538.948 400.885 538.31C404.785 528.939 409.887 520.358 412.814 510.553Z"/><path fill="#FBF2D8" transform="scale(0.390625 0.390625)" d="M884.427 923.983C885.291 924.025 886.131 924.07 886.986 924.21C900.682 926.445 923.984 939.749 932.119 951.274C915.227 959.64 898.255 965.231 879.439 967.304C862.992 968.406 847.814 965.362 831.943 961.528C832.445 959.552 833.045 957.565 833.909 955.714C841.215 940.059 869.14 930.011 884.427 923.983Z"/><path fill="#FBF2D8" transform="scale(0.390625 0.390625)" d="M786.41 823.597C788.35 826.005 790.535 835.052 791.964 838.485C795.965 848.095 802.495 856.988 809.363 864.726C806.153 866.439 803.336 868.37 800.444 870.577C790.499 866.416 780.753 860.757 769.753 865.163C766.07 866.638 762.794 868.981 761.247 872.758C759.843 876.184 760.48 879.698 761.852 883.006L762.078 883.538C760.407 884.163 757.832 883.541 756.036 883.366C750.235 882.332 743.796 879.878 738.822 876.709C735.985 874.9 733.175 872.548 732.063 869.251C730.501 864.618 732.733 859.139 732.333 854.284C731.735 847.011 729.84 839.756 728.158 832.667C734.947 834.88 742.129 836.472 749.264 836.939C764.015 837.904 775.399 833.237 786.41 823.597Z"/><path fill="#D46653" transform="scale(0.390625 0.390625)" d="M212.131 258.319C218.842 262.521 224.205 268.511 230.207 273.6C245.178 286.294 260.068 298.175 273.329 312.767C276.458 316.221 279.674 319.498 283.228 322.518C274.346 333.639 263.454 347.606 252.126 356.288L245.937 349.784C237.815 342.359 229.991 334.644 221.378 327.779C228.244 321.423 234.186 317.145 236.264 307.356C241.105 284.547 222.207 273.963 212.131 258.319Z"/><path fill="#FED08C" transform="scale(0.390625 0.390625)" d="M273.329 312.767C276.458 316.221 279.674 319.498 283.228 322.518C274.346 333.639 263.454 347.606 252.126 356.288L245.937 349.784C248.757 341.643 257.179 333.945 262.476 327.244C266.175 322.48 269.793 317.653 273.329 312.767Z"/><path fill="#D46653" transform="scale(0.390625 0.390625)" d="M344.99 258.124C348.529 260.139 348.755 263.106 350.646 266.356C351.451 268.236 352.015 269.978 352.417 271.985C352.849 274.257 353.099 276.906 355.01 278.475C355.753 279.085 356.727 279.493 357.591 279.897C361.321 282.11 364.931 284.234 369.033 285.689C367.994 288.335 366.646 290.883 365.408 293.442C367.028 295.267 368.636 297.272 370.462 298.889C371.321 299.649 372.444 300.295 373.629 300.107C376.27 299.689 378.024 296.096 379.407 294.049C385.118 299.066 390.149 304.602 395.303 310.18C393.582 309.306 390.063 306.973 388.186 307.146C387.603 308.474 387.179 309.541 387.463 311.048C387.898 313.349 390.002 314.731 391.9 315.758L393.755 314.281L394.045 314.832C393.837 315.803 393.77 316.319 394.063 317.275C397.167 319.967 404.206 325.205 407.92 326.369C408.1 326.257 408.29 326.159 408.46 326.033C410.516 324.517 410.843 320.927 411.388 318.575C410.576 317.06 409.353 315.312 409.386 313.569L410.239 312.965C411.709 312.925 412.904 312.702 414.244 313.383C413.462 321.726 407.766 337.428 404.623 345.672C380.954 327.24 355.813 309.97 330.834 293.364C332.671 288.187 334.405 282.895 336.561 277.846C339.381 271.244 342.751 264.969 344.99 258.124Z"/><path fill="#F0E6D2" transform="scale(0.390625 0.390625)" d="M368.401 324.328C378.816 333.455 390.572 341.237 401.677 349.51C401.144 358.956 397.518 371.377 392.55 379.452C386.873 382.118 384.628 389.162 381.948 394.535L374.014 408.07C370.373 401.155 366.603 394.308 362.707 387.534C365.278 377.047 365.535 366.389 365.471 355.654C365.405 344.664 364.761 334.855 368.401 324.328Z"/><path fill="#FBF2D8" transform="scale(0.390625 0.390625)" d="M717.693 919.124C725.035 922.75 731.579 927.934 739.116 931.489C754.362 938.679 770.323 944.096 786.197 949.7C809.395 957.89 832.845 966.676 857.358 969.974C865.897 971.123 874.77 970.964 883.319 970.008C894.572 968.751 911.439 965.511 921.499 959.936C924.137 958.473 928.238 955.231 931.273 955.046C932.106 954.995 932.277 955.347 932.887 955.818C933.705 957.942 933.155 960.177 932.88 962.381C932.137 963.074 931.39 963.689 930.575 964.299C910.634 979.218 874.309 981.285 850.496 977.572C840.842 975.979 831.312 973.704 821.979 970.765C805.733 965.737 722.852 935.878 717.729 926.429C716.505 924.17 717.286 921.512 717.693 919.124Z"/><path fill="#FBF2D8" transform="scale(0.390625 0.390625)" d="M801.376 905.562C805.858 903.378 821.633 894.163 824.947 893.265C826.028 892.971 827.517 893.294 828.611 893.44L829.314 893.538L829.818 893.054C829.865 890.804 829.405 888.779 828.942 886.595C833.751 890.124 838.591 893.614 843.459 897.063C843.085 897.022 842.711 896.984 842.337 896.949C831.172 895.934 818.082 901.212 809.573 908.322C810.494 910.659 810.792 914.559 812.38 916.35C819.27 917.349 839.313 903.249 845.617 899.149C849.767 901.269 856.615 904.306 859.488 908.015L858.85 908.536C857.694 908.475 856.147 908.211 855.083 908.717C854.492 908.998 853.942 909.305 853.325 909.56L850.905 908.096C842.895 910.596 833.55 914.1 827.019 919.506C825.34 920.896 823.469 922.597 823.225 924.828L824.254 925.264L826.187 924.103L826.889 924.425C826.827 925.535 826.773 926.26 827.224 927.291C827.525 927.382 827.818 927.505 828.127 927.564C833.547 928.613 857.401 913.639 862.209 909.893L866.839 912.131L870.169 914.056C874.4 916.354 878.496 918.931 882.625 921.407C876.566 924.208 870.179 926.276 864.021 928.844C855.38 932.447 847.514 937.212 840.008 942.775C832.371 938.374 825.572 932.12 818.522 926.82C809.453 920.004 800.099 913.61 791.237 906.513C792.52 904.661 793.94 903 795.416 901.304C797.428 902.687 799.415 904.107 801.376 905.562Z"/><path fill="#060302" transform="scale(0.390625 0.390625)" d="M866.41 913.338C867.366 913.908 868.236 914.438 869.11 915.139C866.618 918.064 843.174 929.852 839.07 930.948C837.613 931.337 836.106 931.664 834.73 930.9L834.664 930.013C839.237 923.369 858.323 916.609 866.41 913.338Z"/><path fill="#FBF2D8" transform="scale(0.390625 0.390625)" d="M390.504 136.081C397.688 138.095 404.885 142.837 411.608 146.12C445.775 162.801 466.57 173.4 494.546 199.549C497.145 201.978 502.23 205.696 503.83 208.733C504.292 209.609 504.191 209.19 503.893 210.275C502.415 210.945 500.908 210.435 499.38 210.151C494.187 208.885 489.584 206.838 484.893 204.298C478.372 200.767 472.186 196.497 465.93 192.516L432.949 171.631C416.716 161.519 399.399 152.494 383.831 141.403C385.826 139.346 388.187 137.747 390.504 136.081Z"/><path fill="#E06D54" transform="scale(0.390625 0.390625)" d="M489.387 217.931C497.821 219.16 504.555 217.875 512.014 213.82L511.998 215.399C510.23 221.954 506.453 228.718 503.718 234.945C496.897 250.472 489.534 266.188 484.462 282.377C474.126 285.913 465.754 292.529 456.927 298.758C459.384 290.627 462.711 282.525 465.765 274.593C473.161 255.51 481.038 236.617 489.387 217.931Z"/><path fill="#FBF2D8" transform="scale(0.390625 0.390625)" d="M270.212 295.842C270.441 295.938 270.666 296.046 270.889 296.157C276.716 299.07 281.519 303.797 286.601 307.808C293.618 313.347 300.76 318.807 307.36 324.846C328.693 344.365 347.999 368.884 361.398 394.526C363.709 398.949 366.991 403.263 368.528 408.013C369.43 410.801 369.397 412.262 368.081 414.875C366.766 415.835 366.58 416.253 364.909 416.135C363.567 415.263 362.672 414.351 361.712 413.065C359.312 409.851 357.666 405.933 355.431 402.557C351.034 395.916 345.927 389.635 341.046 383.338C328.063 366.69 314.776 350.283 301.191 334.123C290.643 321.744 278.6 309.846 270.212 295.842Z"/><path fill="#FBF2D8" transform="scale(0.390625 0.390625)" d="M392.875 382.44C396.926 382.45 401.07 382.747 405.027 383.641C420.098 387.048 429.023 399.593 436.719 411.965C436.02 422.54 431.819 432.919 428.124 442.752L420.86 431.785C426.283 424.399 429.176 417.567 429.349 408.333C425.257 415.239 422.878 423.352 420.093 430.867C417.338 428.323 414.621 425.831 412.682 422.586L414.985 416.623C417.887 409.11 419.496 402.336 420.069 394.289C417.126 403.384 413.602 412.236 409.917 421.052C405.964 418.193 401.995 415.356 398.011 412.54C402.982 403.969 406.065 395.615 407.869 385.881C403.701 394.517 399.495 403.044 394.723 411.368C389.521 409.947 384.475 409.358 379.104 408.923C384.85 400.576 389.493 392.003 392.875 382.44Z"/><path fill="#FBF2D8" transform="scale(0.390625 0.390625)" d="M294.273 307.983C313.878 310.116 343.749 324.636 360.454 335.476C360.679 349.982 360.168 363.948 358.689 378.382C358.491 379.46 358.72 378.993 358.026 379.796C357.635 379.542 342.363 357.085 339.353 353.312C331.705 343.726 323.556 334.245 314.521 325.927C307.885 319.817 300.643 314.386 294.273 307.983Z"/><path fill="#7A584B" transform="scale(0.390625 0.390625)" d="M704.903 371.325C705.07 371.487 705.267 371.621 705.403 371.809C710.323 378.611 708.277 406.802 706.668 415.573C702.454 438.541 690.781 449.495 672.294 462.32L668.537 456.819C680.233 444.769 692.723 435.753 696.933 418.616C697.141 417.724 697.156 417.418 697.034 416.463C695.061 417.995 692.348 426.116 690.756 428.695C685.879 436.597 679.075 443.252 673.112 450.328C676.238 442.378 680.784 434.914 684.609 427.282C687.455 421.606 689.762 415.682 692.097 409.783C696.095 412.22 699.312 418.178 701.196 418.824C701.609 417.462 701.493 415.497 700.939 414.152C699.511 410.691 695.594 409.357 692.366 408.12C697.382 396.181 699.392 382.98 704.903 371.325Z"/><path fill="#FBF2D8" transform="scale(0.390625 0.390625)" d="M359.93 593.099C360.709 595.062 361.229 620.661 361.666 625.119C364.284 651.823 370.291 677.924 372.126 704.79C372.541 710.871 373.412 718.085 371.883 724.015C371.339 726.127 370.294 728.949 368.325 730.08C367.16 729.913 367.221 729.883 366.477 728.958C368.766 697.075 360.838 666.25 355.873 635.011C354.009 623.281 353.53 611.343 351.933 599.569C354.509 597.31 357.242 595.223 359.93 593.099Z"/><path fill="#FBF2D8" transform="scale(0.390625 0.390625)" d="M294.344 279.243C305.438 282.89 317.007 285.226 328.394 287.759L326.192 294.812L329.933 298.239C328.575 303.481 327.248 308.711 326.123 314.01C321.918 312.639 317.825 311.087 313.714 309.459C315.212 302.329 316.328 295.184 317.4 287.979C316.209 290.034 315.308 292.203 314.363 294.378C312.742 299.059 311.84 304.028 310.763 308.858C306.418 307.208 302.083 305.817 297.606 304.569C300.189 298.027 302.065 291.202 303.919 284.427C300.835 289.748 298.498 299.765 294.911 303.881C294.05 304.869 293.109 305.241 291.827 305.391C290.465 304.793 289.843 304.411 288.858 303.232C288.633 300.242 293.4 283.702 294.344 279.243Z"/><path fill="#7A584B" transform="scale(0.390625 0.390625)" d="M719.703 566.904L720.518 567.304C720.79 571.662 711.703 582.39 708.685 586.1C699.504 597.386 670.362 625.729 655.948 627.186C655.072 625.117 654.511 622.95 653.893 620.793C661.032 613.89 669.527 607.886 677.122 601.411C690.891 589.672 704.337 576.568 719.703 566.904Z"/><path fill="#FBF2D8" transform="scale(0.390625 0.390625)" d="M213.837 249.415C223.888 250.387 237.459 251.008 246.046 256.818C252.745 261.35 261.599 280 263.249 287.83C263.398 288.534 263.387 288.163 262.817 289.01C259.11 287.582 255.106 286.262 251.707 284.2C245.29 280.308 239.511 274.908 233.519 270.371C227.153 265.55 220.419 261.232 214.059 256.426C213.433 255.953 213.11 255.485 212.772 254.786C212.439 252.831 213.192 251.234 213.837 249.415Z"/><path fill="#FBF2D8" transform="scale(0.390625 0.390625)" d="M782.789 808.947C784.55 811.532 785.127 816.512 785.847 819.63C783.829 821.321 781.82 823.026 779.629 824.493C764.014 834.947 747.585 833 730.108 829.584C729.46 829.341 729.177 829.316 728.679 828.864C726.718 827.084 726.507 823.154 726.105 820.665C749.793 825.362 762.853 821.423 782.789 808.947Z"/><path fill="#7A584B" transform="scale(0.390625 0.390625)" d="M426.541 473.172C435.39 480.078 445.38 485.057 454.783 491.108C459.942 494.427 464.806 498.42 469.645 502.198C471.784 503.869 475.017 505.97 476.43 508.296C476.956 509.162 476.871 508.776 476.6 509.741C474.973 509.796 474.152 508.934 472.794 508.08C456.267 499.252 437.839 496.482 419.455 494.389C421.868 487.334 424.231 480.261 426.541 473.172Z"/><path fill="#F1BD6F" transform="scale(0.390625 0.390625)" d="M410.621 273.003C412.142 272.118 412.495 271.734 414.295 271.834C415.152 272.549 415.636 272.86 415.718 274.086C416.163 280.777 407.649 280.741 411.221 289.217L410.585 291.511C408.513 294.996 406.421 298.484 404.518 302.066C405.36 305.368 406.037 308.682 406.682 312.027C404.413 311.526 403.051 309.932 401.382 308.407C400.869 308.935 400.597 309.313 399.893 309.569L398.267 311.003C396.843 309.809 395.498 308.488 394.127 307.233C390.242 303.506 384.856 298.974 382.277 294.29L382.885 294.249L384.952 294.685C385.516 293.562 385.997 292.44 386.469 291.277C385.016 290.982 384.817 292.606 383.332 292.432C384.669 290.572 386.623 288.578 388.488 287.236C390.132 286.054 391.521 285.386 393.575 285.699C394.841 286.884 394.896 287.8 395.375 289.443C395.717 288.867 395.553 289.204 395.831 288.28C396.142 287.249 395.845 287.685 396.631 287.007L397.668 288.104L398.516 287.346C399.436 286.228 400.42 285.173 401.4 284.11C401.402 283.177 401.381 282.174 401.57 281.258C402.291 277.769 407.841 274.878 410.621 273.003Z"/><path fill="#180F0A" transform="scale(0.390625 0.390625)" d="M384.952 294.685C385.516 293.562 385.997 292.44 386.469 291.277C385.016 290.982 384.817 292.606 383.332 292.432C384.669 290.572 386.623 288.578 388.488 287.236C390.132 286.054 391.521 285.386 393.575 285.699C394.841 286.884 394.896 287.8 395.375 289.443C395.717 288.867 395.553 289.204 395.831 288.28C396.142 287.249 395.845 287.685 396.631 287.007L397.668 288.104C398.585 289.63 399.46 290.931 399.755 292.708L400.196 293.34L400.619 293.905C400.198 294.935 399.676 295.992 399.393 297.066L400.716 298.989L397.855 302.158L401.382 308.407C400.869 308.935 400.597 309.313 399.893 309.569L398.267 311.003C396.843 309.809 395.498 308.488 394.127 307.233C390.242 303.506 384.856 298.974 382.277 294.29L382.885 294.249L384.952 294.685Z"/><path fill="#7A584B" transform="scale(0.390625 0.390625)" d="M384.952 294.685C385.516 293.562 385.997 292.44 386.469 291.277C385.016 290.982 384.817 292.606 383.332 292.432C384.669 290.572 386.623 288.578 388.488 287.236C390.132 286.054 391.521 285.386 393.575 285.699C394.841 286.884 394.896 287.8 395.375 289.443C395.838 290.411 395.979 290.609 395.637 291.698C395.339 292.646 394.627 293.471 394.032 294.253C393.108 293.744 393.434 294.117 393.059 293.227C392.323 291.484 391.979 290.268 390.112 289.524C389.932 289.452 389.745 289.399 389.562 289.337L389.004 289.011C386.911 290.877 388.121 293.669 384.952 294.685Z"/><path fill="#060302" transform="scale(0.390625 0.390625)" d="M389.004 289.011C390.051 288.155 390.694 287.958 392.02 287.729L393.102 288.104C392.273 289.154 390.841 289.165 389.562 289.337L389.004 289.011Z"/><path fill="#D5A05D" transform="scale(0.390625 0.390625)" d="M394.127 307.233C390.242 303.506 384.856 298.974 382.277 294.29L382.885 294.249C384.197 295.813 385.372 297.685 387.388 298.308L389.131 297.99L389.691 298.392L389.063 300.066C390.159 302.382 393.173 302.925 394.816 304.749L394.127 307.233Z"/><path fill="#F1BD6F" transform="scale(0.390625 0.390625)" d="M394.816 304.749L396.366 303.836C397.575 304.209 397.825 304.267 398.493 305.447C399.136 306.585 399.492 308.311 399.893 309.569L398.267 311.003C396.843 309.809 395.498 308.488 394.127 307.233L394.816 304.749Z"/><path fill="#7A584B" transform="scale(0.390625 0.390625)" d="M399.755 292.708L400.196 293.34C399.977 293.705 399.756 294.068 399.531 294.43C398.495 296.105 397.519 297.995 395.487 298.474C395.814 296.157 398.14 294.323 399.755 292.708Z"/><defs><linearGradient id="gradient_0" gradientUnits="userSpaceOnUse" x1="413.07315" y1="284.07843" x2="397.52319" y2="288.74271"><stop offset="0" stop-color="#0F0A05"/><stop offset="1" stop-color="#2A1A0E"/></linearGradient></defs><path fill="url(#gradient_0)" transform="scale(0.390625 0.390625)" d="M401.4 284.11C401.402 283.177 401.381 282.174 401.57 281.258C402.291 277.769 407.841 274.878 410.621 273.003L411.415 274.168L411.755 274.817C407.348 282.241 406.65 293.286 400.716 298.989L399.393 297.066C399.676 295.992 400.198 294.935 400.619 293.905L400.196 293.34L399.755 292.708C399.46 290.931 398.585 289.63 397.668 288.104L398.516 287.346C399.436 286.228 400.42 285.173 401.4 284.11Z"/><path fill="#DA8E5A" transform="scale(0.390625 0.390625)" d="M401.4 284.11C401.402 283.177 401.381 282.174 401.57 281.258C402.291 277.769 407.841 274.878 410.621 273.003L411.415 274.168C406.943 276.816 405.716 284.753 402.762 285.129L401.4 284.11Z"/><path fill="#7A584B" transform="scale(0.390625 0.390625)" d="M398.516 287.346C399.875 287.925 401.204 288.405 401.911 289.817C402.525 291.043 402.59 292.19 402.151 293.476C401.64 294.974 400.562 296.068 399.393 297.066C399.676 295.992 400.198 294.935 400.619 293.905L400.196 293.34L399.755 292.708C399.46 290.931 398.585 289.63 397.668 288.104L398.516 287.346Z"/><path fill="#E06D54" transform="scale(0.390625 0.390625)" d="M216.78 289.804C222.884 294.268 229.417 300.344 234.342 306.08C233.647 308.768 232.765 311.41 231.935 314.059C224.567 308.086 218.571 300.365 210.913 294.913C214.462 299.698 218.347 303.82 222.69 307.896C225.432 310.288 228.372 312.512 231.201 314.805C228.49 319.142 225.823 322.343 221.274 324.814C213.681 319.218 206.513 308.546 202.806 299.988L203.263 299.878L204.021 299.683C210.366 298.098 212.812 294.701 216.78 289.804Z"/><path fill="#180F0A" transform="scale(0.390625 0.390625)" d="M207.181 305.871C212.387 308.146 217.9 315.28 221.48 319.673C216.492 317.771 210.433 310.126 207.181 305.871Z"/><path fill="#FBF2D8" transform="scale(0.390625 0.390625)" d="M404.215 122.135C414.98 128.554 424.049 138.484 433.616 146.545C440.59 152.421 454.279 162.654 459.764 168.778L458.73 168.494C440.845 157.661 421.344 146.402 402.066 138.404C403.014 133.053 403.432 127.525 404.215 122.135Z"/><path fill="#FBF2D8" transform="scale(0.390625 0.390625)" d="M328.983 696.227C335.008 697.121 341.118 699.192 346.99 700.807C347.418 709.559 347.653 718.095 346.952 726.845C341.715 727.338 335.014 724.419 330.042 722.812C330.004 714.01 329.775 704.992 328.983 696.227Z"/><path fill="#7A584B" transform="scale(0.390625 0.390625)" d="M145.032 108.695C148.309 110.593 152.695 116.409 156.429 119.186C153.467 136.083 145.143 145.86 131.497 155.532C128.579 157.176 125.692 158.479 122.569 159.689C138.294 143.818 143.759 130.91 145.032 108.695Z"/><path fill="#FBF2D8" transform="scale(0.390625 0.390625)" d="M310.927 690.183C316.464 692.172 322.035 694.067 327.637 695.866C326.765 704.515 326.82 713.08 326.929 721.759C321.333 720.91 315.742 718.123 310.53 715.972C310.333 707.374 310.465 698.771 310.927 690.183Z"/><path fill="#FBF2D8" transform="scale(0.390625 0.390625)" d="M292.129 682.718L308.042 689.067C308.008 697.268 307.813 705.713 307.006 713.872C306.777 714.094 306.427 714.138 306.13 714.253C301.62 712.631 297.302 710.511 292.96 708.493C291.72 700.127 292.051 691.159 292.129 682.718Z"/><path fill="#FEE0A0" transform="scale(0.390625 0.390625)" d="M423.703 265.557C426.534 265.771 431.054 268.141 432.85 270.416C432.992 270.597 433.122 270.786 433.258 270.971L433.112 271.646C431.759 271.914 430.931 271.37 429.709 270.891C428.82 270.543 429.172 270.655 428.085 270.595C430.351 273.481 434.923 281.436 438.212 282.312C439.124 281.306 439.09 280.45 439.07 279.132C439.025 276.256 438.236 273.626 438.982 270.772C441.008 271.067 442.128 270.79 444.039 270.093L445.972 270.517C447.765 271.528 448.835 274.185 450.08 275.827C443.379 284.591 435.459 294.321 426.65 301.026C426.184 299.967 426.008 298.781 425.755 297.653C428.025 295.274 429.43 293.315 430.245 290.091C431.428 285.567 430.713 280.756 428.265 276.772C425.112 271.713 421.313 273.097 416.349 272.061L416.152 271.139C417.502 268.399 421.115 266.931 423.703 265.557Z"/><path fill="#F1BD6F" transform="scale(0.390625 0.390625)" d="M423.703 265.557C426.534 265.771 431.054 268.141 432.85 270.416C432.992 270.597 433.122 270.786 433.258 270.971L433.112 271.646C431.759 271.914 430.931 271.37 429.709 270.891C428.82 270.543 429.172 270.655 428.085 270.595C426.293 269.116 425.055 267.416 423.703 265.557Z"/><path fill="#FBF2D8" transform="scale(0.390625 0.390625)" d="M272.99 673.98C278.79 675.689 284.284 678.841 289.274 682.187C290.101 690.375 289.697 698.528 289.452 706.736C284.937 704.463 280.656 701.747 276.469 698.926C274.757 690.583 275.373 682.318 272.99 673.98Z"/><path fill="#FBF2D8" transform="scale(0.390625 0.390625)" d="M255.546 664.385C261.117 666.794 266.307 669.955 271.446 673.159C271.574 680.841 273.231 688.297 272.78 696.053C268.907 694.11 264.436 691.653 261.236 688.749C254.734 682.848 255.93 672.423 255.546 664.385Z"/><path fill="#FBF2D8" transform="scale(0.390625 0.390625)" d="M349.551 701.346C353.568 701.668 357.532 702.686 361.462 703.546C362.38 712.37 362.261 720.991 361.899 729.829C358.75 730.43 353.056 728.437 349.774 727.717C350.09 718.927 349.81 710.134 349.551 701.346Z"/><path fill="#E06D54" transform="scale(0.390625 0.390625)" d="M212.267 260.791C220.412 270.568 228.865 280.309 233.095 292.503C231.412 291.588 229.765 290.604 228.108 289.644L227.484 290.547L233.761 294.121C234.134 297.229 234.213 300.42 234.408 303.547C231.774 301.472 218.978 291.265 218.325 288.724C217.97 287.344 218.578 285.574 218.159 283.969C216.067 275.962 213.326 269.128 212.267 260.791Z"/><path fill="#1E130E" transform="scale(0.390625 0.390625)" d="M227.484 290.547C225.849 289.354 224.454 288.103 223.046 286.65L223.063 285.775L222.396 285.457C224.596 286.197 226.377 288.138 228.108 289.644L227.484 290.547Z"/><path fill="#1E130E" transform="scale(0.390625 0.390625)" d="M218.828 277.435C222.532 278.171 225.742 281.993 228.156 284.711C224.706 283.674 221.392 279.872 218.828 277.435Z"/><path fill="#FBF2D8" transform="scale(0.390625 0.390625)" d="M344.74 308.175C348.211 310.051 351.625 312.711 354.746 315.146C354.505 316.746 354.151 318.457 354.236 320.077C354.287 321.042 354.192 321.494 354.96 322.142C356.26 320.824 356.641 318.859 357.173 317.126C359.118 318.075 362.482 319.253 363.705 321.083C364.613 322.441 364.123 323.183 363.746 324.603L361.661 331.077C361.402 330.908 361.141 330.742 360.884 330.569C355.207 326.765 348.793 324.621 343.017 321.056C343.496 316.75 344.07 312.456 344.74 308.175Z"/><path fill="#FBF2D8" transform="scale(0.390625 0.390625)" d="M771.54 868.105C778.726 867.11 784.844 869.303 791.457 871.792C787.142 873.057 782.913 874.365 778.711 875.979C776.448 876.837 774.249 878.195 772.034 879.207C769.707 880.269 767.643 880.862 765.155 879.934C764.462 879.057 764.155 878.779 764.313 877.576C764.854 873.464 768.259 870.197 771.54 868.105Z"/><path fill="#FBF2D8" transform="scale(0.390625 0.390625)" d="M823.847 865.164C828.687 864.641 834.711 865.548 839.247 867.321C841.383 868.156 843.158 868.963 844.136 871.108L843.663 872.322C842.232 873.586 840.508 873.883 838.705 874.366C835.875 874.587 832.84 874.972 830.01 874.708C824.312 874.176 821.285 870.362 817.787 866.346C819.78 865.786 821.807 865.493 823.847 865.164Z"/><path fill="#FBF2D8" transform="scale(0.390625 0.390625)" d="M331.662 299.625C335.504 301.507 339.071 304.163 342.637 306.523C342.253 311.107 341.36 315.537 340.092 319.951C336.172 318.492 332.388 316.973 328.646 315.1L328.783 314.714C330.601 309.718 331.224 304.905 331.662 299.625Z"/><path fill="#FBF2D8" transform="scale(0.390625 0.390625)" d="M241.655 655.687C245.603 657.529 249.322 660.042 253.045 662.303C253.973 668.796 254.988 675.222 254.757 681.803C254.18 681.744 253.708 681.584 253.185 681.316C247.382 678.339 242.898 661.638 241.655 655.687Z"/><path fill="#DA8E5A" transform="scale(0.390625 0.390625)" d="M431.182 140.268C450.111 155.207 467.847 171.234 486.085 186.975C495.106 194.761 505.282 201.83 513.639 210.298C513.168 211.996 512.786 213.822 511.998 215.399L512.014 213.82C505.581 202.553 445.185 153.061 430.814 141.075L431.182 140.268Z"/><path fill="#FEE0A0" transform="scale(0.390625 0.390625)" d="M419.253 278.202C420.711 279.181 422.156 280.178 423.587 281.194C424.542 283.079 425.389 284.575 424.709 286.737C424.159 288.438 422.896 289.816 421.249 290.511C419.71 291.167 417.891 291.244 416.349 290.56C414.826 289.885 413.818 288.589 413.31 287.027C412.698 285.148 412.578 282.082 413.79 280.414C415.075 278.644 417.274 278.477 419.253 278.202Z"/><path fill="#FBF2D8" transform="scale(0.390625 0.390625)" d="M809.839 882.249C812.142 884.169 814.706 885.261 817.417 886.48C811.881 887.924 807.595 889.355 802.847 892.594C800.463 894.221 798.33 896.024 795.68 897.222L794.175 896.053C794.289 895.949 794.404 895.848 794.516 895.743C801.783 888.918 797.715 886.25 809.839 882.249Z"/><path fill="#FBF2D8" transform="scale(0.390625 0.390625)" d="M791.012 878.089C792.767 877.493 793.192 877.131 795.009 877.689L795.764 878.788C795.502 880.164 795.338 880.311 794.37 881.344C792.751 881.885 791.313 881.985 789.615 882.065C785.288 882.717 781.509 885.261 777.213 886.099C774.921 886.546 772.957 886.209 770.998 884.927L771.006 884.347C777.9 882.652 784.414 880.728 791.012 878.089Z"/><path fill="#1E130E" transform="scale(0.390625 0.390625)" d="M791.012 878.089C792.767 877.493 793.192 877.131 795.009 877.689L795.764 878.788C795.502 880.164 795.338 880.311 794.37 881.344C792.751 881.885 791.313 881.985 789.615 882.065C790.394 881.004 791.055 880.026 791.657 878.848L791.012 878.089Z"/><path fill="#D5A05D" transform="scale(0.390625 0.390625)" d="M419.253 278.202C420.027 276.998 420.36 276.501 421.716 275.884C423.081 275.931 423.952 276.292 424.916 277.258C427.725 280.071 429.123 284.837 428.849 288.739C428.673 291.256 427.849 293.662 425.781 295.228C425.314 295.582 425.037 295.709 424.55 295.968L424.498 296.927L420.081 296.096L419.932 294.623C419.349 293.976 419.491 294.346 419.449 293.539C422.013 293.826 422.517 293.625 424.648 292.17L425.199 291.788C425.473 291.858 425.754 291.906 426.022 291.998C426.298 292.094 426.557 292.233 426.824 292.351C427.259 289.983 425.482 288.465 426.161 285.629L427.81 285.801C427.184 284.006 425.09 282.343 423.587 281.194C422.156 280.178 420.711 279.181 419.253 278.202Z"/><path fill="#060302" transform="scale(0.390625 0.390625)" d="M419.932 294.623C421.465 295.093 423.005 295.542 424.55 295.968L424.498 296.927L420.081 296.096L419.932 294.623Z"/><path fill="#402D29" transform="scale(0.390625 0.390625)" d="M153.787 115.049C156.93 115.796 159.834 117.52 162.674 119.007C165.716 126.908 168.921 135.553 168.92 144.131C165.515 133.072 162.699 122.965 153.787 115.049Z"/><path fill="#FEE0A0" transform="scale(0.390625 0.390625)" d="M787.755 895.794C788.76 892.65 790.092 888.925 793.135 887.19C794.003 886.696 795.272 886.402 796.26 886.661C796.543 886.735 796.793 886.903 797.06 887.024C797.133 889.91 794.056 892.534 793.578 895.502L794.175 896.053L795.68 897.222L791.329 898.494C790.163 897.561 788.953 896.685 787.755 895.794Z"/><path fill="#FED08C" transform="scale(0.390625 0.390625)" d="M419.442 303.433C418.562 301.03 416.095 298.863 415.682 296.558C417.037 295.656 418.477 296.048 420.081 296.096L424.498 296.927L425.755 297.653C426.008 298.781 426.184 299.967 426.65 301.026C425.262 302.275 424.652 303.242 422.646 303.27C422.173 303.276 421.531 303.14 421.055 303.053L419.723 304.47L419.442 303.433Z"/><path fill="#D5A05D" transform="scale(0.390625 0.390625)" d="M407.892 304.028C407.359 302.245 406.912 300.949 407.28 299.095C407.751 298.65 407.902 298.232 408.614 298.315C411.191 298.615 414.463 302.289 415.827 304.313C416.608 305.471 417.176 306.769 417.74 308.042C415.423 306.534 411.695 303.105 409.152 302.58L408.942 302.998L409.023 303.171L407.892 304.028Z"/><path fill="#FBF2D8" transform="scale(0.390625 0.390625)" d="M813.046 869.171C815.118 869.859 816.914 871.255 817.95 873.216C818.825 874.872 818.666 875.764 818.065 877.485C815.609 876.212 812.767 875.164 811.619 872.47C811.686 870.81 812.1 870.492 813.046 869.171Z"/><path fill="#D5A05D" transform="scale(0.390625 0.390625)" d="M401.382 308.407C403.051 309.932 404.413 311.526 406.682 312.027C407.126 313.442 407.621 314.204 407.175 315.643C404.338 316.105 400.531 312.596 398.267 311.003L399.893 309.569C400.597 309.313 400.869 308.935 401.382 308.407Z"/><path fill="#402D29" transform="scale(0.390625 0.390625)" d="M145.248 178.616C145.509 178.562 145.764 178.472 146.03 178.455C146.823 178.406 148.786 178.616 149.298 179.187C138.513 180.762 139.972 179.729 131.224 185.887C130.062 186.387 129.452 186.599 128.618 187.592C128.023 188.3 127.647 188.688 126.893 189.217L126.133 189.07C126.383 188.541 126.606 188.073 126.972 187.61C131.672 181.675 138.051 179.559 145.248 178.616Z"/><path fill="#F1BD6F" transform="scale(0.390625 0.390625)" d="M409.023 303.171C410.418 304.369 411.775 305.675 412.837 307.187C413.611 308.289 413.991 309.267 413.772 310.623C412.841 311.522 412.555 311.719 411.171 311.766C409.856 311.811 408.674 311.191 407.724 310.352C407.624 309.301 407.323 309 408.022 308.152L409.592 309.416L409.9 308.992L407.892 304.028L409.023 303.171Z"/><path fill="#F0E6D2" transform="scale(0.390625 0.390625)" d="M829.715 906.004L830.211 906.047L830.004 906.678C825.442 909.922 819.685 911.976 814.499 914.031L813.896 913.836L813.788 913.091C817.027 909.51 825.168 907.672 829.715 906.004Z"/><path fill="#957B5E" transform="scale(0.390625 0.390625)" d="M430.814 141.075C423.604 135.242 416.121 129.625 410.117 122.507C417.638 127.552 424.402 134.256 431.182 140.268L430.814 141.075Z"/><path fill="#FBF2D8" transform="scale(0.390625 0.390625)" d="M787.755 895.794C788.953 896.685 790.163 897.561 791.329 898.494C790.897 899.133 790.451 899.762 789.99 900.381C788.958 901.743 788.151 902.452 786.385 902.671C785.782 902.277 785.501 902.297 785.329 901.532C784.854 899.432 786.645 897.443 787.755 895.794Z"/><path fill="#FBF2D8" transform="scale(0.390625 0.390625)" d="M256.64 289.258C261.778 291.902 265.556 293.563 268.319 298.91L266.827 299.587C263.239 296.312 259.95 292.806 256.64 289.258Z"/><path fill="#D46653" transform="scale(0.390625 0.390625)" d="M451.061 296.444L452.455 296.861C452.673 298.417 452.937 299.741 452.486 301.286C451.317 303.078 448.769 303.848 446.869 304.709L451.061 296.444Z"/><path fill="#F0E6D2" transform="scale(0.390625 0.390625)" d="M812.495 897.139L812.462 897.449C811.061 899.866 803.417 902.582 800.637 903.865C800.566 903.376 800.631 902.836 800.647 902.341C803.242 899.478 808.852 898.324 812.495 897.139Z"/><path fill="#D5A05D" transform="scale(0.390625 0.390625)" d="M433.973 268.683C434.78 268.93 435.65 269.13 436.27 269.75C438.032 271.512 437.463 275.626 437.425 277.928C435.448 274.87 434.165 272.378 433.973 268.683Z"/><path fill="#F1BD6F" transform="scale(0.390625 0.390625)" d="M411.221 289.217C413.355 290.322 415.235 291.373 416.349 293.578L416.061 294.377C413.799 294.355 412.295 292.872 410.585 291.511L411.221 289.217Z"/><path fill="#E06D54" transform="scale(0.390625 0.390625)" d="M455.336 285.473L456.378 286.297C454.952 289.79 453.64 293.278 452.455 296.861L451.061 296.444C452.688 292.81 454.199 289.297 455.336 285.473Z"/><path fill="#180F0A" fill-opacity="0.98823529" transform="scale(0.390625 0.390625)" d="M893.052 487.943L895.553 488.376C896.807 489.499 896.814 490.002 897.264 491.583C896.655 491.434 895.776 491.279 895.202 490.977C893.837 490.259 893.542 489.289 893.052 487.943Z"/><path fill="#D5A05D" transform="scale(0.390625 0.390625)" d="M419.723 304.47L419.185 305.371L418.002 305.164C416.952 304.26 416.499 303.864 416.075 302.489L416.442 302.107L418.323 303.756L419.442 303.433L419.723 304.47Z"/><path fill="#F0E6D2" fill-opacity="0.019607844" transform="scale(0.390625 0.390625)" d="M949.941 454.988C948.871 452.262 947.192 449.771 945.692 447.262C947.466 449.042 949.265 450.754 950.729 452.806L949.941 454.988Z"/><path fill="#957B5E" transform="scale(0.390625 0.390625)" d="M413.059 296.764L413.438 296.642C414.52 297.203 414.917 298.654 415.464 299.737L414.119 299.36C413.188 298.302 413.202 298.178 413.059 296.764Z"/><path fill="#905E47" transform="scale(0.390625 0.390625)" d="M401.267 315.424L401.616 315.706C401.182 317.228 399.979 318.132 398.896 319.249L398.411 318.839C398.889 317.361 400.161 316.48 401.267 315.424Z"/><path fill="#F0E6D2" transform="scale(0.390625 0.390625)" d="M268.319 298.91L269.706 300.849L269.543 301.474C268.298 301.061 267.746 300.478 266.827 299.587L268.319 298.91Z"/><path fill="#402D29" transform="scale(0.390625 0.390625)" d="M481.783 516.292L482.669 516.533C482.883 517.709 483.124 518.509 482.712 519.669C481.84 518.747 481.954 517.529 481.783 516.292Z"/></svg>