<?xml version="1.0" encoding="utf-8" ?><svg xmlns="http://www.w3.org/2000/svg" xmlns:xlink="http://www.w3.org/1999/xlink" width="400" height="400" viewBox="0 0 400 400"><path fill="white" transform="scale(0.390625 0.390625)" d="M0 0L1024 0L1024 1024L0 1024L0 0Z"/><path fill="#510924" transform="scale(0.390625 0.390625)" d="M212.52 36.6808C237.142 34.5131 244.937 61.0856 237.183 79.9356C235.565 83.8691 233.619 86.7871 231.288 90.3364C237.314 103.223 242.071 117.69 244.798 131.709C246.188 138.853 245.963 148.794 248.431 155.487C250.735 161.578 262.51 163.98 265 168.995C268.058 175.153 253.778 181.401 249.84 183.022C252.236 196.99 252.484 206.549 248.96 220.296C240.844 251.951 210.081 250.366 184.278 242.981C182.98 245.437 181.819 248.279 180.695 250.843C188.671 261.816 193.644 270.896 200.252 282.638C209.191 298.309 217.625 314.263 225.541 330.475C229.48 338.424 235.267 352.379 239.528 359.291C240.55 354.141 240.404 349.021 246.655 349.628C249.442 347.814 255.318 328.49 258.06 324.536C259.18 322.921 260.303 322.914 262.264 322.571L262.87 322.47C264.024 320.171 264.001 313.357 264.132 310.549C264.533 303.229 264.979 293.795 265.887 286.646C267.063 277.388 269.067 258.517 275.362 251.706C283.651 242.739 304.98 220.497 314.849 214.762C325.329 188.527 336.15 162.429 347.31 136.475C350.623 128.778 359.486 107.722 363.362 101.745C375.798 106.054 455.343 162.472 462.809 172.61C485.679 164.936 521.58 162.303 544.897 170.061C546.152 170.478 547.466 171.663 547.876 172.958C546.721 177.516 529.299 197.833 524.917 202.476C531.493 207.171 537.713 210.932 543.127 216.968C537.584 230.756 528.318 246.783 521.723 260.296C507.247 289.956 491.027 319.689 476.9 349.418C484.819 370.421 474.964 386.056 464.012 403.376C450.282 425.088 431.61 443.174 411.492 458.929C412.526 460.519 413.583 462.697 414.481 464.415C411.201 472.827 405.799 479.266 402.408 486.456C396.602 498.766 392.667 508.095 385.349 519.783C396.317 514.446 407.747 510.146 419.162 505.904C423.151 504.422 433.652 502.038 436.223 499.654C466.669 471.579 494.56 440.614 524.079 411.623C538.529 397.432 561.14 371.745 579.334 364.327C591.287 359.456 604.554 358.852 616.9 362.617C632.681 367.489 672.77 396.695 687.963 407.495C707.768 421.446 727.413 435.621 746.897 450.017C751.646 453.55 768.858 467.644 772.733 469.269C776.029 466.381 776.217 467.181 780.355 467.943C789.353 468.781 794.297 478.653 800.133 482.299C811.278 489.261 811.649 484.41 813.561 499.623C818.681 503.102 835.486 513.605 840.921 516.033L841.387 515.742C841.167 495.265 884.575 492.026 896.035 480.822C908.722 468.42 913.701 448.255 930.854 440.411C939.233 436.649 954.026 435.317 962.625 439.243C987.229 450.473 988.336 481.132 980.107 502.137C977.881 507.807 974.944 513.17 971.365 518.098C966.504 524.864 960.636 531.155 955.15 537.461C948.35 545.387 941.649 553.398 935.051 561.493C920.57 579.503 911.701 599.279 889.344 608.659C866.519 618.235 854.58 614.852 837.687 597.287C826.241 585.386 811.664 573.513 806.06 557.466C805.587 556.087 804.105 555.969 802.879 555.554L792.518 551.468C789.122 555.942 772.833 573.805 766.467 570.197C753.245 562.701 739.7 554.365 727.008 546.002C729.892 560.222 731.986 582.575 733.771 597.451L745.682 705.642C747.685 723.389 749.66 743.378 752.609 760.908C755.314 759.23 757.508 757.563 760.579 759.359C762.297 761.916 762.191 778.509 762.581 782.856C763.062 788.225 764.029 795.142 764.218 800.466C761.915 803.95 754.126 806.495 750.164 808.066C752.228 822.994 756.034 836.562 760.096 850.991C769.07 851.629 776.401 852.288 779.462 862.168C780.459 865.387 781.107 867.119 781.163 870.57C785.553 873.816 790.009 878.292 794.182 881.812C810.089 895.232 825.835 907.64 844.285 917.372C849.313 920.025 856.366 925.087 860.861 928.457C870.636 935.591 883.262 947.502 884.178 960.509C886.547 994.131 831.691 988.607 812.416 982.03C791.812 975 775.062 965.287 755.327 956.848C735.01 948.16 703.447 948.427 693.598 925.679C692.207 922.303 691.977 915.211 691.742 911.515C690.451 893.402 691.306 875.199 694.289 857.286C695.08 852.528 698.454 841.342 698.545 837.883C698.708 831.674 696.294 822.038 695.792 814.767C691.151 813.905 685.737 813.121 681.408 811.242C678.601 810.024 677.817 808.892 676.716 806.073C675.284 802.403 665.357 772.993 666.66 770.459C668.128 767.606 670.782 767.031 673.591 766.101C662.467 734.133 642.949 702.943 634.455 669.553C628.09 644.535 627.259 614.227 630.044 588.701C584.684 606.714 537.64 628.584 492.216 645.449C486.441 652.586 481.125 660.189 475.052 667.196C451.179 694.741 423.958 720.866 386.752 727.445C352.635 733.478 310.349 718.952 282.546 699.447C252.988 699.399 227.68 688.89 202.969 673.396C199.353 671.129 195.96 668.156 192.438 665.863C183.569 660.089 173.509 656.066 164.883 649.786C133.485 629.824 123.778 596.471 109.057 564.775C104.542 555.054 95.1347 547.187 90.8032 537.401C87.2642 529.405 84.2714 520.112 81.4335 511.683C76.1143 496.021 71.1567 480.238 66.5645 464.347C47.5156 398.63 28.7481 331.932 54.5281 265.509C64.249 240.463 72.5031 224.484 97.4268 213.043C95.1016 206.833 92.236 200.098 88.3032 194.829C78.3409 181.587 64.1573 169.332 59.5956 152.911C55.0849 136.674 55.268 116.81 66.8682 103.715C67.6725 102.807 64.2125 102.767 63.3224 100.75L63.8708 99.7953C65.4228 99.1678 66.0695 99.0564 67.6659 98.7184C67.0276 96.9777 62.2763 96.0831 61.6346 93.1159L62.3603 92.4941C66.2097 91.542 67.4294 92.5109 71.0485 94.0677C69.8815 88.7872 69.5078 80.6787 75.1855 77.7469C76.5746 79.9612 74.7643 86.8517 75.2895 91.1286L75.8996 91.3854C77.2786 89.627 80.2904 82.2656 83.5227 78.2242C109.205 46.1124 137.591 54.8948 172.295 48.5028C185.523 46.0664 197.07 38.6444 212.52 36.6808Z"/><path fill="#F9E8BB" transform="scale(0.390625 0.390625)" d="M69.4322 244.92C70.0863 245.805 70.6644 255.85 71.2934 258.831C72.6316 265.395 75.5817 271.522 79.8779 276.662C90.1583 288.801 111.242 298.231 125.409 305.048C143.793 313.894 168.639 327.14 181.913 342.741C203.014 367.541 216.531 402.151 231.41 431.076C241.288 450.278 249.413 462.288 261.62 479.953C255.91 480.782 251.284 481.656 246.293 486.496C238.144 494.399 230.416 507.222 227.959 518.477C227.727 519.538 228.788 520.157 229.531 520.662C232.172 520.229 233.371 513.201 234.543 510.568C240.206 497.852 255.218 473.824 271.125 488.255C258.072 495.134 251.074 514.892 250.299 528.837C250.021 533.828 253.289 555.166 259.033 555.219C260.95 551.183 261.822 547.177 263.395 542.584C270.382 522.464 277.46 497.862 294.048 483.36C297.929 479.967 308.619 476.68 314.336 471.604C320.554 466.083 330.725 460.297 337.608 455.06C343.15 450.843 351.736 446.733 358.068 443.476C377.886 454.511 386.285 469.353 396.833 488.226C386.846 515.696 367.175 538.576 341.514 552.57C333.046 557.271 322.344 561.557 313.469 565.995C300.734 572.364 288.148 579.201 275.387 585.414C269.881 588.095 260.792 591.823 254.752 590.082C248.014 588.028 240.465 583.281 235.325 578.475C198.982 544.5 167.412 505.06 135.442 467.039C130.595 461.276 107.145 430.252 103.938 429.077C102.554 429.963 103.01 429.351 102.619 431.041C103.133 433.896 117.3 451.631 119.731 454.704C122.859 459.452 128.394 466.069 132.151 470.677C162.755 508.217 194.353 545.959 229.016 579.805C238.331 588.9 249.676 595.853 262.936 595.123C260.647 605.082 245.962 643.376 246.869 648.27C251.298 654.389 258.107 646.793 261.411 643.215C275.567 627.886 278.236 608.683 280.327 588.905C286.883 585.083 294.89 581.039 301.666 577.391C304.378 585.44 310.185 597.534 313.987 605.072C313.618 606.176 313.215 607.269 312.78 608.349C302.756 633.527 281.346 654.504 256.694 665.725C237.917 674.273 212.336 667.12 193.977 659.617C143.497 638.985 134.575 610.787 115.193 565.275C137.86 585.442 164.714 602.825 190.333 619.055C192.01 620.117 194.87 621.904 196.817 622.1C197.136 621.847 198.774 620.347 198.401 619.944C194.339 615.566 187.739 612.706 182.838 609.26C153.227 588.434 117.823 568.89 97.5044 538.23C93.2391 531.31 82.2399 497.411 79.4656 488.287C64.4841 439.017 44.5266 374.886 47.6862 323.162C49.5404 295.874 56.9398 269.251 69.4322 244.92Z"/><path fill="#510924" transform="scale(0.390625 0.390625)" d="M154.761 346.705L155.356 346.671C158.447 346.522 171.619 346.905 170.944 351.273C170.15 352.051 169.623 352.718 168.306 352.405C134.678 344.418 118.247 368.987 106.153 397.858C104.682 400.726 103.349 406.84 100.662 408.478L99.8083 408.221L99.2814 407.005C99.6832 398.509 114.441 371.386 120.656 364.523C131.244 352.83 139.211 348.116 154.761 346.705Z"/><path fill="#510924" transform="scale(0.390625 0.390625)" d="M79.3905 411.295C83.8285 412.523 95.5641 425.8 98.8911 429.762C100.697 431.912 101.786 433.179 100.742 435.803C99.5947 435.697 98.7623 435.733 97.9341 434.739C91.9913 427.611 84.7005 421.213 78.7024 414.239C78.3602 412.368 78.3124 413.336 79.3905 411.295Z"/><path fill="#797179" transform="scale(0.390625 0.390625)" d="M593.796 365.168C604.068 363.698 616.83 366.242 625.864 371.284C631.403 374.392 636.819 377.713 642.1 381.241C657.423 391.473 773.63 472.234 779.895 481.785C782.267 485.401 780.85 492.738 779.965 496.772C776.049 514.606 764.38 532.923 748.901 542.781C740.597 537.366 731.511 532.08 723.453 526.476C714.566 506.891 709.208 500.195 688.167 492.285C658.695 481.206 630.972 484.516 600.608 485.116C601.091 484.622 601.567 484.121 602.036 483.614C614.443 470.343 624.563 449.033 630 431.607C630.633 429.579 632.122 425.806 632.058 423.913C631.136 422.687 631.25 422.64 629.823 422.171C627.531 422.726 626.129 429.312 625.322 431.934C619.709 450.165 611.101 464.648 600.646 480.401C603.223 472.726 617.788 421.869 615.075 415.518C613.613 414.686 614.402 414.901 612.585 415.036C610.545 416.837 609.274 429.347 608.507 433.08C606.745 444.4 602.904 455.587 600.45 466.635C597.052 481.932 591.133 490.571 583.034 503.688C575.869 515.262 568.59 526.765 561.199 538.195C534.254 579.734 502.336 626.541 470.896 664.705C416.451 730.656 363.358 741.776 288.442 698.242C311.654 689.769 334.724 662.504 332.344 636.591C331.407 626.384 323.154 613.133 318.068 604.061C328.556 579.328 339.279 571.586 357.594 552.563C361.173 549.315 363.783 544.633 367.03 541.231C371.9 536.129 376.59 531.361 381.175 525.959C385.59 524.976 395.112 520.266 399.923 518.264C409.581 514.307 419.336 510.591 429.179 507.118C404.705 530.368 380.034 550.921 353.133 571.306C349.758 573.863 342.992 579.507 342.507 583.785C346.597 584.014 360.94 570.487 364.98 567.503C437.116 514.215 494.617 444.138 559.846 383.138C569.446 374.16 580.595 366.955 593.796 365.168Z"/><path fill="#510924" transform="scale(0.390625 0.390625)" d="M569.731 477.308C571.478 478.407 572.006 478.497 572.312 480.446C570.055 485.086 563.975 493.243 560.792 497.515C552.838 508.279 544.495 518.752 535.78 528.91C504.429 566.021 472.004 604.439 433.68 634.7C417.521 647.459 393.698 661.748 373.739 666.569C363.197 669.115 349.331 669.023 338.61 667.691C337.235 667.229 337.584 667.346 336.332 666.528C336.093 665.049 336.003 665.746 336.634 664.369C337.748 663.694 338.672 663.608 339.94 663.597C342.792 663.574 345.7 664.381 348.567 664.542C353.398 664.812 358.438 664.528 363.249 664.019C415.082 658.534 471.372 596.255 504.166 558.983C516.053 545.474 528.012 532.002 539.197 517.898C545.921 509.341 552.536 500.699 559.041 491.974C562.577 487.165 566.02 481.916 569.731 477.308Z"/><path fill="#797179" transform="scale(0.390625 0.390625)" d="M627.548 488.72C652.12 487.875 679.488 490.394 701.114 503.611C708.362 508.185 716.032 517.639 718.325 526.031C723.682 545.642 725.467 567.893 727.81 588.003L741.156 707.528C743.021 723.155 745.58 748.912 748.704 763.958C724.753 776.152 708.478 778.673 682.133 775.861C679.495 765.915 671.791 750.779 667.72 741.041C656.577 714.385 642.505 686.924 636.582 658.572C633.714 644.844 633.171 629.526 633.358 615.625C633.472 609.364 633.712 603.106 634.078 596.855C634.94 582.077 636.331 577.665 646.759 566.294C652.542 559.988 658.479 555.148 665.14 549.779C668.752 546.867 677.151 542.159 679.56 538.985C679.04 537.147 679.563 537.79 678.16 536.828C677.522 536.817 676.447 536.826 675.899 537.15C657.896 547.782 638.763 564.405 630.537 583.488C621.496 586.734 609.175 592.305 600.078 596.084L535.529 623.053C523.246 628.179 509.759 634.071 497.336 638.617C532.598 590.829 565.582 541.401 596.18 490.499C606.622 489.681 617.08 489.088 627.548 488.72Z"/><path fill="#797179" transform="scale(0.390625 0.390625)" d="M211.916 41.1971C237.638 38.6749 240.685 71.1033 228.549 86.0847C215.18 101.934 192.24 109.555 172.717 114.804C168.147 116.033 156.73 115.229 154.252 117.53L154.73 118.383C161.708 121.812 173.079 119.425 180.212 117.145C185.65 128.041 187.29 128.912 177.129 136.057L178.807 142.901L174.031 147.748C173.089 153.908 172.936 154.57 167.027 156.579C167.081 161.076 168.923 178.591 167.328 180.959C164.613 180.309 162.648 172.692 161.756 170.022C145.123 120.205 102.568 169.519 135.554 197.914L140.182 200.826C139.465 201.922 138.691 202.979 137.861 203.992C128.397 215.486 117.897 220.792 103.21 222.164C101.138 196.228 85.8881 186.368 71.9183 167.238C58.32 148.616 57.3351 120.954 71.7209 102.709C75.0986 98.4258 73.1253 101.995 76.2589 99.9085C76.9191 98.5783 76.4418 96.9897 76.2167 95.4174C76.4533 95.179 76.8936 94.7195 77.1431 94.5515C80.7356 92.1325 83.9187 84.0478 86.9868 80.1825C111.285 49.5715 139.496 59.7577 171.914 52.6728C185.484 49.7072 198.057 42.7472 211.916 41.1971Z"/><path fill="white" transform="scale(0.390625 0.390625)" d="M371.168 139.265C390.852 151.239 410.787 165.109 430.129 177.847L430.797 178.235L431.625 178.138C433.736 179.426 433.551 178.899 434.585 180.787C434.601 182.198 434.666 182.121 433.956 183.325C436.88 182.377 439.57 182.494 441.65 185.021L441.886 186.938C443.894 188.101 443.569 187.503 444.175 189.248C443.737 191.277 442.914 192.655 441.993 194.498L435.703 193.53C434.778 195.805 432.173 201.392 432.203 203.405C434.655 204.979 435.193 203.018 436.428 204.712C428.386 226.515 414.021 248.583 404.777 270.165C402.348 275.835 398.425 282.041 396.504 287.817L395.843 289.2C394.003 291.931 388.59 303.284 386.876 306.707C380.691 319.288 374.367 331.798 367.905 344.238C347.459 330.877 329.438 318.169 308.419 305.093C310.412 298.935 312.021 294.396 313.232 287.992C312.128 284.288 310.013 280.582 308.205 277.124C312.802 267.95 323.848 254.407 325.492 246.286L326.019 244.42C327.408 241.612 329.223 236.996 330.377 233.969C342.647 201.758 357.26 170.727 371.168 139.265Z"/><path fill="white" transform="scale(0.390625 0.390625)" d="M325.492 246.286L326.019 244.42C331.317 244.042 334.182 248.49 338.916 250.455L340.156 251.233C341.15 252.298 342.061 253.361 343.628 253.608L345.025 255.128L350.975 258.525C357.985 263.212 365.123 267.703 372.383 271.993C378.005 275.364 392.588 283.674 396.504 287.817L395.843 289.2C394.003 291.931 388.59 303.284 386.876 306.707C380.691 319.288 374.367 331.798 367.905 344.238C347.459 330.877 329.438 318.169 308.419 305.093C310.412 298.935 312.021 294.396 313.232 287.992C312.128 284.288 310.013 280.582 308.205 277.124C312.802 267.95 323.848 254.407 325.492 246.286Z"/><path fill="#5D1726" transform="scale(0.390625 0.390625)" d="M325.492 246.286L326.019 244.42C331.317 244.042 334.182 248.49 338.916 250.455L340.156 251.233C341.15 252.298 342.061 253.361 343.628 253.608L345.025 255.128L350.975 258.525C357.985 263.212 365.123 267.703 372.383 271.993C378.005 275.364 392.588 283.674 396.504 287.817L395.843 289.2C387.655 285.955 377.77 279.332 370.157 274.678C355.231 265.554 340.509 255.177 325.492 246.286Z"/><path fill="#5D1726" transform="scale(0.390625 0.390625)" d="M356.062 320.104C351.333 317.76 346.176 313.695 341.432 311.103C339.525 310.061 336.827 307.731 338.484 305.44C343.667 304.404 347.18 310.546 349.33 313.887C350.236 314.354 350.811 314.763 351.788 314.947C351.07 314.065 350.878 313.746 350.264 312.792L350.778 312.521C353.868 313.329 354.747 315.795 357.251 317.658L357.314 318.869L356.062 320.104Z"/><path fill="#5E1A20" transform="scale(0.390625 0.390625)" d="M353.879 286.85C361.268 291.215 361.918 290.442 365.948 297.268L368.683 296.776L368.971 297.395L367.181 300.136C365.29 299.34 355.795 293.395 355.12 291.767L356.298 289.648L356.04 288.997C353.472 288.232 355.471 289.243 353.543 289.781C353.188 288.728 353.574 288.146 353.879 286.85Z"/><path fill="#5D1726" transform="scale(0.390625 0.390625)" d="M361.953 305.377C365.359 307.781 370.51 310.188 373.232 313.144C374.122 314.111 373.28 315.605 372.84 316.931C369.821 315.26 362.118 311.484 360.804 309.193C360.698 307.144 360.913 307.499 361.953 305.377Z"/><path fill="#632E31" transform="scale(0.390625 0.390625)" d="M320.213 277.635C321.118 277.859 321.319 278.01 322.173 278.401C322.902 280.125 322.485 279.993 321.771 282.347L322.326 282.96L323.787 281.293L324.78 281.345C326.295 282.255 327.309 282.661 328.234 284.161L327.751 285.882L328.155 286.15L329.7 285.445C331.387 285.482 332.077 286.389 333.402 287.52C333.157 288.407 332.272 288.743 331.308 289.44C328.537 289.253 320.2 283.52 318.169 281.283C318.242 279.711 319.186 278.909 320.213 277.635Z"/><path fill="#6C2834" transform="scale(0.390625 0.390625)" d="M330.964 275.701L332.633 273.959C334.834 273.955 336.946 274.83 338.5 276.388C339.782 277.693 341.797 280.632 340.904 282.528C338.485 282.942 332.624 277.879 330.32 276.178L330.964 275.701Z"/><path fill="#5D1726" transform="scale(0.390625 0.390625)" d="M357.314 318.869L357.477 319.625L358.763 318.234C361.38 319.248 365.97 322.354 368.136 324.179L368.384 324.887C367.18 326.602 367.952 326.092 366.134 326.669C362.758 325.948 358.873 322.328 356.062 320.104L357.314 318.869Z"/><path fill="#5D1726" transform="scale(0.390625 0.390625)" d="M370.588 297.185C375.273 299.612 380.78 301.1 378.006 307.242C375.562 305.403 372.167 303.703 370.338 301.45C369.39 300.283 370.215 298.572 370.588 297.185Z"/><path fill="#6C2834" transform="scale(0.390625 0.390625)" d="M322.449 298.145C320.075 296.377 313.989 292.645 314.161 289.549C317.411 289.057 322.17 293.189 325.155 295.215C324.008 296.259 323.272 296.806 322.449 298.145Z"/><path fill="#5E1A20" transform="scale(0.390625 0.390625)" d="M376.302 291.942C375.511 291.96 375.828 292.04 375.074 291.679C374.445 291.378 374.134 290.987 374.02 290.253C373.818 288.965 374.259 288.505 374.989 287.576C376.781 287.27 376.183 287.341 378.177 288.476C381.399 290.288 382.432 290.9 385.276 293.253C382.955 293.92 381.269 294.706 378.995 294.139C377.748 293.26 377.4 292.993 376.302 291.942Z"/><path fill="#5D1726" transform="scale(0.390625 0.390625)" d="M326.994 296.883C328.837 297.785 329.461 297.652 330.134 299.091L328.934 300.278L329.397 301.201C332.344 301.988 331.789 298.678 335.363 302.063C335.247 303.852 335.278 303.925 334.709 305.722C332.151 305.853 326.67 301.391 324.494 299.747C325.353 298.935 326.221 297.808 326.994 296.883Z"/><path fill="#632E31" transform="scale(0.390625 0.390625)" d="M358.343 280.869C355.467 277.394 353.86 279.191 351.235 276.316C351.538 274.618 352.361 273.317 354.041 272.901C356.395 273.594 358.391 275.656 360.338 277.31L358.343 280.869Z"/><path fill="#632E31" transform="scale(0.390625 0.390625)" d="M342.335 265.897C344.462 267.172 348.945 269.502 350.132 271.318C349.495 272.587 349.306 273.38 348.914 274.719L348.271 274.868C347.127 273.667 346.267 273.509 344.791 272.108C344.463 270.324 344.513 270.428 343.558 268.891C342.8 269.392 342.22 269.723 341.424 270.163C341.134 268.466 341.705 267.705 342.335 265.897Z"/><path fill="#632E31" transform="scale(0.390625 0.390625)" d="M330.32 276.178C327.801 274.525 323.672 272.848 323.77 269.701C326.665 268.073 329.796 270.195 331.482 272.806C331.836 273.353 331.169 274.974 330.964 275.701L330.32 276.178Z"/><path fill="#632E31" transform="scale(0.390625 0.390625)" d="M361.814 278.52C364.993 279.881 365.587 281.4 367.952 282.976L367.289 286.054C365.125 284.806 361.563 282.837 359.931 281.1C360.444 280.573 361.348 279.186 361.814 278.52Z"/><path fill="#632E31" transform="scale(0.390625 0.390625)" d="M347.643 301.131L347.234 300.869C345.089 299.473 344.426 299.2 343.94 296.881L344.549 295.948C347.506 294.982 348.646 296.493 350.881 298.272L347.643 301.131Z"/><path fill="#6C2834" transform="scale(0.390625 0.390625)" d="M328.778 256.907C330.499 257.492 330.933 257.534 332.324 258.767C332.755 260.947 332.203 261.418 331.449 263.723C329.111 262.565 328.425 262.55 327.335 260.379C327.614 258.411 327.59 258.517 328.778 256.907Z"/><path fill="#632E31" transform="scale(0.390625 0.390625)" d="M347.177 282.73C349.027 283.204 351.964 284.48 352.398 286.466C352.623 287.496 351.71 288.526 351.171 289.496L350.692 289.731C348.228 288.432 346.632 285.458 347.177 282.73Z"/><path fill="#5D1726" transform="scale(0.390625 0.390625)" d="M367.952 282.976L368.812 282.282C371.082 283.169 372.488 284.896 372.15 287.418C370.594 288.825 368.801 287.195 367.289 286.054L367.952 282.976Z"/><path fill="#EFEDE5" transform="scale(0.390625 0.390625)" d="M350.881 298.272C353.084 299.365 352.56 298.719 353.547 300.629C352.739 303.962 349.634 302.221 347.643 301.131L350.881 298.272Z"/><path fill="white" transform="scale(0.390625 0.390625)" d="M371.168 139.265C390.852 151.239 410.787 165.109 430.129 177.847L430.797 178.235L431.625 178.138C433.736 179.426 433.551 178.899 434.585 180.787C434.601 182.198 434.666 182.121 433.956 183.325C432.278 183.854 430.591 183.091 428.624 182.618L428.17 182.189C425.399 181.796 423.965 181.519 421.136 181.622L418.697 182.395C418.723 183.706 418.574 183.838 417.927 184.961C418.659 186.815 424.004 188.413 422.549 189.588C413.129 197.201 397.181 199.189 385.806 200.566C374.581 212.463 364.97 219.512 353.639 230.641L351.988 231.663C351.715 233.026 351.784 234.034 351.519 235.107L351.561 235.463L352.884 236.873L353.077 239.174C352.894 241.715 352.788 243.698 352.324 246.22C351.26 250.532 348.393 255.022 352.152 257.897L350.975 258.525L345.025 255.128L343.628 253.608C342.061 253.361 341.15 252.298 340.156 251.233L338.916 250.455C334.182 248.49 331.317 244.042 326.019 244.42C327.408 241.612 329.223 236.996 330.377 233.969C342.647 201.758 357.26 170.727 371.168 139.265Z"/><path fill="#5D1726" transform="scale(0.390625 0.390625)" d="M411.462 177.225L413.241 177.807C413.658 179.149 413.56 178.624 413.412 180.091C414.475 180.889 413.917 180.798 415.059 180.659C415.203 178.471 414.759 179.269 415.909 177.921C417.478 177.364 417.594 176.994 418.831 177.41L418.721 179.532C420.082 180.289 419.879 180.017 421.667 179.94C421.543 180.304 421.17 181.29 421.136 181.622L418.697 182.395C418.723 183.706 418.574 183.838 417.927 184.961C418.659 186.815 424.004 188.413 422.549 189.588C413.129 197.201 397.181 199.189 385.806 200.566C374.581 212.463 364.97 219.512 353.639 230.641L351.988 231.663C351.715 233.026 351.784 234.034 351.519 235.107L351.561 235.463L352.884 236.873L353.077 239.174C352.894 241.715 352.788 243.698 352.324 246.22C351.26 250.532 348.393 255.022 352.152 257.897L350.975 258.525L345.025 255.128L343.628 253.608C342.061 253.361 341.15 252.298 340.156 251.233L338.916 250.455C338.942 246.67 339.627 242.112 340.411 238.406C349.017 228.705 362.422 217.824 371.76 207.335L373.375 205.903C374.854 205.646 377.348 202.424 378.474 201.16C379.826 200.14 380.383 199.691 381.601 198.53C386.105 194.924 387.325 192.344 389.588 187.197C392.085 185.4 391.148 184.594 392.611 181.603L393.274 181.504L393.8 181.993C393.455 183.954 393.134 185.273 393.181 187.252L394.953 186.395C395.877 184.945 395.307 184.403 394.9 182.089L397.166 182.533C397.553 183.109 397.359 182.742 397.6 183.812L397.801 184.744C403.856 184.78 407.107 180.554 411.089 177.506L411.462 177.225Z"/><path fill="#F6EDC8" transform="scale(0.390625 0.390625)" d="M348.98 233.492L350.525 233.256C350.86 233.902 351.158 234.473 351.519 235.107L351.561 235.463L352.884 236.873L353.077 239.174C352.894 241.715 352.788 243.698 352.324 246.22C351.26 250.532 348.393 255.022 352.152 257.897L350.975 258.525L345.025 255.128L343.628 253.608C342.061 253.361 341.15 252.298 340.156 251.233C342.055 243.748 343.134 238.94 348.98 233.492Z"/><path fill="#F6EDC8" transform="scale(0.390625 0.390625)" d="M351.561 235.463L352.884 236.873L353.077 239.174C352.894 241.715 352.788 243.698 352.324 246.22C351.26 250.532 348.393 255.022 352.152 257.897L350.975 258.525L345.025 255.128C348.055 250.991 350.216 240.72 351.561 235.463Z"/><path fill="#732A24" transform="scale(0.390625 0.390625)" d="M348.98 233.492L350.525 233.256C350.86 233.902 351.158 234.473 351.519 235.107L351.561 235.463C350.216 240.72 348.055 250.991 345.025 255.128L343.628 253.608C345.337 249.192 348.641 237.997 348.98 233.492Z"/><path fill="white" transform="scale(0.390625 0.390625)" d="M416.654 182.759L417.898 189.522C407.649 195.404 404.295 196.678 392.455 197.298L392.184 196.645L391.443 195.601L389.895 196.022L389.454 195.537C390.208 193.328 392.135 191.014 394.3 190.086L396.577 189.554C398.627 186.956 412.474 183.343 416.654 182.759Z"/><path fill="#732A24" transform="scale(0.390625 0.390625)" d="M394.3 190.086L396.577 189.554C395.678 193.525 395.414 194.205 392.184 196.645L391.443 195.601L389.895 196.022L389.454 195.537C390.208 193.328 392.135 191.014 394.3 190.086Z"/><path fill="#F9E8BB" transform="scale(0.390625 0.390625)" d="M394.3 190.086C394.151 192.792 393.382 193.666 391.443 195.601L389.895 196.022L389.454 195.537C390.208 193.328 392.135 191.014 394.3 190.086Z"/><defs><linearGradient id="gradient_0" gradientUnits="userSpaceOnUse" x1="364.62906" y1="199.40598" x2="372.4487" y2="183.45534"><stop offset="0" stop-color="#F1F3DA"/><stop offset="1" stop-color="white"/></linearGradient></defs><path fill="url(#gradient_0)" transform="scale(0.390625 0.390625)" d="M373.697 191.904L373.292 191.393C368.527 185.496 364.096 186.196 360.165 182.472L360.264 181.899C362.875 181.157 369.127 181.729 371.986 182.054C379.383 187.301 379.232 192.773 378.474 201.16C377.348 202.424 374.854 205.646 373.375 205.903L371.76 207.335C371.457 205.233 370.797 203.6 370.11 201.598C369.95 198.376 369.975 197.647 370.385 194.45C370.976 195.547 370.573 195.063 371.903 195.665L372.504 195.424C373.848 193.751 373.436 194.356 373.697 191.904Z"/><path fill="#732A24" transform="scale(0.390625 0.390625)" d="M370.385 194.45C370.976 195.547 370.573 195.063 371.903 195.665L372.504 195.424C373.848 193.751 373.436 194.356 373.697 191.904C375.595 195.021 375.597 195.959 375.431 199.639C373.987 200.209 371.524 201.284 370.11 201.598C369.95 198.376 369.975 197.647 370.385 194.45Z"/><path fill="#5E1A20" transform="scale(0.390625 0.390625)" d="M375.431 199.639L373.375 205.903L371.76 207.335C371.457 205.233 370.797 203.6 370.11 201.598C371.524 201.284 373.987 200.209 375.431 199.639Z"/><path fill="#5E1A20" transform="scale(0.390625 0.390625)" d="M361.362 178.074L369.469 179.047C370.972 179.435 371.556 179.915 372.593 179.388C381.16 181.811 381.154 191.265 381.601 198.53C380.383 199.691 379.826 200.14 378.474 201.16C379.232 192.773 379.383 187.301 371.986 182.054C369.127 181.729 362.875 181.157 360.264 181.899L360.165 182.472C364.096 186.196 368.527 185.496 373.292 191.393L373.697 191.904C373.436 194.356 373.848 193.751 372.504 195.424L371.903 195.665C370.573 195.063 370.976 195.547 370.385 194.45C368.084 182.656 358.827 186.626 351.111 188.036L350.478 187.568C351.785 183.579 355.218 184.798 357.417 181.587C358.991 179.288 358.586 179.213 361.362 178.074Z"/><path fill="#5D1726" transform="scale(0.390625 0.390625)" d="M388.572 165.249L391.087 164.417C392.237 166.028 394.223 179.044 394.9 182.089C395.307 184.403 395.877 184.945 394.953 186.395L393.181 187.252C393.134 185.273 393.455 183.954 393.8 181.993L393.274 181.504L392.611 181.603C391.148 184.594 392.085 185.4 389.588 187.197L389.355 186.633C386.42 183.341 385.569 170.092 385.243 165.506C386.51 164.586 386.673 164.643 388.131 164.076L388.572 165.249Z"/><path fill="#F6EDC8" transform="scale(0.390625 0.390625)" d="M388.572 165.249L391.087 164.417C392.237 166.028 394.223 179.044 394.9 182.089C395.307 184.403 395.877 184.945 394.953 186.395L393.181 187.252C393.134 185.273 393.455 183.954 393.8 181.993L393.274 181.504L392.611 181.603C391.148 184.594 392.085 185.4 389.588 187.197L389.355 186.633C390.687 184.11 391.61 179.283 391.211 176.495C390.245 177.982 390.709 177.85 389.462 178.47C388.962 175.823 389.911 172.378 389.723 169.778C389.7 169.458 388.752 166.047 388.572 165.249Z"/><path fill="#632E31" transform="scale(0.390625 0.390625)" d="M411.462 177.225C414.252 175.775 417.324 173.902 420.46 174.026C422.821 175.288 422.398 176.03 422.423 178.665C424.819 179.161 427.14 177.844 430.129 177.847L430.797 178.235L431.625 178.138C433.736 179.426 433.551 178.899 434.585 180.787C434.601 182.198 434.666 182.121 433.956 183.325C432.278 183.854 430.591 183.091 428.624 182.618L428.17 182.189C425.399 181.796 423.965 181.519 421.136 181.622C421.17 181.29 421.543 180.304 421.667 179.94C419.879 180.017 420.082 180.289 418.721 179.532L418.831 177.41C417.594 176.994 417.478 177.364 415.909 177.921C414.759 179.269 415.203 178.471 415.059 180.659C413.917 180.798 414.475 180.889 413.412 180.091C413.56 178.624 413.658 179.149 413.241 177.807L411.462 177.225Z"/><path fill="#5D1726" transform="scale(0.390625 0.390625)" d="M359.185 177.065C360.561 169.124 368.275 170.997 372.072 175.904C373.003 177.108 372.585 177.899 372.593 179.388C371.556 179.915 370.972 179.435 369.469 179.047L361.362 178.074L359.185 177.065Z"/><path fill="#EFEDE5" transform="scale(0.390625 0.390625)" d="M359.185 177.065C362.685 176.642 366.648 176.487 369.469 179.047L361.362 178.074L359.185 177.065Z"/><path fill="#732A24" transform="scale(0.390625 0.390625)" d="M389.129 156.146C390.304 156.503 391.624 156.839 392.046 158.261C393.589 163.452 394.24 177.806 397.166 182.533L394.9 182.089C394.223 179.044 392.237 166.028 391.087 164.417L388.572 165.249L388.131 164.076C386.782 161.819 387.835 159.35 387.804 156.808L387.786 155.915L389.129 156.146Z"/><path fill="#F9E8BB" transform="scale(0.390625 0.390625)" d="M387.786 155.915L389.129 156.146C389.339 158.858 388.913 158.339 390.266 160.285L390.274 159.671C391.233 161.937 391.07 163.318 388.131 164.076C386.782 161.819 387.835 159.35 387.804 156.808L387.786 155.915Z"/><path fill="#632E31" transform="scale(0.390625 0.390625)" d="M385.243 165.506C385.005 163.425 384.897 158.486 385.948 156.71C386.368 155.998 386.687 156.184 387.786 155.915L387.804 156.808C387.835 159.35 386.782 161.819 388.131 164.076C386.673 164.643 386.51 164.586 385.243 165.506Z"/><path fill="#732A24" transform="scale(0.390625 0.390625)" d="M344.924 203.282C348.417 204.637 351.496 207.591 352.476 211.359C352.845 212.781 351.69 213.68 350.85 214.716C343.053 215.579 343.624 208.342 344.924 203.282Z"/><path fill="#5E1A20" transform="scale(0.390625 0.390625)" d="M374.926 222.534C377.754 223.027 380.267 223.517 383.142 223.719L384.429 224.64L385.051 224.288C386.615 224.005 387.254 224.463 388.726 225.09C383.771 234.208 388.647 254.996 390.247 266.148C393.828 267.775 399.386 271.304 400.212 275.405L399.387 275.781C393.431 272.71 396.543 270.609 388.045 268.006L386.693 268.946C385.565 271.586 388.516 275.175 386.676 277.138C383.098 275.831 382.609 272.228 381.63 268.948L380.892 268.569C380.822 267.069 378.542 264.116 377.607 262.699L376.94 265.043C376.142 261.658 374.293 257.365 372.775 254.238C372.817 252.473 372.906 252.535 372.233 250.936C371.396 247.31 370.899 225.935 372.266 223.258L373.487 222.966L374.926 222.534Z"/><path fill="#F9E8BB" transform="scale(0.390625 0.390625)" d="M372.233 250.936C371.396 247.31 370.899 225.935 372.266 223.258L373.487 222.966L374.466 223.287L374.806 226.014C374.687 227.305 374.529 226.701 375.115 227.883L375.012 228.292C376.616 230.653 376.894 232.024 377.117 234.918C377.232 242.508 378.02 248.678 379.354 256.104C379.932 259.317 381.429 265.97 381.63 268.948L380.892 268.569C380.822 267.069 378.542 264.116 377.607 262.699L376.94 265.043C376.142 261.658 374.293 257.365 372.775 254.238C372.817 252.473 372.906 252.535 372.233 250.936Z"/><defs><linearGradient id="gradient_1" gradientUnits="userSpaceOnUse" x1="372.23444" y1="243.4691" x2="377.25864" y2="243.53763"><stop offset="0" stop-color="#5E0C1A"/><stop offset="1" stop-color="#7E422D"/></linearGradient></defs><path fill="url(#gradient_1)" transform="scale(0.390625 0.390625)" d="M372.233 250.936C371.396 247.31 370.899 225.935 372.266 223.258L373.487 222.966L374.466 223.287L374.806 226.014C374.687 227.305 374.529 226.701 375.115 227.883L375.012 228.292C372.323 236.085 375.417 254.636 377.607 262.699L376.94 265.043C376.142 261.658 374.293 257.365 372.775 254.238C372.817 252.473 372.906 252.535 372.233 250.936Z"/><path fill="#F9E8BB" transform="scale(0.390625 0.390625)" d="M381.336 229.761L382.854 229.298C383.063 229.54 383.563 230.076 383.692 230.327C383.18 239.314 384.482 245.473 386.004 254.285C386.551 257.452 387.721 263.519 387.506 266.499C386.468 266.616 385.533 266.683 384.49 266.75C382.231 263.475 379.453 240.865 379.139 235.971C379.814 233.465 380.098 232.098 381.336 229.761Z"/><path fill="#F6EDC8" transform="scale(0.390625 0.390625)" d="M374.926 222.534C377.754 223.027 380.267 223.517 383.142 223.719L384.429 224.64L385.051 224.288L385.631 225.279C384.992 226.882 384.213 228.713 383.692 230.327C383.563 230.076 383.063 229.54 382.854 229.298L381.336 229.761C380.098 232.098 379.814 233.465 379.139 235.971C379.024 236.723 378.898 237.464 378.762 238.212C378.517 237.262 378.321 236.333 378.111 235.377L377.117 234.918C376.894 232.024 376.616 230.653 375.012 228.292L375.115 227.883C374.529 226.701 374.687 227.305 374.806 226.014L374.466 223.287L373.487 222.966L374.926 222.534Z"/><path fill="#732A24" transform="scale(0.390625 0.390625)" d="M374.926 222.534C377.754 223.027 380.267 223.517 383.142 223.719L384.429 224.64C380.372 227.299 379.55 228.137 374.806 226.014L374.466 223.287L373.487 222.966L374.926 222.534Z"/><path fill="#F6EDC8" transform="scale(0.390625 0.390625)" d="M374.926 222.534C377.754 223.027 380.267 223.517 383.142 223.719C382.357 224.294 381.831 224.572 380.989 225.061C378.837 225.199 376.57 224.079 374.466 223.287L373.487 222.966L374.926 222.534Z"/><path fill="#732A24" transform="scale(0.390625 0.390625)" d="M375.115 227.883C377.845 229.964 377.296 229.566 381.336 229.761C380.098 232.098 379.814 233.465 379.139 235.971C379.024 236.723 378.898 237.464 378.762 238.212C378.517 237.262 378.321 236.333 378.111 235.377L377.117 234.918C376.894 232.024 376.616 230.653 375.012 228.292L375.115 227.883Z"/><path fill="#732A24" transform="scale(0.390625 0.390625)" d="M352.324 246.22C352.794 247.798 353.319 250.195 354.302 251.401C354.547 251.726 356.802 255.853 357.512 256.943C362.005 251.665 364.933 248.765 372.233 250.936C372.906 252.535 372.817 252.473 372.775 254.238C374.293 257.365 376.142 261.658 376.94 265.043L377.607 262.699C378.542 264.116 380.822 267.069 380.892 268.569C374.624 266.851 369.427 267.057 366.968 260.25C365.77 256.937 364.818 255.438 361.095 255.853L360.679 256.398C362.386 257.477 364.278 258.299 364.981 259.935C363.999 261.037 362.455 261.513 361.018 261.601C356.98 261.846 355.845 257.385 353.237 254.756L352.603 254.995L352.152 257.897C348.393 255.022 351.26 250.532 352.324 246.22Z"/><path fill="white" transform="scale(0.390625 0.390625)" d="M371.652 263.562C369.315 260.965 368.471 259.372 367.094 256.187C366.491 254.791 364.25 254.516 362.835 254.093L362.571 253.507C364.314 252.706 368.321 252.744 370.401 252.561C370.401 252.561 372.532 254.066 372.775 254.238C374.293 257.365 376.142 261.658 376.94 265.043C375.156 264.66 373.406 264.085 371.652 263.562Z"/><path fill="#5E1A20" transform="scale(0.390625 0.390625)" d="M353.639 230.641L354.722 231.42L356.276 231.863C357.155 232.628 357.987 233.004 357.927 234.147C357.617 239.981 355.031 245.391 354.302 251.401C353.319 250.195 352.794 247.798 352.324 246.22C352.788 243.698 352.894 241.715 353.077 239.174L352.884 236.873L351.561 235.463L351.519 235.107C351.784 234.034 351.715 233.026 351.988 231.663L353.639 230.641Z"/><path fill="#4E2912" transform="scale(0.390625 0.390625)" d="M353.639 230.641L354.722 231.42L356.276 231.863C354.602 234.176 356.006 234.374 355.114 237.211C354.354 237.98 353.889 238.467 353.077 239.174L352.884 236.873L351.561 235.463L351.519 235.107C351.784 234.034 351.715 233.026 351.988 231.663L353.639 230.641Z"/><path fill="#F9E8BB" transform="scale(0.390625 0.390625)" d="M353.639 230.641L354.722 231.42C353.05 233.23 353.126 234.315 352.884 236.873L351.561 235.463L351.519 235.107C351.784 234.034 351.715 233.026 351.988 231.663L353.639 230.641Z"/><path fill="#5D1726" transform="scale(0.390625 0.390625)" d="M433.956 183.325C436.88 182.377 439.57 182.494 441.65 185.021L441.886 186.938C437.042 188.101 432.961 186.157 428.04 186.059C426.301 186.025 423.34 186.562 421.557 186.861C424.106 184.541 425.327 183.574 428.624 182.618C430.591 183.091 432.278 183.854 433.956 183.325Z"/><path fill="#5D1726" transform="scale(0.390625 0.390625)" d="M374.926 222.534C377.764 220.491 385.2 217.54 388.338 220.3C389.301 222.192 389.041 222.89 388.726 225.09C387.254 224.463 386.615 224.005 385.051 224.288L384.429 224.64L383.142 223.719C380.267 223.517 377.754 223.027 374.926 222.534Z"/><path fill="#CDB5AD" transform="scale(0.390625 0.390625)" d="M227.846 93.9465C231.716 97.8171 239.546 125.556 240.237 131.824C241.018 138.909 242.048 147.915 243.674 154.972C245.597 163.318 254.216 166.906 261.532 170.847C257.004 176.072 252.258 177.583 246.394 180.935C245.993 194.086 249.26 204.789 244.759 218.249C242.093 226.223 239.886 234.088 231.625 238.313C216.057 246.244 196.934 243.224 181.322 237.009C178.037 235.701 170.712 230.258 167.761 232.125L167.77 232.766C171.181 237.136 175.108 238.732 180.016 241.141C177.184 249.785 172.709 256.37 171.055 265.504C147.91 266.745 130.416 259.435 112.341 244.938C108.469 241.754 98.435 231.651 101.603 226.349C104.209 224.661 106.863 226.513 110.308 225.788C123.875 222.933 136.027 214.264 143.272 202.13C147.02 202.992 157.343 201.553 154.315 196.642C151.542 195.966 147.151 198.948 143.31 197.535C132.073 193.267 125.266 177.259 128.58 165.907C130.37 159.771 136.994 150.362 144.303 153.226C154.437 157.197 158.089 172.479 161.989 181.361C162.491 182.503 164.027 183.765 165.339 183.884C173.973 183.9 172.048 175.403 171.471 169.973C171.023 165.758 170.898 162.948 170.901 159.467C177.052 156.243 175.407 155.814 177.569 149.893C178.287 147.926 180.924 146.229 181.47 144.017C181.929 142.852 181.152 137.725 181.842 137.096C190.015 129.639 190.15 128.542 183.322 116.422C198.117 111.903 216.01 103.691 227.846 93.9465Z"/><path fill="#510924" transform="scale(0.390625 0.390625)" d="M141.085 161.501C141.612 161.473 142.141 161.454 142.669 161.444C148.683 161.352 153.512 167.758 153.508 173.456C153.505 177.514 149.435 180.1 146.596 182.54C148.329 184.586 150.507 186.546 150.371 189.209L149.577 189.803C144.038 189.189 141.816 182.377 145.629 177.527C147.079 176.318 148.485 175.586 148.942 173.416C150.317 166.877 143.817 163.317 138.933 167.468C136.185 169.803 137.751 175.9 137.648 179.652L137.001 180.211C132.511 178.654 132.612 173.759 133.795 169.815C135.045 165.647 137.23 163.437 141.085 161.501Z"/><path fill="#510924" transform="scale(0.390625 0.390625)" d="M224.918 146.008C230.058 147.853 231.626 157.84 231.935 162.82C232.112 165.655 231.722 166.597 229.836 168.626C222.285 165.583 219.59 151.32 224.918 146.008Z"/><path fill="#510924" transform="scale(0.390625 0.390625)" d="M227.976 121.496C229.593 122.409 228.967 121.787 229.86 123.486C228.86 126.765 223.311 127.838 219.719 130.456C214.834 134.016 211.329 137.457 206.806 141.311C206.123 141.148 205.707 140.914 205.057 140.629L204.634 139.501C206.168 133.345 221.78 123.263 227.976 121.496Z"/><path fill="#510924" transform="scale(0.390625 0.390625)" d="M220.15 196.644C223.133 197.21 227.934 201.35 231.251 202.037C234.945 202.801 238.593 202.062 242.669 202.662L243.08 203.256L242.206 205.08C236.325 207.021 225.092 205.443 220.715 200.599C219.561 199.32 219.985 198.178 220.15 196.644Z"/><path fill="white" transform="scale(0.390625 0.390625)" d="M307.721 308.815C318.501 317.087 333.581 326.367 345.155 334.286C367.25 349.402 389.069 363.915 412.244 377.302C409.212 381.912 405.226 386.878 401.608 391.104C392.563 401.669 393.719 413.639 393.52 426.995C390.315 428.817 389.293 429.662 387.107 432.622C377.694 424.551 375.144 429.732 366.55 436.074C364.584 437.525 362.572 439.086 360.615 440.555C356.138 438.811 352.842 441.04 348.754 442.931C331.064 452.34 318.404 463.313 301.961 474.12C296.095 466.562 286.801 452.694 282.201 444.666C288.587 427.381 294.308 403.211 296.226 384.877C295.536 383.041 294.687 381.527 293.782 379.802C296.042 375.124 297.879 369.843 299.914 365.019C302.25 359.482 304.774 353.989 306.806 348.342C302.817 343.543 299.684 340.752 294.686 337.147C295.335 333.664 296.064 330.197 296.872 326.747C305.552 320.725 305.499 319.296 307.721 308.815Z"/><path fill="white" transform="scale(0.390625 0.390625)" d="M361.616 116.017C367.789 118.918 381.278 128.469 387.262 132.395C407.326 145.559 427.416 159.289 446.633 173.662C448.292 175.254 452.649 177.026 453.776 178.803C456.62 183.289 463.297 183.493 468.634 185.848C487.685 194.254 505.306 206.026 522.156 218.205C512.831 233.386 504.313 251.622 495.956 267.529L450.666 353.276C445.268 363.598 440.146 374.124 434.792 384.466C433.854 386.279 433.709 386.479 432.287 386.837C429.495 382.393 440.232 360.705 439.149 353.288C438.697 350.197 441.046 341.194 435.215 339.037C427.206 336.075 421.456 356.945 419.509 362.309C409.53 355.588 398.836 349.487 388.698 342.765C395.604 328.551 402.253 313.962 409.43 299.931C411.401 301.567 419.823 307.095 422.174 308.577C431.607 314.521 444.629 324.463 454.68 328.435C459.694 317.69 465.354 308.071 470.707 297.599L508.573 223.137C501.122 216.417 469.321 194.929 459.996 191.219C456.904 196.843 453.186 205.17 450.324 211.14C445.009 221.964 438.924 232.812 433.453 243.606C416.607 276.914 400.139 310.412 384.052 344.093C389.688 348.616 410.765 361.043 417.997 365.514C416.852 368.081 415.693 370.642 414.522 373.197C399.526 364.06 385.971 356.189 371.494 346.184C386.739 313.716 403.964 281.664 419.013 248.961C428.532 228.272 439.983 208.394 448.935 187.237C444.472 182.235 377.951 138.297 369.623 134.684C368.458 136.853 367.55 138.999 366.503 141.214C353.747 168.209 342.284 195.717 330.384 223.091C328.551 227.308 326.623 232.12 324.273 236.031L323.518 235.955C322.316 235.068 319.64 233.16 318.309 233.222C313.388 233.449 306.962 246.534 303.218 249.264C303.251 248.696 310.747 234.775 311.726 232.374C321.313 208.867 331.626 185.676 341.504 162.289C347.966 146.99 353.744 130.621 361.616 116.017Z"/><path fill="#DE857D" transform="scale(0.390625 0.390625)" d="M461.73 195.732C474.425 203.737 492.632 214.644 504.042 223.977C499.933 232.226 497.033 237.433 492.111 245.099L491.183 246.971C491.148 248.801 491.514 248.118 490.464 249.267C486.405 249.755 483.239 245.803 478.63 252.06L479.368 253.128L480.465 252.373L480.777 252.556C482.265 252.652 483.516 252.791 485.006 252.635L485.668 252.566C485.641 252.812 480.292 261.944 479.594 263.46C479.716 264.091 479.725 263.711 479.223 264.537C475.512 264.693 470.475 263.965 469.142 259.991L468.055 259L466.803 259.832L466.79 260.921C468.501 263.273 468.931 263.669 471.177 265.536L471.785 267.367C474.272 265.967 474.39 266.126 476.709 267.849L476.912 268.722L476.086 268.999L474.141 270.025L474.229 270.442L474.822 270.544C476.397 270.828 477.131 270.791 478.29 271.875C480.254 276.276 476.19 278.847 474.264 282.047C471.582 285.811 469.891 293.237 465.713 299.449C464.799 301.321 464.229 303.203 462.429 304.083C460.838 304.235 460.063 303.822 458.559 303.303L462.122 305.867L452.799 324.519C446.04 320.192 427.605 309.007 422.011 304.353L421.608 303.55C419.601 302.994 419.642 302.962 417.862 301.819L410.657 297.249C414.902 289.901 419.629 279.016 423.643 271.113L450.263 219.29C454.215 211.457 457.609 203.575 461.73 195.732Z"/><path fill="#632E31" transform="scale(0.390625 0.390625)" d="M458.663 260.015C459.592 260.917 460.964 262.173 461.808 263.09C463.12 264.678 463.384 264.938 465.462 265.614C466.51 263.794 466.469 263.06 466.79 260.921C468.501 263.273 468.931 263.669 471.177 265.536L471.785 267.367C474.272 265.967 474.39 266.126 476.709 267.849L476.912 268.722L476.086 268.999L474.141 270.025L474.229 270.442L474.822 270.544C476.397 270.828 477.131 270.791 478.29 271.875C480.254 276.276 476.19 278.847 474.264 282.047C471.582 285.811 469.891 293.237 465.713 299.449C464.799 301.321 464.229 303.203 462.429 304.083C460.838 304.235 460.063 303.822 458.559 303.303L462.122 305.867L452.799 324.519C446.04 320.192 427.605 309.007 422.011 304.353L422.17 301.716C423.677 299.776 425.217 298.131 425.972 295.831C426.812 293.937 427.282 293.82 429.049 292.733L428.841 292.05C427.851 291.566 427.022 291.201 426.004 290.776C427.339 286.523 435.596 264.265 439.106 263.551C440.25 266.057 441.286 266.353 441.488 268.909L443.264 268.753C444.281 267.728 444.264 266.037 443.977 264.733L443.212 264.239L443.066 263.362C448.596 264.358 445.41 268.053 452.836 266.378C453.58 267.053 453.276 266.618 453.616 267.766C453.891 267.327 454.271 267.064 454.662 266.732L455.305 267.294L455.223 269.328C455.557 269.651 456.152 270.265 456.497 270.527L457.02 270.732C458.264 269.737 458.293 269.069 458.751 267.533L458.911 266.977C460.295 266.739 460.8 267.468 462.391 268.4C460.473 264.341 459.343 266.219 456.823 263.949C456.781 262.301 457.686 261.419 458.663 260.015Z"/><path fill="white" transform="scale(0.390625 0.390625)" d="M433.169 291.384C435.016 289.803 435.725 290.925 438.076 288.725L438.018 288.116L436.958 287.773L436.82 287.283C441.023 286.41 445.443 292.538 447.743 295.561C447.422 298.324 446.85 301.039 447.516 303.675C448.281 303.72 448.957 303.658 449.725 303.623C450.922 302.621 451.242 301.967 452.079 300.679L453.344 300.69L454.047 301.569C455.375 302.161 456.754 302.861 458.155 303.193L458.559 303.303L462.122 305.867L452.799 324.519C446.04 320.192 427.605 309.007 422.011 304.353L422.17 301.716C423.677 299.776 425.217 298.131 425.972 295.831C427.604 295.452 428.732 294.822 429.828 295.426C430.781 293.639 430.318 293.863 431.82 293.082L433.169 291.384Z"/><path fill="#632E31" transform="scale(0.390625 0.390625)" d="M436.593 296.115C442.727 298.292 441.73 299.629 444.603 304.91C445.995 307.469 449.258 307.036 450.424 309.135L450.009 310.131C447.082 310.645 436.895 301.716 434.209 299.495C435.631 298.16 435.727 297.8 436.593 296.115Z"/><path fill="#5E1A20" transform="scale(0.390625 0.390625)" d="M447.516 303.675C448.281 303.72 448.957 303.658 449.725 303.623C450.922 302.621 451.242 301.967 452.079 300.679L453.344 300.69L454.047 301.569C453.569 303.501 453.648 303.854 454.103 305.801L453.68 306.748C451.24 307.552 448.665 305.836 447.516 303.675Z"/><path fill="#6C2834" transform="scale(0.390625 0.390625)" d="M429.828 295.426C430.781 293.639 430.318 293.863 431.82 293.082C433.472 295.061 433.95 295.536 436.593 296.115C435.727 297.8 435.631 298.16 434.209 299.495C432.115 297.904 431.573 297.395 429.828 295.426Z"/><path fill="#5D1726" transform="scale(0.390625 0.390625)" d="M458.663 260.015C459.592 260.917 460.964 262.173 461.808 263.09C463.12 264.678 463.384 264.938 465.462 265.614C466.51 263.794 466.469 263.06 466.79 260.921C468.501 263.273 468.931 263.669 471.177 265.536L471.785 267.367C474.272 265.967 474.39 266.126 476.709 267.849L476.912 268.722L476.086 268.999L474.141 270.025L474.229 270.442L474.822 270.544C476.397 270.828 477.131 270.791 478.29 271.875C480.254 276.276 476.19 278.847 474.264 282.047L473.663 281.792C472.474 282.139 473.077 281.985 471.855 282.254C470.721 278.388 469.061 276.53 464.978 275.811L463.892 277.747C462.254 277.797 462.118 277.913 460.578 277.256C458.179 275.004 460.153 272.5 457.02 270.732C458.264 269.737 458.293 269.069 458.751 267.533L458.911 266.977C460.295 266.739 460.8 267.468 462.391 268.4C460.473 264.341 459.343 266.219 456.823 263.949C456.781 262.301 457.686 261.419 458.663 260.015Z"/><path fill="#BC8F82" transform="scale(0.390625 0.390625)" d="M465.462 265.614C466.51 263.794 466.469 263.06 466.79 260.921C468.501 263.273 468.931 263.669 471.177 265.536L471.785 267.367C474.272 265.967 474.39 266.126 476.709 267.849L476.912 268.722L476.086 268.999C471.668 268.367 469.574 266.923 465.462 265.614Z"/><path fill="#F9E8BB" transform="scale(0.390625 0.390625)" d="M462.832 268.469C464.092 268.853 465.319 269.341 466.498 269.928C468.961 271.13 471.652 272.646 472.597 275.282C469.458 275.008 464.552 271.113 462.832 268.469Z"/><path fill="white" transform="scale(0.390625 0.390625)" d="M464.978 275.811C469.061 276.53 470.721 278.388 471.855 282.254C473.077 281.985 472.474 282.139 473.663 281.792L474.264 282.047C471.582 285.811 469.891 293.237 465.713 299.449C465.034 298.209 465.079 297.222 464.876 295.747L464.314 294.865L464.932 294.445L465.149 292.653C464.163 290.3 463.911 289.367 462.285 287.396C465.091 284.688 465.119 283.356 463.562 279.928L463.892 277.747L464.978 275.811Z"/><path fill="#632E31" transform="scale(0.390625 0.390625)" d="M465.149 292.653C466.478 290.704 467.646 288.54 469.591 287.353L469.959 287.775C469.164 289.987 466.982 293.367 464.932 294.445L465.149 292.653Z"/><path fill="white" transform="scale(0.390625 0.390625)" d="M446.025 278.971C448.858 280.032 450.696 280.912 451.177 284.164C450.942 284.805 450.497 285.799 450.446 286.464C450.681 288.008 452.053 289.4 452.556 291.649L452.09 292.167L450.428 291.505C449.924 292.312 450.853 294.441 451.058 296.223C447.872 295.06 443.347 289.36 442.973 285.817L442.313 285.297C440.853 285.276 440.051 285.222 438.636 285.072L438.203 284.289L438.677 283.622L440.717 283.814C441.677 282.419 442.289 281.087 443.045 279.582L446.025 278.971Z"/><path fill="#EFEDE5" transform="scale(0.390625 0.390625)" d="M443.045 279.582L441.902 278.974C441.195 279.436 440.497 279.9 439.809 280.391C439.863 279.72 439.989 279.631 440.262 278.977C447.807 273.123 442.814 276.727 450.721 276.445L451.161 277.014L450.942 277.523L451.413 278.139C453.044 280.235 455.775 281.887 455.653 284.17C452.855 287.204 453.379 285.204 450.446 286.464C450.497 285.799 450.942 284.805 451.177 284.164C450.696 280.912 448.858 280.032 446.025 278.971L443.045 279.582Z"/><path fill="#AC9C98" transform="scale(0.390625 0.390625)" d="M446.025 278.971C447.415 278.358 447.207 278.647 449.061 279.141C451.015 280.502 452.095 281.581 451.891 284.113L451.449 284.428L451.177 284.164C450.696 280.912 448.858 280.032 446.025 278.971Z"/><path fill="#6C2834" transform="scale(0.390625 0.390625)" d="M460.376 286.017C460.894 284.712 461.029 284.067 461.219 282.673L462.174 282.073C462.913 283.624 462.215 285.415 461.659 287.016L462.285 287.396C463.911 289.367 464.163 290.3 465.149 292.653L464.932 294.445L464.314 294.865L464.876 295.747C464.629 297.595 464.681 298.789 463.215 300.028L460.215 299.421C460.703 298.458 461.834 297.552 461.951 296.597C462.357 293.291 460.104 290.36 458.465 287.681L460.779 287.357L460.376 286.017Z"/><path fill="white" transform="scale(0.390625 0.390625)" d="M456.009 296.022C457.389 292.068 456.546 288.285 457.251 286.464L458.465 287.681C460.104 290.36 462.357 293.291 461.951 296.597C461.834 297.552 460.703 298.458 460.215 299.421L459.258 299.444C457.479 298.787 457.052 297.656 456.009 296.022Z"/><path fill="#F9E8BB" transform="scale(0.390625 0.390625)" d="M464.876 295.747C465.079 297.222 465.034 298.209 465.713 299.449C464.799 301.321 464.229 303.203 462.429 304.083C460.838 304.235 460.063 303.822 458.559 303.303L458.155 303.193C456.503 302.119 454.524 301.306 454.809 299.196C458.808 298.891 456.976 301.519 463.215 300.028C464.681 298.789 464.629 297.595 464.876 295.747Z"/><path fill="#5D1726" transform="scale(0.390625 0.390625)" d="M456.497 270.527L457.02 270.732C460.153 272.5 458.179 275.004 460.578 277.256C462.118 277.913 462.254 277.797 463.892 277.747L463.562 279.928C460.679 279.919 458.349 281.136 456.478 281.028L456.605 277.977C456.573 276.182 457.387 273.236 456.697 271.702C456.272 270.759 456.333 271.853 456.497 270.527Z"/><path fill="#EFEDE5" transform="scale(0.390625 0.390625)" d="M426.004 290.776L428.693 289.095C430.142 289.79 429.612 289.517 430.679 291.01L433.169 291.384L431.82 293.082C430.318 293.863 430.781 293.639 429.828 295.426C428.732 294.822 427.604 295.452 425.972 295.831C426.812 293.937 427.282 293.82 429.049 292.733L428.841 292.05C427.851 291.566 427.022 291.201 426.004 290.776Z"/><path fill="#886873" transform="scale(0.390625 0.390625)" d="M441.488 268.909L443.264 268.753C442.804 270.806 437.315 277.631 435.696 280.045C437.407 275.957 440.025 272.595 441.488 268.909Z"/><path fill="#F9E8BB" transform="scale(0.390625 0.390625)" d="M450.721 276.445C452.527 276.098 453.611 275.662 455.267 276.388C455.769 276.949 456.182 277.357 456.605 277.977L456.478 281.028C454.618 279.51 453.468 277.601 451.161 277.014L450.721 276.445Z"/><path fill="#BC8F82" transform="scale(0.390625 0.390625)" d="M460.779 287.357C459.189 286.387 458.015 284.85 458.428 282.929C459.598 283.615 459.83 284.708 460.376 286.017L460.779 287.357Z"/><path fill="#5D1726" transform="scale(0.390625 0.390625)" d="M455.79 254.985C452.576 252.38 453.67 249.45 456.554 247.183C462.202 242.744 487.918 231.258 493.329 237.907C493.957 240.71 492.975 241.947 491.47 244.362L492.111 245.099L491.183 246.971C491.148 248.801 491.514 248.118 490.464 249.267C486.405 249.755 483.239 245.803 478.63 252.06L479.368 253.128L480.465 252.373L480.777 252.556C482.265 252.652 483.516 252.791 485.006 252.635L485.668 252.566C485.641 252.812 480.292 261.944 479.594 263.46C479.716 264.091 479.725 263.711 479.223 264.537C475.512 264.693 470.475 263.965 469.142 259.991L468.055 259L466.803 259.832L466.79 260.921C466.469 263.06 466.51 263.794 465.462 265.614C463.384 264.938 463.12 264.678 461.808 263.09C460.964 262.173 459.592 260.917 458.663 260.015C458.628 258.905 458.396 257.032 458.287 255.867L455.79 254.985Z"/><path fill="#5E1A20" transform="scale(0.390625 0.390625)" d="M476.724 255.908C477.314 254.479 477.698 253.3 478.63 252.06L479.368 253.128L480.465 252.373L480.777 252.556C482.265 252.652 483.516 252.791 485.006 252.635L485.668 252.566C485.641 252.812 480.292 261.944 479.594 263.46C479.716 264.091 479.725 263.711 479.223 264.537C475.512 264.693 470.475 263.965 469.142 259.991C471.021 261.562 471.174 261.718 473.378 262.689C472.426 261.246 469.181 258.49 467.511 256.618C468.51 255.208 467.933 254.312 469.272 252.338C471.161 251.88 471.358 253.939 473.816 254.529C474.871 254.783 475.809 255.34 476.724 255.908Z"/><path fill="#632E31" transform="scale(0.390625 0.390625)" d="M476.724 255.908C477.314 254.479 477.698 253.3 478.63 252.06L479.368 253.128L480.465 252.373L480.777 252.556C482.265 252.652 483.516 252.791 485.006 252.635L485.668 252.566C485.641 252.812 480.292 261.944 479.594 263.46C478.76 263.79 479.075 263.631 477.926 263.4C476.62 262.056 476.917 262.827 476.877 261.061L477.106 260.166C476.662 258.384 476.346 257.721 476.724 255.908Z"/><path fill="#AC9C98" transform="scale(0.390625 0.390625)" d="M485.006 252.635L485.668 252.566C485.641 252.812 480.292 261.944 479.594 263.46C478.76 263.79 479.075 263.631 477.926 263.4C476.62 262.056 476.917 262.827 476.877 261.061C478.165 262.05 476.957 262.105 478.571 262.793C480.542 258.924 481.661 256.582 484.468 253.264L485.006 252.635Z"/><path fill="#CDB5AD" transform="scale(0.390625 0.390625)" d="M476.724 255.908C477.314 254.479 477.698 253.3 478.63 252.06L479.368 253.128L480.465 252.373L480.777 252.556C479.666 254.685 478.189 258.425 477.106 260.166C476.662 258.384 476.346 257.721 476.724 255.908Z"/><path fill="#6C2834" transform="scale(0.390625 0.390625)" d="M457.098 251.591L458.797 252.194C458.728 253.08 458.889 252.676 458.264 253.384C460.922 255.061 463.599 254.128 465.466 257.268C464.626 258.86 464.182 259.031 464.292 260.541L465.02 260.822C465.737 259.112 465.419 259.052 466.711 258.272L468.055 259L466.803 259.832L466.79 260.921C466.469 263.06 466.51 263.794 465.462 265.614C463.384 264.938 463.12 264.678 461.808 263.09C460.964 262.173 459.592 260.917 458.663 260.015C458.628 258.905 458.396 257.032 458.287 255.867L455.79 254.985C456.741 254.005 456.794 252.957 457.098 251.591Z"/><path fill="#DE857D" transform="scale(0.390625 0.390625)" d="M458.287 255.867C462.509 257.528 462.102 258.8 461.808 263.09C460.964 262.173 459.592 260.917 458.663 260.015C458.628 258.905 458.396 257.032 458.287 255.867Z"/><path fill="#BC8F82" transform="scale(0.390625 0.390625)" d="M462.083 246.906C460.713 250.3 459.73 248.323 459.085 250.893C459.851 251.95 459.795 252.033 460.898 252.679C463.258 254.195 465.021 255.292 467.511 256.618C469.181 258.49 472.426 261.246 473.378 262.689C471.174 261.718 471.021 261.562 469.142 259.991L468.055 259L466.711 258.272C465.419 259.052 465.737 259.112 465.02 260.822L464.292 260.541C464.182 259.031 464.626 258.86 465.466 257.268C463.599 254.128 460.922 255.061 458.264 253.384C458.889 252.676 458.728 253.08 458.797 252.194L457.098 251.591C457.31 248.21 459.183 247.512 462.083 246.906Z"/><path fill="#5E1A20" transform="scale(0.390625 0.390625)" d="M462.083 246.906C463.247 247.627 463.609 247.864 464.649 248.744L464.659 249.527C461.697 251.059 462.531 250.198 460.898 252.679C459.795 252.033 459.851 251.95 459.085 250.893C459.73 248.323 460.713 250.3 462.083 246.906Z"/><path fill="#CDB5AD" transform="scale(0.390625 0.390625)" d="M491.47 244.362L492.111 245.099L491.183 246.971L489.712 248.185C487.547 248.205 487.957 247.95 485.757 246.401C487.888 245.775 489.397 245.183 491.47 244.362Z"/><path fill="#5E1A20" transform="scale(0.390625 0.390625)" d="M473.127 242.239C475.697 243.131 476.649 244.442 476.414 247.24C475.78 248.495 475.868 248.711 474.666 249.32L473.336 248.432L472.764 248.941C470.644 249.416 470.746 249.177 469.18 247.844C468.709 245.694 468.67 246.751 469.461 244.568C470.993 243.103 471.136 243.085 473.127 242.239Z"/><path fill="#CDB5AD" transform="scale(0.390625 0.390625)" d="M486.335 238.584C486.714 238.533 487.155 238.699 487.578 238.8C487.301 241.216 487.347 241.929 485.112 243.137L483.224 242.237C481.634 241.966 481.314 241.821 479.838 241.289L479.513 240.581C481.337 239.372 484.098 239.044 486.335 238.584Z"/><path fill="#5D1726" transform="scale(0.390625 0.390625)" d="M421.955 296.922C421.795 296.191 421.83 295.738 421.972 294.998C423.118 289.035 432.388 262.017 437.091 259.526C438.229 258.923 439.336 258.945 440.512 259.47C441.946 260.111 442.512 262.016 443.066 263.362L443.212 264.239L443.977 264.733C444.264 266.037 444.281 267.728 443.264 268.753L441.488 268.909C441.286 266.353 440.25 266.057 439.106 263.551C435.596 264.265 427.339 286.523 426.004 290.776C427.022 291.201 427.851 291.566 428.841 292.05L429.049 292.733C427.282 293.82 426.812 293.937 425.972 295.831C425.217 298.131 423.677 299.776 422.17 301.716C422.47 299.345 422.559 299.17 421.955 296.922Z"/><path fill="#E7A88A" transform="scale(0.390625 0.390625)" d="M417.862 301.819C419.195 298.894 419.177 298.234 421.955 296.922C422.559 299.17 422.47 299.345 422.17 301.716L422.011 304.353L421.608 303.55C419.601 302.994 419.642 302.962 417.862 301.819Z"/><path fill="#DE857D" transform="scale(0.390625 0.390625)" d="M96.2335 228.865L96.5933 229.226C96.641 229.42 96.6886 229.615 96.7363 229.809L96.9759 230.694C100.542 244.409 118.365 255.614 130.288 261.6C144.315 268.642 156.993 270.182 172.358 269.457C187.809 292.607 204.448 313.805 219.469 337.068C221.149 340.554 225.189 342.793 226.967 346.088C242.486 374.859 255.287 405.581 270.861 434.273C278.768 448.73 287.557 462.686 297.179 476.063L288.878 479.265C283.828 481.13 278.939 483.405 274.259 486.066C270.738 482.859 269.341 481.581 265.219 479.271C258.492 463.916 255.333 446.8 250.33 430.677C245.121 413.894 239.229 398.648 232.272 382.435C220.497 354.989 206.344 323.06 181.488 305C169.405 296.577 155.506 291.087 142.131 285.117C125.177 277.55 81.0063 252.095 96.2335 228.865Z"/><path fill="#CDB5AD" transform="scale(0.390625 0.390625)" d="M432.699 343.223C440.346 347.53 426.685 380.44 425.094 387.238L424.944 387.895C425.937 391.962 429.071 399.344 433.344 400.697C439.369 399.723 459.654 380.541 463.681 374.761C466.32 370.973 471.327 358.742 473.894 356.367C474.932 357.829 474.843 371.194 474.183 373.111C469.197 387.591 459.468 402.833 450.129 414.983C440.243 427.998 421.682 444.551 409.466 455.035C402.939 445.147 400.261 442.519 391.551 434.567C392.523 433.688 395.4 431.143 395.94 430.127C400.338 421.862 396.755 409.817 400.775 401.011C404.679 392.46 411.333 388.528 416.529 379.854C421.788 371.075 427.507 349.474 432.699 343.223Z"/><path fill="white" transform="scale(0.390625 0.390625)" d="M836.197 918.589C836.317 918.63 836.437 918.672 836.558 918.714C851.323 926.035 872.617 940.511 878.797 956.227C868.465 970.953 850.671 970.907 834.379 969.424C823.14 969.445 801.324 961.885 790.667 957.419C796.014 928.144 811.838 926.636 836.197 918.589Z"/><path fill="#DE857D" transform="scale(0.390625 0.390625)" d="M850.865 506.178C858.826 508.922 868.789 524.054 873.526 531.014C877.813 529.941 896.113 520.777 901.607 518.34C904.913 530.354 905.536 545.551 906.117 557.965C884.977 568.687 871.776 573.986 849.631 582.828C845.083 584.937 840.33 586.663 835.641 588.446C827.666 581.374 814.175 568.023 810.947 558.06C826.631 561.799 848.193 567.436 861.023 553.054C864.195 549.499 866.52 543.357 865.749 538.596C864.186 528.936 854.062 517.991 846.708 512.267C848.105 509.678 849.096 508.461 850.865 506.178Z"/><path fill="#CDB5AD" transform="scale(0.390625 0.390625)" d="M311.812 222.427C312.433 225.215 304.453 239.716 302.59 242.823L300.933 243.007C299.694 244.029 299.793 243.968 299.273 245.503C299.536 246.7 299.59 247.009 299.659 248.23C296.782 251.361 291.434 253.637 287.559 256.965L287.074 257.389C288.626 260.974 289.216 262.213 290 266.004C287.341 269.857 275.052 280.505 278.306 284.726C281.55 284.078 304.013 253.492 308.308 249.153C310.782 246.653 315.399 236.699 319.368 237.192C326.815 247.327 306.403 265.993 303.493 276.872C304.109 279.967 306.933 285.245 308.281 288.888C307.947 291.02 307.527 293.696 306.613 295.658C303.17 303.058 302.042 310.859 299.67 318.472C299.462 319.141 293.632 323.883 292.7 324.706C291.627 327.837 290.937 331.093 290.178 334.318C281.995 329.917 276.215 327.114 267.266 324.899C267.797 319.246 268.664 313.009 269.127 307.317C270.244 293.577 270.644 265.517 278.911 254.293C286.13 244.49 302.276 230.896 311.812 222.427Z"/><path fill="#DE857D" transform="scale(0.390625 0.390625)" d="M699.417 856.122C701.431 857.462 704.638 862.211 706.576 864.081C718.981 876.056 741.918 878.441 758.016 879.082C768.768 890.516 780.278 901.288 791.172 912.858L785.4 912.752C766.404 913.029 752.827 912.6 734.083 915.783C721.484 902.218 707.504 890.121 696.428 875.394C697.544 868.729 697.853 862.935 699.417 856.122Z"/><path fill="#797179" transform="scale(0.390625 0.390625)" d="M757.305 762.872C758.406 766.112 757.443 777.606 757.736 782.061C758.172 788.688 758.677 792.462 759.961 799.046C738.932 811.565 704.589 815.56 681.591 806.466C680.286 802.713 679.06 798.512 677.858 794.691C679.054 795.207 680.264 795.693 681.485 796.148C703.443 804.201 729.801 800.383 750.688 790.804C751.315 787.566 753.084 784.066 751.726 781.416L750.513 781.209C745.175 784.092 752.118 787.218 741.257 791.013C720.122 798.398 696.608 799.934 676.052 790.116C675.313 786.719 672.893 779.426 671.797 775.787C698.878 788.195 733.868 779.502 757.305 762.872Z"/><path fill="white" transform="scale(0.390625 0.390625)" d="M745.411 809.579C746.078 810.84 748.822 826.117 749.495 828.966C751.296 836.609 753.4 844.178 755.801 851.654C749.651 852.447 738.561 854.967 736.007 861.455C734.38 865.589 736.499 869.451 738.105 873.243C737.683 873.159 737.262 873.07 736.842 872.979C725.109 870.414 712.174 866.752 705.332 856.111C705.072 848.731 704.085 841.872 703.14 834.553C702.634 831.212 700.374 818.211 700.762 815.843L701.626 815.506C704.698 816.867 722.761 840.222 728.148 844.03C729.536 843.546 728.949 843.742 730.131 842.422C729.877 839.492 711.93 821.344 708.37 816.572L707.945 815.997C723.043 816.294 731.459 814.18 745.411 809.579Z"/><path fill="white" transform="scale(0.390625 0.390625)" d="M812.687 505.255C817.591 508.536 846.919 525.385 852.525 526.514C853.102 526.019 853.617 525.604 854.219 525.138C856.09 526.62 860.015 533.513 860.82 536.021C862.115 540.007 861.644 544.356 859.526 547.972C856.174 553.826 851.13 555.667 845.122 557.341C829.277 559.373 809.754 553.563 795.29 547.314C804.472 532.872 809.559 522.014 812.687 505.255Z"/><path fill="#DE857D" transform="scale(0.390625 0.390625)" d="M524.754 220.188C527.774 222.599 530.346 224.47 533.525 226.676C518.63 257.997 500.878 290.378 485.248 321.494L468.329 355.509C466.216 359.759 460.27 372.267 457.7 375.45C453.273 380.932 443.011 389.55 437.518 394.403L434.121 397.073L430.877 391.549C432.765 391.929 433.084 391.984 434.996 392.032C435.44 391.79 435.884 391.548 436.328 391.306C459.772 343.949 486.307 295.681 510.238 248.86C517.418 234.812 521.708 228.422 524.754 220.188Z"/><path fill="#F9E8BB" transform="scale(0.390625 0.390625)" d="M245.634 352.929C264.886 358.09 279.778 367.481 292.059 383.461C290.704 399.087 285.968 415.431 281.771 430.477C280.878 433.321 279.963 436.159 279.028 438.99C274.004 428.753 268.462 418.533 263.356 408.272C256.018 393.313 248.852 378.269 241.86 363.144C243.885 359.089 244.341 357.356 245.634 352.929Z"/><path fill="#797179" transform="scale(0.390625 0.390625)" d="M777.094 472.469C781.254 472.405 784.082 474.645 787.517 476.639C796.026 481.577 794.212 489.717 793.444 497.906C791.76 515.867 781.441 531.153 770.396 544.814C768.408 547.272 766.318 548.861 764.433 551.577C764.485 554.181 766.296 555.65 768.746 556.034L769.533 555.301C770.758 548.385 773.374 547.245 777.907 541.401C792.816 522.176 797.462 510.023 797.55 486.082C811.267 494.471 809.347 495.195 806.826 510.659C805.347 516.555 803.278 522.286 800.65 527.767C794.367 541.143 782.468 561.095 767.77 566.448C757.66 560.333 748.911 555.062 738.56 549.149C749.682 547.294 756.347 543.115 764.98 533.51C776.244 520.975 790.741 495.287 782.801 477.59C782.445 476.797 778.124 473.33 777.094 472.469Z"/><path fill="white" transform="scale(0.390625 0.390625)" d="M935.192 443.609C948.467 442.57 959.168 451.833 964.178 463.553C969.339 475.629 966.534 492.007 961.744 503.808C956.424 501.665 952.756 497.721 948.847 493.694C946.554 491.259 944.193 488.89 941.767 486.588C930.736 476.21 922.242 473.131 907.487 473.564C915.12 461.732 921.662 448.699 935.192 443.609Z"/><path fill="white" transform="scale(0.390625 0.390625)" d="M948.771 441.215C967.805 442.827 977.337 453.724 979.67 472.312C982.516 494.985 970.374 512.656 956.38 528.963C939.756 548.336 923.593 568.327 908.719 589.105C899.589 601.705 880.561 608.005 865.766 609.489C861.006 609.567 859.086 609.188 854.757 607.812C877.116 602.944 893.38 594.263 909.224 577.221C915.131 570.551 920.195 563.284 925.945 556.469C937.314 543.048 950.076 528.895 960.297 514.705C973.961 495.734 976.97 461.202 955.694 446.264C953.676 444.847 951.411 443.341 949.53 441.832L948.771 441.215Z"/><path fill="#DE857D" transform="scale(0.390625 0.390625)" d="M940.099 490.837C941.425 491.5 948.374 498.87 950.518 500.605C953.138 502.725 956.832 505.792 959.435 508.014C950.691 521.629 937.429 536.486 926.848 548.783L919.873 557.222C919.536 539.316 917.871 528.845 914.134 511.362C924.39 504.848 931.367 498.953 940.099 490.837Z"/><path fill="white" transform="scale(0.390625 0.390625)" d="M697.059 922.345C698.006 922.808 702.24 925.966 703.336 926.766C717.856 937.378 738.114 938.844 755.562 945.328C768.535 949.372 779.879 957.015 792.035 962.612C813.585 972.534 863.586 984.05 879.627 960.801C879.586 963.927 879.689 966.154 878.9 969.19C876.147 974.757 873.208 976.675 867.408 978.856C849.709 985.509 831.209 982.751 813.468 977.679C792.825 971.778 774.743 959.843 754.817 952.152C741.059 946.843 726.031 945.008 712.606 938.719C703.585 934.49 700.478 931.874 697.059 922.345Z"/><path fill="#DE857D" transform="scale(0.390625 0.390625)" d="M97.8908 217.022C98.5873 218.147 98.6749 220.148 98.8712 221.592C91.1822 225.671 87.2758 232.574 88.662 241.369C90.6234 253.814 100.535 264.091 110.255 271.295C107.23 277.435 105.754 283.443 103.875 289.996L100.301 287.83C91.5064 282.546 82.5592 276.379 78.2966 266.747C68.5139 244.642 76.6151 226.555 97.8908 217.022Z"/><path fill="#DE857D" transform="scale(0.390625 0.390625)" d="M795.079 925.789C798.395 925.403 803.208 925.333 806.652 925.186C793.447 934.722 790.758 940.019 786.753 955.672C774.512 948.965 765.873 944.941 752.69 940.512C744.867 937.61 736.04 935.374 727.979 933.24C750.486 927.458 772.155 927.93 795.079 925.789Z"/><path fill="#DE857D" transform="scale(0.390625 0.390625)" d="M156.915 295.674C176.046 305.112 185.823 310.797 199.034 328.353L191.308 332.652L183.25 337.32C173.434 327.599 164.249 321.796 152.848 314.357C154.539 308.207 155.896 301.97 156.915 295.674Z"/><path fill="white" transform="scale(0.390625 0.390625)" d="M503.741 170.29C516.675 169.458 529.502 170.084 541.961 173.849C537.596 180.258 531.366 188.742 526.115 194.272C521.832 192.223 517.39 189.88 513.134 187.727C502.18 182.506 494.203 179.153 482.296 176.649C479.351 176.029 472.298 175.225 470.74 174.764C475.75 172.055 497.044 170.73 503.741 170.29Z"/><path fill="#DE857D" transform="scale(0.390625 0.390625)" d="M113.45 273.471C128.682 283.2 137.144 288.066 154.308 294.597C153.318 297.549 150.742 311.425 149.182 312.331C135.06 305.087 121.099 298.56 107.082 291.47C109.015 285.182 110.8 279.497 113.45 273.471Z"/><path fill="white" transform="scale(0.390625 0.390625)" d="M883.507 492.501C890.321 497.039 896.48 507.825 899.861 515.011C895.486 516.734 877.676 525.151 874.976 525.543L874.076 524.569C867.689 513.818 864.403 511.325 854.83 503.734C864.586 499.194 873.787 496.644 883.507 492.501Z"/><path fill="#DE857D" transform="scale(0.390625 0.390625)" d="M200.629 331.898L201.05 332.026C206.889 337.413 219.623 364.632 223.473 372.943C220.818 374.469 214.039 379.128 211.731 379.855L210.84 379.295C205.901 368.453 193.372 349.118 185.724 340.27C190.965 337.54 195.541 334.897 200.629 331.898Z"/><path fill="#DE857D" transform="scale(0.390625 0.390625)" d="M302.517 635.921C306.826 639.761 318.601 653.385 323.572 658.501C321.695 662.51 315.034 674.313 311.473 676.446L310.661 676.036C302.884 668.701 294.761 660.165 287.202 652.513C293.015 646.954 297.335 641.992 302.517 635.921Z"/><path fill="#DE857D" transform="scale(0.390625 0.390625)" d="M284.344 654.85C286.485 655.207 305.784 675.987 309.003 679.343C303.599 684.49 299.002 687.716 292.597 691.403C284.457 683.521 275.307 673.5 267.537 666.388C273.945 662.619 278.572 659.515 284.344 654.85Z"/><path fill="white" transform="scale(0.390625 0.390625)" d="M907.967 477.669C908.949 477.619 909.932 477.579 910.915 477.55C920.679 477.304 930.153 480.881 937.318 487.518C932.943 491.963 927.581 496.402 922.78 500.398C919.276 503.122 916.78 504.924 913.041 507.304C909.661 498.473 907.085 490.15 899.196 484.374C903.178 481.027 903.611 478.492 907.967 477.669Z"/><path fill="white" transform="scale(0.390625 0.390625)" d="M759.307 855.198C766.162 854.566 771.57 856.034 775.337 862.36C781.813 873.232 763.998 874.114 757.071 874.988C751.964 874.779 747.731 874.332 742.678 873.63C740.952 869.729 739.74 867.022 738.502 862.976C744.835 857.679 751.268 856.11 759.307 855.198Z"/><path fill="#F9E8BB" transform="scale(0.390625 0.390625)" d="M285.849 484.988L286.376 485.441C285.677 487.391 281.543 492.007 280.06 494.172C268.986 510.332 264.737 528.83 257.804 546.715L257.224 546.749L256.405 544.889C251.334 526.473 255.178 511.563 266.909 496.401C268.268 494.644 269.406 492.482 271.011 490.953L271.04 492.023L271.551 492.26C273.678 491.55 282.308 486.563 285.849 484.988Z"/><path fill="white" transform="scale(0.390625 0.390625)" d="M778.89 916.29C784.279 915.98 788.636 915.903 794.011 915.926C796.682 917.825 798.159 919.396 800.472 921.708C774.434 923.725 757.169 922.863 731.512 928.744C728.268 929.536 725.32 930.597 722.166 931.678C719.288 930.627 716.421 929.337 713.6 928.125C728.92 917.006 760.507 917.165 778.89 916.29Z"/><path fill="white" transform="scale(0.390625 0.390625)" d="M905.869 561.476C906.905 562.704 906.886 565.704 907.045 567.481C892.602 580.327 869.702 589.982 850.993 595.53C848.139 596.377 844.902 597.184 842.442 595.697L838.298 591.594C845.037 589.654 852.957 585.942 859.59 583.412C877.166 576.709 889.765 571.283 905.869 561.476Z"/><path fill="#DE857D" transform="scale(0.390625 0.390625)" d="M224.779 376.459C227.472 379.874 239.118 411.645 241.256 417.537C239.344 418.661 234.174 422.169 232.501 422.409L231.911 421.786C225.735 409.191 219.489 396.63 213.174 384.104L224.779 376.459Z"/><path fill="#DE857D" transform="scale(0.390625 0.390625)" d="M365.181 107.607C375.268 112.441 456.123 168.87 457.675 173.888L456.236 175.766C453.424 175.089 434.123 159.773 429.955 156.831C413.285 145.064 396.26 134.109 379.328 122.742C374.882 119.757 366.918 115.892 363.562 112.732C363.401 110.981 364.424 109.273 365.181 107.607Z"/><path fill="#F6EDC8" transform="scale(0.390625 0.390625)" d="M276.399 590.51C276.823 591.97 274.584 605.624 274.059 608.002C270.702 623.194 264.25 638.471 250.792 647.237C250.458 643.31 256.215 628.503 257.829 623.858C261.385 613.623 264.586 605.179 266.72 594.422C270.041 593.342 273.194 591.898 276.399 590.51Z"/><path fill="#DE857D" transform="scale(0.390625 0.390625)" d="M316.537 611.304C317.822 613.297 319.019 615.346 320.123 617.445C327.829 631.879 329.726 639.82 324.97 655.574L320.139 650.318C315.123 644.514 309.944 638.32 304.617 632.855C310.027 626.12 312.884 619.083 316.537 611.304Z"/><path fill="#DE857D" transform="scale(0.390625 0.390625)" d="M305.173 575.808C318.728 568.729 338.31 560.556 350.253 553.015L349.073 555.157C334.447 566.489 323.85 581.922 315.385 598.069C312.18 590.559 308.774 583.136 305.173 575.808Z"/><path fill="#DE857D" transform="scale(0.390625 0.390625)" d="M265.01 667.449C265.683 667.827 270.917 674.121 272.17 675.523C277.775 681.794 283.49 687.254 289.713 692.891C284.481 694.356 281.928 694.556 276.571 694.794C272.927 694.631 270.448 694.576 266.863 693.886C261.246 687.298 256.098 680.272 250.946 673.315C256.161 671.549 260.144 669.948 265.01 667.449Z"/><path fill="#DE857D" transform="scale(0.390625 0.390625)" d="M178.51 256.19C184.06 260.448 219.241 325.393 221.799 334.333L220.826 333.309C218.939 329.982 216.9 326.67 214.752 323.505C201.579 304.089 188.375 284.363 174.65 265.342C175.941 262.655 177.338 259.008 178.51 256.19Z"/><path fill="#DE857D" transform="scale(0.390625 0.390625)" d="M778.159 873.241C792.511 886.563 807.127 899.195 823.382 910.199C825.929 911.923 830.3 913.762 831.853 916.43C831.139 917.449 830.861 917.197 829.265 917.595C825.09 918.478 820.903 919.303 816.705 920.071C812.077 912.368 776.444 876.883 776.358 874.368L778.159 873.241Z"/><path fill="white" transform="scale(0.390625 0.390625)" d="M695.71 881.285C696.224 881.634 704.738 890.989 705.479 891.959C708.518 895.938 728.829 914.616 729.345 916.862L728.398 917.447L720.715 919.682C713.936 914.031 707.044 908.625 700.595 902.585C698.94 901.035 697.298 899.614 695.438 898.312C695.438 892.635 695.528 886.959 695.71 881.285Z"/><path fill="white" transform="scale(0.390625 0.390625)" d="M771.319 876.688C773.35 877.009 809.304 917.265 813.24 921.594C811.371 923.011 810.694 923.745 808.611 923.826L807.344 922.637C798.738 915.09 789.865 905.441 781.775 897.17C775.332 890.693 768.757 884.348 762.053 878.14L771.319 876.688Z"/><path fill="#DE857D" transform="scale(0.390625 0.390625)" d="M464.738 177.896C473.999 178.88 534.532 211.535 537.381 218.22C537.242 220.079 536.396 221.086 535.417 222.694C530.134 219.915 519.284 211.071 513.558 207.058C496.425 195.051 481.889 186.906 462.442 179.507L462.526 178.881L464.738 177.896Z"/><path fill="#DE857D" transform="scale(0.390625 0.390625)" d="M270.078 329.717C271.293 330.082 271.613 330.261 272.759 330.835C273.052 332.586 266.154 344.974 265.17 349.002L265.782 349.158C269.518 346.699 273.944 336.959 276.696 332.341C278.973 333.297 281.072 334.422 283.266 335.55C282.366 337.389 281.014 339.508 279.942 341.295C275.954 347.527 273.97 351.683 271.035 358.344C267.071 356.216 263.393 354.202 259.272 352.366C262.225 345.619 266.505 335.964 270.078 329.717Z"/><path fill="#DE857D" transform="scale(0.390625 0.390625)" d="M905.52 573.504L905.817 574.168C892.749 588.465 876.857 599.404 857.384 603.401C853.256 604.249 852.458 604.037 849.494 601.885L846.749 599.81C846.928 599.795 847.107 599.781 847.286 599.767L848.179 599.681C864.79 598.162 892.593 584.077 905.52 573.504Z"/><path fill="white" transform="scale(0.390625 0.390625)" d="M909.863 513.475C912.998 517.857 916.891 554.097 915.774 560.169C914.696 561.742 913.934 561.878 912.188 562.646C911.086 561.697 910.425 560.861 910.318 559.343C909.264 544.365 909.222 530.765 905.388 516.016C906.669 515.179 908.494 514.236 909.863 513.475Z"/><path fill="#DE857D" transform="scale(0.390625 0.390625)" d="M293.974 341.858C295.203 342.672 296.751 343.945 297.947 344.868C296.393 348.159 295.177 350.188 295.454 353.905C296.573 353.256 299.218 349.475 300.377 348.123L301.152 348.086C301.354 351.083 294.612 366.214 292.983 370.112C292.284 371.676 291.621 373.586 290.401 374.689C287.3 373.428 289.693 371.741 288.728 370.021L287.263 370.782C285.782 370.39 283.721 368.118 282.49 366.952C286.062 361.073 291.087 348.612 293.974 341.858Z"/><path fill="#DE857D" transform="scale(0.390625 0.390625)" d="M229.32 673.88C235.804 674.546 241.276 675.011 247.712 673.871C251.649 680.517 256.669 686.417 261.536 692.404C259.884 692.718 256.243 691.491 254.359 691.129C242.933 688.938 236.509 682.817 229.32 673.88Z"/><path fill="#DE857D" transform="scale(0.390625 0.390625)" d="M241.853 420.881C244.038 422.787 253 456.878 254.826 462.597L251.634 457.256C245.48 447.126 239.661 436.796 234.187 426.282C236.414 424.536 239.466 422.532 241.853 420.881Z"/><path fill="white" transform="scale(0.390625 0.390625)" d="M894.893 486.923C901.995 486.675 907.698 504.425 909.364 509.699C907.461 510.748 906.507 511.235 904.483 512.007L903.567 511.532C901.344 507.266 892.584 491.45 887.952 490.236C890.594 489.199 892.409 488.23 894.893 486.923Z"/><path fill="#DE857D" transform="scale(0.390625 0.390625)" d="M285.884 336.679C287.349 337.385 289.933 339.273 291.382 340.261C289.913 343.486 281.554 364.207 280.189 364.847C277.916 362.837 275.974 361.566 273.471 359.864C277.605 351.392 280.952 344.677 285.884 336.679Z"/><path fill="#DE857D" transform="scale(0.390625 0.390625)" d="M696.055 904.752C698.654 906.098 712.438 918.293 715.713 921.009L715.673 921.521L713.73 923.083L709.225 926.703C705.477 924.282 700.848 920.544 697.216 917.775C696.634 913.607 696.378 908.98 696.055 904.752Z"/><path fill="#DE857D" transform="scale(0.390625 0.390625)" d="M405.469 457.863C406.706 458.844 409.183 462.839 410.201 464.358C406.609 470.064 402.963 477.598 399.519 483.691C398.017 481.612 395.394 476.829 393.995 474.437C396.463 471.631 403.039 461.431 405.469 457.863Z"/><path fill="#DE857D" transform="scale(0.390625 0.390625)" d="M392.616 441.529C394.177 442.769 395.962 444.661 397.418 446.099C392.625 452.808 391.057 457.072 387.21 463.624L386.487 463.211C384.502 460.574 381.952 457.809 379.744 455.303C384.295 450.962 388.593 446.363 392.616 441.529Z"/><path fill="#DE857D" transform="scale(0.390625 0.390625)" d="M399.26 448.766C400.406 449.744 402.635 452.768 403.681 454.097C400.43 458.464 395.758 466.319 392.694 471.136L391.997 471.005L388.835 466.354C392.151 460.224 395.298 454.512 399.26 448.766Z"/><path fill="#DE857D" transform="scale(0.390625 0.390625)" d="M385.612 436.359C387.71 436.767 389.015 438.234 390.64 439.651C387.14 442.739 381.85 449.217 377.941 453.071L372.785 448.18C376.942 443.882 381.124 440.291 385.612 436.359Z"/><path fill="#DE857D" transform="scale(0.390625 0.390625)" d="M262.052 327.011L267.072 329.091C262.398 336.85 259.736 343.038 256.428 351.274C255.412 351.304 252.966 350.485 251.839 350.161C254.521 343.066 259.011 334.483 262.052 327.011Z"/><path fill="#DE857D" transform="scale(0.390625 0.390625)" d="M203.307 667.962C207.429 668.189 220.427 672.633 226.144 673.807C228.723 678.621 231.297 680.769 235.191 684.531C227.171 682.647 210.778 672.592 203.307 667.962Z"/><path fill="white" transform="scale(0.390625 0.390625)" d="M725.269 535.394L724.949 533.623L725.402 533.068C728.638 534.066 740.077 541.59 743.793 543.814C742.491 544.859 742.374 544.652 740.612 545.002C733.147 545.096 725.888 544.089 725.269 535.394Z"/><path fill="#886873" transform="scale(0.390625 0.390625)" d="M725.269 535.394L724.949 533.623L725.402 533.068C728.638 534.066 740.077 541.59 743.793 543.814C742.491 544.859 742.374 544.652 740.612 545.002C735.775 541.838 730.344 537.808 725.269 535.394Z"/><path fill="white" transform="scale(0.390625 0.390625)" d="M487.775 182.459C491.992 183.149 520.985 194.85 522.312 197.473L521.51 199.052C521.148 199.361 519.795 200.624 519.277 200.297C509.027 193.812 498.438 188.228 487.775 182.459Z"/><path fill="#DE857D" transform="scale(0.390625 0.390625)" d="M379.511 431.944C380.543 432.531 382.036 433.814 383.022 434.603C378.924 437.275 373.015 442.728 369.129 446.076C367.781 445.132 366.411 443.945 365.125 442.889C369.929 439.117 374.524 435.475 379.511 431.944Z"/><path fill="white" transform="scale(0.390625 0.390625)" d="M299.804 252.432L299.861 253.495C298.762 255.223 294.547 261.443 292.965 261.941L291.941 259.932C292.216 257.567 297.126 254.785 299.804 252.432Z"/><path fill="#886873" transform="scale(0.390625 0.390625)" d="M487.44 254.417C487.576 257.042 482.404 265.931 480.957 268.734C479.799 266.129 485.858 257.163 487.44 254.417Z"/><path fill="#6C2834" transform="scale(0.390625 0.390625)" d="M350.253 553.015C351.211 551.93 351.46 551.751 352.609 550.848L353.327 550.951C352.607 552.848 350.769 553.899 349.073 555.157L350.253 553.015Z"/></svg>