<?xml version="1.0" encoding="utf-8" ?><svg xmlns="http://www.w3.org/2000/svg" xmlns:xlink="http://www.w3.org/1999/xlink" width="400" height="400" viewBox="0 0 400 400"><path fill="#FFFFFE" transform="scale(0.390625 0.390625)" d="M0 0L1024 0L1024 1024L0 1024L0 0Z"/><path fill="#34051B" transform="scale(0.390625 0.390625)" d="M161.306 31.6997C166.029 31.0201 181.524 31.6663 185.786 33.3738C195.778 37.3782 203.824 36.7906 213.7 38.7073C229.766 42.3058 242.21 51.2426 254.221 61.7474C265.422 71.5445 270.825 78.0376 267.355 94.0049C273.378 108.843 275.584 124.655 271.072 140.248C268.832 147.99 266.296 154.311 264.481 162.308C267.796 173.065 274.516 176.415 278.767 185.609C278.518 186.332 278.255 187.051 277.978 187.764C275.441 194.228 268.89 196.231 262.899 198.807C263.144 201.837 263.219 204.62 263.297 207.654C258.614 215.135 258.049 209.819 259.488 220.98C259.762 223.101 253.46 229.329 252.811 231.052C245.508 250.442 247.686 253.811 225.662 248.753C221.815 256.841 218.395 261.976 212.073 268.184C214.615 270.061 230.957 286.108 232.252 288.621C237.698 299.192 242.238 316.068 245.336 327.856C246.927 326.801 248.534 325.771 250.157 324.766C257.655 320.18 266.698 318.498 275.272 320.621C282.406 311.981 290.462 302.377 298.62 294.619C300.358 292.966 302.36 293.312 304.697 293.478L305.41 293.534C307.354 291.873 313.651 274.642 315.505 270.624C331.264 236.478 353.866 206.988 393.941 205.13C399.896 199.536 405.608 192.914 411.524 187.349C425.816 173.906 439.97 160.023 454.473 146.83C461.285 140.633 470.874 131.566 478.174 126.396C482.604 129.397 490.211 137.281 494.141 141.469C508.424 156.687 521.026 177.416 524.435 198.248C525.486 204.676 525.313 211.078 525.101 217.534C529.327 217.339 533.586 217.269 537.798 217.345C561.086 217.77 594.265 230.712 610.123 247.883C607.678 251.458 601.749 256.484 598.364 259.452C573.986 280.825 548.665 301.082 524.695 322.949C517.26 329.733 509.963 336.667 502.31 343.202C503.086 344.336 503.746 345.811 504.363 347.061C522.015 345.068 543.578 345.682 559.381 354.841C578.259 365.781 594.099 382.675 609.645 397.785C627.206 414.852 643.852 432.762 660.658 450.562L727.734 520.521C729.354 520.444 729.77 518.622 731.229 517.897C739.823 513.62 744.534 526.376 747.927 528.81C766.861 542.393 770.006 545.627 765.739 569.159C771.682 576.996 776.803 582.84 782.546 591.191C783.177 590.889 783.819 590.608 784.47 590.35C788.563 588.767 793.788 588.998 797.784 590.843C809.704 586.742 822.465 583.964 833.996 578.852C853.79 570.076 878.098 552.971 898.9 549.377C906.063 548.14 915.407 548.563 921.307 553.178C925.187 556.213 927.139 560.906 927.733 565.688C930.021 584.115 917.511 604.859 906.452 618.522C885.127 644.869 816.065 693.561 781.99 697.021C774.832 697.748 766.306 696.826 760.648 691.976C751.076 683.769 743.994 654.875 743.318 642.811C739.148 637.861 739.232 634.708 740.368 628.541C737.611 625.847 733.605 621.415 730.619 619.466C725.637 621.337 722.139 622.165 717.006 623.394C720.945 631.916 725.949 640.734 730.395 649.072C747.374 680.914 764.312 712.599 780.661 744.776C783.885 744.021 786.01 743.247 789.153 744.1C791.98 746.456 807.748 777.594 810.774 783.181C811.979 785.373 813.109 787.777 814.219 790.031C812.351 792.995 808.566 797.718 806.356 800.658C812.957 812.59 824.019 830.714 829.233 842.282C831.786 840.71 834.113 838.767 837.044 839.449C841.239 842.836 849.34 861.385 852.282 867.506C868.225 867.639 859.162 879.578 871.594 883.709L872.359 883.956C873.782 885.607 874.242 887.406 875.009 889.476C877.845 890.107 878.845 890.2 881.425 891.766C884.533 893.652 883.965 896.348 884.997 897.801C893.655 896.974 889.968 900.456 895.373 904.524C897.126 904.521 897.427 904.462 899.178 904.851C899.895 905.417 900.466 905.882 900.67 906.736C902.143 912.922 907.71 910.112 911.586 912.179C912.922 912.816 913.044 914.822 913.454 915.815C914.353 917.992 918.267 917.593 920.792 918.781C939.123 927.409 962.468 933.278 978.277 946.097C986.152 952.483 982.83 970.881 975.304 976.674C930.422 1011.23 875.124 986.445 827.387 973.476C812.839 969.741 798.374 969.595 784.175 964.23C766.571 957.578 754.516 950.987 756.917 929.759C758.064 919.62 758.889 908.77 761.25 898.67C762.745 892.277 765.17 886.006 766.453 879.553C768.373 871.074 765.377 861.735 772.578 855.448C768.527 849.23 764.031 843.122 759.688 837.089C748.804 840.971 744.529 839.194 733.75 840.607C733.542 840.438 733.333 840.271 733.128 840.1C729.093 836.713 702.039 805.432 702.115 802.853C702.214 799.49 706.161 797.59 708.454 795.653C696.367 781.154 684.374 766.578 672.475 751.924C649.939 724.431 615.032 682.717 602.314 650.25C583.65 644.029 583.315 627.603 583.519 611.571C560.847 627.908 537.782 643.693 514.346 658.913C491.925 673.604 470.19 687.497 446.766 700.528C392.676 730.623 352.416 741.41 291.922 724.035C262.43 763.894 222.089 756.127 181.782 736.754C166.559 729.438 146.229 717.159 136.497 703.267C132.657 697.785 129.955 689.189 126.809 683.162C121.342 676.265 113.705 669.515 110.11 661.2C101.652 644.091 102.294 618.726 93.9899 601.769C82.6535 579.437 73.6186 559.821 65.6883 535.771C35.0329 442.807 29.6402 335.661 71.9776 245.385C82.3834 223.196 93.475 213.248 116.235 205.839C113.167 201.193 111.404 194.274 108.31 190.256C105.209 186.227 98.1508 182.339 94.2379 178.418C88.4437 172.612 87.3796 166.753 83.5418 159.916C81.5023 156.283 76.5586 151.474 75.2902 147.666C70.7027 133.892 75.0922 122.582 77.6426 109.379C79.3753 100.409 78.6994 91.9729 82.9739 83.0546C86.8398 74.989 91.5137 70.8575 99.6518 67.7891C101.411 64.6578 103.086 61.4991 105.408 58.7391C118.083 43.668 142.216 33.6748 161.306 31.6997Z"/><path fill="#89676B" transform="scale(0.390625 0.390625)" d="M605.073 493.292C631.404 491.269 641.6 499.443 657.682 520.558C663.778 528.562 668.169 537.132 673.109 545.831C687.996 572.041 699.968 599.846 713.453 626.794C726.551 652.751 740.675 678.54 754.195 704.302L772.025 738.656C775.408 745.331 778.728 752.574 782.355 759.028C781.32 761.404 780.048 763.67 778.559 765.792C764.874 785.42 743.894 798.744 720.31 802.786C714.789 793.851 702.089 780.255 694.864 771.609C672.502 744.846 616.832 679.47 608.023 649.483C604.986 639.144 604.298 627.232 604.707 616.511C605.517 595.303 609.326 573.992 612.212 552.984C613.578 543.042 615.59 532.097 615.201 522.06C615.124 520.052 614.832 518.736 613.662 517.103C610.587 515.607 607.954 517.695 605.633 519.763C600.33 524.49 595.305 529.748 590.343 534.816C578.301 547.251 566.601 560.134 554.543 572.581C534.893 593.04 514.528 612.799 493.484 631.821C468.111 654.872 432.846 685.193 399.965 696.289C368.827 706.797 328.175 703.343 296.493 696.216C296.453 666.418 292.385 646.048 285.093 617.839C295.532 611.334 305.635 604.304 315.363 596.777C319.223 593.792 327.691 585.756 331.509 583.956C384.714 558.882 440.857 540.157 496.837 522.328L532.604 511.103C558.361 502.796 577.664 496.074 605.073 493.292Z"/><path fill="#DBE5D4" transform="scale(0.390625 0.390625)" d="M69.7043 262.251C71.111 263.504 77.8127 277.51 79.6163 280.735C90.6185 300.406 108.307 322.595 126.413 336.293C126.411 336.702 126.414 337.111 126.421 337.52C126.553 344.748 128.304 362.249 133.615 367.386L134.267 367.216C135.672 363.35 131.678 346.288 130.972 340.373C149.502 356.187 181.375 379.424 202.697 390.101C204.382 396.579 206.871 403.341 208.526 409.767C211.774 422.376 215.539 436.111 217.936 448.845C203.44 411.229 184.011 364.515 135.731 368.305C133.661 368.467 134.189 368.523 132.998 370.101C116.742 370.073 101.804 389.401 97.2716 403.644C88.0317 432.678 97.1649 461.249 110.157 487.401C92.833 470.52 77.5299 447.966 65.6189 427.062C64.834 425.685 64.0728 425.672 62.7346 425.521C59.1141 427.965 64.8462 434.226 66.4738 437.254C79.9992 462.42 98.6544 482.019 118.758 502C108.24 496.036 98.116 489.401 88.449 482.137C84.6306 479.234 76.7125 471.199 71.7093 469.989C71.0454 469.828 70.8728 470.354 70.4119 470.909L70.534 472.146C75.0517 479.239 111.973 505.118 121.839 508.07C131.951 520.273 141.951 535.516 152.453 548.187C169.163 568.348 185.85 587.388 204.335 605.988C212.915 614.26 223.311 624.845 233.824 630.39C243.095 635.28 251.264 633.729 260.585 630.59C267.081 658.038 270.362 679.658 270.5 708.268C266.152 710.306 262.22 712.141 257.681 713.761C227.066 724.688 190.979 714.857 162.802 701.324C141.663 691.171 115.317 671.086 110.22 647.145C107.641 635.032 106.281 624.338 102.18 612.329C115.855 634.998 140.221 663.745 162.061 678.98C170.499 684.866 179.76 689.195 189.161 692.994C195.198 695.434 225.582 706.175 229.87 704.306C230.914 698.906 213.906 697.04 209.175 695.321C193.554 689.645 175.305 683.632 162.205 673.196C123.642 642.478 93.4124 596.996 76.1111 551.075C42.0853 458.983 33.4872 354.999 69.7043 262.251Z"/><path fill="#310917" transform="scale(0.390625 0.390625)" d="M139.584 607.592C142.492 608.083 163.573 627.041 167.178 630.028C184.358 644.517 202.281 658.103 220.873 670.729C227.103 674.957 233.4 679.084 239.764 683.108C244.077 685.789 251.427 689.936 255.171 692.942C255.552 694.513 255.275 694.279 254.457 696.157C249.882 695.413 228.271 681.353 223.226 677.919C193.705 657.821 164.667 635.53 138.932 610.747C138.506 610.337 139.395 608.208 139.584 607.592Z"/><path fill="#DBE5D4" transform="scale(0.390625 0.390625)" d="M133.399 372.882C134.839 373.217 139.07 372.424 140.966 372.449C168.956 373.148 185.495 391.271 197.36 415.017C214.799 449.919 225.382 489.677 248.579 521.446C251.058 524.841 259.286 530.337 262.872 532.944C254.635 546.585 251.476 556.447 247.793 571.921C247.235 574.264 246.77 576.133 248.051 578.146C249.443 578.552 249.37 578.482 250.811 578.181C252.498 575.249 255.678 558.382 258.256 552.643C262.087 544.116 262.948 538.179 272.515 533.652C269.658 542.984 265.527 552.09 263.536 561.74C262.81 565.253 259.015 575.101 263.6 576.24C266.273 574.544 266.578 567.511 267.601 564.268C271.204 552.855 273.994 539.09 280.709 529.097C285.605 521.812 292.209 515.297 297.416 508.202C315.508 484.121 339.859 445.643 374.301 468.949C379.848 472.702 389.036 483.51 389.12 490.33C389.322 506.864 376.844 525.725 367.125 538.07C361.962 544.605 355.129 552.169 349.497 558.436C356.171 542.968 360.969 526.757 363.789 510.148C364.498 506.022 367.05 491.347 365.037 488.505C363.521 488.131 364.206 488.029 362.9 488.706C362.029 491.67 361.295 500.552 360.717 504.248C359.244 513.318 357.306 522.306 354.91 531.177C351.894 542.072 347.397 556.824 341.072 566.062C330.829 581.022 290.946 609.069 274.226 618.452C265.356 623.43 250.513 631.11 239.961 627.852C215.058 620.162 145.593 533.395 128.5 509.138C123.877 502.576 119.778 495.548 115.996 488.472C102.912 463.992 92.9653 433.195 101.49 405.704C104.91 394.675 111.906 383.903 122.148 378.166C125.504 376.285 129.158 375.176 132.51 373.372C132.808 373.212 133.103 373.045 133.399 372.882Z"/><path fill="#310917" transform="scale(0.390625 0.390625)" d="M135.366 466.06C139.814 466.903 152.547 478.098 157.16 481.667C171.318 492.846 186.515 502.642 202.541 510.923C211.808 515.826 221.46 519.966 231.4 523.299C235.687 524.763 251.785 528.664 254.078 530.196C254.622 531.76 254.547 530.899 253.586 532.92C248.797 533.608 238.437 530.388 233.427 528.902C196.314 517.896 164.752 494.285 135.473 469.799C134.333 468.846 135.078 467.209 135.366 466.06Z"/><path fill="#89676B" transform="scale(0.390625 0.390625)" d="M516.258 350.709C516.866 350.665 517.475 350.643 518.084 350.646C556.558 350.407 570.371 367.144 596.619 391.746C634.164 426.937 667.256 466.183 703.574 502.542C714.599 513.58 725.494 524.723 736.568 535.708C736.503 538.497 736.272 541.28 735.876 544.042C732.399 566.725 719.841 578.694 702.03 591.901C688.037 562.713 665.553 512.207 637.897 494.411C621.747 484.019 594.345 488.92 576.105 493.348C572.476 466.842 570.251 449.833 563.035 423.909L562.792 423.201C560.903 417.686 557.62 405.914 552.044 402.835C549.906 401.72 546.791 404.516 546.022 406.258C528.884 445.086 506.147 481.278 482.48 516.429C476.197 525.761 469.522 526.037 459.45 529.384C449.723 532.616 440.022 535.927 430.349 539.317C397.997 550.622 373.111 559.938 341.994 573.507C364.404 549.081 392.321 524.109 393.103 488.781C398.388 481.344 409.937 471.734 414.31 463.19C415.674 460.527 413.484 456.374 412.336 453.63C420.16 448.097 427.975 442.722 436.166 437.744C445.279 432.206 455.202 426.959 463.508 420.245C476.99 409.346 495.752 368.722 502.687 351.981C507.343 351.327 511.583 351.041 516.258 350.709Z"/><path fill="#89676B" transform="scale(0.390625 0.390625)" d="M161.648 36.1994C167.809 35.7241 174.004 35.9271 180.121 36.8048C185.952 37.6022 191.259 39.3538 197.072 40.4848C204.016 41.8358 209.55 42.1076 216.717 44.2147C232.646 48.8975 248.253 60.6274 259.163 73.0096C263.017 77.3835 264.912 85.8421 263.715 91.3966C262.274 98.0835 259.363 101.111 254.042 104.775C256.782 94.0595 255.518 84.6136 248.692 75.4971C246.979 73.209 241.335 66.8331 238.676 66.5416L237.903 67.3421C238.711 69.9525 247.21 78.0755 249.453 83.6596C252.816 92.0332 252.573 97.9655 249.555 106.232C244.299 107.075 241.751 107.026 236.415 106.964C235.273 101.824 233.319 96.7307 229.136 93.3762C227.26 91.8717 223.798 88.8846 221.597 89.0012L220.84 90.0579C221.276 92.6593 227.935 95.638 229.686 98.0584C231.62 100.734 232.126 103.298 232.864 106.399C228.451 106.507 222.64 106.22 218.118 106.127C216.079 97.9704 208.824 90.9803 202.113 86.2665C199.39 84.3542 194.84 80.0828 191.936 83.2107L192.288 84.0782C201.755 88.7567 210.56 94.3687 214.334 104.699L214.601 105.438C210.962 105.613 204.608 105.851 201.885 108.34C201.641 110.907 206.033 111.594 207.987 113.207C218.667 122.024 216.839 128.348 211.924 139.598C207.225 131.428 200.189 127.562 191.321 125.062C187.332 123.937 172.591 123.196 171.491 127.724C173.001 128.293 175.483 127.915 177.181 127.739C187.323 126.687 193.774 127.653 202.201 133.614C206.068 136.77 207.298 138.068 209.344 142.671C206.047 152.354 203.567 158.169 196.029 165.029C194.276 155.902 190.522 146.779 179.673 145.748C166.39 144.485 157.314 160.988 156.717 172.534C156.205 182.429 162.734 188.58 169.03 195.217L164.899 198.691C159.102 196.095 156.814 193.046 151.708 190.56C155.043 196.912 156.965 198.445 163.179 201.678C162.071 202.708 160.829 203.765 159.686 204.771C156.684 204.383 153.569 203.609 150.773 204.244L150.647 204.909C152.19 206.524 153.847 206.886 155.978 207.675C153.142 209.318 150.673 210.432 147.7 211.799C144.508 210.015 141.789 207.374 138.361 207.936C138.651 209.241 141.385 211.209 142.805 213.011L142.691 213.954C135.158 218.004 132.85 209.194 128.898 207.898C128.594 208.861 128.845 208.483 128.239 209.089C127.933 208.715 127.627 208.341 127.322 207.968C125.475 211.153 131.822 214.676 134.156 216.47C124.955 213.321 122.795 211.088 118.935 202.412C117.327 198.799 114.856 194.849 114.197 190.918L115.757 189.486L115.679 188.766C112.674 185.863 104.68 181.992 100.361 178.484C90.9566 170.846 92.2254 166.658 87.2703 158.171C82.9991 150.855 78.9966 149.859 77.806 139.02C76.3731 127.909 80.335 117.406 82.1325 106.717C84.53 92.459 84.8361 74.0921 103.335 72.1214C108.017 50.6802 142.388 38.1577 161.648 36.1994Z"/><path fill="#310421" transform="scale(0.390625 0.390625)" d="M116.896 92.5701C118.103 93.3192 117.693 92.9428 118.409 94.2672C116.826 96.3959 112.027 96.9648 109.383 99.6722C93.836 115.59 92.6152 142.477 110.974 156.819C112.828 158.268 119.065 161.79 119.934 163.491L119.299 165.09C117.306 164.353 115.381 163.446 113.543 162.38C104.618 157.095 98.1137 148.53 95.4181 138.514C91.1771 122.107 98.7927 96.8696 116.896 92.5701Z"/><path fill="#310421" transform="scale(0.390625 0.390625)" d="M123.835 104.021C125.464 103.833 125.616 103.668 127.098 104.403C127.144 106.684 120.124 108.887 117.917 110.994C115.262 113.528 113.996 114.794 112.262 118.153C109.15 124.285 108.668 131.42 110.929 137.914C114.727 149.068 125.058 152.134 134.78 156.087C136.044 156.601 135.889 157.166 136.276 158.398C134.253 159.254 129.996 158.126 127.907 157.363C119.871 154.43 112.447 148.573 108.754 140.788C105.573 134.056 105.245 126.325 107.845 119.348C110.967 111.162 116.35 107.441 123.835 104.021Z"/><path fill="#310421" transform="scale(0.390625 0.390625)" d="M147.017 78.6924C157.524 77.6613 172.91 82.6943 179.588 91.3223C180.024 91.8855 179.772 92.0229 179.532 92.6711C176.742 92.5677 171.004 87.5768 166.712 85.5567C156.72 81.3132 147.718 80.8657 137.261 83.9621C135.662 84.4358 131.827 85.8131 130.5 85.6248L130.061 84.8857C131.966 80.6829 142.821 79.2248 147.017 78.6924Z"/><path fill="#310421" transform="scale(0.390625 0.390625)" d="M176.204 135.082C186.857 134.368 200.954 139.715 201.476 152.43C201.538 153.935 201.379 155.338 200.266 156.433L199.308 156.418C198.076 154.798 198.448 154.664 198.166 152.281C198.018 151.825 197.864 151.371 197.706 150.919C195.924 145.832 193.25 142.837 188.307 140.47C184.43 138.613 177.062 137.506 172.995 139.176C171.407 139.827 171.194 139.93 169.494 139.994L168.824 139.243L168.899 138.018C170.628 135.941 173.569 135.636 176.204 135.082Z"/><path fill="#310421" transform="scale(0.390625 0.390625)" d="M180.777 51.6906C187.453 50.6598 208.961 53.2351 213.794 58.3213L213.663 59.2304L212.736 59.8284C210.565 59.826 208.367 58.6938 206.286 57.8515C195.062 54.4649 184.571 54.5769 173.22 56.2853C171.977 56.4724 171.833 56.1524 171.116 55.3918L171.316 54.3773C173.29 52.189 177.789 52.0561 180.777 51.6906Z"/><path fill="#310421" transform="scale(0.390625 0.390625)" d="M86.8621 110.116L87.8513 110.562L88.1868 111.491C87.4913 114.904 84.8252 125.376 84.8288 127.956C84.8555 131.817 85.2198 135.669 85.9177 139.467C86.4657 142.378 88.2168 147.108 86.9923 149.501C78.2158 143.486 81.2457 117.904 86.8621 110.116Z"/><path fill="#310421" transform="scale(0.390625 0.390625)" d="M142.411 42.9876C143.74 42.895 143.68 42.8487 144.936 43.2477C143.824 47.3223 125.954 49.8186 121.806 69.855C120.303 70.1956 120.11 70.0358 119.162 69.2021C118.674 67.0012 119.293 64.9471 120.089 62.8422C123.787 53.0616 133.367 47.0962 142.411 42.9876Z"/><path fill="#310421" transform="scale(0.390625 0.390625)" d="M189.968 113.606C190.825 113.543 191.684 113.493 192.544 113.457C198.62 113.218 211.862 120.035 211.966 126.4C210.873 128.095 211.59 127.47 209.695 128.293C199.006 111.457 191.558 120.002 187.108 115.687C187.651 114.382 188.313 114.455 189.968 113.606Z"/><path fill="#310421" transform="scale(0.390625 0.390625)" d="M117.612 177.697C120.961 178.57 130.509 186.113 134.417 188.137C135.53 188.713 141.832 191.882 142.354 192.319L142.306 193.921C135.823 194.825 122.899 184.667 118.271 180.709C117.236 179.824 117.584 178.92 117.612 177.697Z"/><path fill="#310421" transform="scale(0.390625 0.390625)" d="M172.092 42.1294C173.182 42.0488 173.686 42.0961 174.782 42.1442L175.281 42.7288C173.725 44.5832 165.317 47.1584 162.573 48.8439C160.225 50.2858 158.701 51.3862 156.457 53.0816C155.964 53.5253 155.637 53.5836 154.995 53.8741L154.049 53.3939C152.58 48.0191 167.939 42.9805 172.092 42.1294Z"/><path fill="#310421" transform="scale(0.390625 0.390625)" d="M179.039 61.6288C182.598 61.4707 194.775 60.5969 196.855 63.8334C195.92 65.1044 196.515 64.7169 195.063 65.1138C190.233 64.2085 178.878 65.0457 176.493 63.2237L176.876 62.3115L179.039 61.6288Z"/><path fill="#310421" transform="scale(0.390625 0.390625)" d="M141.216 140.989C146.428 142.639 156.52 147.137 155.062 153.875L153.444 152.268C149.366 148.14 146.208 146.564 141.148 143.628C140.407 142.283 140.634 143.043 141.216 140.989Z"/><path fill="#310421" transform="scale(0.390625 0.390625)" d="M205.758 46.5876C210.126 45.7121 223.671 48.7173 225.715 53.2364C225.228 53.3824 223.964 53.8052 223.526 53.5666C219.235 51.2275 208.712 49.8729 205.758 46.5876Z"/><path fill="#310421" transform="scale(0.390625 0.390625)" d="M97.7608 80.369C98.6646 80.9383 98.269 80.5602 98.8975 81.5537C93.7528 88.2253 94.2461 90.8306 90.9572 96.301L89.7914 95.2413C88.2695 89.8996 93.3762 83.0154 97.7608 80.369Z"/><path fill="#310421" transform="scale(0.390625 0.390625)" d="M135.531 180.306C137.888 180.422 143.667 184.56 147.603 186.211L146.971 188.225C142.952 189.041 135.557 184.778 135.531 180.306Z"/><path fill="#310421" transform="scale(0.390625 0.390625)" d="M120.699 195.392C122.879 195.716 127.891 197.242 129.733 198.561C131.186 199.6 130.906 200.112 131.063 201.693C127.368 201.598 121.098 199.69 120.699 195.392Z"/><path fill="#310421" transform="scale(0.390625 0.390625)" d="M143.333 161.609C147.376 162.443 148.032 169.35 148 172.918C143.282 171.91 143.481 165.612 143.333 161.609Z"/><path fill="#310421" transform="scale(0.390625 0.390625)" d="M104.745 171.207C107.706 171.874 112.586 178.413 113.956 181.025C108.59 180.936 105.732 175.967 104.745 171.207Z"/><path fill="#FFFFFE" transform="scale(0.390625 0.390625)" d="M264.724 100.356C269.922 106.505 269.111 136.008 265.115 143.522C263.276 147.252 261.979 154.824 260.63 158.09C256.09 169.089 274.212 180.285 272.792 187.587C270.229 191.81 264.637 192.173 260.624 194.108C255.161 196.742 261.599 207.773 254.16 210.422C248.773 209.75 249.138 205.017 245.123 206.608C244.155 207.95 244.166 207.832 244.074 209.475C246.666 214.796 255.767 211.607 254.644 218.903C254.052 222.753 248.521 227.917 246.99 231.628C245.496 235.248 244.774 245.681 239.99 245.784C230.02 246 218.187 242.346 208.479 239.815C203.103 238.609 183.411 225.587 181.758 225.79L181.641 226.655C183.79 232.038 192.702 237.456 197.602 240.222C196.002 259.574 193.792 271.367 203.617 288.304C199.491 295.905 195.036 298.118 187.598 301.934C175.418 297.816 155.873 285.533 145.48 278.02C132.459 268.946 124.334 261.301 112.78 250.526C115.665 242.025 119.484 225.076 121.78 215.727C127.03 218.984 130.109 219.704 136.594 218.994C152.872 217.212 162.045 210.026 172.05 198.098L172.564 198.485C175.376 200.576 178.44 202.696 182.111 201.982C185.093 201.402 188.26 198.597 187.698 195.347C186.39 194.309 187.134 194.585 185.339 194.648C183.77 195.813 181.914 197.525 179.973 196.9C173.553 194.183 167.403 186.733 163.608 180.946C156.699 170.413 167.249 146.594 181.533 150.916C188.395 152.992 190.895 161.487 193.301 167.363C193.762 168.488 194.373 169.017 195.551 169.291C203.613 166.141 208.102 157.045 211.447 149.426C212.759 146.161 213.622 141.818 215.602 138.945C223.304 127.771 219.941 117.306 209.52 110.103C216.698 109.903 224.495 109.66 231.604 110.438C245.568 111.966 254.047 109.405 264.724 100.356Z"/><path fill="#34051B" transform="scale(0.390625 0.390625)" d="M176.09 157.955C189.373 157.635 190.674 177.289 188.244 186.646C186.973 187.786 187.686 187.513 186.087 187.619C183.129 184.942 186.222 177.914 183.079 174.071L182.027 173.982C176.347 178.83 184.312 181.962 184.176 186.303C182.909 187.755 183.558 187.33 181.17 187.561C170.444 181.826 173.865 174.226 182.018 168.345L181.947 167.515C180.565 165.353 179.763 164.086 177.239 163.372C171.875 164.476 172.743 171.413 169.657 174.834L168.849 174.866C165.325 168.952 171.181 161.198 176.09 157.955Z"/><path fill="#34051B" transform="scale(0.390625 0.390625)" d="M249.896 141.663C253.827 142.004 259.387 143.489 261.598 147.043C262.339 148.233 261.738 151.314 260.155 152.118C252.371 148.842 254.115 144.151 243.538 147.276L242.908 147.467C240.341 148.688 233.782 154.715 232.004 154.183C232.869 146.601 243.291 142.49 249.896 141.663Z"/><path fill="#34051B" transform="scale(0.390625 0.390625)" d="M248.427 163.53C250.928 162.966 253.148 161.896 255.128 162.461C255.688 163.621 255.519 163.803 255.414 165.134C254.055 169.878 253.346 172.732 250.41 176.8L250.059 176.482C248.412 174.975 248.43 174.869 246.278 174.533C245.991 172.476 246.301 169.942 245.648 167.94C245.295 166.857 244.059 167.398 241.995 166.552C243.021 165.104 246.592 164.137 248.427 163.53Z"/><path fill="#310917" transform="scale(0.390625 0.390625)" d="M250.41 176.8C245.419 178.729 234.725 173.161 235.845 168.914L236.749 168.441C240.884 170.757 240.05 172.512 246.278 174.533C248.43 174.869 248.412 174.975 250.059 176.482L250.41 176.8Z"/><path fill="#FFFFFE" transform="scale(0.390625 0.390625)" d="M379.645 303.396C381.156 304.279 419.551 366.543 424.392 374.253C418.611 379.703 405.099 391.705 402.21 398.236C396.248 411.712 396.548 418.136 387.322 430.823C384.451 429.772 381.034 428.352 377.948 428.965C372.598 430.027 358.104 451.452 354.428 456.659C337.809 458.326 330.676 462.428 318.892 473.73C316.021 476.575 313.749 479.197 311.098 482.261C300.219 466.812 286.371 434.704 279.864 416.69C286.844 403.252 295.906 390.919 302.635 377.29C304.079 374.365 305.866 371.144 306.776 368.038C307.608 365.198 307.641 360.376 309.118 357.992C313.008 351.713 324.579 343.227 329.897 336.435C331.882 333.899 331.121 331.62 331.767 330.689C332.45 329.703 347.876 325.042 350.288 323.94C361.046 319.023 370.8 311.162 379.645 303.396Z"/><path fill="#FFFFFE" transform="scale(0.390625 0.390625)" d="M478.173 147.387C495.644 164.876 511.173 195.661 514.49 220.109C484.841 243.026 457.434 270.25 428.912 294.642C426.212 296.951 416.048 305.259 414.401 307.511C414.219 309.313 414.29 309.37 413.507 311.085C411.043 316.127 403.571 318.754 400.219 326.132C393.836 315.303 387.206 304.62 380.335 294.093C378.469 291.258 366.921 274.796 366.305 273.07C366.58 270.968 367.286 270.278 368.506 268.448C369.044 267.133 379.904 258.39 381.674 257.109C384.39 254.284 389.065 252.061 390.561 250.2L390.434 249.508L388.337 248.7C389.025 241.059 392.439 236.7 381.922 234.706C404.304 213.897 425.646 192.184 448.739 172.137C457.727 164.333 468.355 153.998 478.173 147.387Z"/><path fill="#310917" transform="scale(0.390625 0.390625)" d="M381.674 257.109L383.759 256.318L384.252 256.677C382.725 260.445 375.049 267.539 371.796 270.196C375.069 275.453 399.154 310.084 399.601 311.989L398.983 312.575C396.967 312.315 395.221 311.222 394.117 309.502C389.434 302.203 384.446 295.107 379.571 287.954C375.934 282.618 369.695 274.69 368.506 268.448C369.044 267.133 379.904 258.39 381.674 257.109Z"/><path fill="#310917" transform="scale(0.390625 0.390625)" d="M414.401 307.511C414.219 309.313 414.29 309.37 413.507 311.085C411.318 312.402 408.626 315.671 404.701 318.101C407.341 314.107 410.933 310.779 414.401 307.511Z"/><path fill="#310917" transform="scale(0.390625 0.390625)" d="M440.861 190.381C450.963 200.627 467.176 228.452 474.722 241.299C470.779 245.612 464.083 251.205 459.498 255.328C452.607 261.526 445.22 268.719 438.166 274.596C435.999 271.876 431.205 264.02 428.923 260.661C423.609 252.919 418.078 245.329 412.337 237.899C409.694 234.434 401.692 226.72 404.357 222.878L405.495 222.782C407.678 223.98 419.864 240.697 422.032 243.578C427.734 250.766 433.879 260.416 439.037 268.182C449.089 259.382 459.483 249.342 469.322 240.179C464.979 232.385 458.771 222.509 453.763 215.076C445.533 222.974 437.485 231.059 429.624 239.324C427.35 236.666 424.229 231.694 421.793 228.602C418.98 225.031 414.85 220.567 412.51 216.998C420.796 208.105 431.966 199.116 440.861 190.381Z"/><path fill="#FFFFFE" transform="scale(0.390625 0.390625)" d="M423.967 211.823C425.58 212.69 434.351 224.42 436.066 226.586C434.353 228.655 432.281 230.886 430.473 232.915C429.441 232.212 419.759 219.494 417.953 217.358L423.967 211.823Z"/><path fill="#FFFFFE" transform="scale(0.390625 0.390625)" d="M432.245 203.862C434.455 204.487 442.103 216.203 443.882 218.795L439.235 223.579C434.897 218.855 430.836 213.884 427.07 208.692C428.705 207.012 430.505 205.439 432.245 203.862Z"/><path fill="#FFFFFE" transform="scale(0.390625 0.390625)" d="M440.831 196.015C443.572 198.558 449.856 208.195 452.083 211.669L447.224 215.943C444.668 213.721 438.062 203.968 435.824 200.767L440.831 196.015Z"/><path fill="#310917" transform="scale(0.390625 0.390625)" d="M475.966 160.302C482.533 162.663 503.32 206.595 505.9 214.81C503.654 217.389 498.353 221.745 495.614 224.183C491.345 228.044 487.17 232.006 483.09 236.065C472.276 219.585 463.318 201.725 451.202 185.982C450.427 184.975 449.833 182.386 449.657 181.079L450.216 180.684C453.16 182.503 457.788 190.062 459.928 193.242C468.138 205.151 475.666 217.778 482.985 230.255C487.17 225.752 496.174 216.793 500.997 213.447C499.76 211.351 498.851 209.106 497.928 206.859C495.006 199.751 491.626 192.893 488.164 186.032C484.225 189.458 476.613 198.262 472.596 199.458C471.688 199.259 470.797 199.235 470.251 198.383C465.69 191.255 461.34 183.878 455.483 177.655L455.002 177.149C460.71 172.439 470.123 164.203 475.966 160.302Z"/><path fill="#FFFFFE" transform="scale(0.390625 0.390625)" d="M475.506 165.951C478.348 168.333 484.233 178.969 486.284 182.58L480.612 187.673C477.629 182.666 472.83 176.089 469.43 171.156C471.353 169.36 473.481 167.645 475.506 165.951Z"/><path fill="#FFFFFE" transform="scale(0.390625 0.390625)" d="M466.137 173.361C470.278 178.768 474.275 184.284 478.126 189.901C476.569 191.597 474.999 193.505 473.494 195.266L460.948 177.884C462.394 176.411 464.52 174.723 466.137 173.361Z"/><path fill="#34051B" transform="scale(0.390625 0.390625)" d="M392.028 231.274C392.259 231.274 393.862 231.286 394.049 231.488C407.176 245.737 420.31 264.296 429.815 281.221C430.48 282.405 429.334 283.715 428.808 284.584C426.443 284.129 423.862 279.029 422.461 276.793C416.179 266.766 409.532 257.011 402.764 247.31C399.379 242.459 394.489 237.928 391.381 232.984L392.028 231.274Z"/><path fill="#310917" transform="scale(0.390625 0.390625)" d="M400.767 247.808C402.216 249.39 402.116 248.809 402.341 250.589C400.136 253.561 382.112 271.765 379.496 272.809C377.924 271.028 376.825 269.644 378.191 267.458C382.136 266.746 384.784 262.784 387.685 259.918C391.886 255.713 396.25 251.673 400.767 247.808Z"/><path fill="#34051B" transform="scale(0.390625 0.390625)" d="M401.918 307.945C400.802 307.773 401.313 307.984 400.39 307.3C401.287 303.991 419.55 287.129 423.115 285.592L423.759 286.068C423.93 290.123 409.746 301.001 405.787 305.898L405.391 306.397C405.643 308.15 405.935 308.888 405.178 310.479L404.027 311.374C402.01 310.93 402.021 309.852 401.918 307.945Z"/><path fill="#310421" transform="scale(0.390625 0.390625)" d="M401.918 307.945L405.391 306.397C405.643 308.15 405.935 308.888 405.178 310.479L404.027 311.374C402.01 310.93 402.021 309.852 401.918 307.945Z"/><path fill="#310917" transform="scale(0.390625 0.390625)" d="M432.199 287.333L433.095 287.781L433.051 288.765C430.768 292.686 422.181 299.439 418.242 301.885L417.522 301.894C418.069 299.257 429.543 289.168 432.199 287.333Z"/><path fill="#FFFFFE" transform="scale(0.390625 0.390625)" d="M521.025 223.91C544.765 222.144 564.889 234.531 584.823 246.074C566.58 262.483 548.142 278.674 529.513 294.642C503.328 316.868 480.044 335.371 456.581 361.167C461.713 350.32 467.852 337.743 463.741 325.548C463.086 323.602 460.799 318.903 459.297 317.927C444.18 308.111 445.569 323.504 445.3 330.956C444.906 341.854 436.846 357.406 430.773 365.475C421.991 350.283 416.012 341.538 405.666 327.17C410.051 322.755 448.422 283.337 451.479 282.151C452.089 283.945 455.903 285.177 457.723 285.969C472.751 292.508 484.92 301.502 497.17 312.36L497.869 312.226C499.206 310.298 499.122 311.212 498.883 309.466C489.331 300.5 464.681 282.183 452.275 281.128C453.434 279.493 456.416 277.124 458.016 275.732C472.437 263.191 486.815 250.561 501.881 238.794C505.266 236.15 508.77 233.447 511.989 230.635C512.553 230.018 513.381 229.277 514.004 228.683L521.025 223.91Z"/><path fill="#310917" transform="scale(0.390625 0.390625)" d="M511.989 230.635C512.553 230.018 513.381 229.277 514.004 228.683C527.391 232.085 537.473 236.14 549.337 243.232L549.846 244.114L548.666 245.877C546.869 246.14 535.228 239.107 532.059 237.878C525.964 235.517 518.405 232.13 511.989 230.635Z"/><path fill="#310917" transform="scale(0.390625 0.390625)" d="M518.269 225.966C533.039 226.445 557.851 239.968 568.482 250.149C564.775 254.059 548.45 267.703 543.258 272.059C533.176 280.519 516.682 296.515 506.383 303.702C490.619 293.563 483.326 285.775 463.721 278.88C462.194 278.516 459.578 277.948 458.715 276.714C461.558 274.193 465.619 276.441 468.839 277.478C482.841 281.989 494.676 290.996 506.316 299.684C522.759 284.3 545.819 264.779 563.119 250.115C555.586 243.858 543.473 237.471 534.619 233.27C531.244 231.669 519.173 228.911 517.792 227.269L518.269 225.966Z"/><path fill="#34051B" transform="scale(0.390625 0.390625)" d="M552.485 245.545C553.904 245.838 553.3 245.517 554.335 246.588C553.69 249.162 510.291 286.683 504.764 290.35C491.393 282.046 484.848 278.552 469.899 273.525C468.142 273.111 466.772 272.886 465.585 271.555L465.985 270.798C473.787 267.836 497.411 281.932 504.422 286.123C514.4 277.806 524.182 269.257 533.761 260.483C538.041 256.637 547.407 247.15 552.485 245.545Z"/><path fill="#89676B" transform="scale(0.390625 0.390625)" d="M604.353 526.477C604.138 528.926 597.038 546.675 595.892 550.505C590.581 568.255 585.281 587.458 583.784 605.92C572.618 612.587 556.003 625.207 544.387 633.014C507.801 657.604 473.309 680.909 434.332 701.708C388.299 726.273 345.512 735.29 294.561 719.562L293.703 718.829C296.957 712.991 296.191 707.602 296.139 700.978C314.862 704.752 332.753 707.371 351.925 707.503C372.428 707.644 393.361 704.816 412.344 696.758C458.756 677.057 529.485 605.856 565.477 567.971C578.491 554.272 590.921 539.737 604.353 526.477Z"/><path fill="#D57266" transform="scale(0.390625 0.390625)" d="M771.715 881.098C789.54 896.228 812.273 893.538 833.633 888.899C835.088 890.131 836.449 891.708 837.751 893.122C823.382 900.222 835.446 907.283 839.077 900.514L842.252 897.439C844.887 899.453 847.33 901.756 849.796 903.982C848.125 905.438 843.121 909.372 842.415 911.008C842.6 913.594 844.458 914.997 846.954 915.122C849.409 913.888 850.578 910.034 853.503 906.806C855.476 908.548 858.043 910.7 859.872 912.5C857.714 914.743 847.12 923.812 858.263 924.025C859.753 924.054 860.135 921.757 860.766 920.839C861.655 918.188 862.441 917.74 864.541 915.843C866.156 917.153 867.789 918.75 869.736 919.319L871.776 918.513C871.784 922.694 865 924.712 864.608 928.442C865.209 930.339 864.667 929.605 866.253 930.747C871.018 931.52 871.889 927.824 874.589 924.471L882.137 928.733C879.406 932.512 876.582 934.001 876.793 937.678C878.297 939.932 880.702 940.765 883.186 939.503C884.344 938.258 884.071 934.916 886.227 931.752L887.427 931.375C887.741 930.171 887.655 930.199 888.547 929.357C892.121 930.308 893.084 930.292 894.895 933.491L893.573 936.021C892.764 939.053 891.592 939.546 889.033 940.942L888.328 941.322C888.011 943.168 887.893 943.165 888.626 944.963C892.743 948.348 895.19 942.307 896.946 939.484C901.78 931.71 912.457 926.238 921.027 924.045C923.57 924.924 925.707 925.891 928.16 926.969C924.775 928.973 920.304 930.709 916.748 932.798C900.462 942.364 892.072 953.962 887.082 971.753C878.949 969.968 870.106 968.166 862.201 965.677C844.803 960.199 828.362 954.175 810.366 950.595C804.66 927.221 785.556 906.949 768.615 890.889C769.445 887.106 770.357 884.754 771.715 881.098Z"/><path fill="#310917" transform="scale(0.390625 0.390625)" d="M888.547 929.357C892.121 930.308 893.084 930.292 894.895 933.491L893.573 936.021C891.176 934.51 888.696 933.143 886.227 931.752L887.427 931.375C887.741 930.171 887.655 930.199 888.547 929.357Z"/><path fill="#FFFFFE" transform="scale(0.390625 0.390625)" d="M451.775 334.564C455.504 335.43 456.712 334.651 460.244 333.254C460.104 335.813 459.515 342.151 458.634 344.386C455.808 351.554 442.379 382.318 443.9 389.053C444.484 389.65 444.567 390.003 445.303 389.979C448.022 389.891 457.694 385.98 459.436 384.327C463.668 380.312 467.999 375.696 472.108 371.642C480.978 362.979 489.962 354.433 499.059 346.008C498.994 346.462 498.807 347.81 498.699 348.182C496.135 356.975 489.764 369.28 485.46 377.341C480.647 386.357 473.158 402.175 467.305 409.756C459.913 419.328 440.327 429.068 429.829 436.148C423.671 440.302 416.578 445.052 410.371 449.097C404.743 441.282 400.213 437.252 392.093 432.514C401.41 421.259 400.311 411.61 407.094 399.809C410.776 393.404 419.047 386.394 424.339 380.987C436.812 368.248 445.695 351.716 450.263 334.582L451.775 334.564Z"/><path fill="#FFFFFE" transform="scale(0.390625 0.390625)" d="M387.352 210.168C387.804 210.154 387.483 210.135 388.257 210.497C387.883 212.016 383.256 217.304 381.983 218.883C365.212 225.009 361.634 230.37 357.017 246.879C353.445 248.75 342.39 252.888 341.458 256.525C348.572 260.3 371.104 243.935 377.627 240.414C380.725 238.743 383.908 236.823 385.787 241.19C385.605 247.665 374.376 256.923 369.276 260.158C361.155 265.309 361.313 271.46 357.523 279.744C354.88 285.521 350.927 290.692 346.431 295.209C344.134 297.517 339.349 301.501 339.341 304.744C340.47 306.18 339.762 305.747 341.514 306.125C349.43 302.826 359.687 287.396 363.351 279.211L363.803 279.065C365.034 279.871 375.836 296.672 377.639 299.387C373.036 302.42 366.497 307.741 361.783 311.132C350.148 319.503 342.184 321.824 328.871 326.1C322.032 313.587 318.633 307.549 308.857 297.036C311.34 292.722 313.755 286.407 315.789 281.741C321.869 267.794 326.903 255.831 336.418 243.711C350.086 226.299 364.708 213.127 387.352 210.168Z"/><path fill="#89676B" transform="scale(0.390625 0.390625)" d="M714.993 804.454C718.704 812.316 746.579 800.122 751.795 796.603C765.54 787.331 780.77 775.534 787.331 759.804C788.882 756.085 784.871 752.469 783.501 749.832C784.422 748.525 785.594 748.208 787.137 748.5C788.809 750.863 789.955 753.492 791.165 756.111C796.436 767.519 802.7 778.386 808.562 789.495C789.38 815.03 769.242 837.389 734.404 835.026C725.859 825.222 717.399 815.344 709.026 805.393C708.133 804.431 708.197 804.488 707.749 803.245C708.255 801.533 708.198 801.648 709.539 800.461C711.101 799.921 710.988 799.958 712.595 800.387C714.101 801.439 714.324 802.697 714.993 804.454Z"/><path fill="#A46867" transform="scale(0.390625 0.390625)" d="M709.026 805.393C708.133 804.431 708.197 804.488 707.749 803.245C708.255 801.533 708.198 801.648 709.539 800.461C711.101 799.921 710.988 799.958 712.595 800.387C714.101 801.439 714.324 802.697 714.993 804.454C712.882 804.979 711.171 805.137 709.026 805.393Z"/><path fill="#89676B" transform="scale(0.390625 0.390625)" d="M550.271 407.67C553.295 409.46 555.561 416.661 556.687 419.922C563.4 439.362 566.547 459.608 569.38 479.905C570.004 484.374 570.601 488.962 571.63 493.361L571.822 494.162C566.054 495.263 557.363 498.14 551.719 499.913C547.462 492.551 542.387 485.585 537.332 478.755C539.056 477.224 541.156 475.412 542.52 473.575C545.014 470.217 548.964 459.22 544.687 456.287L543.518 456.745C540.75 460.321 540.803 465.414 540.354 469.982C536.404 472.999 533.068 476.09 529.4 479.418C518.23 490.185 500.241 506.686 488.053 515.946C512.438 482.075 533.287 445.793 550.271 407.67Z"/><path fill="#DBE5D4" transform="scale(0.390625 0.390625)" d="M264.269 324.583C285.937 323.687 297.092 339.898 302.745 358.678C305.713 368.536 286.454 396.085 281.063 405.004L277.43 411.413C267.413 385.747 255.9 360.308 245.843 334.705C252.181 328.647 255.567 326.38 264.269 324.583Z"/><path fill="#D57266" transform="scale(0.390625 0.390625)" d="M115.743 211.005L116.966 211.121C118.015 213.172 115.585 218.752 114.943 221.953L114.826 222.557C108.909 225 100.901 228.268 96.1803 232.666C95.2139 233.566 94.4836 234.469 94.6138 235.872C95.2702 242.943 122.131 265.835 128.376 270.997C138.914 279.706 178.798 308.308 190.841 306.908C191.077 306.88 191.311 306.84 191.546 306.805L191.911 307.213C192.062 311.98 186.339 328.785 184.511 334.16L183.761 335.869C183.044 336.166 182.503 336.554 181.589 335.903C177.412 332.927 172.329 329.64 168.258 326.702C144.552 309.595 124.569 290.783 107.362 267.134C99.6912 257.39 91.6809 245.22 87.7443 233.392C84.4529 223.502 108.496 213.187 115.743 211.005Z"/><path fill="#D57266" transform="scale(0.390625 0.390625)" d="M871.499 583.789C880.986 588.402 886.655 601.54 890.535 610.677C872.674 628.679 856.134 641.301 834.559 654.717C830.546 657.213 824.741 661.755 820.852 663.665C819.864 663.122 817.87 660.484 818.573 659.509C824.146 651.789 827.188 643.909 828.927 634.609C830.352 621.869 829.274 611.065 822.425 599.845C824.436 600.135 828.489 600.382 829.849 601.486C829.269 606.151 832.979 609.837 836.764 607.838C837.23 605.669 835.973 603.442 835.07 601.237C835.625 600.272 838.628 599.702 840.052 599.269C840.56 601.692 840.825 604.862 842.64 606.331C844.569 606.902 845.607 606.972 846.86 605.372C846.821 603.434 844.87 600.306 844.01 598.337C846.083 597.803 847.567 597.073 849.31 597.828C850.026 600.669 850.187 601.706 852.535 603.466C854.576 603.325 853.617 603.6 855.461 602.423C856.416 600.042 855.151 597.795 852.821 596.887L852.773 596.203L858.693 593.124C859.195 596.149 859.173 600.615 863.316 599.899C866.205 597.093 863.873 594.065 862.302 591.325L865.841 588.144C867.808 591.143 870.949 596.752 874.988 592.557C874.395 588.954 870.254 588.34 869.24 586.059L871.499 583.789Z"/><path fill="#89676B" transform="scale(0.390625 0.390625)" d="M737.729 523.209C739.425 524.905 740.961 528.294 742.895 530.289C747.52 535.06 759.18 541.586 761.313 547.717C764.617 557.216 760.604 575.302 756.457 584.292C748.79 600.915 740.12 610.602 723.162 617.177C720.544 617.9 717.794 618.56 715.152 619.229C711.512 611.285 707.736 603.403 703.828 595.587C715.901 588.523 729.975 574.839 735.652 561.916C742.029 547.399 743.149 537.879 737.729 523.209Z"/><path fill="#FFFFFE" transform="scale(0.390625 0.390625)" d="M761.425 933.756C762.742 934.717 764.604 936.759 765.963 937.95C781.811 951.844 805.063 953.276 824.504 958.946C838.253 962.957 850.973 967.558 864.56 971.44C896.552 980.58 934.211 981.103 963.914 964.494C967.592 962.403 973.902 957.855 974.71 953.635C974.954 952.357 974.955 951.983 975.931 951.158L976.607 951.294C977.931 953.917 978 959.078 977.851 961.987C977.263 965.472 975.949 969.61 973.269 971.939C960.611 982.939 941.375 989.064 925.13 989.417C890.408 990.171 860.229 977.429 827.531 968.58C809.687 964.205 791.744 964.234 775.161 955.104C764.426 949.195 761.417 946.544 761.425 933.756Z"/><path fill="#FFFFFE" transform="scale(0.390625 0.390625)" d="M933.507 930.502C940.323 929.259 965.047 943.21 971.949 947.288C971.44 948.821 970.34 951.925 969.489 953.139C961.957 963.88 942.058 968.709 930.192 971.143C917.68 973.099 904.354 972.767 891.706 972.38C899.594 948.467 910.467 938.871 933.507 930.502Z"/><defs><linearGradient id="gradient_0" gradientUnits="userSpaceOnUse" x1="182.95546" y1="312.39148" x2="123.04453" y2="418.60852"><stop offset="0" stop-color="#CFDEBF"/><stop offset="1" stop-color="white"/></linearGradient></defs><path fill="url(#gradient_0)" transform="scale(0.390625 0.390625)" d="M74.615 250.295C77.2103 252.567 87.7093 274.079 93.2871 280.183C100.428 287.998 106.705 298.074 114.982 306.186C140.7 331.391 172.621 357.206 205.65 371.703C214.323 384.365 233.254 468.869 232.275 482.13C227.18 471.563 225.149 466.773 223.313 454.99C219.683 431.689 213.518 408.194 207.112 385.511C205.879 385.161 204.662 384.76 203.462 384.309C193.961 380.673 177.16 368.509 168.289 362.222C121.514 329.076 97.038 308.332 72.82 255.731C73.3741 253.895 73.9955 252.108 74.615 250.295Z"/><path fill="#FFFFFE" transform="scale(0.390625 0.390625)" d="M802.827 805.39C803.92 806.558 807.721 813.257 808.759 815.023C814.489 824.745 820.074 834.551 825.511 844.44C804.072 854.624 800.127 848.342 811.686 872.536C806.249 872.408 801.467 871.512 796.167 870.429C790.841 868.94 787.099 868.069 781.836 866.089C776.946 852.881 772.914 846.3 764.675 835.082C780.386 827.77 791.575 818.823 802.827 805.39Z"/><path fill="#D57266" transform="scale(0.390625 0.390625)" d="M551.007 223.582C564.42 223.499 593.544 238.891 603.469 247.946C598.746 253.311 586.529 263.431 580.99 268.007C571.706 275.695 562.473 283.444 553.291 291.253C520.035 319.7 486.457 349.245 456.12 380.682C453.898 382.869 452.276 383.373 449.459 384.57C453.868 367.662 456.989 367.262 469.002 355.027C484.661 339.077 501.46 325.398 518.372 310.897C542.809 289.944 566.959 268.486 591.202 247.341C591.839 246.785 591.591 246.578 591.474 245.782C586.176 238.799 559.851 228.332 551.836 224.033L551.007 223.582Z"/><path fill="#FFFFFE" transform="scale(0.390625 0.390625)" d="M83.0804 235.294C84.1427 236.857 85.3517 240.43 86.2693 242.291C108.665 287.732 148.876 321.261 191.08 347.742C197.856 351.994 204.822 356.596 210.56 362.334C208.586 363.778 206.445 365.2 204.422 366.592C201.666 366.073 189.832 358.266 186.702 356.386C149.073 333.791 114.527 304.687 90.0329 267.953C85.1184 260.583 80.5241 253.105 77.7913 244.628C79.3342 241.361 81.2148 238.386 83.0804 235.294Z"/><path fill="#F7D58D" transform="scale(0.390625 0.390625)" d="M766.314 645.198C771.109 644.209 783.626 646.006 788.51 647.472C799.483 650.765 810.115 656.414 815.889 666.613C808.465 669.692 801.71 672.819 794.09 675.531C780.958 680.23 769.246 681.199 756.344 675.546C752.881 667.872 749.659 653.515 747.63 645.182C755.787 647.03 758.152 646.268 766.314 645.198Z"/><path fill="#FFFFFE" transform="scale(0.390625 0.390625)" d="M916.476 555.465C918.819 556.992 921.29 560.089 921.921 562.769C928.028 588.678 899.435 622.82 880.684 636.917C856.192 655.329 794.414 704.475 763.575 689.051C760.071 686.37 759.309 684.881 757.063 681.193C789.297 690.367 819.311 671.146 845.228 653.641C873.614 634.468 906.062 610.881 915.758 576.433C918.041 568.319 918.773 563.802 916.476 555.465Z"/><path fill="#D57266" transform="scale(0.390625 0.390625)" d="M785.92 594.178C787.863 594.013 790.178 593.994 792.158 593.925C793.471 597.883 794.262 600.389 796.53 603.988C798.287 604.971 797.51 604.989 798.996 604.679C799.904 601.571 797.081 598.304 798.86 594.843L799.905 594.577L800.421 595.064L799.773 597.071C800.841 598.254 802.718 598.43 804.359 598.804C805.833 602.242 806.602 605.469 810.6 606.511L811.432 605.943C812.025 602.861 810.917 601.67 809.186 599.044L816.702 600.203C817.468 601.54 818.11 602.858 818.795 604.235L817.065 604.979L817.007 605.729L818.126 606.921C820.6 607.562 821.33 607.462 822.238 610.046C826.378 621.832 825.008 634.448 820.541 645.916C818.658 650.051 817.057 652.909 814.774 656.866C800.054 644.045 794.88 643.741 776.266 640.878C782.055 637.752 800.086 623.93 792.326 615.586C788.729 611.719 792.087 610.143 791.05 605.793C790.133 601.945 786.746 598.063 785.92 594.178Z"/><path fill="#FFFFFE" transform="scale(0.390625 0.390625)" d="M899.252 554.595C920.441 551.895 912.329 573.092 907.796 584.428C904.565 592.507 899.42 599.626 894.427 606.654C891.766 600.471 889.324 596.462 885.786 590.854C877.199 579.012 869.273 576.235 855.037 573.032C859.445 570.959 864.569 567.794 869.047 565.455C878.554 560.433 888.723 556.776 899.252 554.595Z"/><path fill="#FFFFFE" transform="scale(0.390625 0.390625)" d="M764.575 575.351C769.768 580.297 782.953 599.979 787.057 606.823C786.694 610.151 786.679 612.832 784.61 615.539C778.632 623.362 766.485 627.092 757.324 628.701C754.528 629.102 751.712 629.062 748.882 629.112C743.752 625.772 739.15 620.923 734.733 616.633C750.113 607.173 759.824 592.691 764.575 575.351Z"/><path fill="#D57266" transform="scale(0.390625 0.390625)" d="M477.849 132.301C480.277 133.862 487.275 140.909 489.3 143.096C503.714 158.664 517.011 178.799 519.815 200.228C520.561 205.926 520.071 214.451 519.888 220.306C517.792 211.231 516.253 202.596 512.687 193.918C504.532 174.075 494.316 156.26 478.427 141.648C472.769 145.303 463.395 153.454 458.159 158C447.176 167.48 436.391 177.185 425.809 187.111C419.048 193.161 412.437 199.376 405.98 205.751C392.682 219.024 379.325 233.801 363.371 243.796C366.09 234.589 369.526 230.246 378.345 226.156C384.647 223.233 388.236 218.09 392.903 213.141C399.177 206.525 405.504 199.961 411.885 193.448C417.296 188.008 423.239 182.583 428.845 177.263C444.666 162.25 461.237 146.337 477.849 132.301Z"/><path fill="#D57266" transform="scale(0.390625 0.390625)" d="M201.397 272.866C208.016 277.985 221.744 296.942 225.922 304.799C237.014 325.662 245.974 347.011 254.753 368.861C263.08 389.623 271.576 410.317 280.24 430.94C284.159 440.201 288.236 450.13 292.405 459.247C296.327 467.826 302.598 477.703 307.556 485.599C307.456 487.425 306.987 487.467 305.763 489.269C304.813 490.393 305.388 490.127 304.182 490.481C292.228 483.309 263.093 401.331 255.572 383.122C247.236 363.075 238.593 343.157 229.646 323.374C223.546 310.104 215.863 296.98 207.929 284.719C205.176 280.465 203.032 277.719 201.397 272.866Z"/><path fill="#89676B" transform="scale(0.390625 0.390625)" d="M610.741 521.864C611.586 527.595 608.201 547.569 607.358 554.08C604.097 579.259 598.67 604.528 600.164 630.085C600.457 635.106 601.461 640 601.794 645.01C598.734 643.241 597.572 642.594 594.849 640.303C593.373 638.773 592.014 636.963 591.064 635.06C579.122 611.161 602.05 546.661 610.741 521.864Z"/><path fill="#F7D58D" transform="scale(0.390625 0.390625)" d="M766.343 896.205C775.493 900.246 806.689 941.094 803.936 948.853L802.323 948.802C784.733 944.127 772.551 941.144 762.35 925.773C762.687 917.27 764.846 904.633 766.343 896.205Z"/><path fill="#D57266" transform="scale(0.390625 0.390625)" d="M389.362 436.96C393.142 438.895 395.324 440.208 398.367 443.347C400.88 445.397 402.789 447.777 404.543 450.5L405.726 450.852C405.829 451.804 405.93 451.43 405.669 452.014C407.014 454.648 408.917 458.175 410.037 460.83C404.03 468.977 398.506 475.45 391.781 483.024C390.919 481.223 386.948 474.114 386.712 473.465L385.615 472.881C384.837 471.397 382.888 469.637 381.638 468.348L381.696 467.637L379.401 466.347C376.523 464.029 374.903 463.082 371.689 461.207C377.157 453.173 383.557 444.822 389.362 436.96Z"/><path fill="#D57266" transform="scale(0.390625 0.390625)" d="M405.669 452.014C407.014 454.648 408.917 458.175 410.037 460.83C404.03 468.977 398.506 475.45 391.781 483.024C390.919 481.223 386.948 474.114 386.712 473.465C389.376 473.453 404.15 455.388 405.669 452.014Z"/><path fill="#310421" transform="scale(0.390625 0.390625)" d="M404.543 450.5L405.726 450.852C405.829 451.804 405.93 451.43 405.669 452.014C404.15 455.388 389.376 473.453 386.712 473.465L385.615 472.881C386.203 467.588 399.946 454.168 404.543 450.5Z"/><path fill="#310421" transform="scale(0.390625 0.390625)" d="M397.771 443.555C398.246 444.609 398.783 445.478 398.11 446.75C395.488 451.705 385.594 464.294 381.696 467.637L379.401 466.347C382.613 461.187 393.3 447.386 397.771 443.555Z"/><path fill="#F7D58D" transform="scale(0.390625 0.390625)" d="M835.07 844.485C837.9 846.324 846.37 865.792 848.046 869.743C841.433 872.386 836.875 875.215 831.953 880.41C830.231 882.229 828.162 885.289 825.949 885.917L825.043 885.24C820.642 877.99 812.82 863.752 809.914 855.892C818.954 852.532 826.752 849.483 835.07 844.485Z"/><path fill="#FFFFFE" transform="scale(0.390625 0.390625)" d="M274.254 444.872C275.662 446.798 280.494 459.774 281.589 462.637C271.691 476.651 263.625 486.03 252.445 499.147C252.08 499.649 252.347 499.38 251.492 499.765C249.52 497.03 247.308 483.681 246.551 479.815C255.147 472.148 266.678 454.493 274.254 444.872Z"/><path fill="#FFFFFE" transform="scale(0.390625 0.390625)" d="M291.592 481.952C294.853 487.1 297.451 490.712 301.094 495.529C292.611 506.152 283.504 517.314 275.419 528.172C272.506 528.542 271.772 528.531 269.247 529.951L268.594 530.473C266.222 530.246 262.075 525.774 260.09 523.926C270.595 509.738 281.08 496.545 291.592 481.952Z"/><path fill="#FFFFFE" transform="scale(0.390625 0.390625)" d="M259.084 406.349C261.973 412.436 264.051 418.719 266.945 424.851C258.575 435.233 253.812 445.535 243.634 456.703L242.917 457.243C240.943 455.932 237.846 438.502 237.133 435.04C246.212 426.397 252.323 416.73 259.084 406.349Z"/><path fill="#D57266" transform="scale(0.390625 0.390625)" d="M283.679 466.91C285.416 469.566 288.004 474.81 289.586 477.782C280.61 492.063 268.84 506.247 258.484 519.802L258.015 519.726C256.792 518.143 253.487 506.929 252.647 504.267C264.302 491.406 272.873 479.772 283.679 466.91Z"/><path fill="#FDF7FB" transform="scale(0.390625 0.390625)" d="M533.936 482.302C535.532 483.159 545.307 498.708 546.941 501.216C531.488 506.306 515.999 511.283 500.474 516.147C497.2 517.06 492.621 518.895 489.332 520.101C504.254 508.684 520.545 495.49 533.936 482.302Z"/><path fill="#FFFFFE" transform="scale(0.390625 0.390625)" d="M269.027 626.917L269.634 627.212C275.655 638.243 280.841 686.784 281.537 700.423C281.882 707.17 281.756 720.51 282.893 726.96C281.452 728.663 279.888 730.345 278.389 732.005L276.798 733.336L276.131 733.063C275.427 724.355 275.587 713.873 275.385 705.053C275.1 694.787 274.413 684.536 273.327 674.324C272.158 663.32 270.538 652.369 268.472 641.498C267.793 638.095 266.228 632.257 265.952 628.749C265.906 628.171 268.179 627.329 269.027 626.917Z"/><path fill="#FFFFFE" transform="scale(0.390625 0.390625)" d="M279.273 621.45L280.201 621.795C280.941 623.761 281.606 625.755 282.193 627.772C288.85 650.515 291.024 675.226 291.441 698.841C291.622 709.101 291.998 712.671 287.03 721.749C286.096 717.389 286.515 703.97 285.999 698.198C283.892 674.654 281.38 646.939 273.834 624.578L279.273 621.45Z"/><path fill="#FFFFFE" transform="scale(0.390625 0.390625)" d="M246.544 509.311C243.977 504.902 238.545 496.094 237.614 491.477C235.568 481.331 234.391 470.214 232.75 459.819C230.273 444.676 227.133 429.648 223.339 414.779C220.19 401.914 217.09 388.764 212.238 376.365C211.269 373.887 209.646 371.823 209.475 369.256C210.724 368.37 210.651 368.269 212.14 368.141C214.589 371.699 217.473 380.781 218.89 385.245C227.125 411.19 232.46 438.682 238.232 465.285C241.576 480.699 243.471 493.404 248.471 508.485L246.544 509.311Z"/><path fill="#FFFFFE" transform="scale(0.390625 0.390625)" d="M241.465 364.843C243.006 365.95 249.349 381.47 250.569 384.299C244.732 392.876 239.242 401.08 232.764 409.184L231.967 409.954C230.293 408.854 225.92 391.05 225.072 387.977C231.273 380.081 235.965 373.247 241.465 364.843Z"/><path fill="#FFFFFE" transform="scale(0.390625 0.390625)" d="M224.134 324.306C225.312 325.41 231.982 340.635 233.197 343.268C228.595 350.473 221.077 361.638 214.907 367.296L214.851 364.994C214.846 359.511 211.809 357.356 208.122 353.797C207.516 350.582 207.286 349.001 206.097 345.949C213.899 340.139 219.018 332.391 224.134 324.306Z"/><path fill="#D57266" transform="scale(0.390625 0.390625)" d="M773.352 861.134C775.399 862.395 776.74 866.487 777.889 868.848C788.015 875.695 802.14 877.434 814.081 876.951C815.891 880.081 817.65 883.073 819.277 886.305L818.86 886.931C815.256 887.202 811.646 887.372 808.032 887.44C794.812 887.58 782.136 885.343 772.461 875.838C772.396 871.971 772.018 864.614 773.352 861.134Z"/><path fill="#D57266" transform="scale(0.390625 0.390625)" d="M252.22 388.811C253.543 390.047 256.849 399.368 257.721 401.631C251.492 411.829 244.525 421.556 236.874 430.735L236.423 431.126C235.478 430.123 232.74 417.106 232.173 414.7C240.788 405.781 244.803 398.362 252.22 388.811Z"/><path fill="#D57266" transform="scale(0.390625 0.390625)" d="M268.455 429.869C270.192 431.748 272.053 438.054 272.909 440.627C270.427 443.401 266.191 449.628 263.705 452.969L246.888 475.3L246.487 475.823L245.822 475.459C244.658 471.759 243.868 466.637 243.147 462.726C251.126 454.942 261.846 439.182 268.455 429.869Z"/><path fill="#FFFFFE" transform="scale(0.390625 0.390625)" d="M206.499 293.3C208.302 294.295 214.754 305.108 216.238 307.484C211.454 314.148 208.663 317.608 202.833 323.351L202.042 324.026L201.481 323.899C199.484 320.256 196.972 309.972 194.527 304.429C199.951 300.979 202.953 298.743 206.499 293.3Z"/><path fill="#D57266" transform="scale(0.390625 0.390625)" d="M253.914 720.634C254.863 721.919 256.422 742.315 256.709 745.245C253.585 745.915 247.883 747.341 244.824 746.86L244.134 745.889C242.193 738.567 240.632 730.559 239.13 723.134C244.114 722.677 249.057 721.841 253.914 720.634Z"/><path fill="#D57266" transform="scale(0.390625 0.390625)" d="M234.489 348.352C235.826 349.361 239.414 358.267 240.3 360.302C235.541 366.471 229.58 376.361 224.198 383.613C223.548 382.918 219.214 371.716 218.438 369.978C224.271 363.18 229.387 355.704 234.489 348.352Z"/><path fill="#D57266" transform="scale(0.390625 0.390625)" d="M314.771 311.695C316.628 314.532 318.128 316.733 319.616 319.787C321.098 322.08 322.432 324.038 323.639 326.501L323.234 327.452C322.691 327.646 320.539 328.457 320.262 328.746C314.881 334.365 309.2 340.649 303.613 345.955L300.931 341.741C304.321 338.58 318.45 323.55 319.13 319.964C317.883 319.846 317.203 319.673 316.041 320.755C310.341 326.064 304.608 333.117 299.577 339.027L296.023 334.217C302.489 326.778 308.43 319.139 314.771 311.695Z"/><path fill="#F7D58D" transform="scale(0.390625 0.390625)" d="M787.977 619.347L788.989 619.989C789.139 621.406 788.695 621.919 788.153 623.179C782.748 635.735 757.917 645.413 745.838 639.412C744.663 637.713 742.999 633.586 745.199 632.277C750.485 634.5 751.233 634.153 756.982 633.279C769.544 631.367 778.348 627.545 787.977 619.347Z"/><path fill="#D57266" transform="scale(0.390625 0.390625)" d="M219.558 722.924C224.181 723.723 229.371 723.578 234.093 723.579C236.065 731.564 237.049 739.329 239.28 747.544C235.171 747.464 230.273 747.02 226.115 746.75C223.86 739.984 221.632 730.209 219.558 722.924Z"/><path fill="#D57266" transform="scale(0.390625 0.390625)" d="M199.678 719.9C204.244 721.041 209.66 721.846 214.353 722.658C216.638 729.622 218.91 738.452 220.723 745.6C215.573 744.307 211.524 743.222 206.445 741.55C204.139 735.581 201.557 726.14 199.678 719.9Z"/><path fill="#D57266" transform="scale(0.390625 0.390625)" d="M270.159 713.985L270.52 714.107C271.185 715.804 271.423 734.93 271.529 737.961C268.159 740.307 264.798 741.934 261.048 743.546C260.165 735.766 259.843 726.933 259.117 718.947C263.675 717.52 266.025 716.292 270.159 713.985Z"/><path fill="#89676B" transform="scale(0.390625 0.390625)" d="M201.932 242.1C204.143 242.967 207.749 244.532 209.989 244.677C210.848 244.812 211.809 244.891 212.588 245.209C215.5 245.831 218.344 246.29 221.072 247.451L221.477 248.42L220.46 250.123C216.984 256.629 214.046 260.76 208.994 266.009C205.752 263.394 203.538 261.706 200.068 259.432C200.704 257.568 201.183 255.515 201.685 253.597C205.74 257.072 208.387 259.752 213.21 262.032C210.309 256.659 206.233 253.978 201.187 250.939C201.327 247.82 201.595 245.195 201.932 242.1Z"/><path fill="#310917" transform="scale(0.390625 0.390625)" d="M209.989 244.677C210.848 244.812 211.809 244.891 212.588 245.209C215.5 245.831 218.344 246.29 221.072 247.451L221.477 248.42L220.46 250.123C213.677 249.21 212.38 253.354 209.989 244.677Z"/><path fill="#89676B" transform="scale(0.390625 0.390625)" d="M221.477 248.42C219.32 248.596 211.795 249.108 212.588 245.209C215.5 245.831 218.344 246.29 221.072 247.451L221.477 248.42Z"/><path fill="#D57266" transform="scale(0.390625 0.390625)" d="M218.026 311.35C219.326 312.096 221.88 317.866 222.684 319.494C216.974 328.491 213.678 333.547 206.231 341.173L205.698 341.443L204.963 340.987C203.835 337.816 202.88 332.597 202.145 329.163C207.496 324.794 213.792 316.896 218.026 311.35Z"/><path fill="#D57266" transform="scale(0.390625 0.390625)" d="M181.643 714.883C185.849 716.285 190.779 717.625 195.077 718.908C196.291 725.201 198.944 733.048 200.886 739.258C195.75 737.383 191.252 735.483 186.244 733.333C184.836 726.867 183.37 721.287 181.643 714.883Z"/><path fill="#D57266" transform="scale(0.390625 0.390625)" d="M194.073 315.816C195.227 318.199 196.991 325.79 197.714 328.702C199.583 336.233 201.233 343.385 203.548 350.824L199.419 348.054C195.41 345.547 191.071 342.422 187.136 339.721C189.918 332.449 192.135 323.366 194.073 315.816Z"/><path fill="#D57266" transform="scale(0.390625 0.390625)" d="M306.605 302.378L307.078 302.347C308.957 304.139 311.754 307.796 313.478 309.927C307.423 314.813 299.32 325.391 293.676 331.634C291.703 329.723 289.81 328.323 287.648 326.653C293.537 320.034 301.231 312.441 306.567 305.239C307.444 304.056 306.992 303.424 306.605 302.378Z"/><path fill="#D57266" transform="scale(0.390625 0.390625)" d="M160.099 705.435C166.267 708.387 170.327 710.668 176.8 713.173C177.576 719.114 179.559 724.198 180.393 730.193C176.883 729.286 168.523 723.666 165.151 721.495C163.859 716.325 161.792 710.549 160.099 705.435Z"/><path fill="#D57266" transform="scale(0.390625 0.390625)" d="M379.186 433.061C381.523 433.669 383.439 434.542 385.664 435.461C383.745 438.425 369.398 457.097 367.463 458.649L359.741 457.202C363.602 451.37 374.287 437.963 379.186 433.061Z"/><path fill="#D57266" transform="scale(0.390625 0.390625)" d="M301.765 297.879C304.285 299.605 304.97 300.037 307.078 302.347L306.605 302.378C302.046 304.652 288.84 319.494 284.404 324.271L279.795 321.935C287.307 314.208 294.438 305.221 301.765 297.879Z"/><path fill="#FFFFFE" transform="scale(0.390625 0.390625)" d="M906.096 916.944C909.506 918.931 911.291 919.973 915.064 921.179C905.53 924.93 902.567 926.787 894.895 933.491C893.084 930.292 892.121 930.308 888.547 929.357L888.28 928.498C890.142 925.556 902.531 918.863 906.096 916.944Z"/><path fill="#FFFFFE" transform="scale(0.390625 0.390625)" d="M882.842 902.454C887.1 902.109 887.315 903.002 890.017 906.042C882.713 911.012 880.124 910.669 873.084 917.146L872.342 917.652L866.648 912.482C871.741 907.863 876.628 905.187 882.842 902.454Z"/><path fill="#D57266" transform="scale(0.390625 0.390625)" d="M142.673 695.326C146.817 697.863 150.903 700.493 154.927 703.215C155.964 708.02 157.8 712.298 158.736 717.303C153.913 713.997 148.92 710.07 144.754 705.966C141.789 703.045 143.175 700.097 142.748 696L142.673 695.326Z"/><path fill="#FFFFFE" transform="scale(0.390625 0.390625)" d="M875.743 894.647L877.241 894.631C878.597 895.313 879.222 895.441 879.88 896.792C879.205 898.6 870.202 902.482 868.012 904.328C866.951 905.222 862.886 908.038 861.764 908.646L855.828 903.798C862.4 898.713 867.449 895.626 875.743 894.647Z"/><path fill="#FFFFFE" transform="scale(0.390625 0.390625)" d="M895.482 911.107C897.141 911.335 900.351 911.941 901.202 913.404C896.829 915.982 893.552 917.324 889.282 920.349C887.349 921.718 884.024 924.889 882.784 925.591C880.523 924.115 879.106 923.368 877.302 921.331L877.593 920.862C878.842 921.266 878.775 921.314 880.061 921.168C879.793 919.964 879.403 919.487 880.076 918.768C884.251 914.304 890.072 912.304 895.482 911.107Z"/><path fill="#FFFFFE" transform="scale(0.390625 0.390625)" d="M864.853 886.23C868.066 886.783 868.399 887.588 870.668 890.03C863.402 892.384 857.217 895.146 851.428 900.324L846.179 895.123C852.592 891.168 857.833 888.768 864.853 886.23Z"/><path fill="#D57266" transform="scale(0.390625 0.390625)" d="M324.58 329.313C325.405 330.214 326.457 331.851 327.191 332.914C320.761 339.64 313.715 346.563 307.125 353.175C306.446 352.675 304.508 350.144 305.098 349.493C311.194 342.773 318.08 335.892 324.58 329.313Z"/><path fill="#D57266" transform="scale(0.390625 0.390625)" d="M854.493 872.616L856.022 872.417C857.462 872.97 858.04 874.486 858.887 875.916C850.483 877.994 845.028 881.728 838.259 886.882C835.652 886.969 836.386 887.335 834.748 885.999C835.884 879.918 848.922 873.809 854.493 872.616Z"/><path fill="#FFFFFE" transform="scale(0.390625 0.390625)" d="M401.738 328.317C405.866 330.113 428.989 365.917 429.017 369.733L427.705 370.011C426.95 369.495 402.844 330.997 401.738 328.317Z"/><path fill="#D57266" transform="scale(0.390625 0.390625)" d="M208.755 272.014C213.103 275.744 226.803 287.596 228.962 292.137L230.483 294.565C228.928 294.848 227.705 295.129 226.112 295.149L224.673 292.932C224.464 292.849 209.945 274.922 208.314 273.081L208.755 272.014Z"/><path fill="#310917" transform="scale(0.390625 0.390625)" d="M224.673 292.932L225.072 291.925C226.551 291.38 227.139 291.811 228.962 292.137L230.483 294.565C228.928 294.848 227.705 295.129 226.112 295.149L224.673 292.932Z"/><path fill="#FFFFFE" transform="scale(0.390625 0.390625)" d="M830.776 585.054C833.202 587.679 836.289 591.873 838.56 594.776C837.626 595.807 836.823 595.66 835.149 596.049C831.868 595.853 828.516 590.039 827.959 586.894C828.685 585.462 828.765 585.842 830.776 585.054Z"/><path fill="#FFFFFE" transform="scale(0.390625 0.390625)" d="M837.198 582.207C839.795 583.424 847.485 590.034 848.325 592.676L847.399 593.357C846.38 593.605 844.778 594.092 843.953 593.595C841.06 591.852 837.194 586.398 836.164 583.315L837.198 582.207Z"/><path fill="#FFFFFE" transform="scale(0.390625 0.390625)" d="M230.483 294.565C230.904 299.405 236.439 313.281 237.833 319.822C235.356 314.348 232.879 308.918 230.345 303.471C229.52 301.699 226.64 296.549 226.112 295.149C227.705 295.129 228.928 294.848 230.483 294.565Z"/><path fill="#FFFFFE" transform="scale(0.390625 0.390625)" d="M844.413 581.872C847.533 581.971 858.122 584.362 859.207 587.619L857.993 588.873C857.097 589.502 856.179 590.061 855.253 590.645C851.68 587.672 848.066 584.747 844.413 581.872Z"/><path fill="#FFFFFE" transform="scale(0.390625 0.390625)" d="M821.513 588.1C822.986 588.646 826.644 594.462 826.83 596.38L826.168 596.869L823.54 596.47C820.187 595.919 817.903 593.174 817.879 589.745C818.953 588.346 819.317 588.678 821.513 588.1Z"/><path fill="#D57266" transform="scale(0.390625 0.390625)" d="M111.742 234.42C112.156 236.585 110.437 245.195 108.486 246.487L107.036 245.164L103.567 241.369L111.742 234.42Z"/><path fill="#FFFFFE" transform="scale(0.390625 0.390625)" d="M842.244 891.955C841.273 890.997 840.75 890.655 840.215 889.412C845.402 887.427 858.343 879.796 862.506 881.001C859.98 883.819 847.658 885.665 843.471 892.009C843.126 892.219 842.847 892.047 842.244 891.955Z"/><path fill="#FDF7FB" transform="scale(0.390625 0.390625)" d="M112.502 227.396L113.24 227.963C112.669 229.325 103.567 236.056 101.337 238.177L100.758 238.732C99.3853 236.928 99.5336 237.822 99.5809 236.075C102.35 232.283 108.241 229.682 112.502 227.396Z"/><path fill="#FFFFFE" transform="scale(0.390625 0.390625)" d="M456.736 322.85C460.109 326.152 460.168 328.496 456.818 331.376C456.171 331.516 455.71 331.479 455.037 331.495L454.493 330.564C454.541 328.034 455.819 325.297 456.736 322.85Z"/><path fill="#FFFFFE" transform="scale(0.390625 0.390625)" d="M450.533 328.297C450.347 324.64 449.697 322.775 452.067 320.117C453.747 319.604 452.966 319.545 454.495 320.16L454.985 321.112C453.301 324.658 452.67 325.777 451.797 329.638L450.533 328.297Z"/><path fill="#FFFFFE" transform="scale(0.390625 0.390625)" d="M848.493 577.133C852.322 577.048 862.784 579.663 865.881 582.057L865.958 583.601L864.911 583.701C859.358 580.341 853.959 579.724 848.493 577.133Z"/><path fill="#FFFFFE" transform="scale(0.390625 0.390625)" d="M812.018 591.092C813.476 592.156 814.847 594.247 816.009 595.764L810.877 594.856L803.864 593.516L812.018 591.092Z"/><path fill="#D57266" transform="scale(0.390625 0.390625)" d="M133.746 688.272C138.503 690.309 138.199 691.966 138.395 696.524L138.156 696.556C136.609 695.333 134.399 690.243 133.746 688.272Z"/><path fill="#310421" transform="scale(0.390625 0.390625)" d="M842.244 891.955C842.847 892.047 843.126 892.219 843.471 892.009C843.904 893.533 843.939 894.125 845.036 895.287C843.509 896.762 844.116 896.298 841.905 896.9L840.859 896.073C840.541 893.429 840.325 893.489 842.244 891.955Z"/><path fill="#DBE5D4" transform="scale(0.390625 0.390625)" d="M248.471 508.485L251.78 517.665C250.024 515 248.004 512.102 246.544 509.311L248.471 508.485Z"/><path fill="#A46867" transform="scale(0.390625 0.390625)" d="M200.93 265.412C204.571 267.637 205.882 269.023 208.755 272.014L208.314 273.081C205.875 270.504 203.413 267.947 200.93 265.412Z"/><path fill="#FDF7FB" transform="scale(0.390625 0.390625)" d="M450.533 328.297L451.797 329.638C451.735 331.274 451.594 332.955 451.775 334.564L450.263 334.582C450.549 332.528 450.505 330.38 450.533 328.297Z"/></svg>