<?xml version="1.0" encoding="utf-8" ?><svg xmlns="http://www.w3.org/2000/svg" xmlns:xlink="http://www.w3.org/1999/xlink" width="400" height="400" viewBox="0 0 400 400"><path fill="#515561" transform="scale(0.390625 0.390625)" d="M0 0L1024 0L1024 1024L0 1024L0 637.901L0 635.8L0 0Z"/><path fill="#000002" transform="scale(0.390625 0.390625)" d="M0 635.8C3.46542 634.092 7.13735 633.056 10.6803 631.803C28.885 625.363 44.6335 626.172 45.0735 649.955C45.2819 661.217 45.0216 673.745 45.0079 685.339L44.8297 762.903C44.8172 770.49 45.9377 806.847 44.5443 812.017L44.0031 812.522C43.2622 812.25 42.9457 812.311 42.8765 811.667C42.1342 804.756 42.4371 793.954 42.4311 787.194L42.7052 680.462C42.6464 668.971 43.7587 654.591 41.9325 643.518C38.6365 623.532 16.5861 632.437 5.00264 636.244L0 637.901L0 635.8Z"/><path fill="#000002" transform="scale(0.390625 0.390625)" d="M618.432 141.085C618.516 132.619 621.038 119.304 622.504 110.756C624.794 98.2225 626.893 85.4017 630.446 73.1873C635.86 54.5728 651.563 52.5441 668.293 53.6014C676.269 54.1054 683.749 54.604 691.603 56.007C705.436 58.4783 720.847 60.2974 732.709 68.2989C739.527 72.8982 740.1 79.2397 741.215 86.4925C745.611 74.5081 755.091 69.8637 767.451 70.6925C793.567 72.4438 821.793 75.7264 847.026 82.6297C869.242 88.7078 866.948 119.968 860.157 136.477C860.316 116.255 871.598 92.1186 843.066 83.6795C847.933 87.747 850.191 90.8852 852.333 96.9373C853.996 101.636 854.165 109.437 854.195 113.966C854.256 123.263 846.094 188.574 843.653 193.122L842.922 193.109C841.188 189.531 852.305 128.322 851.554 118.979C850.793 109.516 853.274 96.1156 844.169 87.4291C842.394 85.7359 840.728 84.0733 838.332 83.1653C816.385 77.8195 793.164 75.0411 770.641 73.1624C760.635 72.3277 748.334 74.1537 744.392 84.9474C738.821 100.2 736.425 116.648 732.862 132.464C731.886 136.797 730.848 146.794 727.892 149.499C726.694 144.249 734.18 115.953 735.58 108.894C738.457 94.3872 745.058 78.5243 728.73 68.1966C727.54 67.4462 726.328 66.7307 725.097 66.0508C732.032 74.1507 732.589 80.1068 731.59 90.5446C729.657 110.75 726.444 131.065 722.906 151.03C724.635 150.667 726.775 150.284 728.449 149.855C742.461 147.932 754.675 146.298 766.772 155.239C774.57 161.002 779.582 171.514 782.197 180.631C794.02 182.034 796.375 185.95 806.649 189.687C808.828 190.48 820.513 191.975 823.566 192.468C832.332 193.886 840.328 195.648 848.997 197.51C848.667 188.404 852.217 178.103 854.246 169.229C858.163 152.099 864.043 117.934 876.067 104.872C884.426 95.7917 897.024 92.4153 909.006 91.9743C927.188 91.305 992.42 99.9664 1005.37 112.123C1012.16 118.498 1014.44 128.204 1014.54 137.182C1014.64 145.406 1013.89 153.86 1012.8 162.011C1010.61 178.24 1002.26 220.608 995.494 233.633L995.54 232.939C995.835 229.041 996.899 225.622 997.778 221.868C1003.13 198.984 1009.5 175.957 1011.33 152.477C1012.61 135.897 1013.7 116.051 995.217 108.66C993.035 107.787 991.081 107.005 988.827 106.259C1003.7 117.953 1004.33 135.497 1003.28 153.245C1002.8 160.923 1002.11 168.586 1001.22 176.228C1000.35 183.298 993.437 228.694 990.682 231.718C989.436 225.07 992.302 216.653 993.416 210.043C997.625 185.081 1007.08 139.913 995.505 116.959C993.647 113.275 989.814 109.429 986.439 107.093C977.189 100.69 926.814 94.7112 912.95 94.4013C908.217 94.2955 903.629 94.6263 898.987 95.5723C889.971 97.4096 880.367 101.374 875.129 109.368C866.073 123.189 860.911 151.707 857.033 168.462C854.684 178.234 852.394 188.019 850.161 197.819C850.331 197.836 850.5 197.853 850.669 197.871C871.92 201.953 892.951 207.759 913.93 213.103C924.876 215.892 933.643 218.86 934.406 231.78C935.308 247.033 934.936 262.494 934.086 277.734C934.05 278.365 933.818 278.607 933.532 279.134L932.838 279.1C931.104 274.743 932.669 268.061 932.347 263.742C931.472 252.013 937.118 222.72 922.233 218.09C900.593 211.359 877.289 205.746 855.13 200.561C839.501 196.905 822.76 194.955 807.111 191.249C810.035 194.297 810.873 195.342 813.166 198.905C828.031 200.903 912.396 216.581 919.234 226.138C920.83 228.37 921.674 231.245 922.18 233.909C923.582 241.291 924.503 267.611 923.106 274.581L922.594 274.755C918.51 270.044 924.486 234.713 916.561 226.658C909.229 219.206 828.64 203.175 814.132 201.033C818.492 216.771 815.541 228.323 803.284 239.361C804.487 240.772 806.018 240.841 807.485 241.841C816.432 247.944 813.759 258.704 810.809 266.932C830.701 258.771 858.634 247.713 874.125 269.093C894.061 268.221 931.588 280.69 950.741 287.055C950.63 278.507 950.56 269.925 950.292 261.381C950.105 255.422 947.258 241.012 950.154 236.37C958.076 230.887 982.461 235.254 992.144 236.923C997.458 237.839 1018.53 241.474 1022.55 244.303L1023.07 245.221L1022.52 245.745C1018.23 245.421 1013.79 243.511 1009.55 242.572C1000.26 240.516 958.731 231.512 952.124 238.096C951.205 239.012 951.085 239.869 951.068 241.111C950.992 246.856 952.149 252.706 952.485 258.451C953.05 268.111 952.939 277.887 952.631 287.554L985.894 300.175C994.331 303.404 1012.68 310.657 1020.09 315.591C1008.46 312.28 997.919 306.866 986.729 302.686C951.847 289.657 912.815 274.259 875.579 270.912C876.909 273.927 878.19 276.963 879.422 280.019C895.203 288.05 927.434 307.601 915.629 329.573C912.571 335.134 907.415 339.241 901.311 340.977C895.185 342.662 889.177 341.812 883.087 340.635C893.4 352.71 897.065 367.389 901.073 381.994C912.799 424.725 911.988 466.955 908.594 510.716C906.519 537.459 904.31 555.157 896.526 580.67C922.219 578.485 947.925 576.451 973.642 574.569C979.433 574.121 1001.04 571.83 1004.71 572.726C1002.16 575.382 987.701 575.71 983.485 576.061C973.382 576.939 963.275 577.764 953.163 578.535L891.013 583.839C876.834 584.967 832.436 586.667 822.19 593.329C813.321 599.097 811.737 608.29 811.912 618.069C812.072 627.063 812.013 655.628 817.869 660.971C819.365 662.335 823.011 662.191 824.961 662.15C844.798 661.738 1006.43 641.445 1008.19 642.787C1008.45 642.988 1008.55 643.347 1008.73 643.627C1004.69 645.957 987.901 647.006 982.034 647.666C966.654 649.34 951.289 651.149 935.941 653.094C936.295 679.805 937.476 706.594 937.986 733.368C955.248 745.355 974.306 756.378 991.832 768.147C997.482 771.94 1011.63 780.002 1015.46 784.405L1015.06 785.026C1008.45 783.162 944.558 741.018 935.812 734.645C935.761 729.669 935.632 724.693 935.424 719.721C929.508 718.385 909.774 707.623 903.514 704.234C907.353 687.812 911.44 671.997 915.141 655.304C907.796 655.799 895.732 657.389 888.272 658.588C883.829 675.248 872.013 689.457 861.418 702.486C850.754 715.598 848.048 718.896 831.286 709.392C816.249 717.352 790.721 719.038 774.195 716.269C765.374 714.843 756.707 712.346 748.022 710.252C741.315 708.634 734.24 707.428 727.677 705.406C715.091 701.528 702.678 697.154 690.459 692.246C688.498 691.458 686.345 690.542 684.337 689.96C695.365 696.985 707.24 706.478 717.751 714.468L770.292 754.27C794.864 772.636 1005.81 927.305 1008.92 934.801L1008.53 935.492C1004 934.355 982.156 915.764 976.545 911.498C963.319 901.442 949.677 891.074 936.498 880.92C878.738 837.316 820.631 794.174 762.181 751.498L706.042 709.001C691.666 697.996 681.929 688.406 664.931 681.611C652.82 676.77 640.189 669.837 628.321 664.271C625.699 662.895 618.26 658.067 615.749 658.233C612.255 662.361 610.497 683.288 609.155 690.436C621.9 699.234 633.428 709.605 645.247 719.638L690.061 757.412C746.083 805.554 802.58 853.141 859.543 900.165C869.085 908.045 949.647 974.552 951.819 978.638L951.288 979.28C948.072 978.772 921.281 955.257 916.478 951.214L862.92 906.358L765.48 825.104L682.225 754.467C659.458 734.882 632.229 710.859 608.749 692.72C605.79 704.954 603.348 719.353 600.921 731.833C595.52 759.166 590.318 786.537 585.315 813.945L580.075 841.597C577.588 855.074 580.766 855.128 566.192 855.956C566.224 859.227 566.362 863.166 566.204 866.375C575.719 867.865 576.8 874.962 579.8 882.962C583.373 892.487 587.123 902.004 589.727 911.846C598.578 912.715 634.369 916.025 635.46 925.932C633.588 933.633 606.308 940.074 598.761 942.09C557.197 953.03 514.851 960.743 472.099 965.16C465.238 965.818 445.697 967.712 440.33 964.61C439.859 963.376 437.944 958.333 437.848 957.429C436.741 947.097 442.125 934.66 447.832 926.304C426.319 931.512 404.204 933.805 382.08 933.121C376.795 932.969 365.906 933.757 365.698 926.311C365.028 902.335 384.226 889.503 402.28 878.348C416.092 869.813 429.038 861.987 442.672 853.379C451.843 847.502 457.616 843.923 464.414 835.167C466.323 832.709 470.019 834.977 472.183 836.257C473.266 831.705 474.289 827.359 474.735 822.689C471.424 820.554 469.069 819.219 466.507 816.172C466.467 810.503 468.35 795.36 472.283 790.271C472.928 789.437 476.599 788.924 477.844 788.763C478.47 785.624 477.211 771.16 477.146 767.247C476.912 753.206 476.39 739.079 476.123 725.038C475.772 691.79 475.914 658.537 476.549 625.293C454.648 637.028 428.803 648.007 406.101 658.499L293.604 711.195L101.074 801.675C71.8047 815.334 42.6316 829.2 13.2046 842.516C10.6887 843.654 3.84844 847.094 1.22111 846.415L1.06321 845.706C3.62397 843.508 21.7722 835.921 26.4791 833.717L115.677 792.221L476.527 623.204C477.27 603.536 477.883 586.722 483.064 567.395C470.534 558.543 458.2 549.418 446.07 540.025L445.553 586.272C445.508 593.799 445.869 611.522 444.445 618.199C443.081 608.489 443.524 590.521 443.525 580.21L444.103 505.326C444.193 494.441 444.698 481.863 443.483 471.046C443.204 468.558 440.823 465.914 439.156 463.937C421.77 458.164 405.975 458.062 388.067 462.241C378.188 464.546 369.071 468.04 363.99 477.613C363.105 479.281 361.626 483.371 360.285 484.514C357.057 482.767 363.948 472.722 365.654 470.992C381.288 455.139 417.502 454.325 436.838 460.83C429.632 450.204 373.652 410.338 361.394 405.301L360.988 405.507L361.812 406.453C360.76 407.056 337.119 406.94 333.406 409.898C333.02 410.205 321.722 413.969 321.456 413.956L321.226 413.291C324.231 409.111 338.385 406.228 343.46 405.281C349.027 404.242 355.445 404.451 361.116 404.688C342.003 392.752 320.814 373.897 298.949 365.903C292.369 363.498 279.529 365.202 272.671 366.503C263.077 368.323 258.59 373.062 251.083 375.766C261.158 364.312 280.368 361.571 294.778 362.58C278.417 349.106 252.135 329.31 230.329 326.687C224.471 325.983 210.697 336.181 209.444 336.133C208.78 330.5 225.366 325.274 230.032 324.401C220.66 317.412 193.963 301.751 183.567 298.905C180.07 297.929 176.404 297.713 172.817 298.271C169.229 298.811 166.273 299.888 162.969 301.356C160.988 302.237 157.773 305.172 156.257 305.368C155.144 299.649 169.855 296.596 173.714 295.602C160.875 286.966 137.586 273.422 121.743 276.582C117.846 277.359 116.423 278.482 112.996 279.912L112.217 279.346C112.888 277.554 114.165 276.959 115.997 276.124C125.665 271.72 136.146 274.039 145.592 277.786C154.279 281.231 169.746 288.806 176.523 295.255C195.83 296.994 217.32 314.243 233.61 323.961C236.87 325.905 242.537 326.222 245.981 328.172C262.978 336.754 284.199 348.11 296.511 362.628L296.668 362.816C320.81 370.62 341.429 388.949 362.281 402.792C389.92 421.142 424.881 439.562 444.615 466.766C447.378 470.574 446.561 490.039 446.548 495.706C446.565 509.391 446.461 523.075 446.238 536.757C449.578 540.227 479.586 561.873 484.467 564.817C491.893 551.206 504.909 540.383 521.212 540.65C524.231 540.699 527.305 541.774 530.317 541.236C536.286 528.694 572.802 523.43 585.857 523.484C582.626 511.858 567.307 452.847 567.943 444.161C559.895 440.453 559.763 438.303 559.223 429.624C561.979 425.45 564.315 424.028 568.565 421.566C549.363 396.685 529.672 384.923 503.909 367.613C500.871 365.572 483.764 355.605 483.075 353.867L483.411 353.346C491.425 354.474 542.883 390.501 551.178 398.595C558.171 405.419 563.069 410.61 569.124 418.643C569.624 419.294 570.107 419.957 570.575 420.631L577.091 417.471C571.556 409.334 565.299 400.667 557.893 394.088C540.675 378.791 518.986 366.532 498.999 355.21C493.912 352.329 484.224 346.663 479.182 344.729C477.003 346.876 476.727 347.377 475.215 350.062C476.079 369.516 480.615 536.341 477.229 540.331L477.375 540.778L477.33 540.783C475.437 537.703 475.911 513.616 475.89 508.145C475.809 484.513 475.605 460.88 475.28 437.25C474.68 417.469 474.191 397.685 473.811 377.898C473.555 368.53 472.664 358.289 473.547 349.041C473.886 345.483 478.202 341.687 482.359 343.579C490.53 347.3 498.115 352.065 505.985 356.392C534.134 373.075 562.635 387.02 578.849 416.822C589.809 411.887 601.037 409.086 612.467 405.577C613.995 405.108 613.897 404.97 614.607 403.778C614.58 399.691 611.355 397.132 610.872 393.408C610.828 393.068 615.494 386.329 615.945 385.791C619.094 382.037 619.017 377.729 623 374.71C625.342 366.357 627.596 359.729 637.752 363.352C639.149 363.851 641.055 364.682 642.513 364.485C643.876 363.013 643.597 356.248 644.246 352.932C639.131 353.529 633.844 354.036 628.76 354.724C628.192 356.506 628.157 357.726 626.978 358.774C625.401 357.124 625.885 354.818 627.351 353.258C632.6 351.439 638.725 351.232 644.307 350.778L645.175 346.343C625.216 339.137 600.724 326.186 579.91 320.518C575.472 319.309 560.509 321.212 555.297 320.994C549.781 321.19 531.348 324.444 528.415 323.744L528.614 323.785L528.894 323.096C537.528 318.901 567.954 317.461 578.28 318.846C572.072 316.588 566.332 313.884 559.285 313.17C554.211 312.656 524.601 318.548 523.099 317.589L523.171 316.491C525.463 314.809 553.48 311.427 557.642 311.419C553.278 309.456 543.389 305.867 538.521 303.851C531.785 301.061 512.474 291.493 506.416 290.494C497.406 289.007 480.669 288.95 471.343 289.168C467.081 289.267 443.408 292.176 442.692 291.897C453.045 284.84 490.365 286.81 503.379 288.312C480.274 278.952 479.349 278.761 453.102 282.555C449.427 283.087 439.947 285.41 437.08 283.215C444.485 280.997 468.858 278.433 476.143 278.457C466.515 274.811 456.92 271.08 447.357 267.267C428.963 259.88 425.846 258.513 405.631 257.352C397.557 256.883 389.461 256.917 381.39 257.454C377.572 257.686 373.73 258.245 369.944 258.41C368.197 258.487 368.244 258.37 367.658 257.456L367.861 256.427C375.541 253.044 413.188 255.253 422.373 256.796C402.098 247.789 386.076 249.363 364.647 251.14C363.415 251.242 362.489 250.872 361.521 250.166C364.569 248.074 393.414 247.781 399.138 248.041C386.896 242.706 370.621 235.412 358.006 231.459C350.752 229.186 334.155 227.855 326.37 227.197C322.211 226.846 314.311 226.227 310.269 227.414C308.214 228.018 304.017 231.042 302.223 230.876L302.143 230.203C306.839 225.22 311.611 224.764 318.255 224.619C329.324 224.376 343.516 226.329 354.46 228.901C340.566 221.382 310.816 210.835 301.052 229.065C299.873 231.265 300.3 234.73 298.766 237.249L297.995 237.484C297.155 236.565 297.086 236.748 297.19 235.306C298.487 221.093 311.1 215.747 323.745 216.735C337.161 217.785 348.073 224.925 360.049 229.288C376.559 235.301 393.127 244.237 409.299 250.131C411.822 233.841 415.303 217.288 419.174 200.84C421.663 190.263 426.897 161.75 435.46 154.768C442.655 148.902 463.068 150.799 471.218 152.758C481.126 154.804 499.648 157.413 505.648 165.969C507.202 168.184 507.19 170.509 507.344 173.068C510.942 168.612 513.644 165.747 520.602 165.453C540.63 164.608 571.944 172.048 588.432 183.271C591.829 185.583 593.687 190.762 594.717 194.249L595.27 198.712C597.022 196.5 600.506 192.717 602.977 191.796C614.802 187.391 649.571 195.695 660.733 199.652C664.709 195.399 668.888 189.938 672.738 185.424C679.361 177.605 686.789 170.504 694.896 164.237C685.835 163.149 677.823 160.015 668.058 158.153C651.917 155.075 626.742 148.402 610.404 150.248C602.076 151.19 611.313 171.297 609.166 175.505L608.366 175.514C608.294 175.394 607.822 174.628 607.806 174.517C606.887 168.113 603.12 158.264 605.335 152.285C606.014 150.45 608.002 148.398 609.263 148.162C624.82 145.251 684.366 158.026 695.822 163.472L700.095 160.603C681.111 154.665 616.776 135.913 599.635 144.33C598.851 156.2 603.674 167.507 602.136 176.281L601.59 176.312L601.847 176.724L602.094 176.153L601.433 175.839C599.187 167.782 596.929 152.792 598.102 144.579C575.911 132.744 543.643 123.731 517.924 125.65C507.996 126.392 512.046 140.384 510.278 142.992L509.54 142.361C508.781 138.92 508.502 131.756 510.163 128.65C513.924 121.618 524.793 122.802 531.498 123.194C550.416 124.301 569.165 129.537 586.716 136.523C590.367 137.976 594.99 141.265 598.611 143.288C601.349 141.167 604.375 141.135 607.759 140.817C606.453 140.026 602.921 137.905 601.379 137.311C577.707 128.204 537.507 113.28 512.638 120.289C500.079 123.828 507.71 140.939 505.542 145.625C504.498 143.913 504.429 143.886 504.099 142.034C501.318 126.349 502.826 118.058 520.474 116.587C544.34 114.597 566.974 123.387 589.393 130.263C597.052 132.611 603.929 135.3 610.149 140.341C612.977 140.443 615.625 140.773 618.432 141.085Z"/><path fill="#515561" transform="scale(0.390625 0.390625)" d="M590.422 213.112C596.692 208.762 595.28 198.813 602.519 194.714C612.755 188.917 647.449 198.141 659.587 201.265C655.308 205.269 648.344 212.556 645.384 217.513C634.583 235.599 646.012 268.748 670.984 263.395C672.253 263.124 674.058 261.656 675.667 261.225C678.679 266.347 681.233 270.531 684.572 275.457C683.875 278.933 682.974 283.082 681.706 286.368C676.786 299.111 668.369 315.385 691.545 309.279C691.491 311.582 691.664 313.469 691.838 315.752C695.505 319.404 697.106 321.139 701.689 323.485L707.313 323.161C716.944 337.956 724.031 335.907 735.572 324.13C729.111 336.345 725.236 346.307 731.424 359.659C726.074 365.376 721.657 378.355 718.542 386.135C716.509 384.514 714.234 382.287 711.776 381.9L711.629 382.584C713.152 385.227 714.973 386.384 717.357 388.3C714.923 395.276 711.483 401.988 708.841 408.901C706.569 414.846 705.664 420.318 704.59 426.532C685.106 412.837 678.626 389.358 663.225 372.342C662.067 371.062 656.95 369.659 655.014 369.068C655.894 363.579 656.66 360.355 658.518 355.16C668.005 350.17 683.886 342.969 693.88 338.294C692.743 334.675 691.307 329.395 688.243 327.187C684.771 326.967 651.063 342.602 646.12 344.817C638.463 340.931 626.357 336.072 618.344 332.767C599.941 325.048 581.332 317.826 562.539 311.111C570.068 275.493 577.26 247.746 589.395 212.987L590.422 213.112Z"/><path fill="#2F3547" transform="scale(0.390625 0.390625)" d="M594.717 194.249L595.27 198.712C593.45 203.109 591.238 208.417 590.422 213.112L589.395 212.987C590.549 207.596 594.768 198.489 594.717 194.249Z"/><path fill="#515561" transform="scale(0.390625 0.390625)" d="M524.322 843.493C522.793 843.162 522.268 843.173 521.052 842.162C521.357 843.235 522.789 816.936 523.062 816.088C525.955 807.095 525.809 806.267 525.33 795.458C524.902 786.23 524.428 777.004 523.906 767.781L518.328 672.528C517.558 657.081 517.174 641.617 517.179 626.151C517.719 560.181 534.951 558.607 595.239 561.673C595.737 563.635 596.06 565.711 596.414 567.711C597.335 571.629 598.132 574.657 599.343 578.488C608.893 581.627 615.102 583.028 625.367 584.167C641.12 585.915 671.897 581.807 685.978 574.547C688.075 573.443 690.08 572.173 691.973 570.747C697.189 573.88 703.8 576.691 708.455 579.906C709.161 606.889 709.154 634.059 711.749 660.936C712.006 663.599 712.732 666.538 713.359 669.146L718.558 670.656C719.617 678.471 727.383 696.455 730.667 704.056C702.542 695.234 675.087 684.403 648.514 671.645C641.991 668.624 635.534 665.463 629.146 662.164C624.963 659.976 619.716 656.931 615.513 655.064C614.263 634.412 601.013 613.451 588.388 597.575C583.532 591.469 574.587 582.145 567.391 578.966C589.646 598.046 610.59 625.522 614.498 656.098C614.645 657.255 614.361 658.165 613.792 659.172L613.037 659.519C611.552 657.131 610.967 654.384 609.757 651.829C600.594 632.489 588.462 614.242 572.937 599.414C571.072 597.633 567.773 594.395 565.687 593.242L565.311 593.826C566.783 595.822 568.852 597.356 570.669 599.171C574.279 602.776 577.756 606.512 581.093 610.372C587.822 618.296 613.192 654.752 610.737 664.097C604.724 664.837 590.105 647.33 584.36 643.667C592.528 653.256 598.838 661.163 610.817 666.103C609.521 678.323 606.932 689.368 604.525 701.391L595.624 747.027L585.752 799.306C583.834 809.88 581.629 824.033 579.121 834.265C566.637 836.267 549.309 834.449 536.978 831.209C534.125 830.459 528.98 827.378 526.514 827.01C526.334 828.765 526.186 827.872 527.576 829.656C525.569 835.089 524.742 837.72 524.322 843.493Z"/><path fill="#FEFDFD" transform="scale(0.390625 0.390625)" d="M524.322 843.493C522.793 843.162 522.268 843.173 521.052 842.162C521.357 843.235 522.789 816.936 523.062 816.088C525.955 807.095 525.809 806.267 525.33 795.458C524.902 786.23 524.428 777.004 523.906 767.781L518.328 672.528C517.558 657.081 517.174 641.617 517.179 626.151C517.719 560.181 534.951 558.607 595.239 561.673C595.737 563.635 596.06 565.711 596.414 567.711C584.791 567.566 545.681 565.53 538.551 574.472C517.051 601.438 523.843 642.154 523.555 674.244C523.717 692.427 525.307 708.126 526.114 724.592C527.116 747.941 527.894 771.299 528.446 794.662C528.54 798.793 530.794 806.293 529.535 809.581C527.595 814.648 527.757 822.523 526.514 827.01C526.334 828.765 526.186 827.872 527.576 829.656C525.569 835.089 524.742 837.72 524.322 843.493Z"/><path fill="#AFAFB0" transform="scale(0.390625 0.390625)" d="M862.523 336.127C870.242 337.373 878.778 338.051 883.29 345.279C888.71 353.962 895.295 367.329 896.788 377.569C899.406 395.536 895.125 415.828 892.382 433.672C885.305 470.337 875.888 512.524 856.827 544.954C850.571 555.599 839.418 567.531 829.366 574.575C820.167 581.021 813.507 581.671 802.733 579.633C790.851 577.386 774.954 571.889 764.956 564.826C746.343 551.678 730.543 530.265 715.87 512.775C711.119 507.111 703.196 497.503 699.245 491.694C698.166 490.098 697.146 488.461 696.188 486.789C713.461 481.519 728.031 469.785 736.861 454.032L738.724 449.073C761.319 459.91 776.92 473.484 795.413 489.865C814.921 503.17 818.408 515.227 827.782 534.489C827.518 517.975 813.824 500.795 800.611 491.825C802.745 492.109 806.278 492.854 808.026 491.811C806.377 490.005 801.969 490.107 799.416 489.949C797.464 488.662 795.364 486.714 793.565 485.158C798.193 478.156 802.647 467.741 805.1 459.545C809.323 445.435 814.881 431.582 819.918 417.788C820.594 415.936 818.775 409.161 819.001 406.752C821.035 385.106 828.137 366.404 843.323 350.54C848.518 343.633 854.861 339.781 862.523 336.127Z"/><path fill="#FEFDFD" transform="scale(0.390625 0.390625)" d="M843.323 350.54C843.427 352.514 830.969 387.509 829.809 395.388C829.172 397.722 829.273 400.736 829.464 403.154L829.703 405.852L829.613 407.345C829.708 408.023 830.16 411.261 830.064 411.692C828.879 417.009 826.521 415.497 829.652 420.45L829.552 421.16C824.529 441.292 817.241 457.975 811.848 476.916L810.713 479.121C807.035 479.676 803.303 482.171 799.976 484.056C799.771 486.019 799.585 487.983 799.416 489.949C797.464 488.662 795.364 486.714 793.565 485.158C798.193 478.156 802.647 467.741 805.1 459.545C809.323 445.435 814.881 431.582 819.918 417.788C820.594 415.936 818.775 409.161 819.001 406.752C821.035 385.106 828.137 366.404 843.323 350.54Z"/><path fill="#FEFDFD" transform="scale(0.390625 0.390625)" d="M738.724 449.073C761.319 459.91 776.92 473.484 795.413 489.865L795.385 490.605C794.821 492.805 795.325 494.377 795.726 496.639C790.354 492.533 784.779 486.363 779.53 481.787C765.879 469.887 753.066 461.977 736.861 454.032L738.724 449.073Z"/><path fill="#000002" transform="scale(0.390625 0.390625)" d="M829.652 420.45C841.363 401.585 866.661 385.143 888.892 383.02C868.69 390.656 855.778 394.776 839.248 411.075C837.201 413.094 831.347 421.359 829.552 421.16L829.652 420.45Z"/><path fill="#000002" transform="scale(0.390625 0.390625)" d="M811.848 476.916L812.859 476.811C819.063 476.133 836.919 472.227 840.484 479.346C839.671 483.032 834.302 483.908 831.014 484.576C824.243 485.95 817.768 487.165 811.175 489.351L810.568 489.078C810.569 483.959 833.829 482.861 838.139 480.173C837.71 475.032 814.512 478.497 810.713 479.121L811.848 476.916Z"/><path fill="#000002" transform="scale(0.390625 0.390625)" d="M795.385 490.605C799.545 495.729 806.634 536.094 803.318 541.233L802.528 541.238C801.752 539.714 801.803 536.459 801.664 534.637C800.672 521.676 798.538 509.323 795.726 496.639C795.325 494.377 794.821 492.805 795.385 490.605Z"/><path fill="#000002" transform="scale(0.390625 0.390625)" d="M829.703 405.852C832.552 397.493 855.187 381.564 864.366 379.228C848.892 387.916 841.439 394.41 829.613 407.345L829.703 405.852Z"/><path fill="#C6C4C5" transform="scale(0.390625 0.390625)" d="M829.809 395.388L831.333 394.543C833.215 396.805 831.37 401.471 829.464 403.154C829.273 400.736 829.172 397.722 829.809 395.388Z"/><path fill="#000002" transform="scale(0.390625 0.390625)" d="M813.601 492.543C814.55 492.437 816.364 492.262 817.252 492.357C824.305 493.113 836.776 501.935 836.487 509.51C834.549 508.996 833.561 506.518 832.367 504.885C827.396 498.084 820.772 496.008 813.601 492.543Z"/><path fill="#AFAFB0" transform="scale(0.390625 0.390625)" d="M807.159 270.355C825.002 264.564 849.437 252.071 866.995 264.86C874.043 271.286 878.18 280.989 878.952 290.408C880.118 304.645 866.293 314.483 853.207 314.48C851.546 314.479 850.046 314.158 848.408 314.156C848.586 314.928 848.885 315.363 849.679 315.664C859.688 319.451 874.229 311.957 878.911 303.034C882.647 295.915 882.237 290.212 880.657 283.604C894.765 291.622 924.128 308.922 913.12 329.084C910.618 333.723 906.277 337.092 901.163 338.364C890.962 341.009 878.181 336.096 868.274 333.986C860.678 332.368 852.513 331.765 845.009 331.293C820.253 329.734 801.15 335.926 784.382 354.92C779.215 360.772 774.16 366.035 770.024 373.155C769.931 373.31 769.838 373.466 769.745 373.621C772.81 370.864 775.076 368.716 777.905 365.732C775.96 382.081 784.142 405.92 782.797 423.279C781.972 433.919 780.87 443.834 779.591 454.405C779.477 456.243 779.91 457.717 780.752 459.32C781.553 459.885 782.404 460.578 783.413 460.074C795.45 454.06 797.088 438.263 797.46 427.88C797.789 419.248 797.649 410.605 797.041 401.988C795.794 386.343 791.82 361.946 795.663 347.462C814.528 333.336 833.164 331.629 856.272 334.985L856.988 335.093C835.454 347.768 827.029 365.015 820.005 388.611C816.913 398.999 817.171 407.469 817.148 418.061C817.106 421.316 810.405 433.476 809.682 437.465C803.916 452.599 800.913 469.769 791.514 483.137C777.442 470.655 767.507 461.484 750.546 452.392C752.653 430.365 753.78 406.819 752.165 384.771C752.018 382.761 752.324 380.957 752.216 379.434C751.581 381.701 751.287 382.711 750.996 385.02L750.154 385.673L748.648 380.827C758.924 352.831 774.646 324.253 799.086 306.711C814.835 295.407 840.16 290.287 847.904 272.503C845.889 268.872 836.9 267.891 833.195 269.828L833.196 270.365C836.593 271.129 842.282 271.168 844.264 273.341C844.893 282.29 814.113 294.351 806.772 298.997C800.248 292.608 798.937 289.998 795.065 281.618C794.54 280.534 794.486 280.586 794.456 279.402L795.309 278.693C801.279 278.197 804.483 275.536 807.159 270.355Z"/><path fill="#FEFDFD" transform="scale(0.390625 0.390625)" d="M807.159 270.355C825.002 264.564 849.437 252.071 866.995 264.86C860.628 270.226 857.133 270.461 849.509 277.942C824.991 302.001 793.33 308.139 775.405 340.816C769.788 351.056 754.944 367.163 752.216 379.434C751.581 381.701 751.287 382.711 750.996 385.02L750.154 385.673L748.648 380.827C758.924 352.831 774.646 324.253 799.086 306.711C814.835 295.407 840.16 290.287 847.904 272.503C845.889 268.872 836.9 267.891 833.195 269.828L833.196 270.365C836.593 271.129 842.282 271.168 844.264 273.341C844.893 282.29 814.113 294.351 806.772 298.997C800.248 292.608 798.937 289.998 795.065 281.618C794.54 280.534 794.486 280.586 794.456 279.402L795.309 278.693C801.279 278.197 804.483 275.536 807.159 270.355Z"/><path fill="#A4A5A8" transform="scale(0.390625 0.390625)" d="M795.065 281.618C796.094 281.83 797.781 282.219 798.714 281.802C811.312 276.171 823.408 268.677 836.707 264.723C841.449 263.313 850.102 263.924 849.702 270.738C848.718 272.426 849.401 272.009 847.904 272.503C845.889 268.872 836.9 267.891 833.195 269.828L833.196 270.365C836.593 271.129 842.282 271.168 844.264 273.341C844.893 282.29 814.113 294.351 806.772 298.997C800.248 292.608 798.937 289.998 795.065 281.618Z"/><path fill="#515561" transform="scale(0.390625 0.390625)" d="M727.6 152.706C737.833 149.992 752.361 149.35 761.661 155.068C776.196 164.004 777.365 177.044 782.782 191.061C782.746 188.111 782.717 185.448 782.49 182.501C801.218 185.669 817.138 198.201 813.003 219.21C808.957 239.768 792.522 239.823 779.666 249.751L780.45 249.56C787.346 247.85 799.655 240.138 805.704 243.595C812.094 247.247 812.264 260.592 808.589 266.137C807.446 267.798 805.984 266.309 804.416 267.667L804.439 268.292C804.557 272.68 802.874 275.505 798.316 276.4C795.5 274.687 798.973 274.453 796.076 273.958C792.989 275.723 788.567 281.242 785.137 280.173C785.9 278.163 787.459 275.758 787.384 274.254C782.102 275.284 782.645 283.645 774.761 281.919L773.893 281.225C773.891 278.466 778.147 276.196 778.58 273.836C775.151 273.155 771.622 278.778 769.034 281.121C759.105 283.004 760.019 281.159 757.616 271.848C768.099 258.868 768.579 235.654 749.558 230.338C741.829 232.916 739.495 236.496 738.02 244.361C727.305 232.063 716.472 237.317 702.173 237.347C679.619 237.395 667.248 231.983 658.857 210.891C671.475 205.912 687.902 181.502 697.74 171.623C703.996 165.34 710.721 160.45 718.915 156.843C721.703 155.615 725.838 154.831 728.097 153.348L727.6 152.706Z"/><path fill="#515561" transform="scale(0.390625 0.390625)" d="M521.205 167.627C537.156 166.57 560.708 172.957 575.68 178.933C592.409 185.61 594.577 191.652 588.593 207.836C579.721 231.835 572.737 257.464 566.683 282.335C564.733 290.514 562.016 301.927 561.37 310.162L561.317 310.893C559.268 309.914 556.806 308.918 554.693 307.998C533.139 298.998 500.875 283.558 479.81 277.76C483.107 257.698 498.592 188.982 509.799 173.631C512.932 169.341 516.237 168.485 521.205 167.627Z"/><path fill="#515561" transform="scale(0.390625 0.390625)" d="M483.557 791.701C481.936 791.259 481.808 791.319 480.406 790.303C479.458 788.382 479.262 776.293 479.182 773.428C477.68 719.514 478.114 665.131 479.305 611.323C481.348 518.99 528.833 546.928 592.535 551.094L594.41 557.691C588.037 557.275 581.201 556.721 574.863 556.555L575.047 557.135L576.087 557.27L576.359 557.863C575.983 558.044 566.871 558.034 565.577 558.047C554.028 558.047 541.01 559.457 531.467 566.585C521.901 573.729 517.584 588.42 516.344 599.832C514.22 619.367 514.586 640.703 515.316 660.375C516.612 690.345 518.327 720.295 520.462 750.216C521.464 765.899 522.985 784.616 523.057 800.031C514.646 798.551 490.944 794.754 483.557 791.701Z"/><path fill="#FEFDFD" transform="scale(0.390625 0.390625)" d="M483.557 791.701C481.936 791.259 481.808 791.319 480.406 790.303C479.458 788.382 479.262 776.293 479.182 773.428C477.68 719.514 478.114 665.131 479.305 611.323C481.348 518.99 528.833 546.928 592.535 551.094L594.41 557.691C588.037 557.275 581.201 556.721 574.863 556.555C561.837 553.676 531.589 553.89 517.661 553.644C515.432 553.605 511.114 554.875 509.128 556.174C499.707 562.335 492.208 573.006 490.282 584.16C487.265 601.632 486.766 620.433 485.729 638.17C483.085 677.169 481.974 716.257 482.399 755.343C482.508 767.746 483.27 779.489 483.557 791.701Z"/><path fill="#FEFDFD" transform="scale(0.390625 0.390625)" d="M727.6 152.706L728.097 153.348C725.838 154.831 721.703 155.615 718.915 156.843C710.721 160.45 703.996 165.34 697.74 171.623C687.902 181.502 671.475 205.912 658.857 210.891L657.816 211.734C657.949 217.655 662.847 225.078 666.994 229.09C682.117 243.717 704.996 239.166 723.937 238.859C733.188 238.708 736.467 249.358 739.054 249.738C739.033 249.438 738.811 247.943 738.81 247.959C739.186 239.135 748.541 227.427 756.979 236.618C764.263 244.552 764.263 260.733 757.119 268.631C756.094 269.711 751.461 272.33 749.863 273.336L750.165 274.443C753.657 275.378 753.797 271.77 755.8 275.331C758.166 279.539 758.45 281.413 762.045 284.851C772.654 283.26 782.125 285.22 791.742 280.241L792.345 279.924C795.528 288.733 797.901 293.795 804.899 300.105C790.29 308.347 775.13 324.347 766.383 338.41C763.496 343.052 760.541 350.011 757.941 353.87C757.282 341.571 755.449 320.091 748.494 309.827C756.832 297.821 760.73 290.29 755.652 275.326C755.134 279.545 756.135 289.91 755.202 292.559C751.026 304.405 738.854 317.965 729.508 326.366C715.907 338.591 713.867 324.915 708.034 319.983C704.871 319.625 702.65 323.326 699.849 319.022C700.9 313.798 711.583 311.318 710.624 305.612L709.763 304.721C709.055 305.653 708.894 305.915 708.37 307.151C706.619 311.278 699.183 316.797 694.608 315.235C692.351 314.464 694.887 309.4 693.531 307.29C689.508 305.626 678.945 309.868 678.896 306.488C678.748 296.219 685.969 286.786 686.761 274.947C684.695 271.551 673.325 254.103 677.731 251.77C690.026 253.923 705.239 247.032 717.419 244.215C718.184 244.038 718.169 243.742 718.454 243.133C716.51 241.464 711.162 242.232 708.422 242.412C691.973 243.492 675.564 247.52 661.626 235.954C653.883 229.529 654.928 226.12 650.929 219.564C649.904 219.642 650.292 219.506 649.714 219.77C649.454 231.097 667.781 246.863 678.814 246.007C681.008 245.836 682.388 245.928 682.752 247.73L682.201 248.992C680.955 249.028 681.356 249.123 680.288 248.601C678.748 249.113 679.446 249.208 678.12 248.668C679.005 247.905 678.667 248.111 679.714 247.695L678.665 246.912C675.916 248.118 676.117 248.003 673.97 245.84L673.196 246.189C672.45 248.774 674.106 254.127 674.788 256.886C666.059 257.984 665.045 257.66 657.367 252.555C656.538 252.004 655.642 251.301 654.661 251.201C658.644 256.662 663.835 259.219 670.363 260.109L671.195 260.219L670.94 260.7C646.408 266.977 637.347 229.595 648.29 217.672C672.47 191.326 689.844 160.631 727.6 152.706Z"/><path fill="#515561" transform="scale(0.390625 0.390625)" d="M654.661 251.201C647.658 244.09 648.843 228.836 649.714 219.77C649.454 231.097 667.781 246.863 678.814 246.007C681.008 245.836 682.388 245.928 682.752 247.73L682.201 248.992C680.955 249.028 681.356 249.123 680.288 248.601C678.748 249.113 679.446 249.208 678.12 248.668C679.005 247.905 678.667 248.111 679.714 247.695L678.665 246.912C675.916 248.118 676.117 248.003 673.97 245.84L673.196 246.189C672.45 248.774 674.106 254.127 674.788 256.886C666.059 257.984 665.045 257.66 657.367 252.555C656.538 252.004 655.642 251.301 654.661 251.201Z"/><path fill="#000002" transform="scale(0.390625 0.390625)" d="M688.874 256.155C690.661 256.188 693.631 257.815 696.317 258.34C699.925 259.045 705.295 257.472 707.238 258.574L706.91 259.596C703.302 262.229 699.937 259.113 698.4 262.503L699.342 264.858C700.099 267.625 700.967 271.352 697.709 272.461C693.155 270.873 694.862 267.145 691.667 263.711C690.268 263.641 689.644 263.775 688.489 263.031C687.341 260.912 688.229 258.346 688.874 256.155Z"/><path fill="#000002" transform="scale(0.390625 0.390625)" d="M748.895 242.061C754.407 241.538 760.66 242.837 759.366 249.945L758.7 250.335C756.324 245.343 756.621 244.13 750.715 243.969L750.019 243.955C748.88 245.46 748.222 246.595 748.214 248.491C749.67 249.548 751.257 247.852 753.373 249.228L753.213 249.907C751.177 251.844 748.753 251.869 746.686 250.025C745.535 246.92 746.556 244.209 748.895 242.061Z"/><path fill="#000002" transform="scale(0.390625 0.390625)" d="M755.559 253.007L756.681 253.279C756.197 255.029 755.564 255.153 754.047 256.658L754.376 257.33C755.411 259.466 756.562 261.05 755.823 263.166C754.071 264.141 752.108 263.601 749.954 263.833L749.481 263.886C750.752 262.7 751.742 262.442 753.366 261.682C754.433 260.081 754.349 260.874 754.176 259.312C753.081 258.098 750.762 257.592 749.111 257.051L748.946 256.382C750.385 255.29 752.964 254.524 755.09 253.285L755.559 253.007Z"/><path fill="#000002" transform="scale(0.390625 0.390625)" d="M693.235 299.367C694.181 299.688 693.762 299.411 694.448 300.258C693.62 301.545 690.268 302.888 688.691 303.657L688.157 303.872L687.638 303.523L688.057 302.41C690.036 300.459 690.594 300.338 693.235 299.367Z"/><path fill="#515561" transform="scale(0.390625 0.390625)" d="M657.735 55.7105C676.661 55.0834 698.919 58.958 717.204 63.7058C724.508 65.6025 729.877 73.5152 729.687 80.9418C729.087 104.4 723.734 127.894 721.462 151.331C714.194 153.334 708.832 155.813 702.299 159.432C699.956 158.478 697.258 157.588 694.85 156.73C670.588 148.881 645.57 143.597 620.205 140.965C621.806 124.922 629.181 73.7357 638.118 63.3833C643.216 57.4795 650.426 56.3685 657.735 55.7105Z"/><path fill="#AFAFB0" transform="scale(0.390625 0.390625)" d="M900.644 388.951C912.913 431.518 909.157 539.486 893.566 580.919C881.035 581.848 868.517 582.951 856.017 584.23C843.238 585.448 825.036 585.335 815.772 595.449C806.928 605.105 809.049 626.294 810.447 638.584C800.674 626.594 790.807 613.786 779.675 603.021C759.82 583.821 724.263 558.457 697.005 554.349C697.03 550.53 696.897 544.671 697.348 541.04C697.483 535.399 708.238 517.804 711.366 512.133L714.221 515.664C720.554 523.646 727.125 531.437 733.923 539.027C750.307 557.678 763.578 571.761 788.435 578.852C807.642 584.332 818.796 586.75 835.368 573.632C840.199 569.758 844.641 565.423 848.63 560.688L849.067 561.142C856.247 568.732 858.454 574.984 868.939 579.636C860.329 571.542 856.881 568.596 850.452 558.633C872.566 530.675 879.977 497.796 888.961 464.17C896.106 437.426 898.024 416.181 900.644 388.951Z"/><path fill="#FEFDFD" transform="scale(0.390625 0.390625)" d="M711.366 512.133L714.221 515.664C711.119 521.474 701.883 537.114 697.348 541.04C697.483 535.399 708.238 517.804 711.366 512.133Z"/><path fill="#515561" transform="scale(0.390625 0.390625)" d="M449.317 153.179C462.828 152.207 491.702 158.21 503.395 165.889C504.505 167.97 506.136 171.516 505.513 173.813C503.45 181.423 500.089 189.31 497.692 196.867C492.119 214.271 487.297 231.907 483.238 249.724C481.364 257.911 478.829 269.111 478.31 277.408C475.583 275.896 473.479 274.992 470.623 273.759L433.399 259.259C426.19 256.431 417.864 252.937 410.59 250.539C413.245 242.375 414.38 233.407 416.053 224.985C418.79 211.203 427.011 168.088 434.438 158.827C438.055 154.318 443.973 153.726 449.317 153.179Z"/><path fill="#515561" transform="scale(0.390625 0.390625)" d="M723.962 589.201C733.919 595.868 752.005 608.592 758.31 618.281C755.698 618.455 754.128 618.661 751.548 619.118L751.303 619.972L749.99 619.653C751.047 620.637 757.568 619.421 759.17 619.185C760.567 620.261 762.535 621.446 763.015 623.003C762.52 624.226 762.427 624.135 761.31 624.903C763.195 625.599 763.656 625.669 765.664 625.988C772.919 633.61 779.195 643.747 786.006 651.999C779.537 652.577 770.607 653.603 764.33 653.586L764.044 654.188C767.017 654.87 770.368 654.331 773.537 654.548C778.158 654.243 782.785 654.044 787.415 653.948C795.946 665.053 802.646 676.886 810.435 688.304C795.472 690.718 766.989 692.178 752.825 683.67C745.514 679.278 740.638 654.236 738.531 653.071L738.075 653.497C739.91 661.78 745.964 681.806 753.061 685.785C767.287 693.762 796.236 692.803 811.642 690.292C818.06 697.911 821.256 701.909 829.708 707.435C804.839 718.235 780.248 716.662 754.751 709.633C752.117 708.907 746.183 707.868 744.453 707.333L743.718 705.811C743.24 703.297 738.119 694.863 736.686 691.984C734.129 686.846 728.714 676.254 727.481 670.994C725.456 662.356 725.673 648.099 725.42 638.824C725.059 622.28 724.573 605.738 723.962 589.201Z"/><path fill="#262529" transform="scale(0.390625 0.390625)" d="M773.537 654.548C770.473 655.139 758.448 655.36 755.721 654.46L756.039 654.675L755.46 654.572C758.943 654.051 760.616 653.72 764.33 653.586L764.044 654.188C767.017 654.87 770.368 654.331 773.537 654.548Z"/><path fill="#AFAFB0" transform="scale(0.390625 0.390625)" d="M696.975 557.085C717.615 561.12 731.942 570.412 749.228 581.725C772.456 596.925 791.855 617.02 808.117 639.404C815.888 650.101 805.438 662.286 823.55 665.035C833.262 681.575 842.307 692.497 858.902 702.139C856.533 705.672 855.764 706.4 852.776 709.437C851.142 710.732 849.939 711.295 848.088 712.285C821.851 709.556 808.544 679.106 795.305 660.642C783.856 644.673 771.692 627.743 758.052 613.615C737.699 592.535 718.7 583.462 694.014 569.874C696.546 564.772 696.394 562.759 696.975 557.085Z"/><path fill="#FEFDFD" transform="scale(0.390625 0.390625)" d="M632.201 366.1C638.179 366.375 658.746 371.115 661.843 374.883C676.42 392.62 683.681 414.545 702.944 428.994C700.248 434.835 693.184 451.163 687.213 454.196C684.992 455.324 680.453 453.352 678.539 451.697C674.823 448.484 669.073 449.268 665.195 445.971C658.784 440.521 654.729 429.971 647.494 425.667C642.758 422.85 635.065 421.947 630.12 419.762C627.844 418.757 626.741 417.715 627.525 416.116C627.488 416.192 626.337 413.221 626.193 412.836C629.734 412.273 641.243 417.252 645.187 415.575L645.53 414.561C644.486 413.154 644.259 413.561 641.915 413.104C636.172 412.057 626.281 410.591 621.209 408.254C619.31 405.855 617.583 404.226 618.301 401.029C623.498 395.311 641.213 405.924 646.767 402.66L646.92 401.599L646.236 400.882C637.64 400.841 629.724 396.043 621.192 396.105C620.278 396.112 616.887 398.046 615.727 398.642C614.787 396.815 613.861 394.981 612.949 393.14C615.027 391.075 617.864 388.663 620.089 386.666C629.368 387.307 645.345 392.525 652.1 390.811L652.289 390.124C649.376 387.945 627.911 384.702 623.103 384.175C622.338 383.408 621.766 382.849 621.082 382.012C621.591 380.302 623.09 378.859 624.297 377.461C631.83 377.256 638.026 377.617 645.355 379.707C648.601 380.634 652.268 382.307 655.574 381.364L655.96 380.582C653.913 377.667 637.9 375.705 633.75 374.392C631.272 373.609 628.628 374.944 626.578 373.581L626.329 372.154C627.221 369.279 629.81 367.66 632.201 366.1Z"/><path fill="#FEFDFD" transform="scale(0.390625 0.390625)" d="M643.601 446.146C643.57 445.195 643.281 443.378 643.836 442.969C647.213 440.477 651.548 439.601 655.666 437.502C654.918 446.35 655.446 456.568 655.887 465.538C657.611 500.643 659.453 535.757 661.205 570.86C661.347 573.702 661.511 576.641 661.896 579.45L652.39 581.061L651.613 581.181C648.491 581.788 643.955 582.211 640.702 582.615C640.359 574.511 639.097 564.217 638.325 556.023C636.51 536.263 634.447 516.527 632.135 496.819C630.528 482.613 628.943 460.359 626.381 447.229C633.062 445.995 635.279 445.722 641.718 443.255C642.391 444.537 642.349 445.283 642.586 446.758L643.601 446.146Z"/><path fill="#DC504F" transform="scale(0.390625 0.390625)" d="M643.601 446.146C643.57 445.195 643.281 443.378 643.836 442.969C647.213 440.477 651.548 439.601 655.666 437.502C654.918 446.35 655.446 456.568 655.887 465.538C657.611 500.643 659.453 535.757 661.205 570.86C661.347 573.702 661.511 576.641 661.896 579.45L652.39 581.061L651.613 581.181C650.773 556.208 648.51 529.662 646.635 504.719L642.586 446.758L643.601 446.146Z"/><path fill="#000002" transform="scale(0.390625 0.390625)" d="M643.601 446.146C645.252 449.98 652.894 571.497 652.39 581.061L651.613 581.181C650.773 556.208 648.51 529.662 646.635 504.719L642.586 446.758L643.601 446.146Z"/><path fill="#FEFDFD" transform="scale(0.390625 0.390625)" d="M517.593 856.782C518.511 857.791 520.567 861.067 521.64 862.421C527.037 869.23 532.119 874.127 539.994 877.754L540.597 877.473C573.713 862.202 572.117 867.26 582.95 898.681C583.777 901.082 584.618 903.597 585.371 906.048C577.647 910.173 523.684 932.146 517.63 932.084C517.54 927.018 515.117 922.308 512.216 918.248L511.798 917.674C524.594 900.408 532.142 891.578 553.443 884.952C557.966 883.545 567.388 880.621 571.148 878.38C564.707 878.197 561.644 879.703 555.645 881.822C528.928 890.566 526.966 894.591 510.44 914.569C503.428 905.581 497.56 896.276 485.934 893.167C488.922 890.24 491.626 887.509 494.91 884.892C505.325 885.127 513.667 886.695 521.815 893.45C519.112 895.964 516.411 899.175 513.94 901.973C513.711 901.628 513.476 901.286 513.236 900.949C510.218 896.753 497.545 887.27 492.704 891.27C492.706 891.564 492.707 891.857 492.709 892.15C495.031 892.745 501.026 894.486 502.796 895.146C507.436 896.877 510.815 901.564 513.339 905.459L527.516 888.466C529.164 888.019 529.591 888.714 531.532 889.802L532.205 889.184C531.737 883.648 514.78 871.763 510.215 868.716C513.04 864.955 515.255 860.861 517.593 856.782Z"/><path fill="#2F3547" transform="scale(0.390625 0.390625)" d="M582.302 919.672C584.055 918.885 588.27 917.2 589.483 916.033L589.718 913.874C591.155 913.304 595.151 913.954 596.695 914.332C603.76 916.064 629.691 917.889 632.324 925.109C632.128 932.131 605.038 938.104 598.708 939.736C562.622 949.18 525.988 956.388 489.015 961.32C475.976 963.11 454.032 966.438 441.699 964.172L441.076 963.424L441.382 962.529C445.756 961.525 463.141 961.142 466.064 958.59C465.378 957.799 465.726 958.028 465.157 957.727C474.074 955.824 483.001 953.966 491.938 952.155C492.785 952.299 493.645 952.364 494.504 952.349C503.074 952.149 577.69 924.748 582.302 919.672Z"/><path fill="#FEFDFD" transform="scale(0.390625 0.390625)" d="M656.368 440.328C657.632 441.388 659.409 443.693 660.859 445.015C665.027 448.816 668.094 450.254 673.067 452.694L674.517 538.429C674.562 544.125 675.406 574.477 673.303 576.614C670.144 577.639 666.802 578.393 663.571 579.188L659.364 491.426C658.77 478.015 658.394 453.026 656.368 440.328Z"/><path fill="#FEFDFD" transform="scale(0.390625 0.390625)" d="M610.456 448.739L610.888 449.057C612.47 456.041 613.247 464.772 614.401 472.069C620.202 508.75 624.628 545.735 629.711 582.525C625.632 582.105 622.069 581.713 618.032 581.035C615.187 562.056 611.519 541.828 608.395 522.765L596.664 449.623C602.014 449.532 605.127 449.422 610.456 448.739Z"/><path fill="#FEFDFD" transform="scale(0.390625 0.390625)" d="M412.01 875.366C429.776 878.913 435.063 892.187 438.049 908.217C424.566 910.43 408.738 912.038 395.124 913.249C389.135 913.979 376.44 913.962 369.948 914.106C376.185 895.131 395.98 885.596 412.01 875.366Z"/><path fill="#FEFDFD" transform="scale(0.390625 0.390625)" d="M471.595 907.384C482.855 909.394 494.762 928.531 498.808 938.17C487.406 941.452 478.002 943.557 466.388 946.001C457.505 947.688 449.958 949.302 440.849 949.114C445.838 928.936 455.46 919.761 471.595 907.384Z"/><path fill="#DC504F" transform="scale(0.390625 0.390625)" d="M617.737 447.691C618.972 447.466 623.442 447.326 624.927 447.243C626.057 454.139 626.73 465.123 627.568 472.403C630.581 498.194 633.302 524.018 635.729 549.87C636.262 555.01 639.595 578.856 639.177 581.954C637.822 582.871 637.101 582.54 635.138 582.602C633.608 582.624 632.796 582.793 631.464 582.047C630.689 581.023 628.657 564.031 628.292 561.341C624.882 535.467 621.298 509.616 617.54 483.79C616.52 476.463 613.01 455.121 612.772 448.745C613.927 447.842 616.152 447.848 617.737 447.691Z"/><path fill="#FEFDFD" transform="scale(0.390625 0.390625)" d="M499.777 860.695C502.721 860.366 509.059 859.765 511.373 861.636C511.373 862.896 510.848 863.544 509.994 864.651C501.252 876.064 491.044 885.47 480.544 895.146C472.6 902.468 473.831 902.921 462.917 904.787C462.516 904.585 462.114 904.383 461.712 904.181C460.845 899.84 459.599 895.607 457.922 891.511C456.102 887.064 453.564 883.131 450.782 879.229C467.183 866.069 479.482 862.753 499.777 860.695Z"/><path fill="#AFAFB0" transform="scale(0.390625 0.390625)" d="M881.525 659.292C883.408 659.034 883.532 658.932 885.466 659.246C885.665 661.732 882.506 667.053 881.213 669.471C875.352 680.421 868.648 691.586 859.615 700.225C851.477 696.23 848.859 693.816 842.475 687.284C835.697 680.203 830.975 672.789 825.632 664.639C831.039 664.52 838.089 663.65 843.577 663.111C856.217 661.748 868.866 660.475 881.525 659.292Z"/><path fill="#FEFDFD" transform="scale(0.390625 0.390625)" d="M440.532 951.247C445.131 951.274 450.077 950.811 454.611 950.142C489.561 944.979 522.976 934.434 555.644 921.159C565.75 917.052 576.063 913.081 585.86 908.253C587.818 915.478 587.775 915.893 581.368 919.163C550.496 932.251 524.448 942.63 491.938 952.155C483.001 953.966 474.074 955.824 465.157 957.727C456.861 959.342 448.572 960.34 440.118 959.873C440.003 956.63 440.23 954.471 440.532 951.247Z"/><path fill="#515561" transform="scale(0.390625 0.390625)" d="M928.355 653.694C929.11 653.548 932.521 653.423 933.484 653.368C933.914 674.733 934.496 696.095 935.231 717.452C930.195 715.31 925.626 712.961 920.75 710.498C915.858 708 910.988 705.459 906.141 702.876C910.497 688.887 914.193 669.724 917.561 654.974L928.355 653.694Z"/><path fill="#AFAFB0" transform="scale(0.390625 0.390625)" d="M688.021 468.347C698.208 468.273 715.721 448.588 717.842 438.811C716.763 436.258 712.438 434.242 711.027 431.487C714.343 425.073 726.804 434.67 730.746 436.894C733.555 438.478 735.794 441.306 737.59 443.96C733.842 458.105 721.328 471.435 708.982 478.658C704.474 481.335 699.595 483.33 694.502 484.58C688.551 480.875 687.372 477.132 683.376 472.171C680.983 470.031 678.787 466.999 682.152 464.381L683.228 464.641C685.01 466.466 685.853 466.95 688.021 468.347Z"/><path fill="#FEFDFD" transform="scale(0.390625 0.390625)" d="M683.376 472.171C680.983 470.031 678.787 466.999 682.152 464.381L683.228 464.641C685.01 466.466 685.853 466.95 688.021 468.347C686.504 469.606 684.924 470.968 683.376 472.171Z"/><path fill="#FEFDFD" transform="scale(0.390625 0.390625)" d="M613.386 408.103C616.478 407.685 618.656 409.555 621.26 411.234C615.163 413.982 606.571 415.983 600.094 417.943C591.967 420.402 585.001 422.912 577.38 426.659C575.137 427.761 571.641 428.833 569.71 430.143L569.739 431.097C570.263 431.704 570.983 432.401 571.809 432.656C590.821 438.527 613.353 435.467 632.165 429.957C634.928 429.175 637.733 427.22 640.379 426.283C643.128 425.311 650.001 430.34 650.549 432.734L649.861 433.467C636.332 438.808 622.712 444.099 607.505 445.53C595.965 446.615 574.977 446.843 564.383 439.502C562.399 438.127 562.455 431.909 562.313 429.32C572.238 420.186 600.133 411.468 613.386 408.103Z"/><path fill="#DC504F" transform="scale(0.390625 0.390625)" d="M583.013 448.898C586.978 449.238 590.951 449.485 594.927 449.637C596.056 462.224 599.155 477.99 601.147 490.828C605.862 520.888 610.882 550.9 616.208 580.858C613.739 580.472 611.256 579.837 608.817 579.268C603.445 553.01 598.307 526.706 593.405 500.357C590.073 483.15 586.282 466.083 583.013 448.898Z"/><path fill="#515561" transform="scale(0.390625 0.390625)" d="M474.869 819.779C465.617 814.898 468.376 813.307 469.967 803.424C470.488 800.184 472.222 794.07 474.571 791.86C476.665 791.634 482.815 794.076 485.19 794.899L484.108 797.786C481.364 797.356 480.079 796.966 477.449 797.884C488.774 802.221 510.809 806.58 522.531 806.52C518.76 815.835 518.154 818.46 516.968 828.366C502.093 827.452 488.889 825.204 474.869 819.779Z"/><path fill="#FEFDFD" transform="scale(0.390625 0.390625)" d="M474.869 819.779C465.617 814.898 468.376 813.307 469.967 803.424C470.488 800.184 472.222 794.07 474.571 791.86C476.665 791.634 482.815 794.076 485.19 794.899L484.108 797.786C481.364 797.356 480.079 796.966 477.449 797.884C475.195 803.224 474.897 806.444 474.53 812.233C474.422 813.944 475.145 819.336 474.869 819.779Z"/><path fill="#FEFDFD" transform="scale(0.390625 0.390625)" d="M465.41 837.259C469.645 837.521 471.388 839.181 474.889 841.78C487.672 851.272 498.787 849.822 513.648 847.928L515.989 854.666C512.425 862.389 512.17 857.559 503.786 857.942C477.734 859.133 469.49 863.431 448.539 876.479C441.918 870.702 438.87 868.399 431.215 863.946C433.778 862.034 435.348 861.152 438.12 859.589C452.671 862.832 447.801 866.741 454.324 870.227L455.012 869.468C454.972 867.588 454.768 867.881 453.677 866.006C449.246 861.206 447.163 858.894 440.581 857.864C443.914 855.419 445.094 854.673 448.791 852.863C462.855 856.613 456.149 863.513 460.62 865.991L461.445 865.573C461.864 863.868 461.03 861.488 460.571 859.714C459.271 854.688 455.514 852.88 451.217 850.591C452.695 849.737 454.091 848.83 455.528 847.912C466.52 854.579 465.096 859.562 469.21 862.741L470.249 862.601L470.76 861.63C469.499 855.304 462.223 850.189 457.709 846.582L458.406 846.05C466.832 845.088 475.522 849.566 479.178 857.451C479.572 858.3 479.966 858.815 480.609 859.499C483.825 848.973 468.49 844.927 460.94 844.173C460.866 842.116 463.96 838.939 465.41 837.259Z"/><path fill="#FEFDFD" transform="scale(0.390625 0.390625)" d="M570.246 446.087C574.162 446.941 577.25 447.549 581.209 448.103C584.15 466.231 588.703 485.718 592.256 503.929C596.932 527.89 601.158 555.192 607.03 578.619C605.175 577.992 603.28 577.221 601.445 576.514C598.813 568.821 595.44 553.577 593.598 545.457L585.169 509.718L575.216 468.91C573.414 461.348 571.359 453.762 570.246 446.087Z"/><path fill="#A4A5A8" transform="scale(0.390625 0.390625)" d="M792.081 349.778C788.774 375.6 797.218 403.818 794.773 430.049C793.579 442.853 793.826 447.336 784.232 457.013L783.13 458.234L782.376 457.967C781.286 453.889 785.836 430.304 785.405 422.026C785.185 408.348 782.233 394.937 780.819 381.383C779.707 370.718 777.148 362.427 786.364 354.644C788.892 353.27 790.101 351.812 792.081 349.778Z"/><path fill="#FEFDFD" transform="scale(0.390625 0.390625)" d="M786.364 354.644C786.694 356.063 784.636 362.795 784.578 365.381C784.326 376.566 786.361 388.085 787.589 399.248C788.347 406.776 788.803 414.331 788.957 421.896C789.093 428.278 788.775 436.468 787.673 442.804C786.922 447.118 784.687 452.896 784.232 457.013L783.13 458.234L782.376 457.967C781.286 453.889 785.836 430.304 785.405 422.026C785.185 408.348 782.233 394.937 780.819 381.383C779.707 370.718 777.148 362.427 786.364 354.644Z"/><path fill="#A4A5A8" transform="scale(0.390625 0.390625)" d="M744.824 376.341C737.523 361.394 725.465 353.986 733.329 334.968C735.35 330.079 741.862 315.152 746.426 313.122C747.989 313.611 747.59 313.742 748.657 315.779C752.595 326.554 758.365 352.047 753.268 362.667C752.001 365.306 747.63 376.936 745.736 377.735C745.056 376.962 745.142 377.244 744.824 376.341Z"/><path fill="#FEFDFD" transform="scale(0.390625 0.390625)" d="M744.824 376.341C737.523 361.394 725.465 353.986 733.329 334.968C735.35 330.079 741.862 315.152 746.426 313.122C747.989 313.611 747.59 313.742 748.657 315.779C742.465 328.553 733.944 344.129 739.36 358.199C740.987 362.427 746.116 372.596 744.824 376.341Z"/><path fill="#DC504F" transform="scale(0.390625 0.390625)" d="M676.121 454.167C683.493 457.682 679.634 463.015 677.45 468.881C679.914 472.196 682.456 474.847 685.005 478.451C685.256 492.594 684.577 505.949 684.346 520.004L683.972 568.875C684.115 575.15 681.258 574.626 675.768 576.072C676.706 546.604 675.175 516.774 675.33 487.267C675.387 476.316 675.192 465.06 676.121 454.167Z"/><path fill="#515561" transform="scale(0.390625 0.390625)" d="M582.484 526.22C583.954 526.166 584.226 526.202 585.69 526.411C587.492 528.003 590.204 543.724 591.637 548.085L591.871 548.784C577.963 546.229 562.616 545.277 548.38 543.257C542.581 542.469 537.739 542.421 531.91 541.187C542.876 530.945 568.046 526.92 582.484 526.22Z"/><path fill="#7F7A84" transform="scale(0.390625 0.390625)" d="M710.5 581.289C714.484 583.474 717.797 585.577 721.601 588.018C722.264 595.887 722.182 606.324 722.465 614.425C723.129 629.468 723.668 644.517 724.084 659.569C720.698 659.684 717.595 659.578 714.254 659C712.429 656.948 710.902 589.332 710.5 581.289Z"/><path fill="#515561" transform="scale(0.390625 0.390625)" d="M527.576 829.656C541.354 836.507 563.207 838.941 578.337 836.679C577.351 842.3 576.985 847.242 576.344 852.854C560.818 853.785 547.931 851.681 533.28 846.726C531.312 846.061 525.926 844.326 524.322 843.493C524.742 837.72 525.569 835.089 527.576 829.656Z"/><path fill="#FEFDFD" transform="scale(0.390625 0.390625)" d="M427.339 865.907C430.339 866.255 434.29 868.475 436.798 870.236C449.211 878.951 456.599 890.1 459.354 904.892C455.785 905.701 450.535 906.334 446.808 906.898L440.92 907.847C437.478 892.056 432.169 879.027 415.783 873.411C419.727 870.71 423.196 868.329 427.339 865.907Z"/><path fill="#FEFDFD" transform="scale(0.390625 0.390625)" d="M483.499 895.369C498.289 896.518 512.251 920.004 515.344 933.136L505.102 936.525L501.629 937.745C495.591 923.198 487.213 913.425 474.014 905.152C477.236 901.643 480.079 898.681 483.499 895.369Z"/><path fill="#FEFDFD" transform="scale(0.390625 0.390625)" d="M477.085 822.72C489.87 826.64 500.192 830.014 513.752 830.301C514.854 830.324 515.433 830.5 516.003 831.341C511.895 835.305 515.188 842.866 511.89 845.431C496.754 848.842 485.872 847.518 473.641 838.135C475.382 832.377 476.373 828.678 477.085 822.72Z"/><path fill="#FEFDFD" transform="scale(0.390625 0.390625)" d="M466.268 906.709C467.279 906.447 466.796 906.416 467.72 906.746C457.876 915.956 448.02 916.056 435.195 918.019C413.492 921.336 391.634 923.541 369.707 924.628L369.172 924.729L368.581 924.016C368.48 921.292 369.089 918.655 369.561 915.952C395.668 918.655 439.226 910.154 466.268 906.709Z"/><path fill="#FEFDFD" transform="scale(0.390625 0.390625)" d="M687.028 481.706C687.658 482.084 692.961 486.711 694.458 487.851C695.603 492.108 695.182 503.002 695.026 507.82C694.407 526.961 694.446 546.095 693.235 565.212C693.161 566.381 691.982 567.634 691.203 568.45C689.59 569.629 687.701 570.825 686.022 571.944C686.181 542.195 687.689 511.303 687.028 481.706Z"/><path fill="#FEFDFD" transform="scale(0.390625 0.390625)" d="M531.074 847.727C535.246 848.787 539.804 850.858 544.016 852.175C550.899 854.327 557.197 855.002 564.287 855.834C563.819 859.115 563.673 863.377 563.469 866.766L554.735 869.336L538.703 875.135C534.302 872.425 529.957 867.767 526.229 864.058C529.985 857.009 529.99 855.71 531.074 847.727Z"/><path fill="#FEFDFD" transform="scale(0.390625 0.390625)" d="M715.861 427.216C712.242 427.746 711.657 429.488 708.338 428.739C707.82 428.205 707.22 427.864 707.134 427.087C706.331 419.796 727.496 369.343 732.377 361.96L735.602 366.878C732.776 379.865 722.046 388.764 722.979 405.629C723.039 406.714 723.156 406.852 722.582 407.782C723.891 409.907 724.037 426.902 724.009 430.199C721.061 428.765 719.141 427.61 715.861 427.216Z"/><path fill="#A4A5A8" transform="scale(0.390625 0.390625)" d="M715.861 427.216C719.19 425.836 720.244 412.92 722.582 407.782C723.891 409.907 724.037 426.902 724.009 430.199C721.061 428.765 719.141 427.61 715.861 427.216Z"/><path fill="#2F3547" transform="scale(0.390625 0.390625)" d="M456.763 915.693C457.507 915.456 457.081 915.483 458.034 915.848C457.601 917.368 450.146 923.275 448.484 924.696C421.935 929.478 399.271 933.741 371.929 930.87C368.915 929.61 368.621 928.664 366.736 926.016C393.407 925.128 419.049 923.613 445.289 918.007C449.099 917.193 452.936 916.42 456.763 915.693Z"/><path fill="#AFAFB0" transform="scale(0.390625 0.390625)" d="M740.568 389.146C742.885 389.572 743.316 390.101 744.945 389.265C745.405 387.238 745.373 386.34 746.848 384.874C747.109 386.802 747.501 391.423 748.341 392.815C749.499 392.626 749.06 392.573 750.18 391.113C752.572 396.079 749.307 442.576 748.726 451.445C747.07 450.612 742.777 448.584 741.492 447.588C740.085 446.912 740.58 447.424 739.946 446.011C740.227 443.222 741.589 440.687 742.736 438.073C738.899 430.034 740.223 426.382 741.116 417.443C740.889 413.412 742.811 397.5 741.796 394.847L740.32 394.317L740.047 393.993C740.166 392.329 740.36 390.801 740.568 389.146Z"/><path fill="#C6C4C5" transform="scale(0.390625 0.390625)" d="M741.116 417.443C741.826 420.707 741.068 426.566 742.725 427.855C743.772 426.882 744.529 420.955 744.478 419.367L744.713 419.563C745.031 431.019 743.646 436.583 742.306 446.978L741.492 447.588C740.085 446.912 740.58 447.424 739.946 446.011C740.227 443.222 741.589 440.687 742.736 438.073C738.899 430.034 740.223 426.382 741.116 417.443Z"/><path fill="#A4A5A8" transform="scale(0.390625 0.390625)" d="M746.583 423.318C748.36 430.24 747.972 434.856 747.438 441.898L747.253 442.239C744.962 434.422 746.011 431.458 746.583 423.318Z"/><path fill="#FEFDFD" transform="scale(0.390625 0.390625)" d="M686.334 329.978L687.484 330.12C689.077 331.875 689.857 334.162 690.824 336.375C679.548 343.172 667.184 347.412 656.856 353.558C655.81 356.423 652.973 367.038 652.185 368.105L650.735 367.916C648.975 367.291 646.855 366.716 645.04 366.171C646.167 360.506 647.216 353.584 646.525 347.862C658.768 343.012 673.857 335.503 686.334 329.978Z"/><path fill="#AFAFB0" transform="scale(0.390625 0.390625)" d="M705.18 430.247C707.824 432.142 715.575 437.089 714.442 440.465C711.384 449.576 699.732 460.144 692.341 465.464C688.374 466.516 686.777 465.024 683.089 463.002C682.919 460.673 682.793 459.602 683.02 457.311C684.154 457.157 688.77 456.572 689.395 456.081C696.19 450.742 701.987 437.373 705.18 430.247Z"/><path fill="#FEFDFD" transform="scale(0.390625 0.390625)" d="M728.833 387.642C729.209 384.605 732.995 376.948 735.681 375.823L736.306 376.516C736.392 378.841 736.635 377.919 735.002 379.995L735.116 380.591C736.134 382.645 735.838 381.936 735.415 384.635C735.172 391.696 735.058 404.933 734.246 411.418C734.104 415.224 733.778 426.735 733.06 430.072C733.076 431.398 733.342 433.451 732.746 434.367L731.834 433.936L729.906 432.968C729.39 432.664 727.602 431.799 727.543 431.271C726.124 418.579 724.135 399.454 728.833 387.642Z"/><path fill="#C6C4C5" transform="scale(0.390625 0.390625)" d="M730.349 410.007L731.505 410.208C732.608 410.621 733.261 410.774 734.246 411.418C734.104 415.224 733.778 426.735 733.06 430.072C733.076 431.398 733.342 433.451 732.746 434.367L731.834 433.936L729.906 432.968C730.139 428.714 729.99 422.04 730.136 417.379C729.866 414.774 729.911 412.597 730.349 410.007Z"/><path fill="#7F7A84" transform="scale(0.390625 0.390625)" d="M730.136 417.379C731.258 415.214 729.739 412.973 731.009 411.209C732.732 412.446 731.997 412.833 731.76 414.476C731.356 417.275 730.784 422.648 731.021 425.444C733.537 426.642 733.004 427.247 733.06 430.072C733.076 431.398 733.342 433.451 732.746 434.367L731.834 433.936L729.906 432.968C730.139 428.714 729.99 422.04 730.136 417.379Z"/><path fill="#C6C4C5" transform="scale(0.390625 0.390625)" d="M731.021 425.444C733.537 426.642 733.004 427.247 733.06 430.072C733.076 431.398 733.342 433.451 732.746 434.367L731.834 433.936C730.759 430.534 730.175 428.895 731.021 425.444Z"/><path fill="#AFAFB0" transform="scale(0.390625 0.390625)" d="M731.11 404.044C730.446 400.582 733.334 387.724 735.415 384.635C735.172 391.696 735.058 404.933 734.246 411.418C733.261 410.774 732.608 410.621 731.505 410.208L730.349 410.007C730.496 407.7 730.701 406.324 731.11 404.044Z"/><path fill="#7F7A84" transform="scale(0.390625 0.390625)" d="M731.11 404.044L731.964 404.829C731.725 406.539 731.299 408.56 731.505 410.208L730.349 410.007C730.496 407.7 730.701 406.324 731.11 404.044Z"/><path fill="#E9E5E6" transform="scale(0.390625 0.390625)" d="M728.833 387.642C729.209 384.605 732.995 376.948 735.681 375.823L736.306 376.516C736.392 378.841 736.635 377.919 735.002 379.995L735.116 380.591C731.785 382.165 731.609 385.281 728.833 387.642Z"/><path fill="#E9E5E6" transform="scale(0.390625 0.390625)" d="M735.583 432.14C734.02 428.851 738.453 384.679 738.636 377.844C738.812 371.294 738.647 374.644 735.927 371.755L736.801 368.249C738.747 370.501 740.019 371.642 741.369 374.321C744.297 377.762 746.888 380.229 746.848 384.874C745.373 386.34 745.405 387.238 744.945 389.265C743.316 390.101 742.885 389.572 740.568 389.146C740.36 390.801 740.166 392.329 740.047 393.993L740.32 394.317C739.386 403.83 739.546 414.23 738.651 423.811C738.488 425.552 738.421 431.234 738.177 432.434L735.583 432.14Z"/><path fill="#C6C4C5" transform="scale(0.390625 0.390625)" d="M741.369 374.321C744.297 377.762 746.888 380.229 746.848 384.874C745.373 386.34 745.405 387.238 744.945 389.265C743.316 390.101 742.885 389.572 740.568 389.146C741.478 382.511 741.755 381.086 741.369 374.321Z"/><path fill="#7F7A84" transform="scale(0.390625 0.390625)" d="M719.992 671C721.814 670.611 723.189 670.133 724.964 669.549C727.714 678.357 736.685 700.717 743.718 705.811L744.453 707.333C740.548 706.646 737.079 705.892 733.212 704.999C730.643 700.998 721.642 676.451 719.992 671Z"/><path fill="#515561" transform="scale(0.390625 0.390625)" d="M698.048 495.312C698.82 496.003 707.707 507.476 709.177 509.301C706.75 514.686 704.152 519.993 701.387 525.213C699.461 528.664 698.636 530.188 697.276 533.862C696.945 524.002 696.822 504.745 698.048 495.312Z"/><path fill="#FEFDFD" transform="scale(0.390625 0.390625)" d="M508.319 870.495C512.873 872.609 525.29 882.643 528.691 886.716C525.338 888.801 525.096 889.029 522.422 891.795C517.434 887.38 514.218 885.477 507.894 883.636C503.794 882.833 501.622 882.508 497.493 882.494L501.201 878.961C510.901 879.369 512.417 879.976 521.399 883.798C514.778 877.626 511.415 877.353 502.941 876.651L508.319 870.495Z"/><path fill="#515561" transform="scale(0.390625 0.390625)" d="M519.699 828.762L520.546 829.477C520.685 832.563 519.571 839.497 519.172 842.952C522.965 845.972 524.799 845.724 529.181 847.424C527.983 851.641 527.009 855.893 524.997 859.769L524.215 860.645C520.671 859.496 516.499 849.495 516.022 846.02C515.214 840.146 516.18 833.621 519.699 828.762Z"/><path fill="#FEFDFD" transform="scale(0.390625 0.390625)" d="M623.548 418.023C625.346 418.211 626.024 419.687 627.533 421.403C620.345 423.839 613.365 424.763 606.303 426.873C598.015 429.349 596.126 432.677 586.875 432.497C585.338 432.399 584.505 432.47 583.118 431.774C585.346 430.469 591.734 428.421 594.43 427.478C604.045 424.051 613.754 420.898 623.548 418.023Z"/><path fill="#FEFDFD" transform="scale(0.390625 0.390625)" d="M621.703 412.919C623.556 413.206 622.673 412.825 624.168 414.67C623.714 415.752 623.213 415.837 621.97 416.183C607.182 420.302 592.301 425.72 578.205 431.945C576.696 431.586 575.348 431.437 574.153 430.5C578.138 426.241 613.497 416.597 621.703 412.919Z"/><path fill="#515561" transform="scale(0.390625 0.390625)" d="M485.19 794.899C495.544 797.24 505.531 799.549 516.114 800.613C518.074 800.81 522.236 800.878 523.175 802.069C523.15 804.133 523.527 803.336 522.324 804.669C517.625 805.925 489.205 800.051 484.108 797.786L485.19 794.899Z"/><path fill="#FEFDFD" transform="scale(0.390625 0.390625)" d="M629.238 422.953C631.051 422.742 631.363 423.57 634.425 422.937L634.93 423.502C633.928 428.435 609.293 431.716 604.948 432.151C602.7 432.388 600.207 432.5 597.932 432.652C602.788 428.382 620.936 426.01 629.238 422.953Z"/><path fill="#2F3547" transform="scale(0.390625 0.390625)" d="M651.486 435.608L652.746 435.725L652.818 436.302C647.618 441.05 630.477 445.157 623.125 445.744C622.641 445.838 622.946 445.819 622.217 445.622C624.612 444.42 627.415 444.578 630.001 443.587C637.203 440.827 644.099 437.873 651.486 435.608Z"/><path fill="#262529" transform="scale(0.390625 0.390625)" d="M721.469 662.212L723.386 661.252C725.938 662.855 725.25 665.639 724.347 668.036C723.257 669.174 722.492 669.166 720.941 669.503C718.252 667.997 716.666 664.73 718.09 661.938L719.228 661.644C719.942 663.238 719.246 665.152 719.188 667.443L719.765 667.174C720.038 665.111 720.119 663.908 720.78 661.954L721.469 662.212Z"/><path fill="#A4A5A8" transform="scale(0.390625 0.390625)" d="M720.941 669.503C718.252 667.997 716.666 664.73 718.09 661.938L719.228 661.644C719.942 663.238 719.246 665.152 719.188 667.443L719.765 667.174C720.038 665.111 720.119 663.908 720.78 661.954L721.469 662.212C721.329 664.514 720.935 667.344 720.941 669.503Z"/><path fill="#7F7A84" transform="scale(0.390625 0.390625)" d="M707.594 244.232C709.31 244.175 709.248 244.012 710.783 244.513C708.08 246.32 694.556 246.427 692.902 247.268L693.045 247.821L694.944 248.447C694.317 248.801 693.312 248.817 692.526 248.912C690.178 247.579 690.453 248.232 689.9 246.302L707.594 244.232Z"/><path fill="#C6C4C5" transform="scale(0.390625 0.390625)" d="M735.583 432.14L738.177 432.434C738.428 433.87 741.394 438.409 742.388 440.073C738.877 437.288 737.134 436.382 735.583 432.14Z"/><path fill="#A4A5A8" transform="scale(0.390625 0.390625)" d="M750.996 385.02C750.988 386.788 751.208 388.408 750.373 389.893C749.727 388.452 750.016 387.278 750.154 385.673L750.996 385.02Z"/><path fill="#000002" transform="scale(0.390625 0.390625)" d="M10.2824 354.154C31.3169 351.414 50.9714 387.238 59.9847 402.787C86.1324 412.265 107.669 437.838 123.42 459.812C149.438 470.277 174.203 502.468 194.206 522.2C198.527 526.462 205.184 531.279 209.97 535.551C224.013 548.081 237.476 560.277 249.842 574.482L249.778 572.364C248.882 540.347 249.854 507.348 249.942 475.257C249.859 460.007 249.96 444.756 250.246 429.508C250.337 423.205 249.859 416.642 250.379 410.377C250.557 408.237 250.921 405.167 252.699 403.687C254.019 402.588 255.903 402.473 257.535 402.661C272.174 404.349 320.793 446.732 330.899 459.081C338.774 468.703 343.135 479.097 345.579 491.239C350.119 513.792 348.958 537.833 348.713 560.719L348.603 614.79L348.807 645.317C348.865 650.366 349.195 658.529 348.73 663.337L348.14 663.269C347.007 659.255 346.827 636.446 346.732 631.179C346.431 606.839 346.335 582.497 346.444 558.155C346.485 533.416 347.992 495.676 337.108 473.457C334.331 467.865 330.782 462.69 326.566 458.085C318.107 448.739 265.034 399.987 253.479 405.748C251.972 407.482 252.527 421.859 252.519 425.444L252.468 460.061L251.991 529.613C251.93 545.07 252.22 560.815 251.929 576.219C259.451 583.487 266.669 591.536 273.872 599.182C290.101 616.416 305.704 634.251 321.726 651.678C327.815 658.301 332.711 663.153 335.885 671.738C333.042 669.596 329.12 663.56 327.832 663.322C314.474 660.846 285.756 669.432 274.046 672.163C273.911 677.514 275.158 702.273 272.339 704.818C270.291 701.174 272.328 632.721 271.914 622.757C271.674 616.998 271.865 603.13 266.53 599.18C253.372 589.438 222.594 595.519 207.844 599.103C202.584 600.381 194.64 603.612 190.989 603.85L190.822 603.17C197.575 595.97 231.379 591.965 241.765 591.875C249.452 591.809 262.432 591.827 268.245 597.958C275.358 605.462 273.816 619.401 274.287 629.045C274.477 642.806 274.103 656.624 274.009 670.359C288.45 665.752 312.03 660.039 327.188 661.024C317.451 651.149 307.186 639.214 297.656 628.868C268.913 597.66 240.639 565.976 208.832 537.777C206.826 535.998 198.432 528.106 196.285 527.607L195.918 528.833C183.671 521.842 170.606 521.26 157.286 525.549C152.7 527.026 148.401 529.407 143.8 530.549C157.133 518.597 176.908 518.472 192.971 524.176C174.477 506.691 156.948 483.609 135.277 468.854C126.682 463.003 112.582 457.428 101.812 460.734C99.2323 461.527 93.0792 465.907 90.0691 466.529L89.9101 465.569C90.756 464.136 92.8573 462.962 94.3227 462.043C102.835 456.705 110.566 456.454 120.004 458.636C106.197 439.865 84.8384 415.634 63.1625 406.864C51.0684 401.971 45.9877 404.875 35.9936 409.258L35.6586 408.283C37.7878 402.312 52.0172 401.802 57.4981 402.412C46.4082 388.082 38.3905 365.937 19.3694 357.803C11.2285 354.322 6.77538 358.947 2.3815 356.633C3.82319 354.894 8.05176 354.45 10.2824 354.154Z"/><path fill="#000002" transform="scale(0.390625 0.390625)" d="M2.21997 404.861C14.3405 406.048 60.724 464.366 68.0116 476.557C73.7256 486.117 77.6811 495.911 78.1159 507.386C78.8423 526.56 78.3515 545.668 78.1112 564.772C77.5365 598.541 77.3573 632.315 77.5735 666.088C87.196 682.782 103.465 699.961 113.547 716.952C115.404 719.449 116.223 724.048 116.688 727.03C117.689 733.453 119.764 776.777 116.711 778.688C114.394 774.848 117.5 729.468 112.495 721.345C99.2553 699.861 81.2502 675.64 66.3574 655.753C59.8591 647.051 53.4312 637.635 47.0415 628.758C36.6508 614.604 26.5012 600.276 16.5968 585.778C14.0082 581.928 1.03688 565.297 1.96766 562.115L2.51243 562.142C5.61519 564.383 24.4056 592.673 28.011 597.744L75.8142 664.256C75.022 625.502 76.3428 586.296 76.0042 547.457C75.8623 531.183 76.9665 510.411 74.4482 494.465C73.4133 487.912 63.9623 474.627 59.7348 468.89C47.8226 452.483 35.3971 437.248 21.2889 422.672C16.5857 417.813 5.30678 409.371 2.21997 404.861Z"/><path fill="#000002" transform="scale(0.390625 0.390625)" d="M82.8144 484.601C83.118 484.646 83.4228 484.684 83.7251 484.736C97.8163 487.182 145.391 550.608 155.06 564.306C164.767 578.058 173.84 592.776 177.992 609.266C182.048 625.371 180.775 645.414 180.66 662.053L180.538 704.685L180.518 732.52C180.511 736.973 180.655 745.681 179.939 749.847C179.76 749.768 179.561 749.724 179.403 749.609C178.275 748.789 178.347 746.828 178.234 745.516C177.274 734.461 177.936 722.873 177.94 711.769C177.949 686.525 178.475 661.204 178.007 635.969C177.872 628.681 177.565 621.377 176.471 614.161C174.725 602.638 169.162 591.511 163.346 581.499C147.931 554.961 108.495 505.737 84.671 487.236C83.5472 486.363 82.9915 486.031 82.8144 484.601Z"/><path fill="#000002" transform="scale(0.390625 0.390625)" d="M77.3207 492.564C83.1241 492.016 98.4627 509.745 102.281 514.593C124.834 543.228 158.943 578.493 167.673 614.378C171.049 628.254 169.807 661.625 170.03 676.903C170.381 693.368 170.572 709.836 170.605 726.304C170.642 734.51 170.933 744.985 170.332 753.055C170.091 752.929 169.201 752.484 169.028 752.306C167.692 750.93 167.519 641.649 166.714 628.389C166.354 622.452 165.645 616.539 164.145 610.772C156.924 583.013 116.554 534.236 96.8967 511.81C92.8089 507.146 88.3682 502.584 83.7017 498.494C82.3228 497.286 78.3549 494.99 77.5497 493.636C77.363 493.322 77.397 492.922 77.3207 492.564Z"/><path fill="#000002" transform="scale(0.390625 0.390625)" d="M919.636 308.477C922.959 308.634 930.776 311.992 934.239 313.263C962.601 323.669 977.367 330.083 975.466 363.295C973.394 399.494 964.036 432.695 956.684 467.913C949.078 502.885 943.167 538.397 935.64 573.433L934.691 574.123C932.812 572.836 936.372 557.598 936.917 554.727C941.222 531.538 945.771 508.395 950.56 485.301L959.629 442.179C964.808 418.148 979.214 361.779 969.786 339.194C962.807 322.475 935.282 315.006 919.636 308.477Z"/><path fill="#000002" transform="scale(0.390625 0.390625)" d="M161.512 333.349C161.729 333.364 161.946 333.373 162.163 333.395C174.502 334.682 227.214 373.713 235.547 384.91C238.763 389.23 239.424 395.17 240.003 400.412C241.396 413.021 241.151 426.15 241.574 438.846C242.477 461.202 243.198 483.564 243.734 505.932L244.736 539.682C244.856 545.088 245.187 553.513 244.468 558.675C242.628 556.557 242.809 543.336 242.659 539.385L239.313 444.287C238.746 428.198 238.595 411.674 236.875 395.68C235.934 386.933 230.189 381.727 223.625 376.54C208.84 364.857 193.568 353.367 177.604 343.328C174.635 341.444 162.364 336.006 161.279 334.958L161.512 333.349Z"/><path fill="#000002" transform="scale(0.390625 0.390625)" d="M163.705 325.665C163.898 325.68 164.092 325.687 164.284 325.71C179.441 327.513 229.918 364.348 239.164 376.608C241.51 379.719 244.46 384.53 243.924 388.537L243.263 388.817C241.102 386.628 240.331 383.126 238.93 380.427C232.93 368.868 179.689 331.882 166.411 328.331C164.339 327.777 161.947 327.928 160.079 329.035C158.135 330.186 157.198 331.98 156.676 334.098C155.761 350.074 157.239 469.134 154.642 473.144L153.949 472.851C152.938 470.133 153.453 436.888 153.471 432.267C153.402 408.755 153.607 385.242 154.085 361.735C154.247 352.646 154.156 343.552 154.469 334.473C154.662 328.898 158.796 326.665 163.705 325.665Z"/><path fill="#000002" transform="scale(0.390625 0.390625)" d="M1005.83 583.211C1007.55 583.029 1009.6 582.441 1010.56 584.048C1009.72 584.993 1008.54 585.364 1007.31 585.456C993.004 586.52 978.502 587.562 964.217 588.652L878.936 595.694C822.222 600.702 821.703 592.772 824.045 652.625C824.072 653.921 824.009 654.051 823.824 655.352L823.416 654.744L823.701 655.407C819.955 652.125 820.575 618.087 821.782 611.776C824.915 595.387 844.55 596.176 857.839 594.977L891.552 592.01C929.624 588.818 967.717 585.885 1005.83 583.211Z"/><path fill="#000002" transform="scale(0.390625 0.390625)" d="M3.74779 414.47C14.1984 418.365 60.4845 476.65 65.4234 489.485C70.0729 501.569 69.137 543.564 69.254 558.14C69.2018 589.199 69.3758 620.258 69.7759 651.314C69.3975 651.099 69.0191 650.885 68.6408 650.67C66.4373 603.133 67.4848 554.453 66.3364 506.909C66.1675 499.914 63.4898 490.579 61.9557 487.801C49.7904 465.798 32.0168 446.994 15.8852 427.845C12.6686 424.027 5.54644 418.525 3.74779 414.47Z"/><path fill="#000002" transform="scale(0.390625 0.390625)" d="M833.26 18.6761C857.096 16.402 892.035 20.7919 914.525 28.7144C924.555 32.2479 926.071 47.3786 921.696 55.7798C918.593 52.5861 929.695 36.0409 908.705 28.8959C917.843 38.871 917.438 50.2819 915.567 62.9834C914.989 66.9048 911.986 85.0361 909.755 86.6976L909.15 86.0362C909.809 79.911 912.349 68.5787 913.439 61.6168C914.026 54.894 914.88 47.6117 913.153 40.9846C911.976 36.4674 909.178 30.9832 904.962 28.6386C893.02 21.9976 838.545 18.3259 825.089 22.4191C811.746 26.4784 808.605 39.8622 806.259 52.0262C805.455 56.1923 804.871 60.7055 802.884 64.4927L802.414 64.3841C801.705 59.8597 802.976 56.0229 803.902 51.6938C807.973 32.6559 811.822 21.337 833.26 18.6761Z"/><path fill="#000002" transform="scale(0.390625 0.390625)" d="M79.4481 277.093C93.4935 277.192 154.585 312.752 148.781 322.146C147.288 321.449 146.17 319.483 145.096 318.227C135.641 307.16 96.5788 280.487 82.0393 279.662C80.2843 279.562 78.2883 279.902 77.0579 281.287C74.19 284.514 75.622 292.323 75.8755 296.375C76.1395 307.32 79.5438 401.661 77.874 404.854L77.21 404.822C75.0832 398.906 74.0791 302.108 73.2817 287.999C73.2051 286.643 73.4728 282.856 74.136 281.458C75.362 278.876 76.9687 278.142 79.4481 277.093Z"/><path fill="#000002" transform="scale(0.390625 0.390625)" d="M413.975 472.707C420.547 472.294 426.726 472.139 433.126 473.798C433.189 478.434 433.45 483.243 433.384 487.853C432.726 533.553 433.413 579.265 432.649 624.96C432.616 626.907 432.256 629.444 431.481 631.226C430.314 628.633 430.822 597.535 430.844 592.375L430.648 516.235C430.667 506.634 431.457 484.024 430.339 475.364C419.329 473.573 408.561 475.503 397.547 476.688C390.4 477.456 383.822 479.959 376.899 481.737C385.524 473.929 402.51 473.689 413.975 472.707Z"/><path fill="#000002" transform="scale(0.390625 0.390625)" d="M20.9463 645.171C27.1651 644.371 30.3962 647.608 30.504 653.693C30.6413 661.442 30.5983 669.201 30.6049 676.952L30.6597 720.859L30.5955 780.362C30.5962 785.96 31.2103 815.618 29.7727 818.895L29.0133 818.665C27.4822 814.247 28.0056 802.462 28.0387 797.125L28.3634 696.653L28.3889 668.735C28.4107 664.683 29.5441 652.276 26.7106 648.774C22.5721 643.66 3.10637 654.492 0.611043 651.676C3.92174 649.113 16.831 645.793 20.9463 645.171Z"/><path fill="#000002" transform="scale(0.390625 0.390625)" d="M82.6194 286.443C85.9496 286.692 95.1439 291.003 98.1763 292.829C115.914 303.508 143.567 318.105 146.307 340.93C147.447 350.422 146.779 364.577 146.923 374.546L147.648 427.449C147.733 432.653 148.498 454.129 147.402 458.216L146.687 457.783C144.527 454.679 145.325 378.21 144.659 366.407C144.384 361.533 144.949 344.044 143.944 339.325C139.755 319.652 113.791 304.557 97.3274 295.185C93.102 292.779 86.1435 290.231 82.8463 287.884L82.6194 286.443Z"/><path fill="#000002" transform="scale(0.390625 0.390625)" d="M389.541 297.021C390.517 296.94 391.508 296.869 392.487 296.936C403.94 297.71 458.086 326.075 465.6 335.6C466.294 336.48 466.443 336.506 466.317 337.667C464.174 338.363 458.518 332.062 454.982 329.787C437.28 318.401 411.663 305.233 391.982 298.542C389.978 299.467 388.308 300.536 386.424 301.674C381.013 307.065 382.011 333.039 381.979 341.367L381.978 389.696C382.017 395.505 382.526 409.092 381.218 413.954C378.556 402.182 378.77 318.296 381.41 306.813C382.495 302.094 385.625 299.467 389.541 297.021Z"/><path fill="#000002" transform="scale(0.390625 0.390625)" d="M390.18 304.07C401.748 305.961 436.006 323.977 446.631 331.091C450.641 333.777 457.114 339.032 460.119 343.048C461.967 345.517 462.765 347.325 463.135 350.369C464.349 360.366 464.615 370.902 464.778 380.939C465.012 394.822 465.105 408.708 465.059 422.593C465.037 428.885 465.327 446.281 464.53 451.858L463.467 451.891C461.734 449.362 463.86 362.448 460.993 350.622C457.973 338.165 445.092 334.703 435.621 327.321C425.47 319.409 398.847 311.263 390.169 305.525L390.18 304.07Z"/><path fill="#000002" transform="scale(0.390625 0.390625)" d="M300.412 253.558C314.21 253.094 348.893 272.93 362.977 279.155C370.41 282.441 376.231 289.545 378.426 297.502C377.696 297.679 376.966 296.758 376.626 296.177C370.224 285.245 363.379 281.531 352.051 276.263C338.014 269.735 323.798 262.689 309.122 257.287C308.138 256.959 307.15 256.642 306.159 256.336C295.725 253.149 298.265 264.137 297.565 270.792C297.23 273.985 297.375 278.024 297.3 281.293C296.929 297.268 296.658 313.246 296.487 329.224C296.433 337.382 296.747 355.379 295.433 362.624L295.245 361.458C293.895 353.526 294.36 340.418 294.411 332.037L295.213 280.866C295.383 273.693 295.198 265.334 296.051 258.202C296.284 256.249 298.869 254.597 300.412 253.558Z"/><path fill="#000002" transform="scale(0.390625 0.390625)" d="M300.482 260.98C309.838 261.834 345.283 279.753 354.79 284.872C374.272 295.363 373.423 324.886 373.842 344.464C374.204 358.262 374.338 372.066 374.245 385.869C374.213 390.387 374.502 400.378 373.845 404.49C371.601 401.169 372.207 385.719 372.163 381.095C372.059 369.118 371.889 357.142 371.654 345.167C371.429 333.303 371.362 322.313 369.147 310.651C366.467 295.303 356.928 287.786 343.456 281.487C331.715 275.998 319.746 270.523 307.725 265.577C305.491 264.658 302.748 263.608 300.738 262.318L300.482 260.98Z"/><path fill="#000002" transform="scale(0.390625 0.390625)" d="M917.704 300.202C927.009 303.813 937.553 307.625 946.998 310.793C981.917 322.507 992.639 336.477 988.882 374.24C997.236 366.002 1004.96 361.805 1017.09 361.817C1018.02 361.818 1018.13 361.829 1018.93 362.246C1017.03 364.363 1010.59 364.637 1007.66 365.305C988.245 369.745 978.066 395.092 970.785 411.353C974.203 396.139 980.158 389.015 985.979 376.696C990.202 367.759 986.739 342.479 980.695 334.296C969.217 317.36 936.811 310.311 917.361 301.171L917.704 300.202Z"/><path fill="#000002" transform="scale(0.390625 0.390625)" d="M245.54 603.762C248.811 603.651 255.917 602.76 257.969 605.789C259.673 612.915 260.219 710.306 258.417 713.475C256.042 709.429 257.063 697.361 257.059 692.169L256.971 652.875C256.9 646.48 257.885 609.246 255.635 606.594C248.472 603.346 214.527 609.737 205.966 611.627C202.955 612.291 194.995 614.334 192.514 614.379L192.056 613.807C196.404 608.941 236.563 604.235 245.54 603.762Z"/><path fill="#000002" transform="scale(0.390625 0.390625)" d="M355.063 491.353L356.099 491.998C357.67 495.974 357.212 535.378 357.258 543.457C357.592 584.74 357.65 626.025 357.431 667.309L356.284 666.574C355.275 663.046 354.325 494.834 355.063 491.353Z"/><path fill="#000002" transform="scale(0.390625 0.390625)" d="M260.309 391.598C277.402 390.666 319.958 433.727 333.706 445.974C347.007 457.823 353.69 471.074 353.546 489.306C351.861 485.485 351.425 483.447 350.541 479.389C348.214 467.86 345.2 462.133 337.175 453.4C323.279 438.276 307.602 424.722 291.526 411.978C284.99 406.834 279.506 401.794 272.276 397.475C267.728 394.758 260.348 391.961 255.509 396.028C253.703 397.546 254.297 397.811 252.075 397.071L252.158 396.749L252.824 397.587L252.257 396.533C254.344 393.378 256.905 392.576 260.309 391.598Z"/><path fill="#000002" transform="scale(0.390625 0.390625)" d="M951.268 30.6871C958.416 30.0917 1009.96 32.4182 1011.94 36.9624C1008.02 38.2349 986.56 33.9304 980.764 33.887C966.074 33.7771 948.422 28.9523 936.339 39.0537C925.153 51.6948 922.356 84.8674 919.004 87.9381L918.344 87.4226C917.605 79.6064 925.507 55.6847 928.197 47.6991C931.742 37.1777 940.302 31.8233 951.268 30.6871Z"/><path fill="#000002" transform="scale(0.390625 0.390625)" d="M956.249 241.233C974.492 240.938 990.722 243.491 1008.37 247.946C1012.05 248.877 1019.27 250.383 1022.12 252.71L1022.19 253.656C1016.04 252.684 1008.94 250.445 1002.53 248.92C988.738 245.604 974.543 243.422 960.341 243.416C958.626 243.416 957.408 244.014 956.082 242.739L956.249 241.233Z"/><path fill="#000002" transform="scale(0.390625 0.390625)" d="M102.016 720.204L102.737 720.118C104.764 719.892 107.558 719.498 109.208 720.798C106.905 721.73 93.9987 723.447 90.2619 724.132C79.26 726.149 71.4384 728.083 60.8617 731.727C57.1055 733.036 55.5134 733.487 51.6137 734.229C64.9613 726.508 86.4187 721.771 102.016 720.204Z"/><path fill="#000002" transform="scale(0.390625 0.390625)" d="M321.25 669.696C323.133 669.545 323.903 669.277 325.49 670.268L325.533 670.977C323.63 671.976 321.334 671.985 319.184 672.224C306.968 673.583 295.07 676.636 283.175 679.686C281.257 680.201 280.413 680.64 278.524 680.054L278.248 679.4C283.097 675.476 313.637 670.599 321.25 669.696Z"/><path fill="#000002" transform="scale(0.390625 0.390625)" d="M110.108 728.171L111.284 728.506L111.323 729.264C109.847 730.113 106.268 730.842 104.539 731.032C90.1263 732.614 76.967 736.098 63.1746 740.502L62.6139 740.465L62.3045 739.771C66.1524 734.861 102.516 728.892 110.108 728.171Z"/><path fill="#000002" transform="scale(0.390625 0.390625)" d="M522.719 324.113L524.202 324.774C525.6 328.443 523.908 336.756 523.173 340.672L521.869 340.364C520.592 338.105 522.349 327.002 522.719 324.113Z"/><path fill="#000002" transform="scale(0.390625 0.390625)" d="M437.46 289.704C440.678 291.687 437.576 301.682 435.533 304.159C434.555 303.307 434.778 303.661 434.368 302.504C434.782 298.901 435.755 292.832 437.46 289.704Z"/><path fill="#000002" transform="scale(0.390625 0.390625)" d="M361.603 256.197C363.744 258.336 361.966 268.251 360.142 270.601C359.453 269.796 359.624 269.97 359.162 268.981C359.334 265.118 359.941 259.684 361.603 256.197Z"/><path fill="#262529" transform="scale(0.390625 0.390625)" d="M917.361 301.171C915.949 300.64 912.862 299.586 912.047 298.429C914.101 298.438 915.771 299.38 917.704 300.202L917.361 301.171Z"/></svg>