<?xml version="1.0" encoding="utf-8" ?><svg xmlns="http://www.w3.org/2000/svg" xmlns:xlink="http://www.w3.org/1999/xlink" width="400" height="400" viewBox="0 0 400 400"><path fill="#FEFBEF" transform="scale(0.390625 0.390625)" d="M0 0L1024 0L1024 1024L0 1024L0 0Z"/><defs><linearGradient id="gradient_0" gradientUnits="userSpaceOnUse" x1="814.07703" y1="915.67413" x2="106.33356" y2="167.30185"><stop offset="0" stop-color="#330D35"/><stop offset="1" stop-color="#541733"/></linearGradient></defs><path fill="url(#gradient_0)" transform="scale(0.390625 0.390625)" d="M329.922 46.3835C331.644 46.3978 365.455 66.3685 370.042 69.0822C381.921 76.1104 398.122 84.6779 409.617 92.4194L409.683 324.506C420.43 317.77 431.324 311.27 442.357 305.011C448.927 301.209 459.764 295.3 465.506 290.798C466.16 272.766 465.559 251.499 465.549 233.074L465.538 123.284L465.506 85.7687C465.497 80.4356 464.64 63.3057 467.275 59.6169L468.028 59.9707C470.229 65.3846 469.423 83.7497 469.432 90.8285L469.392 142.241L469.53 290.811L570.428 349.326C587.467 359.219 606.458 369.409 622.896 379.882C629.74 365.622 643.87 347.416 656.447 337.925C681.848 318.757 719.702 315.577 747.831 330.655C752.124 332.956 760.675 338.266 765.35 341.141C764.175 340.419 775.087 341.407 774.915 340.825C774.914 340.82 775.871 339.222 776.173 338.746C777.233 337.077 777.724 336.107 779.309 334.768C783.76 331.007 788.255 327.886 793.775 325.918C800.593 323.486 808.387 323.806 814.866 327.228C842.784 341.973 833.379 378.011 841.682 402.963C845.53 414.526 853.78 424.393 866.981 425.572C870.078 425.848 877.872 422.252 881.02 423.802L881.355 424.807C880.904 426.479 880.564 427.024 879.425 428.401C871.718 437.813 860.621 443.82 848.526 445.126C836.745 446.334 824.415 443.437 816.396 435.243C815.053 433.87 813.811 434.607 811.934 434.904C802.618 436.381 795.265 429.25 791.94 421.221C785.123 406.064 795.259 392.509 795.148 377.515C795.139 376.301 794.287 374.87 793.348 374.124C790.557 374.782 790.342 376.943 786.03 379.341C786.168 380.023 786.3 380.705 786.427 381.388C790.434 402.788 787.616 422.107 775.129 440.309C828.684 447.515 873.101 472.833 904.768 517.139C912.098 527.395 917.848 540.893 922.765 552.412C933.661 556.015 948.655 567.244 959.594 572.343C963.216 574.031 977.228 580.838 977.779 584.063L977.045 584.669C971.673 584.678 932.621 561.165 924.648 556.831C930.335 572.093 934.852 586.448 938.195 602.457C939.747 609.887 940.875 617.485 942.284 624.979C947.448 628.444 977.67 643.045 979.204 646.639C976.884 649.696 967.069 642.954 964.552 641.572C957.466 637.665 950.342 633.828 943.181 630.061C947.416 659.701 950.706 686.087 948.28 716.395C945.249 754.268 933.443 772.674 905.543 796.505C900.001 818.024 893.314 834.076 879.587 851.827C821.439 927.026 716.789 960.009 626.74 973.203C531.463 987.163 432.762 980.933 341.998 948.493C301.367 933.971 270.128 918.748 235.799 893.03C170.918 842.304 148.145 767.132 209.547 701.491C256.566 651.225 323.22 624.923 389.328 610.835C401.767 608.185 418.399 604.91 430.987 604.381C440.603 588.195 463.962 551.067 481.14 542.457C489.361 538.337 512.386 552.511 520.979 555.804L521.54 555.425C521.594 551.33 508.669 544.086 517.624 536.891C515.711 531.006 513.383 527.253 519.364 523.297C516.529 518.227 515.474 516.161 514.103 510.539C515.84 507.591 517.307 506.474 519.918 504.476C516.296 495.596 518.979 490.38 528.666 489.429C523.263 471.947 519.262 453.881 514.552 436.188C514.185 434.808 514.336 433.339 514.646 431.961C515.773 430.584 515.083 430.942 516.689 430.681C520.49 432.288 522.061 443.996 523.153 448.232C526.293 460.419 529.524 472.568 532.541 484.786C534.709 493.563 536.317 499.675 543.262 505.769C539.375 496.23 517.618 435.652 524.006 430.986C529.604 431.677 545.246 466.423 547.002 471.9C550.078 481.495 551.759 491.615 552.998 501.589C555.675 500.461 558.419 499.499 561.214 498.709C593.139 489.772 616.375 499.437 643.597 514.95C650.528 508.637 662.703 502.614 671.283 497.978C654.762 485.709 648.185 480.393 642.796 460.458L532.231 395.831C511.626 383.659 486.604 369.454 467.225 355.913C461.475 358.443 452.836 364.04 447.287 367.373C434.803 374.955 422.231 382.39 409.572 389.677L409.514 419.002C405.021 422.453 391.972 429.698 386.425 432.947C373.01 440.812 359.647 448.765 346.336 456.805L217.452 535.707L171.346 563.465C160.563 570.047 151.594 575.352 141.5 582.856C130.959 577.944 116.204 573.49 104.925 569.723C104.672 573.224 104.662 576.905 104.598 580.428C122.018 581.11 156.227 589.399 157.475 611.984C158.408 628.873 152.246 648.396 149.064 664.906C147.83 671.31 146.086 678.8 144.23 685.103C138.135 697.92 120.668 701.902 107.506 702.743C93.2228 703.656 68.8652 700.053 60.944 686.029C59.9781 684.319 57.0521 672.009 56.4752 669.467C52.7322 652.969 47.3771 636.348 46.2376 619.432C43.8565 591.427 78.2176 581.37 100.596 580.445C100.95 576.329 101.23 572.207 101.435 568.081C89.825 563.134 76.7178 559.149 65.4682 553.504C65.5393 537.315 66.9799 521.995 62.861 506.375C61.7545 502.179 61.7958 494.794 64.0241 489.785C67.3383 482.333 65.0843 467.317 65.5536 458.763C63.6053 448.647 61.745 440.293 62.5689 429.372C62.9438 424.402 65.3559 423.908 65.3979 420.55C65.5279 410.157 65.5094 399.754 65.5166 389.363L65.5052 321.752L65.5216 245.894C65.5523 232.45 65.3313 217.933 65.7976 204.55L329.922 46.3835Z"/><path fill="#FEFBEF" transform="scale(0.390625 0.390625)" d="M405.431 95.4307L405.793 95.7564C406.556 98.347 406.373 116.413 406.38 120.205L406.426 174.276L406.444 417.085C400.737 420.924 392.047 425.695 385.935 429.28C372.696 436.907 359.576 444.741 346.581 452.777L160.357 566.33C158.245 567.61 156.356 569.085 153.979 568.498C152.739 563.338 163.682 558.746 167.542 556.386L194.758 539.762L278.135 489.07L360.306 439.154C371.711 432.343 389.791 420.999 401.461 415.384C401.483 387.895 401.899 359.359 401.42 331.956C398.544 333.343 395 335.626 392.193 337.328C375.809 347.536 358.905 357.189 342.391 367.229L234.104 433.274L181.451 465.032C172.981 470.195 159.583 479.12 151.348 483.131C150.938 512.623 151.427 542.408 151.112 572.012L146.24 575.12L146.249 363.33C145.955 325.84 146.01 288.348 146.412 250.86C153.139 246.144 165.149 239.44 172.463 234.986C196.316 220.57 220.294 206.363 244.395 192.366L405.431 95.4307Z"/><path fill="#551332" transform="scale(0.390625 0.390625)" d="M400.169 104.361C400.954 104.629 400.747 104.613 401.415 105.254C401.999 115.91 401.488 131.543 401.489 142.684L401.506 215.886C385.944 224.824 369.459 235.379 354.046 244.782L254.34 305.502L191.519 343.576C180.12 350.469 162.774 360.303 152.565 368.093L151.902 367.933C150.484 365.995 151.122 328.511 151.124 323.269L150.967 253.118C160.019 249.181 170.342 242.613 178.992 237.45L224.688 209.942L400.169 104.361Z"/><path fill="#FEFBEF" transform="scale(0.390625 0.390625)" d="M339.567 183.319C357.495 195.203 375.92 205.038 394.506 215.808C376.287 226.548 356.669 238.985 338.515 250.081L186.754 342.633C176.642 348.328 163.461 356.729 154.092 363.252C154.112 354.324 154.181 345.396 154.298 336.468L184.838 318.222C190.275 315.005 187.083 314.46 189.586 312.082C190.188 311.987 190.796 311.866 191.4 311.784C196.024 311.161 222.61 294.587 228.21 291.331C245.058 281.534 262.234 272.291 279.012 262.344C290.174 255.726 301.433 249.239 312.523 242.504C321.512 237.045 330.222 231.371 339.395 226.184C339.362 211.895 339.42 197.607 339.567 183.319Z"/><path fill="#FEFBEF" transform="scale(0.390625 0.390625)" d="M397.512 110.107C398.249 111.095 397.935 205.101 397.936 213.214C387.35 208.285 371.864 199.028 361.601 192.975C354.516 189.096 345.727 183.359 339.519 178.372L339.518 144.718C358.253 134.127 378.707 121.187 397.512 110.107Z"/><path fill="#FEFBEF" transform="scale(0.390625 0.390625)" d="M271.278 215.593L273.192 216.15C274.192 219.346 273.603 255.156 273.624 261.1C261.618 268.556 248.614 275.89 236.358 282.979C236.271 275.391 236.196 267.761 236.165 260.196C236.144 255.086 241.25 260.463 245.677 255.712C249.507 251.601 249.376 246.569 249.468 241.375C249.468 240.249 248.701 239.646 248.582 238.611C248.012 233.622 248.278 228.427 248.434 223.404C252.543 221.669 263.124 216.362 266.833 217.829C269.327 220.724 268.098 236.793 268.094 241.123C266.062 240.247 263.7 239.456 261.598 238.697C260.222 239.335 258.568 240.001 257.284 240.802C245.056 248.421 258.421 258.913 267.362 252.275C272.457 248.493 270.931 238.985 271.082 233.342C271.231 227.836 270.364 221.124 271.278 215.593Z"/><path fill="#FEFBEF" transform="scale(0.390625 0.390625)" d="M167.812 268.03C168.916 269.055 168.744 318.64 168.971 324.607C164.682 326.585 159.443 329.642 155.222 331.952L154.77 331.946C153.991 330.522 154.386 279.593 154.396 273.861C158.744 271.757 163.349 269.903 167.812 268.03Z"/><path fill="#FEFBEF" transform="scale(0.390625 0.390625)" d="M301.455 195.532C302.268 196.656 302.22 238.782 302.292 244.302C297.181 247.438 291.973 250.41 286.673 253.213C284.611 250.255 285.532 211.065 285.516 204.095C290.8 201.187 296.113 198.333 301.455 195.532Z"/><path fill="#FEFBEF" transform="scale(0.390625 0.390625)" d="M184.65 260.498L185.045 260.704C186.172 263.81 185.903 307.593 185.845 313.962C181.48 316.247 177.155 318.608 172.872 321.043L172.584 320.945C171.642 319.785 171.91 298.15 171.862 294.956C171.724 285.821 171.642 276.317 171.51 267.16C175.843 265.048 180.336 262.688 184.65 260.498Z"/><path fill="#FEFBEF" transform="scale(0.390625 0.390625)" d="M334.527 176.921C335.13 177.028 334.79 176.907 335.463 177.466C336.096 192.627 335.709 208.439 335.909 223.735C331.021 226.733 326.156 229.769 321.314 232.841L320.812 232.768C319.811 230.712 319.968 190.551 319.939 184.998C324.391 182.33 329.916 179.461 334.527 176.921Z"/><path fill="#FEFBEF" transform="scale(0.390625 0.390625)" d="M216.386 239.947C217.87 241.197 217.45 287.971 217.471 293.718C213.687 296.014 209.55 298.309 205.697 300.54L205.443 300.31C204.725 298.608 204.622 252.246 204.559 246.432C208.112 244.699 212.822 241.909 216.386 239.947Z"/><path fill="#FEFBEF" transform="scale(0.390625 0.390625)" d="M231.087 232.986C231.304 233.189 231.521 233.392 231.738 233.594C233.004 247.09 231.579 272.623 232.975 284.789L221.686 291.259L220.849 291.258C220.308 290.302 220.105 243.127 220.169 238.567C223.62 236.975 227.657 234.755 231.087 232.986Z"/><path fill="#FEFBEF" transform="scale(0.390625 0.390625)" d="M315.812 187.451L316.59 187.506C317.771 189.516 317.421 230.114 317.544 235.497C314.054 237.294 309.7 240 306.231 242.017L305.857 241.989C305.017 240.693 305.002 197.986 304.968 193.694L315.812 187.451Z"/><path fill="#FEFBEF" transform="scale(0.390625 0.390625)" d="M277.686 182.492C285.135 185.307 291.544 189.557 299.672 192.444C293.769 195.8 283.833 200.065 278.605 203.922C277.458 204.93 277.365 205.145 275.908 205.679C271.181 203.452 262.22 197.591 256.923 194.608C263.754 190.417 270.677 186.377 277.686 182.492Z"/><path fill="#FEFBEF" transform="scale(0.390625 0.390625)" d="M190.285 234.396L190.591 234.376C193.235 235.503 198.909 240.448 200.767 242.77C200.651 242.413 201.385 259.633 201.42 260.549C201.95 274.619 200.871 289.464 202.039 303.482C197.797 305.326 192.606 308.325 188.817 310.998L188.657 306.625L188.676 291.619L197.07 291.586C198.564 290.291 198.845 290.041 200.087 288.528C200.647 284.083 199.406 260.205 198.056 255.158C197.688 253.783 197.156 251.391 196.847 249.545L181.569 239.613C184.029 237.906 187.62 235.946 190.285 234.396Z"/><path fill="#FEFBEF" transform="scale(0.390625 0.390625)" d="M312.737 161.446C320.807 165.766 326.507 168.928 334.294 173.735C329.345 176.074 324.506 178.925 319.732 181.626C318.041 181.634 300.337 171.948 297.9 170.659L312.737 161.446Z"/><path fill="#FEFBEF" transform="scale(0.390625 0.390625)" d="M246.384 200.924C249.102 201.869 262.305 211.331 265.493 213.576C259.687 215.431 255.282 217.112 249.639 219.389L248.795 219.678C247.281 219.458 235.147 211.085 231.764 209.385C236.017 206.661 241.892 203.493 246.384 200.924Z"/><path fill="#FEFBEF" transform="scale(0.390625 0.390625)" d="M281.935 206.997L282.237 207.283C282.774 209.534 282.61 220.815 282.621 223.724L282.862 255.951L277.252 259.066C276.333 255.947 276.165 216.988 276.015 210.243C277.927 209.312 280.056 208.049 281.935 206.997Z"/><path fill="#FEFBEF" transform="scale(0.390625 0.390625)" d="M293.723 172.921C295.397 172.829 313.451 182.186 315.931 183.444L303.337 190.499C295.589 187.188 288.903 184.058 281.326 180.332C285.256 178.298 289.889 175.278 293.723 172.921Z"/><path fill="#FEFBEF" transform="scale(0.390625 0.390625)" d="M170.688 245.929C172.701 246.31 182.318 255.653 184.177 257.484C179.356 259.525 174.615 262.151 169.973 264.602C165.668 260.883 160.309 257.446 155.486 254.384C160.809 251.648 165.522 248.935 170.688 245.929Z"/><path fill="#FEFBEF" transform="scale(0.390625 0.390625)" d="M215.848 218.866C221.321 222.337 225.719 225.041 230.387 229.512C227.177 231.639 222.67 234.192 219.119 235.629L203.27 226.649L215.848 218.866Z"/><path fill="#FEFBEF" transform="scale(0.390625 0.390625)" d="M334.698 147.454L334.985 147.504C335.968 149.076 335.47 166.959 335.444 170.233C332.162 168.493 327.503 165.387 324.239 163.354C321.196 161.668 319.183 160.744 315.971 159.375C322.152 155.784 328.658 151.384 334.698 147.454Z"/><path fill="#582C2F" transform="scale(0.390625 0.390625)" d="M195.604 282.494L196.259 282.828C197.283 285.196 198.434 286.554 196.215 288.514C193.989 288.847 191.136 286.975 189.287 285.751C186.091 283.635 188.978 279.654 188.989 276.501C189.003 272.823 186.042 265.284 188.337 262.412C189.936 261.89 192.469 262.649 194.393 262.924L196.179 263.242C196.845 264.532 196.864 264.776 197.238 266.202L197.129 267.867C196.994 271.512 198.054 280.394 195.604 282.494Z"/><path fill="#FEFBEF" transform="scale(0.390625 0.390625)" d="M195.604 282.494C194.291 281.949 194.295 282.055 193.507 280.903C193.055 277.762 192.64 275.692 193.779 272.74C194.908 272.514 194.74 272.71 195.585 272.109C193.683 271.029 192.756 271.018 193.241 268.852C194.45 268.26 195.791 268.114 197.129 267.867C196.994 271.512 198.054 280.394 195.604 282.494Z"/><path fill="#EAD8C3" transform="scale(0.390625 0.390625)" d="M194.393 262.924L196.179 263.242C196.845 264.532 196.864 264.776 197.238 266.202C196.06 266.289 188.981 266.618 188.493 266.345C189.441 265.491 192.791 264.85 194.639 264.164L194.393 262.924Z"/><path fill="#FEFBEF" transform="scale(0.390625 0.390625)" d="M228.447 211.364C233.497 213.601 241.225 218.583 245.307 222.308C242.49 223.966 238.634 225.831 235.666 227.369C233.816 227.492 221.519 218.793 218.752 217.091L228.447 211.364Z"/><path fill="#FEFBEF" transform="scale(0.390625 0.390625)" d="M244.464 226.473C245.519 227.456 245.299 236.941 245.431 239.498C240.939 242.379 239.671 243.829 236.44 247.902L235.747 247.501C235.314 243.277 235.549 235.813 235.562 231.345C238.294 229.716 241.628 228.01 244.464 226.473Z"/><path fill="#FEFBEF" transform="scale(0.390625 0.390625)" d="M200.251 228.407C203.267 229.723 212.096 235.234 215.273 237.117L206.724 241.886L205.834 242.232C201.613 238.592 197.9 235.619 192.853 233.083C195.214 231.512 197.835 229.93 200.251 228.407Z"/><path fill="#FEFBEF" transform="scale(0.390625 0.390625)" d="M253.713 196.444C258.079 198.858 272.656 205.738 273.036 210.678C272.456 212.435 272.548 212.39 270.993 213.587C267.004 210.956 253.582 201.909 250.554 199.116C251.069 197.813 252.44 197.239 253.713 196.444Z"/><path fill="#FEFBEF" transform="scale(0.390625 0.390625)" d="M178.796 241.432C184.123 244.372 190.651 249.193 194.905 253.536L189.605 255.553L188.528 255.886C187.349 255.624 176.612 246.166 173.866 244.309L178.796 241.432Z"/><path fill="#FEFBEF" transform="scale(0.390625 0.390625)" d="M153.952 257.109C156.071 258.025 165.52 263.239 165.259 265.811L163.339 266.521C160.433 267.597 156.904 269.181 153.987 270.393L153.952 257.109Z"/><path fill="#6E3345" transform="scale(0.390625 0.390625)" d="M244.67 243.545L245.423 243.889C245.168 244.752 245.108 245.521 245.216 246.433C245.705 250.557 242.305 254.102 238.601 255.302C238.273 253.935 237.927 253.767 238.362 253L239.859 252.724C241.817 248.976 236.495 249.153 244.67 243.545Z"/><path fill="#EAD8C3" transform="scale(0.390625 0.390625)" d="M262.575 242.311C268.734 243.824 264.209 253.042 259.045 250.41C260.18 249.111 261.492 247.275 261.527 245.524C260.448 244.459 260.66 244.736 259.167 244.356L259.001 244.038C260.199 243.263 261.271 242.865 262.575 242.311Z"/><path fill="#CDB6B1" transform="scale(0.390625 0.390625)" d="M194.058 257.137C195.359 257.086 194.773 256.9 195.811 257.708L194.025 259.14L194.154 259.775L196.215 260.967C195.02 261.61 193.764 261.627 192.395 261.792C192.261 261.322 192.664 260.592 192.888 259.949L192.469 259.42C191.088 259.694 190.374 259.913 188.947 259.805L189.008 258.998C190.431 258.007 192.348 257.618 194.058 257.137Z"/><path fill="#551332" transform="scale(0.390625 0.390625)" d="M399.652 222.317C400.497 222.619 400.293 222.603 401.018 223.251C402 226.197 401.465 250.836 401.46 255.305L401.442 326.193C395.882 329.815 387.818 334.222 381.917 337.726C368.513 345.662 355.154 353.674 341.841 361.761L219.52 436.422L177.55 461.677C169.584 466.485 160.261 471.77 152.815 477.109C152.049 477.368 152.504 477.312 151.445 477.025C150.448 474.879 151.094 384.793 151.121 374.507C156.966 371.195 164.741 365.856 170.688 362.171L210.389 337.932L346.967 254.421C363.64 244.266 382.871 231.636 399.652 222.317Z"/><path fill="#FEFBEF" transform="scale(0.390625 0.390625)" d="M327.57 322.491L328.1 323.064C328.237 326.207 326.537 328.113 324.156 329.916C316.047 336.055 306.223 340.96 297.453 346.1C281.636 355.38 265.875 364.755 250.171 374.225C246.477 372.495 245.901 372.133 243.369 368.922C241.043 369.81 239.064 370.813 236.835 371.899C228.367 367.586 219.061 361.506 210.495 357.009C207.495 355.434 204.596 353.068 201.529 351.616C200.882 351.195 197.892 350.345 197.181 350.746C191.768 353.799 188.617 363.238 191.189 368.93C192.03 370.792 194.219 372.643 195.732 373.613C206.041 380.214 216.78 386.109 227.366 392.242C234.663 396.472 242.33 402.15 250.319 405.247C256.295 407.564 258.208 395.309 260.734 393.626C268.037 388.764 279.08 383.21 286.931 379.04C300.332 372.018 313.634 364.808 326.832 357.413C326.317 360.531 326.199 363.607 326.01 366.76C323.165 369.207 316.61 372.982 313.183 375.047L292.312 387.617C273.869 398.785 255.926 410.618 237.227 421.423C222.81 430.426 208.31 439.294 193.728 448.026C180.697 455.827 166.562 463.871 153.987 472.234L153.954 459.05C168.189 451.752 183.2 444.751 196.625 437.282C211.009 429.279 204.55 427.871 201.552 415.676C201.232 414.371 208.052 410.97 209.904 409.271C209.309 403.12 208.303 400.344 206.358 394.399C197.595 388.088 172.757 377.165 161.538 371.528C167.484 368.336 212.339 339.779 213.404 339.975C213.983 343.934 213.875 344.422 217.125 346.841C223.643 351.692 230.884 355.786 237.826 359.99C241.501 362.216 245.932 365.126 249.902 366.571C258.363 363.212 276.549 352.197 284.831 347.332C298.596 339.247 314.203 330.909 327.57 322.491Z"/><path fill="#FEFBEF" transform="scale(0.390625 0.390625)" d="M397.016 227.381L397.35 227.514C397.538 227.747 397.726 227.979 397.915 228.211C397.943 254.128 398.086 299.756 397.648 323.727C387.393 318.744 371.49 309.367 361.745 303.432C354.154 298.835 346.518 294.303 339.492 288.875C339.408 280.599 339.739 271.179 339.256 263.016C356.765 252.983 380.218 238.486 397.016 227.381Z"/><path fill="#FEFBEF" transform="scale(0.390625 0.390625)" d="M337.471 291.96C341.125 295.039 348.677 299.521 352.768 302.139C366.301 310.803 380.445 318.407 394.465 326.244C380.192 334.497 365.953 343.512 351.688 351.956C343.955 356.772 336.165 361.497 328.321 366.13C330.024 354.979 332.673 351.73 321.003 346.486C320.97 343.221 321.37 339.158 321.612 335.831C335.381 323.943 333.328 312.919 319.172 302.609C325.154 298.86 331.256 295.308 337.471 291.96Z"/><path fill="#FEFBEF" transform="scale(0.390625 0.390625)" d="M290.594 292.969C298.622 296.426 313.937 303.116 320.385 308.32C312.626 313.489 302.481 318.853 294.213 323.566L256.807 345.157C255.791 345.772 253.248 347.505 252.122 346.867C248.839 345.004 245.761 342.586 242.588 340.484C237.659 337.155 232.457 334.247 227.039 331.793C232.948 328.59 240.649 323.515 246.556 319.892C261.146 310.772 275.826 301.797 290.594 292.969Z"/><path fill="#FEFBEF" transform="scale(0.390625 0.390625)" d="M157.192 374.286C168.392 381.085 186.631 388.333 199.188 395.476C193.454 398.764 187.604 401.845 181.65 404.714C172.396 409.154 163.216 413.746 154.114 418.487C154.232 405.57 153.83 392.49 154.117 379.574C154.185 376.504 154.747 376.458 157.192 374.286Z"/><path fill="#FEFBEF" transform="scale(0.390625 0.390625)" d="M322.531 310.993C324.978 312.848 326.522 316.516 327.78 319.285C304.783 332.88 280.925 346.256 257.746 359.628L255.676 360.691L254.881 360.281C254.147 357.853 254.72 354.492 254.164 350.955L254.053 350.29C276.24 337.216 300.911 324.518 322.531 310.993Z"/><path fill="#FEFBEF" transform="scale(0.390625 0.390625)" d="M334.507 265.899L335.282 266.279C335.786 271.607 335.451 282.388 335.436 288.114C329.315 292.057 321.654 296.282 315.28 300.011C310.967 297.873 306.069 295.816 301.637 293.847L294.25 290.918C307.58 282.777 321.462 274.436 334.507 265.899Z"/><path fill="#FEFBEF" transform="scale(0.390625 0.390625)" d="M317.86 337.945L318.143 338.18C318.858 339.582 318.502 347.814 318.479 349.956C303.097 358.911 277.284 372.85 261.198 379.827L256.424 377.447C255.166 376.902 255.149 376.836 254.063 375.97C255.48 373.814 311.057 341.762 317.86 337.945Z"/><path fill="#FEFBEF" transform="scale(0.390625 0.390625)" d="M202.389 397.443C204.71 399.865 205.359 404.792 206.064 408.114C190.588 416.41 172.538 424.856 156.646 432.837C155.019 433.53 155.724 433.603 154.397 433.209C153.388 430.515 153.872 425.507 153.956 422.397C167.643 414.605 190.313 405.382 202.389 397.443Z"/><path fill="#FEFBEF" transform="scale(0.390625 0.390625)" d="M197.641 354.176C207.086 358.641 223.875 369.095 233.989 374.715C230.478 379.813 230.403 382.416 230.245 388.32L229.633 388.777C227.593 387.719 225.391 386.354 223.432 385.111C214.297 379.315 203.938 374.24 195.106 368.054C194.82 362.139 194.685 359.457 197.641 354.176Z"/><path fill="#FEFBEF" transform="scale(0.390625 0.390625)" d="M199.022 420.911L199.725 420.98C201.526 422.314 201.997 427.389 202.371 429.707C196.601 434.464 165.125 449.84 156.268 454.52C155.058 455.151 155.672 455.097 154.444 455.014C153.475 452.757 153.967 446.967 154.047 444.247C168.528 436.382 184.258 428.729 199.022 420.911Z"/><path fill="#FEFBEF" transform="scale(0.390625 0.390625)" d="M223.01 333.821C228.499 335.474 245.856 346.899 251.134 350.509C251.071 353.603 251.173 360.705 248.743 362.573C244.159 359.595 222.063 346.223 220.275 344.145C219.733 341.675 220.103 339.404 220.303 336.861C220.437 335.147 221.525 334.849 223.01 333.821Z"/><path fill="#FEFBEF" transform="scale(0.390625 0.390625)" d="M322.509 350.989C324.331 351.107 325.242 351.802 326.562 352.907L326.608 353.72C323.022 356.41 308.697 363.857 304.212 366.253C290.349 373.598 276.525 381.017 262.741 388.51C258.742 384.88 253.095 381.95 248.321 379.316C246.456 378.303 243.097 376.667 241.98 374.902L242.432 374.287C246.265 374.554 257.073 381.056 261.001 383.242C268.175 380.446 279.003 374.598 285.951 370.971C297.892 364.737 311.007 357.937 322.509 350.989Z"/><path fill="#FEFBEF" transform="scale(0.390625 0.390625)" d="M238.487 375.955C243.989 380.946 249.038 383.292 255.498 386.753C257.022 387.551 257.153 387.477 258.06 388.99L258.732 389.806C256.912 392.21 255.665 392.468 254.717 395.396C254.113 397.264 253.427 400.123 252.282 401.574L251.566 401.053L251.213 400.691C250.769 400.914 251.047 400.79 250.361 401.015L248.879 400.041C247.942 399.877 247.9 399.784 247.046 399.384C235.029 393.758 230.715 388.921 238.487 375.955Z"/><path fill="#551332" transform="scale(0.390625 0.390625)" d="M255.498 386.753C257.022 387.551 257.153 387.477 258.06 388.99L258.732 389.806C256.912 392.21 255.665 392.468 254.717 395.396C254.113 397.264 253.427 400.123 252.282 401.574L251.566 401.053L251.213 400.691C250.769 400.914 251.047 400.79 250.361 401.015L248.879 400.041C250.09 393.958 251.217 391.337 255.498 386.753Z"/><path fill="#CDB6B1" transform="scale(0.390625 0.390625)" d="M258.06 388.99L258.732 389.806C256.912 392.21 255.665 392.468 254.717 395.396C254.113 397.264 253.427 400.123 252.282 401.574L251.566 401.053C253.52 397.285 253.566 391.063 258.06 388.99Z"/><path fill="#FEFBEF" transform="scale(0.390625 0.390625)" d="M199.618 415.052C200.185 415.726 199.944 415.587 200.085 416.764C198.983 418.743 159.51 438.285 154.187 441.035C153.289 440.058 153.653 440.628 153.512 438.997C154.724 436.694 195.115 417.277 199.618 415.052Z"/><path fill="#FEFBEF" transform="scale(0.390625 0.390625)" d="M524.496 755.973C527.419 760.174 530.535 765.196 533.379 769.519C534.69 771.172 537.177 774.126 538.304 775.762C554.49 793.374 573.272 802.284 595.565 809.368C600.769 811.021 606.163 813.253 611.406 814.636C615.324 815.457 619.195 816.293 623.147 816.949C635.389 819.319 644.486 818.56 656.615 817.399C670.432 829.925 686.722 837.018 704.642 841.684C708.432 842.442 712.369 843.287 716.164 843.939C716.654 844.032 717.146 844.118 717.64 844.195C755.069 849.764 808.128 841.772 843.746 829.51C861.574 823.372 883.394 812.258 898.591 801.247C897.465 805.101 896.165 810.165 894.484 813.699C893.352 816.972 890.168 825.692 887.845 828.127C883.805 836.57 876.609 846.805 870.646 854.039C838.107 893.506 787.724 922.98 740.013 939.868C720.756 946.877 701.072 952.652 681.082 957.16C676.028 958.715 661.074 962.261 655.918 962.652C640.766 966.654 623.973 968.356 608.429 970.246C576.358 974.145 544.759 975.966 512.422 974.456C508.955 974.63 502.388 974.117 498.688 973.956C488.193 972.758 476.631 972.278 465.59 971.046C440.566 968.441 415.77 963.986 391.404 957.718C387.801 956.999 383.291 955.724 379.661 954.807C385.452 951.363 391.041 947.499 396.735 943.899C400.462 941.542 404.395 939.487 407.995 936.956C418.812 935.595 421.108 933.353 429.524 931.301L430.442 931.875C437.585 927.843 444.855 924.039 452.239 920.468C462.82 915.437 472.062 912.023 481.737 905.004C483.792 901.225 483.923 899.626 484.495 895.472C484.678 882.822 486.481 866.353 480.902 853.792C479.257 850.089 473.83 849.017 470.147 848.004C472.514 840.668 475.104 834.686 478.105 827.555C500.414 824.412 496.222 814.881 505.528 797.886C507.025 793.517 509.637 788.278 511.641 784.021C515.14 775.349 520.145 764.161 524.496 755.973Z"/><path fill="#FEFBEF" transform="scale(0.390625 0.390625)" d="M898.591 801.247C897.465 805.101 896.165 810.165 894.484 813.699C893.352 816.972 890.168 825.692 887.845 828.127C883.805 836.57 876.609 846.805 870.646 854.039C838.107 893.506 787.724 922.98 740.013 939.868C720.756 946.877 701.072 952.652 681.082 957.16C676.028 958.715 661.074 962.261 655.918 962.652C640.766 966.654 623.973 968.356 608.429 970.246C576.358 974.145 544.759 975.966 512.422 974.456C515.11 972.266 524.773 966.651 528.257 964.502C539.688 957.44 551.081 950.315 562.434 943.128L673.279 872.359C687.842 862.859 701.942 853.955 716.164 843.939C716.654 844.032 717.146 844.118 717.64 844.195C755.069 849.764 808.128 841.772 843.746 829.51C861.574 823.372 883.394 812.258 898.591 801.247Z"/><path fill="#FEFBEF" transform="scale(0.390625 0.390625)" d="M681.082 957.16L680.933 956.965L681.151 956.313C692.06 950.377 706.485 941.114 717.2 934.358L773.578 898.227C794.78 884.462 817.893 871.199 839.404 857.793L870.782 838.211C874.413 835.936 884.356 829.317 887.845 828.127C883.805 836.57 876.609 846.805 870.646 854.039C838.107 893.506 787.724 922.98 740.013 939.868C720.756 946.877 701.072 952.652 681.082 957.16Z"/><path fill="#E78281" transform="scale(0.390625 0.390625)" d="M894.484 813.699C893.352 816.972 890.168 825.692 887.845 828.127C884.356 829.317 874.413 835.936 870.782 838.211L839.404 857.793C817.893 871.199 794.78 884.462 773.578 898.227L717.2 934.358C706.485 941.114 692.06 950.377 681.151 956.313L680.933 956.965L681.082 957.16C676.028 958.715 661.074 962.261 655.918 962.652L894.484 813.699Z"/><path fill="#FEFBEF" transform="scale(0.390625 0.390625)" d="M524.496 755.973C527.419 760.174 530.535 765.196 533.379 769.519C534.69 771.172 537.177 774.126 538.304 775.762C554.49 793.374 573.272 802.284 595.565 809.368C600.769 811.021 606.163 813.253 611.406 814.636C604.835 819.577 590.765 827.677 583.288 832.435L512.027 877.457C504.989 881.977 490.079 890.613 484.495 895.472C484.678 882.822 486.481 866.353 480.902 853.792C479.257 850.089 473.83 849.017 470.147 848.004C472.514 840.668 475.104 834.686 478.105 827.555C500.414 824.412 496.222 814.881 505.528 797.886C507.025 793.517 509.637 788.278 511.641 784.021C515.14 775.349 520.145 764.161 524.496 755.973Z"/><path fill="#E78281" transform="scale(0.390625 0.390625)" d="M524.496 755.973C527.419 760.174 530.535 765.196 533.379 769.519C534.69 771.172 537.177 774.126 538.304 775.762C529.725 781.595 514.056 792.956 505.528 797.886C507.025 793.517 509.637 788.278 511.641 784.021C515.14 775.349 520.145 764.161 524.496 755.973Z"/><path fill="#FEFBEF" transform="scale(0.390625 0.390625)" d="M524.496 755.973C527.419 760.174 530.535 765.196 533.379 769.519C530.661 771.601 513.911 783.577 511.641 784.021C515.14 775.349 520.145 764.161 524.496 755.973Z"/><path fill="#E78281" transform="scale(0.390625 0.390625)" d="M704.642 841.684C708.432 842.442 712.369 843.287 716.164 843.939C701.942 853.955 687.842 862.859 673.279 872.359L562.434 943.128C551.081 950.315 539.688 957.44 528.257 964.502C524.773 966.651 515.11 972.266 512.422 974.456C508.955 974.63 502.388 974.117 498.688 973.956C502.238 971 509.762 966.579 513.853 964.003L540.735 947.009C580.068 922.393 619.201 897.46 658.13 872.212L687.533 853.489C692.163 850.514 700.583 845.165 704.642 841.684Z"/><path fill="#E78281" transform="scale(0.390625 0.390625)" d="M611.406 814.636C615.324 815.457 619.195 816.293 623.147 816.949C594.366 836.357 562.733 854.731 533.284 873.445C518.875 882.602 496.358 897.845 481.737 905.004C483.792 901.225 483.923 899.626 484.495 895.472C490.079 890.613 504.989 881.977 512.027 877.457L583.288 832.435C590.765 827.677 604.835 819.577 611.406 814.636Z"/><path fill="#E78281" transform="scale(0.390625 0.390625)" d="M407.995 936.956C418.812 935.595 421.108 933.353 429.524 931.301L430.442 931.875L405.635 947.878C403.034 949.529 392.925 955.593 391.498 957.04L391.404 957.718C387.801 956.999 383.291 955.724 379.661 954.807C385.452 951.363 391.041 947.499 396.735 943.899C400.462 941.542 404.395 939.487 407.995 936.956Z"/><path fill="#E78281" transform="scale(0.390625 0.390625)" d="M772.311 444.311C801.035 449.411 819.718 453.68 845.46 468.362C903.945 501.72 927.795 564.619 937.449 628.147C943.338 666.903 950.815 727.017 929.832 762.18C889.553 829.681 738.527 863.466 673.599 824.07C684.69 822.568 690.143 821.115 698.544 813.504C708.996 811.422 716.145 809.201 726.411 806.096C738.461 800.815 739.587 794.187 741.665 782.051C742.862 775.066 743.385 768.267 743.934 761.204C770.686 758.797 791.475 735.417 799.598 711.569C801.267 706.669 802.883 702.13 806.601 698.398C813.659 691.315 821.858 685.283 830.763 680.715C833.887 679.094 839.811 677.511 842.125 675.321L841.813 674.728C830.737 672.788 813.182 686.819 805.381 693.95C806.485 690.032 807.467 685.788 808.122 681.778C809.075 675.936 810.829 671.74 813.924 666.699C824.766 649.038 839.081 633.73 856.457 622.339C858.64 620.908 866.415 616.996 866.58 614.529C863.004 613.337 855.237 618.621 852.199 620.429C834.837 630.758 822.706 644.794 811.755 661.469C815.437 631.913 817.98 609.8 818.996 579.917C822.233 575.873 825.778 572.169 829.763 568.836C831.863 567.079 837.377 564.481 838.465 562.495L838.004 561.703C832.111 559.251 822.625 569.252 818.929 573.474C817.722 559.408 815.856 552.455 808.93 540.348C815.593 531.768 811.27 528.43 804.955 520.671C800.42 515.099 795.65 509.764 791.135 504.145C791.041 490.985 783.527 481.476 772.23 475.352C766.693 472.351 760.783 471.403 754.638 470.389C754.93 465.982 755.267 463.278 756.342 459.036C764.092 453.323 766.02 451.697 772.311 444.311Z"/><path fill="#757474" transform="scale(0.390625 0.390625)" d="M485.22 546.026C486.918 546.398 488.603 546.82 490.275 547.293C497.548 549.384 518.475 558.384 524.013 563.497C535.004 573.645 546.101 586.253 556.747 597.02C568.341 608.746 581.778 616.579 592.909 628.219C598.889 634.472 605.478 643.92 610.699 651.099C619.269 662.767 627.627 674.588 635.768 686.559C650.007 707.244 670.469 736.056 682.258 757.412C679.335 771.321 671.211 802.192 661.343 811.57C642.434 815.632 628.611 813.56 610.128 809.08C579.978 801.772 577.959 784.038 570.968 757.107L560.883 718.327C559.033 711.275 556.643 700.702 553.017 694.581C561.073 677.818 570.055 660.424 570.95 641.37C571.065 638.932 570.765 636.042 568.533 634.707L567.93 634.957C566.561 636.686 565.024 652.23 564.216 656.383C562.763 649.279 555.987 623.674 551.828 618.868L550.765 618.908C550.09 619.459 549.082 620.133 549.359 621.358C552.145 633.436 564.182 658.376 558.994 670.097C537.824 717.927 513.635 765.482 493.322 813.633C489.612 822.295 482.86 823.058 474.124 822.673C460.275 822.064 449.532 813.74 440.496 803.844C443.567 791.999 450.553 774.648 454.835 762.379C464.324 735.193 473.655 707.952 482.826 680.657C490.586 658.292 498.348 635.926 505.938 613.345C507.856 607.639 512.92 591.731 512.936 585.359C512.937 584.833 512.005 584.471 511.403 584.113C510.076 584.664 509.26 585.484 508.814 586.898C504.515 600.521 501.862 614.039 495.303 626.942C495.578 612.964 498.947 579.382 494.35 568.401C493.057 567.428 493.767 567.636 492.145 567.768C490.387 569.788 492.593 587.411 492.047 591.841C491.401 597.073 491.966 622.851 490.093 626.332C484.735 636.29 475.231 648.869 468.769 658.553C457.591 675.136 446.505 691.782 435.511 708.488C429.138 718.458 422.587 728.314 415.86 738.049C412.288 743.279 407.134 751.41 402.696 755.631C399.527 755.609 396.371 755.222 393.291 754.478C380.305 751.468 370.574 744.539 363.561 733.333C363.767 732.831 363.98 732.332 364.199 731.836C370.031 718.516 383.178 697.292 390.636 683.975L421.74 629.682C430.844 613.892 440.325 598.08 450.492 582.948C458.843 570.518 470.992 551.522 485.22 546.026Z"/><path fill="#FEFBEF" transform="scale(0.390625 0.390625)" d="M179.072 785.011C178.913 761.465 188.32 737.069 202.667 718.614C255.729 650.358 346.379 621.526 428.278 609.314C422.34 618.638 416.633 630.342 410.911 638.644C408.935 642.554 405.339 649.51 402.848 653.11C393.432 670.056 383.426 686.794 373.956 703.692C369.703 711.282 361.697 724.179 358.7 731.875C360.033 735.804 361.152 738 363.425 741.513C359.307 749.082 355.169 756.377 350.288 763.494C338.501 758.96 336.794 761.116 331.457 772.013C328.343 778.369 328.943 773.462 323.5 775.975C321.276 777.002 319.92 781.861 319.68 783.613C315.685 785.747 314.248 788.274 311.826 789.701C304.608 793.953 298.295 798.9 291.392 803.456C279.648 811.205 263.915 813.786 260.636 829.484C259.937 833.138 259.594 834.866 262.301 837.721C254.513 843.086 246.205 848.194 238.197 853.252C230.949 857.831 223.246 862.855 215.628 866.741C213.645 864.846 212.751 863.673 211.1 861.55C193.265 840.052 183.205 821.389 179.422 793.452L179.072 785.011Z"/><path fill="#FEFBEF" transform="scale(0.390625 0.390625)" d="M179.072 785.011C178.913 761.465 188.32 737.069 202.667 718.614C255.729 650.358 346.379 621.526 428.278 609.314C422.34 618.638 416.633 630.342 410.911 638.644C408.935 642.554 405.339 649.51 402.848 653.11C399.606 654.549 396.356 657.07 393.378 659.037C381.013 667.202 368.519 675.475 355.97 683.353L220.81 767.932L191.344 786.276C189.553 787.385 180.852 792.908 179.422 793.452L179.072 785.011Z"/><path fill="#E78281" transform="scale(0.390625 0.390625)" d="M179.072 785.011C180.027 784.72 187.652 779.503 189.156 778.539C197.613 773.153 206.099 767.809 214.611 762.509C257.581 735.85 300.373 708.904 342.983 681.674C356.265 673.32 369.49 664.875 382.657 656.34C391.591 650.592 401.685 643.807 410.911 638.644C408.935 642.554 405.339 649.51 402.848 653.11C399.606 654.549 396.356 657.07 393.378 659.037C381.013 667.202 368.519 675.475 355.97 683.353L220.81 767.932L191.344 786.276C189.553 787.385 180.852 792.908 179.422 793.452L179.072 785.011Z"/><path fill="#E78281" transform="scale(0.390625 0.390625)" d="M211.1 861.55C224.208 851.389 245.746 839.647 260.636 829.484C259.937 833.138 259.594 834.866 262.301 837.721C254.513 843.086 246.205 848.194 238.197 853.252C230.949 857.831 223.246 862.855 215.628 866.741C213.645 864.846 212.751 863.673 211.1 861.55Z"/><path fill="#FEFBEF" transform="scale(0.390625 0.390625)" d="M330.582 50.0841C334.902 53.2763 349.756 61.5115 354.948 64.5135C371.154 73.8237 387.307 83.2258 403.406 92.7194C398.326 96.036 392.298 99.1918 386.99 102.4C371.629 111.794 356.201 121.076 340.706 130.247C311.384 147.831 282.284 166.191 252.797 183.637L188.667 221.557C174.317 230.018 159.06 238.752 145.014 247.645C123.197 233.434 94.9576 218.384 72.0045 204.918C81.832 199.544 91.8896 193.238 101.623 187.548C131.32 170.05 160.871 152.304 190.272 134.313L330.582 50.0841Z"/><path fill="#FEFBEF" transform="scale(0.390625 0.390625)" d="M69.2806 207.911C77.4449 212.062 90.3996 220.12 98.7643 224.988C111.565 232.438 130.951 242.461 142.448 250.969L142.446 452.244C142.507 494.218 143.273 537.034 142.487 578.904C131.82 575.969 116.348 570.034 105.037 566.404C104.937 542.653 105.702 518.303 105.876 494.41C126.568 487.457 133.855 475.133 136.629 453.375C137.109 449.603 137.933 443.203 135.94 439.949C135.16 439.417 134.219 438.635 133.23 439.056C123.982 442.993 112.315 452.935 106.538 459.968C106.498 456.227 105.636 432.631 107.27 430.425C118.753 420.406 127.044 409.385 128.807 393.709C129.446 388.026 129.287 373.315 126.794 368.431C121.989 365.27 106.032 382.333 103.064 386.17C93.7531 398.204 88.6714 421.494 102.663 431.977C102.729 447.417 102.562 462.824 101.999 478.25C101.791 483.947 102.434 489.977 102.468 495.75C102.439 508.525 102.299 521.299 102.048 534.072C99.832 531.843 97.8003 530.418 95.2867 528.548C100.776 507.875 87.1136 495.658 69.1133 489.777C68.993 481.462 69.0217 473.146 69.1992 464.832C77.0326 477.258 95.6076 489.767 95.7948 465.178C95.936 446.637 81.2399 437.232 69.1473 425.875C68.6805 399.51 68.9931 372.088 68.9923 345.687L69.2806 207.911Z"/><path fill="#411130" transform="scale(0.390625 0.390625)" d="M131.895 505.904C133.282 506.019 133.305 505.791 134.363 506.426C136.266 507.659 137.526 511.262 137.916 513.313C140.627 527.57 138.509 544.263 126.551 553.913C122.195 557.428 118.889 558.065 113.666 559.21C104.103 558.699 106.609 544.461 107.32 538.143C108.964 523.535 120.45 514.061 131.895 505.904Z"/><path fill="#FEFBEF" transform="scale(0.390625 0.390625)" d="M131.826 511.856C132.525 512.5 132.925 513.217 133.124 514.166C135.56 525.783 133.96 538.805 125.646 547.817C121.987 551.783 117.907 553.341 112.839 554.612C109.334 552.109 110.543 545.701 110.91 541.899C112.216 528.392 121.55 519.656 131.826 511.856Z"/><path fill="#FEFBEF" transform="scale(0.390625 0.390625)" d="M794.3 539.208C797.433 538.853 799.55 539.158 802.595 539.672C807.923 546.561 811.514 554.633 813.064 563.204C818.007 589.082 806.917 669.254 800.009 696.222C797.401 706.404 791.229 721.564 785.021 730.342C774.65 745.01 761.524 753.995 743.788 757.144C742.163 756.63 740.552 756.096 739.092 755.199C731.924 750.792 725.821 743.182 719.277 737.747C707.13 727.658 666.526 701.097 663.615 686.889C663.358 685.633 663.223 684.434 663.94 683.314C684.639 675.312 698.223 652.154 699.704 630.626C706.391 635.517 712.619 642.604 718.585 648.253C736.298 665.022 756.497 682.075 762.438 706.858C762.739 708.113 762.768 708.016 763.795 708.468C765.496 708.077 764.846 708.516 765.859 707.18C766.653 702.864 763.117 695.416 761.376 691.331C756.267 680.974 751.828 675.811 744.63 666.883C755.912 672.269 767.415 682.664 771.787 694.64C772.785 697.372 774.236 700.637 775.577 703.181L776.706 703.387C778.537 702.434 777.902 703.11 778.821 701.435C778.837 698.371 775.836 692.458 774.462 689.6C769.252 678.757 755.599 666.055 743.983 662.493C738.972 663.574 738.209 660.86 734.144 657.491C733.505 640.423 737.844 616.577 741.635 599.853C744.478 587.316 756.316 573.587 767.258 567.419C769.194 566.328 776.9 563.28 777.761 562.136C777.44 560.266 777.867 560.999 776.589 559.779C774.388 559.452 773.195 559.977 771.183 560.874C754.966 568.102 744.24 580.263 737.982 596.716C738.02 594.637 738.475 588.169 737.635 586.811C736.095 586.366 736.208 586.39 734.658 586.826C732.667 590.508 735.882 601.359 735.165 605.853C732.659 621.563 730.708 636.784 729.459 652.665C723.106 646.587 716.869 640.388 710.752 634.071C717.446 612.618 726.146 595.813 738.374 576.932C751.861 556.108 768.792 541.361 794.3 539.208Z"/><path fill="#FEFBEF" transform="scale(0.390625 0.390625)" d="M429.091 726.821C430.937 725.982 432.977 724.41 434.71 723.289C446.755 715.501 458.562 707.17 470.951 699.942C469.801 703.527 467.606 709.803 466.831 713.366C460.431 733.293 452.746 752.894 446.085 772.75C442.952 782.088 438.689 791.205 436.431 800.795C435.717 803.843 436.713 805.786 438.213 808.307L441.961 812.542C441.223 814.219 440.5 816.01 439.626 817.607C435.51 826.763 431.343 835.895 427.126 845.005C416.728 842.035 414.838 852.733 411.779 860.627C401.19 867.483 393.102 876.993 382.799 884.136C375.668 889.081 366.941 892.826 359 897.299C351.382 901.59 338.908 912.855 346.398 922.309C353.422 931.173 374.037 935.434 384.75 936.955C391.459 937.809 401.785 937.938 407.995 936.956C404.395 939.487 400.462 941.542 396.735 943.899C391.041 947.499 385.452 951.363 379.661 954.807C364.892 949.977 350.95 945.885 336.232 940.517C316.689 933.389 301.231 926.046 282.92 916.682C280.083 915.338 277.291 913.65 274.558 912.081C251.13 898.332 234.354 886.104 215.628 866.741C223.246 862.855 230.949 857.831 238.197 853.252C246.205 848.194 254.513 843.086 262.301 837.721C293.455 860.88 334.35 852.67 365.683 835.279C373.128 831.146 389.902 826.221 390.706 816.707C391.984 801.587 396.551 781.735 387.435 768.171C388.963 765.062 390.509 761.962 392.073 758.87C396.55 759.678 400.382 759.991 404.907 760.291C409.16 756.521 414.091 748.082 418.147 743.021C420.287 738.909 426.302 730.198 429.091 726.821Z"/><path fill="#FEFBEF" transform="scale(0.390625 0.390625)" d="M282.92 916.682C285.648 913.939 436.502 818.457 439.626 817.607C435.51 826.763 431.343 835.895 427.126 845.005C416.728 842.035 414.838 852.733 411.779 860.627C401.19 867.483 393.102 876.993 382.799 884.136C375.668 889.081 366.941 892.826 359 897.299C351.382 901.59 338.908 912.855 346.398 922.309C353.422 931.173 374.037 935.434 384.75 936.955C391.459 937.809 401.785 937.938 407.995 936.956C404.395 939.487 400.462 941.542 396.735 943.899C391.041 947.499 385.452 951.363 379.661 954.807C364.892 949.977 350.95 945.885 336.232 940.517C316.689 933.389 301.231 926.046 282.92 916.682Z"/><path fill="#E78281" transform="scale(0.390625 0.390625)" d="M438.213 808.307L441.961 812.542C441.223 814.219 440.5 816.01 439.626 817.607C436.502 818.457 285.648 913.939 282.92 916.682C280.083 915.338 277.291 913.65 274.558 912.081C282.17 907.928 292.102 901.344 299.616 896.601C314.899 886.976 330.123 877.259 345.287 867.449L438.213 808.307Z"/><path fill="#E78281" transform="scale(0.390625 0.390625)" d="M429.091 726.821C430.937 725.982 432.977 724.41 434.71 723.289C446.755 715.501 458.562 707.17 470.951 699.942C469.801 703.527 467.606 709.803 466.831 713.366C466.398 713.294 465.965 713.222 465.532 713.15C456.255 717.366 425.64 740.332 418.147 743.021C420.287 738.909 426.302 730.198 429.091 726.821Z"/><path fill="#FEFBEF" transform="scale(0.390625 0.390625)" d="M330.587 378.556C351.216 391.324 372.099 403.677 393.223 415.609C369.997 428.968 346.201 443.773 323.247 457.641L193.75 536.448C181.403 543.849 166.665 553.631 154.369 560.186C154.101 535.329 154.106 510.469 154.385 485.612L286.32 405.755C300.944 396.753 316.214 387.783 330.587 378.556Z"/><path fill="#757474" transform="scale(0.390625 0.390625)" d="M637.533 440.841C627.889 430.646 619.73 418.109 620.432 403.645C621.405 383.603 640.382 358.766 653.93 345.766C683.599 317.298 737.051 319.117 765.509 348.427C777.494 360.749 784.26 382.726 783.939 399.734C783.023 418.383 775.984 432.715 764.338 446.854C765.447 439.195 765.794 431.743 760.889 425.053C758.234 421.377 754.227 418.906 749.75 418.184C745.827 417.543 741.812 418.517 738.619 420.885C736.273 422.624 734.388 424.446 733.252 427.136C731.69 427.863 728.853 428.445 728.253 429.045C727.256 429.578 726.452 430.247 725.334 429.738C711.026 423.226 701.381 404.858 695.536 392.453C696.701 399.404 697.503 403.761 699.946 410.546C701.354 414.458 706.323 420.616 706.285 423.123L705.639 423.673C702.938 422.983 700.573 419.361 698.92 417.129L698.643 416.19L698.216 416.141L698.127 416.588C697.826 418.061 698.027 417.888 697.191 419.032C697.658 420.56 698.322 422.419 698.507 423.951C678.292 413.493 671.33 397.976 662.351 378.558C661.78 377.323 660.441 376.237 659.197 375.677L658.606 376.18C658.186 385.679 672.02 405.961 677.174 414.419C678.703 416.929 680.1 420.521 681.237 423.264C668.032 413.805 660.844 403.857 655.02 388.581C653.429 384.408 650.923 372.632 648.221 370.246C644.731 371.476 642.322 377.752 640.641 381.081C631.283 399.608 629.053 417.048 636.084 436.982C636.544 438.277 637.028 439.563 637.533 440.841Z"/><path fill="#411130" transform="scale(0.390625 0.390625)" d="M697.191 419.032C693.846 409.139 689.484 391.531 690.98 380.203C691.125 379.102 692.2 378.818 693.139 378.557C695.933 380.2 700.063 392.392 702.105 396.221C706.665 404.774 711.378 412.452 718.303 419.379C721.248 422.325 726.229 425.859 728.253 429.045C727.256 429.578 726.452 430.247 725.334 429.738C711.026 423.226 701.381 404.858 695.536 392.453C696.701 399.404 697.503 403.761 699.946 410.546C701.354 414.458 706.323 420.616 706.285 423.123L705.639 423.673C702.938 422.983 700.573 419.361 698.92 417.129L698.643 416.19L698.216 416.141L698.127 416.588C697.826 418.061 698.027 417.888 697.191 419.032Z"/><path fill="#411130" transform="scale(0.390625 0.390625)" d="M709.576 369.828C713.644 372.927 722.812 383.156 728.329 387.743C734.15 392.584 747.582 401.789 751.662 406.147C751.864 407.893 751.803 407.34 750.706 409.207C737.815 403.032 715.518 384.409 708.113 371.674C707.824 371.177 709.191 370.197 709.576 369.828Z"/><path fill="#FEFBEF" transform="scale(0.390625 0.390625)" d="M557.645 509.657C581.949 505.558 607.284 510.522 629.451 520.91C637.891 524.865 647.547 530.586 655.93 533.806C656.477 541.762 655.558 582.322 657.635 585.66L658.62 585.928C659.822 585.051 659.879 585.077 660.765 583.91C663.954 589.024 668.147 597.229 670.66 602.692C674.623 611.308 676.409 618.024 682.291 625.717C680.78 636.696 675.627 645.884 667.695 653.598C665.738 646.799 663.265 637.93 659.821 631.802C654.182 628.891 647.552 627.619 642.31 624.408C629.282 616.429 619.286 602.719 607.57 593.506C607.238 593.603 606.878 593.516 606.533 593.502C604.907 592.236 604.896 591.816 604.061 589.798L603.815 589.188L602.87 588.86C600.71 590.895 603.221 591.298 603.008 593.994C610.648 602.506 621.224 611.78 629.776 619.792C629.122 623.622 628.422 627.444 627.675 631.256C617.222 622.003 602.012 615.71 588.475 612.899C580.482 611.239 579.156 611.105 572.918 605.853C567.394 573.858 562.302 541.79 557.645 509.657Z"/><path fill="#411130" transform="scale(0.390625 0.390625)" d="M603.008 593.994C599.605 590.609 600.718 585.26 601.645 581.019C600.255 578.905 597.498 575.925 597.451 573.992C599.084 571.901 601.929 571.611 604.204 572.802C605.363 574.648 605.103 573.683 605.137 575.767C604.603 576.33 604.423 576.438 604.126 577.159C606.11 579.303 612.411 586.524 614.633 587.208C617.111 586.372 619.342 585.501 620.243 588.674C619.282 589.288 619.271 589.294 618.289 589.759C619.534 594.55 635.172 600.842 635.478 606.72C631.049 612.046 609.142 586.066 604.875 587.339C604.543 591.224 606.228 590.986 607.57 593.506C607.238 593.603 606.878 593.516 606.533 593.502C604.907 592.236 604.896 591.816 604.061 589.798L603.815 589.188L602.87 588.86C600.71 590.895 603.221 591.298 603.008 593.994Z"/><path fill="#411130" transform="scale(0.390625 0.390625)" d="M613.66 557.889C628.707 561.235 634.873 566.509 646.353 576.653C649.449 579.39 655.455 581.576 654.775 586.083C653.956 586.547 653.579 586.861 652.589 586.252C645.059 581.617 626.199 563.458 618.225 563.029L617.691 563.535C618.97 566.65 642.044 581.49 646.155 586.766C646.238 588.538 646.438 587.738 645.553 589.258C642.542 589.558 639.362 586.323 636.809 584.319C629.587 578.91 620.832 571.751 613.326 566.571C612.742 566.169 612.45 566.501 611.674 566.827C608.928 572.78 641.38 593.893 642.076 597.894C640.958 599.362 641.075 599.302 639.396 600.044C633.558 597.043 609.593 576.176 605.372 571.36C605.109 569.648 604.934 570.394 605.749 569.015L607.413 569.423L607.872 568.884C607.273 561.948 608.626 564.137 612.946 561.519L613.66 557.889Z"/><path fill="#551332" transform="scale(0.390625 0.390625)" d="M634.164 535.709C631.864 534.08 629.179 533.31 626.64 532.193C616.519 527.74 606.003 524.754 595.247 522.296C594.049 522.022 592.821 521.719 592.451 520.593L592.945 519.888C601.882 518.686 631.042 528.741 636.917 536.309L634.164 535.709Z"/><path fill="#551332" transform="scale(0.390625 0.390625)" d="M593.064 537.011C599.704 537.301 630.281 546.103 635.555 551.539L635.477 553.081C632.862 553.6 627.14 550.779 624.63 549.582C614.92 544.952 605.394 541.427 594.877 539.244C593.569 538.972 593.592 538.187 593.064 537.011Z"/><path fill="#411130" transform="scale(0.390625 0.390625)" d="M587.887 598.506C590.179 598.678 594.033 599.125 596.006 600.252C600.404 602.766 615.623 606.764 617.7 610.535L616.408 611.282C611.678 611.575 594.836 602.473 589.162 600.768C588.031 600.429 588.118 599.548 587.887 598.506Z"/><path fill="#551332" transform="scale(0.390625 0.390625)" d="M591.06 545.313C597.309 547.647 609.452 547.718 614.292 553.506C614.789 555.373 614.913 554.549 614.228 556.089L613.2 556.054C605.507 550.824 597.214 550.516 588.878 547.891C589.249 546.585 589.869 546.406 591.06 545.313Z"/><defs><linearGradient id="gradient_1" gradientUnits="userSpaceOnUse" x1="612.48993" y1="530.49017" x2="610.24261" y2="535.83502"><stop offset="0" stop-color="#57322E"/><stop offset="1" stop-color="#5D2541"/></linearGradient></defs><path fill="url(#gradient_1)" transform="scale(0.390625 0.390625)" d="M623.412 536.48C619.055 544.059 612.883 535.21 606.865 534.796C605.265 534.686 603.472 534.486 602.236 533.522C602.397 532.896 602.551 532.267 602.696 531.636C603.25 529.118 602.232 528.562 600.698 526.149L601.487 525.637C606.198 526.468 604.039 528.919 606.7 532.517C608.171 533.236 607.391 533.134 609.139 532.592C609.15 530.943 609.147 529.99 609.372 528.326L609.939 528.202L610.554 529.306L610.582 530.548C611.339 533.808 617.603 538.142 620.755 537.687C621.304 537.184 621.715 536.85 622.197 536.282L623.412 536.48Z"/><path fill="#551332" transform="scale(0.390625 0.390625)" d="M580.782 563.083C585.954 562.954 600.24 562.5 602.915 567.755L602.454 568.922C595.569 566.464 590.228 565.916 582.819 566.01C581.419 565.155 581.38 564.617 580.782 563.083Z"/><path fill="#551332" transform="scale(0.390625 0.390625)" d="M586.927 519.218C588.236 519.185 588.281 519.047 589.326 519.765L589.068 520.789C587.016 522.57 576.958 522.502 573.109 523.647C572.25 523.986 572.724 523.912 571.6 523.475L571.105 522.256L571.593 521.12C574.733 519.301 582.982 519.398 586.927 519.218Z"/><path fill="#582C2F" transform="scale(0.390625 0.390625)" d="M593.881 541.086C599.907 541.186 614.699 546.439 619.166 550.405L619.116 551.672C616.357 551.347 607.959 545.815 604.732 544.622C601.223 543.325 597.466 543.283 593.807 542.157L593.881 541.086Z"/><path fill="#411130" transform="scale(0.390625 0.390625)" d="M584.915 574.914C588.453 575.472 591.89 576.548 595.116 578.106C596.944 578.992 598.523 579.665 599.138 581.371C597.809 581.396 587.131 578.795 585.505 577.628C584.927 577.213 585.008 575.839 584.915 574.914Z"/><path fill="#411130" transform="scale(0.390625 0.390625)" d="M642.808 545.639C645.082 546.171 644.604 545.714 645.979 547.169C647.007 550.285 646.761 553.469 645.967 556.618C644.763 556.968 645.164 556.978 644.018 556.681C641.941 553.853 643.889 549.881 642.808 545.639Z"/><path fill="#551332" transform="scale(0.390625 0.390625)" d="M587.146 590.608C591.788 591.409 598.626 591.818 601.236 595.473C598.172 595.904 591.054 594.423 588.103 593.05C587.321 592.687 587.387 591.719 587.146 590.608Z"/><path fill="#551332" transform="scale(0.390625 0.390625)" d="M586.38 584.884C590.394 585.394 594.486 585.633 598.14 587.298C599.188 588.622 598.929 587.863 598.74 589.712C594.757 588.808 591.777 588.671 587.793 588.004C586.43 586.957 586.851 587.094 586.38 584.884Z"/><path fill="#551332" transform="scale(0.390625 0.390625)" d="M643.191 560.181L644.016 560.847C644.838 563.376 645.212 569.827 643.445 571.886C640.209 568.716 640.862 563.717 643.191 560.181Z"/><path fill="#411130" transform="scale(0.390625 0.390625)" d="M634.164 535.709L636.917 536.309C638.642 537.892 639.386 538.303 639.558 540.487C637.694 542.777 635.496 540.987 633.713 539.541C633.208 537.662 633.508 537.92 634.164 535.709Z"/><path fill="#551332" transform="scale(0.390625 0.390625)" d="M584.332 567.606C586.589 567.382 589.878 566.98 591.327 569.019C590.73 570.702 590.75 570.239 588.771 571.433L587.861 572.305C584.931 572.256 584.227 570.171 584.332 567.606Z"/><path fill="#551332" transform="scale(0.390625 0.390625)" d="M584.714 523.775C585.657 523.891 586.836 523.854 587.459 524.389C589.209 525.891 589.209 531.648 589.505 534.353C584.998 534.042 587.517 528.632 584.714 523.775Z"/><path fill="#411130" transform="scale(0.390625 0.390625)" d="M578.01 544.854C581.13 545.109 585.484 545.157 587.329 547.757C582.47 548.877 579.57 550.173 578.01 544.854Z"/><path fill="#551332" transform="scale(0.390625 0.390625)" d="M595.727 525.11C596.783 525.553 596.41 525.343 597.251 526.177C597.16 530.206 600.265 529.689 600.735 532.421C597.799 531.833 596.163 531.876 594.416 529.658C594.072 527.775 594.833 526.846 595.727 525.11Z"/><path fill="#582C2F" transform="scale(0.390625 0.390625)" d="M598.666 534.586C602.274 534.939 609.221 537.83 611.99 540.481C608.218 539.386 600.594 537.792 598.666 534.586Z"/><path fill="#551332" transform="scale(0.390625 0.390625)" d="M576.219 535.936C577.406 535.881 578.595 535.921 579.775 536.057C581.743 536.269 582.204 536.495 583.256 537.825C582.991 539.617 582.976 539.128 581.414 540.725C579.796 540.501 581.856 540.681 580.049 538.404C578.626 538.344 577.817 538.439 576.557 537.767L576.219 535.936Z"/><path fill="#551332" transform="scale(0.390625 0.390625)" d="M578.601 528.345C580.282 529.147 582.227 529.693 582.378 531.662L581.373 532.596C579.292 532.529 577.894 532.69 576.486 531.046C576.945 529.272 576.878 529.783 578.601 528.345Z"/><path fill="#551332" transform="scale(0.390625 0.390625)" d="M633.513 541.628C636.981 542.663 637.339 544.061 637.342 547.285C635.551 547.522 635.544 547.347 634.362 546.627C633.317 544.828 633.534 543.803 633.513 541.628Z"/><path fill="#582C2F" transform="scale(0.390625 0.390625)" d="M581.46 524.235L582.35 524.664L582.213 525.354C580.272 526.685 579.447 526.744 577.109 527.363C576.851 527.167 576.219 526.455 575.969 526.189L576.178 525.373C577.665 524.537 579.706 524.454 581.46 524.235Z"/><path fill="#551332" transform="scale(0.390625 0.390625)" d="M622.197 536.282C620.849 535.184 619.856 534.585 619.091 533.029L619.412 532.184C622.064 531.862 623.755 533.75 623.412 536.48L622.197 536.282Z"/><path fill="#6E3345" transform="scale(0.390625 0.390625)" d="M610.554 529.306C612.944 529.972 614.392 530.144 616.256 531.767L616.354 532.464C612.089 533.071 613.024 531.508 610.582 530.548L610.554 529.306Z"/><path fill="#582C2F" transform="scale(0.390625 0.390625)" d="M624.754 539.794C627.09 540.353 628.908 542.246 630.156 544.22C627.156 543.269 624.831 543.203 624.754 539.794Z"/><path fill="#FEFBEF" transform="scale(0.390625 0.390625)" d="M716.786 493.461C721.815 490.505 731.74 485.979 733.458 481.191L733.011 480.539C728.474 481.032 719.441 487.547 714.946 489.357C710.066 491.448 704.677 493.459 699.807 495.426C683.18 502.144 675.82 496.775 663.462 486.234C650.546 475.216 648.367 465.814 645.007 449.764C644.128 445.564 641.499 440.045 640.213 435.83C632.372 412.288 636.667 398.916 646.932 377.936C650.891 396.333 662.363 418.606 680.142 426.892C682.181 427.842 684.481 428.249 686.556 427.393C686.64 426.593 683.253 419.953 682.504 418.133C685.834 420.723 696.704 428.917 700.967 427.078C701.651 425.584 701.526 426.397 700.947 424.522L698.507 423.951C698.322 422.419 697.658 420.56 697.191 419.032C698.027 417.888 697.826 418.061 698.127 416.588L698.216 416.141L698.643 416.19L698.92 417.129C700.573 419.361 702.938 422.983 705.639 423.673L706.285 423.123C706.323 420.616 701.354 414.458 699.946 410.546C697.503 403.761 696.701 399.404 695.536 392.453C701.381 404.858 711.026 423.226 725.334 429.738C726.452 430.247 727.256 429.578 728.253 429.045C728.853 428.445 731.69 427.863 733.252 427.136L735.212 428.307C737.432 428.134 741.389 423.129 743.525 422.748C767.617 418.451 765.155 458.083 744.055 460.224C742.72 460.36 742.033 461.224 741.541 462.361C741.953 464.445 741.456 463.653 742.777 464.98C745.081 465.469 747.955 463.638 750.207 462.539C750.333 469.171 752.397 496.005 758.947 498.512C760.076 497.781 760.754 495.464 761.713 493.846C764.986 493.349 769.171 495.15 769.438 498.797C767.18 504.955 749.422 518.478 744.082 524.216C736.861 531.975 707.757 530.44 700.262 521.993C699.023 517.195 706.546 512.214 710.428 511.163C710.812 512.604 710.898 513.654 711.979 514.632L712.93 514.325C716.48 510.375 716.366 499.153 716.786 493.461Z"/><path fill="#551332" transform="scale(0.390625 0.390625)" d="M697.191 419.032C698.027 417.888 697.826 418.061 698.127 416.588L698.216 416.141L698.643 416.19L698.92 417.129C699.199 419.807 699.884 422.04 700.947 424.522L698.507 423.951C698.322 422.419 697.658 420.56 697.191 419.032Z"/><path fill="#411130" transform="scale(0.390625 0.390625)" d="M682.648 442.299C684.401 442.397 685.839 442.345 687.377 443.329C689.904 444.952 691.662 447.531 692.249 450.476C692.879 453.702 692.474 455.16 690.79 457.781C682.69 459.124 680.438 448.161 682.648 442.299Z"/><path fill="#411130" transform="scale(0.390625 0.390625)" d="M647.804 437.785C655.674 438.873 659.811 448.413 654.088 453.758C649.279 454.319 647.778 450.153 646.773 445.993C645.932 442.512 645.765 440.89 647.804 437.785Z"/><defs><linearGradient id="gradient_2" gradientUnits="userSpaceOnUse" x1="748.82831" y1="440.1666" x2="748.60132" y2="432.43829"><stop offset="0" stop-color="#420E1E"/><stop offset="1" stop-color="#430632"/></linearGradient></defs><path fill="url(#gradient_2)" transform="scale(0.390625 0.390625)" d="M746.534 431.485C752.227 431.432 758.196 436.748 754.246 441.306L753.336 441.132C753.385 439.14 753.676 439.974 752.682 438.472C751.244 436.89 750.968 436.629 749.249 435.379C746.111 435.145 745.674 439.914 742.767 437.973C741.582 434.366 743.875 433.168 746.534 431.485Z"/><path fill="#411130" transform="scale(0.390625 0.390625)" d="M644.08 418.103C646.811 418.015 651.563 418.244 650.771 422.243C649.234 423.261 649.718 422.946 647.625 423.054C645.015 423.008 640.978 423.728 639.387 421.212L639.747 420.276C641.61 418.859 641.807 418.847 644.08 418.103Z"/><path fill="#411130" transform="scale(0.390625 0.390625)" d="M682.538 479.391C683.554 479.672 684.337 480.274 684.852 481.177C684.183 485.231 676.842 486.093 673.507 486.196L671.97 485.149L671.9 484.235C675.202 481.947 678.363 483.655 682.538 479.391Z"/><path fill="#551332" transform="scale(0.390625 0.390625)" d="M657.583 458.691L658.588 459.453C661.038 468.404 665.898 464.318 665.811 468.705C660.084 467.464 654.343 466.086 657.583 458.691Z"/><path fill="#411130" transform="scale(0.390625 0.390625)" d="M746.669 438.629L748.148 439.381C749.089 441.699 746.828 447.538 746.051 450.845C745.738 450.885 744.938 450.806 744.586 450.783C743.005 448.067 745.263 441.347 746.669 438.629Z"/><path fill="#FEFBEF" transform="scale(0.390625 0.390625)" d="M469.501 295.582C473.615 297.371 480.527 301.614 484.598 303.93C496.009 310.421 507.243 317.499 518.614 324.067C552.957 343.563 587.179 363.27 621.279 383.188C611.937 402.512 616.341 423.731 630.539 439.453C636.101 445.612 638.836 442.239 641.222 451.212C641.596 452.604 641.651 452.919 641.792 454.354L641.143 454.929C637.249 454.43 484.613 362.824 469.451 353.484C469.313 334.183 469.33 314.882 469.501 295.582Z"/><path fill="#FEFBEF" transform="scale(0.390625 0.390625)" d="M49.7298 621.206C51.7184 622.798 55.5944 628.391 58.8193 630.336C75.4444 640.364 98.245 642.482 116.904 639.597C129.227 637.692 146.655 631.384 153.892 621.403C151.487 639.008 147.928 654.044 143.992 671.394C143.194 674.932 141.857 683.337 140.044 685.924C135.012 693.104 124.56 696.927 116.239 698.348C101.342 700.893 82.2907 699.379 69.5794 690.519C67.9594 689.39 64.9262 686.532 64.2455 684.695C62.4067 679.733 61.1271 673.529 59.8411 668.378C55.8661 652.456 52.0676 637.445 49.7298 621.206Z"/><path fill="#757474" transform="scale(0.390625 0.390625)" d="M799.033 329.116C805.86 328.508 813.261 329.694 818.436 334.546C842.721 357.32 823.657 399.519 848.9 422.296C855.651 428.387 864.012 430.09 872.811 429.579C870.933 431.164 868.583 433.041 866.535 434.345C856.778 440.574 844.927 442.62 833.647 440.025C824.785 437.959 820.227 434.012 815.594 426.465C811.901 420.068 810.012 411.567 809.104 404.28C808.759 401.51 809.128 394.03 806.907 392.602C799.51 399.079 808.977 422.911 812.626 430.251L812.065 430.785C806.056 431.498 802.021 428.686 798.725 424.048C790.062 411.862 796.571 399.408 799.057 386.599C799.982 381.832 800.195 376.117 796.728 372.216C794.161 369.347 794.532 368.006 793.744 364.245C791.428 353.204 788.013 348.839 779.113 342.534C784.105 334.356 790.231 331.469 799.033 329.116Z"/><path fill="#E78281" transform="scale(0.390625 0.390625)" d="M449.269 863.517C473.806 872.295 469.353 855.104 475.698 854.054C481.235 859.107 481.172 881.54 480.428 888.785C472.583 897.017 460.111 900.191 449.861 904.558C439.47 908.984 428.662 914.859 417.874 918.031C411.665 919.835 405.242 920.792 398.777 920.877C386.152 921.151 360.622 916.928 351.186 908.25C361.473 898.678 369.599 897.16 380.576 890.427C384.259 894.237 402.796 906.911 406.931 907.419L407.933 906.968C408.325 902.534 388.572 892.361 384.354 888.733C385.789 887.449 387.622 885.486 389.28 884.887C390.945 885.943 389.627 885.356 390.657 886.515C394.128 890.416 401.757 892.363 405.909 896.136C406.019 896.236 406.845 896.699 406.936 896.751C410.52 897.359 409.904 897.698 412.939 895.788L413.688 895.535C413.461 895.169 398.68 886.713 397.168 885.947C399.012 884.116 401.063 882.237 402.962 880.441C408.37 884.158 415.815 889.003 421.096 893.294C421.572 893.336 422.049 893.377 422.526 893.418L423.192 893.733C427.997 896.319 433.072 889.274 435.671 885.756C433.772 880.22 431.914 877.88 426.221 875.273C421.523 873.121 415.158 870.892 410.209 869.274C413.293 866.581 413.975 865.965 415.924 862.199C424.02 866.132 435.402 870.076 442.605 873.99L442.663 874.957C440.194 876.679 437.943 874.428 437.064 875.876C438.446 878.412 438.911 878.94 440.852 881.107C449.595 871.584 444.4 873.784 449.269 863.517Z"/><path fill="#411130" transform="scale(0.390625 0.390625)" d="M413.889 895.526C416.367 897.151 415.965 898 417.499 900.204L414.051 902.357C413.374 903.276 413.032 903.651 412.511 904.641C411.837 903.211 408.059 897.685 406.936 896.751C410.52 897.359 409.904 897.698 412.939 895.788L413.688 895.535L413.889 895.526Z"/><path fill="#E78281" transform="scale(0.390625 0.390625)" d="M413.889 895.526C416.367 897.151 415.965 898 417.499 900.204L414.051 902.357C413.326 899.17 411.63 898.814 412.939 895.788L413.688 895.535L413.889 895.526Z"/><path fill="#411130" transform="scale(0.390625 0.390625)" d="M418.965 897.981L420.261 897.732L420.881 898.497C420.576 900.648 418.917 902.724 417.212 904.008C416.385 904.63 415.153 905.385 414.115 905.225C413.153 905.076 413.504 905.148 412.511 904.641C413.032 903.651 413.374 903.276 414.051 902.357L417.499 900.204C417.951 899.667 418.565 898.612 418.965 897.981Z"/><path fill="#411130" transform="scale(0.390625 0.390625)" d="M413.889 895.526C414.604 893.236 413.986 894.153 415.727 892.615C418.038 892.501 417.975 893.974 418.658 896.079L418.323 897.455L418.965 897.981C418.565 898.612 417.951 899.667 417.499 900.204C415.965 898 416.367 897.151 413.889 895.526Z"/><path fill="#FEFBEF" transform="scale(0.390625 0.390625)" d="M691.987 721.904C700.199 728.931 709.687 735.7 718.101 742.765C723.848 747.591 733.55 757.525 739.423 761.107C738.759 770.176 737.207 786.706 733.443 794.801C729.996 802.211 711.106 805.989 702.549 808.433C706.009 802.366 720.824 763.27 712.209 760.912C709.131 763.486 709.384 770.58 708.846 774.736C707.793 782.924 705.641 790.933 702.448 798.547C697.488 810.14 690.514 815.995 678.146 818.491C673.019 819.527 669.292 820.06 664.273 817.876C663.416 815.693 668.52 810.585 669.81 808.19C684.169 781.518 688.752 751.585 691.987 721.904Z"/><path fill="#FEFBEF" transform="scale(0.390625 0.390625)" d="M755.171 475.281C765.789 475.892 776.584 481.24 782.497 490.199C786.377 496.078 786.612 500.519 787.339 507.138C783.009 515.869 776.146 519.554 768.171 524.5C767.518 526.02 767.653 525.171 768.412 527.217C775.497 526.736 787.465 516.89 790.641 510.611C794.286 515.2 808.886 530.533 807.246 535.479L806.392 535.796C799.22 533.896 790.312 534.432 783.159 536.283C755.564 543.423 740.693 563.498 726.965 586.718C717.232 604.444 713.749 611.997 707.107 631.054L699.906 625.401C702.89 609.939 710.878 577.844 718.216 564.131C727.737 548.983 739.249 535.369 751.957 522.75C757.732 517.015 771.573 507.204 773.773 499.521C776.305 490.677 764.914 489.159 758.446 488.198C757.016 484.172 756.108 479.49 755.171 475.281Z"/><path fill="#FEFBEF" transform="scale(0.390625 0.390625)" d="M695.608 522.786C696.884 523.181 699.655 527.092 701.584 528.315C711.708 534.736 726.056 533.699 737.04 531.968C730.478 539.665 718.663 553.883 714.117 562.589C707.326 575.593 701.454 598.176 697.715 612.621C697.065 615.793 696.506 619.151 695.922 622.351C693.65 620.276 693.06 619.746 690.332 618.132C688.013 618.238 685.344 618.529 683 618.725C679.599 612.543 676.593 604.276 673.385 597.658C670.584 591.881 665.098 583.103 663.312 577.487C670.072 558.614 681.614 537.19 695.608 522.786Z"/><path fill="#E78281" transform="scale(0.390625 0.390625)" d="M341.019 764.928C343.3 764.994 345.377 765.184 347.055 766.82C347.095 774.379 351.123 777.152 357.362 780.579C368.048 786.45 380.465 786.88 386.454 774.381C389.098 784.095 390.204 795.526 387.193 805.275C380.331 811.324 339.377 829.574 329.549 832.271C322.22 834.259 314.656 835.245 307.062 835.2C295.821 835.064 276.195 830.866 268.115 822.497C272.525 818.385 276.519 816.514 281.814 813.75C285.693 811.662 289.536 809.508 293.342 807.291C296.408 811.911 305.18 817.408 310.807 824.251C315.608 822.373 317.866 821.339 321.945 818.278C320.25 815.752 316.42 812.743 316.27 810.631L316.851 810.331C319.403 811.407 321.722 814.232 324.649 815.989C327.329 810.946 307.063 801.854 303.592 800.028L310.534 794.5L310.708 794.654C314.608 798.166 319.265 800.009 323.111 803.071C322.786 802.812 327.69 812.197 328.304 813.192C340.809 807.92 338.733 805.966 333.093 796.166C337.687 796.822 340.641 798.397 344.882 799.031C347.931 799.486 351.827 794.041 350.964 791.48C348.988 785.615 338.503 781.792 333.472 778.079L332.767 777.553C335.154 772.839 336.968 768.366 341.019 764.928Z"/><path fill="#FEFBEF" transform="scale(0.390625 0.390625)" d="M464.942 296.061C465.894 297.553 465.543 346.063 465.547 352.057C453.174 359.797 440.089 366.824 427.621 374.453C421.969 377.912 416.006 381.423 410.174 384.532C409.149 382.721 409.793 335.8 409.812 329.394C416.357 324.865 427.109 318.656 434.093 314.528L464.942 296.061Z"/><path fill="#FEFBEF" transform="scale(0.390625 0.390625)" d="M594.235 622.747C603.582 624.619 622.747 637.076 630.313 638.168C631.991 636.698 633.204 626.42 633.82 623.328C640.904 629.808 646.869 631.589 655.743 634.308C657.652 637.924 658.945 641.49 660.411 645.292C650.164 657.872 651.525 664.118 660.149 676.74C658.524 683.515 658.313 689.169 662.432 695.266C669.015 705.012 678.919 712.438 687.959 719.793L687.206 725.447C686.131 733.752 685.128 742.367 683.737 750.598C678.574 740.251 663.847 719.314 657.195 709.604C637.735 681.199 616.446 648.931 594.235 622.747Z"/><path fill="#FEFBEF" transform="scale(0.390625 0.390625)" d="M397.49 338.087C398.416 339.741 397.691 406.59 397.555 413.238C390.382 410.358 366.65 395.837 358.761 391.196C350.636 386.329 342.577 381.354 334.585 376.271L397.49 338.087Z"/><path fill="#757474" transform="scale(0.390625 0.390625)" d="M550.27 700.265C555.996 705.048 568.319 784.14 582.436 799.872C576.589 797.105 571.141 794.545 565.46 791.442C547.102 780.616 537.734 768.934 526.722 751.32C534.762 734.391 542.612 717.371 550.27 700.265Z"/><path fill="#FEFBEF" transform="scale(0.390625 0.390625)" d="M104.522 583.74C112.473 584.28 116.98 584.956 124.717 586.84C135.858 590.438 161.662 601.803 151.067 619.221C145.554 628.282 127.069 634.263 116.94 636.078C99.1501 639.265 75.6692 637.145 60.1258 626.84C51.4115 621.194 47.8973 610.108 55.0424 601.76C64.7984 590.362 81.6101 585.828 95.9187 584.199C97.483 584.004 98.6849 583.612 99.9667 584.385C101.08 586.113 100.566 589.677 100.472 591.95C90.5694 592.862 79.0338 594.379 70.8354 599.863C48.3176 614.924 71.9373 627.94 87.9826 629.82C104.633 631.772 121.119 631.251 135.434 621.848C138.208 620.02 142.514 614.917 142.415 611.296C141.974 595.26 114.278 592.385 104.255 591.628L104.522 583.74Z"/><path fill="#FEFBEF" transform="scale(0.390625 0.390625)" d="M710.521 495.981L711.488 495.929C712.72 497.712 711.555 502.99 711.188 505.304C702.293 509.75 692.145 519.296 685.753 526.785C676.513 537.612 669.963 551.855 663.571 564.583C663.532 560.631 663.463 555.842 663.518 551.969C663.724 537.606 678.575 521.939 688.329 512.465C689.844 511.066 690.977 510.118 690.823 507.937C685.315 506.318 673.678 521.006 670.761 525.045C667.776 529.177 665.24 534.31 662.994 538.914C662.929 533.964 662.794 531.048 664.181 526.3C658.347 523.67 652.573 520.128 647.019 516.904C653.248 512.82 671.325 503.732 674.165 500.174C688.298 505.649 696.991 501.221 710.521 495.981Z"/><path fill="#FEFBEF" transform="scale(0.390625 0.390625)" d="M538.037 506.279C547.465 511.536 547.199 507.767 556.263 508.187L556.4 508.607L554.643 509.534C552.596 512.656 565.736 587.269 567.433 597.103C567.693 598.404 568.286 600.4 567.725 601.28C562.525 597.221 556.229 591.001 551.656 586.268C546.212 559.891 543.556 533.14 538.037 506.279Z"/><path fill="#FEFBEF" transform="scale(0.390625 0.390625)" d="M429.091 726.821C440.427 709.001 452.579 691.535 464.282 673.945L479.91 650.793C482.101 647.506 489.702 634.564 492.972 633.555C493.976 636.081 486.065 656.84 484.575 661.009C479.962 673.962 475.421 686.939 470.951 699.942C458.562 707.17 446.755 715.501 434.71 723.289C432.977 724.41 430.937 725.982 429.091 726.821Z"/><path fill="#FEFBEF" transform="scale(0.390625 0.390625)" d="M445.06 815.284C454.489 822.937 461.458 825.863 473.422 827.538C468.232 838.311 466.424 848.321 462.879 859.484C462.245 861.48 460.942 861.87 459.206 862.524C457.204 862.304 455.697 862.434 454.305 861.097C453.96 860.306 452.779 857.543 452.165 857.167C445.607 853.157 437.927 850.894 430.977 847.479C435.693 837.151 440.887 825.773 445.06 815.284Z"/><path fill="#FEFBEF" transform="scale(0.390625 0.390625)" d="M386.307 810.962L386.84 811.746C386.69 814.41 386.779 816.95 385.125 819.203C380.836 825.047 345.588 840.052 336.762 842.949C330.716 844.967 324.48 846.362 318.15 847.115C300.735 849.096 279.696 845.685 265.65 834.596L264.742 833.311C264.446 831.125 265.26 828.813 265.816 826.606C272.273 831.689 281.986 835.231 289.806 837.33C315.934 844.344 339.967 834.692 363.038 823.079C370.733 819.206 378.86 815.355 386.307 810.962Z"/><path fill="#FEFBEF" transform="scale(0.390625 0.390625)" d="M480.473 894.556C481.595 895.787 480.15 899.309 479.165 900.395C472.14 908.14 460.021 911.643 450.794 916.13C442.256 920.281 433.513 925.006 424.773 928.169C418.617 930.425 412.234 932.008 405.737 932.891C388.92 935.062 363.478 930.707 349.744 920.159C348.618 918.256 347.717 915.752 348.963 913.704C351.617 912.621 353.239 914.711 355.565 915.9C372.48 924.551 394.669 927.296 413.247 923.822C426.013 921.435 436.627 915.022 448.255 910.012C459.719 905.073 470.316 902.019 480.473 894.556Z"/><path fill="#FEFBEF" transform="scale(0.390625 0.390625)" d="M69.0706 522.357C76.0013 528.16 81.827 539.938 93.1149 532.037C96.6104 534.192 98.2279 535.367 101.1 538.202L101.31 562.625C101.305 563.489 101.249 563.361 100.965 564.22C98.7153 564.049 72.2766 553.113 69.0476 551.518C68.9581 541.797 68.9658 532.077 69.0706 522.357Z"/><path fill="#FEFBEF" transform="scale(0.390625 0.390625)" d="M123.407 373.979C124.083 375.556 124.121 377.411 124.306 379.173C126.05 395.827 120.924 408.725 110.348 421.429C108.757 423.34 106.365 426.114 103.814 426.378L102.492 425.288C99.5047 419.396 98.4429 412.713 99.4569 406.185C101.724 391.441 111.999 382.285 123.407 373.979Z"/><path fill="#FEFBEF" transform="scale(0.390625 0.390625)" d="M686.677 622.991C697.151 624.476 696.396 633.341 693.821 641.185C688.824 656.401 679.975 670.151 665.667 677.89C664.3 674.793 663.144 672.75 661.47 669.82C656.426 661.324 656.52 659.119 661.903 650.752C663.902 655.915 662.476 657.563 663.878 661.875L664.581 662.222C673.238 657.893 682.817 641.925 685.219 632.704C686.044 629.534 685.504 626.023 686.677 622.991Z"/><path fill="#FEFBEF" transform="scale(0.390625 0.390625)" d="M366.691 745.267C374.437 751.739 378.365 753.907 387.688 757.878C385.555 761.473 375.572 778.537 373.415 780.563C364.39 780.333 357.707 776.454 351.248 770.478C354.602 766.236 363.331 750.856 366.691 745.267Z"/><path fill="#FEFBEF" transform="scale(0.390625 0.390625)" d="M131.242 445.426C131.718 445.522 131.387 445.424 132.107 445.995C132.734 450.23 130.897 460.647 129.375 464.946C124.633 478.349 119.024 483.587 106.901 489.681L106.25 489.213C106.416 484.22 106.068 475.586 106.942 471.129C109.19 459.672 121.939 451.199 131.242 445.426Z"/><path fill="#FEFBEF" transform="scale(0.390625 0.390625)" d="M67.9253 431.182C71.0198 433.19 79.4105 441.586 82.0125 444.22C89.6291 451.93 92.3591 463.344 89.6685 473.899C86.3003 475.635 79.2794 469.772 76.9014 467.21C67.352 456.922 67.5282 444.347 67.9253 431.182Z"/><path fill="#FEFBEF" transform="scale(0.390625 0.390625)" d="M67.3857 494.484L67.9969 494.654C83.8418 499.219 95.4472 511.227 90.1025 528.782C83.6677 533.513 74.7304 522.169 71.7102 517.239C67.2189 509.907 67.2098 502.705 67.3857 494.484Z"/><path fill="#E78281" transform="scale(0.390625 0.390625)" d="M422.18 848.256C424.203 848.854 450.61 860.036 450.809 860.274C449.989 860.395 449.371 860.37 448.549 860.331C447.176 861.495 445.346 865.654 444.428 867.48L443.865 868.41C441.172 868.925 421.083 860.194 416.797 858.435C418.253 854.393 419.764 851.737 422.18 848.256Z"/><path fill="#FEFBEF" transform="scale(0.390625 0.390625)" d="M104.11 594.868C112.81 594.891 135.86 597.987 138.953 608.861C141.558 618.021 126.613 623.915 119.247 625.517C103.74 628.887 85.0826 628.746 70.9532 620.437C65.7624 617.405 63.0545 612.129 67.4574 607.105C74.6372 598.913 86.9368 596.196 97.2544 595.211C98.6783 595.027 98.6283 594.928 99.8882 595.558L99.7311 596.339C97.2242 597.756 92.8445 597.762 89.9522 598.301C83.9633 599.418 77.9729 601.474 72.8136 604.768C70.5997 606.181 68.2038 607.965 67.6692 610.707C67.2354 612.932 68.1976 615.349 69.4724 617.141C73.107 622.248 81.1424 624.116 87.0073 625.147C100.457 627.512 120.778 627.121 132.288 618.718C134.708 616.951 137.518 614.015 137.645 610.821C138.105 599.26 104.91 597.456 103.724 596.287L104.11 594.868Z"/><path fill="#FEFBEF" transform="scale(0.390625 0.390625)" d="M538.169 532.353C539.509 536.018 540.782 546.177 541.443 550.308C543.014 560.133 544.282 570.234 546.453 579.949L541.026 574.75C538.723 572.521 536.421 570.184 534.14 567.921C533.689 564.367 532.981 561.437 532.18 557.951C539.817 555.429 538.883 546.871 537.373 540.254C536.873 538.061 536.415 538.246 534.532 537.361C533.881 535.527 535.061 536.447 537.173 534.632C537.173 534.632 538.089 532.535 538.169 532.353Z"/><path fill="#EF9A95" transform="scale(0.390625 0.390625)" d="M400.008 875.514C401.549 874.075 402.114 873.404 403.942 872.43C409.632 873.622 430.446 879.291 431.755 884.942C431.129 886.663 431.156 886.222 429.425 887.547C427.435 891.335 425.809 890.914 423.192 893.733L422.526 893.418L423.638 891.468C423.413 889.822 423.483 890.346 421.833 888.927C414.241 882.102 409.161 880.051 400.008 875.514Z"/><path fill="#E78281" transform="scale(0.390625 0.390625)" d="M421.833 888.927C422.265 888.341 422.623 887.596 422.982 886.94C425.049 887.889 427.039 888.802 429.096 887.452L429.425 887.547C427.435 891.335 425.809 890.914 423.192 893.733L422.526 893.418L423.638 891.468C423.413 889.822 423.483 890.346 421.833 888.927Z"/><path fill="#411130" transform="scale(0.390625 0.390625)" d="M422.982 886.94C424.202 884.615 423.662 884.809 425.588 883.648C428.147 883.65 428.622 885.107 429.096 887.452C427.039 888.802 425.049 887.889 422.982 886.94Z"/><path fill="#FEFBEF" transform="scale(0.390625 0.390625)" d="M768.531 344.392C781.768 344.694 788.253 357.386 789.988 368.868C789.426 370.2 788.642 371.616 787.967 372.915C786.768 374.374 786.784 374.94 785.397 375.143C783.942 371.102 782.812 366.039 780.995 362.27C777.859 355.766 773.216 349.813 768.531 344.392Z"/><path fill="#E78281" transform="scale(0.390625 0.390625)" d="M326.317 778.159C329.353 779.558 334.36 784.146 337.809 786.016C339.92 787.16 347.199 790.694 347.913 792.217C347.414 793.986 346.558 794.708 345.349 796.091C340.317 793.739 333.766 793.373 328.805 789.993C323.054 786.074 322.513 783.951 326.317 778.159Z"/><path fill="#FEFBEF" transform="scale(0.390625 0.390625)" d="M524.773 493.589C526.292 493.428 529.224 492.836 529.882 494.352C531.581 498.268 536.586 517.13 535.907 520.356L535.133 519.689C530.498 513.653 517.846 500.711 524.773 493.589Z"/><path fill="#FEFBEF" transform="scale(0.390625 0.390625)" d="M521.181 508.489C523.127 510.119 534.83 525.508 534.566 529.012C534.413 531.035 534.059 531.309 532.838 532.698C528.06 528.667 520.066 518.492 519.091 512.016C518.903 510.767 520.375 509.364 521.181 508.489Z"/><path fill="#EF9A95" transform="scale(0.390625 0.390625)" d="M298.756 802.897C302.696 804.175 312.827 809.336 314.15 813.794C314.405 814.654 313.512 815.459 312.964 816.242L313.229 817.105C314.815 816.892 315.331 816.76 316.96 816.959L317.381 817.584L316.806 818.69C315.258 819.406 313.611 820.312 311.99 820.622C311.658 819.983 309.822 816.455 309.449 816.09C306.142 812.851 299.418 809.435 296.666 805.794C296.978 804.291 297.49 804.218 298.756 802.897Z"/><path fill="#FEFBEF" transform="scale(0.390625 0.390625)" d="M521.002 526.206C524.422 528.532 534.695 542.773 534.114 547.549C527.405 544.443 517.551 534.264 521.002 526.206Z"/><path fill="#CDB6B1" transform="scale(0.390625 0.390625)" d="M579.372 504.247C601.889 503.19 621.566 510.21 641.661 519.643C645.485 521.439 657.198 526.451 659.048 529.632L658.311 529.605C654.348 526.863 649.823 524.996 645.684 522.848C625.327 512.284 602.638 506.04 579.79 504.363C579.651 504.324 579.512 504.286 579.372 504.247Z"/><path fill="#FEFBEF" transform="scale(0.390625 0.390625)" d="M554.459 504.857C568.677 498.401 586.225 498.188 601.401 500.605L601.146 501.7C585.207 499.777 570.5 503.806 554.459 504.857Z"/><path fill="#FEFBEF" transform="scale(0.390625 0.390625)" d="M530.416 447.356C538.614 453.778 550.315 493.351 549.335 503.528C547.382 502.425 547.505 496.021 546.774 492.648C544.658 482.895 541.671 473.352 537.849 464.134C535.47 458.493 532.605 453.053 530.416 447.356Z"/><path fill="#EF9A95" transform="scale(0.390625 0.390625)" d="M319.753 787.316C323.058 791.185 331.614 796.47 332.134 800.126L331.35 800.771L329.887 800.551C324.83 798.003 318.884 795.308 314.696 791.589C316.257 790.13 318.092 788.684 319.753 787.316Z"/><path fill="#FEFBEF" transform="scale(0.390625 0.390625)" d="M518.753 540.144C518.177 539.859 533.28 552.861 533.029 552.547L532.896 553.708C525.391 555.055 517.65 547.51 518.753 540.144Z"/><path fill="#E78281" transform="scale(0.390625 0.390625)" d="M333.63 803.655L335.28 804.129L335.595 804.832C334.607 806.582 332.057 808.109 330.329 809.346L329.288 808.978C328.538 807.72 327.876 806.952 327.895 805.512L328.792 804.719C330.642 804.412 331.813 804.135 333.63 803.655Z"/><path fill="#B5A4AC" transform="scale(0.390625 0.390625)" d="M611.439 625.585C607.211 623.421 601.219 621.278 596.766 619.711C593.55 618.578 591.137 618.609 588.042 616.817L588.548 616.607C594.331 617.122 607.13 622.474 612.269 625.07L611.439 625.585Z"/><path fill="#B5A4AC" transform="scale(0.390625 0.390625)" d="M534.975 468.872C537.56 471.685 541.606 488.22 542.701 492.686C540.378 489.858 536.21 473.424 534.975 468.872Z"/><path fill="#FEFBEF" transform="scale(0.390625 0.390625)" d="M525.143 556.302C529.84 557.67 529.406 559.864 530.21 564.178C527.388 562.202 525.517 559.763 525.143 556.302Z"/><path fill="#EAD8C3" transform="scale(0.390625 0.390625)" d="M397.274 877.896L398.195 878.151L398.429 878.944C397.5 880.655 395.371 882.39 393.883 883.771L392.118 882.84C392.626 881.011 395.567 879.212 397.274 877.896Z"/><path fill="#704F6A" transform="scale(0.390625 0.390625)" d="M612.269 625.07C614.501 626.103 616.644 627.045 618.779 628.273L618.642 629.273L619.141 629.395L619.451 628.743L619.414 629.438L619.835 629.132L619.522 629.426C616.966 628.711 613.743 626.979 611.439 625.585L612.269 625.07Z"/><path fill="#CDB6B1" transform="scale(0.390625 0.390625)" d="M601.401 500.605C605.126 501.095 607.615 501.746 611.06 503.371L601.146 501.7L601.401 500.605Z"/><path fill="#704F6A" transform="scale(0.390625 0.390625)" d="M659.535 571.34C661.549 573.319 660.626 576.945 659.741 579.282C658.8 576.766 659.131 573.931 659.535 571.34Z"/><path fill="#551332" transform="scale(0.390625 0.390625)" d="M618.472 134.165L618.44 83.1445C618.448 78.2851 617.489 60.9772 619.534 58.0579C621.262 58.0033 622.353 61.1417 622.347 62.4778C622.315 70.126 622.273 77.7775 622.267 85.4287L622.373 135.474C640.441 146.87 660.725 158.014 679.3 168.802L788.821 232.062C807.149 242.605 829.987 254.94 847.534 266.291L848.951 267.075C875.411 281.898 901.73 296.973 927.904 312.298C941.298 319.962 954.882 327.656 968.394 335.13C969.638 335.819 970.654 336.634 971.131 337.995C970.638 339.337 971.06 338.822 969.772 339.548C966.207 339.123 932.178 318.978 926.461 315.74L708.319 189.983L656.523 159.998C644.715 153.035 630.358 144.004 618.257 138.149C615.047 139.826 611.736 141.876 608.602 143.739C614.395 146.587 624.432 152.817 630.562 156.26L691.397 190.94L897.892 309.792L945.696 337.114C952.508 340.992 959.395 344.783 966.165 348.733C968.459 350.071 971.72 351.962 971.672 354.844C971.051 355.346 970.871 355.68 970.325 355.399C959.713 349.95 943.706 340.293 933.753 334.573L790.237 251.799L655.028 174.526C640.495 166.079 625.767 157.945 611.323 149.341C606.21 146.295 608.951 146.718 607.03 144.309C605.882 145.311 606.531 145.088 605.179 145.344C601.475 143.42 596.498 141.174 593.143 138.684C592.07 137.888 592.289 136.467 592.207 135.049L591.698 134.814C587.191 136.309 574.482 144.54 570.08 147.268C580.157 154.063 598.664 163.733 609.924 170.158L689.715 215.567L893.683 332.016L943.726 360.257C947.758 362.514 969.535 374.506 971.802 376.781C971.862 378.795 972.11 377.919 971.256 379.558L970.348 379.794C967.645 378.768 960.125 374.176 957.256 372.547L927.807 355.714L839.944 305.779L643.899 193.811C619.118 179.584 593.096 165.39 568.697 150.754C568.485 152.449 568.249 154.141 567.99 155.829C585.415 166.655 605.772 177.563 623.723 187.692L700.223 231.253L892.123 341.188C900.075 345.708 974.456 386.446 977.908 390.369C978.516 391.06 978.325 390.699 978.239 391.791L977.412 392.488C974.478 392.721 972.489 390.833 970.112 389.486C957.535 382.363 944.847 375.284 932.268 368.172L822.445 305.365L564.629 158.277C564.543 154.138 564.394 150 564.182 145.865C569.145 142.868 587.884 131.642 592.374 130.603L592.222 78.2215C592.213 73.1883 592.098 66.512 592.316 61.3513C592.362 60.2554 593.382 59.8194 594.18 59.4143L595.09 59.891C596.673 63.1804 595.979 88.9506 595.986 94.6983L596.006 119.828C596.004 124.017 596.184 132.004 595.474 135.886L605.935 142.077L605.795 81.3619C605.778 75.7394 605.713 70.137 605.56 64.5164C605.5 62.3292 606.229 59.9843 608.178 58.8234L608.748 59.1622C610.377 62.6555 609.592 80.4412 609.594 85.3747L609.508 139.188L618.472 134.165Z"/><path fill="#411130" transform="scale(0.390625 0.390625)" d="M398.829 444.577C405.326 444.127 407.973 446.757 411.766 451.94C420.889 453.583 422.715 456.404 422.436 465.35C422.439 465.243 426.211 469.54 426.652 471.483C428.043 477.607 422.241 478.021 422.954 484.005C423.566 488.327 421.016 491.656 416.569 492.036L413.087 492.307C410.878 494.64 412.608 498.652 408.345 499.504C405.237 500.125 402.374 499.092 399.739 497.527L398.963 498.02C396.891 499.186 394.821 499.98 392.3 500.094C389.481 500.221 387.044 495.406 385.077 494.167C381.754 492.072 378.11 492.359 375.054 489.126C372.825 486.767 373.813 482.641 373.185 481.612C371.177 478.636 368.865 477.18 369.336 473.298C369.734 470.007 370.995 470.007 373.259 467.861C374.713 466.482 373.366 463.11 373.653 461.05C374.356 455.999 377.549 457.427 380.627 455.056C381.572 454.09 382.382 450.475 384.894 449.825C388.86 448.798 390.603 450.614 393.739 447.327C395.391 445.595 396.517 445.31 398.829 444.577Z"/><path fill="#FEFBEF" transform="scale(0.390625 0.390625)" d="M398.798 448.069C407.705 448.285 404.525 450.579 409.475 454.818C411.343 455.694 414.268 455.602 416.133 456.371C421.703 458.67 418.958 463.152 417.633 467.021C419.646 469.855 423.45 468.319 423.244 472.941C423.103 476.087 420.844 477.539 418.716 479.489C418.508 481.074 419.464 482.397 420.221 484.092C420.125 490.822 413.317 487.499 410.853 487.752C409.394 489.426 410.841 491.764 409.172 494.839C406.045 497.59 403.746 495.851 401.099 493.992L400.316 493.436C398.414 493.5 398.874 493.651 397.022 495.297C393.78 496.681 390.082 497.184 388.997 492.919C387.691 487.788 385.12 489.735 381.138 488.615C380.575 488.457 377.668 486.122 377.007 485.595L378.433 479.44C375.525 478.006 372.838 476.996 373.361 473.277C375.538 470.249 377.488 470.37 381.192 469.619C379.222 467.604 376.051 464.455 377.219 461.504C379.078 460.086 381.139 460.371 383.804 459.594C386.554 456.064 383.07 449.859 393.181 453.452C394.89 452.751 395.536 449.82 398.798 448.069Z"/><path fill="#411130" transform="scale(0.390625 0.390625)" d="M450.606 425.477C457.441 425.266 456.176 427.064 460.868 430.625C462.453 431.829 465.648 430.294 468.086 431.728C472.679 432.992 471.801 441.094 472.501 441.728C479.193 447.799 476.457 446.337 476.016 452.767C475.421 461.435 479.823 459.144 471.665 466.363C471.83 469.145 471.476 471.856 469.574 474.246C467.253 477.161 460.64 475.457 459.482 476.113C454.168 479.121 456.536 479.29 450.019 479.895C447.71 478.783 445.729 476.641 444.043 476.225C435.91 480.118 432.942 473.667 430.443 467.047C422.534 463.504 424.968 459.015 426.785 453.257C427.105 452.241 423.805 448.615 424.541 446.143C425.241 443.792 426.4 440.239 428.655 438.787C428.828 438.648 432.487 437.268 432.476 437.292C436.265 429.646 436.529 426.299 446.005 428.375L450.606 425.477Z"/><path fill="#FEFBEF" transform="scale(0.390625 0.390625)" d="M452.19 428.931C456.709 429.264 457.792 432.446 459.561 436.07C462.387 434.751 465.118 433.835 467.768 435.933C468.593 437.777 468.235 440.471 468.322 442.764C469.886 445.954 476.897 446.016 471.164 452.665L470.696 453.199L470.792 454.108C473.143 456.433 473.972 456.547 473.422 459.841C472.155 461.717 469.997 462.34 467.831 463.414C467.019 466.232 468.981 468.38 468.344 469.963C466.497 474.555 462.152 472.597 458.777 471.421C456.881 472.041 455.764 473.78 454.564 475.373C452.682 476.281 451.521 476.044 449.355 476.009C448.405 475.329 446.682 473.525 446.014 472.608C444.112 469.882 442.123 474.599 439.165 473.812C434.057 472.452 435.109 468.866 435.873 465.199C433.91 462.625 428.806 466.55 427.949 458.647C428.321 456.966 428.971 456.788 430.144 455.646C433.324 452.551 427.774 450.835 427.844 446.455C427.923 441.489 433.389 441.551 436.161 439.884C437.849 438.869 436.906 434.036 439.377 431.565C441.985 430.827 443.688 431.745 446.003 432.973C448.433 431.079 449.339 430.304 452.19 428.931Z"/><path fill="#551332" transform="scale(0.390625 0.390625)" d="M888.247 101.011C889.028 100.899 891.004 100.823 891.75 101.033C909.097 105.921 904.416 133.668 904.117 146.974C903.945 154.656 896.437 155.23 891.728 158.551L891.08 159.013C885.232 160.194 881.031 155.547 878.171 151.133C873.112 143.326 874.601 135.322 874.303 126.774C873.775 111.635 874.414 107.968 888.247 101.011Z"/><path fill="#FEFBEF" transform="scale(0.390625 0.390625)" d="M880.002 110.461C891.487 109.306 894.125 122.182 893.625 131.176C893.248 137.953 894.946 149.386 891.147 154.896C879.698 157.952 876.901 137.734 877.836 129.986C878.632 123.385 876.253 116.762 880.002 110.461Z"/><path fill="#FEFBEF" transform="scale(0.390625 0.390625)" d="M886.99 103.922C902.445 103.855 901.323 125.712 901.143 136.29C901.045 142.054 901.942 147.712 897.811 152.218L896.799 152.637C896.612 152.315 896.727 126.308 896.409 122.168C895.579 111.387 886.231 109.458 885.511 105.853L886.99 103.922Z"/><path fill="#551332" transform="scale(0.390625 0.390625)" d="M847.534 266.291L847.285 119.236L847.438 80.3362C847.439 75.6652 846.546 62.8748 848.282 59.1064L849.237 58.4889C852.143 59.827 851.034 93.2771 851.057 98.2208L851.195 222.286C851.165 233.721 851.837 255.039 851.033 265.556C849.997 266.898 850.632 266.364 848.951 267.075L847.534 266.291Z"/><path fill="#551332" transform="scale(0.390625 0.390625)" d="M861.254 57.6952C862.588 57.8882 862.517 57.8232 863.567 58.6522C864.865 61.9765 864.162 105.767 864.153 111.707L864.303 201.009L864.327 248.382C864.33 254.121 864.681 267.298 864.038 272.582C861.911 272.579 862.769 272.916 861.22 271.974C859.774 268.543 860.571 240.911 860.573 234.797L860.605 150.393L860.629 91.8527C860.618 86.1954 859.973 60.9055 861.254 57.6952Z"/><path fill="#551332" transform="scale(0.390625 0.390625)" d="M740.489 57.682C741.785 58.1205 741.709 58.1455 742.752 59.0644C743.183 61.7665 742.941 72.2061 742.925 75.5903L742.797 109.634L742.836 166.848C742.892 177.593 742.995 188.43 742.941 199.179C742.931 201.133 742.742 201.717 741.712 203.307C740.481 202.958 740.439 202.888 739.323 202.228C738.73 199.89 739.064 191.864 739.062 189.075L739.002 159.51L738.959 95.072C738.961 84.0105 738.881 72.7648 739.09 61.6965C739.124 59.9041 739.553 59.1471 740.489 57.682Z"/><path fill="#551332" transform="scale(0.390625 0.390625)" d="M726.664 58.7393C728.647 58.9413 728.289 58.623 729.709 59.6381C730.676 63.4464 730.234 190.45 729.115 195.403C727.144 194.988 727.463 195.353 726.198 194.165C725.553 180.779 725.335 62.4652 726.664 58.7393Z"/></svg>