<?xml version="1.0" encoding="utf-8" ?><svg xmlns="http://www.w3.org/2000/svg" xmlns:xlink="http://www.w3.org/1999/xlink" width="400" height="400" viewBox="0 0 400 400"><path fill="#231B27" transform="scale(0.390625 0.390625)" d="M0 0L691.839 0L1020.1 0L1024 0L1024 617.918L1024 1021.71L1024 1024L421.418 1024L0 1024L0 0Z"/><path fill="#FEF5EB" transform="scale(0.390625 0.390625)" d="M657.219 398.77C666.043 405.829 678.601 414.958 687.917 421.342C687.88 430.169 688.006 439.803 687.69 448.565C687.243 455.422 683.691 463.607 685.089 470.441C688.271 485.996 701.092 504.097 718.787 501.617C722.309 503.101 726.466 504.381 728.814 507.506C733.404 513.618 728.788 519.228 723.752 522.913C716.769 517.714 708.386 512.313 701.002 507.506C699.859 506.763 699.801 507.019 698.855 507.361L698.678 508.548C700.755 511.622 716.286 521.32 720.762 524.517L716.982 527.068C712.15 522.662 698.194 514.128 691.647 509.395C682.901 514.486 670.581 523.539 663.801 530.87C664.252 525.488 665.277 520.16 666.548 514.949C668.394 507.383 668.929 500.944 662.007 495.83C652.084 486.964 618.541 490.762 619.56 507.388C619.994 514.453 625.54 532.444 627.263 540.514C623.035 544.92 621.64 546.355 620.219 552.403C610.69 558.611 599.404 565.808 590.877 573.527C585.877 578.054 586.41 583.059 586.516 589.327C587.913 591.412 588.962 592.34 590.718 594.094C587.821 593.926 584.918 593.859 582.016 593.894C565.213 594.143 545.425 601.201 532.672 612.338C529.25 615.327 525.208 621 521.586 623.322C509.866 630.836 495.344 638.932 485.043 648.178C479.126 653.488 480.066 662.232 480.308 669.551C472.533 663.955 466.035 659.692 457.001 665.491C449.418 670.359 441.857 675.391 434.475 680.574C422.518 688.969 409.124 696.206 398.424 706.171C394.453 709.88 395.412 717.611 395.841 722.508C390.974 719.602 384.09 715.144 378.175 716.848C371.497 718.773 319.366 752.976 317.114 757.522C315.204 761.377 315.019 766.995 316.293 771.084C313.926 771.519 311.38 772.135 308.975 772.19C304.729 772.287 299.094 770.769 295.064 771.737C289.439 773.088 242.567 805.977 234.662 811.617C229.093 810.089 221.558 809.717 221.27 816.906C220.922 825.57 221.525 835.904 221.532 844.64C227.14 849.24 235.622 854.213 242.016 858.99C241.979 867.939 241.992 876.889 242.055 885.838C244.703 888.218 248.827 890.879 251.897 892.687C254.786 890.639 257.749 888.697 260.779 886.863C260.904 881.861 260.745 876.496 260.688 871.468C274.158 880.506 289.34 889.942 302.341 899.375C302.297 908.872 302.349 918.37 302.496 927.867C305.673 929.96 308.897 931.979 312.167 933.922C316.038 932.073 317.55 930.634 320.566 927.779L320.544 911.32C336.368 921.561 352.014 932.076 367.474 942.858L367.556 967.352C371.437 970.712 374.393 972.677 378.775 975.259C381.911 973.659 391.887 965.78 396.577 962.706C397.834 963.549 399.667 964.477 401.044 965.223C406.207 962.604 418.148 953.471 424.112 949.731C455.132 929.988 485.809 909.713 516.132 888.916C535.67 875.55 556.357 862.424 576.148 849.213L688.199 774.343L890.57 641.275C905.14 631.636 919.766 622.081 934.446 612.609C940.849 608.427 953.619 600.555 958.846 595.621C961.317 581.351 963.095 563.595 965.024 548.875C983.812 561.006 1003.57 573.555 1021.95 586.18C1023 593.974 1022.06 603.419 1023.51 611.4C1023.87 613.372 1023.56 615.906 1024 617.918L1024 1021.71L1024 1024L421.418 1024C423.317 1022.71 432.697 1023.23 435.582 1023.25C432.687 1022.16 422.831 1022.92 421.372 1021.79C422.828 1020.85 423.081 1020.53 424.074 1019.2C421.037 1020.93 419.615 1021.12 416.101 1021.17C402.786 1021.36 389.451 1021.28 376.137 1021.27L292.437 1021.08C287.428 1016.2 273.757 1008.16 267.151 1004.06C254.643 996.423 242.234 988.623 229.927 980.664L130.78 917.185C88.5284 889.771 46.0787 862.665 3.43394 835.867L3.1507 786.243C22.6257 798.619 47.6309 815.124 67.437 826.083L79.0772 818.806C78.9002 815.798 78.5858 812.598 78.3435 809.576C84.2726 814.079 87.2781 817.195 92.993 810.638L92.9736 798.163C96.7365 800.435 103.576 805.999 107.454 802.501C110.309 799.926 109.479 789.66 109.438 786.084C127.709 797.96 126.006 789.443 125.71 772.91C129.572 774.843 134.977 779.437 139.007 779.611C143.829 779.82 142.564 765.434 142.535 762.355C154.962 769.918 158.951 771.293 158.506 754.982C167.646 748.174 181.567 739.66 191.41 733.122L259.27 687.993L450.07 560.85L505.521 523.845C520.288 514.068 535.493 504.328 549.949 494.147C549.918 492.18 549.734 489.102 550.467 487.429C552.942 486.803 556.151 488.449 559.01 488.339C567.439 488.015 567.368 480.71 567.137 474.144C571.926 476.146 578.058 477.835 582.196 473.436C585.758 469.649 585.083 463.933 584.999 459.104C586.796 457.639 593.92 452.475 595.811 453.427C608.844 459.992 612.712 455.947 612.522 441.438C619.675 445.205 626.116 445.122 630.883 438.049C630.99 434.643 630.955 430.999 630.983 427.572C646.463 432.937 648.055 424.745 647.817 412.064C655.37 408.873 656.633 406.703 657.219 398.77Z"/><defs><linearGradient id="gradient_0" gradientUnits="userSpaceOnUse" x1="750.22424" y1="1024.9205" x2="699.95007" y2="675.88757"><stop offset="0" stop-color="#13121E"/><stop offset="1" stop-color="#332232"/></linearGradient></defs><path fill="url(#gradient_0)" transform="scale(0.390625 0.390625)" d="M1021.95 586.18C1023 593.974 1022.06 603.419 1023.51 611.4C1023.87 613.372 1023.56 615.906 1024 617.918L1024 1021.71L1024 1024L421.418 1024C423.317 1022.71 432.697 1023.23 435.582 1023.25C432.687 1022.16 422.831 1022.92 421.372 1021.79C422.828 1020.85 423.081 1020.53 424.074 1019.2C426.959 1016.13 449.469 1002.69 454.447 999.425L575.708 920.637C667.13 859.967 758.955 799.908 851.18 740.465C887.631 716.107 924.285 692.054 961.139 668.31C981.393 655.06 1001.15 641.683 1021.77 628.955C1021.42 616.995 1020.78 597.824 1021.95 586.18Z"/><path fill="#FEF5EB" transform="scale(0.390625 0.390625)" d="M1021.93 860.665C1021.31 865.41 1021.54 874.347 1021.54 879.434L1021.6 912.201L1021.47 1021.07L846.321 1020.93L797.397 1020.87C793.091 1020.88 777.103 1021.26 773.517 1020.8C783.373 1013.25 801.216 1002.32 812.028 995.299L885.125 948.125L961.394 899.214C980.086 887.073 1002.95 871.652 1021.93 860.665Z"/><path fill="#3F3E44" transform="scale(0.390625 0.390625)" d="M1021.93 860.665C1022.39 864.6 1022.2 871.339 1022.2 875.52L1022.21 900.751L1022.21 984.363L1022.14 1007.06C1022.12 1010.91 1022.05 1015.15 1022.36 1018.99C1022.48 1020.44 1022.96 1020.55 1024 1021.71L1024 1024L421.418 1024C423.317 1022.71 432.697 1023.23 435.582 1023.25L664.811 1022.95L735.523 1022.96C746.951 1022.96 758.785 1023.03 770.245 1022.75C771.988 1022.71 772.222 1022.03 773.517 1020.8C777.103 1021.26 793.091 1020.88 797.397 1020.87L846.321 1020.93L1021.47 1021.07L1021.6 912.201L1021.54 879.434C1021.54 874.347 1021.31 865.41 1021.93 860.665Z"/><path fill="#FC8982" transform="scale(0.390625 0.390625)" d="M1021.08 645.984C1022.21 647.218 1021.79 669.678 1021.79 672.644L1021.8 718.916L1021.95 856.957C1011.68 862.497 995.679 873.556 985.414 880.178L910.735 928.425C875.368 950.798 840.183 973.459 805.184 996.405C797.649 1001.25 790.084 1006.06 782.489 1010.81C778.221 1013.51 771.209 1017.63 767.793 1020.99L559.948 1020.93L488.477 1020.85C475.716 1020.83 461.463 1020.42 448.875 1020.9L447.917 1020.73C449.593 1018.53 474.837 1003.08 479.211 1000.24L593.355 926.214C735.45 832.072 878.029 738.661 1021.08 645.984Z"/><path fill="#ACA3A2" transform="scale(0.390625 0.390625)" d="M1020.92 632.909L1021.77 633.139C1022.28 635.155 1022.07 639.253 1022.05 641.5C960.033 681.32 898.366 721.685 837.06 762.591L615.381 908.242L497.359 985.12L466.053 1005.16C458.843 1009.86 451.46 1014.91 443.995 1019.15C439.443 1021.74 432.804 1021.13 427.449 1021.13L426.67 1020.8C429.225 1018.58 442.846 1010.31 446.347 1008.07L486.778 981.839L628.04 889.685L852.572 742.979C889.317 718.416 926.276 694.174 963.444 670.257C982.382 657.908 1001.77 644.752 1020.92 632.909Z"/><path fill="#FEF5EB" transform="scale(0.390625 0.390625)" d="M691.839 0L1020.1 0L1021.65 2.47857C1021.08 58.9625 1021.82 116.801 1021.83 173.438L1021.65 582.095C1003.7 571.436 982.992 557.1 965.352 545.47C967.323 528.708 970.682 511.067 970.256 494.196C969.949 482.039 957.762 477.912 950.359 471.638C936.072 459.529 911.977 477.225 900.102 488.162C898.311 489.836 896.508 491.498 894.694 493.148C876.116 479.477 854.698 465.974 835.434 453.149C827.367 447.709 819.244 442.353 811.065 437.082C807.838 434.99 802.068 431.03 798.831 429.405C803.128 406.491 791.725 386.405 771.723 374.994C746.272 360.474 707.939 370.867 691.998 395.213L692.909 176.477L693.081 105.382C693.09 99.5135 693.611 77.8601 693.082 73.1129C692.52 69.5628 692.484 3.87689 693.023 2.09128L694.445 1.89534C694.288 0.686619 694.121 2.4733 691.839 0Z"/><path fill="#3F3E44" transform="scale(0.390625 0.390625)" d="M691.839 0L1020.1 0L1021.65 2.47857L693.436 2.50915L693.359 48.0056C693.358 54.6508 693.681 66.7404 693.082 73.1129C692.52 69.5628 692.484 3.87689 693.023 2.09128L694.445 1.89534C694.288 0.686619 694.121 2.4733 691.839 0Z"/><path fill="#FC8982" transform="scale(0.390625 0.390625)" d="M534.777 116.98C539.307 119.083 542.542 120.192 547.301 121.673C547.98 135.732 547.501 153.566 547.502 167.852L547.508 252.996L547.072 492.04C535.749 500.945 519.531 511.033 507.339 519.123L443.125 561.927L259.991 684.087L186.678 732.789C177.317 739.044 167.525 745.01 158.372 751.484C158.18 744.017 158.331 735.956 158.333 728.444L158.026 389.894C163.361 382.893 164.822 378.881 167.712 370.673C191.108 377.285 204.332 362.394 207.174 340.891C223.358 348.858 236.196 340.541 243.892 325.729C245.783 322.09 246.784 318.242 247.942 314.308C270.702 325.646 283.161 306.218 287.567 286.735C303.027 297.699 316.802 288.071 324.307 273.504C326.707 268.845 327.924 263.862 329.309 258.84C353.42 272.999 366.112 249.866 370.244 229.787C388.877 240.955 402.672 228.911 409.546 211.313C410.671 208.433 411.388 205.093 412.149 202.083C436.368 216.582 449.045 192.947 453.768 172.909C478.145 187.214 491.579 164.664 495.481 143.681C517.322 157.68 530.623 135.724 534.777 116.98Z"/><path fill="#231B27" transform="scale(0.390625 0.390625)" d="M527.045 163.365L528.496 163.993C530.314 166.115 529.552 181.218 529.547 184.738L529.521 226.002L529.561 417.337L529.545 455.731C529.568 460.281 529.729 466.209 529.57 470.824C529.381 471.782 527.464 473.11 526.772 473.55C509.522 484.504 492.791 496.271 475.693 507.443C400.265 557.276 325.098 607.502 250.195 658.119C231.117 670.838 212.256 683.856 193.179 696.575C187.593 700.299 191.267 704.772 180.989 701.757C179.019 700.719 177.853 700.328 176.482 698.651C175.214 694.758 175.979 654.552 175.985 647.868L176.128 510.474L176.293 435.138C176.328 427.353 175.959 406.178 176.942 399.387C181.202 395.471 201.99 381.956 208.06 377.877L279.836 329.937C362.649 275.024 445.055 219.498 527.045 163.365Z"/><path fill="#FEF5EB" transform="scale(0.390625 0.390625)" d="M516.476 187.025C517.208 188.819 516.337 394.64 516.63 413.965C516.678 417.081 516.966 458.751 516.742 464.942C503.981 473.926 490.717 482.356 477.722 491.039C452.289 508.228 426.743 525.248 401.085 542.098L191.229 682.736L190.418 682.837C189.526 680.527 190.043 622.957 190.039 616.821L189.771 407.73C197.03 401.952 208.982 394.353 217.091 388.903C235.245 376.928 253.317 364.831 271.308 352.612L438.2 240.673C464.589 223.228 490.685 205.343 516.476 187.025Z"/><path fill="#231B27" transform="scale(0.390625 0.390625)" d="M308.413 383.474C309.92 383.478 311.751 383.728 313.252 383.974C324.294 385.781 327.097 379.133 333.234 391.274C339.68 386.925 345.98 382.666 351.435 390.36C359.85 388.954 362.535 390.531 364.824 398.053C365.638 400.731 371.071 400.957 373.113 401.881C376.377 403.358 378.655 409.823 379.773 413C376.012 421.546 381.105 418.322 378.981 428.068C384.506 431.95 390.629 436.997 396.002 441.239L395.886 449.508C393.703 450.655 391.778 451.83 389.673 453.101C388.534 461.669 386.414 469.853 384.887 478.247C380.875 500.314 375.005 522.794 371.264 544.819C356.362 554.017 340.612 566.679 325.754 576.08C320.614 579.166 316.406 582.548 311.004 585.165C307.355 583.018 300.114 577.22 296.46 574.401C285.545 565.856 274.689 557.237 263.89 548.545C262.073 538.098 258.438 525.733 255.806 515.246C251.421 497.526 247.409 479.715 243.774 461.827C230.778 453.585 245.768 447.166 252.942 442.95L253.005 441.74C253.39 432.779 257.57 429.331 264.872 425.123C260.283 419.291 263.195 413.392 267.314 407.919C269.965 404.397 276.25 406.157 280.461 406.191C281.356 405.297 281.699 403.362 282.095 401.993C288.417 396.694 287.913 399.115 295.382 397.146C296.039 391.314 300.989 393.835 302.117 392.555C305.247 389.002 303.034 386.818 308.413 383.474Z"/><path fill="#FC8982" transform="scale(0.390625 0.390625)" d="M257.639 472.656C261.233 475.888 268.035 479.024 268.605 483.76C269.733 482.499 269.095 483.057 271.061 482.437C274.466 485.014 277.808 487.465 280.984 490.329L292.268 567.911C289.438 565.413 287.061 563.382 284.073 561.089C282.444 560.206 282.54 560.286 281.376 558.843C278.516 556.944 277.487 556.256 274.953 553.881C271.671 537.001 267.813 520.242 264.403 503.388C262.323 493.108 260.223 482.823 257.639 472.656Z"/><path fill="#FEF5EB" transform="scale(0.390625 0.390625)" d="M257.639 472.656C261.233 475.888 268.035 479.024 268.605 483.76C270.971 507.137 277.894 535.26 281.376 558.843C278.516 556.944 277.487 556.256 274.953 553.881C271.671 537.001 267.813 520.242 264.403 503.388C262.323 493.108 260.223 482.823 257.639 472.656Z"/><path fill="#231B27" transform="scale(0.390625 0.390625)" d="M268.605 483.76C269.733 482.499 269.095 483.057 271.061 482.437C271.464 489.108 273.288 498.426 274.466 505.144L280.542 539.663C281.694 546.205 283.374 554.629 284.073 561.089C282.444 560.206 282.54 560.286 281.376 558.843C277.894 535.26 270.971 507.137 268.605 483.76Z"/><path fill="#FEF5EB" transform="scale(0.390625 0.390625)" d="M335.947 489.528C337.028 490.795 334.031 513.267 333.729 516.557C332.24 534.403 331.143 552.28 330.44 570.174C327.987 571.366 321.954 575.328 320.339 575.667L319.747 574.725C318.221 551.186 317.591 526.172 316.603 502.542C322.467 498.919 330.04 493.493 335.947 489.528Z"/><path fill="#FEF5EB" transform="scale(0.390625 0.390625)" d="M370.786 465.945C371.745 470.996 357.108 540.435 355.744 552.251C352.279 554.441 348.741 556.873 345.313 559.151C344.992 556.223 347.335 537.335 347.795 533.615C350.116 514.851 351.866 495.566 354.735 476.917C359.937 473.601 365.652 469.478 370.786 465.945Z"/><path fill="#FEF5EB" transform="scale(0.390625 0.390625)" d="M284.295 492.926C289.472 496.855 294.729 500.677 300.062 504.39C300.833 512.477 301.027 521.785 301.674 530.137C303.045 546.114 304.509 562.083 306.067 578.043C302.623 575.255 299.095 572.796 295.488 570.233C294.799 566.833 294.217 562.471 293.848 558.971C291.562 537.296 286.045 514.513 284.295 492.926Z"/><path fill="#FC8982" transform="scale(0.390625 0.390625)" d="M385.957 455.51L386.297 455.927C385.726 462.112 382.18 477.512 380.814 484.162L368.609 543.005L359.299 549.542L359.133 549.439C358.759 548.57 372.957 471.975 374.44 463.567C378.302 461.101 382.215 458.191 385.957 455.51Z"/><path fill="#FC8982" transform="scale(0.390625 0.390625)" d="M351.006 478.978C351.499 479.438 351.531 479.926 351.452 480.544C348.051 507.345 344.371 534.375 342.173 561.292C339.406 562.989 336.814 565.133 334.25 567.138L333.838 566.774C333.211 564.593 333.911 556.025 334.07 553.211C334.768 540.255 335.675 527.31 336.791 514.382C337.403 507.819 339.304 493.205 339.014 487.169C342.741 484.424 347.136 481.594 351.006 478.978Z"/><path fill="#FC8982" transform="scale(0.390625 0.390625)" d="M312.821 504.614L313.465 504.547C314.064 505.557 316.694 571.356 316.986 577.957C314.179 580.142 312.79 581.99 309.275 580.794C308.57 578.504 308.326 575.761 308.132 573.365C306.319 550.927 303.64 528.342 302.789 505.847C306.953 505.94 308.912 505.728 312.821 504.614Z"/><path fill="#FC8982" transform="scale(0.390625 0.390625)" d="M350.553 475.756C346.057 479.429 340.442 482.594 335.584 485.903C328.879 490.37 322.288 495.629 315.39 499.724C308.948 503.547 304.787 504.234 298.378 499.62C282.225 487.992 266.329 475.798 250.545 463.65C248.735 462.257 241.948 457.691 242.078 455.26C242.957 451.4 250.945 446.91 254.348 445.438C250.957 449.794 249.682 451.323 245.105 454.242L245.099 454.899C250.958 460.701 299.448 498.223 304.949 498.652C312.291 499.224 325.977 487.555 332.574 483.478C331.647 481.834 331.477 481.07 331.787 479.418C333.062 477.79 339.292 474.848 341.387 474.143C344.891 477.234 351.581 467.786 356.037 468.306C357.333 467.616 359.115 466.384 360.388 465.563C361.893 471.046 351.238 472.074 350.553 475.756Z"/><path fill="#271D20" transform="scale(0.390625 0.390625)" d="M341.387 474.143C344.891 477.234 351.581 467.786 356.037 468.306C352.921 471.043 337.579 480.008 332.574 483.478C331.647 481.834 331.477 481.07 331.787 479.418C333.062 477.79 339.292 474.848 341.387 474.143Z"/><path fill="#ACA3A2" transform="scale(0.390625 0.390625)" d="M341.387 474.143C339.515 475.989 335.036 479.047 332.619 480.077L331.787 479.418C333.062 477.79 339.292 474.848 341.387 474.143Z"/><path fill="#FC8982" transform="scale(0.390625 0.390625)" d="M247.01 464.418C248.758 465.43 253.195 469.213 254.727 470.662C255.936 477.506 257.76 484.737 259.188 491.62L271.902 551.208C270.039 550.146 268.47 548.634 266.838 547.22C259.626 518.969 253.072 493.073 247.01 464.418Z"/><path fill="#FEF5EB" transform="scale(0.390625 0.390625)" d="M284.891 446.761C286.691 448.01 286.94 448.083 287.785 450.166L288.069 448.073C291.743 451.144 291.448 454.827 295.839 455.411C301.148 454.25 300.53 448.971 305.077 449.84L305.792 450.483C305.727 451.527 305.267 456.086 305.54 456.809C306.379 459.03 309.039 462.012 310.409 464.04C310.227 464.43 310.044 464.82 309.862 465.21C305.39 468.46 298.455 467.49 293.012 467.693C290.388 467.791 286.735 462.293 285.169 460.174C282.888 460.383 280.504 460.881 278.48 460.05C275.705 457.2 278.975 452.973 280.815 449.919L280.533 448.406C282.788 447.981 282.883 447.929 284.891 446.761Z"/><path fill="#271D20" transform="scale(0.390625 0.390625)" d="M284.891 446.761C286.691 448.01 286.94 448.083 287.785 450.166C283.584 451.136 285.148 448.476 280.815 449.919L280.533 448.406C282.788 447.981 282.883 447.929 284.891 446.761Z"/><path fill="#FEF5EB" transform="scale(0.390625 0.390625)" d="M310.868 433.402C312.213 431.775 314.644 428.564 316.433 427.714C320.109 425.968 322.31 430.36 323.266 432.98C324.781 437.127 324.463 438.658 322.599 442.475L320.973 444.918C313.324 442.244 313.96 443.642 307.525 447.881C303.496 446.681 301.982 446.74 299.162 443.442C294.639 438.153 300.119 426.059 307.069 427.747C308.855 429.118 309.767 431.349 310.868 433.402Z"/><path fill="#FEF5EB" transform="scale(0.390625 0.390625)" d="M283.831 433.538C281.082 433.608 278.658 433.846 276.38 432.31C274.745 429.041 279.291 425.431 279.601 422.467C279.74 421.144 278.067 418.587 278.965 415.818C281.06 413.284 286.681 412.747 289.387 414.588C291.768 418.177 288.412 420.942 288.837 424.949L289.392 425.201C294.818 419.371 296.793 419.918 304.591 420.681C305.068 419.276 305.394 418.49 305.981 417.16C307.808 416.09 307.673 416.478 310.168 416.506C314.06 418.381 314.406 419.439 315.636 423.622C314.308 425.506 312.974 427.471 311.554 429.279C310.041 426.751 309.733 426.538 309.571 423.689C307.305 425.473 305.807 425.062 302.733 425.014C301.858 425.674 297.494 429.49 297.595 429.432C290.509 428.215 288.983 428.474 283.831 433.538Z"/><path fill="#FEF5EB" transform="scale(0.390625 0.390625)" d="M310.168 416.506C314.06 418.381 314.406 419.439 315.636 423.622C314.308 425.506 312.974 427.471 311.554 429.279C310.041 426.751 309.733 426.538 309.571 423.689C311.421 420.894 309.035 420.073 310.168 416.506Z"/><path fill="#FEF5EB" transform="scale(0.390625 0.390625)" d="M366.146 402.418C376.848 404.104 379.631 416.598 372.258 417.682C371.551 416.781 371.492 416.66 371.118 415.615L370.818 414.754C368.642 416.066 368.403 418.107 368.071 420.406L367.949 421.288C365.952 423.622 355.317 423.259 353.234 421.871L353.973 421.343C354.629 419.351 354.282 414.254 351.414 414.788C352.021 417.247 352.596 418.053 351.923 420.245C350.501 421.289 351.246 421.13 349.667 420.95C347.474 419.134 345.655 414.537 347.895 412.207C349.193 412.289 348.918 412.314 350.221 412.135C348.939 406.854 353.814 407.491 357.662 407.565C360.521 405.9 363.349 404.184 366.146 402.418Z"/><path fill="#FEF5EB" transform="scale(0.390625 0.390625)" d="M311.82 414.122C302.014 410.985 306.126 418.642 293.96 418.374C291.816 411.66 290.853 413.044 284.85 410.71C279.616 405.685 288.684 398.283 294.261 400.204C296.437 400.953 297.32 403.037 298.45 404.762L299.352 404.718C299.69 403.614 299.731 402.903 299.777 401.748C303.233 401.794 304.144 401.781 307.514 400.955L308.279 400.764C312.266 403.362 313.904 405.471 314.619 410.279L316.295 410.897L316.518 411.553L315.961 412.429C314.873 413.393 314.115 414.027 313.16 415.149L311.82 414.122Z"/><path fill="#3F3E44" transform="scale(0.390625 0.390625)" d="M314.619 410.279L316.295 410.897L316.518 411.553L315.961 412.429C314.873 413.393 314.115 414.027 313.16 415.149L311.82 414.122C312.776 413.044 313.773 411.497 314.619 410.279Z"/><path fill="#FEF5EB" transform="scale(0.390625 0.390625)" d="M364.65 442.759C364.353 440.84 363.773 438.521 364.277 436.722C367.949 434.341 377.466 439.091 380.345 441.876C380.968 444.089 379.732 446.743 378.982 449.021C376.829 450.542 364.826 459.241 363.224 459.717C363.023 457.84 363.322 456.937 362.27 456.026L361.152 456.315C360.634 458.457 360.231 460.896 359.113 462.73L358.668 462.992C357.744 462.172 355.411 454.352 354.442 451.938C353.627 451.246 353.504 451.251 352.552 450.727C353.505 449.855 354.67 447.805 355.414 446.617C356.634 447.251 356.28 447.23 357.557 447.405C360.835 445.814 361.791 444.989 364.65 442.759Z"/><path fill="#271D20" transform="scale(0.390625 0.390625)" d="M355.414 446.617C356.634 447.251 356.28 447.23 357.557 447.405C355.751 449.394 355.735 450.234 354.442 451.938C353.627 451.246 353.504 451.251 352.552 450.727C353.505 449.855 354.67 447.805 355.414 446.617Z"/><path fill="#FEF5EB" transform="scale(0.390625 0.390625)" d="M283.831 433.538C288.983 428.474 290.509 428.215 297.595 429.432C297.991 430.829 297.728 431.165 297.325 432.579L296.803 432.895L296.482 432.555C292.456 442.952 299.233 443.96 299.781 448.523C298.844 450.104 298.603 450.77 297.097 451.861C293.69 452.24 292.177 448.862 289.558 446.564C288.217 447.223 288.693 446.731 288.069 448.073L287.785 450.166C286.94 448.083 286.691 448.01 284.891 446.761C282.883 447.929 282.788 447.981 280.533 448.406C271.991 443.978 273.752 443.329 275.274 434.841C278.561 435.594 281.371 435.865 284.72 435.483L284.756 434.171L283.831 433.538Z"/><path fill="#FEF5EB" transform="scale(0.390625 0.390625)" d="M275.274 434.841C278.561 435.594 281.371 435.865 284.72 435.483C282.751 441.786 286.158 442.606 284.891 446.761C282.883 447.929 282.788 447.981 280.533 448.406C271.991 443.978 273.752 443.329 275.274 434.841Z"/><path fill="#171112" transform="scale(0.390625 0.390625)" d="M283.831 433.538C288.983 428.474 290.509 428.215 297.595 429.432C297.991 430.829 297.728 431.165 297.325 432.579L296.803 432.895L296.482 432.555C292.643 427.904 280.203 435.836 289.984 444.252L290.714 444.891L291.212 445.318L291.003 445.982L289.558 446.564C288.217 447.223 288.693 446.731 288.069 448.073L287.785 450.166C286.94 448.083 286.691 448.01 284.891 446.761C286.158 442.606 282.751 441.786 284.72 435.483L284.756 434.171L283.831 433.538Z"/><path fill="#FEF5EB" transform="scale(0.390625 0.390625)" d="M280.058 466.295C282.888 467.364 285.824 466.157 285.693 466.082C288.725 467.812 290.857 471.733 294.428 472.417L295.013 471.994C296.761 470.749 297.168 470.241 299.181 469.969C300.107 470.358 301.032 470.724 301.104 471.798C302.453 491.793 293.145 488.926 281.181 478.804C277.465 475.66 275.627 472.712 276.477 468.494C277.029 468.062 277.339 467.765 277.952 467.433L279.539 467.192L280.058 466.295Z"/><path fill="#FEF5EB" transform="scale(0.390625 0.390625)" d="M313.84 446.406C320.89 445.522 319.133 450.554 322.595 453.006C324.54 450.222 325.804 447.504 329.447 448.017C332.318 449.952 332.511 452.476 333.438 455.841C332.491 458.497 332.276 459.301 330.669 461.577C325.309 465.633 325.979 460.269 317.988 464.682C308.531 460.515 303.856 453.269 313.84 446.406Z"/><path fill="#FEF5EB" transform="scale(0.390625 0.390625)" d="M319.227 419.938C321.402 425.521 326.183 429.368 332.217 427.446C336.956 425.936 339.514 421.075 344.096 419.796C345.876 420.119 345.162 419.693 346.286 421.154C346.007 425.538 347.015 430.947 346.325 433.808C344.513 436.452 334.953 440.332 331.584 442.01C330.454 441.653 329.328 441.283 328.206 440.898C326.281 439.274 326.563 433.376 325.561 429.128C322.731 426.809 320.748 426.434 318.584 424.165C317.979 422.12 318.313 422.45 319.096 419.975L319.227 419.938Z"/><path fill="#FEF5EB" transform="scale(0.390625 0.390625)" d="M332.475 394.728C338.021 390.979 339.83 390.225 346.193 388.092C347.851 390.476 348.775 391.477 349.556 394.297L349.33 395.43C348.014 396.206 347.068 396.197 345.56 396.391C343.287 397.932 344.009 401.668 340.945 405.222L340.893 406.891L340.636 407.033L339.612 405.415C336.246 405.151 335.967 405.184 332.792 405.722C328.743 406.407 321.117 412.929 318.087 410.029C317.924 408.451 318.651 405.661 319.652 404.983C322.401 403.121 327.929 399.594 330.709 398.211C331.273 397.094 331.885 395.814 332.475 394.728Z"/><path fill="#FEF5EB" transform="scale(0.390625 0.390625)" d="M323.594 386.016C327.213 386.249 331.49 390.401 330.156 394.074C328.786 397.85 321.695 399.887 318.584 401.952C318.177 402.221 317.605 404.489 316.168 405.349L314.633 403.097C314.272 399.209 301.903 396.05 306.507 389.38C309.258 385.395 316.847 388.172 323.594 386.016Z"/><path fill="#FEF5EB" transform="scale(0.390625 0.390625)" d="M255.753 446.929C254.863 441.806 254.878 438.371 257.937 433.872C259.698 431.282 265.419 426.847 268.582 427.7C269.653 429.007 269.233 428.253 269.471 430.245L268.786 430.986C267.163 430.964 266.607 430.911 264.975 431.248C264.22 432.656 264.421 431.878 264.71 433.72L265.508 434.318L268.092 433.85C271.065 439.095 268.58 444.972 276.211 450.261L276.812 450.683C276.934 450.765 277.056 450.847 277.178 450.929L275.536 454.616C269.932 448.013 267.962 446.872 259.415 450.533C258.294 451.055 258.51 450.714 257.927 451.533L254.56 448.96L255.753 446.929Z"/><path fill="#271D20" transform="scale(0.390625 0.390625)" d="M255.753 446.929C256.956 448.129 258.175 449.38 259.415 450.533C258.294 451.055 258.51 450.714 257.927 451.533L254.56 448.96L255.753 446.929Z"/><path fill="#FEF5EB" transform="scale(0.390625 0.390625)" d="M341.924 451.554C355 451.252 352.051 455.861 356.205 464.871L349.146 468.864C347.533 467.899 346.566 467.151 344.71 466.803L344.333 467.552L345.132 469.366C345.301 469.494 345.704 470.073 345.854 470.272L345.289 471.016C342.807 471.089 337.332 463.317 337.382 462.463C338.898 462.492 339.186 462.48 340.68 462.248L340.998 461.467L340.429 460.591C338.147 459.17 337.012 460.979 335.061 459.741C335.51 457.734 335.978 455.862 336.361 453.834C338.168 452.558 339.808 452.216 341.924 451.554Z"/><path fill="#FEF5EB" transform="scale(0.390625 0.390625)" d="M313.516 478.476C313.876 478.681 318.884 483.516 319.072 483.821C322.519 489.45 310.237 495.185 306.261 495.876C301.853 495.133 301.164 494.716 297.834 491.512C300.639 487.899 301.585 486.609 303.153 482.468C307.533 481.21 309.476 480.463 313.516 478.476Z"/><path fill="#FEF5EB" transform="scale(0.390625 0.390625)" d="M342.348 415.056L342.372 415.737C340.411 418.732 335.193 422.786 332.285 424.794C328.379 427.489 320.071 420.877 322.504 416.025C324.138 412.766 323.817 413.279 326.846 411.778C333.274 408.595 332.035 407.935 339.614 408.615C340.112 411.589 340.482 412.613 342.348 415.056Z"/><path fill="#FEF5EB" transform="scale(0.390625 0.390625)" d="M317.849 467.673C319.739 467.004 321.15 466.142 322.887 465.18C329.07 468.704 331.809 470.82 329.006 478.668C321.576 482.9 320.003 481.992 315.561 475.082C313.904 472.505 312.159 468.587 312.834 465.543L317.849 467.673Z"/><path fill="#FEF5EB" transform="scale(0.390625 0.390625)" d="M349.267 424.234C351.88 424.613 354.67 425.193 357.281 425.685C359.189 432.628 363.681 438.59 357.723 444.114C354.854 443.816 351.09 443.126 348.169 442.678C346.815 438.143 347.21 438.355 349.801 434.659C349.752 431.291 349.33 427.798 349.267 424.234Z"/><path fill="#FEF5EB" transform="scale(0.390625 0.390625)" d="M262.873 451.593C267.541 451.262 272.812 452.894 274.401 458.247C275.14 460.735 270.928 461.199 269.701 463.088C268.076 465.588 269.503 467.574 269.214 470.546C265.077 467.381 259.355 463.171 255.863 459.489C258.768 456.626 259.772 454.147 262.873 451.593Z"/><path fill="#FEF5EB" transform="scale(0.390625 0.390625)" d="M274.446 408.051C276.878 408.108 280.793 408.452 281.136 411.336C280.471 413.035 279.027 413.745 277.449 414.893C274.774 416.84 275.474 420.66 275.198 424.089L273.886 425.169C261.279 427.201 263.37 410.775 274.446 408.051Z"/><path fill="#EC7F7D" transform="scale(0.390625 0.390625)" d="M365.986 461.712C370.324 458.598 389.388 444.714 393.255 444.462C393.613 446.201 393.622 445.329 393.014 447.162C392.317 447.886 372.121 462.004 370.701 462.744C367.864 464.676 352.667 475.175 350.553 475.756C351.238 472.074 361.893 471.046 360.388 465.563C361.195 464.622 364.731 462.517 365.986 461.712Z"/><path fill="#FEF5EB" transform="scale(0.390625 0.390625)" d="M345.153 403.948C346.712 398.182 347.851 400.651 351.192 396.377C352.556 394.632 350.546 393.574 352.692 392.197C354.34 392.279 356.101 392.334 357.732 392.487C359.505 394.188 362.389 396.652 362.263 399.281C362.2 400.521 361.584 401.667 360.584 402.402C359.642 403.082 358.255 403.877 357.234 404.476C351.625 404.355 351.361 404.303 346.418 406.935C345.997 406.202 345.488 404.785 345.153 403.948Z"/><path fill="#FEF5EB" transform="scale(0.390625 0.390625)" d="M374.732 420.456C379.247 424.065 374.781 430.228 372.687 434.04C369.115 433.994 366.819 433.868 363.296 434.498L360.753 426.277L361.18 426.249C367.363 425.901 369.685 423.866 374.732 420.456Z"/><path fill="#FEF5EB" transform="scale(0.390625 0.390625)" d="M332.772 463.396C336.05 463.967 338.511 469.25 340.075 471.917L335.677 474.181C334.83 474.575 334.444 474.608 333.53 474.836C331.5 473.312 330.455 468.878 329.839 466.372C329.591 465.363 331.662 464.244 332.772 463.396Z"/><path fill="#FEF5EB" transform="scale(0.390625 0.390625)" d="M338.517 441.467C341.479 443.188 341.705 445.025 342.935 448.236L336.65 450.342L335.981 450.457C334.979 450.012 334.178 449.213 333.73 448.213C331.902 444.227 335.768 442.728 338.517 441.467Z"/><path fill="#EC7F7D" transform="scale(0.390625 0.390625)" d="M385.001 436.282C387.458 438.172 389.568 439.804 391.894 441.863C390.242 442.79 385.054 446.018 383.65 446.016C383.417 442.562 383.637 441.7 381.956 438.739C382.862 437.825 383.967 437.06 385.001 436.282Z"/><path fill="#271D20" transform="scale(0.390625 0.390625)" d="M345.153 403.948C345.488 404.785 345.997 406.202 346.418 406.935C345.222 407.562 345.286 407.499 344.432 408.54L346.067 409.479C346.512 412.338 344.969 414.026 342.348 415.056C340.482 412.613 340.112 411.589 339.614 408.615L340.636 407.033L340.893 406.891L341.726 407.104C343.347 406.837 344.259 405.214 345.153 403.948Z"/><path fill="#F7E3DE" transform="scale(0.390625 0.390625)" d="M345.153 403.948C345.488 404.785 345.997 406.202 346.418 406.935C345.222 407.562 345.286 407.499 344.432 408.54C344.518 409.784 344.261 410.772 344.063 412.022L343.71 412.224C342.417 410.873 342.186 408.973 341.726 407.104C343.347 406.837 344.259 405.214 345.153 403.948Z"/><path fill="#FEF5EB" transform="scale(0.390625 0.390625)" d="M254.56 448.96L257.927 451.533C257.887 455.328 254.654 456.676 251.384 456.588C250.206 455.649 250.658 456.259 250.409 454.415C251.139 452.078 252.807 450.767 254.56 448.96Z"/><path fill="#FEF5EB" transform="scale(0.390625 0.390625)" d="M348.384 444.843C351.24 445.322 352.691 445.474 355.414 446.617C354.67 447.805 353.505 449.855 352.552 450.727C350.249 450.071 347.419 449.587 345.033 449.113C346.077 447.569 347.197 446.276 348.384 444.843Z"/><path fill="#FEF5EB" transform="scale(0.390625 0.390625)" d="M309.959 468.496C311.13 469.137 312.015 470.58 312.477 471.803C311.486 475.555 308.756 474.737 305.637 474.157L305.302 475.196L304.725 475.374C305.113 473.509 305.069 473.419 304.711 471.488L304.617 471.008C305.646 469.948 308.401 469.109 309.959 468.496Z"/><path fill="#FFB291" transform="scale(0.390625 0.390625)" d="M381.956 438.739C379.689 436.479 376.315 435.826 375.751 434.242L376.981 431.951L377.727 431.729C380.272 432.629 382.751 434.668 385.001 436.282C383.967 437.06 382.862 437.825 381.956 438.739Z"/><path fill="#F7E3DE" transform="scale(0.390625 0.390625)" d="M320.973 444.918L322.599 442.475C323.7 442.722 324.056 442.842 325.174 442.927C326.687 442.738 328.526 443.759 329.497 444.873C329.002 445.212 322.171 447.547 321.946 447.482L320.973 444.918Z"/><path fill="#3F3E44" transform="scale(0.390625 0.390625)" d="M320.973 444.918L322.599 442.475C323.7 442.722 324.056 442.842 325.174 442.927C324.542 443.783 322.347 446.657 321.946 447.482L320.973 444.918Z"/><path fill="#FEF5EB" transform="scale(0.390625 0.390625)" d="M313.16 415.149C314.115 414.027 314.873 413.393 315.961 412.429L316.206 414.246L316.912 414.458L319.566 413.009L320.218 413.309C320.315 415.502 319.434 417.182 319.227 419.938L319.096 419.975C316.892 416.906 316.685 416.785 313.16 415.149Z"/><path fill="#FEF5EB" transform="scale(0.390625 0.390625)" d="M273.227 427.381L273.64 427.912C273.77 432.62 274.987 434.487 272.688 437.689C269.474 434.722 271.799 430.638 273.227 427.381Z"/><path fill="#FEF5EB" transform="scale(0.390625 0.390625)" d="M273.898 462.225L275.032 462.963C275.23 465.158 274.413 468.084 273.43 470.082C272.321 468.299 271.631 467.504 271.247 465.492C271.973 463.36 271.905 463.922 273.898 462.225Z"/><path fill="#FEF5EB" transform="scale(0.390625 0.390625)" d="M299.137 396.107C301.16 396.256 302.539 396.202 304.399 396.928L304.373 397.713L302.543 398.814C301.201 400.185 301.964 399.823 300.343 400.242L299.416 399.595C298.785 397.853 298.881 397.865 299.137 396.107Z"/><path fill="#FEF5EB" transform="scale(0.390625 0.390625)" d="M344.535 439.068C345.935 440.356 345.859 442.695 344.793 444.193L343.946 444.168C342.877 442.938 341.876 442.018 341.341 440.498C342.259 439.24 342.563 439.556 344.535 439.068Z"/><path fill="#F7E3DE" transform="scale(0.390625 0.390625)" d="M277.952 467.433C278.08 465.208 277.984 464.497 279.722 463.226C281.234 462.983 282.321 462.631 283.738 463.136L283.399 463.89C282.339 464.552 281.639 464.965 280.68 465.768L280.058 466.295L279.539 467.192L277.952 467.433Z"/><path fill="#FEF5EB" transform="scale(0.390625 0.390625)" d="M328.324 482.136L328.322 482.423C327.252 483.927 323.542 485.765 321.704 486.839C321.52 485.899 321.581 485.748 321.59 484.779C322.861 483.695 326.518 482.768 328.324 482.136Z"/><path fill="#231B27" transform="scale(0.390625 0.390625)" d="M426.138 338.073C434.021 337.085 434.945 342.221 439.75 347.863C441.585 350.018 439.489 357.047 438.652 359.715C435.064 363.271 418.515 373.813 413.193 377.464C410.562 379.28 408.546 380.738 405.687 382.185C401.818 381.985 402.894 373.71 403.36 371.017C404.147 366.464 405.986 363.562 409.782 360.939C412.426 350.298 415.521 343.126 426.138 338.073Z"/><path fill="#FEF5EB" transform="scale(0.390625 0.390625)" d="M427.766 340.488C429.485 340.92 429.451 340.809 430.782 341.934C431.388 343.519 431.6 344.519 432.837 345.68C441.161 346.374 438.315 357.319 432.865 361.084C426.19 365.694 419.318 370.02 412.744 374.752C410.88 376.12 410.218 376.73 408.117 377.587C406.286 377.359 407.057 377.747 405.79 376.257C404.564 371.274 406.908 365.174 411.812 363.091C413.636 362.316 414.235 353.986 415.42 351.544C418.296 345.62 421.763 342.955 427.766 340.488Z"/><path fill="#231B27" transform="scale(0.390625 0.390625)" d="M462.058 273.051C464.648 272.937 466.746 272.664 468.49 275.201C470.447 280.136 478.645 268.206 481.777 274.856C486.447 284.774 477.223 289.009 470.961 293.43C465.697 297.146 462.156 299.569 457.771 302.629C454.921 304.556 445.321 312.038 442.801 311.744L442.433 310.954C443.987 308.449 443.89 307.021 443.782 304.191C443.308 291.785 449.901 277.961 462.058 273.051Z"/><path fill="#FC8982" transform="scale(0.390625 0.390625)" d="M461.599 276.03C463.244 275.879 463.657 275.763 465.305 276.158C466.793 277.309 466.907 278.498 467.382 280.349L467.624 281.311C470.757 282.958 474.024 274.862 477.032 276.05C489.096 280.815 465.72 293.674 461.004 296.984C457.934 299.258 450.565 304.708 447.459 306.173L446.726 305.805C443.103 296.256 453.348 280.94 461.599 276.03Z"/><path fill="#231B27" transform="scale(0.390625 0.390625)" d="M230.818 570.541C238.288 569.936 241.187 572.144 239.748 579.949C237.583 591.688 222.856 597.369 213.762 603.063C211.581 604.326 210.934 604.542 208.334 603.956C204.408 601.13 206.151 594.03 208.033 590.441C212.981 581.007 220.733 574.052 230.818 570.541Z"/><path fill="#FEF5EB" transform="scale(0.390625 0.390625)" d="M230.682 573.553C232.948 573.328 234.729 573.005 236.54 574.41C237.51 576.397 237.131 578.102 236.619 580.227C234.202 590.267 222.178 594.639 213.464 599.743C211.531 600.69 210.475 601.469 208.729 599.855C207.542 594.904 212.964 587.592 216.153 583.958C220.425 579.089 224.709 575.96 230.682 573.553Z"/><path fill="#231B27" transform="scale(0.390625 0.390625)" d="M386.361 317.072C388.217 317.269 389.429 317.376 390.686 319.072C391.908 320.664 391.823 328.358 390.406 329.605C383.905 335.326 375.412 340.614 368.323 345.569C366.726 346.366 366.599 346.484 365.153 345.935C364.726 345.38 364.227 344.754 364.116 344.049C362.289 332.407 376.424 319.511 386.361 317.072Z"/><path fill="#FC8982" transform="scale(0.390625 0.390625)" d="M385.798 319.923C387.467 320.177 386.72 319.869 388.087 320.961C390.948 327.82 385.203 330.624 380.234 334.039C376.312 336.733 372.6 339.134 368.84 342.084C368.602 342.255 367.745 342.663 367.448 342.814L366.712 342.173C365.578 332.462 378.019 323.441 385.798 319.923Z"/><path fill="#231B27" transform="scale(0.390625 0.390625)" d="M243.318 504.867C247.961 506.916 246.757 512.599 246.418 516.77C241.741 519.718 231.095 526.224 227.398 529.872C221.244 527.56 222.808 524.555 222.991 518.692C228.212 514.793 237.88 508.086 243.318 504.867Z"/><path fill="#FC8982" transform="scale(0.390625 0.390625)" d="M242.995 508.45C249.177 514.618 230.907 523.682 226.449 526.447C220.65 520.482 238.946 510.976 242.995 508.45Z"/><path fill="#231B27" transform="scale(0.390625 0.390625)" d="M444.409 416.4C449.155 417.57 452.289 421.114 449.032 425.464C445.736 429.865 438.129 434.042 433.432 437.039L431.748 437.605C430.804 437.415 430.662 437.644 430.151 436.831C424.285 427.495 438.566 419.991 444.409 416.4Z"/><path fill="#FEF5EB" transform="scale(0.390625 0.390625)" d="M444.481 419.225C451.055 421.428 443.833 427.567 440.822 429.105C438.665 430.207 435.93 432.184 433.782 433.509L432.482 434.042L432.03 433.513C432.082 424.807 438.379 423.849 444.481 419.225Z"/><path fill="#231B27" transform="scale(0.390625 0.390625)" d="M478.403 336.878C490.255 342.973 471.67 352.779 466.906 356.302C454.614 350.757 473.197 339.505 478.403 336.878Z"/><path fill="#FEF5EB" transform="scale(0.390625 0.390625)" d="M477.333 340.345C478.897 340.942 478.88 341.637 479.004 343.021C477.603 346.009 470.446 350.489 467.437 352.597C466.099 352.313 466.654 352.615 465.826 351.537C466.029 347.127 473.799 342.852 477.333 340.345Z"/><path fill="#ACA3A2" transform="scale(0.390625 0.390625)" d="M526.053 167.396C526.193 167.458 526.857 167.693 526.858 168.222C526.91 232.359 526.967 414.65 526.761 469.811C520.993 474.427 505.712 483.978 498.83 488.579L433.589 531.849L272.561 639.646C245.339 657.938 216.793 676.512 190.093 695.407L190.021 686.637C194.675 684.138 203.376 678.021 208.041 674.903L242.762 651.556L361.533 571.802L462.764 504.441L498.235 480.873C504.315 476.861 514.518 470.581 519.873 466.236L519.837 258.414L519.722 203.662C519.704 200.181 520.059 187.224 519.491 184.717C517.08 181.795 513.55 185.517 511.243 187.29C485.795 205.764 456.629 224.903 430.437 242.529L268.249 351.226L213.5 387.799C205.94 392.896 193.613 400.785 186.757 406.408C187.522 419.126 187.016 437.347 187.018 450.391L187.03 532.92L187.149 643.902C187.142 661.889 187.609 682.42 186.968 700.21C183.172 699.241 182.253 698.882 178.973 696.869L179.083 400.932C189.375 393.511 201.771 385.64 212.443 378.517L282.062 332.06C363.852 277.856 445.185 222.966 526.053 167.396Z"/><path fill="#ACA3A2" transform="scale(0.390625 0.390625)" d="M2.58966 2.41722C19.3798 2.08517 37.3874 2.39153 54.266 2.39841L153.927 2.43939L451 2.53922C426.915 20.0448 399.365 37.6289 374.395 54.2879L268.148 125.286C241.812 142.362 215.648 159.701 189.66 177.302C146.805 204.909 104.026 234.816 61.417 263.009C60.9221 280.7 61.3945 300.643 61.3693 318.586L61.1026 439.081C48.382 428.676 18.5649 413.749 2.59462 411.814L2.58966 2.41722Z"/><path fill="#231B27" transform="scale(0.390625 0.390625)" d="M672.951 74.7202C675.374 76.7225 679.297 78.6326 679.973 81.1656L678.839 82.4726L680.115 84.3921C681.301 87.1265 679.811 302.652 679.645 326.931C665.206 337.759 647.807 348.918 632.899 359.154C618.383 369.12 602.998 380.022 588.144 389.299C586.179 388.355 584.369 387.22 582.495 386.106C581.898 378.572 582.189 365.821 582.15 357.843L582.034 303.954C582.267 249.617 582.2 195.28 581.83 140.944C587.888 134.685 612.214 117.839 620.163 112.18C637.448 99.8769 655.36 86.3979 672.951 74.7202Z"/><path fill="#FC8982" transform="scale(0.390625 0.390625)" d="M672.951 74.7202C675.374 76.7225 679.297 78.6326 679.973 81.1656L678.839 82.4726C650.466 104.933 619.896 125.23 591.098 147.896L590.579 378.251C593.983 376.249 597.014 373.956 600.186 371.627C613.061 362.173 626.422 353.394 639.624 344.39C650.863 336.724 662.175 328.227 673.605 320.963C672.888 311.22 673.123 299.365 673.084 289.448L672.979 239.047L673.114 90.6295C675.224 88.7371 677.968 86.1236 680.115 84.3921C681.301 87.1265 679.811 302.652 679.645 326.931C665.206 337.759 647.807 348.918 632.899 359.154C618.383 369.12 602.998 380.022 588.144 389.299C586.179 388.355 584.369 387.22 582.495 386.106C581.898 378.572 582.189 365.821 582.15 357.843L582.034 303.954C582.267 249.617 582.2 195.28 581.83 140.944C587.888 134.685 612.214 117.839 620.163 112.18C637.448 99.8769 655.36 86.3979 672.951 74.7202Z"/><path fill="#FEF5EB" transform="scale(0.390625 0.390625)" d="M593.941 149.362C617.341 130.368 645.643 111.208 670.164 92.8467C670.911 113.078 670.176 137.015 670.089 157.522L670.093 262.847C670.18 266.765 670.608 279.301 670.061 282.767C670.771 294.492 669.847 307.419 670.44 319.539C665.721 322.335 660.074 326.698 655.457 329.998C635.282 344.421 612.994 357.814 593.644 373.224C592.906 339.6 593.592 303.425 593.824 269.641L593.941 149.362Z"/><path fill="#231B27" transform="scale(0.390625 0.390625)" d="M668.73 278.391C666.355 282.682 648.034 294.012 642.732 297.693L617.893 314.891C613.769 317.747 604.625 325.117 600.167 325.438C593.734 322.483 597.795 300.697 601.682 297.243C618.588 282.223 639.447 269.436 658.044 256.406C661.277 254.14 667.107 260.526 668.392 263.505L670.093 262.847C670.18 266.765 670.608 279.301 670.061 282.767L669.367 282.173C669.325 280.302 669.416 280.197 668.73 278.391Z"/><path fill="#FEF5EB" transform="scale(0.390625 0.390625)" d="M668.392 263.505L670.093 262.847C670.18 266.765 670.608 279.301 670.061 282.767L669.367 282.173C669.325 280.302 669.416 280.197 668.73 278.391C669.171 274.008 669.259 267.786 668.392 263.505Z"/><path fill="#FC8982" transform="scale(0.390625 0.390625)" d="M658.904 258.918C660.671 259.003 662.661 260.3 663.235 262.002C660.854 266.881 613.553 295.611 606.359 302.555C604.874 303.988 602.542 304.887 603.284 307.303C606.216 307.184 658.497 269.151 665.711 264.301C666.153 268.792 666.066 272.732 665.885 277.226C663.045 280.82 606.041 319.635 600.202 322.769C596.973 297.251 609.277 293.837 627.447 281.08L658.904 258.918Z"/><path fill="#171112" transform="scale(0.390625 0.390625)" d="M636.24 170.56C642.787 169.877 648.175 171.784 649.752 178.932C652.254 190.273 648.44 203.062 642.61 212.811C637.959 220.59 634.394 225.464 625.225 227.815C600.206 230.956 610.477 179.773 636.24 170.56Z"/><defs><linearGradient id="gradient_1" gradientUnits="userSpaceOnUse" x1="631.2749" y1="173.8672" x2="630.63672" y2="220.60428"><stop offset="0" stop-color="#FDE8E5"/><stop offset="1" stop-color="#FFF9EF"/></linearGradient></defs><path fill="url(#gradient_1)" transform="scale(0.390625 0.390625)" d="M638.422 173.028C657.138 173.152 645.735 220.357 624.421 221.935C611.602 218.661 613.251 200.555 618.448 191.443C623.921 181.848 627.659 176.604 638.422 173.028Z"/><path fill="#231B27" transform="scale(0.390625 0.390625)" d="M628.499 182.604C628.185 175.877 639.156 172.481 645.177 180.538C645.993 185.907 647.429 200.033 641.123 202.384C640.125 203.138 639.299 204.821 638.597 205.99C636.985 205.892 635.97 205.858 634.359 205.915C631.337 208.007 622.693 213.445 619.917 208.887C618.277 206.193 620.1 202.649 620.982 200.201L620.562 199.31L619.52 199.458C618.165 201.203 618.314 203.718 616.877 206.35L616.348 206.106C615.954 199.905 620.845 199.629 621.968 194.066C622.687 190.501 625.771 184.836 628.942 183.042L628.499 182.604Z"/><path fill="#271D20" transform="scale(0.390625 0.390625)" d="M628.499 182.604C628.185 175.877 639.156 172.481 645.177 180.538C645.993 185.907 647.429 200.033 641.123 202.384C641.199 200.908 641.17 201.36 641.725 199.91C642.176 196.939 642.698 193.979 643.289 191.032L642.041 190.627C641.406 191.735 641.536 191.372 641.259 192.522L640.9 192.422C641.052 186.472 638.52 188.005 637.614 184.5L638.148 184.159C638.995 184.721 639.849 185.272 640.711 185.811C639.486 184.047 636.455 181.528 637.369 179.805C638.765 179.754 639.531 179.771 640.893 179.846L640.873 179.106C637.083 175.872 632.473 180.318 628.499 182.604Z"/><path fill="#F7E3DE" transform="scale(0.390625 0.390625)" d="M643.289 191.032L643.969 190.51C644.646 186.829 641.302 183.741 639.066 181.193C640.827 180.414 639.955 180.497 641.761 180.815C646.216 184.468 645.441 195.805 642.545 200.039L641.725 199.91C642.176 196.939 642.698 193.979 643.289 191.032Z"/><path fill="#FEF5EB" transform="scale(0.390625 0.390625)" d="M628.499 182.604C632.473 180.318 637.083 175.872 640.873 179.106L640.893 179.846C639.531 179.771 638.765 179.754 637.369 179.805C636.455 181.528 639.486 184.047 640.711 185.811C639.849 185.272 638.995 184.721 638.148 184.159L637.614 184.5C638.52 188.005 641.052 186.472 640.9 192.422C639.504 198.916 639.458 198.974 634.652 203.762C634.185 196.345 633.867 188.92 633.697 181.49C632.253 181.47 630.36 182.445 628.942 183.042L628.499 182.604Z"/><path fill="#F7E3DE" transform="scale(0.390625 0.390625)" d="M631.29 184.875C631.654 186.925 631.431 196.77 631.287 198.981C630.158 199.337 629.1 197.769 628.733 197.874C627.963 198.094 625.734 198.635 624.829 198.854L624.189 198.661C623.202 195.34 628.816 187.225 631.29 184.875Z"/><path fill="#FEF5EB" transform="scale(0.390625 0.390625)" d="M624.974 201.195C627.04 201.275 629.837 202.182 630.882 204.043C630.181 205.937 630.121 205.514 628.235 206.987C625.6 207.769 623.722 207.916 622.736 205.028C623.269 202.58 623.13 203.315 624.974 201.195Z"/><path fill="#F7E3DE" transform="scale(0.390625 0.390625)" d="M613.474 210.321C614.319 211.526 614.364 212.455 614.734 213.865C616.566 220.845 617.096 221.211 622.513 225.047C615.438 225.325 613.374 215.859 613.474 210.321Z"/><path fill="#8A8186" transform="scale(0.390625 0.390625)" d="M637.449 218.603C636.24 222.265 627.928 225.295 623.713 224.361L623.28 223.424C630.218 223.896 631.515 222.134 637.449 218.603Z"/><path fill="#231B27" transform="scale(0.390625 0.390625)" d="M649.966 133.906L651.03 134.733C651.91 136.984 651.58 145.673 651.558 148.416C637.582 159.025 621.675 171.752 607.725 181.609C606.981 181.451 607.386 181.61 606.587 180.973C605.839 177.932 606.164 168.966 606.192 165.34C611.234 162.474 620.05 155.808 624.777 152.326L649.966 133.906Z"/><path fill="#FC8982" transform="scale(0.390625 0.390625)" d="M648.112 138.408L648.517 138.539C649.153 140.203 648.804 144.778 648.752 146.857C636.865 156.708 622.15 167.617 609.76 177.442L609.158 177.356C608.624 175.655 608.835 169.375 608.848 167.208C620.373 157.98 635.877 147.679 648.112 138.408Z"/><path fill="#231B27" transform="scale(0.390625 0.390625)" d="M648.397 222.238C650.28 220.413 658.067 214.339 660.474 215.405C660.793 216.923 662.215 222.621 661.312 223.323C654.518 228.607 659.001 227.898 658.263 233.595C660.23 234.455 660.744 236.208 661.484 238.109C663.512 243.323 652.88 254.194 648.723 249.614C648.351 248.152 648.185 224.756 648.397 222.238Z"/><path fill="#271D20" transform="scale(0.390625 0.390625)" d="M654.962 229.776L656.106 230.843C655.992 232.726 654.856 232.965 654.145 234.575L656.044 235.183C655.479 236.93 655.47 237.34 654.113 238.622L653.009 238.665C651.689 237.362 651.995 237.123 651.609 234.894C651.24 234.186 651.386 232.658 651.386 231.726C652.486 230.982 653.772 230.383 654.962 229.776Z"/><path fill="#FEF5EB" transform="scale(0.390625 0.390625)" d="M651.609 234.894C652.087 234.301 651.755 234.624 652.74 234.088L654.145 234.575L656.044 235.183C655.479 236.93 655.47 237.34 654.113 238.622L653.009 238.665C651.689 237.362 651.995 237.123 651.609 234.894Z"/><path fill="#FEF5EB" transform="scale(0.390625 0.390625)" d="M651.437 224.722C652.199 222.569 656.73 219.194 658.979 219.595C658.448 223.974 656.815 224.084 652.983 225.588L651.437 224.722Z"/><path fill="#FEF5EB" transform="scale(0.390625 0.390625)" d="M654.26 240.699L654.951 240.921C656.794 243.324 654.899 245.903 652.991 247.556L652.523 247.425C650.693 245.018 652.152 242.36 654.26 240.699Z"/><path fill="#F7E3DE" transform="scale(0.390625 0.390625)" d="M651.437 224.722L652.983 225.588C653.661 227.177 654.126 228.272 654.962 229.776C653.772 230.383 652.486 230.982 651.386 231.726C651.427 229.392 651.444 227.057 651.437 224.722Z"/><path fill="#FEF5EB" transform="scale(0.390625 0.390625)" d="M657.752 238.256C659.878 240.83 658.28 243.289 656.465 245.508C655.365 242.802 656.314 240.563 657.752 238.256Z"/><path fill="#231B27" transform="scale(0.390625 0.390625)" d="M631.375 231.292L634.015 231.559C635.859 233.157 639.453 251.959 640.94 256.812C639.095 259.137 635.099 262.635 632.686 264.422C631.032 265.641 628.909 267.482 627.005 267.909L626.56 267.167C626.557 263.246 630.299 234.723 631.375 231.292Z"/><path fill="#FEF5EB" transform="scale(0.390625 0.390625)" d="M633.117 236.368C634.765 241.188 636.397 252.38 632.729 256.302L631.438 256.263C630.346 254.008 632.451 239.55 633.117 236.368Z"/><path fill="#FEF5EB" transform="scale(0.390625 0.390625)" d="M635.668 256.528C636.101 256.909 635.942 256.929 636.123 257.728C634.862 260.759 632.545 262.178 629.892 263.95L629.57 263.694C628.253 260.12 633.048 258.41 635.668 256.528Z"/><path fill="#231B27" transform="scale(0.390625 0.390625)" d="M601.553 254.174C604.79 251.241 609.745 246.522 614.057 246.122C620.558 248.557 615.049 262.594 613.999 267.376L612.253 267.176C611.059 264.513 609.513 261.9 609.578 259.109L608.731 257.313C610.579 255.649 610.962 255.217 613.103 254.061C614.328 252.111 613.945 252.687 614.046 250.076L613.53 249.257C611.055 249.044 606.232 253.223 604.056 254.844C605.258 263.329 604.342 272.667 605.524 281.246C605.66 282.237 604.862 283.765 604.355 284.621L603.319 285.24L602.463 284.699C601.3 279.182 602.378 261.786 601.553 254.174Z"/><path fill="#F7E3DE" transform="scale(0.390625 0.390625)" d="M613.103 254.061C613.718 255.043 613.761 254.707 613.754 255.597C613.179 259.446 612.679 263.307 612.253 267.176C611.059 264.513 609.513 261.9 609.578 259.109L608.731 257.313C610.579 255.649 610.962 255.217 613.103 254.061Z"/><path fill="#271D20" transform="scale(0.390625 0.390625)" d="M613.103 254.061C613.718 255.043 613.761 254.707 613.754 255.597C611.99 256.284 610.897 257.717 609.578 259.109L608.731 257.313C610.579 255.649 610.962 255.217 613.103 254.061Z"/><path fill="#231B27" transform="scale(0.390625 0.390625)" d="M608.731 257.313L609.578 259.109C609.513 261.9 611.059 264.513 612.253 267.176L613.999 267.376C615.532 270.2 615.865 271.272 618.683 272.822L619.062 273.217C618.079 274.372 616.241 275.816 615.017 276.845C613.879 273.675 611.566 269.422 609.989 266.369C610.005 270.393 610.058 272.82 610.546 276.787C611.569 277.591 611.287 277.201 611.861 278.318C610.629 279.866 610.306 280.076 608.712 279.195C606.445 275.458 606.742 267.799 606.667 263.408C606.605 259.714 606.497 259.497 608.731 257.313Z"/><defs><linearGradient id="gradient_2" gradientUnits="userSpaceOnUse" x1="645.04517" y1="239.38368" x2="641.07275" y2="239.68272"><stop offset="0" stop-color="#24191A"/><stop offset="1" stop-color="#23101E"/></linearGradient></defs><path fill="url(#gradient_2)" transform="scale(0.390625 0.390625)" d="M643.386 222.788C644.083 223.225 645.191 224.536 645.167 225.358C644.943 233.004 644.187 240.68 644.409 248.355C644.461 250.143 645.424 252.767 645.857 254.668L644.32 256.747L643.167 256.54C639.136 253.156 642.863 232.771 641.49 227.393C640.81 224.727 641.487 225.134 643.386 222.788Z"/><path fill="#231B27" transform="scale(0.390625 0.390625)" d="M618.683 272.822C623.431 266.007 617.786 245.052 622.506 237.914L623.146 237.904C624.289 241.229 623.344 264.65 623.615 270.575C622.328 271.416 620.437 272.786 619.062 273.217L618.683 272.822Z"/><path fill="#FEF5EB" transform="scale(0.390625 0.390625)" d="M3.46747 854.72C8.23868 857.213 16.3861 862.703 21.1451 865.699L60.0026 890.425C101.607 916.647 143.053 943.118 184.339 969.838L238.236 1004.18C243.488 1007.53 259.632 1017.26 263.117 1020.85L3.39126 1021.01C2.78918 1014.84 3.04984 1003.73 3.04415 997.24L3.04764 955.737L3.08647 894.905C3.09497 881.725 2.85838 867.81 3.46747 854.72Z"/><path fill="#FC8982" transform="scale(0.390625 0.390625)" d="M2.72763 414.414C22.9205 419.018 44.596 429.992 61.0639 442.432L61.0656 818.792C55.1245 815.553 47.2528 810.447 41.3774 806.782L3.37406 782.889L2.72763 414.414Z"/><path fill="#FEF5EB" transform="scale(0.390625 0.390625)" d="M295.796 774.589C304.136 773.257 308.974 778.753 315.479 783.302C322.175 787.981 328.92 792.592 335.712 797.132L405.442 843.341C401.162 853.061 398.822 863.935 396.229 874.239L386.608 912.416C380.602 909.725 368.449 901.282 362.424 897.364L274.298 838.567C261.846 830.273 249.426 821.704 236.794 813.713C248.396 805.624 260.062 797.628 271.792 789.725C278.071 785.458 289.288 777.269 295.796 774.589Z"/><path fill="#FC8982" transform="scale(0.390625 0.390625)" d="M957.323 485.19C964.127 485.31 967.527 490.64 967.57 496.772C967.643 507.059 965.686 519.181 964.438 529.402L956.292 594.077C951.073 598.692 938.69 606.173 932.413 610.402C915.243 621.973 897.52 632.94 880.287 644.464L873.766 649.084C875.114 631.751 879.692 606.642 882.346 588.887L886.358 561.996C889.159 543.308 890.84 534.143 903.525 519.148C916.379 503.954 936.988 487.309 957.323 485.19Z"/><path fill="#FEF5EB" transform="scale(0.390625 0.390625)" d="M462.577 666.044C464.241 665.871 467.61 665.703 469.045 666.442C477.27 670.681 485.835 676.719 493.52 681.854C512.808 694.551 531.757 707.754 550.347 721.452C523.175 737.996 511.722 754.95 500.076 783.932C497.48 781.865 494.054 779.698 491.238 777.825C486.319 774.351 481.808 772.403 477.201 769.248L424.096 732.666C417.618 728.26 404.269 719.822 398.745 715.204C397.985 711.168 400.379 707.643 403.51 705.357C412.708 698.641 422.995 691.233 432.686 685.293C440.296 680.629 454.767 668.931 462.577 666.044Z"/><path fill="#FEF5EB" transform="scale(0.390625 0.390625)" d="M381.296 719.636C387.961 719.744 411.629 737.175 419.03 742.183C436.079 753.541 453.037 765.034 469.904 776.661C449.189 788.709 427.439 806.722 414.401 826.991C413.228 828.814 411.897 831.66 410.222 832.945L409.188 832.532L354.03 795.052C344.478 788.568 325.268 777.321 318.607 768.545C318.373 765.215 317.844 761.074 319.912 758.201C322.593 754.478 368.233 724.869 374.241 721.726C376.64 720.471 378.614 719.977 381.296 719.636Z"/><path fill="#FC8982" transform="scale(0.390625 0.390625)" d="M684.404 665.121C689.25 664.402 692.08 668.703 691.673 673.122C688.442 708.143 681.85 742.885 677.663 777.815C675.066 779.391 672.431 781.355 669.897 783.065C646.078 799.139 621.945 814.626 598.229 830.864L593.411 834.066L606.358 767.726C608.619 756.046 610.54 741.616 613.904 730.491C622.648 701.564 655.343 671.682 684.404 665.121Z"/><path fill="#FC8982" transform="scale(0.390625 0.390625)" d="M498.883 788.447C499.84 788.959 500.49 789.319 501.208 790.164C508.205 798.398 497.004 852.193 494.854 864.9C492.618 877.704 490.554 890.537 488.663 903.397C463.432 922.611 430.999 939.893 405.349 958.717C404.163 959.589 402.59 960.527 401.318 961.332C407.039 938.386 412.416 915.355 417.448 892.248C419.995 881.057 422.737 867.364 426.201 856.709C434.232 832.002 458.231 813.954 479.208 800.182C485.045 796.349 492.604 791.497 498.883 788.447Z"/><path fill="#FC8982" transform="scale(0.390625 0.390625)" d="M773.618 605.108C778.761 604.505 784.438 612.92 783.837 616.771C778.675 649.859 775.044 685.029 768.854 717.848C762.517 722.339 754.912 727.002 748.353 731.325L696.313 765.563L689.297 770.265C693.198 746.92 696.02 723.214 699.796 699.927C702.489 683.321 701.908 668.559 711.168 654.243C722.761 636.32 752.184 609.586 773.618 605.108Z"/><path fill="#FC8982" transform="scale(0.390625 0.390625)" d="M862.901 546.609C871.03 545.683 876.981 547.518 875.896 556.942C872.051 590.334 865.266 623.795 861.184 657.12C837.86 671.856 813.867 688.316 790.609 703.504L781.943 709.223C784.788 688.459 787.833 667.723 791.077 647.018C793.055 634.213 794.894 610.257 800.525 600.023C813.942 575.64 836.362 555.124 862.901 546.609Z"/><path fill="#594251" transform="scale(0.390625 0.390625)" d="M701.353 388.078C705.937 382.193 717.946 376.757 724.847 374.443C741.909 368.72 763.681 370.408 777.986 382.145C792.127 393.747 802.196 413.381 795.522 431.686C786.398 434.286 782.039 435.609 775.444 443.205C773.963 444.91 772.516 447.353 771.071 448.824C764.962 466.194 760.155 481.667 771.65 498.106C762.465 503.961 746.817 509.288 735.485 508.019C731.682 507.593 726.838 501.317 722.883 500.233C722.597 500.094 722.311 499.955 722.025 499.816L721.507 499.572C733.315 490.935 740.306 480.069 743.277 465.736C745.178 456.565 740.323 439.815 729.14 449.794C723.401 454.915 725.428 463.95 720.329 469.078C720.272 469.178 720.216 469.277 720.16 469.377C718.02 465.202 717.151 454.491 713.298 448.295C706.657 437.615 696.986 428.61 691.495 417.467C693.065 415.992 691.516 411.771 691.132 409.476C691.288 402.154 693.466 397.781 697.553 392.042C698.628 390.523 699.998 389.353 701.353 388.078Z"/><path fill="#FEEFAC" transform="scale(0.390625 0.390625)" d="M715.397 395.456L716.291 395.87C716.752 398.669 717.142 402.566 717.852 405.197C721.2 417.6 728.772 429.326 739.265 436.857C744.236 440.425 748.552 442.021 754.16 443.97C757.498 445.13 769.295 447.407 771.071 448.824C764.317 449.695 753.922 445.578 747.537 443.55C731.663 438.508 711.546 412.648 715.397 395.456Z"/><path fill="#F7E3DE" transform="scale(0.390625 0.390625)" d="M697.553 392.042L698.05 393.083C695.969 396.764 694.82 399.255 693.397 403.285C692.884 404.736 691.78 408.362 691.132 409.476C691.288 402.154 693.466 397.781 697.553 392.042Z"/><path fill="#ACA3A2" transform="scale(0.390625 0.390625)" d="M701.353 388.078C700.14 390.551 699.841 390.985 698.05 393.083L697.553 392.042C698.628 390.523 699.998 389.353 701.353 388.078Z"/><path fill="#FEEFAC" transform="scale(0.390625 0.390625)" d="M720.124 390.663C742.686 391.108 749.181 407.098 761.66 422.648C762.856 424.138 765.016 426.547 765.501 428.214L764.654 427.833C752.214 415.76 747.567 401.371 731.311 394.828C725.407 392.452 720.607 393.11 717.783 392.099C718.521 390.747 718.054 391.367 720.124 390.663Z"/><path fill="#FC8982" transform="scale(0.390625 0.390625)" d="M583.843 732.126C605.497 729.93 597.342 751.572 594.837 764.494C592.043 779.173 589.157 793.833 586.177 808.475C584.511 816.702 580.323 835.198 580.484 842.589C572.396 847.434 561.711 855.126 553.661 860.527L511.769 888.185L501.523 895.189C504.988 874.8 508.923 854.382 512.57 834.005C515.001 822.087 515.924 809.061 519.638 797.501C528.581 769.663 553.843 737.63 583.843 732.126Z"/><path fill="#FEF5EB" transform="scale(0.390625 0.390625)" d="M479.876 774.886C485.19 776.044 493.099 782.466 497.437 785.863C494.739 787.306 492.074 788.809 489.445 790.373C464.685 805.138 435.08 824.99 424.478 852.667C420.753 862.392 417.947 876.552 415.551 886.968C410.16 911.324 404.497 935.62 398.562 959.85C394.723 957.832 385.558 951.237 381.47 948.477L346.628 925.005C311.531 901.91 276.581 878.591 241.78 855.051C236.995 851.369 229.716 846.895 224.495 843.504L224.358 819.124C264.424 846.362 304.671 873.332 345.096 900.033C356.838 907.68 368.89 916.423 381.22 923.059C382.255 923.591 383.675 923.456 384.611 922.81C389.636 919.338 390.854 908.172 392.276 902.511C394.746 893.005 397.153 883.482 399.498 873.944C401.261 866.771 403.197 858.196 405.525 851.283C416.216 819.54 449.758 789.277 479.876 774.886Z"/><path fill="#FC8982" transform="scale(0.390625 0.390625)" d="M796.856 502.193C797.906 502.078 799.199 501.696 799.961 502.598C809.929 514.384 810.738 534.587 811.004 548.774C793.77 564.943 784.109 577.836 774.124 599.218C770.377 596.474 763.744 591.031 759.469 590.48C748.031 589.007 730.035 603.732 721.289 610.248L721.59 596.375C721.959 577.045 713.95 552.933 689.432 559.002C697.996 544.373 709.275 535.326 723.658 526.536C726.097 528.345 729.934 530.826 733.045 530.837C754.58 530.915 772.567 518.931 787.011 503.733C790.341 503.122 793.503 502.663 796.856 502.193Z"/><path fill="#FC8982" transform="scale(0.390625 0.390625)" d="M577.966 609.196C609.205 604.593 653.249 622.121 640.553 660.737C638.026 663.212 633.473 666.208 630.814 668.45C618.653 678.706 614.055 679.616 598.76 681.891C580.96 683.517 563.603 680.358 548.955 669.793C535.412 660.025 526.754 641.874 538.775 627.218C548.165 615.768 563.841 610.882 577.966 609.196Z"/><path fill="#231B27" transform="scale(0.390625 0.390625)" d="M596.697 615.416C607.914 615.264 624.818 628.762 629.977 638.229C638.81 654.442 624.722 664.489 612.48 670.497C606.128 673.193 593.168 677.418 586.394 673.811C581.762 670.612 586.724 663.158 588.403 660.193C593.315 651.515 598.896 644.34 598.584 634.035C598.403 628.055 597.03 623.688 595.427 617.971C595.112 616.848 596.028 616.222 596.697 615.416Z"/><path fill="#FEF5EB" transform="scale(0.390625 0.390625)" d="M598.643 618.362C599.409 618.549 600.169 618.757 600.923 618.984C612.382 622.365 634.076 638.162 628.669 652.451C625.769 660.116 618.625 664.117 611.675 667.494C606.977 669.682 601.988 671.181 596.863 671.943C594.039 672.341 589.969 672.928 587.661 671.214C584.746 662.353 609.383 648.936 598.643 618.362Z"/><path fill="#171112" transform="scale(0.390625 0.390625)" d="M612.346 632.588C613.68 632.779 614.174 632.692 615.191 633.539C615.977 638.518 618.761 636.422 621.025 639.285C620.275 640.853 620.756 640.119 618.995 641.281C617.478 640.789 616.938 640.524 615.312 640.518L614.614 641.334C614.437 643.747 614.155 642.717 615.085 644.63C616.503 645.246 617.324 644.918 618.888 644.662L619.535 644.552L620.126 645.107C619.382 650.651 614.003 648.327 611.124 646.212C609.472 647.428 608.14 648.755 606.648 650.157C605.835 651.122 605.681 651.082 604.531 651.668C602.543 651.468 603.428 651.793 601.779 650.642C600.962 648.882 601.069 649.765 601.37 647.91C602.595 646.586 601.886 646.845 603.358 646.634C603.615 647.526 603.793 648.125 604.131 648.988C607.346 646.327 608.62 645.329 612.196 643.237C608.515 642.529 606.86 641.543 603.909 642.859C602.231 641.547 602.79 642.347 602.063 640.452C602.768 636.283 608.351 633.051 612.346 632.588Z"/><path fill="#FEF5EB" transform="scale(0.390625 0.390625)" d="M609.014 635.849C610.686 635.718 610.628 635.621 612.149 636.256C613.286 637.745 613.044 636.943 613.052 638.693C612.227 640.151 612.259 640.034 610.776 640.855C608.759 640.617 607.559 640.7 606.359 639.277C606.683 637.652 607.745 637.005 609.014 635.849Z"/><path fill="#171112" transform="scale(0.390625 0.390625)" d="M596.506 656.662C599.685 656.39 604.364 655.711 606.577 658.68C603.827 659.947 598.991 658.35 597.08 660.247C597.132 661.639 596.93 660.965 598.145 662.171C599.062 661.169 599.587 660.323 600.873 660.04L601.505 660.669C600.398 668.687 589.556 662.032 596.506 656.662Z"/><path fill="#231B27" transform="scale(0.390625 0.390625)" d="M573.42 620.146C576.313 620.016 583.965 619.681 585.429 621.152C595.52 631.544 580.931 651.67 574.666 660.937C569.718 668.254 568.98 671.736 561.197 665.913C556.999 660.164 556.275 663.747 551.306 661.322C546.405 659.66 547.814 652.585 546.819 651.309C536.014 637.451 553.541 624.89 573.42 620.146Z"/><path fill="#FEF5EB" transform="scale(0.390625 0.390625)" d="M553.857 652.489C555.362 651.521 555.157 652.034 555.794 650.762C553.055 648.681 546.982 651.411 546.327 644.027C546.043 640.818 546.359 638.676 548.992 636.569L549.378 636.96C549.926 637.505 549.696 637.297 550.29 637.764C550.561 636.351 550.509 636.862 550.28 635.385C552.584 631.423 565.964 624.874 570.619 623.863C599.774 617.531 579.967 648.495 572.743 658.079C567.292 659.057 556.985 661.264 551.879 657.916C549.963 656.66 549.732 653.167 551.177 651.301L552.156 651.103C553.185 651.891 553.129 651.817 553.602 653.024L553.857 652.489Z"/><path fill="#271D20" transform="scale(0.390625 0.390625)" d="M554.275 646.904C550.835 639.057 556.104 631.949 563.163 638.713C565.686 641.131 568.502 648.365 565.447 651.432C565.1 651.774 558.014 656.203 557.584 656.296C555.829 655.946 554.52 654.508 553.602 653.024L553.857 652.489C555.327 652.928 555.828 653.21 557.345 652.905C559.323 650.619 556.549 648.539 554.833 647.299L554.275 646.904Z"/><path fill="#FEF5EB" transform="scale(0.390625 0.390625)" d="M560.971 641.806C565.535 643.29 564.845 648.782 561.41 650.897C560.054 649.063 557.56 646.53 557.413 644.616C558.504 642.718 558.715 643.072 560.971 641.806Z"/><defs><linearGradient id="gradient_3" gradientUnits="userSpaceOnUse" x1="567.5932" y1="637.38757" x2="573.00287" y2="625.65674"><stop offset="0" stop-color="#09090A"/><stop offset="1" stop-color="#272124"/></linearGradient></defs><path fill="url(#gradient_3)" transform="scale(0.390625 0.390625)" d="M566.054 626.571C589.003 624.391 579.237 637.859 575.029 634.449C575.623 632.257 576.216 631.604 574.915 629.704C572.924 628.777 571.219 629.004 568.986 629.003C567.103 629.518 567.056 629.5 565.389 630.464C564.857 631.914 564.806 631.245 565.399 632.543C567.642 633.517 568.984 632.212 571.672 632.795C571.368 635.279 567.74 637.466 565.217 636.928C563.933 636.654 562.822 635.858 562.149 634.732C559.862 630.831 563.085 628.28 566.054 626.571Z"/><path fill="#F7E3DE" transform="scale(0.390625 0.390625)" d="M568.782 661.71L569.994 661.647C569.986 663.489 568.56 664.804 567.194 665.838L565.946 665.574L561.574 662.785L568.782 661.71Z"/><path fill="#ACA3A2" transform="scale(0.390625 0.390625)" d="M662.114 2.57168L690.266 2.6682C690.538 10.8663 690.266 20.7214 690.237 29.0782L690.025 81.5287L689.383 235.846L689.002 342.48C688.908 367.483 689.081 392.497 687.496 417.451C678.745 411.976 667.443 402.833 658.943 396.44C658.646 396.047 658.842 396.351 658.629 395.403C661.312 393.21 662.338 392.496 664.421 389.71C664.33 373.513 664.335 357.316 664.437 341.119C670.221 336.826 676.647 332.796 682.604 328.492C681.924 245.9 683.366 161.988 683.507 79.266C680.335 76.968 676.472 73.5316 673.407 70.9545C667.177 74.4265 656.608 82.2834 650.519 86.5526L649.929 56.6694C661.799 42.4222 661.908 20.1962 662.114 2.57168Z"/><path fill="#FEF5EB" transform="scale(0.390625 0.390625)" d="M77.126 336.383C77.2559 336.504 89.1011 358.402 90.7935 361.158C89.8855 368.347 90.4618 389.355 90.4637 397.424L90.4583 470.669L90.3381 719.121L90.163 779.413C90.1435 785.917 90.4067 805.285 89.3483 810.623C85.6769 812.722 80.346 807.437 77.6477 804.936L77.4623 491.362C77.4623 440.417 78.278 387.058 77.126 336.383Z"/><path fill="#FEF5EB" transform="scale(0.390625 0.390625)" d="M93.4646 366.327C95.3275 368.09 102.798 379.393 106.449 383.414C105.829 393.309 106.387 408.666 106.416 418.992L106.502 487.424L106.47 708.673L106.477 771.623C106.476 777.475 106.841 796.503 105.848 800.976C101.812 800.756 96.6799 796.907 93.1136 794.615L93.4646 366.327Z"/><path fill="#FEF5EB" transform="scale(0.390625 0.390625)" d="M683.956 656.5C674.887 649.234 676.144 651.87 667.924 647.699C660.824 644.095 647.664 632.879 640.579 627.99C641.452 628.592 630.204 618.466 630.21 618.471C625.144 613.86 590.685 591.757 589.197 587.883C589.313 586.15 589.009 585.52 589.927 584.567C592.583 585.909 595.224 588.001 597.608 589.842C619.756 606.943 642.443 623.234 664.989 639.798C666.92 641.217 670.682 644.269 672.833 644.784L673.36 643.277C672.797 640.249 670.305 639.551 668.022 637.926C644.306 621.048 620.932 603.713 597.644 586.253C594.838 584.148 592.478 582.652 590.628 579.574C590.986 574.241 616.28 559.908 621.082 554.729C622.911 556.942 624.744 558.603 626.813 560.574L625.845 561.806C620.223 569.376 630.376 573.39 635.851 575.976C640.236 578.047 644.466 580.03 649.219 581.095C655.705 597.199 663.212 613.608 672.226 628.497C674.197 631.753 676.81 637.238 681.054 636.813C683.503 632.996 686.351 574.11 688.201 563.31L688.329 562.586C697.313 559.876 705.166 560.669 711.414 568.515C720.681 580.154 718.942 598.692 717.734 612.614C704.075 625.749 691.325 638.435 683.956 656.5Z"/><path fill="#FEF5EB" transform="scale(0.390625 0.390625)" d="M109.348 386.886C114.97 391.464 115.675 394.134 123.168 397.914C122.72 426.992 123.068 457.002 123.028 486.189L123.005 688.866C123.146 722.3 122.985 755.735 122.524 789.166C118.47 789.015 112.793 784.648 109.487 782.337L109.521 519.466L109.507 427.223C109.495 413.885 109.167 400.15 109.348 386.886Z"/><path fill="#ACA3A2" transform="scale(0.390625 0.390625)" d="M64.1474 302.395C65.872 304.468 70.7663 322.604 72.7744 326.352C75.0403 330.582 74.468 342.404 74.4653 347.728L74.4953 373.231L74.5096 457.04L74.5753 689.371L74.5418 769.098C74.5587 785.086 74.3124 801.61 75.0314 817.528L71.4963 819.887C69.8855 821.177 69.6606 821.453 67.7825 822.185C66.9989 822.106 66.2911 822.218 65.8265 821.651C62.8246 817.987 64.1567 805.776 64.166 801.698L64.0722 768.825L63.9068 663.233L64.1474 302.395Z"/><path fill="#FEF5EB" transform="scale(0.390625 0.390625)" d="M126.322 398.614C132.149 400.244 133.926 400.615 139.966 400.551C139.171 433.29 139.737 467.448 139.598 500.286C139.21 592.044 140.604 684.265 139.409 775.992C136.477 777.291 129.094 770.766 125.895 768.806L126.038 523.62L126.105 442.177C126.119 428.582 125.643 411.874 126.322 398.614Z"/><path fill="#FEF5EB" transform="scale(0.390625 0.390625)" d="M563.362 115.481L563.727 115.853C564.135 118.724 563.943 125.527 563.946 128.638L563.96 154.347L563.975 242.523L564.054 422.305L564.056 460.487C564.068 465.605 564.421 477.866 563.55 482.252C560.59 486.612 555.62 485.448 551.276 484.272C549.549 482.484 550.169 474.306 550.179 471.436L550.255 448.926L550.263 377.235L550.42 121.349C556.09 119.65 558.345 118.617 563.362 115.481Z"/><path fill="#FEF5EB" transform="scale(0.390625 0.390625)" d="M576.234 89.384C579.22 93.2901 575.542 140.065 578.968 147.471C578.932 147.394 578.962 164.912 578.97 166.553L579.158 212.213L579.278 386.117C580.035 387.312 580.905 388.464 581.735 389.615C581.742 397.896 582.87 467.651 581.257 470.06C579.628 472.494 576.849 472.912 574.173 473.438C571.168 472.506 569.632 471.677 566.999 470.12L566.781 112.093C572.568 102.709 573.331 99.9008 576.234 89.384Z"/><path fill="#FEF5EB" transform="scale(0.390625 0.390625)" d="M154.912 393C155.779 395.451 155.293 430.894 155.291 435.859L155.107 572.168C155.029 634.137 155.581 696.19 155.455 758.166C155.45 760.59 155.443 762.335 154.868 764.698L154.129 764.907C151.442 764.238 149.414 762.838 147.005 761.438L142.692 758.836L142.706 400.157C148.376 398.129 150.1 396.762 154.912 393Z"/><path fill="#ACA3A2" transform="scale(0.390625 0.390625)" d="M64.3214 266.939C77.7662 275.905 90.8383 287.026 104.152 296.372C110.797 301.038 118.29 306.49 124.542 311.578C124.677 337.359 125.29 369.631 124.342 395.139C119.398 392.605 112.724 386.315 108.958 381.827C87.9782 356.824 71.841 322.307 64.6967 290.474C63.7988 286.473 64.055 271.188 64.3214 266.939Z"/><path fill="#FEF5EB" transform="scale(0.390625 0.390625)" d="M579.062 597.203C595.508 595.841 598.104 599.634 611.012 608.47C595.528 605.023 584.059 604.872 568.07 607.794C528.937 614.945 514.473 651.747 551.542 675.183C570.026 686.869 593.275 687.377 614.783 681.951L608.582 689.728C601.778 698.955 599.152 704.604 594.442 714.838C570.62 716.326 557.689 713.705 537.169 699.111C526.091 690.749 515.783 676.019 514.698 661.825C511.766 623.46 545.553 600.8 579.062 597.203Z"/><path fill="#FEF5EB" transform="scale(0.390625 0.390625)" d="M326.75 176.409C328.439 177.687 327.732 245.092 327.163 252.769C325.945 269.207 313.052 295.972 292.278 286.182L288.118 283.501C288.102 256.36 288.225 229.22 288.485 202.08C301.181 193.42 314.094 185.179 326.75 176.409Z"/><path fill="#FEF5EB" transform="scale(0.390625 0.390625)" d="M409.72 120.922C410.151 121.233 410.176 121.452 410.481 121.973C410.728 127.332 410.604 132.743 410.546 138.099C410.335 157.562 411.228 176.911 409.882 196.332C408.65 214.118 395.239 238.56 374.44 228.827L370.438 226.293C371.222 200.43 370.76 173.124 370.702 147.171L409.72 120.922Z"/><path fill="#FEF5EB" transform="scale(0.390625 0.390625)" d="M245.766 230.443C245.861 230.562 245.975 230.668 246.052 230.801C246.975 232.401 246.701 296.982 246.165 304.917C245.867 309.695 244.985 314.418 243.539 318.982C238.87 333.299 226.227 345.069 210.336 339.275C208.778 338.506 208.676 338.512 207.308 337.324C206.712 330.455 207.095 316.843 207.09 309.46L207.051 256.426C211.139 253.176 217.32 249.367 221.781 246.432C229.833 241.189 237.829 235.859 245.766 230.443Z"/><path fill="#FEF5EB" transform="scale(0.390625 0.390625)" d="M492.607 63.9041L493.11 64.0572C494.759 68.2526 492.649 111.866 493.569 120.084C495.713 139.226 488.859 183.586 458.932 172.212C457.535 171.448 455.861 170.364 454.469 169.52L454.482 90.0793L492.607 63.9041Z"/><path fill="#FEF5EB" transform="scale(0.390625 0.390625)" d="M164.906 285.414C166.121 291.049 165.944 363.533 164.452 370.371C162.39 379.82 156.537 389.122 148.191 394.217C142.052 397.963 136.122 398.113 129.346 396.498C128.718 396.166 128.201 395.804 127.605 395.417C126.987 390.937 127.336 373.042 127.332 367.679C127.244 348.893 127.281 330.106 127.443 311.321C131.625 307.608 137.621 303.839 142.364 300.715C150.043 295.656 157.446 290.803 164.906 285.414Z"/><path fill="#FEF5EB" transform="scale(0.390625 0.390625)" d="M575.005 8.56829L575.418 9.21026C575.797 17.6865 575.541 28.4826 575.47 37.2738C575.304 58.0991 577.297 82.4053 569.335 101.922C566.453 108.986 561.52 114.633 554.277 117.113C547.823 119.322 544.736 118.222 538.956 115.598L535.269 113.455C537.022 103.903 536.598 91.3694 536.618 81.426C536.551 65.4962 536.639 49.5661 536.88 33.638C549.344 24.9169 562.058 16.5568 575.005 8.56829Z"/><path fill="#FC8982" transform="scale(0.390625 0.390625)" d="M450.927 92.992L451.485 93.9495C452.309 113.781 450.77 134.522 451.641 154.194C452.555 174.84 445.275 211.227 416.44 201.191L412.837 198.875C413.807 188.238 413.531 176.949 413.536 166.202L413.534 118.871C425.859 110.045 438.325 101.418 450.927 92.992Z"/><path fill="#FC8982" transform="scale(0.390625 0.390625)" d="M367.469 149.094C369.241 152.66 367.583 214.889 367.506 225.176C367.377 242.354 355.752 266.457 333.205 257.901L329.877 255.77C330.66 243.88 330.489 232.16 330.488 220.25L330.465 173.993C334.536 170.894 341.066 166.884 345.458 163.919C352.747 158.998 360.133 153.895 367.469 149.094Z"/><path fill="#FC8982" transform="scale(0.390625 0.390625)" d="M203.755 258.405L204.326 259.225C204.8 268.048 204.562 281.914 204.385 291.372C203.392 309.395 206.651 330.724 203.077 348.222C199.876 363.892 184.448 372.314 169.263 368.074C168.833 367.911 169.045 368.031 168.597 367.587C168.089 367.083 168.071 291.52 168.014 283.08C179.504 275.25 192.776 266.664 203.755 258.405Z"/><path fill="#FEF5EB" transform="scale(0.390625 0.390625)" d="M105.83 236.953C109.103 239.256 112.367 241.645 115.521 244.11C131.633 256.703 148.607 268.638 164.102 281.971C156.156 288.359 145.724 294.61 137.271 300.56C135.005 302.155 127.306 307.653 125.16 308.603C118.343 302.91 109.086 296.44 101.849 291.079C89.7991 282.039 77.6845 273.084 65.5065 264.216C78.6418 254.684 92.0904 245.592 105.83 236.953Z"/><path fill="#FC8982" transform="scale(0.390625 0.390625)" d="M284.707 204.419L285.184 204.504C286.742 207.947 284.66 260.692 285.451 269.491C287.143 288.3 278.767 321.109 252.004 313.205L249.343 311.689C248.492 310.187 248.977 294.838 248.988 291.777L248.982 228.353C260.76 220.223 272.851 212.779 284.707 204.419Z"/><path fill="#FEF5EB" transform="scale(0.390625 0.390625)" d="M352.374 72.8784C369.809 87.4285 392.596 102.492 409.182 117.803L369.313 144.585C365.066 142.699 316.089 103.426 312.452 99.8159C324.945 90.5802 339.32 81.4338 352.374 72.8784Z"/><path fill="#FC8982" transform="scale(0.390625 0.390625)" d="M533.482 36.4679C533.845 38.5889 533.779 43.6147 533.707 45.9312C533.062 66.8444 534.641 88.9425 532.91 109.682C531.79 123.099 525.3 140.406 511.445 144.756C506.678 146.253 503.153 144.583 498.974 142.471L495.86 140.577C496.823 132.771 496.436 119.134 496.434 110.691L496.511 61.3708L533.482 36.4679Z"/><path fill="#FEF5EB" transform="scale(0.390625 0.390625)" d="M269.456 128.073C287.786 143.25 307.883 157.782 326.671 172.633C317.036 180.171 297.896 192.229 287.247 199.123C285.383 198.203 272.481 187.699 270.18 185.916C256.638 175.424 243.299 164.609 229.478 154.468C242.518 145.244 255.851 136.441 269.456 128.073Z"/><path fill="#FEF5EB" transform="scale(0.390625 0.390625)" d="M436.279 16.3705C453.974 30.2191 475.144 45.968 492.002 60.5588C481.113 69.2879 464.453 79.9406 452.59 87.838C447.739 82.9883 438.787 76.3496 433.188 71.991L396.16 43.5957C409.465 34.4209 422.838 25.3456 436.279 16.3705Z"/><path fill="#FC8982" transform="scale(0.390625 0.390625)" d="M393.555 45.0451C398.102 49.0835 403.763 52.9374 408.537 56.7676C421.826 67.4283 437.749 78.3837 450.409 89.6611C437.886 98.5609 424.75 107.226 412.072 116.154C410.064 115.237 399.201 105.752 396.602 103.682C382.854 92.7779 369.031 81.9703 355.132 71.2594C365.839 62.9962 382.024 52.4972 393.555 45.0451Z"/><path fill="#FEF5EB" transform="scale(0.390625 0.390625)" d="M187.062 182.516C192.15 187.244 203.173 195.344 208.938 199.746C221.026 208.928 233.053 218.191 245.018 227.534C232.026 235.828 219.408 244.709 206.405 252.956C187.44 237.559 167.938 223.268 148.709 208.29C160.338 199.69 174.824 190.582 187.062 182.516Z"/><path fill="#FC8982" transform="scale(0.390625 0.390625)" d="M145.953 209.932C158.088 219.664 171.041 228.888 183.314 238.499C190.252 243.932 197.167 248.83 203.558 254.97C195.826 261.513 175.843 274.177 166.698 280.316C161.406 275.17 153.614 269.706 147.759 265.069C134.982 254.953 121.086 245.282 108.415 235.104C120.871 226.63 133.384 218.238 145.953 209.932Z"/><path fill="#FC8982" transform="scale(0.390625 0.390625)" d="M226.81 155.953C233.549 160.461 246.242 170.909 253.031 176.209C261.745 183.012 276.622 193.96 284.345 201.229C272.579 209.245 259.813 218.08 247.839 225.653C240.975 220.98 233.366 214.8 226.674 209.679C214.241 200.268 201.911 190.722 189.686 181.042C201.291 172.519 214.701 163.867 226.81 155.953Z"/><path fill="#FC8982" transform="scale(0.390625 0.390625)" d="M309.281 101.387C311.027 102.362 313.67 104.743 315.299 106.099C331.997 120 349.856 132.755 366.534 146.637C362.394 148.943 356.511 153.113 352.408 155.841L329.359 170.977C310.404 157.166 290.618 140.876 271.868 126.475L309.281 101.387Z"/><path fill="#ACA3A2" transform="scale(0.390625 0.390625)" d="M3.3677 839.62C9.65589 842.952 17.9585 848.693 24.0873 852.678C34.4216 859.412 44.802 866.076 55.2279 872.668L239.972 990.727C246.319 994.804 283.524 1017.2 286.721 1020.95C281.427 1021.16 274.78 1020.97 269.384 1020.95C261.999 1015.13 252.703 1009.53 244.731 1004.54C234.398 998.093 224.111 991.575 213.871 984.985L74.6024 895.855L31.1529 868.251C22.9049 863.08 10.5895 855.939 3.22672 850.297C3.34795 846.843 3.3228 843.102 3.3677 839.62Z"/><path fill="#FEF5EB" transform="scale(0.390625 0.390625)" d="M820.498 456.809C835.214 467.245 851.669 477.026 866.605 487.4C873.309 492.057 880.793 496.262 887.266 501.269C878.246 511.53 870.64 522.953 864.65 535.232C862.479 533.569 860.229 532.021 857.991 530.447C846.489 524.601 838.884 530.64 828.674 536.249C828.081 516.316 820.58 508.296 803.159 500.761C808.488 495.712 814.478 494.323 820.818 490.743C835.811 482.278 828.438 467.73 820.498 456.809Z"/><path fill="#FC8982" transform="scale(0.390625 0.390625)" d="M583.48 2.60075C593.939 2.4868 604.4 2.46606 614.86 2.53853L614.868 3.00778C615.075 17.9222 616.544 53.9689 613.167 66.5301C611.358 73.2554 607.997 79.0543 603.155 84.0286C594.225 91.394 586.859 91.8563 576.853 85.9522C578.596 76.1103 578.403 59.2309 578.412 49.1117L578.529 5.89475L583.48 2.60075Z"/><path fill="#FC8982" transform="scale(0.390625 0.390625)" d="M455.257 2.58085C469.346 2.46217 483.436 2.45294 497.525 2.55317C502.009 5.28256 509.972 11.9441 514.235 15.4325C520.114 20.2427 529.137 26.9796 534.135 32.4C525.777 37.8936 517.488 43.4899 509.268 49.1878C504.429 52.5492 499.533 55.827 494.581 59.0196C477.495 44.8443 456.647 27.8759 438.829 14.626C443.288 11.5289 451.611 6.04499 455.257 2.58085Z"/><path fill="#594251" transform="scale(0.390625 0.390625)" d="M779.843 498.394C760.297 490.687 767.122 458.665 777.025 445.731C780.47 441.233 786.16 436.35 791.973 435.667C795.253 435.281 796.124 436.158 798.512 438.094C803.114 440.436 801.367 442.834 804.693 444.251C814.127 452.624 827.115 467.109 825.871 480.574C823.43 489.321 812.75 491.959 805.402 495.314C798.919 498.274 791.644 500.847 784.521 500.45C783.775 500.408 780.794 498.644 779.843 498.394Z"/><path fill="#FEEFAC" transform="scale(0.390625 0.390625)" d="M779.843 498.394C760.297 490.687 767.122 458.665 777.025 445.731C780.47 441.233 786.16 436.35 791.973 435.667C795.253 435.281 796.124 436.158 798.512 438.094C778.741 439.342 769.891 460.329 771.084 477.752C771.611 485.436 773.095 489.574 778.259 495.425C779.104 496.444 780.458 497.328 779.843 498.394Z"/><path fill="#FEEFAC" transform="scale(0.390625 0.390625)" d="M804.693 444.251C814.127 452.624 827.115 467.109 825.871 480.574C824.515 478.448 822.391 471.067 819.558 466.45C816.486 461.442 805.001 448.059 804.693 444.251Z"/><path fill="#FEEFAC" transform="scale(0.390625 0.390625)" d="M785.655 446.762C786.382 448.395 786.35 451.507 786.418 453.391C786.798 463.854 788.366 469.144 794.018 477.69C797.692 483.246 807.34 487.957 808.747 490.041L808.171 491.347C791.843 487.531 778.282 461.201 785.655 446.762Z"/><path fill="#FEF5EB" transform="scale(0.390625 0.390625)" d="M667.583 652.076C674.971 651.508 679.94 657.166 685.157 661.8C657.778 667.321 626.052 694.572 614.813 719.913C608.029 735.209 605.02 758.009 601.734 774.971L589.843 835.891C589.001 837.034 584.882 839.656 583.48 840.617C587.702 812.06 595.008 783.315 599.863 754.815C600.685 749.989 602.006 744.246 601.31 739.361C600.578 734.228 595.84 731.303 594.498 726.198C596.702 717.705 600.16 708.019 604.764 700.513C617.415 679.888 644.138 658.13 667.583 652.076Z"/><path fill="#FEF5EB" transform="scale(0.390625 0.390625)" d="M847.542 531.06C856.078 530.096 862.771 538.417 870.438 542.999L871.062 543.368C845.057 540.897 804.73 579.589 796.284 602.165C791.774 614.221 789.244 639.593 787.215 653.304C784.619 670.847 781.164 690.066 779.355 707.537C779.02 712.195 775.858 713.364 772.298 715.967C773.685 708.8 774.737 699.318 775.79 691.954L781.253 655.478C783.086 642.987 785.587 628.453 786.467 615.858C786.852 610.347 780.658 604.774 776.852 601.243C788.097 572.869 812.411 546.543 840.174 533.66C842.663 532.505 844.889 531.729 847.542 531.06Z"/><path fill="#FEF5EB" transform="scale(0.390625 0.390625)" d="M569.117 718.139C571.165 717.864 573.239 717.857 575.288 718.119C583.14 719.189 588.864 723.401 593.415 729.593C578.125 728.196 569.955 732.119 557.175 740.639C537.761 753.579 520.897 779.728 515.175 802.144C512.989 810.71 510.709 826.126 509.039 835.494L499.877 886.707C499.104 890.656 498.51 893.178 498.464 897.176L491.763 901.736C494.662 887.298 496.888 871.685 499.385 857.009C502.58 838.233 506.988 818.034 506.465 798.968C506.323 793.808 505.291 790.878 503.05 786.379C505.101 777.102 513.161 762.055 518.648 754.287C530.187 737.953 548.859 721.655 569.117 718.139Z"/><path fill="#FEF5EB" transform="scale(0.390625 0.390625)" d="M937.688 470.083C944.514 469.518 954.018 477.735 959.79 481.899C942.326 482.684 926.753 493.47 913.604 504.259C883.196 529.211 884.28 555.994 878.8 592.127L873.668 626.868C872.57 634.538 871.215 642.705 870.812 650.399C870.295 651.817 865.75 654.188 864.218 655.107C867.22 641.022 868.425 624.9 870.948 610.532C873.837 594.077 875.741 577.161 878.57 560.672C880.477 549.552 875.854 543.758 867.192 537.543C877.969 511.78 909.552 476.03 937.688 470.083Z"/><path fill="#FEF5EB" transform="scale(0.390625 0.390625)" d="M756.874 593.15C762.727 593.811 767.929 598.312 772.783 601.765C747.805 609.145 705.489 644.315 701.428 669.358C696.05 702.532 691.665 738.885 686.279 772.335L680.808 775.72C684.771 742.294 690.721 709.01 694.662 675.582C695.652 667.191 691.305 663.731 686.078 657.998C692.258 645.133 703.217 630.051 713.884 620.516C723.981 611.49 743.512 595.25 756.874 593.15Z"/><path fill="#FEF5EB" transform="scale(0.390625 0.390625)" d="M691.921 435.149C689.667 433.147 690.504 421.109 690.822 417.827L691.495 417.467C696.986 428.61 706.657 437.615 713.298 448.295C717.151 454.491 718.02 465.202 720.16 469.377C720.922 471.429 720.926 472.533 722.462 473.668L723.687 473.174C727.421 467.891 727.302 445.76 737.207 450.698C742.573 453.372 741.778 467.142 738.541 471.413C735.596 475.3 734.647 473.996 730.883 474.811C730.417 476.2 730.427 475.499 731.021 476.977C732.718 478.022 734.807 477.708 736.873 477.676C729.815 491.056 716.031 507.818 701.36 493.122C697.175 488.93 695.547 486.463 692.478 481.547C685.31 470.067 688.655 461.135 690.691 448.853C691.061 446.28 690.817 441.627 690.695 438.877L690.377 438.332C690.762 436.88 691.148 436.403 691.921 435.149Z"/><path fill="#271D20" transform="scale(0.390625 0.390625)" d="M691.921 435.149C694.409 436.445 697.975 438.907 698.976 441.616L698.319 442.35C694.81 442.377 693.777 438.623 691.115 438.279L690.695 438.877L690.377 438.332C690.762 436.88 691.148 436.403 691.921 435.149Z"/><path fill="#FEF5EB" transform="scale(0.390625 0.390625)" d="M618.013 2.5017L659.195 2.55421C659.423 19.4163 658.775 37.4669 649.669 51.9826C641.079 63.3867 629.4 61.5285 617.968 56.6779C618.166 38.7044 618.016 20.4931 618.013 2.5017Z"/><path fill="#FEF5EB" transform="scale(0.390625 0.390625)" d="M690.922 513.38C693.393 513.663 711.156 526.472 714.332 528.781L712.308 530.307C678.724 555.753 687.117 560.27 682.159 596.421C675.813 590.177 665.575 577.687 662.269 569.02C661.708 567.551 661.698 564.141 661.666 562.441C666.346 557.471 670.331 554.065 670.949 546.843C671.531 540.051 670.736 536.755 667.187 531.103C675.657 523.599 681.548 519.276 690.922 513.38Z"/><path fill="#FEF5EB" transform="scale(0.390625 0.390625)" d="M227.574 812.89C232.142 813.253 240.717 819.794 244.814 822.514L272.713 841.153C306.317 863.851 340.237 886.157 374.01 908.605C377.087 910.651 384.353 913.761 385.613 916.99C385.052 918.966 385.127 918.416 383.313 920.026C378.467 919.719 359.827 906.241 354.57 902.739L310.976 873.757L248.476 831.884C241.584 827.213 234.703 822.424 227.591 818.073C226.422 817.358 225.553 816.374 225.182 815.029C225.876 813.459 225.717 813.931 227.574 812.89Z"/><path fill="#FEF5EB" transform="scale(0.390625 0.390625)" d="M627.909 366.606C629.035 370.832 628.064 429.096 627.565 437.332C627.519 438.097 625.589 439.799 624.598 440.265C621.343 441.797 617.847 440.612 614.645 439.565C613.69 438.82 612.953 438.449 612.879 437.088C612.532 430.691 612.711 424.108 612.7 417.701L612.714 376.759C617.48 373.335 622.962 369.866 627.909 366.606Z"/><path fill="#FEF5EB" transform="scale(0.390625 0.390625)" d="M505.311 2.76558C519.447 2.36325 534.123 2.66494 548.297 2.54971C553.116 2.51054 567.347 2.26899 571.391 3.02012C571.908 4.02135 572.316 4.75333 572.712 5.80974C570.907 7.7889 560.205 14.4139 557.211 16.3454C550.345 20.755 543.559 25.2879 536.856 29.9419C531.942 25.718 506.267 5.89588 504.401 3.14113L505.311 2.76558Z"/><path fill="#FEF5EB" transform="scale(0.390625 0.390625)" d="M518.469 628.526L518.807 628.868C518.676 629.726 518.671 629.774 518.275 630.532C516.554 633.863 515.085 637.319 513.881 640.87C507.171 660.593 513.534 671.235 521.821 688.234C516.825 685.128 510.257 680.259 505.345 676.828C498.197 671.612 490.742 666.986 483.407 661.526C483.435 648.658 494.09 645.2 503.27 638.466C508.022 634.98 513.501 631.752 518.469 628.526Z"/><path fill="#FEF5EB" transform="scale(0.390625 0.390625)" d="M644.386 354.893C645.342 358.182 644.8 413.137 644.608 420.722C644.568 422.312 644.304 423.914 642.79 424.861C639.576 426.874 635.891 425.914 632.583 425.154L631.441 424.297C629.908 419.308 631.02 372.123 631.032 364.085C635.544 361.11 639.996 358.045 644.386 354.893Z"/><path fill="#FEF5EB" transform="scale(0.390625 0.390625)" d="M656.787 566.078C658.997 569.442 661.901 574.81 664.174 578.487C669.921 587.787 674.732 593.383 682.044 601.375C681.426 607.546 680.148 627.542 678.971 632.456L678.413 632.615L677.152 631.126C667.915 615.395 653.452 587.213 648.963 569.97C652.36 568.809 653.983 568.343 656.787 566.078Z"/><path fill="#FEF5EB" transform="scale(0.390625 0.390625)" d="M638.669 494.575C646.813 493.998 661.759 494.649 664.591 504.272C665.092 505.944 664.889 507.748 664.028 509.266C661.374 514.043 654.181 515.8 649.297 517.023C623.625 521.834 609.776 501.333 638.669 494.575Z"/><path fill="#231B27" transform="scale(0.390625 0.390625)" d="M638.934 499.617C644.484 499.145 659.872 498.843 659.801 506.835C657.749 510.738 653.109 511.949 649.069 513.207C642.8 513.846 629.988 514.714 627.627 507.155C627.86 502.537 635.16 500.551 638.934 499.617Z"/><path fill="#FFB291" transform="scale(0.390625 0.390625)" d="M642.744 502.185C646.351 501.915 654.99 502.099 656.112 506.248C654.565 509.458 649.018 509.919 645.801 510.439C639.27 510.598 636.071 510.389 630.127 507.34C634.663 503.274 636.852 502.883 642.744 502.185Z"/><path fill="#FEF5EB" transform="scale(0.390625 0.390625)" d="M609.353 378.973C610.024 380.174 609.802 382.189 609.805 383.691L609.736 428.466C609.72 435.331 609.887 442.43 609.43 449.257C609.124 453.832 603.042 453.284 600.081 452.848C597.641 449.878 598.552 436.385 598.566 431.882L598.726 386.184L609.353 378.973Z"/><path fill="#FEF5EB" transform="scale(0.390625 0.390625)" d="M773.663 499.487C777.615 501.127 777.905 502.128 782.798 503.499C770.523 516.219 755.929 526.286 737.75 527.547C733.173 527.633 731.231 527.322 727.021 526.134C731.594 520.38 732.994 517.865 733.433 510.553C746.406 510.597 763.401 507.894 773.663 499.487Z"/><path fill="#FEF5EB" transform="scale(0.390625 0.390625)" d="M595.178 388.463L595.794 388.984L595.647 449.072C592.125 450.861 588.589 453.138 584.917 455.039C584.341 448.32 584.609 438.035 584.611 431.089L584.647 390.88C586.147 391.456 587.595 391.896 589.123 392.386C591.075 391.336 593.307 389.729 595.178 388.463Z"/><path fill="#FEF5EB" transform="scale(0.390625 0.390625)" d="M308.822 774.657C319.997 773.862 323.486 778.046 332.278 784.035L352.764 798.008C370.357 809.961 391.734 823.457 408.578 835.796C408.894 837.505 408.385 837.719 407.526 839.685C407.242 839.925 407.483 839.769 406.502 840.133C403.422 838.686 394.751 832.639 391.285 830.386C378.349 821.931 365.479 813.375 352.677 804.719L327.225 787.754C321.431 783.905 313.945 779.156 308.822 774.657Z"/><path fill="#FEF5EB" transform="scale(0.390625 0.390625)" d="M639.999 544.427L639.763 543.999C639.015 542.612 638.76 542.353 638.761 540.755L639.4 540.048C642.992 540.277 660.869 559.482 653.873 564.782C651.668 566.452 646.951 567.631 643.988 567.199L643.473 567.851C645.934 572.403 647.078 573.486 648.751 578.537C643.934 576.406 630.877 571.059 627.926 567.656L627.729 566.487C630.771 565.988 633.923 568.222 637.176 566.306C638.174 561.771 623.969 557.57 623.361 551.065C623.938 549.402 624.046 549.258 624.904 547.811L625.542 547.885L625.945 548.448L626.649 548.294C628.562 547.115 630.945 547.419 633.236 547.432C633.183 546.108 633.099 546.573 633.645 545.383L634.919 545.019C636.986 545.531 637.129 545.549 638.914 546.652C639.271 545.421 639.31 545.566 639.999 544.427Z"/><path fill="#171112" transform="scale(0.390625 0.390625)" d="M626.649 548.294C629.982 550.337 642.181 556.819 643.895 558.35L643.568 558.792C638.866 558.807 629.148 554.143 625.945 551.006C625.326 549.347 625.349 550.171 625.945 548.448L626.649 548.294Z"/><path fill="#171112" transform="scale(0.390625 0.390625)" d="M639.999 544.427C641.972 548.625 642.245 549.02 645.239 552.7C643.203 551.827 638.604 549.971 636.95 548.929L633.236 547.432C633.183 546.108 633.099 546.573 633.645 545.383L634.919 545.019C636.986 545.531 637.129 545.549 638.914 546.652C639.271 545.421 639.31 545.566 639.999 544.427Z"/><path fill="#271D20" transform="scale(0.390625 0.390625)" d="M633.236 547.432C633.183 546.108 633.099 546.573 633.645 545.383L634.919 545.019C636.986 545.531 637.129 545.549 638.914 546.652C638.258 547.433 637.632 548.171 636.95 548.929L633.236 547.432Z"/><path fill="#FEF5EB" transform="scale(0.390625 0.390625)" d="M617.64 59.6341C618.19 59.8706 619.996 60.6146 620.014 61.3398C620.396 76.8118 620.001 92.5795 620.459 108.041C616.995 110.917 611.553 114.73 607.814 117.504L607.206 117.784C606.093 116.736 606.643 90.3363 605.867 85.6234C613.273 78.0027 615.725 69.8073 617.64 59.6341Z"/><path fill="#FEF5EB" transform="scale(0.390625 0.390625)" d="M662.02 520.123C662.549 521.27 656.546 549.02 655.838 552.461C649.975 545.871 646.069 538.402 637.549 536.815C633.809 532.881 634.57 534.485 629.986 534.509C627.673 532.72 626.479 525.173 625.745 521.958C637.382 528.214 650.929 526.901 662.02 520.123Z"/><path fill="#FEF5EB" transform="scale(0.390625 0.390625)" d="M810.362 440.383C828.324 452.021 846.196 463.797 863.978 475.71C871.916 481.02 885.516 489.579 892.557 495.2L889.339 499.067C874.304 488.308 857.77 478.285 842.481 467.851C832.499 461.039 814.066 450.041 806.546 441.644C807.79 440.972 808.974 440.764 810.362 440.383Z"/><path fill="#FEF5EB" transform="scale(0.390625 0.390625)" d="M622.949 61.7654C627.36 63.0899 630.351 63.4881 634.88 63.5523C634.886 69.6115 634.533 92.9422 635.725 97.5258L630.97 100.687L623.509 105.868C622.429 94.7015 622.962 73.7045 622.949 61.7654Z"/><path fill="#FEF5EB" transform="scale(0.390625 0.390625)" d="M483.482 665.685C485.662 666.896 490.613 670.521 492.93 672.107L512.931 685.79C516.464 688.217 520.339 692.102 524.473 691.623C526.588 693.029 529.284 696.793 531.445 698.715C537.399 704.009 543.662 707.824 550.851 711.193C552.882 712.145 562.068 715.536 562.762 716.634L561.918 717.068C559.717 717.634 556.423 718.907 554.196 719.69C543.727 712.839 533.084 704.895 522.711 697.697C509.724 688.806 496.657 680.032 483.511 671.378L483.482 665.685Z"/><path fill="#FEF5EB" transform="scale(0.390625 0.390625)" d="M398.469 719.256C402.11 721.154 409.135 726.094 412.613 728.481L433.808 742.91C443.934 749.72 454.007 756.608 464.026 763.574C466.997 765.642 474.283 770.333 476.696 772.567L476.348 773.288C475.327 773.835 474.316 774.471 473.158 774.66C471.972 774.854 404.93 729.005 399.091 724.519C398.345 723.163 398.502 720.912 398.469 719.256Z"/><path fill="#FEF5EB" transform="scale(0.390625 0.390625)" d="M580.009 90.8537C583.662 92.4572 585.735 92.7489 589.554 93.1389C589.53 101.424 589.508 122.84 590.525 129.968L586.726 133.127C584.636 134.918 582.563 136.729 580.509 138.561L580.009 90.8537Z"/><path fill="#FEF5EB" transform="scale(0.390625 0.390625)" d="M805.534 505.244C821.493 510.984 824.819 522.777 825.957 537.975L820.809 541.536L813.995 546.633C813.289 528.942 813.25 521.253 805.534 505.244Z"/><path fill="#FEF5EB" transform="scale(0.390625 0.390625)" d="M653.807 348.46L654.243 349.046C655.142 361.7 654.097 390.945 653.305 404.456C653.222 405.887 649.653 407.906 648.248 408.736C647.126 406.624 647.585 359.098 647.586 352.896L653.807 348.46Z"/><path fill="#FEF5EB" transform="scale(0.390625 0.390625)" d="M602.473 88.4082C604.485 90.1909 602.935 115.237 603.996 120.261L593.83 127.534L593.285 127.296C592.631 124.3 592.566 97.4571 592.535 93.1595C596.833 92.2015 598.772 90.7287 602.473 88.4082Z"/><path fill="#FEF5EB" transform="scale(0.390625 0.390625)" d="M646.438 59.5298C647.757 60.8427 647.488 84.6727 647.501 88.4666L638.679 95.0833L638.311 94.7546C637.496 92.6218 637.622 67.4017 637.579 63.2331C641.382 61.957 642.882 61.3605 646.438 59.5298Z"/><path fill="#ACA3A2" transform="scale(0.390625 0.390625)" d="M305.415 901.609C308.668 903.132 314.366 907.033 317.545 909.117C317.495 913.801 318.11 921.978 317.15 926.747C316.717 927.246 316.284 927.745 315.852 928.244C314.589 929.122 313.178 929.879 311.836 930.648L305.505 926.036C305.132 918.198 305.347 909.519 305.415 901.609Z"/><path fill="#ACA3A2" transform="scale(0.390625 0.390625)" d="M245.035 861.242C247.473 862.451 254.812 867.566 257.444 869.306C257.474 874.159 258.034 880.264 257.298 885.05C257.169 885.885 256.757 885.832 255.774 886.405L251.02 888.922L245.013 884.477L245.035 861.242Z"/><path fill="#ACA3A2" transform="scale(0.390625 0.390625)" d="M370.584 944.783C374.81 947.349 379.043 950.497 383.088 953.38C383.1 956.886 383.684 967.069 382.068 969.425C377.317 972.924 375.018 969.562 370.569 966.372C370.498 959.176 370.503 951.979 370.584 944.783Z"/><path fill="#FEF5EB" transform="scale(0.390625 0.390625)" d="M643.865 634.971C647.981 637.049 660.476 646.573 664.493 649.537C661.558 650.472 659.316 651.354 656.472 652.503C652.558 654.361 648.498 656.543 644.63 658.539C646.62 648.871 646.871 644.506 643.865 634.971Z"/><path fill="#ACA3A2" transform="scale(0.390625 0.390625)" d="M660.903 343.509C661.685 344.576 661.394 384.388 661.395 389.254C660.343 390.334 658.627 391.58 657.386 392.542C656.99 388.779 657.196 380.271 657.199 376.287C657.168 366.254 657.226 356.22 657.372 346.188C658.317 345.348 659.843 344.291 660.903 343.509Z"/><defs><linearGradient id="gradient_4" gradientUnits="userSpaceOnUse" x1="657.18005" y1="540.76868" x2="667.34375" y2="549.6911"><stop offset="0" stop-color="#FCE5D8"/><stop offset="1" stop-color="#FFFCEE"/></linearGradient></defs><path fill="url(#gradient_4)" transform="scale(0.390625 0.390625)" d="M663.595 531.301C668.635 534.758 667.557 545.203 667.452 550.702C664.977 554.634 663.339 556.715 659.759 559.717C655.959 554.936 658.779 551.604 660.497 546.076C671.444 543.953 662.543 537.282 663.595 531.301Z"/><path fill="#F7E3DE" transform="scale(0.390625 0.390625)" d="M663.495 513.565L663.804 514.381C661.799 519.11 651.826 521.998 646.896 522.591C639.569 523.472 632.004 523.096 625.943 518.418C625.769 518.081 625.436 517.143 625.287 516.754C626.555 516.567 633.533 520.168 636.71 520.592C646.216 521.891 655.85 519.363 663.495 513.565Z"/><path fill="#FEF5EB" transform="scale(0.390625 0.390625)" d="M386.105 955.641C388.51 956.804 392.055 958.831 392.08 961.808L390.603 963.029L385.84 966.09C385.823 962.425 385.91 959.303 386.105 955.641Z"/><path fill="#F7E3DE" transform="scale(0.390625 0.390625)" d="M797.5 432.012C802.12 434.309 806.193 437.372 810.362 440.383C808.974 440.764 807.79 440.972 806.546 441.644C803.822 439.095 800.122 434.846 797.5 432.012Z"/><path fill="#FEF5EB" transform="scale(0.390625 0.390625)" d="M632.85 536.665C635.85 538.113 636.93 541.52 636.63 544.671L634.48 544.378C632.112 542.316 631.396 539.474 632.85 536.665Z"/><path fill="#FEF5EB" transform="scale(0.390625 0.390625)" d="M586.334 718.269C588.341 718.18 591.379 717.579 592.916 718.534C593.472 720.437 593.05 720.445 592.37 722.746C591.092 722.904 587.018 719.392 586.334 718.269Z"/><path fill="#F7E3DE" transform="scale(0.390625 0.390625)" d="M626.813 560.574C628.543 561.864 629.115 561.816 629.72 563.475C628.179 563.892 626.902 562.846 625.845 561.806L626.813 560.574Z"/></svg>