<?xml version="1.0" encoding="utf-8" ?><svg xmlns="http://www.w3.org/2000/svg" xmlns:xlink="http://www.w3.org/1999/xlink" width="400" height="400" viewBox="0 0 400 400"><path fill="white" transform="scale(0.390625 0.390625)" d="M0 0L1024 0L1024 1024L0 1024L0 0Z"/><path fill="#0C1642" transform="scale(0.390625 0.390625)" d="M200.039 243.331C197.542 244.218 194.992 244.946 192.403 245.511C165.548 251.374 143.823 234.332 138.908 208.017C138.248 204.485 137.587 201.184 139.687 198.03C143.726 196.322 146.109 202.911 149.538 205.936C152.467 208.555 155.96 210.465 159.747 211.515C174.47 215.602 189.769 206.792 199.848 196.83C211.122 185.687 211.889 175.896 213.048 160.956C216.269 119.401 239.905 73.7078 276.915 52.7969C303.324 37.8566 336.725 35.5286 365.673 43.7571C385.342 49.1141 416.743 64.8283 426.886 83.015C427.825 84.5477 427.955 85.0139 429.551 85.8844L430.324 85.8579C443.987 82.2017 471.837 122.93 479.051 133.425C494.058 155.259 490.399 188.606 471.578 207.125C468.097 210.55 461.686 217.032 458.716 210.216C458.08 210.795 455.578 213.063 455.079 213.208C445.603 215.946 445.536 222.768 440.757 230.295C431.224 245.309 433.681 250.981 447.371 261.38C460.611 271.464 442.283 275.937 436.674 281.302C433.209 284.617 429.632 291.773 426.181 295.507C416.837 307.017 391.107 332.271 375.915 331.845C370.06 331.68 349.34 321.865 343.173 318.941C337.16 324.778 331.12 329.963 324.792 335.434C335.117 344.146 364.682 364.233 370.327 373.845C375.905 383.344 377.505 397.139 378.397 407.909C378.978 414.919 377.84 435.62 379.439 439.562C381.648 438.984 399.647 406.833 406.279 402.194C420.151 392.492 438.007 377.055 453.098 369.715C458.055 360.841 500.675 283.888 505.95 282.554C509.147 281.746 514.741 284.288 517.885 285.328C542.419 293.44 567.175 304.963 588.533 319.564C599.837 327.293 610.838 336.277 619.394 347.03C624.092 344.803 626.62 343.689 631.552 342.27C635.128 341.24 643.193 339.661 646.108 338.067C660.636 330.126 675.166 321.523 689.563 313.305C720.155 295.583 750.934 278.184 781.893 261.111C787.278 258.139 813.229 242.682 816.872 243.703C817.568 243.898 817.57 244.28 817.882 244.863C817.452 248.754 808.33 252.557 804.701 254.557L780.227 268.032C750.821 284.228 721.625 300.803 692.647 317.752C681.768 324.11 668.101 331.196 658.014 338.072C672.499 338.178 692.042 339.258 705.82 344.818C711.385 347.064 720.847 355.882 724.544 360.709C720.308 367.666 714.994 374.25 710.245 380.876C700.578 394.362 690.496 407.496 680.267 420.555C678.501 422.81 676.466 425.305 674.867 427.665C687.053 420.604 806.268 353.697 812.467 353.08C814.177 353.674 813.584 353.139 814.395 354.637C813.658 356.883 810.657 358.218 808.513 359.307C796.549 365.386 784.786 372.336 772.959 378.821C750.057 391.132 727.302 403.714 704.7 416.567L683.258 428.876C680.632 430.361 670.201 435.876 668.518 437.569C660.916 445.223 653.61 456.285 646.637 464.87C660.713 470.965 668.733 483.285 677.205 495.713C705.078 479.07 736.106 461.937 764.56 446.045C776.053 439.527 787.628 433.155 799.283 426.931C801.982 425.516 807.106 421.399 810.009 421.864C811.364 423.069 811.061 422.357 811.186 423.956C809.276 427.377 800.227 431.281 796.471 433.367L771.311 447.367L710.015 482.35C701.269 487.285 687.996 494.18 679.945 499.361C687.406 512.12 696.955 527.609 703.658 540.63C711.247 538.055 744.523 517.086 748.006 518.085C749.081 519.772 748.844 518.88 748.78 520.849C746.833 523.232 710.64 542.85 705.75 545.19C708.33 549.22 712.198 557.359 714.338 561.909C794.216 571.128 911.203 616.442 962.226 680.962C982.408 706.483 993.282 736.284 989.372 769.031C985.252 803.544 962.738 833.919 935.904 854.886C897.946 884.546 841.882 900.779 795.764 912.893C779.884 917.064 764.127 921.759 748.131 925.463C662.579 945.273 572.985 955.626 485.186 950.148C468.649 949.116 452.163 947.083 435.724 945.049C399.811 940.604 363.748 933.098 329.66 920.843C323.728 918.71 317.426 916.586 311.749 913.855C307.025 911.583 301.215 907.043 296.249 905.745C281.86 907.001 272.957 906.263 258.811 904.863C230.056 923.963 169.62 957.666 137.633 976.158C136.713 976.69 135.6 975.898 134.816 975.325L134.925 974.145C137.57 970.354 156.696 960.328 162.085 957.16L217.875 924.284C228.55 917.984 241.874 910.535 251.902 903.704C213.754 896.237 177.479 883.179 146.451 859.156C136.001 851.065 130.538 846.652 128.82 833.121C113.452 841.241 98.5802 850.509 83.4015 858.97C79.2497 861.284 63.9215 871.788 60.1095 869.821L59.9492 868.637C61.1181 865.579 79.3254 855.892 83.4683 853.522L127.558 828.397C127.387 825.416 127.34 822.207 127.24 819.203C110.61 801.489 111.157 800.84 104.896 776.017C97.8382 779.376 88.801 785.108 82.0074 789.239C71.4533 795.717 60.8298 802.082 50.1386 808.331C46.9731 810.181 37.3638 816.941 34.2224 815.086L34.3735 813.967C37.695 809.4 53.138 801.288 58.691 797.957C73.8243 788.97 88.8488 779.802 103.761 770.453C99.5298 748.056 95.2016 726.451 91.9788 703.78C89.7464 688.077 88.2445 673.345 86.4216 657.679C71.5802 666.7 56.3337 675.16 41.5358 684.274C38.9177 685.887 33.9584 689.628 31.0903 688.332C30.1817 684.403 38.2887 680.788 41.164 679.187C56.2284 670.799 70.7497 660.492 86.1556 652.748C82.9438 605.571 87.8218 557.989 95.8452 511.482C97.7528 500.425 100.273 486.208 103.64 475.707C97.9427 470.478 84.6416 459.046 84.7589 451.074C85.4531 403.889 100.145 349.306 128.757 312.193C132.972 306.809 137.733 301.876 142.964 297.474C158.443 284.25 168.592 282.046 188.32 279.454C180.542 278.232 173.73 279.25 166.212 275.323C162.143 273.198 148.226 265.158 152.124 259.866C153.743 259.336 160.085 261.734 163.995 261.734C178.766 261.736 189.964 252.841 200.039 243.331Z"/><path fill="#E4DEDB" transform="scale(0.390625 0.390625)" d="M714.338 561.909C794.216 571.128 911.203 616.442 962.226 680.962C982.408 706.483 993.282 736.284 989.372 769.031C985.252 803.544 962.738 833.919 935.904 854.886C897.946 884.546 841.882 900.779 795.764 912.893C779.884 917.064 764.127 921.759 748.131 925.463C662.579 945.273 572.985 955.626 485.186 950.148C468.649 949.116 452.163 947.083 435.724 945.049C399.811 940.604 363.748 933.098 329.66 920.843C323.728 918.71 317.426 916.586 311.749 913.855C307.025 911.583 301.215 907.043 296.249 905.745C302.32 905.288 311.653 903.377 317.061 903.369C324.438 903.358 333.514 904.604 341.22 904.897C362.792 905.714 384.334 902.618 404.803 895.758C422.524 889.937 438.76 880.315 452.375 867.565C483.116 839.197 505.467 798.915 527.621 763.774C550.907 726.84 571.35 688.887 590.822 649.819C609.568 677.595 610.224 698.522 650.096 687.438C654.308 693.364 658.961 703.446 661.731 710.218C660.305 711.472 657.747 713.664 656.839 715.326C651.111 725.812 648.524 742.056 646.396 753.809C645.442 758.787 645.62 763.716 643.14 768.234C636.733 779.91 634.51 798.692 649.05 805.216C670.425 814.806 697.737 807.961 718.897 800.789C714.805 819.906 704.019 840.496 729.68 850.153C743.343 855.295 760.394 854.785 774.631 852.933C794.275 850.275 812.011 840.606 831.179 836.093C856.457 830.08 883.743 829.468 907.68 818.307C929.911 807.941 957.535 796.057 942.16 766.594C931.557 745.68 908.076 734.766 885.217 737.618C872.968 739.147 867.935 744.025 855.887 737.337C855.004 736.847 848.653 737.51 847.047 737.085C839.472 735.082 831.949 732.957 824.498 730.46C824.557 720.286 824.688 713.958 818.071 705.478C816.627 703.305 814.303 701.237 813.862 698.575C813.165 692.415 807.437 688.799 801.395 688.92C792.52 689.099 785.686 692.865 776.449 693.664C774.671 685.776 770.946 677.243 767.72 669.803C766.329 666.594 763.914 661.342 760.47 660.221C759.424 659.88 758.273 659.143 757.364 658.511C749.009 639.386 740.83 620.154 732.375 601.071C726.443 587.98 720.431 574.926 714.338 561.909Z"/><path fill="#70748D" transform="scale(0.390625 0.390625)" d="M143.048 205.76C152.177 214.833 160.299 218.505 173.431 216.316C184.097 214.537 190.216 210.533 198.501 204.26C221.769 186.646 214.809 162.313 221.547 137.623C226.76 118.739 234.352 102.856 245.703 87.0505C262.044 63.508 285.955 49.29 313.729 45.0242C355.845 38.5559 392.8 54.2525 423.382 82.1891C424.478 83.1908 425.513 83.2819 426.886 83.015C427.825 84.5477 427.955 85.0139 429.551 85.8844L430.324 85.8579C433.493 88.224 438.073 91.1876 440.814 94.0531C456.969 110.941 479.243 133.119 483.247 156.854C485.659 171.144 481.718 187.522 473.178 198.785C470.675 202.091 464.445 209.734 460.032 209.434C467.116 193.488 472.406 167.218 466.028 150.457C464.617 149.328 465.424 149.607 463.463 149.782L462.059 150.407C461.813 145.17 462.287 138.432 458.85 134.866C457.535 130.214 458.702 119.096 453.836 113.47C452.311 112.884 453.007 112.808 451.677 113.38C451.01 116.996 453.92 124.185 454.033 128.331C455.2 170.908 408.553 197.833 371.518 203.74C360.267 205.535 349.282 203.549 338.802 199.422C324.775 171.801 297.892 175.303 288.971 203.617C285.316 215.219 287.277 229.502 293.039 239.962C296.76 246.784 305.846 255.278 314.054 253.962C313.319 254.251 312.286 254.534 311.806 255.045C310.473 255.905 309.807 256.234 309.6 257.742C309.067 261.624 309.748 266.012 310.106 269.867C311.75 287.562 316.275 304.186 325.739 319.411C325.03 319.175 322.912 318.444 322.303 318.143C311.526 312.818 305.464 292.944 302.686 282.206C301.69 278.358 301.66 273.293 300.556 270.373C299.318 269.78 299.989 269.907 298.44 270.373C297.994 270.953 297.521 271.671 297.578 272.453C298.757 288.893 304.747 304.332 315.205 317.071C300.678 307.188 286.728 292.492 283.114 274.539C282.071 269.361 282.482 263.776 281.68 258.45C280.283 257.094 281.064 257.377 279.424 257.211C277.631 259.147 277.829 264.05 277.986 266.641C278.86 281.076 283.208 298.572 290.643 310.886C292.41 313.807 294.428 316.569 296.672 319.141C297.963 320.611 301.248 323.259 301.429 324.866C291.484 329.424 270.34 321.449 262.358 315.286C238.473 296.843 227.209 268.748 229.548 238.944C229.836 235.278 232.334 222.778 231.984 220.577L231.12 220.051C230.185 220.514 229.708 220.914 229.35 222.053C222.436 244.012 225.169 266.62 233.597 286.998C214.055 297.039 196.347 301.164 176.516 288.957C187.061 285.895 196.636 281.867 205.125 274.761C207.854 272.477 219.033 263.29 217.612 259.211C214.365 258.865 210.016 265.473 206.53 267.432C191.571 275.839 174.086 277.822 160.126 266.387L159.584 265.937C187.116 267.096 196.386 252.399 212.534 233.701C205.134 236.716 199.83 239.852 191.663 241.463C165.882 246.547 147.874 230.331 143.048 205.76Z"/><path fill="#0C1642" transform="scale(0.390625 0.390625)" d="M426.479 97.8248C428.42 99.0702 428.703 99.2301 428.78 101.38C414.578 129.732 364.712 175.453 335.446 187.507C334.543 187.488 334.344 187.385 333.455 187.187L332.898 186.249C333.349 183.698 339.048 181.287 341.308 179.963C345.877 177.311 350.369 174.527 354.777 171.615C376.539 157.179 398.324 136.113 414.348 115.44C418.515 110.064 422.547 103.512 426.479 97.8248Z"/><path fill="#0C1642" transform="scale(0.390625 0.390625)" d="M418.587 147.248C420.474 147.764 420.672 148.245 420.618 149.96C415.578 159.27 389.295 177.597 379.202 182.607C371.752 186.304 363.217 189.48 355.225 191.949C353.65 191.961 353.614 191.598 352.875 190.53C352.924 190.138 352.974 189.747 353.023 189.356C354.712 187.797 362.504 185.305 364.497 184.525C385.263 176.395 402.965 162.862 418.587 147.248Z"/><path fill="white" transform="scale(0.390625 0.390625)" d="M456.844 145.325C458.911 178.352 456.52 195.727 438.858 224.444C430.648 237.792 425.037 248.417 439.053 260.197C440.965 261.885 446.318 265.905 447.394 268.037C446.18 272.428 437.128 274.977 434.015 278.029C430.012 281.953 427.386 287.455 423.837 291.714C413.264 304.404 400.941 315.777 386.685 324.209C382.062 326.938 377.537 328.276 372.313 326.56C361.431 322.985 351.302 317.691 340.965 312.856C339.924 312.369 339.513 312.271 338.584 312.747C338.361 316.874 338.756 318.057 335.746 320.74C331 324.971 325.338 328.497 321.105 333.159C312.226 328.914 309.283 329.362 301.509 326.308C303.18 325.69 303.442 325.579 304.812 324.503C309.313 320.966 312.693 324.654 315.275 318.081C318.836 319.442 326.842 325.592 329.503 321.154C328.648 317.804 326.821 314.532 325.352 311.357C322.48 305.155 319.826 299.52 318.157 292.86C316.741 287.173 315.611 281.418 314.772 275.617C314.133 271.205 313.138 258.036 311.806 255.045C312.286 254.534 313.319 254.251 314.054 253.962C315.207 252.752 314.906 253.438 315.145 251.915C313.269 249.332 306.839 249.207 303.177 246.386C285.048 232.424 287.172 188.41 313.361 185.098C321.183 184.108 328.705 190.91 332.091 197.301C333.456 199.878 334.708 204.778 337.265 205.574C338.734 205.086 338.822 204.621 339.727 203.322C344.461 204.337 348.709 207.393 354.288 208.193C376.863 211.431 403.172 200.593 422.074 188.916C438.914 178.513 449.172 162.89 456.844 145.325Z"/><path fill="#0C1642" transform="scale(0.390625 0.390625)" d="M316.681 196.508C319.692 196.437 320.905 196.527 323.322 199.159C327.912 204.156 326.8 224.705 317.277 223.244C315.922 223.036 314.945 222.256 314.181 220.995C315.598 217.036 318.734 219.921 319.619 218.537C322.3 214.348 323.381 204.241 319.41 200.802C314.82 199.696 312.146 205.993 310.317 209.463C301.674 229.729 316.66 230.928 315.248 235.558C304.803 241.54 296.389 208.567 316.681 196.508Z"/><path fill="#0C1642" transform="scale(0.390625 0.390625)" d="M407.453 221.156C411.625 220.95 427.402 221.942 429.786 225.645C427.947 227.047 424.987 226.363 422.898 226.058C421.049 234.858 420.398 236.394 416.496 244.33C415.101 247.382 414.519 249.691 410.876 249.317C405.188 245.137 414.294 229.393 416.961 224.701C414.108 224.182 408.877 224.434 407.265 222.698L407.453 221.156Z"/><path fill="#0C1642" transform="scale(0.390625 0.390625)" d="M434.602 188.185C439.247 188.45 447.392 190.62 445.941 196.87L444.987 197.384C441.784 197.481 440.419 195.476 437.245 194.502C430.522 192.439 422.561 197.197 416.795 200.276C414.161 201.926 409.54 205.396 406.475 204.408C407.354 198.066 427.985 189.075 434.602 188.185Z"/><path fill="#0C1642" transform="scale(0.390625 0.390625)" d="M393.86 286.132C396.274 287.041 396.258 288.641 397.08 291.209C399.379 298.397 400.253 297.015 405.232 301.723C405.526 303.639 405.631 302.666 404.385 304.659C397.933 302.576 389.47 292.583 393.86 286.132Z"/><path fill="#70748D" transform="scale(0.390625 0.390625)" d="M462.059 150.407L463.463 149.782C463.527 152.224 463.692 154.521 463.968 156.951C466.128 175.93 463.376 195.124 451.981 210.844C453.899 203.872 456.557 197.836 458.578 191.181C462.243 179.108 462.578 163.164 462.059 150.407Z"/><path fill="white" transform="scale(0.390625 0.390625)" d="M342.598 400.685C343.325 400.597 343.925 400.685 344.671 400.73C354.891 407.502 358.092 413.389 364.878 423.085C396.904 469.157 385.845 525.741 400.172 577.429C409.413 610.77 436.481 641.461 437.488 676.19C437.86 689.012 423.7 712.337 416.963 723.92C415.549 706.838 416.895 689.782 418.656 672.789C419.241 667.136 424.061 645.47 420.686 642.535C417.123 643.308 416.917 652.391 416.401 655.708C412.524 680.666 410.092 706.743 413.322 731.877C413.49 733.186 414.479 733.602 415.458 734.041L416.451 733.615C442.958 691.226 451.89 676.663 428.593 629.657C433.061 624.494 437.4 619.22 441.607 613.842C453.861 598.131 461.985 585.512 484.606 588.763C500.604 591.063 511.707 598.863 521.446 611.532C519.611 617.963 517.982 623.48 516.663 630.014C512.889 648.703 509.872 680.371 499.533 696.302C487.931 714.181 462.975 734.107 446.909 749.213C431.843 763.381 415.487 778.287 398.884 790.474C393.988 794.191 387.998 797.05 382.149 798.777C370.33 802.265 348.761 785.65 342.713 776.841C335.319 766.07 328.649 749.593 323.544 737.34C316.694 720.902 310 703.946 303.368 687.306C298.724 675.776 294.223 664.189 289.867 652.547C287.845 647.094 285.451 641.046 284.111 635.406C283.88 634.435 284.917 633.259 285.539 632.328C285.755 628.846 285.177 621.388 285 617.69C284.48 607.51 284.024 597.326 283.633 587.14C283.101 569.723 283.447 552.114 284.227 534.721C284.363 531.694 284.858 525.783 283.06 523.36C281.542 523.358 282.277 523.206 280.828 524.027C278.473 528.868 278.838 573.012 278.952 581.076C278.99 596.018 279.867 615.315 281.461 629.986C280.516 627.631 279.712 625.222 278.887 622.823C272.897 605.401 266.515 588.09 261.412 570.38C258.819 561.38 256.693 552.262 254.026 543.288C253.005 542.128 252.341 541.666 250.929 542.371C244.357 556.127 320.426 744.669 332.578 769.046C339.27 782.472 356.682 799.485 371.978 803.176C375.7 804.074 378.917 803.939 382.671 803.659C346.624 859.411 310.617 888.919 240.457 871.627C196.347 860.755 148.281 838.623 118.706 802.689C111.804 794.304 107.135 758.819 103.973 747.277C85.438 659.448 84.6868 566.04 107.21 478.778C120.853 488.714 134.702 497.836 151.515 501.271C163.977 503.581 181.08 502.187 192.617 496.459C215.876 484.912 237.799 465.282 258.054 449.109C270.388 439.232 283.191 429.956 296.42 421.314C311.304 411.584 324.634 403.252 342.598 400.685Z"/><path fill="#0C1642" transform="scale(0.390625 0.390625)" d="M383.402 556.772C385.15 556.823 385.362 556.692 386.917 557.538C388.338 559.916 386.378 581.471 386.093 585.358C384.486 604.769 382.748 624.17 380.882 643.558L377.766 676.392C377.189 682.757 376.655 691.828 375.474 697.805C373.422 697.754 372.968 697.704 371.729 696.254C371.344 693.287 373.395 673.497 373.814 669.033L379.545 606.843C380.418 596.798 381.183 586.743 381.838 576.682C382.188 571.117 382.455 561.842 383.402 556.772Z"/><path fill="#0C1642" transform="scale(0.390625 0.390625)" d="M333.293 435.942C335.357 435.83 336.354 435.551 337.246 437.572C336.379 439.994 323.659 446.727 320.764 449.282C307.555 460.939 300.167 476.613 292.779 492.25C290.445 497.189 288.127 504.075 285.169 508.605C283.383 508.949 282.698 508.872 281.725 507.471C282.024 503.347 289.005 489.178 290.988 484.912C300.788 463.823 311.775 446.428 333.293 435.942Z"/><path fill="#0C1642" transform="scale(0.390625 0.390625)" d="M464.155 649.191C464.78 649.29 466.525 649.525 466.679 649.922C469.732 657.795 462.055 699.597 459.048 703.658C457.062 702.953 456.507 702.823 455.855 700.926C458.003 690.705 459.827 680.418 461.324 670.082C461.909 665.883 462.67 651.222 464.155 649.191Z"/><path fill="#0C1642" transform="scale(0.390625 0.390625)" d="M343.62 415.776C351.388 417.074 364.46 435.037 367.434 442.291C367.965 443.586 367.02 444.712 366.415 445.704C362.658 444.295 354.543 429.545 350.354 426.357C348.421 424.886 344.461 420.069 342.839 418.054C342.375 417.478 343.26 416.438 343.62 415.776Z"/><path fill="#70748D" transform="scale(0.390625 0.390625)" d="M644.601 468.026C650.32 471.621 655.666 475.352 659.96 480.661C681.797 507.803 697.896 539.361 712.906 570.684C729.022 604.316 744.457 639.206 757.932 673.984C763.107 688.607 750.475 703.938 740.204 712.717C730.073 721.377 705.477 725.027 694.649 717.125C689.954 713.699 678.375 697.911 674.41 692.491C661.223 674.653 648.523 656.461 636.325 637.933C629.217 627.102 619.798 611.053 612.18 601.211C618.62 591.974 628.479 582.912 636.434 574.993C639.654 571.787 646.607 565.576 648.828 561.817C648.683 560.309 648.895 561.032 647.821 559.743C643.821 559.385 629.621 575.619 626.353 579.223C631.977 567.143 639.579 555.301 645.465 543.257C646.59 540.956 647.547 539.46 646.745 537.046C645.279 535.949 646.057 536.151 644.398 536.203C641.968 538.602 639.397 544.023 637.731 547.204C634.006 554.264 630.362 561.367 626.8 568.512C623.042 576.241 621.139 583.885 615.567 589.943C617.822 582.043 619.875 574.086 621.722 566.081C624.89 552.142 626.63 537.91 630.156 523.961C631.056 520.403 637.341 497.97 636.819 495.819C635.602 494.353 636.336 494.76 634.695 494.321C629.22 496.895 621.084 540.131 620.049 547.961C614.731 588.203 598.121 623.997 580.272 660.211C563.065 695.125 543.434 728.538 522.983 761.852C491.037 811.287 461.628 872.689 401.488 891.886C376.896 899.736 353.389 901.611 327.813 899.396C334.837 896.31 344.245 892.012 350.549 887.84C384.879 865.115 410.821 819.597 419.989 780.293C421.995 778.214 425.214 775.449 427.421 773.437C427.835 787.711 428.245 801.737 425.502 815.848C424.954 818.672 423.401 825.626 425.796 827.382L427.077 826.76C427.997 825.31 428.494 823.819 428.95 822.171C431.266 813.79 435.075 778.401 431.012 771.52C430.936 771.393 430.854 771.269 430.775 771.144C431.25 769.327 436.459 764.915 438.071 763.413C440.433 781.936 440.202 796.14 436.458 814.96C434.892 822.828 431.144 831.851 429.17 839.738C429.362 840.177 429.554 840.617 429.746 841.056L430.582 841.293C431.087 840.996 431.661 840.62 431.952 840.094C444.815 816.808 446.571 785.639 441.623 760.124C450.727 752.28 459.676 744.258 468.464 736.062C481.228 724.298 498.679 709.327 506.526 693.841C512.423 682.206 514.956 666.788 517.632 654.113C519.737 644.14 521.294 623.528 525.384 615.339L526.646 615.439C529.344 614.436 540.7 596.297 542.273 592.942C543.48 590.369 543.022 590.464 542.214 587.853C542.714 586.468 546.596 586.31 548.071 586.265C559.411 585.92 570.996 583.008 580.986 577.622C588.293 573.139 598.502 562.175 600.581 553.901C602.129 547.745 607.947 544.456 605.135 539.712C606.273 537.664 614.076 535.376 616.864 531.545C622.124 524.314 618.422 518.343 612.569 513.839C623.682 498.019 632.787 483.689 644.601 468.026Z"/><path fill="white" transform="scale(0.390625 0.390625)" d="M506.768 285.644C540.83 298.887 573.585 310.932 601.906 335.483C608.947 341.587 612.524 346.417 618.528 352.318C625.131 349.789 632.001 346.258 638.846 344.778C657.265 340.794 676.832 342.524 695.208 346.087C702.296 347.461 706.224 349.124 711.504 354.075C705.161 363.944 695.518 374.714 688.28 384.322L634.609 455.759C626.601 466.353 618.741 477.058 611.032 487.872C604.963 496.301 597.515 506.527 592.364 515.632L591.035 517.464C587.434 519.294 564.76 514.459 560.47 512.641C561.987 512.281 563.491 511.871 564.981 511.411C573.445 508.733 588.941 501.943 595.565 495.758C598.402 493.11 602.65 482.507 605.38 478.121C615.152 462.42 627.487 446.875 636.022 430.62C628.78 427.257 622.034 426.46 614.341 424.578C609.278 423.339 604.581 421.901 599.609 420.362L599.198 422.536L599.961 423.274L599.718 425.436C600.92 425.946 600.489 425.737 602.05 425.571L604.928 425.279C608.808 424.924 611.338 427.082 615.53 428.156C609.709 436.18 601.596 450.79 595.632 460.004C587.742 456.775 579.721 453.876 571.59 451.312C571.226 451.843 570.598 452.65 570.397 453.199C574.59 455.82 588.643 460.871 593.665 462.533C590.649 466.049 587.716 469.442 584.863 473.101C581.128 471.793 564.353 465.567 561.622 465.754L560.673 466.513L561.795 467.891C571.064 472.528 583.249 475.802 594.26 481.304C586.147 482.493 581.23 484.875 573.492 487.119C570.166 485.389 566.456 484.101 562.679 484.54L562.452 485.176C564.041 486.76 566.67 487.433 568.875 488.237C551.901 492.821 534.238 500.386 522.417 513.855C520.6 515.925 518.665 517.922 516.763 519.916C521.758 512.374 526.283 503.785 530.981 495.947L569.581 430.797C582.044 410.083 600.268 385.083 610.2 363.683C639.872 353.938 659.402 352.814 690.084 357.416C689.405 359.368 688.719 360.604 687.767 362.452C683.953 361.897 682.29 361.481 678.5 362.22L678 363.375C680.482 364.926 686.942 364.862 690.113 364.976L690.399 364.404C691.454 362.252 693.802 357.133 693.078 354.985C690.169 352.868 683.28 352.569 679.485 352.039C656.214 348.788 633.348 351.516 611.186 359.197C603.347 346.676 585.744 333.446 573.316 325.366C559.461 315.979 544.325 309.086 528.864 302.804C522.657 300.281 515.835 295.898 509.104 297.346C502.373 308.952 457.521 382.296 457.72 387.539C457.746 388.207 458.351 388.538 458.795 388.977C461.471 388.164 471.052 370.198 473.068 366.753L498.121 323.732C501.794 317.511 507.838 306.734 512.137 301.432L512.678 300.774C544.687 313.88 585.88 332.454 607.38 360.84C598.681 378.464 586.555 394.322 576.595 411.17C556.181 445.7 533.437 480.46 514.994 515.963C490.235 495.927 458.435 477.173 433.608 457.132C441.279 442.396 451.836 428.178 458.674 412.927C459.2 411.753 459.297 411.224 459.994 409.983L460.619 410.041C461.743 409.258 462.065 408.724 462.971 407.687C464.323 405.477 468.412 403.61 470.146 401.629C472.042 399.463 474.251 392.797 471.19 390.921C464.104 386.579 450.085 393.167 443.482 395.769C462.174 357.286 485.449 322.465 506.768 285.644Z"/><path fill="white" transform="scale(0.390625 0.390625)" d="M589.491 419.956C591.982 420.701 596.915 422.629 599.198 422.536L599.961 423.274L599.718 425.436C600.92 425.946 600.489 425.737 602.05 425.571L604.928 425.279C608.808 424.924 611.338 427.082 615.53 428.156C609.709 436.18 601.596 450.79 595.632 460.004C587.742 456.775 579.721 453.876 571.59 451.312C572.978 449.716 576.929 442.071 578.186 439.801C581.921 433.167 585.689 426.552 589.491 419.956Z"/><path fill="#0C1642" transform="scale(0.390625 0.390625)" d="M601.265 428.296L602.169 429.122C602.619 431.662 599.357 437.112 597.91 439.392C596.276 438.142 596.698 438.912 596.225 437.247C596.946 433.965 599.309 431.141 601.265 428.296Z"/><path fill="#0C1642" transform="scale(0.390625 0.390625)" d="M594.964 427.892L595.43 428.736C594.64 431.325 592.894 435.405 591.219 437.521C588.482 434.145 592.546 430.205 594.964 427.892Z"/><path fill="#0C1642" transform="scale(0.390625 0.390625)" d="M541.99 390.863C540.706 388.95 540.324 389.063 540.253 387.139C543.624 384.774 564.684 401.657 568.16 404.497C564.589 414.045 556.273 425.192 551.145 434.374C546.29 443.066 541.783 447.328 538.811 457.21C536.505 457.81 494.22 430.249 489.335 427.26C482.969 423.406 476.579 419.591 470.166 415.816C467.913 414.487 462.502 411.483 460.619 410.041C461.743 409.258 462.065 408.724 462.971 407.687C478.133 415.127 491.484 423.997 505.742 432.987C515.897 439.391 525.724 445.354 535.672 452.137C544.731 436.506 554.015 421.007 563.521 405.644C559.493 402.362 547.064 392.877 542.603 391.248L541.99 390.863Z"/><path fill="#0C1642" transform="scale(0.390625 0.390625)" d="M587.161 416.777C591.534 417.688 595.373 418.997 599.609 420.362L599.198 422.536C596.915 422.629 591.982 420.701 589.491 419.956C585.689 426.552 581.921 433.167 578.186 439.801C576.929 442.071 572.978 449.716 571.59 451.312C571.226 451.843 570.598 452.65 570.397 453.199C569.533 454.974 567.754 458.566 565.303 457.592C565.114 454.114 584.328 421.713 587.161 416.777Z"/><path fill="#0C1642" transform="scale(0.390625 0.390625)" d="M541.99 390.863L542.603 391.248C542.27 394.036 525.015 425.02 522.318 428.534C520.627 428.882 521.41 428.991 519.884 428.212C520.479 423.548 537.183 398.433 540.053 392.601C540.38 391.935 541.34 391.261 541.99 390.863Z"/><path fill="#1B1D39" transform="scale(0.390625 0.390625)" d="M560.673 466.513L561.795 467.891C559.848 471.974 557.093 476.258 554.948 480.307C553.22 483.57 550.181 490.576 546.358 491.144C546.698 488.813 557.998 471.496 560.673 466.513Z"/><path fill="#1B1D39" transform="scale(0.390625 0.390625)" d="M583.253 514.187C584.722 511.403 590.115 502.472 593.43 502.221L593.789 502.972C593.324 504.139 588.224 510.84 586.856 512.964C589.01 514.29 589.999 514.686 592.364 515.632L591.035 517.464C588.804 516.378 586.058 515.554 583.253 514.187Z"/><path fill="#0C1642" transform="scale(0.390625 0.390625)" d="M488.147 434.933C490.792 435.934 493.193 437.49 495.186 439.496C502.042 446.491 501.013 459.84 501.092 469.167C505.108 462.036 507.974 457.581 513.096 451.013C519.135 454.109 529.456 461.803 535.04 465.839C530.704 473.544 524.611 482.659 519.82 490.261C518.028 492.97 514.531 499.236 511.777 500.042C510.342 499.237 510.39 498.899 509.492 497.139C504.479 487.323 470.826 477.671 466.661 469.413C467.096 466.317 485.007 438.398 488.147 434.933Z"/><path fill="white" transform="scale(0.390625 0.390625)" d="M489.198 438.749C503.187 447.152 495.129 465.847 497.979 474.406C499.354 475.383 498.645 475.28 500.073 475.132C501.33 473.879 512.136 457.032 513.796 454.503C519.628 458.352 525.349 462.066 530.706 466.56C528.441 471.162 523.837 478.331 521.056 482.906C518.606 486.99 515.349 491.736 512.712 495.787C505.753 485.939 495.125 483.066 484.978 477.615C480.145 475.019 474.771 471.603 470.051 468.706C476.559 458.772 482.451 448.52 489.198 438.749Z"/><path fill="#0C1642" transform="scale(0.390625 0.390625)" d="M558.566 371.446C559.234 370.428 559.868 369.436 560.929 368.827C564.913 366.539 569.162 350.053 574.359 351.163C576.02 353.488 575.624 353.935 574.683 356.198L578.677 358.643C580.381 357.492 581.529 356.436 583.529 356.252L584.474 356.786C584.549 359.413 583.112 360.176 581.258 361.972L587.318 368.126C588.474 366.824 589.732 365.05 591.297 364.589C592.911 365.067 592.179 364.637 593.332 366.262C593.639 370.717 582.785 386.138 579.528 389.501C578.144 388.711 578.537 388.938 577.382 387.737C577.001 389.999 577.729 390.371 576.843 391.573C572.393 391.036 573.306 382.929 570.264 380.284C570.404 380.405 569.292 379.066 569.378 379.174C568.591 381.992 568.241 385.381 564.879 385.609L563.951 384.641C563.09 381.355 563.763 380.5 565.224 377.354L561.352 373.521C559.394 376.213 556.286 379.181 552.741 378.067L552.484 376.962C553.434 374.989 556.585 373.14 558.566 371.446Z"/><path fill="#1B1D39" transform="scale(0.390625 0.390625)" d="M558.566 371.446C559.234 370.428 559.868 369.436 560.929 368.827C564.913 366.539 569.162 350.053 574.359 351.163C576.02 353.488 575.624 353.935 574.683 356.198L578.677 358.643L577.123 361.52C576.454 363.084 575.82 364.376 575.056 365.896L577.619 367.098L577.714 367.418C577.73 369.01 577.905 370.995 577.346 372.409L576.525 371.997C574.339 373.599 573.751 375.281 571.912 376.741C570.376 377.214 569.634 377.304 568.433 378.39C569.045 379.009 568.723 378.756 569.378 379.174C568.591 381.992 568.241 385.381 564.879 385.609L563.951 384.641C563.09 381.355 563.763 380.5 565.224 377.354L561.352 373.521C559.394 376.213 556.286 379.181 552.741 378.067L552.484 376.962C553.434 374.989 556.585 373.14 558.566 371.446Z"/><path fill="#E4DEDB" transform="scale(0.390625 0.390625)" d="M571.775 359.626C572.447 357.72 573.089 357.31 574.683 356.198L578.677 358.643L577.123 361.52C576.454 363.084 575.82 364.376 575.056 365.896L574.453 366.574C572.748 368.511 571.65 371.239 570.098 371.789L569.041 370.937C567.297 370.665 568.047 371.013 566.712 369.852C565.533 367.07 566.562 365.136 568.708 363.253C569.698 361.394 570.19 361.098 571.775 359.626Z"/><path fill="#26253F" transform="scale(0.390625 0.390625)" d="M568.708 363.253C569.693 362.923 570.614 362.568 571.525 362.068C573.511 362.422 572.862 361.951 574.167 363.047C574.207 365.488 570.723 368.722 569.041 370.937C567.297 370.665 568.047 371.013 566.712 369.852C565.533 367.07 566.562 365.136 568.708 363.253Z"/><path fill="#26253F" transform="scale(0.390625 0.390625)" d="M571.775 359.626C572.447 357.72 573.089 357.31 574.683 356.198L578.677 358.643L577.123 361.52L576.618 361.451L575.879 362.029C573.429 361.784 574.049 361.679 571.775 359.626Z"/><path fill="#0C1642" transform="scale(0.390625 0.390625)" d="M558.566 371.446L561.328 370.044L561.747 370.525L561.352 373.521C559.394 376.213 556.286 379.181 552.741 378.067L552.484 376.962C553.434 374.989 556.585 373.14 558.566 371.446Z"/><defs><linearGradient id="gradient_0" gradientUnits="userSpaceOnUse" x1="586.94592" y1="367.53107" x2="578.34509" y2="359.13437"><stop offset="0" stop-color="#26232F"/><stop offset="1" stop-color="#15193F"/></linearGradient></defs><path fill="url(#gradient_0)" transform="scale(0.390625 0.390625)" d="M578.677 358.643C580.381 357.492 581.529 356.436 583.529 356.252L584.474 356.786C584.549 359.413 583.112 360.176 581.258 361.972L587.318 368.126C586.676 368.903 586.085 369.531 585.581 370.399C582.376 368.66 582.589 366.359 579.373 365.615L577.619 367.098L575.056 365.896C575.82 364.376 576.454 363.084 577.123 361.52L578.677 358.643Z"/><path fill="white" transform="scale(0.390625 0.390625)" d="M571.912 376.741C573.751 375.281 574.339 373.599 576.525 371.997L577.346 372.409C578.236 375.419 579.486 377.107 581.455 379.548L577.957 384.511C576.124 381.288 575.066 378.625 571.912 376.741Z"/><path fill="white" transform="scale(0.390625 0.390625)" d="M577.619 367.098L579.373 365.615C582.589 366.359 582.376 368.66 585.581 370.399L586.333 371.793C585.959 373.524 584.618 374.948 583.504 376.394C581.749 374.414 580.109 372.516 579.405 369.748C579.125 368.651 580.123 370.067 579.179 367.585L577.714 367.418L577.619 367.098Z"/><path fill="#1B1D39" transform="scale(0.390625 0.390625)" d="M506.585 340.954C508.371 338.341 509.921 336.897 511.482 333.901C511.24 332.21 511.634 332.866 510.292 331.854C508.715 331.951 509.409 331.677 508.185 332.81C508.677 334.361 508.717 334.409 508.82 336.018C507.992 337.528 508.595 337.121 507.218 337.609L505.595 336.269C503.26 336.074 502.647 340.738 498.815 342.319C497.321 341.876 497.869 342.313 497.092 340.995C498.754 337.357 510.278 320.654 513.066 317.615C517.033 319.619 524.07 324.55 528.541 326.782C529.594 327.307 529.464 327.936 529.529 328.745C528.234 329.629 528.09 329.281 526.153 329.233C530.703 332.282 535.419 331.308 533.762 336.914L531.968 337.043C531.082 338.754 530.446 340.437 528.891 341.522C526.087 341.678 525.515 339.71 522.87 339.173C524.049 341.625 525.568 342.042 528.086 343.438C526.541 346 523.85 351.212 521.867 352.951C518.399 353.804 515.984 348.425 515.963 345.646L515.438 345.564C514.44 347.263 511.97 351.367 510.253 352.1C508.521 351.744 509.103 352.214 508.212 350.999C508.764 348.847 510.699 348.028 511.882 345.499C511.173 343.904 510.634 343.286 511.283 341.682C512.605 341.478 512.554 341.56 513.568 340.713L513.482 340.335C511.684 340.137 509.56 341.911 508.394 343.062C507.463 344.287 506.481 345.471 505.45 346.613C504.084 348.153 503.369 348.902 501.224 349.025L500.455 348.329C500.43 344.931 504.082 342.997 506.585 340.954Z"/><path fill="#0C1642" transform="scale(0.390625 0.390625)" d="M521.521 339.949C519.73 337.324 520.287 337.743 520.73 334.187C519.39 332.05 514.36 331.059 511.167 327.756L511.362 327.062L513.387 326.634L513.366 325.81L513.755 325.188L513.322 325.018L514.371 324.971C515.118 325.538 515.926 325.951 516.761 326.375L517.583 324.999C519.978 324.585 521.52 325.895 523.192 327.406L523.273 328.148L522.582 328.747L522.892 329.874C523.586 330.142 524.272 330.427 524.979 330.649L524.992 330.874C523.923 331.665 523.4 332.248 522.18 332.595C524.802 333.427 525.48 333.914 527.655 335.657L529.494 336.842C530.371 336.891 531.112 336.896 531.968 337.043C531.082 338.754 530.446 340.437 528.891 341.522C526.087 341.678 525.515 339.71 522.87 339.173C524.049 341.625 525.568 342.042 528.086 343.438C526.541 346 523.85 351.212 521.867 352.951C518.399 353.804 515.984 348.425 515.963 345.646L515.438 345.564L517.38 342.3C518.817 340.561 519.441 340.489 521.521 339.949Z"/><path fill="#26253F" transform="scale(0.390625 0.390625)" d="M517.38 342.3C518.817 340.561 519.441 340.489 521.521 339.949L522.604 341.433C522.862 342.738 523.031 343.096 523.714 344.24C523.12 345.368 522.642 345.618 522.342 346.476C519.862 345.535 518.959 344.303 517.38 342.3Z"/><defs><linearGradient id="gradient_1" gradientUnits="userSpaceOnUse" x1="518.18524" y1="329.21814" x2="520.61816" y2="326.50137"><stop offset="0" stop-color="#242441"/><stop offset="1" stop-color="#333443"/></linearGradient></defs><path fill="url(#gradient_1)" transform="scale(0.390625 0.390625)" d="M516.761 326.375L517.583 324.999C519.978 324.585 521.52 325.895 523.192 327.406L523.273 328.148L522.582 328.747C521.43 327.874 521.988 327.938 520.9 328.007L520.556 330.565L519.814 331.005C518.364 330.607 518.415 330.701 517.376 329.64C517.301 328.519 517.385 327.952 517.626 326.852L516.761 326.375Z"/><path fill="#E4DEDB" transform="scale(0.390625 0.390625)" d="M522.18 332.595C524.802 333.427 525.48 333.914 527.655 335.657L529.494 336.842C528.594 337.866 529.121 337.477 527.77 337.834C525.285 336.991 523.604 336.214 521.76 334.238L522.18 332.595Z"/><path fill="#E4DEDB" transform="scale(0.390625 0.390625)" d="M517.38 342.3C518.959 344.303 519.862 345.535 522.342 346.476C522.033 347.644 521.973 347.646 521.324 348.686C519.16 348.675 520.138 346.971 517.266 345.049L515.963 345.646L515.438 345.564L517.38 342.3Z"/><path fill="#26253F" transform="scale(0.390625 0.390625)" d="M524.992 330.874C526.606 331.625 526.855 331.58 527.917 333.032C528.115 334.436 528.164 334.348 527.655 335.657C525.48 333.914 524.802 333.427 522.18 332.595C523.4 332.248 523.923 331.665 524.992 330.874Z"/><path fill="#26253F" transform="scale(0.390625 0.390625)" d="M538.062 336.461C538.795 334.989 539.189 333.676 540.562 332.904C542.147 332.874 542.952 333.795 544.266 334.802C546.788 336.213 547.865 336.858 550.221 338.644C548.911 341.324 545.183 347.041 544.776 348.7C546.231 349.407 547.822 351.483 550.326 352.873C551.203 351.482 548.539 348.222 549.402 344.974C551.181 344.004 550.221 344.213 552.43 344.606L553.553 344.178L553.878 343.229C555.222 342.17 555.509 341.743 557.215 341.719C559.047 342.396 559.56 343.232 560.869 344.678C563.589 346.069 564.145 346.705 566.311 348.778L566.765 348.45C567.925 347.622 568.406 347.1 569.811 346.953C571.268 348.685 569.748 349.807 568.513 351.473C567.178 352.036 567.28 352.016 565.841 351.83L566.694 353.415L566.338 354.272C564.387 354.642 563.184 354.21 561.623 353.012C561.904 356.886 561.188 362.126 556.545 362.909L555.767 363.301C552.706 361.274 544.848 355.641 542.911 352.888L543.583 352.655C542.114 350.977 537.668 347.774 535.579 347.141L535.461 347.772L536.377 348.995C538.683 349.802 539.25 349.567 539.528 351.987C538.006 353.764 535.58 355.251 533.881 357.074C532.159 358.922 523.997 368.737 522.432 362.02C523.961 356.195 531.096 347.24 534.383 341.603C534.822 340.849 536.262 340.939 537.459 340.776C536.263 339.594 535.812 339.371 535.997 337.852C536.728 337.317 537.294 336.943 538.062 336.461Z"/><path fill="#0C1642" transform="scale(0.390625 0.390625)" d="M538.062 336.461C538.795 334.989 539.189 333.676 540.562 332.904C542.147 332.874 542.952 333.795 544.266 334.802C546.788 336.213 547.865 336.858 550.221 338.644C548.911 341.324 545.183 347.041 544.776 348.7L542.296 348.64C541.488 347.318 541.726 346.682 541.894 345.232L541.262 344.439C538.113 343.636 538.515 343.673 537.459 340.776C536.263 339.594 535.812 339.371 535.997 337.852C536.728 337.317 537.294 336.943 538.062 336.461Z"/><path fill="#1B1D39" transform="scale(0.390625 0.390625)" d="M538.062 336.461C538.795 334.989 539.189 333.676 540.562 332.904C542.147 332.874 542.952 333.795 544.266 334.802C543.223 336.268 543.028 336.43 542.768 338.302L541.967 339.066C540.308 338.663 539.382 337.6 538.062 336.461Z"/><path fill="#E4DEDB" transform="scale(0.390625 0.390625)" d="M537.459 340.776C539.984 341.876 542.179 342.381 543.536 344.602C543.795 346.173 543.069 347.203 542.296 348.64C541.488 347.318 541.726 346.682 541.894 345.232L541.262 344.439C538.113 343.636 538.515 343.673 537.459 340.776Z"/><defs><linearGradient id="gradient_2" gradientUnits="userSpaceOnUse" x1="567.27472" y1="346.27884" x2="560.7843" y2="350.89938"><stop offset="0" stop-color="#26272F"/><stop offset="1" stop-color="#1C183B"/></linearGradient></defs><path fill="url(#gradient_2)" transform="scale(0.390625 0.390625)" d="M560.869 344.678C563.589 346.069 564.145 346.705 566.311 348.778L566.765 348.45C567.925 347.622 568.406 347.1 569.811 346.953C571.268 348.685 569.748 349.807 568.513 351.473C567.178 352.036 567.28 352.016 565.841 351.83L566.694 353.415L566.338 354.272C564.387 354.642 563.184 354.21 561.623 353.012C560.871 351.75 559.374 350.45 558.29 349.402C559.588 346.495 560.727 347.759 560.869 344.678Z"/><path fill="#1B1D39" transform="scale(0.390625 0.390625)" d="M557.385 349.21L558.29 349.402C559.374 350.45 560.871 351.75 561.623 353.012C561.904 356.886 561.188 362.126 556.545 362.909C555.416 361.823 554.877 361.518 554.533 359.992C555.474 358.367 555.219 358.867 557.304 357.928C557.327 357.085 557.931 356.598 558.544 355.755L558.247 354.418C557.208 352.107 556.568 352.241 554.568 351.464C555.792 350.286 556.039 350.124 557.385 349.21Z"/><path fill="#E4DEDB" transform="scale(0.390625 0.390625)" d="M543.583 352.655C547.014 353.964 547.935 355.414 550.891 357.123C552.734 356.128 554.67 354.186 556.035 353.528C557.358 352.89 555.362 354.637 558.247 354.418L558.544 355.755C557.931 356.598 557.327 357.085 557.304 357.928C555.219 358.867 555.474 358.367 554.533 359.992C554.877 361.518 555.416 361.823 556.545 362.909L555.767 363.301C552.706 361.274 544.848 355.641 542.911 352.888L543.583 352.655Z"/><path fill="#0C1642" transform="scale(0.390625 0.390625)" d="M550.891 357.123C552.734 356.128 554.67 354.186 556.035 353.528C557.358 352.89 555.362 354.637 558.247 354.418L558.544 355.755C557.931 356.598 557.327 357.085 557.304 357.928C556.196 356.798 556.722 357.052 555.293 356.667C554.636 357.544 553.973 358.417 553.306 359.286C551.662 358.743 552.139 358.837 550.891 357.123Z"/><path fill="#0C1642" transform="scale(0.390625 0.390625)" d="M553.878 343.229C555.222 342.17 555.509 341.743 557.215 341.719C559.047 342.396 559.56 343.232 560.869 344.678C560.727 347.759 559.588 346.495 558.29 349.402L557.385 349.21L556.96 347.582C556.918 346.437 556.94 346.731 556.623 345.621C555.398 344.77 554.895 344.381 553.878 343.229Z"/><path fill="#E4DEDB" transform="scale(0.390625 0.390625)" d="M552.43 344.606L553.553 344.178L553.878 343.229C554.895 344.381 555.398 344.77 556.623 345.621C556.94 346.731 556.918 346.437 556.96 347.582L556.084 347.848C554.411 347.298 553.614 345.994 552.43 344.606Z"/><path fill="#E4DEDB" transform="scale(0.390625 0.390625)" d="M534.053 348.826C535.634 349.403 536.28 349.713 537.021 351C531.625 352.897 531.073 354.935 527.423 359.551L526.547 360.132L526.42 359.478C528.338 356.197 531.706 351.96 534.053 348.826Z"/><path fill="#0C1642" transform="scale(0.390625 0.390625)" d="M486.347 353.344C492.311 353.706 529.328 376.733 534.648 381.719C530.577 390.585 515.26 415.875 509.687 423.143C507.423 420.697 503.87 415.2 501.384 412.093C495.735 405.033 483.998 401.67 475.159 397.861C478.465 389.87 485.218 379.435 489.892 371.747C491.48 369.108 492.934 366.275 495.751 364.824C496.581 366.96 481.247 392.383 479.045 395.787C496.201 405.487 496.465 398.294 509.936 417.839C517.588 406.014 524.238 395.231 530.911 382.826C522.42 376.201 512.548 371.27 503.301 365.871C498.525 363.083 487.928 358.435 486.347 353.344Z"/><path fill="#0C1642" transform="scale(0.390625 0.390625)" d="M640.492 402.515C644.45 402.65 649.887 402.003 652.309 405.466C652.562 409.16 644.779 419.148 642.191 423.021C637.561 422.079 632.883 420.553 628.402 419.084C631.307 413.297 635.576 406.789 640.492 402.515Z"/><path fill="white" transform="scale(0.390625 0.390625)" d="M640.741 405.474C643.17 405.587 646.067 405.946 648.527 406.184C645.901 410.23 643.36 414.33 640.906 418.482L632.724 416.585C635.417 412.567 637.792 409.311 640.741 405.474Z"/><path fill="#0C1642" transform="scale(0.390625 0.390625)" d="M460.886 425.662C464.228 425.118 476.064 428.272 477.408 431.682C475.944 434.611 471.355 441.122 469.325 444.18C465.199 450.394 460.925 458.272 456.545 464.097C452.704 461.559 450.529 460.076 446.394 458.183C447.429 457.067 447.365 457.149 448.781 456.559C452.037 456.554 453.235 458.047 455.677 460.143C461.37 450.564 467.407 441.192 473.774 432.046C464.937 428.013 460.911 430.048 455.402 427.882L455.304 427.257C457.03 425.993 458.723 425.986 460.886 425.662Z"/><path fill="#0C1642" transform="scale(0.390625 0.390625)" d="M622.62 386.268C623.653 386.776 623.325 386.383 623.684 387.375C623.22 388.778 617.973 398.009 616.607 400.805C617.029 401.727 617.036 401.755 617.748 402.363L616.308 401.96C614.602 403.66 612.624 407.808 611.407 410.094C614.536 410.926 616.333 411.306 619.533 411.779C622.063 408.31 635.409 388.443 638.149 388.519C638.716 390.013 638.588 389.199 637.742 391.214C633.879 397.537 624.92 410.022 620.174 415.924C615.435 414.69 611.551 413.667 606.899 412.048C609.035 407.57 619.598 388.905 622.62 386.268Z"/><path fill="#26253F" transform="scale(0.390625 0.390625)" d="M538.895 360.828C535.438 362.541 536.288 364.768 536.829 367.71L536.238 368.169C531.851 365.582 535.92 368.897 531.759 367.227L531.346 366.03C532.116 362.896 538.546 356.191 541.059 353.08L542.911 352.888C544.848 355.641 552.706 361.274 555.767 363.301C556.901 365.144 556.764 364.206 556.386 366.179C554.727 367.33 554.606 367.423 552.696 366.38L551.325 365.143C550.665 366.318 550.12 367.087 549.868 368.417C548.794 367.402 548.739 367.693 547.005 367.385L546.651 367.56C545.279 367.262 545.135 366.975 543.918 366.171L544.485 365.791C543.908 364.513 540.45 362.181 538.895 360.828Z"/><path fill="#E4DEDB" transform="scale(0.390625 0.390625)" d="M540.74 359.279C541.165 357.637 540.701 358.212 542.063 357.409C544.433 358.17 550.609 362.769 551.325 365.143C550.665 366.318 550.12 367.087 549.868 368.417C548.794 367.402 548.739 367.693 547.005 367.385L546.651 367.56C545.279 367.262 545.135 366.975 543.918 366.171L544.485 365.791C543.908 364.513 540.45 362.181 538.895 360.828C539.325 360.556 540.303 359.657 540.74 359.279Z"/><path fill="#0C1642" transform="scale(0.390625 0.390625)" d="M540.74 359.279C543.053 360.601 551.509 364.253 547.005 367.385L546.651 367.56C545.279 367.262 545.135 366.975 543.918 366.171L544.485 365.791C543.908 364.513 540.45 362.181 538.895 360.828C539.325 360.556 540.303 359.657 540.74 359.279Z"/><path fill="#0C1642" transform="scale(0.390625 0.390625)" d="M618.788 378.871C627.529 379.713 653.708 385.286 662.908 388.906C663.41 389.104 663.198 390.603 663.184 391.388C658.921 392.124 639.516 385.871 634.395 384.724C630.357 383.819 624.615 382.976 620.514 381.937C619.268 381.622 619.124 380.083 618.788 378.871Z"/><path fill="#0C1642" transform="scale(0.390625 0.390625)" d="M638.286 362.621C641.526 362.626 644.995 362.421 646.811 365.435C646.312 370.868 638.623 371.65 634.56 371.975C631.68 371.965 628.689 372.193 626.715 369.935L626.834 368.708C629.3 365.252 634.248 363.442 638.286 362.621Z"/><path fill="white" transform="scale(0.390625 0.390625)" d="M637.144 365.55C639.14 365.421 640.897 365.047 642.596 365.981L642.822 366.771C641.537 368.237 640.501 368.386 638.653 369.025L631.447 368.889C633.21 367.708 635.28 366.602 637.144 365.55Z"/><path fill="#0C1642" transform="scale(0.390625 0.390625)" d="M653.872 369.008C654.573 368.997 655.274 368.999 655.975 369.015C660.092 369.108 681.666 369.581 683.213 371.193L682.513 372.903C681.248 373.194 680.068 373.516 678.212 373.362C670.33 372.709 662.31 372.373 654.418 371.763C654.19 371.509 653.962 371.255 653.733 371.002L653.872 369.008Z"/><path fill="#26253F" transform="scale(0.390625 0.390625)" d="M545.962 374.697C543.166 373.216 538.864 371.248 537.171 368.658L537.551 367.835C539.497 367.442 539.298 367.994 541.722 369.212C542.002 367.716 541.899 367.606 542.739 366.382L543.918 366.171C545.135 366.975 545.279 367.262 546.651 367.56L547.005 367.385C548.739 367.693 548.794 367.402 549.868 368.417C548.977 370.145 548.23 371.637 547.195 373.281L545.962 374.697Z"/><path fill="white" transform="scale(0.390625 0.390625)" d="M546.651 367.56L547.005 367.385C548.739 367.693 548.794 367.402 549.868 368.417C548.977 370.145 548.23 371.637 547.195 373.281C545.997 372.584 545.149 372.256 544.411 371.09C546.818 369.849 546.939 370.181 546.651 367.56Z"/><path fill="#0C1642" transform="scale(0.390625 0.390625)" d="M512.49 380.278C514.856 380.486 521.394 382.744 523.057 384.601C523.593 385.2 523.266 385.547 523.089 386.677C519.143 387.876 512.698 385.271 512.49 380.278Z"/><path fill="#0C1642" transform="scale(0.390625 0.390625)" d="M551.325 365.143L552.696 366.38C553.343 367.467 553.787 367.484 553.45 368.598C552.69 371.114 550.783 375.154 548.044 375.95L545.962 374.697L547.195 373.281C548.23 371.637 548.977 370.145 549.868 368.417C550.12 367.087 550.665 366.318 551.325 365.143Z"/><path fill="#0C1642" transform="scale(0.390625 0.390625)" d="M496.584 373.353C498.714 373.749 503.561 374.993 504.846 376.881C505.713 378.157 505.186 379.013 504.862 380.455C500.944 379.8 496.856 377.734 496.584 373.353Z"/><path fill="#1B1D39" transform="scale(0.390625 0.390625)" d="M626.253 392.692C627.92 392.419 628.024 392.401 629.704 392.497L630.191 393.145C629.455 394.648 628.493 394.919 626.987 395.71C624.847 395.982 623.885 396.285 622.161 394.744L622.191 393.826C623.7 392.534 623.811 392.944 626.253 392.692Z"/><path fill="#0C1642" transform="scale(0.390625 0.390625)" d="M660.657 360.07C662.853 360.018 663.284 359.735 664.579 361.374C663.776 363.097 664.354 362.313 662.336 363.444C660.212 363.374 659.567 363.511 658.366 361.829C659.161 360.304 658.626 361.011 660.657 360.07Z"/><path fill="white" transform="scale(0.390625 0.390625)" d="M104.249 366.866C105.315 375.461 104.02 379.797 106.481 389.984C112.579 415.22 145.733 433.085 168.88 439.089C181.105 442.26 204.061 434.108 216.121 429.793C251.342 417.192 281.177 391.306 317.574 381.503C327.851 378.737 343.599 375.669 353.497 380.676C357.961 382.934 360.627 399.082 361.849 404.341C349.021 391.76 335.294 395.985 320.374 402.229C294.6 413.693 259.632 442.076 237.434 459.767C224.317 470.222 208.399 483.705 193.399 491.158C178.06 498.944 160.224 500.197 143.947 494.634C128.021 489.236 98.4927 469.486 90.4656 454.858C86.0601 446.83 94.5057 402.781 96.8519 392.761C98.965 384.033 101.433 375.394 104.249 366.866Z"/><path fill="#70748D" transform="scale(0.390625 0.390625)" d="M435.97 484.429C438.05 484.89 501.233 531.635 506.905 536.263C505.703 539.976 504.574 543.504 503.904 547.356C503.551 549.386 503.652 550.97 503.144 552.971C500.157 552.876 498.126 552.944 495.166 553.108C489.883 557.945 477.401 577.577 472.271 584.759C458.06 586.485 452.866 592.744 444.115 603.161C438.205 610.561 432.643 618.272 426.57 625.546C409.893 593.03 401.495 574.418 397.6 537.064C396.696 528.39 395.3 513.187 394.086 504.695C399.011 502.795 407.05 498.475 411.863 496.047C419.819 492.012 427.856 488.138 435.97 484.429Z"/><path fill="white" transform="scale(0.390625 0.390625)" d="M235.37 290.992C235.951 291.65 241.814 300.481 242.678 301.732C221.6 304.967 202.305 313.147 185.565 326.493C176.647 333.602 144.713 364.83 144.534 374.692C144.511 375.979 144.476 376.158 145.359 377.066C147.844 376.916 150.016 372.501 151.639 370.088C161 356.367 172.14 343.949 184.766 333.157C207.03 314.429 219.198 311.549 245.81 305.524L252.709 313.492C241.623 316.306 231.036 320.807 221.318 326.838C215.714 330.26 201.428 340.375 199.821 346.933C200.515 348.416 200.005 347.809 201.53 348.7L202.396 348.413C212.859 334.167 240.232 320.848 257.224 316.74C264.613 322.891 271.684 326.235 280.896 328.547C278.814 329.379 276.602 329.81 274.423 330.319C260.674 333.533 247.272 337.838 233.786 342.009C229.699 343.161 201.025 349.879 200.043 350.771C199.672 352.136 199.716 352.042 200.214 353.382C205.532 355.906 250.692 341.427 259.006 339.054C265.595 337.227 272.213 335.5 278.855 333.874C297.334 329.282 307.926 330.19 325.262 340.622C267.841 329.969 215.508 404.929 164.962 401.44C158.643 401.004 149.499 398.622 145.367 393.59C142.025 389.52 142.048 384.222 142.581 379.255C145.539 351.728 166.81 315.523 188.125 298.544C207.332 303.803 218.12 299.591 235.37 290.992Z"/><path fill="#CB7E87" transform="scale(0.390625 0.390625)" d="M834.524 776.094L834.337 779.227C835.042 780.64 836.042 782.301 837.612 782.54C853.191 784.911 845.684 746.49 846.443 740.398L847.068 740.267C851.019 743.317 849.744 772.017 851.112 778.332C853.112 787.568 864.368 783.828 864.516 775.631C864.604 770.754 863.596 768.415 865.546 764.097C867.464 759.849 862.983 748.228 861.524 743.851C864.426 744.067 867.327 744.307 870.225 744.572C884.395 762.12 888.024 776.152 887.477 798.179C862.228 804.368 836.581 806.431 812.039 815.365C791.207 822.949 771.071 827.469 748.699 826.165C749.977 815.138 749.145 802.303 750.677 789.489C762.344 790.543 773.954 789.229 784.44 783.601C787.733 781.834 797.938 775.177 799.05 771.563C799.282 770.809 798.877 770.61 798.348 769.825C796.459 770.482 793.475 773.053 791.69 774.358C772.64 788.286 747.936 790.89 728.183 776.148C729.491 771.867 730.489 768.493 732.281 764.36C734.419 767.195 735.999 769.359 739.038 771.388C747.072 776.75 760.992 777.659 770.202 775.823C786.948 772.485 793.477 762.154 802.196 748.945L806.665 750.019C804.579 757.977 794.602 781.507 797.647 788.668C798.585 790.874 800.338 792.412 802.604 793.161C804.829 793.896 807.24 794.046 809.341 792.871C816.563 788.831 816.565 772.653 818.631 765.334L818.801 764.752C819.309 769.805 819.638 779.766 826.043 780.574C829.008 779.549 829.78 777.884 831.238 775.14C831.982 776.309 832.164 776.878 833.352 777.548L834.004 777.342L834.524 776.094Z"/><path fill="#70748D" transform="scale(0.390625 0.390625)" d="M172.231 291.429C171.324 291.187 180.82 296.715 182.652 297.54C161.479 314.4 138.004 356.919 137.957 384.553C137.938 395.647 148.41 403.356 158.532 404.872C197.513 410.709 231.5 377.484 263.537 360.329C287.603 347.425 318.29 334.047 341.741 354.329C344.144 356.408 347.237 357.879 349.797 360.168L349.036 360.3C287.336 348.719 229.126 424.019 166.998 417.378C156.063 415.607 133.775 404.959 128.264 395.112C106.702 356.59 143.991 310.526 172.231 291.429Z"/><path fill="white" transform="scale(0.390625 0.390625)" d="M592.745 486.577C593.019 486.541 594.174 486.547 594.49 486.543L594.827 487.305C589.422 501.654 552.863 507.578 552.664 513.291C556.707 518.741 584.583 523.554 591.706 522.348C595.386 521.724 605.27 518.042 609.296 516.673C610.282 517.599 613.081 520.219 613.648 521.286C620.801 534.737 588.134 536.092 584.982 543.382C586.508 546.456 597.717 540.396 600.655 541.621C600.096 547.746 579.96 558.002 581.579 563.028L582.467 563.289C586.225 562.343 592.244 556.331 596.367 553.492C595.081 555.489 593.527 557.543 592.124 559.48C590.412 561.642 588.68 563.788 586.927 565.917C575.456 579.692 557.251 581.084 540.074 582.644C534.174 570.64 520.494 557.59 507.523 553.698C512.558 535.258 510.161 535.425 523.033 520.549C539.821 501.147 557.708 496.27 581.287 489.64C582.668 492.024 583.509 494.39 586.514 494.576L587.152 493.806C587.204 491.826 585.971 490.338 584.896 488.606C587.19 487.864 590.348 487.175 592.745 486.577Z"/><path fill="white" transform="scale(0.390625 0.390625)" d="M366.013 412.958C367.892 409.816 363.764 393.561 362.763 389.16C361.768 384.782 360.237 379.166 356.046 376.99C342.905 370.611 325.3 374.352 311.983 378.307C289.175 385.08 270.539 397.818 249.589 408.949C227.137 420.878 198.265 435.593 172.216 434.849C163.611 434.603 153.634 429.426 146.199 425.585C130.742 416.912 116.834 408.134 111.471 390.473C106.414 373.735 108.158 355.679 116.326 340.219C127.488 319.544 145.565 294.146 169.196 287.282C170.038 287.039 170.889 286.825 171.746 286.64C165.762 291.311 159.539 295.066 153.929 300.304C136.765 316.332 120.794 338.914 118.104 362.777C116.7 375.236 118.333 389.205 126.117 399.221C134.496 409.451 155.775 421.391 168.75 422.16C211 424.665 248.142 395.168 284.477 377.9C303.27 368.969 329.962 359.671 350.619 365.274C354.954 366.45 361.392 368.764 364.409 372.302C374.306 386.03 374.7 413.639 374.5 429.718C371.028 424.628 368.145 419.401 364.51 414.143L366.013 412.958Z"/><path fill="white" transform="scale(0.390625 0.390625)" d="M462.667 394.126C464.519 393.974 465.461 393.925 467.113 394.743C472.391 403.915 425.604 417.742 427.284 427.87C428.804 437.042 423.121 449.337 418.212 456.941C416.493 459.591 414.6 462.125 412.546 464.526C409.763 467.756 403.126 473.025 402.566 476.704L403.093 477.332C408.028 477.134 412.221 471.933 415.457 468.511L431.514 480.855L415.35 489.028C408.185 492.694 400.948 496.217 393.643 499.594C391.271 475.062 389.613 467.838 381.898 444.535C387.834 437.425 394.176 425.441 400.893 416.94C423.414 412.764 441.988 398.677 462.667 394.126Z"/><path fill="white" transform="scale(0.390625 0.390625)" d="M772.703 707.847C773.899 709.104 776.124 713.657 777.249 715.527C782.846 724.832 787.235 737.054 794.322 745.137C795.371 746.335 798.083 747.503 799.506 748.141C784.548 764.022 782.837 772.01 759.061 772.981C755.821 772.82 752.839 772.397 749.627 771.977C746.297 760.212 739.678 750.462 731.853 741.327C751.238 736.747 763.753 725.236 772.703 707.847Z"/><path fill="#0C1642" transform="scale(0.390625 0.390625)" d="M756.98 749.137C757.268 749.297 757.58 749.42 757.845 749.617C759.01 750.481 760.952 763.071 761.528 765.743L760.695 767.007C753.927 762.702 754.81 755.836 756.98 749.137Z"/><path fill="#0C1642" transform="scale(0.390625 0.390625)" d="M750.38 748.634C751.941 748.896 751.421 748.625 752.61 749.55C753.522 752.255 753.583 758.043 752.749 760.754C747.814 759.279 748.819 752.318 750.38 748.634Z"/><path fill="#0C1642" transform="scale(0.390625 0.390625)" d="M762.388 753.134L763.735 753.876C764.339 755.239 767.363 763.179 767.23 764.144L765.212 764.383C761.287 762.641 761.711 756.675 762.388 753.134Z"/><path fill="white" transform="scale(0.390625 0.390625)" d="M886.72 742.196C909 739.5 926.28 748.857 938.108 767.513C935.092 776.408 925.231 782.736 917.241 786.96C909.484 791.173 900.316 794.306 891.991 797.131C892.626 781.121 890.297 768.652 882.105 754.743C880.998 752.862 876.862 746.248 876.529 744.641C878.589 742.828 883.938 742.516 886.72 742.196Z"/><path fill="#70748D" transform="scale(0.390625 0.390625)" d="M610.073 605.366C611.441 607.081 613.009 609.72 614.214 611.619C624.926 628.503 635.08 645.713 646.982 661.805C639.761 665.112 636.565 666.188 628.785 667.44C618.9 668.032 614.341 667.686 605.126 664.459C603.229 660.625 595.447 648.663 592.457 645.545C599.048 631.566 604.313 619.661 610.073 605.366Z"/><path fill="white" transform="scale(0.390625 0.390625)" d="M453.016 413.597C454.89 416.069 429.544 451.206 429.728 458.54C432.299 462.711 505.451 515.268 515.7 521.217C513.916 523.381 509.738 530.28 508.251 531.203L506.984 530.508C500.008 524.172 484.308 513.396 476.338 507.607C456.992 493.445 437.542 479.425 417.99 465.548C428.739 449.398 430.42 444.114 433.304 425.718C439.712 420.879 446.023 417.442 453.016 413.597Z"/><path fill="white" transform="scale(0.390625 0.390625)" d="M939.881 774.832C941.213 776.296 941.444 778.633 941.885 780.648C939.213 782.75 936.74 785.231 934.075 787.448C898.038 817.362 847.383 811.76 805.467 828.818C782.667 838.097 737.92 845.726 718.797 826.108C717.501 823.891 716.604 820.157 718.286 818.014C720.204 818.283 721.66 820.451 723.361 821.784C735.119 830.999 754.505 831.374 768.452 830.311C792.257 828.497 813.051 818.768 836.052 813.235C858.076 807.937 882.164 806.239 903.243 798.272C917.117 793.028 930.231 786.301 939.881 774.832Z"/><path fill="white" transform="scale(0.390625 0.390625)" d="M941.415 785.931C941.915 790.071 936.132 795.762 933.08 798.133C902.311 822.028 866.087 824.307 829.534 831.557C815.45 834.351 799.575 842.263 785.107 845.789C766.733 850.266 732.651 853.839 719.262 836.856C718.134 834.378 717.671 831.807 717.048 829.146C733.664 844.041 758.471 843.561 779.126 839.866C797.087 836.653 814.076 828.849 831.716 824.612C858.231 818.243 885.792 815.983 911.275 805.554C926.477 799.36 929.709 795.884 941.415 785.931Z"/><path fill="#CB7E87" transform="scale(0.390625 0.390625)" d="M696.405 735.557C698.05 736.591 699.947 739.647 701.961 740.659C709.053 744.225 720.351 743.679 727.838 742.045C730.539 746.735 733.471 750.439 736.974 754.524C736.49 754.746 736.008 754.973 735.529 755.206C729.257 758.279 728.003 761.961 725.851 768.182L718.876 770.301C707.495 773.612 698.576 775.514 687.001 777.856C687.071 762.349 687.878 754.611 682.276 739.86C687.498 739.349 692.372 739.208 696.405 735.557Z"/><path fill="#70748D" transform="scale(0.390625 0.390625)" d="M763.985 677.176L765.292 675.861C767.668 682.14 770.734 689.521 772.785 695.768C771.496 698.763 770.207 701.757 768.846 704.72C757.199 730.071 732.097 741.975 704.761 738.009C700.745 733.874 694.281 725.034 691.288 720.012C715.019 734.482 745.055 722.57 757.989 699.717C762.314 692.075 764.602 686.037 763.985 677.176Z"/><path fill="white" transform="scale(0.390625 0.390625)" d="M714.594 357.433C716.065 358.276 718.001 360.015 719.354 361.144L650.741 451.894C639.996 466.107 629.553 480.545 619.417 495.198C616.584 499.337 610.437 507.921 608.37 512.115C605.599 512.896 602.862 513.817 600.122 514.707C598.864 515.221 598.922 515.253 597.581 515.302C597.789 514.156 606.395 502.618 607.575 500.966C629.8 469.561 652.683 438.627 676.211 408.186C688.787 391.588 702.602 374.208 714.594 357.433Z"/><path fill="white" transform="scale(0.390625 0.390625)" d="M781.375 696.633C789.256 695.963 796.989 697.044 804.395 699.934C823.381 707.342 820.745 725.148 818.77 741.495C817.381 752.991 814.345 763.009 811.491 774.108C810.331 778.619 810.509 788.057 805.732 790.005C801.294 789.718 800.405 786.158 801.04 782.395C804.538 768.096 810.148 753.741 813.261 739.255C817.974 717.325 816.507 712.958 794.15 709.063C789.749 710.999 786.759 713.288 782.888 716.095C780.413 711.687 778.173 707.087 774.377 703.743C776.481 699.339 776.387 697.554 781.375 696.633Z"/><path fill="white" transform="scale(0.390625 0.390625)" d="M361.259 840.838C364.703 844.068 375.1 850.273 379.576 853.088C371.826 863.778 364.992 870.896 354.527 878.956C347.647 874.458 341.53 869.46 334.725 864.833C346.018 856.234 351.369 851.025 361.259 840.838Z"/><path fill="white" transform="scale(0.390625 0.390625)" d="M298.43 879.2L299.493 879.002C300.987 879.338 306.109 885.902 307.607 887.47C311.062 891.088 314.587 894.519 318.185 897.993C305.518 900.467 297.23 901.419 284.267 901.73L278.126 901.746C273.841 895.269 268.469 887.531 265.363 880.512C276.181 881.922 287.691 880.778 298.43 879.2Z"/><path fill="white" transform="scale(0.390625 0.390625)" d="M643.047 783.292C645.67 785.474 646.941 787.94 650.288 789.451C673.068 799.735 699.978 793.291 722.154 785.762L720.117 795.373C719.897 796.156 719.906 795.893 719.184 796.613C704.394 801.02 685.662 805.228 670.29 805.133C662.858 805.086 651.416 802.918 646.318 797.146C642.374 792.68 642.822 788.719 643.047 783.292Z"/><path fill="white" transform="scale(0.390625 0.390625)" d="M665.808 738.148C670.755 739.72 674.028 740.461 679.2 740.62C681.11 746.417 682.866 753.851 682.916 759.968C682.948 763.815 684.045 774.971 682.596 777.876L681.125 778.18C675.258 778.158 669.401 777.69 663.605 776.779C662.146 762.661 663.554 751.922 665.808 738.148Z"/><path fill="white" transform="scale(0.390625 0.390625)" d="M330.82 867.455C331.968 867.595 347.87 879.976 350.745 882.071C341.593 888.076 334.045 891.815 324.154 896.24C321.149 895.858 307.085 880.88 304.255 877.973C313.428 875.94 322.667 872.084 330.82 867.455Z"/><path fill="white" transform="scale(0.390625 0.390625)" d="M645.99 771.348C665.228 791.386 702.197 779.843 724.928 773.138L722.864 782.241C720.675 782.521 717.872 783.415 715.719 784.099C695.726 790.457 660.177 797.618 644.027 779.579C644.511 776.79 645.275 774.088 645.99 771.348Z"/><path fill="white" transform="scale(0.390625 0.390625)" d="M618.166 428.816C622.973 429.751 626.526 430.505 631.256 431.854C621.988 447.328 609.849 464.727 599.418 479.439C599.143 479.73 598.754 479.887 598.372 480.098C593.985 477.151 592.774 476.173 587.839 474.202C589.347 472.103 590.798 470.257 592.432 468.257C602.187 456.324 610.362 442.12 618.166 428.816Z"/><path fill="#0C1642" transform="scale(0.390625 0.390625)" d="M619.178 430.816C620.379 431.56 620.398 431.452 620.929 432.734C620.703 434.45 619.092 436.104 617.969 437.543C617.596 440.254 619.85 438.142 621.059 440.975C620.348 442.421 620.328 442.297 618.904 443.117C616.424 442.803 615.187 442.943 613.524 441.497C613.079 438.24 616.91 434.297 619.178 430.816Z"/><path fill="white" transform="scale(0.390625 0.390625)" d="M382.368 813.217C387.174 816.191 394.242 819.486 399.439 822.056C397.754 825.689 384.998 847.711 382.075 849.342C376.423 845.579 369.347 841.622 363.417 838.104C370.664 829.582 376.265 822.511 382.368 813.217Z"/><path fill="white" transform="scale(0.390625 0.390625)" d="M229.787 873.669C240.297 876.382 249.813 878.225 260.494 880.104C264.371 889.07 266.97 893.156 272.243 901.139C261.417 900.457 250.659 898.946 240.064 896.62C235.383 888.18 232.684 882.833 229.787 873.669Z"/><path fill="#70748D" transform="scale(0.390625 0.390625)" d="M649.476 665.961C649.994 666.363 658.381 677.986 659.63 679.628C646.845 683.87 630.921 688.901 617.917 682.682C614.244 679.263 610.192 672.407 607.387 667.993C609.075 668.709 610.54 669.28 612.291 669.798C624.699 673.554 638.096 672.172 649.476 665.961Z"/><path fill="white" transform="scale(0.390625 0.390625)" d="M732.915 783.679C738.115 786.407 740.827 787.563 746.52 788.895C745.27 796.416 745.129 803.724 744.931 811.29C744.852 814.333 745.075 822.453 744.466 825.011L743.67 825.359C738.889 824.568 733.127 823.269 729.08 820.588C727.702 807.788 730.53 796.127 732.915 783.679Z"/><path fill="white" transform="scale(0.390625 0.390625)" d="M197.179 862.598C199.616 863.189 205.364 865.574 207.917 866.574C213.867 868.905 218.621 870.5 224.829 872.111C227.473 881.916 229.614 886.501 234.262 895.293C227.104 893.827 211.777 888.447 204.871 885.827C201.368 877.18 199.49 871.622 197.179 862.598Z"/><path fill="white" transform="scale(0.390625 0.390625)" d="M660.848 683.995C661.382 683.893 661.578 684.016 662.17 684.134C668.364 692.634 674.451 700.988 681.259 709.015C683.013 711.082 685.375 713.808 686.732 716.084C685.26 716.92 685.616 716.347 685.076 717.573C686.313 719.278 687.491 720.172 686.541 722.146L684.346 722.888C680.506 723.723 674.072 724.487 670.285 723.371C665.297 721.9 667.752 714.145 666.692 710.625C664.106 702.036 659.595 693.792 655.359 685.885L660.848 683.995Z"/><path fill="white" transform="scale(0.390625 0.390625)" d="M798.589 713.177C798.978 713.294 799.366 713.415 799.753 713.539C810.953 717.147 812.71 719.124 811.167 731.248C810.39 737.356 810.493 742.878 803.908 744.997C797.396 747.595 794.24 738.888 792.553 733.981C795.272 726.474 796.739 720.849 798.589 713.177Z"/><path fill="white" transform="scale(0.390625 0.390625)" d="M172.802 851.595C178.065 853.564 186.344 857.924 192.404 860.437C193.612 868.861 195.893 875.391 198.9 883.198C195.394 882.98 180.587 875.077 176.782 873.015C175.078 865.733 173.627 859.059 172.802 851.595Z"/><path fill="white" transform="scale(0.390625 0.390625)" d="M413.486 785.008L413.665 785.217C414.607 789.259 403.619 813.358 401.409 818.211L391.26 813.017L384.598 809.716L388.624 801.734C399.27 796.142 404.263 792.717 413.486 785.008Z"/><path fill="white" transform="scale(0.390625 0.390625)" d="M510.973 560.104C515.053 562.196 517.382 563.664 520.958 566.462C518.939 570.247 508.179 588.931 505.614 590.869L504.693 590.535C500.51 588.338 497.585 587.261 493.137 585.688C499.311 577.322 505.258 568.791 510.973 560.104Z"/><path fill="white" transform="scale(0.390625 0.390625)" d="M147.968 835.865C151.914 837.758 163.739 846.343 168.55 849.403C168.29 857.103 169.656 862.372 171.585 869.705C169.049 869.851 154.536 859.371 151.757 857.321C150.578 851.629 148.292 841.412 147.968 835.865Z"/><path fill="white" transform="scale(0.390625 0.390625)" d="M449.814 376.557C449.755 377.771 438.278 395.988 436.42 399.136C426.702 403.007 413.881 409.542 404.283 412.073C404.247 411.801 404.214 411.687 404.285 411.385C405.533 406.071 442.612 381.056 449.814 376.557Z"/><path fill="#CB7E87" transform="scale(0.390625 0.390625)" d="M655.559 731.762C658.244 733.784 659.42 734.617 662.368 736.229C660.774 744.32 659.753 752.514 659.311 760.749C659.191 763.084 659.224 774.53 658.737 775.53L656.993 775.117C652.788 772.837 651.374 771.9 648.454 768.348C650.587 754.493 652.134 745.228 655.559 731.762Z"/><path fill="white" transform="scale(0.390625 0.390625)" d="M524.391 569.824C527.028 571.906 531.63 577.752 533.721 580.512C530.685 586.758 523.938 596.099 519.723 601.743L510.202 593.69C515.039 585.799 519.769 577.843 524.391 569.824Z"/><path fill="#CB7E87" transform="scale(0.390625 0.390625)" d="M661.796 715.372C662.863 716.596 662.183 719.903 662.906 721.669C666.971 731.601 682.107 728.421 689.536 725.839C691.001 728.322 694.659 731.744 694.25 734.255L691.75 734.978C690.067 735.286 688.372 735.525 686.669 735.693C674.971 736.849 665.605 736.224 656.302 728.608C657.925 722.716 658.593 720.516 661.796 715.372Z"/><path fill="white" transform="scale(0.390625 0.390625)" d="M497.637 556.432C501.691 556.54 503.098 556.99 507.03 557.993C500.497 566.345 494.721 576.229 488.018 584.939C485.057 584.479 481.264 584.199 478.222 583.891C482.749 576.441 492.359 563.747 497.637 556.432Z"/><path fill="white" transform="scale(0.390625 0.390625)" d="M131.748 822.833C135.992 826.048 139.393 828.654 143.387 832.235C143.654 838.56 145.273 846.426 146.473 852.715C135.161 847.058 132.708 834.319 131.748 822.833Z"/><path fill="white" transform="scale(0.390625 0.390625)" d="M852.265 740.711C853.417 740.95 855.576 741.331 855.884 742.594C857.875 750.777 861.424 770.651 858.954 778.074C856.883 778.662 857.228 778.9 855.452 778.421C854.864 776.834 854.545 760.777 854.26 757.548C853.769 751.981 853.054 746.369 852.265 740.711Z"/><path fill="white" transform="scale(0.390625 0.390625)" d="M838.478 738.182C840.196 738.658 840.382 738.602 841.861 739.671C844.245 748.287 842.906 768.365 841.026 776.908C840.35 777.533 840.317 777.482 839.505 777.949L838.744 777.272C838.339 765.082 838.676 750.727 838.478 738.182Z"/><path fill="white" transform="scale(0.390625 0.390625)" d="M824.097 734.208C825.625 734.995 825.638 734.923 826.81 736.142C827.459 741.424 828.083 771.027 826.73 775.426L825.624 774.901C821.758 769.773 823.568 741.507 824.097 734.208Z"/><path fill="#CB7E87" transform="scale(0.390625 0.390625)" d="M727.228 779.669C728.9 780.594 728.918 780.697 730.229 781.984C730.487 783.465 728.116 790.994 727.473 793.272C725.431 800.499 726.743 812.442 725.12 818.74C723.062 816.867 722.506 816.104 720.84 813.844C721.553 804.031 724.854 789.187 727.228 779.669Z"/><path fill="white" transform="scale(0.390625 0.390625)" d="M536.204 585.903C536.788 586.703 537.887 588.339 537.838 589.263C537.552 594.688 528.731 605.841 525.636 609.796L522.897 605.766C527.481 599.246 531.919 592.623 536.204 585.903Z"/><path fill="white" transform="scale(0.390625 0.390625)" d="M288.704 297.314C289.65 298.011 289.346 297.678 289.997 298.527C295.121 305.215 300.979 312.234 308.118 316.797C309.267 317.531 309.409 317.476 310.367 318.503L309.778 319.084L304.523 321.039C296.603 315.598 292.005 306.07 288.704 297.314Z"/><path fill="white" transform="scale(0.390625 0.390625)" d="M831.238 775.14C832.288 767.036 830.27 739.629 832.856 736.563C834.869 740.736 834.41 770.104 834.524 776.094L834.004 777.342L833.352 777.548C832.164 776.878 831.982 776.309 831.238 775.14Z"/><path fill="white" transform="scale(0.390625 0.390625)" d="M794.43 712.393C794.631 714.443 791.128 725.994 790.039 728.234L789.443 728.321L788.614 726.784L784.77 719.009C787.918 716.7 791.139 714.494 794.43 712.393Z"/><path fill="#CB7E87" transform="scale(0.390625 0.390625)" d="M737.88 757.815C738.76 758.552 744.717 769.018 745.586 770.583L744.805 770.816C739.779 768.375 737.786 766.364 734.273 762.294C735.42 760.728 736.639 759.302 737.88 757.815Z"/><path fill="white" transform="scale(0.390625 0.390625)" d="M794.566 692.768L795.068 692.685C800.05 691.909 809.841 691.854 809.904 699.004C804.759 696.259 799.898 695.031 794.288 693.581L794.566 692.768Z"/><path fill="#E4DEDB" transform="scale(0.390625 0.390625)" d="M364.51 414.143C362.109 411.1 359.692 408.07 357.26 405.053C359.831 406.91 363.434 410.628 366.013 412.958L364.51 414.143Z"/><path fill="#5F618A" transform="scale(0.390625 0.390625)" d="M763.985 677.176C763.324 674.236 762.764 671.813 762.378 668.819L762.71 669.318L762.366 669.281L762.374 668.807C763.575 670.597 764.531 673.741 765.292 675.861L763.985 677.176Z"/><path fill="#0C1642" transform="scale(0.390625 0.390625)" d="M146.576 891.399C148.52 891.454 149.014 891.709 149.578 893.457C149.178 894.509 148.789 895.248 147.767 895.841C120.748 911.509 93.696 928.621 66.1607 943.308C64.6278 943.673 64.4169 943.069 63.4598 942.14L63.5059 941.035C65.7511 937.635 84.4414 927.941 89.0061 925.266L146.576 891.399Z"/><path fill="#0C1642" transform="scale(0.390625 0.390625)" d="M788.957 305.421L790.179 305.658C791.592 307.124 791.305 306.305 791.394 308.063C789.092 311.429 746.232 333.347 739.804 336.57C739.603 336.495 738.246 335.626 738.021 335.485C737.293 334.143 737.37 334.824 737.728 333.382C740.291 330.671 783.557 308.041 788.957 305.421Z"/><path fill="#0C1642" transform="scale(0.390625 0.390625)" d="M79.85 719.93C81.283 719.764 82.1166 719.806 82.9843 720.887L82.7492 722.145C80.1473 725.576 67.5196 732.352 63.2031 734.827C62.797 734.811 62.0573 734.574 61.6259 734.46C60.6979 733.072 60.8431 733.805 61.1255 732.199C64.0037 728.442 75.3116 722.41 79.85 719.93Z"/></svg>