<?xml version="1.0" encoding="utf-8" ?><svg xmlns="http://www.w3.org/2000/svg" xmlns:xlink="http://www.w3.org/1999/xlink" width="400" height="400" viewBox="0 0 400 400"><path fill="#FBF4ED" transform="scale(0.390625 0.390625)" d="M0 0L1024 0L1024 656.494L1024 661.567L1024 1024L0 1024L0 694.507L0 689.016L0 0Z"/><path fill="#17344D" transform="scale(0.390625 0.390625)" d="M683.72 314.109C685.075 313.383 696.844 307.783 696.87 307.759C702.696 302.177 708.785 297.867 716.063 294.252C765.636 269.629 830.743 271.626 859.503 325.466C862.605 331.212 865.028 337.3 866.722 343.606C875.883 351.166 886.469 361.509 894.851 369.933C945.625 420.96 974.601 477.516 981.564 549.532C983.976 575.598 983.004 601.867 978.673 627.684C989.017 634.506 999.42 641.239 1009.88 647.881C1013.43 650.119 1020.56 654.854 1024 656.494L1024 661.567C1009.42 652.807 991.976 641.746 978.262 631.785C975.94 641.714 974.498 649.368 971.429 659.331C961.362 691.961 943.74 721.757 919.995 746.298C922.774 759.963 924.401 769.303 924.68 783.384C925.525 825.952 903.613 865.663 873.609 895.169C810.167 957.559 711.978 983.032 625.288 983.373C542.543 983.699 449.202 958.223 389.514 898.376C362.209 871.132 342.919 830.92 343.628 792.029C345.51 688.704 459.018 625.004 547.567 603.891C561.201 600.64 571.576 596.915 585.701 597.006C582.422 590.979 581.234 587.914 579.173 581.337C559.885 572.909 562.494 563.202 557.635 544.9C557.48 543.434 557.619 541.781 557.683 540.293C560.051 531.321 552 519.203 566.227 520.251C561.846 497.546 559.384 473.615 555.388 450.759C554.511 445.742 551.025 437.482 555.431 434.336C559.554 434.041 561.005 438.276 563.916 440.789C576.298 451.473 583.473 465.143 589.229 480.217C590.561 483.704 592.521 492.685 595.036 494.467C594.695 481.766 586.732 464.921 579.686 454.536C576.067 449.204 572.281 446.066 570.04 439.833C577.425 428.407 588.989 428.745 601.216 429.092C610.96 451.543 614.103 473.501 612.648 497.706L617.13 499.204C631.879 488.16 639.148 485.423 656.922 483.914C667.55 472.119 677.405 462.392 691.24 454.173C681.969 440.029 683.879 437.216 682.97 420.234C681.821 407.645 678.83 395.248 675.627 383.038C674.568 379.001 671.675 375.359 668.821 372.363C651.408 354.076 663.67 330.115 679.648 317.135C676.398 314.82 669.46 310.809 668.229 307.482C668.379 306.125 668.07 306.666 668.94 305.724C672.637 306.271 679.625 311.971 683.72 314.109Z"/><path fill="#FBF4ED" transform="scale(0.390625 0.390625)" d="M557.339 438.812C568.551 455.545 579.892 473.583 586.686 492.634C587.548 495.049 589.534 513.26 590.101 517.034C593.556 541.431 597.246 565.795 601.169 590.122C601.772 598.379 604.752 614.689 606.13 623.379C602.565 616.407 584.527 587.343 584.811 582.703C586.932 581.843 587.31 581.718 589.147 580.418C590.827 576.656 588.875 577.039 588.113 573.55C587.999 573.027 590.486 570.576 591.167 569.78C592.122 565.215 589.122 566.55 588.365 562.835C589.476 561.068 590.246 560.209 590.525 558.203C589.912 555.028 588.183 554.082 585.607 552.17C584.866 551.468 583.117 550.185 583.462 548.988C585.517 541.875 575.634 538.211 574.334 533.913C567.952 512.813 565.973 489.241 562.118 467.548C560.272 457.161 559.508 448.458 557.339 438.812Z"/><path fill="#102B40" transform="scale(0.390625 0.390625)" d="M566.227 520.251C561.846 497.546 559.384 473.615 555.388 450.759C554.511 445.742 551.025 437.482 555.431 434.336C559.554 434.041 561.005 438.276 563.916 440.789C576.298 451.473 583.473 465.143 589.229 480.217C590.561 483.704 592.521 492.685 595.036 494.467L596.006 493.032C596.682 494.49 596.626 494.742 598.017 495.547L599.01 495.351C599.481 494.401 599.464 494.572 599.702 493.558L600.894 495.623C602.153 497.246 602.375 497.24 604.653 497.295C606.273 494.805 604.417 488.415 605.915 484.172C606.22 488.005 604.847 495.621 607.69 497.803C609.27 497.603 608.664 497.961 609.614 496.777C611.111 485.591 609.888 472.098 608.277 460.86L608.832 460.338L609.734 465.196C610.732 470.446 612.082 494.556 609.961 498.321C606.674 499.638 598.755 496.291 594.822 496.098C591.864 495.952 590.988 496.423 588.218 496.655C588.153 500.562 590.938 516.818 591.629 521.644C593.872 537.309 596.333 553.272 598.545 568.98C599.316 574.455 602.249 585.161 601.169 590.122C597.246 565.795 593.556 541.431 590.101 517.034C589.534 513.26 587.548 495.049 586.686 492.634C579.892 473.583 568.551 455.545 557.339 438.812C559.508 448.458 560.272 457.161 562.118 467.548C565.973 489.241 567.952 512.813 574.334 533.913C575.634 538.211 585.517 541.875 583.462 548.988C583.117 550.185 584.866 551.468 585.607 552.17L584.973 552.652C582.616 551.054 583.412 551.906 582.135 548.925C579.314 547.457 576.59 548.281 575.179 545.14C574.239 543.955 566.639 538.155 564.987 536.81L563.976 537.607L562.462 537.238L562.528 538.478L562.577 541.559L562.606 545.402C561.255 544.381 559.391 544.789 557.635 544.9C557.48 543.434 557.619 541.781 557.683 540.293C560.051 531.321 552 519.203 566.227 520.251Z"/><path fill="#FBF4ED" transform="scale(0.390625 0.390625)" d="M564.987 536.81C562.475 534.956 562.985 535.84 562.268 532.231C561.784 529.798 561.799 527.636 562.863 525.357C564.425 524.379 564.489 524.509 566.282 524.526L567.288 525.062C568.703 530.011 567.802 532.822 571.561 536.376C573.82 538.513 578.632 543.08 579.461 545.824L578.933 546.522C577.177 546.36 576.708 545.97 575.179 545.14C574.239 543.955 566.639 538.155 564.987 536.81Z"/><path fill="#2E4761" transform="scale(0.390625 0.390625)" d="M557.683 540.293C558.599 542.247 557.909 541.744 559.413 542.532C561.2 541.624 560.846 541.473 562.577 541.559L562.606 545.402C561.255 544.381 559.391 544.789 557.635 544.9C557.48 543.434 557.619 541.781 557.683 540.293Z"/><path fill="#52657D" transform="scale(0.390625 0.390625)" d="M569.858 452.385C574.531 454.524 592.712 490.825 592.007 495.32C591.598 495.557 591.877 495.44 591.11 495.464C590.073 490.514 586.994 484.941 585.132 480.18C581.183 470.081 575.692 461.474 569.858 452.385Z"/><path fill="#FBF4ED" transform="scale(0.390625 0.390625)" d="M588.838 432.381C592.274 432.163 595.898 432.14 599.357 432.07C604.031 443.58 605.071 449.41 608.277 460.86C609.888 472.098 611.111 485.591 609.614 496.777C608.664 497.961 609.27 497.603 607.69 497.803C604.847 495.621 606.22 488.005 605.915 484.172C607.23 465.538 598.447 447.539 588.838 432.381Z"/><path fill="#FBF4ED" transform="scale(0.390625 0.390625)" d="M596.006 493.032C596.438 490.645 595.938 488.105 595.465 485.734C592.793 472.371 586.23 459.888 578.555 448.745C577.27 446.882 573.297 441.653 573.165 438.933C573.784 438.253 574.313 437.672 574.753 437.19C581.778 435.081 595.996 467.211 596.942 473.906C597.726 479.456 598.393 489.035 599.702 493.558C599.464 494.572 599.481 494.401 599.01 495.351L598.017 495.547C596.626 494.742 596.682 494.49 596.006 493.032Z"/><path fill="#FBF4ED" transform="scale(0.390625 0.390625)" d="M585.286 431.82C594.899 447.853 601.384 458.848 603.495 478.18C603.96 482.445 603.943 493.842 604.653 497.295C602.375 497.24 602.153 497.246 600.894 495.623C602.834 475.549 592.847 448.908 578.29 434.991C580.621 433.883 582.883 432.765 585.286 431.82Z"/><path fill="#FBF4ED" transform="scale(0.390625 0.390625)" d="M562.528 538.478C566.199 539.691 570.18 545.418 573.15 547.84C576.765 550.788 585.634 554.036 587.397 558.514L587.064 559.259C581.909 560.438 574.416 555.383 570.117 552.708C567.14 550.856 563.056 549.007 562.606 545.402L562.577 541.559L562.528 538.478Z"/><path fill="#FBF4ED" transform="scale(0.390625 0.390625)" d="M553.478 608.181L553.654 608.537C535.334 627.242 524.424 659.122 511.662 680.799C504.248 683.229 496.389 687.977 489.735 692.101C470.779 703.849 454.637 716.487 441.618 734.901C427.835 754.398 420.272 776.025 421.584 800.131C421.983 807.47 423.526 815.293 424.767 822.587C421.579 826.669 418.222 830.243 418.423 835.76C418.85 847.458 432.308 856.694 442.961 858.558C445.77 859.05 448.806 858.978 451.651 858.939C461.596 871.386 469.884 877.828 483.497 885.388C475.718 892.119 457.705 907.327 454.762 917.537C454.286 919.188 455.077 922.074 456.207 923.473C461.828 930.433 474.313 935.993 482.854 937.282C501.241 940.056 512.44 930.08 526.527 920.387C533.849 915.349 541.158 910.829 548.349 905.503C558.224 910.033 578.992 913.557 590.269 914.91C659.262 923.191 746.222 908.943 801.973 865.239C821.368 850.034 842.709 821.94 845.653 796.837C870.077 786.277 895.545 768.789 915.202 750.796C920.851 768.928 920.191 793.197 916.369 811.525C896.634 898.306 800.636 949.737 720.538 967.246C623.795 988.353 518.621 979.483 433.141 926.524C381.359 894.442 340.304 837.735 350.394 773.879C353.064 756.981 361.446 734.357 371.26 720.064C412.186 660.464 484.101 623.152 553.478 608.181Z"/><path fill="#F6A8A3" transform="scale(0.390625 0.390625)" d="M868.433 351.391C870.122 352.668 875.768 358.178 877.565 359.865C887.94 369.631 897.871 379.859 907.327 390.518C959.157 449.698 981.865 520.526 976.621 598.42C971.268 677.916 938.434 736.467 870.041 777.959C795.227 823.347 704.84 832.227 631.308 778.624C624.505 773.665 616.272 763.323 610.625 756.863C613.248 750.451 615.538 744.361 618.513 738.079C632.396 756.037 645.92 769.315 664.793 782.867C687.064 798.859 713.731 802.772 740.056 794.334C742.749 793.47 744.813 792.148 747.691 791.661C748.854 792.603 748.981 792.9 750.46 793.083C753.037 791.7 752.349 789.954 752.996 789.525C761.55 783.845 768.804 778.49 776.291 771.396C790.147 757.169 793.618 745.829 805.369 732.008C810.021 726.637 815.004 721.562 820.289 716.813C824.025 713.454 831.066 707.617 833.817 703.96C822.255 708.657 808.814 722.256 801.102 731.86C804.57 723.737 806.986 716.875 809.719 708.408C812.393 702.513 814.666 688.899 818.602 683.989C831.716 667.626 852.737 657.328 871.89 649.76C875.116 648.485 888.18 644.489 889.207 643.128L888.934 642.076C885.848 640.395 877.254 643.951 874.006 645.084C854.733 651.812 836.768 660.407 821.974 674.795C826.008 663.989 829.111 652.305 834.227 641.974C847.703 614.767 878.81 584.545 905.379 570.34C908.428 568.71 923.337 562.36 924.125 561.011C924.499 560.372 924.115 560.021 923.865 559.405C923.133 558.996 923.192 558.782 922.565 558.978C886.212 570.348 858.489 599.541 837.401 630.024C843.691 608.755 853.108 568.555 845.828 547.816C853.131 541.309 853.608 535.591 850.866 526.507C847.165 514.245 839.711 504.393 831.549 494.793C854.818 489.826 870.779 477.753 886.715 460.796C892.72 454.407 897.605 447.363 904.411 441.734C906.696 439.844 913.862 431.261 913.888 428.643C911.702 427.002 905.064 427.474 902.221 426.507C868.739 415.12 874.086 378.778 868.433 351.391Z"/><path fill="#17344D" transform="scale(0.390625 0.390625)" d="M914.527 466.394L915.698 466.538C916.058 467.199 916.319 467.341 915.902 467.761C912.418 471.272 907.855 474.81 904.311 478.362C899.595 483.086 895.184 488.105 891.106 493.389C872.359 517.83 858.819 548.489 851.539 578.342C850.532 578.346 851.006 578.504 850.168 577.738C850.019 574.054 853.524 560.866 854.571 556.701C861.851 527.745 888.809 480.944 914.527 466.394Z"/><path fill="#C8C6C5" transform="scale(0.390625 0.390625)" d="M579.018 601.719L589.066 602.025C594.61 611.839 600.802 621.553 606.201 631.424C608.407 635.458 606.099 639.482 611.038 644.432C618.011 651.42 629.626 651.353 638.792 651.672C651.718 662.864 665.195 673.157 678.562 683.524C685.297 688.747 713.683 705.997 716.457 710.16C730.962 731.931 740.585 762.949 747.329 788.143C736.564 791.339 728.26 793.868 716.743 794.308C685.137 795.661 659.5 775.073 638.69 753.598C632.582 747.295 626.691 739.489 620.093 733.754C622.244 726.445 638.234 692.874 636.939 689.244C635.537 688.553 636.26 688.626 634.693 689.122C633.584 690.631 626.71 706.387 625.428 709.242C612.758 737.356 600.815 765.792 589.61 794.522C586.856 801.786 583.905 811.13 581.366 818.662C581.011 819.714 579.624 819.626 578.295 819.851C561.162 820.545 538.444 813.647 528.332 798.982C530.38 791.387 535.131 778.617 537.852 771.002C545.779 749.265 554.1 727.674 562.811 706.239C571.184 685.563 579.819 656.834 598.092 643.119C601.117 640.849 605.039 640.848 605.963 636.565L605.382 635.738C603.826 635.46 601.755 635.669 600.33 636.356C580.932 645.706 572.524 670.001 564.884 688.28C559.167 701.794 553.672 715.402 548.404 729.097C544.172 740.159 539.903 752.315 535.341 763.074C527.664 761.152 493.278 747.842 491.631 738.391C490.714 733.128 502.378 712.216 505.543 705.611C520.207 675.003 534.042 642.358 554.065 614.775C559.494 607.303 569.997 602.256 579.018 601.719Z"/><path fill="#FBF4ED" transform="scale(0.390625 0.390625)" d="M608.719 760.399C609.152 760.851 611.756 764.503 612.382 765.291C615.088 768.719 617.932 772.035 620.907 775.231C633.956 789.138 653.302 800.012 671.154 806.767C730.791 829.332 785.018 823.58 842.425 798.307C842.293 798.826 842.155 799.344 842.013 799.86C830.848 839.968 806.122 861.718 771.267 881.549C762.896 885.983 754.256 889.892 745.399 893.253C695.11 912.549 632.832 918.703 579.738 910.175C573.625 909.193 556.276 905.985 550.999 903.64C555.241 900.317 556.302 899.315 558.882 894.57C558.434 887.274 559.175 869.288 555.494 864.686C557.149 860.844 558.126 858.673 559.16 854.658C565.647 854.559 570.129 853.783 576.454 852.71C578.951 844.024 581.794 835.46 584.333 826.794C585.76 821.641 586.673 816.365 588.462 811.311C594.559 794.093 601.635 777.23 608.719 760.399Z"/><path fill="#FBF4ED" transform="scale(0.390625 0.390625)" d="M650.363 509.701C670.299 507.456 690.309 512.954 708.358 521.105C713.229 523.304 720.543 527.754 725.062 529.267L726.103 528.106L726.63 528.125C724.92 533.778 726.087 536.992 726.811 542.748L729.628 565.495C731.225 578.696 731.951 591.531 733.317 604.72C726.903 598.279 724.525 595.553 722.143 586.892C718.212 583.618 707.422 577.703 703.065 582.277C701.447 588.089 707.943 593.371 711.394 599.556C707.54 598.207 699.151 594.544 695.562 596.826C694.434 600.046 697.751 602.884 698.525 607.246L697.953 607.981C696.015 608.323 693.393 608.687 693.233 611.075C692.693 619.161 705.114 622.61 708.581 627.779L708.35 628.488C704.992 629.264 699.266 626.749 696.602 627.531C698.246 631.435 714.306 635.388 710.821 639.781C706.809 640.788 700.826 635.159 695.941 633.816C685.213 630.865 672.918 625.667 661.872 625.411C660.876 618.559 659.651 611.54 658.54 604.69C664.667 605 673.802 605.191 679.577 606.21C680.862 610.52 680.467 622.447 683.25 624.495L684.09 623.92C684.815 621.173 683.796 608.573 682.696 605.987C680.771 601.462 659.061 600.264 656.179 602.343C655.155 606.763 658.311 623.181 659.44 628.302C671.927 628.213 681.9 631.753 693.649 635.708C699.719 637.752 705.092 641.434 710.961 643.912L711.527 644.146L713.673 639.997L722.39 646.616C717.582 650.566 717.576 652.368 715.95 658.291C708.841 657.179 700.542 654.457 693.213 653.072C674.358 649.509 652.578 647.03 633.463 647.431C630.502 622.482 626.506 596.709 622.899 571.798L615.805 520.166C627.862 514.562 637.144 511.232 650.363 509.701Z"/><path fill="#102B40" transform="scale(0.390625 0.390625)" d="M643.664 525.613C659.4 523.993 656.555 536.168 657.099 547.414C657.241 550.332 656.817 553.541 656.214 556.389C651.167 558.889 648.132 560.386 642.619 561.43C628.853 561.9 627.501 546.628 631.204 536.79C633.517 530.641 637.935 527.913 643.664 525.613Z"/><path fill="#FBF4ED" transform="scale(0.390625 0.390625)" d="M644.913 528.568C654.415 528.092 652.964 531.923 653.85 540.171C654.304 544.401 654.097 549.676 653.717 553.888C649.089 556.387 646.476 557.292 641.395 558.393C637.346 558.17 634.059 555.732 633.196 551.768C630.735 540.468 633.903 531.887 644.913 528.568Z"/><path fill="#10161B" transform="scale(0.390625 0.390625)" d="M645.952 534.132C646.551 533.203 646.948 532.548 647.299 531.5C648.823 531.6 648.128 531.525 649.677 532.701L649.84 533.527L648.447 535.054C649.271 536.8 651.087 536.025 650.228 538.369C649.336 540.803 648.127 540.427 647.85 543.322L648.26 543.892L649.195 543.099L649.251 541.743L649.973 541.262L650.661 541.883C650.638 543.883 650.922 543.004 649.826 544.631C648.494 545.133 638.16 548.703 637.612 548.66C637.078 547.88 637.208 548.272 637.1 547.53L636.576 546.195C636.458 544.096 635.951 540.508 637.916 539.37C639.512 539.864 640.009 541.058 640.989 542.504C644.526 541.518 646.972 541.238 649.288 538.369L649.131 537.608C644.43 536.121 645.074 539.443 641.76 538.97C640.346 537.591 640.356 537.663 639.492 535.914C640.359 534.338 641.318 532.045 643.353 532.183L643.173 533.171C644.597 533.8 644.434 533.829 645.952 534.132Z"/><path fill="#10161B" transform="scale(0.390625 0.390625)" d="M648.26 543.892L649.195 543.099L649.251 541.743L649.973 541.262L650.661 541.883C650.638 543.883 650.922 543.004 649.826 544.631C648.494 545.133 638.16 548.703 637.612 548.66C637.078 547.88 637.208 548.272 637.1 547.53C639.934 547.109 640.201 547.143 641.785 545.199C644.149 544.47 645.837 544.266 648.26 543.892Z"/><path fill="#C8C6C5" transform="scale(0.390625 0.390625)" d="M636.576 546.195C637.384 545.931 636.95 546.138 637.817 545.459C637.832 543.563 637.958 543.21 638.404 541.436L638.95 541.245C639.742 542.521 639.931 542.856 641.146 543.728L641.785 545.199C640.201 547.143 639.934 547.109 637.1 547.53L636.576 546.195Z"/><path fill="#C8C6C5" transform="scale(0.390625 0.390625)" d="M645.952 534.132C646.652 535.026 646.428 534.513 646.59 535.686C644.786 537.097 643.86 537.606 641.48 536.992L640.976 536.127C641.335 534.553 641.95 534.244 643.173 533.171C644.597 533.8 644.434 533.829 645.952 534.132Z"/><path fill="#C8C6C5" transform="scale(0.390625 0.390625)" d="M641.146 543.728C643.827 542.736 645.517 541.425 647.85 543.322L648.26 543.892C645.837 544.266 644.149 544.47 641.785 545.199L641.146 543.728Z"/><path fill="#10161B" transform="scale(0.390625 0.390625)" d="M641.861 550.095L642.264 550.751C641.061 552.111 640.214 551.985 638.152 552.643L637.719 551.746C638.956 550.469 639.802 550.635 641.861 550.095Z"/><path fill="#17344D" transform="scale(0.390625 0.390625)" d="M668.983 544.398C668.591 539.931 664.954 534.56 666.187 531.874C668.583 530.389 670.336 530.386 673.122 530.57L673.74 530.616C673.962 529.976 674.14 529.415 674.338 528.77L675.698 528.648C678.343 528.739 678.648 528.815 680.967 530.086L681.613 531.006C680.704 532.019 681.231 531.614 679.87 532.018C686.368 534.91 687.042 539.968 689.053 541.515L692.05 541.425L691.991 542.208L693.823 542.153C693.553 544.074 693.315 543.281 694.259 544.686C697.319 545.08 699.054 545.058 702.089 545.894C703.572 546.853 703.787 546.864 704.857 548.314L705.347 548.104C705.76 549.739 706.005 550.607 706.644 552.173C707.873 555.187 712.038 557.475 711.034 560.421C709.889 560.893 708.294 561.488 707.231 562.038L704.958 560.138C697.941 562.265 697.381 558.11 690.72 557.509C688.473 557.306 685.88 560.037 682.843 558.892C680.633 558.058 680.153 555.712 679.33 553.499L678.581 553.168C677.004 553.616 673.943 554.622 672.728 553.551C670.181 551.306 664.519 545.081 663.713 541.916L664.157 541.256L664.99 541.394C666.271 542.687 667.175 543.958 668.983 544.398Z"/><path fill="#FBF4ED" transform="scale(0.390625 0.390625)" d="M668.983 544.398C668.591 539.931 664.954 534.56 666.187 531.874C668.583 530.389 670.336 530.386 673.122 530.57L673.74 530.616C673.962 529.976 674.14 529.415 674.338 528.77L675.698 528.648C678.343 528.739 678.648 528.815 680.967 530.086L681.613 531.006C680.704 532.019 681.231 531.614 679.87 532.018C686.368 534.91 687.042 539.968 689.053 541.515C688.505 543.936 688.552 543.453 686.449 545.391L684.562 544.55L683.895 545.788C683.987 546.002 684.384 546.971 684.495 547.13L683.425 547.963L683.163 547.966L683.067 547.52L681.265 548.397C679.097 550.56 676.564 550.616 673.573 550.392C669.953 549.633 669.987 547.055 670.047 544.078L668.983 544.398Z"/><path fill="#C8C6C5" transform="scale(0.390625 0.390625)" d="M679.87 532.018C686.368 534.91 687.042 539.968 689.053 541.515C688.505 543.936 688.552 543.453 686.449 545.391L684.562 544.55L683.895 545.788C683.987 546.002 684.384 546.971 684.495 547.13L683.425 547.963L683.163 547.966L683.067 547.52L681.265 548.397C679.097 550.56 676.564 550.616 673.573 550.392C673.446 548.614 673.476 546.731 673.47 544.938C672.828 543.419 672.863 543.395 672.644 541.741L673.193 541.326L674.775 542.045L674.708 539.927C677.098 538.671 677.701 540.262 679.604 538.771L679.036 537.566L680.979 535.933L679.025 533.733L679.87 532.018Z"/><path fill="#102B40" transform="scale(0.390625 0.390625)" d="M679.87 532.018C686.368 534.91 687.042 539.968 689.053 541.515C688.505 543.936 688.552 543.453 686.449 545.391L684.562 544.55L685.305 543.7C682.932 544.417 682.732 544.525 681.071 542.93C680.797 541.113 680.667 541.944 681.363 540.335C682.917 540.143 683.16 540.7 684.872 541.658C685.857 540.866 685.58 541.365 685.787 540.211C684.374 538.31 682.6 538.364 680.8 537.646L680.979 535.933L679.025 533.733L679.87 532.018Z"/><path fill="#F6E7E1" transform="scale(0.390625 0.390625)" d="M673.47 544.938C675.265 544.469 680.027 547.015 681.265 548.397C679.097 550.56 676.564 550.616 673.573 550.392C673.446 548.614 673.476 546.731 673.47 544.938Z"/><path fill="#2E4761" transform="scale(0.390625 0.390625)" d="M673.47 544.938C672.828 543.419 672.863 543.395 672.644 541.741L673.193 541.326L674.775 542.045C677.657 544.193 680.452 545.372 683.067 547.52L681.265 548.397C680.027 547.015 675.265 544.469 673.47 544.938Z"/><path fill="#102B40" transform="scale(0.390625 0.390625)" d="M668.983 544.398C668.591 539.931 664.954 534.56 666.187 531.874C668.583 530.389 670.336 530.386 673.122 530.57L673.74 530.616C673.962 529.976 674.14 529.415 674.338 528.77L675.698 528.648C678.343 528.739 678.648 528.815 680.967 530.086L681.613 531.006C680.704 532.019 681.231 531.614 679.87 532.018L679.025 533.733L678.283 534.197C675.306 534.06 673.559 533.257 669.869 533.249L669.123 533.774C669.27 538.555 672.308 538.998 670.047 544.078L668.983 544.398Z"/><path fill="#C8C6C5" transform="scale(0.390625 0.390625)" d="M675.698 528.648C678.343 528.739 678.648 528.815 680.967 530.086L681.613 531.006C680.704 532.019 681.231 531.614 679.87 532.018L679.025 533.733L678.283 534.197C676.891 531.475 676.303 532.435 675.698 528.648Z"/><path fill="#102B40" transform="scale(0.390625 0.390625)" d="M674.708 539.927C673.665 538.391 673.11 538.05 673.66 536.361C675.571 535.244 677.444 536.526 679.036 537.566L679.604 538.771C677.701 540.262 677.098 538.671 674.708 539.927Z"/><path fill="#C8C6C5" transform="scale(0.390625 0.390625)" d="M702.089 545.894C703.572 546.853 703.787 546.864 704.857 548.314L705.347 548.104C705.76 549.739 706.005 550.607 706.644 552.173C707.873 555.187 712.038 557.475 711.034 560.421C707.837 557.758 707.736 556.711 703.708 558.024C702.396 557.045 703.141 557.419 701.226 557.25C702.419 554.728 702.733 554.336 703.062 551.644C704.64 549.706 703.095 547.895 702.089 545.894Z"/><path fill="#2E4761" transform="scale(0.390625 0.390625)" d="M702.089 545.894C703.572 546.853 703.787 546.864 704.857 548.314C705.15 551.968 706.212 555.205 703.708 558.024C702.396 557.045 703.141 557.419 701.226 557.25C702.419 554.728 702.733 554.336 703.062 551.644C704.64 549.706 703.095 547.895 702.089 545.894Z"/><path fill="#C8C6C5" transform="scale(0.390625 0.390625)" d="M694.519 549.668C698.664 547.865 700.004 548.535 703.062 551.644C702.733 554.336 702.419 554.728 701.226 557.25C699.117 557.07 697.393 556.169 695.416 555.348L696.212 553.222C696.094 551.46 695.59 551.072 694.519 549.668Z"/><path fill="#FBF4ED" transform="scale(0.390625 0.390625)" d="M684.495 547.13C686.33 547.263 686.717 546.895 687.918 548.52C689.029 550.024 689.729 551.658 688.93 553.473L688.022 553.962C686.263 551.935 684.689 550.335 683.425 547.963L684.495 547.13Z"/><path fill="#F6E7E1" transform="scale(0.390625 0.390625)" d="M689.053 541.515L692.05 541.425L691.991 542.208C691.847 543.829 691.886 546.104 690.939 547.256C688.99 547.094 688.447 546.036 686.449 545.391C688.552 543.453 688.505 543.936 689.053 541.515Z"/><path fill="#FBF4ED" transform="scale(0.390625 0.390625)" d="M695.416 555.348C693.234 554.554 692.602 554.38 691.911 552.25C692.726 550.314 692.369 550.958 694.519 549.668C695.59 551.072 696.094 551.46 696.212 553.222L695.416 555.348Z"/><path fill="#102B40" transform="scale(0.390625 0.390625)" d="M683.163 547.966L683.425 547.963C684.689 550.335 686.263 551.935 688.022 553.962C686.83 555.2 687.159 554.496 686.869 556.077C685.213 553.946 684.023 552.291 682.049 550.42C682.781 549.567 682.766 549.135 683.163 547.966Z"/><path fill="#FBF4ED" transform="scale(0.390625 0.390625)" d="M682.049 550.42C684.023 552.291 685.213 553.946 686.869 556.077C684.487 555.989 684.672 556.202 682.978 555.008C682.075 553.42 682.172 552.247 682.049 550.42Z"/><path fill="#102B40" transform="scale(0.390625 0.390625)" d="M682.068 529.583C680.181 527.004 682.567 526.293 678.546 523.409C673.43 519.74 666.11 518.41 668.406 527.489C667.52 528.876 668.117 528.471 666.66 528.883C664.596 527.236 664.197 522.326 665.768 520.174C670.11 514.23 682.677 520.008 683.796 525.918C684.757 531.116 695.612 528.559 697.598 533.546C697.752 533.934 698.328 534.586 698.523 534.831C705.827 531.515 710.473 531.819 709.677 541.627L711.452 542.762C712.758 543.582 712.863 543.61 713.559 545.066C713.386 546.993 712.058 548.932 711.087 550.68C711.776 552.497 711.602 553.492 712.621 555.123C713.855 557.099 714.141 558.803 713.691 561.063C711.652 563.352 709.887 562.937 707.231 562.038C708.294 561.488 709.889 560.893 711.034 560.421C712.038 557.475 707.873 555.187 706.644 552.173C706.005 550.607 705.76 549.739 705.347 548.104L704.857 548.314C703.787 546.864 703.572 546.853 702.089 545.894C699.054 545.058 697.319 545.08 694.259 544.686C693.315 543.281 693.553 544.074 693.823 542.153L691.991 542.208L692.05 541.425C693.029 539.571 694.005 537.485 694.943 535.589C690.317 530.672 686.777 534.08 682.068 529.583Z"/><path fill="#2E4761" transform="scale(0.390625 0.390625)" d="M694.943 535.589C696.411 536.113 697.116 536.197 698.08 537.418L698.877 538.659L700.013 538.884C700.706 538.206 700.672 538.478 700.893 537.728C702.541 538.592 703.244 538.747 704.073 540.402C703.545 543.61 696.881 543.343 694.259 544.686C693.315 543.281 693.553 544.074 693.823 542.153L691.991 542.208L692.05 541.425C693.029 539.571 694.005 537.485 694.943 535.589Z"/><path fill="#102B40" transform="scale(0.390625 0.390625)" d="M694.943 535.589C696.411 536.113 697.116 536.197 698.08 537.418C695.343 538.983 695.819 540.498 693.823 542.153L691.991 542.208L692.05 541.425C693.029 539.571 694.005 537.485 694.943 535.589Z"/><path fill="#F6E7E1" transform="scale(0.390625 0.390625)" d="M700.893 537.728C702.156 536.529 702.396 536.117 704.114 535.74C707.494 536.932 705.945 545.148 705.347 548.104L704.857 548.314C703.787 546.864 703.572 546.853 702.089 545.894C699.054 545.058 697.319 545.08 694.259 544.686C696.881 543.343 703.545 543.61 704.073 540.402C703.244 538.747 702.541 538.592 700.893 537.728Z"/><path fill="#102B40" transform="scale(0.390625 0.390625)" d="M708.979 542.604L709.677 541.627L711.452 542.762C712.758 543.582 712.863 543.61 713.559 545.066C713.386 546.993 712.058 548.932 711.087 550.68C710.345 549.489 709.689 549.138 708.528 548.452C708.481 546.372 708.739 544.65 708.979 542.604Z"/><path fill="#C8C6C5" transform="scale(0.390625 0.390625)" d="M708.979 542.604C710.553 544.513 710.31 543.709 710.639 545.946C710.187 547.091 709.73 547.961 708.528 548.452C708.481 546.372 708.739 544.65 708.979 542.604Z"/><path fill="#102B40" transform="scale(0.390625 0.390625)" d="M665.655 591.327C662.664 586.369 659.324 575.321 661.483 570.088C667.411 555.721 681.889 566.557 685.955 575.613C693.064 565.249 722.697 567.689 721.035 579.146L720.374 579.732C719.266 579.021 718.858 578.548 718.017 577.567C712.206 570.788 701.854 570.837 694.074 573.758C691.687 574.654 689.774 575.86 687.543 576.77C685.183 579.678 694.902 583.391 683.606 593.439C684.54 590.971 685.408 588.403 686.286 585.908C684.514 577.526 680.486 566.262 668.997 566.508C662.509 566.647 663.925 575.601 664.561 580.06C666.339 592.524 673.734 591.377 682.931 594.97C683.579 595.227 683.412 595.691 683.438 596.282C679.941 599.427 669.377 593.252 665.655 591.327Z"/><path fill="#10161B" transform="scale(0.390625 0.390625)" d="M664.066 613.048L668.556 613.682C670.653 613.964 673.557 614.249 675.504 614.866L675.829 617.744C675.443 619.862 675.857 619.474 674.553 620.545C672.04 620.877 666.811 620.591 664.827 619.061L664.58 617.971C664.634 617.519 664.823 616.9 664.942 616.439L666.452 616.054L667.346 615.189C665.91 615.113 665.674 615.215 664.382 614.658L664.066 613.048Z"/><path fill="#10161B" transform="scale(0.390625 0.390625)" d="M664.066 613.048L668.556 613.682C670.653 613.964 673.557 614.249 675.504 614.866C673.179 616.017 670.349 614.852 667.346 615.189C665.91 615.113 665.674 615.215 664.382 614.658L664.066 613.048Z"/><path fill="#C8C6C5" transform="scale(0.390625 0.390625)" d="M664.58 617.971C666.873 616.605 671.826 617.084 674.103 618.391L674.044 619.019C670.46 619.653 668.3 618.027 664.827 619.061L664.58 617.971Z"/><path fill="#C8C6C5" transform="scale(0.390625 0.390625)" d="M675.504 614.866L675.829 617.744C672.324 615.524 670.383 617.244 666.452 616.054L667.346 615.189C670.349 614.852 673.179 616.017 675.504 614.866Z"/><path fill="#102B40" transform="scale(0.390625 0.390625)" d="M665.368 611.02L663.876 609.99L663.747 609.068C666.059 607.763 673.606 609.013 675.295 611.492L675.005 612.388C673.2 613.229 670.776 612.948 668.687 612.924L668.556 613.682L664.066 613.048L665.368 611.02Z"/><path fill="#C8C6C5" transform="scale(0.390625 0.390625)" d="M665.368 611.02C667.179 611.059 671.703 610.85 672.918 611.585C671.394 612.046 670.355 612.148 668.798 612.362L668.687 612.924L668.556 613.682L664.066 613.048L665.368 611.02Z"/><path fill="#C8C6C5" transform="scale(0.390625 0.390625)" d="M665.801 576.429C666.13 574.041 667.007 573.051 669.225 572.555C670.893 573.266 670.379 573.069 671.513 574.976C671.618 576.907 671.913 576.714 671.113 578.113C670.195 581.294 671.478 580.021 670.594 583.219L670.567 582.588L669.434 582.38C668.317 580.948 667.251 579.104 666.272 577.54L665.801 576.429Z"/><path fill="#102B40" transform="scale(0.390625 0.390625)" d="M665.801 576.429C666.13 574.041 667.007 573.051 669.225 572.555C670.893 573.266 670.379 573.069 671.513 574.976C670.208 574.344 669.562 573.828 668.175 574.141C668.511 575.45 668.616 575.311 669.406 576.518L668.996 577.102C667.303 577.139 667.392 577.084 665.801 576.429Z"/><path fill="#10161B" transform="scale(0.390625 0.390625)" d="M666.272 577.54C668.198 579.054 667.847 579.32 669.715 579.268L670.66 577.892L671.113 578.113C670.195 581.294 671.478 580.021 670.594 583.219L670.567 582.588L669.434 582.38C668.317 580.948 667.251 579.104 666.272 577.54Z"/><path fill="#10161B" transform="scale(0.390625 0.390625)" d="M676.687 579.122C678.331 579.995 679.592 583.377 680.147 585.175C679.019 584.381 678.653 583.309 677.632 582.204L677.406 583.122C677.04 585.45 677.25 585.691 675.697 587.394L674.966 587.303C674.514 584.956 675.825 581.356 676.687 579.122Z"/><path fill="#FBF4ED" transform="scale(0.390625 0.390625)" d="M708.997 310.211C716.355 309.575 724.373 310.464 731.712 311.285C712.753 335.942 708.792 364.27 731.663 387.905C729.833 388.977 728.115 389.752 727.187 391.6C727.531 393.306 727.149 392.515 728.756 393.831C730.433 393.717 732.946 391.567 735.12 390.37C739.876 393.707 762.406 408.136 766.916 401.8C766.921 401.065 766.829 400.009 766.261 399.454C749.182 382.771 729.563 357.167 735.914 331.852C739.34 343.071 739.661 350.087 745.592 361.728C756.428 382.996 766.021 387.688 786.947 395.133C779.324 412.976 779.503 427.474 790.909 443.452C787.279 451.309 786.966 476.288 792.182 482.208C792.827 488.46 781.569 495.509 776.807 498.165C766.105 504.135 753.449 509.498 741.15 510.701L741.106 510.064C740.833 505.557 740.925 500.719 744.032 497.191C750.51 489.921 755.003 484.647 754.671 474.129C764.499 470.129 774.032 465.395 781.332 457.329C782.723 455.793 785.05 453.099 784.883 451.037L784.047 450.524C781.455 452.008 779.059 455.357 776.697 457.479C763.293 469.519 739.637 478.054 721.917 472.199C710.309 468.363 696.198 455.47 690.796 444.489C686.499 435.756 688.588 422.681 686.896 413.074C685.62 404.681 682.644 395.988 682.331 387.976C682.071 381.31 689.01 368.687 693.543 363.779C696.205 360.916 701.412 357.314 703.521 354.255C708.294 347.335 723.406 325.238 719.485 317.653C718.268 316.531 717.769 316.239 716.123 316.204C684.763 315.536 669.36 339.814 669.523 369.072C668.369 367.063 667.438 365.235 666.519 363.111C657.379 341.975 676.546 318.113 696.288 312.049C700.623 310.717 704.411 310.449 708.997 310.211Z"/><path fill="#102B40" transform="scale(0.390625 0.390625)" d="M710.26 406.234C716.005 408.027 716.899 422.063 715.652 427.145C715.253 428.771 713.281 429.582 711.915 430.339L711.274 430.689C710.661 433.688 714.741 434.49 716.892 435.176C718.089 436.559 717.745 435.76 717.807 437.714C710.419 440.723 702.506 431.133 710.881 426.333C714.978 423.985 710.281 410.573 710.26 406.234Z"/><path fill="#17344D" transform="scale(0.390625 0.390625)" d="M737.382 404.455C746.412 404.893 749.827 413.665 743.519 420.081C736.166 420.198 735.73 413.511 735.011 407.603C734.867 406.415 736.533 405.192 737.382 404.455Z"/><path fill="#17344D" transform="scale(0.390625 0.390625)" d="M690.886 399.603C699.121 400.688 699.777 408.125 695.652 414.092C694.563 414.312 694.084 414.308 692.959 414.39C688.406 412.704 687.107 402.693 690.886 399.603Z"/><path fill="#102B40" transform="scale(0.390625 0.390625)" d="M694.066 381.55C698.453 381.343 704.748 383.301 704.155 388.704L703.423 389.228C701.394 388.856 699.424 386.015 696.465 384.862C692.549 386.446 690.745 390.722 688.102 390.819C686.75 386.576 690.974 383.347 694.066 381.55Z"/><path fill="#102B40" transform="scale(0.390625 0.390625)" d="M738.493 445.246C740.016 445.873 740.197 445.787 741.062 447.209C740.796 452.377 732.747 454.559 728.417 454.525C726.76 453.93 726.071 453.621 725.477 452.044C728.467 448.917 733.107 452.142 738.493 445.246Z"/><path fill="#FBF4ED" transform="scale(0.390625 0.390625)" d="M821.732 548.77C828.599 548.3 834.686 549.677 842.014 549.006C844.487 563.167 843.399 577.148 840.835 591.22C839.081 600.847 837.112 610.416 834.373 619.816C826.756 645.954 802.571 711.814 780.126 727.077C773.705 731.443 766.447 732.987 758.804 731.516C747.217 729.286 737.624 721.266 731.237 711.629C725.081 702.338 715.004 673.713 717.548 662.865C717.795 661.808 717.779 661.763 718.76 661.211C720.47 665.675 721.56 669.483 725.307 672.696C736.413 682.228 754.386 681.84 764.076 670.354C768.917 664.616 769.536 658.332 768.909 651.223C768.256 647.118 766.979 644.311 765.278 640.604C781.257 654.112 785.237 667.372 785.423 688.357C785.441 690.439 785.362 694.235 786.88 695.731L787.54 695.609C792.701 689.994 787.657 669.355 785.333 662.564C793.121 673.239 792.681 674.589 797.246 686.242C798.988 666.995 786.535 663.698 778.533 648.662C776.711 645.239 772.869 641.986 769.881 639.691C778.856 615.966 791.088 590.84 812.753 576.678C817.463 573.599 828.479 570.5 830.183 568.797C828.584 568.16 827.572 568.121 825.869 568.309C811.174 569.933 798.583 582.411 789.711 593.241C794.065 575.859 803.567 564.427 811.111 548.752C814.727 548.858 818.113 548.826 821.732 548.77Z"/><path fill="#FBF4ED" transform="scale(0.390625 0.390625)" d="M705.972 305.951C711.563 301.467 729.212 291.337 736.249 290.97C786.547 288.348 814.904 329.981 821.773 373.999C821.917 374.093 822.06 374.186 822.204 374.28L822.899 374.756C825.221 376.331 825.865 377.128 827.755 379.149C831.925 381.344 831.547 390.051 834.422 393.358C839.233 398.891 839.878 401.852 840.278 408.804C841.47 429.534 829.383 449.353 806.533 447.366C802.753 447.038 794.414 444.06 792.956 440.523L793.395 439.921C779.612 420.27 786.732 394.193 804.439 379.571C802.742 374.896 801.932 369.586 800.179 364.807C785.434 324.596 748.239 302.437 705.972 305.951Z"/><path fill="#102B40" transform="scale(0.390625 0.390625)" d="M827.755 379.149C831.925 381.344 831.547 390.051 834.422 393.358C839.233 398.891 839.878 401.852 840.278 408.804C841.47 429.534 829.383 449.353 806.533 447.366C802.753 447.038 794.414 444.06 792.956 440.523L793.395 439.921C798.221 443.986 802.285 446.759 808.833 446.831C828.751 446.345 838.595 430.926 839.508 412.212C840.362 394.696 827.259 381.877 811.42 395.23C805.064 400.588 802.944 410.82 802.772 419.25C804.9 414.39 807.422 410.598 811.99 407.568C816.401 404.581 821.866 403.59 827.045 404.838C843.851 409.037 837.169 432.289 824.575 438.043C815.902 442.006 807.678 441.239 803.101 432.37C795.838 418.297 800.732 397.036 814.889 389.233C820.583 386.091 825.991 387.071 831.867 388.96C830.864 385.834 829.116 382.189 827.755 379.149Z"/><path fill="#FBF4ED" transform="scale(0.390625 0.390625)" d="M820.564 407.061C841.471 405.381 837.066 431.032 818.823 436.991C798.828 438.951 800.059 411.842 820.564 407.061Z"/><path fill="#FBF4ED" transform="scale(0.390625 0.390625)" d="M738.346 554.217C767.122 547.653 779.669 547.542 809.123 548.563C801.901 561.397 784.067 580.726 786.259 596.614C776.498 613.747 773.363 620.385 766.181 638.629C763.803 635.999 761.221 632.215 758.57 629.166C758.46 624.551 756.247 595.636 754.059 593.238C752.206 592.397 753.102 592.441 751.302 592.856C747.269 599.329 770.175 661.655 725.862 643.438C722.887 642.215 711.854 634.558 710.894 631.619C712.821 631.421 715.203 631.641 715.976 629.768C713.193 624.692 696.893 616.249 696.731 611.672C700.61 610.352 709.042 618.199 713.42 615.914C713.014 613.862 697.21 607.232 698.77 600.312C702.724 599.159 712.912 606.862 716.873 605.261L717.334 604.151C717.124 603.059 710.504 592.816 709.418 591.522C708.355 590.842 708.636 591.014 707.771 590.035C706.435 588.131 705.979 587.774 705.66 585.566C707.465 580.686 718.477 586.045 720.276 591.262C720.484 592.552 720.544 592.736 721.346 593.767C720.987 594.919 721.017 594.837 720.057 595.58C722.309 598.351 730.071 610.497 733.135 609.983C734.42 607.396 734.029 607.532 736.184 606.203C739.865 606.38 738.408 611.804 741.788 614.642C743.452 614.716 742.73 614.94 744.047 614.013C744.179 612.331 742.935 606.05 742.68 603.231C741.216 587.002 740.673 570.305 738.346 554.217Z"/><path fill="#102B40" transform="scale(0.390625 0.390625)" d="M707.771 590.035C706.435 588.131 705.979 587.774 705.66 585.566C707.465 580.686 718.477 586.045 720.276 591.262C720.484 592.552 720.544 592.736 721.346 593.767C720.987 594.919 721.017 594.837 720.057 595.58C718.704 594 717.605 592.403 715.801 591.459C714.819 591.75 714.336 592.126 713.511 592.727C711.594 592.606 712.251 593.026 711.214 591.876C711.262 591.181 711.407 590.464 711.225 589.88L710.953 590.419L709.986 590.621L709.418 591.522C708.355 590.842 708.636 591.014 707.771 590.035Z"/><path fill="#FBF4ED" transform="scale(0.390625 0.390625)" d="M707.771 590.035C706.435 588.131 705.979 587.774 705.66 585.566C707.465 580.686 718.477 586.045 720.276 591.262C715.301 589.623 712.641 583.218 707.771 590.035Z"/><path fill="#FBF4ED" transform="scale(0.390625 0.390625)" d="M508.076 685.919L508.507 686.07C508.882 688.431 495.378 715.112 493.397 719.012C490.188 725.328 487.588 732.073 485.144 738.944L484.553 739.404C473.926 747.559 469.735 761.71 477.451 773.445C470.005 781.782 461.947 792.697 453.357 799.531C444.191 806.824 437.553 809.044 428.854 817.581L428.291 818.183L427.651 817.997C426.487 814.938 426.384 811.356 425.923 808.126C417.792 751.084 460.359 709.243 508.076 685.919Z"/><path fill="#FBF4ED" transform="scale(0.390625 0.390625)" d="M803.745 475.842C804.44 476.174 805.1 476.525 805.743 477.034C823.1 491.027 842.711 509.44 847.501 532.059C849.493 541.463 843.827 546.22 835.033 545.207C830.888 544.73 825.399 544.585 821.158 544.488C801.356 543.839 781.926 543.368 762.203 545.423C753.724 546.307 746.001 549.428 738.323 550.363C730.929 541.368 777.267 533.895 782.197 533.168C790.771 532.075 815.906 529.645 822.011 524.766L821.86 524.319C818.668 523.845 808.636 525.913 804.737 526.308C778.945 528.925 760.616 530.569 736.693 542.183C736.535 539.265 736.139 535.914 735.852 532.965C739.628 530.738 745.501 528.442 749.611 526.552C761.103 521.268 773.872 516.369 785.072 510.649C792.492 506.859 804.118 499.294 806.287 490.829C807.858 484.701 806.612 480.979 803.745 475.842Z"/><path fill="#F6A8A3" transform="scale(0.390625 0.390625)" d="M475.465 782.895C475.736 789.085 475.857 789.154 479.334 794.336L479.763 794.37C482.823 795.939 485.875 797.524 488.918 799.127L488.653 799.581L486.487 800.738L487.372 801.268L486.679 802.284C487.928 804.298 490.064 805.02 492.207 806.014C493.096 805.696 493.959 805.25 494.823 805.306C498.396 802.74 501.87 795.648 504 791.65C508.694 793.239 512.673 794.505 517.491 795.816C514.663 804.681 512.073 813.99 509.19 822.732C496.623 827.942 463.147 842.751 451.774 844.221C447.11 844.866 442.358 844.286 437.985 842.538C433.412 840.678 429.381 837.212 427.554 832.549C427.094 831.351 426.735 830.117 426.481 828.859C431.579 820.122 433.638 819.408 441.085 813.235L440.87 812.716C441.922 811.252 447.795 808.185 449.848 806.943C453.834 804.53 454.75 804.53 457.784 800.829L458.251 801.126C462.81 803.967 470.053 809.663 470.282 815.423L471.338 815.366C472.367 815.255 471.98 815.096 472.58 815.538C471.274 809.789 468.012 805.903 464.252 801.579L464.425 800.04C462.513 799.245 463.003 799.888 462.311 798.471C462.728 796.541 464.879 794.987 466.427 793.56C468.363 792.915 468.171 792.467 469.711 790.507L475.465 782.895Z"/><path fill="#102B40" transform="scale(0.390625 0.390625)" d="M475.465 782.895C475.736 789.085 475.857 789.154 479.334 794.336L479.763 794.37C482.823 795.939 485.875 797.524 488.918 799.127L488.653 799.581L486.487 800.738L487.372 801.268L486.679 802.284C487.928 804.298 490.064 805.02 492.207 806.014C493.096 805.696 493.959 805.25 494.823 805.306C491.616 808.022 481.261 811.923 477.008 813.371L473.853 818.53C473.508 817.212 473.184 816.752 472.58 815.538C471.274 809.789 468.012 805.903 464.252 801.579L464.425 800.04C462.513 799.245 463.003 799.888 462.311 798.471C462.728 796.541 464.879 794.987 466.427 793.56C468.363 792.915 468.171 792.467 469.711 790.507L475.465 782.895Z"/><path fill="#FBF4ED" transform="scale(0.390625 0.390625)" d="M475.465 782.895C475.736 789.085 475.857 789.154 479.334 794.336L479.632 795.354L478.879 797.345C478.808 797.293 478.737 797.241 478.666 797.188C473.975 795.079 474.752 792.397 469.711 790.507L475.465 782.895Z"/><path fill="#C8C6C5" transform="scale(0.390625 0.390625)" d="M464.252 801.579C466.821 803.069 468.756 804.39 471.192 806.072C471.838 808.339 473.962 813.739 473.27 815.187L472.58 815.538C471.274 809.789 468.012 805.903 464.252 801.579Z"/><path fill="#FBF4ED" transform="scale(0.390625 0.390625)" d="M466.427 793.56C467.168 795.066 467.769 795.828 467.49 797.459C466.525 799.009 465.997 799.15 464.425 800.04C462.513 799.245 463.003 799.888 462.311 798.471C462.728 796.541 464.879 794.987 466.427 793.56Z"/><path fill="#F6E7E1" transform="scale(0.390625 0.390625)" d="M479.763 794.37C482.823 795.939 485.875 797.524 488.918 799.127L488.653 799.581L486.487 800.738C483.441 798.817 481.808 797.376 479.763 794.37Z"/><path fill="#C8C6C5" transform="scale(0.390625 0.390625)" d="M479.632 795.354C479.973 799.196 483.715 801.879 482.668 803.808C480.952 803.107 479.47 801.103 478.733 799.46L478.879 797.345L479.632 795.354Z"/><path fill="#C8C6C5" transform="scale(0.390625 0.390625)" d="M470.08 799.076C469.565 796.956 468.862 795.109 469.313 793.04L470.287 792.546C472.959 793.708 475.91 797.934 477.038 800.689C476.167 800.972 474.656 801.409 473.868 801.742L470.08 799.076Z"/><path fill="#102B40" transform="scale(0.390625 0.390625)" d="M470.808 795.798C473.755 796.655 475.243 797.984 476.613 800.654C473.813 799.8 471.898 798.556 470.808 795.798Z"/><path fill="#FBF4ED" transform="scale(0.390625 0.390625)" d="M477.038 800.689C479.153 803.512 482.278 805.165 483.946 807.837L483.715 808.624C482.604 809.102 482.12 809.616 481.381 809.198C478.566 807.605 476.391 804.056 473.868 801.742C474.656 801.409 476.167 800.972 477.038 800.689Z"/><path fill="#F6E7E1" transform="scale(0.390625 0.390625)" d="M467.362 800.163L467.778 800.067C468.233 801.284 468.173 801.214 469.127 802.09C473.51 801.775 475.261 804.592 477.151 808.098C473.648 805.103 470.981 806.206 466.473 800.686L467.362 800.163Z"/><path fill="#102B40" transform="scale(0.390625 0.390625)" d="M441.085 813.235L440.87 812.716C441.922 811.252 447.795 808.185 449.848 806.943C453.834 804.53 454.75 804.53 457.784 800.829L458.251 801.126C462.81 803.967 470.053 809.663 470.282 815.423L471.338 815.366C469.933 816.478 469.588 816.653 468.593 818.205C463.644 813.879 458.965 810.287 455.908 804.524C451.487 807.582 445.836 810.566 441.085 813.235Z"/><path fill="#FBF4ED" transform="scale(0.390625 0.390625)" d="M458.251 801.126C462.81 803.967 470.053 809.663 470.282 815.423C468.5 813.311 457.63 802.982 457.565 802.842L458.251 801.126Z"/><path fill="#17344D" transform="scale(0.390625 0.390625)" d="M471.338 815.366C472.367 815.255 471.98 815.096 472.58 815.538C473.184 816.752 473.508 817.212 473.853 818.53C474.833 820.071 474.821 819.941 474.915 821.754C474.191 823.463 474.736 822.8 473.278 823.86C469.011 824.069 469.069 821.683 468.593 818.205C469.588 816.653 469.933 816.478 471.338 815.366Z"/><path fill="#F6A8A3" transform="scale(0.390625 0.390625)" d="M518.105 858.126C518.509 859.903 519.228 862.043 519.769 863.813C520.673 865.064 521.616 866.522 522.707 867.558L523.751 867.426C527.157 870.542 530.912 873.472 535.079 875.501C537.815 876.833 544.665 873.758 547.149 875.04C552.335 873.768 551.85 870.645 552.692 865.92C553.485 873.951 553.524 879.75 553.544 887.81C549.332 891.634 543.087 895.143 537.604 898.605C520.389 909.474 495.725 929.082 474.177 919.154C471.509 917.924 466.603 912.861 465.898 909.99C467.71 904.182 498.123 879.042 505.237 872.647L506.093 871.968C510.227 867.468 514.232 862.853 518.105 858.126Z"/><path fill="#F6A8A3" transform="scale(0.390625 0.390625)" d="M518.105 858.126C518.509 859.903 519.228 862.043 519.769 863.813C520.673 865.064 521.616 866.522 522.707 867.558C525.941 871.355 529.331 874.087 533.938 876.118C531.4 878.399 530.016 879.744 527.091 881.51C519.335 878.442 517.001 875.953 510.088 871.267C508.332 871.638 508.178 872.29 506.093 871.968C510.227 867.468 514.232 862.853 518.105 858.126Z"/><path fill="#F7C5B5" transform="scale(0.390625 0.390625)" d="M518.105 858.126C518.509 859.903 519.228 862.043 519.769 863.813L513.74 866.025C513.215 866.777 510.444 870.877 510.088 871.267C508.332 871.638 508.178 872.29 506.093 871.968C510.227 867.468 514.232 862.853 518.105 858.126Z"/><path fill="#102B40" transform="scale(0.390625 0.390625)" d="M522.707 867.558L523.751 867.426C527.157 870.542 530.912 873.472 535.079 875.501C537.815 876.833 544.665 873.758 547.149 875.04C543.912 876.391 540.346 876.279 536.893 876.295C534.044 878.922 531.383 881.593 528.027 883.532C526.224 883.258 525.736 883.211 523.918 883.2C525.311 884.156 525.599 884.091 526.357 885.466C521.336 887.782 508.092 876.77 505.237 872.647L506.093 871.968C508.178 872.29 508.332 871.638 510.088 871.267C517.001 875.953 519.335 878.442 527.091 881.51C530.016 879.744 531.4 878.399 533.938 876.118C529.331 874.087 525.941 871.355 522.707 867.558Z"/><path fill="#2E4761" transform="scale(0.390625 0.390625)" d="M840.289 428.864L841.372 425.959C843.596 426.144 846.953 433.133 848.196 435.169C855.877 447.749 860.145 461.721 864.746 475.618L859.949 479.181C853.67 486.269 837.6 490.091 828.801 492.679C822.13 487.642 816.155 481.262 809.661 476.385C805.957 473.603 797.272 469.929 792.668 467.652C792.041 459.966 791.635 451.895 792.834 444.272C800.015 448.253 806.604 451.378 815.064 449.618C830.075 446.496 832.83 439.449 840.289 428.864Z"/><path fill="#FBF4ED" transform="scale(0.390625 0.390625)" d="M840.289 428.864L841.372 425.959C843.596 426.144 846.953 433.133 848.196 435.169C855.877 447.749 860.145 461.721 864.746 475.618L859.949 479.181C855.79 456.111 852.009 448.966 840.289 428.864Z"/><path fill="#FBF4ED" transform="scale(0.390625 0.390625)" d="M591.211 501.197C598.339 507.675 604.826 513.957 611.73 520.653C614.369 531.98 616.608 552.148 618.369 564.3C622.565 591.951 626.531 619.637 630.269 647.354C629.226 647.255 628.184 647.145 627.144 647.025C621.088 646.316 616.706 645.29 612.818 640.353C603.801 594.963 598.665 546.97 591.211 501.197Z"/><path fill="#FBF4ED" transform="scale(0.390625 0.390625)" d="M808.129 696.799C795.361 738.883 788.653 759.601 751.13 786.211C750.412 782.589 749.64 778.043 748.718 774.537C762.26 764.833 765.504 762.847 765.501 745.256C764.202 742.917 763 740.266 761.056 738.532L760.659 739.027C761.696 746.896 765.438 753.621 759.997 761.044C756.757 765.464 750.923 768.148 747.786 772.026L747.526 772.741C745.706 770.72 741.221 751.185 736.93 744.361C732.705 734.276 724.267 712.041 716.918 704.719L716.93 703.863C718.618 704.823 719.582 705.912 720.941 705.592L721.784 705.565L722.046 705.884C725.787 709.219 729.418 719.715 735.014 723.983L735.774 723.416C742.033 728.456 748.321 732.963 756.217 735.465C758.994 736.619 769.439 734.385 772.585 735.241C786.378 731.891 796.519 716.274 803.412 704.927C805.02 702.239 806.592 699.529 808.129 696.799Z"/><path fill="#102B40" transform="scale(0.390625 0.390625)" d="M716.93 703.863C718.618 704.823 719.582 705.912 720.941 705.592L721.784 705.565L722.046 705.884C725.787 709.219 729.418 719.715 735.014 723.983L735.774 723.416C742.033 728.456 748.321 732.963 756.217 735.465C758.994 736.619 769.439 734.385 772.585 735.241C767.971 736.902 763.224 736.748 758.363 736.472C756.458 747.118 753.899 752.473 743.269 756.903C744.663 762.078 746.332 766.83 747.786 772.026L747.526 772.741C745.706 770.72 741.221 751.185 736.93 744.361C732.705 734.276 724.267 712.041 716.918 704.719L716.93 703.863Z"/><path fill="#FBF4ED" transform="scale(0.390625 0.390625)" d="M722.046 705.884C725.787 709.219 729.418 719.715 735.014 723.983C736.53 725.627 739.082 727.483 740.895 728.909C740.26 732.157 739.828 736.949 736.467 738.235L735.665 737.701C733.532 732.927 731.46 728.268 729.189 723.384C727.022 718.725 723.498 713.336 721.617 708.479C721.789 707.44 721.932 706.575 722.046 705.884Z"/><path fill="#FBF4ED" transform="scale(0.390625 0.390625)" d="M743.01 730.031C747.949 733.246 750.415 734.17 756.034 736.098C754.099 745.979 750.994 749.37 742.348 754.086L738.003 744.046C737.308 742.187 737.141 742.609 737.532 741.008C743.325 737.209 743.205 736.287 743.01 730.031Z"/><path fill="#FBF4ED" transform="scale(0.390625 0.390625)" d="M521.438 797.203C523.044 798.529 525.176 801.489 526.65 803.153C540.061 818.286 560.931 826.789 580.941 822.927C579.378 827.214 573.863 847.161 571.883 849.08C566.243 849.838 560.942 850.637 555.238 850.148C537.979 848.668 523.542 838.283 512.54 825.565C514.886 820.227 519.515 803.558 521.438 797.203Z"/><path fill="#FBF4ED" transform="scale(0.390625 0.390625)" d="M771.06 283.707C775.1 283.493 779.149 283.497 783.188 283.72C814.55 285.576 832.344 294.851 851.251 320.472C874.224 351.603 857.86 388.864 882.481 417.458C889.216 425.279 898.704 430.216 909.036 430.663L901.065 439.738C893.561 437.682 890.234 435.907 883.934 431.459C879.492 427.92 871.035 420.171 868.641 414.927C857.715 390.997 861.125 360.452 852.28 335.796C847.394 322.175 839.371 308.83 825.91 302.704C814.86 297.675 806.613 300.904 796.245 304.717C798.311 301.174 801.95 296.568 804.455 293.027C791.19 288.267 776.203 289.588 762.514 289.532C759.438 289.52 751.737 287.528 748.299 286.844C756.612 285.149 762.689 284.344 771.06 283.707Z"/><path fill="#FBF4ED" transform="scale(0.390625 0.390625)" d="M513.991 833.514C515.307 834.377 520.98 839.97 524.174 842.244C522.827 845.589 521.536 850.734 519.763 853.629C518.999 853.646 517.336 853.662 516.821 854.117C512.054 858.325 507.18 864.433 502.724 868.904C497.714 873.889 492.452 878.614 486.96 883.06C482.612 881.086 479.041 878.749 475.109 876.081C466.978 870.146 462.388 865.205 455.752 857.927C466.17 855.388 505.357 839.607 513.991 833.514Z"/><path fill="#FBF4ED" transform="scale(0.390625 0.390625)" d="M646.882 651.866L646.634 651.15C648.808 651.096 670.069 652.796 671.08 653.302C669.394 653.411 669.048 653.108 668.124 654.002C672.571 654.133 677.629 654.918 682.002 655.807L685.542 656.374C690.392 657.037 703.913 660.554 707.228 660.385L707.405 659.758C710.304 659.921 712.443 660.097 714.906 661.655C715.76 663.195 715.395 664.247 713.881 665.427C711.241 674.254 719.19 686.035 716.082 694.373C715.388 696.753 714.732 699.143 714.113 701.544C710.053 699.599 702.938 694.209 699.004 691.48C682.745 680.202 660.979 665.409 646.882 651.866Z"/><path fill="#102B40" transform="scale(0.390625 0.390625)" d="M682.002 655.807L685.542 656.374C690.392 657.037 703.913 660.554 707.228 660.385L707.405 659.758C710.304 659.921 712.443 660.097 714.906 661.655C715.76 663.195 715.395 664.247 713.881 665.427L714.153 662.289C712.89 661.439 710.638 660.713 709.178 661.26C709.87 662.668 710.64 663.722 710.409 665.203C706.815 669.918 710.079 673.547 709.255 679.629C708.758 683.29 707.37 689.647 704.505 692.119C702.793 692.327 703.643 692.469 701.964 691.255C701.711 689.567 704.079 688.443 704.83 684.18C705.934 677.911 705.787 672.669 705.333 666.359C699.002 665.463 693.584 665.841 687.473 665.081C683.197 664.548 681.303 661.141 679.161 657.847L679.552 657.177L682.002 655.807Z"/><path fill="#FBF4ED" transform="scale(0.390625 0.390625)" d="M685.542 656.374C690.392 657.037 703.913 660.554 707.228 660.385C707.411 661.751 707.38 661.97 707.289 663.358C706.248 663.517 706.427 663.631 705.525 663.275C699.695 660.974 693.281 661.665 687.073 660.947C686.433 659.484 686.009 658.632 685.244 657.227L685.542 656.374Z"/><path fill="#C8C6C5" transform="scale(0.390625 0.390625)" d="M682.002 655.807L685.542 656.374L685.244 657.227C682.846 656.932 681.981 657.002 679.552 657.177L682.002 655.807Z"/><path fill="#102B40" transform="scale(0.390625 0.390625)" d="M646.882 651.866L646.634 651.15C648.808 651.096 670.069 652.796 671.08 653.302C669.394 653.411 669.048 653.108 668.124 654.002C670.452 654.77 672.671 655.218 674.369 656.884L674.303 657.682C670.329 659.345 664.913 656.282 662.189 653.391L646.882 651.866Z"/><path fill="#FBF4ED" transform="scale(0.390625 0.390625)" d="M488.101 742.946C500.984 756.433 516.541 762.458 534.359 766.852C532.292 772.453 530.327 778.09 528.466 783.762C527.492 786.794 525.686 794.989 523.918 796.728C522.955 795.301 523.105 792.795 522.966 792.739C519.477 791.334 512.557 790.513 509.19 789.295C498.876 785.566 488.044 778.824 481.197 770.234C478.363 766.681 477.271 762.394 478.13 758.045C479.635 750.425 482.168 747.217 488.101 742.946Z"/><path fill="#102B40" transform="scale(0.390625 0.390625)" d="M738.053 512.083C745.376 517.259 794.622 496.666 794.792 483.087C794.816 481.168 790.732 475.419 792.137 472.065C796.751 469.713 801.455 477.127 802.952 480.741L802.384 481.386C803.153 487.246 803.369 489.427 799.607 494.683C789.257 509.145 743.15 520.774 734.728 531.325L734.287 531.677L733.136 529.583L732.61 529.904C732.287 540.131 741.401 594.583 738.141 599.881C738.315 601.463 738.476 602.067 738.125 603.648L737.411 603.837C736.867 602.756 736.425 600.019 736.363 598.747C735.353 578.057 731.91 557.68 729.846 537.143C730.143 534.145 729.871 534.188 731.703 532.556C731.281 530.912 731.046 530.644 731.5 529.013C731.717 527.314 729.039 522.778 728.133 519.62L728.499 519.333C729.86 520.932 729.05 520.45 730.881 521.031C732.08 520.332 731.63 520.842 732.358 519.588C730.439 517.948 724.052 511.212 724.144 509.375C724.376 504.744 729.091 495.647 731.767 491.986L732.375 492.42C736.926 486.528 744.544 478.323 751.522 475.313C748.33 488.985 744.611 487.585 739.196 499.174C737.516 502.77 738.797 509.22 738.053 512.083Z"/><path fill="#FBF4ED" transform="scale(0.390625 0.390625)" d="M739.467 513.663C757.082 513.123 779.283 503.127 791.856 490.717C794.885 487.727 796.718 481.841 795.526 477.759C795.159 476.501 792.951 475.678 792.741 472.92C793.838 472.017 793.207 472.237 794.742 472.385C797.095 473.769 799.544 476.761 800.945 479.058L802.384 481.386C803.153 487.246 803.369 489.427 799.607 494.683C789.257 509.145 743.15 520.774 734.728 531.325C734.193 527.503 734.978 524.329 734.471 520.028C736.421 516.957 736.893 516.229 739.467 513.663Z"/><path fill="#FBF4ED" transform="scale(0.390625 0.390625)" d="M732.375 492.42C736.926 486.528 744.544 478.323 751.522 475.313C748.33 488.985 744.611 487.585 739.196 499.174C737.516 502.77 738.797 509.22 738.053 512.083C735.633 513.532 734.087 516.092 732.532 518.397L724.808 509.736C726.744 502.059 728.394 499.376 732.375 492.42Z"/><path fill="#FBF4ED" transform="scale(0.390625 0.390625)" d="M731.703 532.556C735.007 551.549 736.845 580.569 738.141 599.881C738.315 601.463 738.476 602.067 738.125 603.648L737.411 603.837C736.867 602.756 736.425 600.019 736.363 598.747C735.353 578.057 731.91 557.68 729.846 537.143C730.143 534.145 729.871 534.188 731.703 532.556Z"/><path fill="#FBF4ED" transform="scale(0.390625 0.390625)" d="M615.061 516.437C614.95 514.761 614.382 510.565 615.459 509.428C617.539 510.442 619.447 511.418 621.746 510.761L622.04 509.927C621.511 508.707 621.065 508.003 621.144 506.677C626.136 502.448 638.608 497.737 645.46 496.388C666.046 492.335 689.88 496.899 708.602 505.963C716.039 509.563 721.695 515.469 727.585 519.272L728.133 519.62C729.039 522.778 731.717 527.314 731.5 529.013L729.113 528.755C725.583 523.085 703.357 514.104 695.939 511.526C665.756 501.038 643.21 503.227 615.061 516.437Z"/><path fill="#FBF4ED" transform="scale(0.390625 0.390625)" d="M757.001 638.897L757.727 637.759C758.967 638.243 758.401 637.983 759.368 639.372C765.352 644.816 766.357 657.638 762.444 664.512C753.641 679.976 725.935 677.965 721.969 659.631C720.333 652.067 721.991 649.067 730.135 650.255C740.898 651.911 750.718 649.538 756.633 639.531L757.001 638.897Z"/><path fill="#102B40" transform="scale(0.390625 0.390625)" d="M757.001 638.897L757.727 637.759C758.967 638.243 758.401 637.983 759.368 639.372C760.265 643.668 761.228 647.077 759.023 651.298C754.219 660.474 739.814 664.157 730.766 659.727C728.408 658.572 727.309 654.978 728.695 652.812C729.29 653.52 729.907 654.21 730.544 654.881C735.336 659.872 748.766 656.354 753.034 651.478C757.096 646.838 757.087 644.569 757.001 638.897Z"/><path fill="#FBF4ED" transform="scale(0.390625 0.390625)" d="M711.732 472.842C723.646 478.515 731.395 479.299 744.379 476.778C733.919 485.411 730.45 487.961 724.498 500.411C723.484 502.871 722.847 505.093 722.073 507.626C714.138 501.52 705.678 496.128 696.792 491.514C700.579 484.422 705.644 478.092 711.732 472.842Z"/><path fill="#FBF4ED" transform="scale(0.390625 0.390625)" d="M553.471 892.977L553.863 893.361L553.809 894.309C552.506 896.377 549.938 898.857 547.894 900.275C536.603 908.127 525.051 915.837 513.852 923.816C505.291 929.917 494.907 934.791 484.142 933.257C475.603 932.04 464.207 927.16 458.905 920.189C458.245 917.04 460.289 914.893 462 912.427C462.286 912.824 462.576 913.217 462.871 913.608C482.455 939.471 515.34 919.284 535.291 905.238C541.316 900.997 547.593 897.586 553.471 892.977Z"/><path fill="#FBF4ED" transform="scale(0.390625 0.390625)" d="M527.947 844.661C538.151 850.877 542.806 852.487 554.562 854.464C552.037 860.16 549.91 865.248 547.859 871.131C536.583 874.124 527.053 870.956 522.322 859.521C524.564 854.766 526.217 849.637 527.947 844.661Z"/><path fill="#F7C5B5" transform="scale(0.390625 0.390625)" d="M693.461 457.907C695.476 459.21 702.531 466.498 704.797 468.515C695.61 475.032 689.946 479.286 681.823 487.158C679.98 486.657 677.875 486.218 675.994 485.779C671.284 484.577 666.545 484.159 661.709 483.9C672.329 473.78 681.262 465.935 693.461 457.907Z"/><path fill="#FBF4ED" transform="scale(0.390625 0.390625)" d="M508.837 827.995C510.091 828.427 510.104 829.013 510.237 830.084C507.848 834.259 471.041 847.343 464.157 850.248C448.173 856.996 433.025 855.021 423.157 839.486C422.418 837.219 422.462 836.903 422.376 834.468L422.818 834.243C427.344 840.134 429.547 843.786 437.095 846.742C441.831 848.559 446.94 849.188 451.976 848.573C463.465 847.286 497.196 833.121 508.837 827.995Z"/><path fill="#FBF4ED" transform="scale(0.390625 0.390625)" d="M765.054 333.783C766.426 334.722 790.379 379.251 793.335 384.479L790.417 388.508C789.81 389.504 789.795 389.456 788.884 390.208L788.043 389.82C775.548 366.794 768.684 361.056 765.054 333.783Z"/><path fill="#F6A8A3" transform="scale(0.390625 0.390625)" d="M480.501 775.258C487.734 782.855 491.083 784.777 500.253 789.913C498.087 793.626 495.26 799.971 491.52 801.363C490.062 801.078 489.778 800.592 488.653 799.581L488.918 799.127L490.408 798.39L490.635 797.526C488.114 794.005 477.323 792.974 479.539 779.773C479.773 778.377 480.151 776.717 480.501 775.258Z"/><path fill="#FBF4ED" transform="scale(0.390625 0.390625)" d="M656.699 488.708C668.745 487.828 683.757 490.495 694.418 496.272C676.526 491.558 667.941 489.659 648.943 491.62C635.01 493.623 631.149 497.143 619.757 503.759C627.712 492.966 644.295 489.863 656.699 488.708Z"/><path fill="#FBF4ED" transform="scale(0.390625 0.390625)" d="M564.324 551.394C564.848 551.65 588.134 568.174 587.695 567.721L587.545 568.523C587.103 568.784 585.716 569.616 585.283 569.606C579.88 569.475 570.585 562.997 566.185 560.362C565.391 557.515 564.875 554.319 564.324 551.394Z"/><path fill="#FBF4ED" transform="scale(0.390625 0.390625)" d="M708.455 470.481C708.316 471.119 696.801 484.41 694.265 490.775L687.97 488.496L686.492 487.879L686.456 487.357C690.13 483.851 704.066 472.772 708.455 470.481Z"/><path fill="#FBF4ED" transform="scale(0.390625 0.390625)" d="M566.961 564.28C572.397 566.828 579.79 571.609 585.157 574.628C585.63 574.894 586.391 577.255 586.597 577.905C582.177 578.187 574.204 573.175 569.684 570.992C568.039 568.085 567.851 567.395 566.961 564.28Z"/><path fill="#FBF4ED" transform="scale(0.390625 0.390625)" d="M716.082 694.373C716.547 694.546 718.455 695.204 718.726 695.429C719.62 698.144 721.929 703.351 720.941 705.592C719.582 705.912 718.618 704.823 716.93 703.863L716.952 703.504C716.235 701.719 715.862 701.986 714.113 701.544C714.732 699.143 715.388 696.753 716.082 694.373Z"/><path fill="#2E4761" transform="scale(0.390625 0.390625)" d="M716.082 694.373C716.547 694.546 718.455 695.204 718.726 695.429C717.568 697.975 717.225 700.715 716.952 703.504C716.235 701.719 715.862 701.986 714.113 701.544C714.732 699.143 715.388 696.753 716.082 694.373Z"/><path fill="#F6E7E1" transform="scale(0.390625 0.390625)" d="M729.113 528.755L731.5 529.013C731.046 530.644 731.281 530.912 731.703 532.556C729.871 534.188 730.143 534.145 729.846 537.143C729.515 534.696 729.324 531.285 729.113 528.755Z"/><path fill="#17344D" transform="scale(0.390625 0.390625)" d="M341.759 34.1256C345.987 35.8017 353.877 41.0856 358.084 43.7221L393.311 66.1925L436.695 93.3909C442.955 97.3856 450.071 101.677 455.874 106.216C456.898 107.017 456.98 112.095 456.982 113.595C457.007 127.8 456.96 142.044 456.93 156.248L456.837 236.775L456.971 442.911L456.675 527.406C456.661 540.007 456.113 557.673 456.856 569.657C453.922 572.24 444.202 578.358 440.623 580.322C437.153 578.924 427.458 574.079 426.508 570.508C427.246 568.941 426.685 569.568 428.433 568.747C430.553 569.766 432.251 571.549 434.164 572.751C436.152 573.999 438.473 575.267 440.534 576.457L453.463 568.361C453.676 547.705 453.708 526.783 453.523 506.119C452.348 374.717 454.984 242.904 453.301 111.535C442.553 117.759 428.15 128.013 417.545 135.08L362.092 171.822L229.096 260.592L181.134 292.728C176.53 295.794 161.973 305.784 157.701 307.482L156.847 307.099L156.797 306.388C159.71 302.258 201.893 275.097 209.043 270.33L374.628 159.357C390.729 148.58 407.559 138.167 423.672 127.332C432.519 121.384 443.011 115.111 451.189 108.463C433.37 98.1779 416.283 86.4064 398.705 75.6701C379.653 64.0333 361.019 51.3319 341.804 39.9995C327.664 48.1091 314.89 57.3011 301.114 65.6988C304.412 68.2808 312.178 72.8158 315.982 75.2218C327.592 82.5524 339.248 89.8107 350.949 96.9963C358.358 101.582 368.368 107.48 374.993 112.807C375.169 113.304 375.344 113.801 375.519 114.298C377.459 117.778 375.494 122.366 377.526 125.587C380.097 129.664 379.785 131.481 376.672 134.96L375.392 135.691C376.467 137.576 377.478 139.199 378.265 141.228C373.954 145.006 365.961 150.007 360.933 153.302C350.759 159.963 340.551 166.573 330.31 173.132L311.141 185.696C308.332 187.544 303.373 191.019 300.516 192.409L300.062 192.828L300.595 193.211L300.534 193.678C299.803 193.681 298.561 193.642 297.883 193.723C287.551 188.208 276.791 181.21 266.854 174.946C254.638 167.411 242.553 159.668 230.602 151.721C225.893 148.565 215.943 142.513 212.239 139.182L212.143 131.797C203.484 136.398 191.97 144.28 183.517 149.838L138.972 179.082C119.169 191.763 99.4738 204.613 79.8897 217.631C73.3896 221.903 53.7779 234.361 49.0701 239.291C48.1689 244.342 48.3699 252.77 48.3596 258.152L48.3367 284.753L48.356 384.874L48.1715 534.937C47.7803 590.629 46.8974 647.686 47.3378 703.319C51.1905 705.724 53.7333 707.444 57.9175 709.128C57.9582 703.545 57.5909 688.749 58.2251 684.213C59.697 683.958 59.8201 683.918 61.4515 685.005C67.9756 689.353 74.4457 693.881 81.0013 698.18C100.502 710.989 120.15 723.574 139.94 735.932L139.985 757.149C143.239 758.89 147.018 760.797 150.076 762.764L150.012 470.91L150.002 369.666C150.009 364.099 149.425 322.405 150.928 319.522L151.659 319.347C154.15 321.66 153.102 333.627 153.099 337.75L153.097 372.868L153.263 484.73L153.072 670.801L153.16 731.78C153.188 741.695 153.486 752.888 153.245 762.673C157.499 759.834 163.367 756.135 167.376 753.155C167.407 744.616 167.266 735.433 167.519 726.948C202.476 704.468 238.169 679.731 272.864 656.65L434.976 548.586C435.691 548.099 435.808 548.122 436.634 548.12C438.251 549.882 438.389 569.325 437.058 572.47L436.302 572.865C435.465 572.203 434.717 571.656 434.648 570.357C434.361 564.954 434.543 559.389 434.225 553.977C408.299 570.432 381.497 588.682 355.83 605.75L265.962 665.283L204.674 706.228C193.699 713.537 181.006 721.499 170.481 729.153L170.487 754.901C165.211 758.736 157.13 764.667 151.481 767.777C146.4 764.475 141.236 761.956 136.707 758.158L136.615 737.869C120.703 727.405 104.122 717.483 88.2492 706.878C79.322 700.914 69.7813 695.182 61.4193 688.437L61.3946 706.27C64.0005 704.303 68.8435 699.947 71.753 700.225L72.673 701.04C72.0555 703.36 59.9226 711.468 57.3609 712.97L43.597 705.32L43.5507 665.258C28.6191 674.655 14.6248 685.097 0 694.507L0 689.016C3.78777 687.166 12.672 680.861 16.5763 678.228C25.3518 672.333 34.171 666.503 43.0331 660.74C42.4905 612.434 42.9522 563.116 43.104 514.799L43.0436 358.48L43.0029 274.66C42.9887 263.499 42.6914 251.247 43.4315 240.221C43.9014 233.222 60.6671 223.902 66.5627 220.027L96.1365 200.517L211.05 125.377C211.79 122.578 213.803 114.474 215.185 113.544C222.95 108.316 288.703 61.8312 293.019 61.4037C293.612 61.6443 296.073 62.6738 296.373 62.5138C307.446 56.6064 331.565 38.3306 341.759 34.1256Z"/><path fill="#FBF4ED" transform="scale(0.390625 0.390625)" d="M300.516 192.409C297.399 189.936 294.742 183.03 294.047 178.929C293.424 174.836 292.677 169.635 294.998 165.988C297.77 165.555 296.774 165.826 299.061 164.283C317.079 152.123 335.301 140.091 353.383 128.044C356.948 125.669 369.796 116.64 373.009 116.207C374.318 117.556 374.335 122.68 373.532 123.283C354.158 137.848 332.363 149.531 312.33 163.313C309.507 165.256 298.174 171.694 296.61 173.799L296.798 174.552C301.017 174.491 325.658 156.774 331.158 153.495C345.284 145.071 359.573 135.341 373.661 126.833C374.638 126.244 375.016 126.568 375.892 126.931C377.978 130.017 374.899 133.159 372.302 134.824C353.632 146.798 334.946 158.789 316.48 171.089C309.478 175.753 301.31 180.357 294.662 185.315L295.069 185.204C304.552 182.514 312.833 176.132 321.012 170.695C332.947 162.698 344.953 154.808 357.031 147.028C361.813 143.95 370.61 137.976 375.392 135.691C376.467 137.576 377.478 139.199 378.265 141.228C373.954 145.006 365.961 150.007 360.933 153.302C350.759 159.963 340.551 166.573 330.31 173.132L311.141 185.696C308.332 187.544 303.373 191.019 300.516 192.409Z"/><path fill="#FBF4ED" transform="scale(0.390625 0.390625)" d="M293.231 64.4409C294.801 64.8727 366.752 110.499 371.234 113.484C347.325 130.023 321.436 146.172 297.148 162.625C293.777 163.39 279.755 152.664 276.289 150.345L245.688 130.013C237.294 124.374 228.553 118.069 219.694 113.314C228.069 108.407 237.265 101.881 245.443 96.3851C261.303 85.6336 277.233 74.9853 293.231 64.4409Z"/><path fill="#102B40" transform="scale(0.390625 0.390625)" d="M296.818 82.8528C309.029 91.2397 321.938 98.5449 334.274 106.74C337.407 108.822 340.588 110.866 343.465 113.297C330.451 122.698 315.231 132.414 301.744 141.211C301.33 141.43 300.814 141.451 300.305 141.534C295.309 139.39 259.694 115.291 255.512 111.255C259.164 107.95 267.704 102.537 272.127 99.5853C280.392 94.0586 288.622 88.4809 296.818 82.8528Z"/><path fill="#FBF4ED" transform="scale(0.390625 0.390625)" d="M297.104 85.9488C298.492 86.5778 303.386 90.2741 305.123 91.3751C316.495 98.5805 327.892 105.621 339.086 113.108C327.344 121.488 313.863 130.222 301.703 138.077L300.302 138.464C294.804 136.2 265.735 115.969 259.925 111.524C271.363 103.303 285.296 93.7297 297.104 85.9488Z"/><path fill="#102B40" transform="scale(0.390625 0.390625)" d="M283.443 105.85C288.59 106.605 302.636 116.196 305.617 120.731C300.909 119.245 286.345 109.942 283.443 105.85Z"/><path fill="#102B40" transform="scale(0.390625 0.390625)" d="M298.67 102.006C302.075 102.753 317.271 111.715 318.193 114.897C314.537 114.571 299.385 105.334 298.67 102.006Z"/><path fill="#FBF4ED" transform="scale(0.390625 0.390625)" d="M217.716 114.736C221.546 117.128 225.33 119.593 229.065 122.131C237.139 126.806 245.68 133.372 253.572 138.59C266.686 147.26 280.02 155.868 292.919 164.831C290.139 175.743 291.335 180.573 296.525 190.154C293.392 188.047 289.929 186.019 286.693 184.043C262.363 169.188 238.821 153.177 214.89 137.735C214.792 133.204 215.535 125.739 216.113 121.226C216.604 118.777 216.89 117.117 217.716 114.736Z"/><path fill="#F6E7E1" transform="scale(0.390625 0.390625)" d="M217.716 114.736C221.546 117.128 225.33 119.593 229.065 122.131C225.973 122.373 219.009 122.078 216.113 121.226C216.604 118.777 216.89 117.117 217.716 114.736Z"/><path fill="#102B40" transform="scale(0.390625 0.390625)" d="M274.496 159.085L276.108 159.943C277.089 161.708 276.725 161.827 276.736 164.167C275.54 164.865 276.173 164.805 274.823 164.509C274.131 163.069 274.429 160.793 274.496 159.085Z"/><path fill="#102B40" transform="scale(0.390625 0.390625)" d="M376.672 134.96C381.459 139.517 382.465 141.245 376.705 145.305C369.976 150.049 363.099 154.463 356.21 158.962L320.277 182.344C314.536 186.064 307.63 190.566 301.755 194.353C300.547 195.131 299.241 194.269 297.883 193.723C298.561 193.642 299.803 193.681 300.534 193.678L300.595 193.211L300.062 192.828L300.516 192.409C303.373 191.019 308.332 187.544 311.141 185.696L330.31 173.132C340.551 166.573 350.759 159.963 360.933 153.302C365.961 150.007 373.954 145.006 378.265 141.228C377.478 139.199 376.467 137.576 375.392 135.691L376.672 134.96Z"/><path fill="#102B40" transform="scale(0.390625 0.390625)" d="M433.842 143.877L435.578 144.917C437.079 147.007 436.41 176.413 436.407 181.626L436.468 254.613C428.45 259.596 420.364 265.416 412.461 270.687C395.705 281.735 379.034 292.91 362.448 304.211L244.991 383.577L195.19 417.269C190.416 420.477 176.445 430.24 172.132 432.123C170.699 431.437 170.614 431.318 169.36 430.304C167.735 427.381 168.482 397.964 168.474 392.284L168.284 319.763C176.114 315.526 185.514 309.026 193.096 304.035L232.875 277.714C265.457 256.392 297.87 234.813 330.113 212.98C353.865 196.4 377.896 180.224 402.197 164.458C412.133 157.948 423.745 149.814 433.842 143.877Z"/><path fill="#FBF4ED" transform="scale(0.390625 0.390625)" d="M432.362 148.946C434.018 150.699 433.261 243.084 433.019 251.786C417.074 242.511 402.165 231.423 385.962 222.593C385.551 222.685 385.141 222.778 384.73 222.87L384.326 223.634C385.472 226.158 395.536 231.588 398.544 233.517L430.88 254.308L250.355 376.104C224.428 393.638 198.098 412.33 171.838 429.225C171.338 424.646 171.482 419.272 171.48 414.609C188.476 416.516 188.666 405.288 188.813 392.283C188.864 387.843 189.281 382.858 189.522 378.378C192.903 384.052 199.989 395.901 208.117 394.578C212.835 393.81 215.989 388.498 218.389 384.761C224.472 382.831 226.58 390.691 237.744 378.469C239.023 372.984 240.246 360.003 240.959 353.897L246.352 307.005C246.698 303.107 247.049 300.089 247.687 296.235C261.108 302.639 274.192 310.638 287.524 317.344C291.665 319.427 306.402 329.111 310.801 327.331C318.042 324.401 322.145 314.942 318.602 307.373L318.212 306.55C319.07 305.301 322.736 304.703 324.936 301.698C342.411 277.846 360.313 254.465 377.066 230.072C379.559 225.956 388.971 214.678 386.762 209.726C385.156 206.128 371.217 199.185 367.547 198.151C365.181 198.811 356.865 212.717 354.937 215.547C347.545 226.223 340.061 236.836 332.487 247.383L311.873 276.227C308.58 280.831 305.032 285.677 301.905 290.41C300.651 292.309 301.054 294.117 301.397 296.272L301.51 296.955C290.724 291.584 279.986 286.116 269.299 280.552C264.139 277.848 254.535 272.404 249.48 270.588C281.296 249.747 312.919 228.612 344.343 207.185L367.861 191.139C370.287 189.482 378.528 183.694 380.98 182.803C380.291 185.569 379.891 201.813 382.454 203.117L383.196 202.415C384.75 198.031 384.014 185.742 383.424 180.939C396.192 171.608 418.847 157.079 432.362 148.946Z"/><path fill="#FBF4ED" transform="scale(0.390625 0.390625)" d="M367.321 200.299C372.033 204.656 380.64 207.639 384.087 211.443C383.63 218.024 324.429 299.82 319.337 302.657C311.242 304.803 305.951 300.704 303.008 293.393C306.388 289.249 309.513 284.978 312.574 280.586C330.005 255.582 348.32 231.102 365.105 205.668C366.184 204.033 366.826 202.182 367.321 200.299Z"/><path fill="#FBF4ED" transform="scale(0.390625 0.390625)" d="M219.953 290.031C220.933 291.006 219.823 302.229 219.708 304.254L218.1 332.765L216.255 364.786C215.994 369.53 215.685 379.674 214.876 383.9C214.471 386.118 213.365 388.148 211.72 389.691C205.977 395.037 200.152 388.432 196.9 384.102C194.893 381.124 192.075 376.978 189.561 374.54L191.875 333.724C192.183 328.59 193.404 312.349 192.636 307.972C201.739 302.129 210.9 295.98 219.953 290.031Z"/><path fill="#FBF4ED" transform="scale(0.390625 0.390625)" d="M246.639 272.502C246.692 272.54 246.764 272.562 246.799 272.617C248.115 274.722 236.347 365.882 235.407 376.709C230.077 381.593 228.041 383.197 220.643 381.692C220.088 381.37 218.522 380.54 218.528 379.731C218.606 370.239 219.445 360.704 220.02 351.223C221.276 330.081 222.419 308.933 223.448 287.779C229.627 283.277 240.152 276.439 246.639 272.502Z"/><path fill="#FBF4ED" transform="scale(0.390625 0.390625)" d="M189.485 310.058C191.399 312.847 184.883 396.523 185.108 405.216C185.25 410.67 177.582 412.32 172.485 411.916C170.778 409.21 171.43 386.913 171.436 382.269C171.544 362.048 171.527 341.827 171.385 321.607C177.157 318.423 183.931 313.726 189.485 310.058Z"/><path fill="#FBF4ED" transform="scale(0.390625 0.390625)" d="M250.136 274.25L298.964 299.105C304.041 301.735 310.229 304.847 315.192 307.773C316.107 308.311 316.895 310.346 317 311.454C317.413 315.792 315.344 319.549 312.742 322.731C311.203 323.921 309.24 325.387 307.242 324.537C302.603 322.562 298.081 319.707 293.664 317.263C283.75 311.779 273.781 306.395 263.758 301.113C259.058 298.619 252.654 294.836 247.803 293.122C248.836 287.173 249.456 280.325 250.136 274.25Z"/><path fill="#102B40" transform="scale(0.390625 0.390625)" d="M627.15 81.8703C628.49 81.851 628.518 82.0387 629.716 82.7355C631.395 86.2544 630.42 259.013 630.42 279.433C626.02 284.012 600.768 299.951 594.414 304.065L538.617 340.68C526.863 348.51 515.027 356.216 503.112 363.797C498.362 366.886 491.998 371.664 487.263 374.124C483.025 373.238 483.42 370.262 483.389 366.347L483.583 237.308L483.521 197.788C483.513 192.616 483.201 180.593 484.017 175.93C486.442 172.518 612.489 90.8591 627.15 81.8703Z"/><path fill="#FBF4ED" transform="scale(0.390625 0.390625)" d="M626.68 85.43L627.284 85.524C628.347 89.1206 627.543 124.994 627.539 131.768L627.526 278.676C617.278 285.092 606.35 292.971 595.934 299.723L487.461 370.803C487.179 370.692 486.825 370.266 486.572 370.015C485.651 348.893 486.347 321.954 486.385 300.458L486.511 176.525C498.688 169.47 513.767 158.839 526.001 150.883C559.618 129.023 592.744 106.845 626.68 85.43Z"/><path fill="#102B40" transform="scale(0.390625 0.390625)" d="M616.397 101.387C617.581 102.401 618.285 103.19 618.336 104.832C618.528 110.953 618.455 117.085 618.449 123.21L618.475 158.864L618.467 276.284C612.535 279.33 605.742 284.026 600.108 287.757L573.955 305.187L497.716 355.905C495.56 354.113 496.398 341.549 496.408 338.105L496.475 307.725L496.256 217.374C496.225 207.548 496.892 188.222 496.066 179.359C514.481 167.199 532.996 155.192 551.61 143.34L616.397 101.387Z"/><path fill="#FBF4ED" transform="scale(0.390625 0.390625)" d="M498.993 180.514C502.417 178.101 506.135 175.559 509.71 173.386C545.343 151.729 579.853 126.871 615.364 105.215L615.493 169.541C615.51 178.625 616.087 195.821 615.243 203.971L615.367 205.997C616.309 226.239 615.514 253.784 615.516 274.578C609.798 277.709 602.204 283.129 596.634 286.862L568.722 305.389C545.49 320.948 522.007 335.922 499.063 351.898L498.946 324.236C498.93 318.575 498.177 309.688 500.712 304.818C500.093 302.991 500.596 303.771 499.039 302.469C499.348 287.953 499.061 272.676 499.031 258.089L498.993 180.514Z"/><path fill="#FBF4ED" transform="scale(0.390625 0.390625)" d="M500.712 304.818C507.047 291.757 514.703 280.174 528.715 274.301C538.447 270.223 544.747 272.823 552.126 279.605C553.544 280.909 555.425 282.604 557.193 283.361C559.08 280.857 559.202 274.126 559.904 270.642C564.236 249.158 572.267 224.42 590.367 210.655C598.308 204.616 606.363 204.568 615.367 205.997C616.309 226.239 615.514 253.784 615.516 274.578C609.798 277.709 602.204 283.129 596.634 286.862L568.722 305.389C545.49 320.948 522.007 335.922 499.063 351.898L498.946 324.236C498.93 318.575 498.177 309.688 500.712 304.818Z"/><path fill="#102B40" transform="scale(0.390625 0.390625)" d="M555.746 280.146C559.615 254.483 569.315 216.063 596.72 204.46C602.157 202.158 609.798 201.263 615.243 203.971L615.367 205.997C606.363 204.568 598.308 204.616 590.367 210.655C572.267 224.42 564.236 249.158 559.904 270.642C559.202 274.126 559.08 280.857 557.193 283.361C555.425 282.604 553.544 280.909 552.126 279.605C544.747 272.823 538.447 270.223 528.715 274.301C514.703 280.174 507.047 291.757 500.712 304.818C500.093 302.991 500.596 303.771 499.039 302.469C505.283 292.936 506.599 286.393 516.454 278.791C530.414 268.021 543.286 264.922 555.746 280.146Z"/><path fill="#102B40" transform="scale(0.390625 0.390625)" d="M544.731 180.516C556.071 179.835 555.265 191.429 552.586 199.049C549.971 206.489 546.345 210.991 539.213 214.404C528.143 215.69 528.847 204.736 531.255 197.328C533.792 189.524 537.427 184.333 544.731 180.516Z"/><path fill="#FBF4ED" transform="scale(0.390625 0.390625)" d="M545.11 183.425C553.675 183.516 552.223 192.106 550.316 197.753C548.061 204.431 545.052 208.646 538.802 211.833C530.935 212.665 531.775 204.604 533.29 199.542C535.36 192.622 538.697 187.074 545.11 183.425Z"/><path fill="#102B40" transform="scale(0.390625 0.390625)" d="M592.224 140.514C593.403 140.455 594.639 140.469 595.76 140.906C597.653 141.661 599.178 143.124 600.011 144.985C602.821 151.307 599.007 162.567 595.048 167.915C592.143 171.839 590.346 173.018 586.08 174.797C568.707 174.603 578.386 146.619 592.224 140.514Z"/><path fill="#FBF4ED" transform="scale(0.390625 0.390625)" d="M591.656 143.48C603.999 143.048 596.564 162.378 592.255 167.33C589.908 170.027 589.094 170.558 585.834 171.975C579.171 171.984 578.632 165.482 580.145 160.437C582.279 153.317 585.086 147.506 591.656 143.48Z"/><path fill="#102B40" transform="scale(0.390625 0.390625)" d="M434.215 413.373C436.004 413.872 435.298 413.399 436.451 414.774C437.312 418.353 436.942 525.559 436.081 530.331C434.065 532.189 414.775 544.282 410.913 546.832L332.941 597.671L213.369 677.24C202.899 684.058 192.588 691.136 182.054 697.844C178.744 699.952 172.81 705.54 169.018 704.338C167.798 699.221 167.894 668.72 168.046 661.554C168.506 639.888 167.179 614.795 168.362 593.515C170.488 591.493 173.206 589.54 175.65 587.904C192.795 576.433 209.813 564.748 227.041 553.404C230.149 551.358 241.865 541.49 244.838 543.591C244.612 544.808 243.893 545.969 242.814 546.634C236.652 550.43 230.723 554.588 224.747 558.667L171.313 594.632C170.356 610.458 171.152 634.744 171.209 651.182C177.905 655.042 191.656 663.273 198.319 668.34C198.695 668.626 198.34 669.24 198.152 669.824C194.807 670.475 175.926 657.607 171.345 654.952L171.362 701.516C192.927 686.116 214.209 673.325 235.785 658.863L430.851 529.84C416.825 520.272 400.029 510.955 385.212 502.265C378.535 513.228 366.956 529.481 359.379 539.749C352.362 549.673 322.256 592.229 315.022 596.874C312.785 598.311 310.082 598.597 307.532 597.936C304.209 597.075 301.141 594.699 299.409 591.744C298.148 589.595 297.513 586.762 298.27 584.326C300.264 577.909 315.855 555.16 320.204 548.341C331.103 531.198 342.095 514.115 353.179 497.092C357.267 490.831 366.52 474.971 372.684 469.553C373.736 468.628 378.764 469.471 380.381 470.319C387.645 474.129 391.893 478.228 395.029 485.89C393.172 490.871 390.02 495.188 387.087 499.622C394.489 503.877 402.376 508.714 409.748 513.05C415.99 516.722 428.555 523.345 433.372 527.863L433.471 418.199C419.258 427.544 404.974 436.901 390.887 446.428C381.22 452.965 371.788 459.955 362.085 466.504L262.209 533.694C276.629 541.357 279.194 541.93 271.557 557.725C269.455 562.072 267.23 567.361 265.229 571.837C275.037 578.918 289.701 586.715 298.784 593.583L298.35 594.734C294.755 595.344 286.992 589.44 283.797 587.379C277.205 583.124 270.577 578.925 263.916 574.781C261.195 579.93 258.297 586.472 255.683 591.828L229.982 645.009C226.029 653.018 222.116 661.82 217.034 669.107C212.776 676.707 195.887 667.4 197.883 661.847C203.54 646.113 211.817 627.199 218.189 612L241.414 555.53C243.159 551.292 244.583 544.454 247.305 540.94C251.058 536.094 287.66 512.703 295.198 507.638C325.784 487.127 356.23 466.408 386.535 445.482C401.778 435.139 419.617 424.132 434.215 413.373Z"/><path fill="#FBF4ED" transform="scale(0.390625 0.390625)" d="M373.189 472.437C377.753 472.352 380.907 473.931 384.57 476.508C387.232 478.38 390.583 481.251 391.026 484.681C392.098 492.992 327.067 578.99 315.917 592.425C312.551 595.601 308.44 596.664 304.624 593.353C299.213 588.658 300.928 584.841 304.14 579.514C311.332 567.581 318.82 555.85 326.354 544.126L357.852 495.341C360.876 490.746 370.395 475.133 373.189 472.437Z"/><path fill="#10161B" transform="scale(0.390625 0.390625)" d="M373.265 474.274L374.599 474.649C377.314 477.46 381.612 481.474 385.416 482.319C386.633 482.589 387.144 482.776 388.197 483.464L388.46 484.891C382.898 485.305 373.115 480.262 373.265 474.274Z"/><path fill="#FBF4ED" transform="scale(0.390625 0.390625)" d="M252.948 538.677C254.025 538.995 257.457 540.792 258.669 541.389C264.109 544.069 266.99 544.817 272.858 545.917C263.824 569.178 251.476 593.253 240.573 615.782C232.983 631.467 225.044 649.514 216.432 664.41C212.834 669.878 210.722 669.327 205.22 666.549C200.868 664.351 200.392 662.499 202.13 658.412C217.689 621.843 232.092 584.795 247.758 548.275C249.26 544.773 250.856 541.765 252.948 538.677Z"/><path fill="#FBF4ED" transform="scale(0.390625 0.390625)" d="M258.617 535.103C260.894 535.343 270.186 541.002 271.9 542.86L271.533 543.423C268.793 542.695 258.373 539.188 256.996 537.085L258.617 535.103Z"/><path fill="#102B40" transform="scale(0.390625 0.390625)" d="M192.004 557.154C188.975 560.021 185.41 562.654 181.865 564.852C179.331 566.423 175.88 568.293 172.809 567.403C171.215 566.941 170.063 565.766 169.354 564.296C168.547 562.622 168.25 560.696 168.166 558.856C167.725 549.202 168.015 459.763 169.206 456.585C170.242 453.822 172.633 452.119 174.952 450.492C191.273 439.038 208.088 428.377 224.612 417.235L338.05 340.269L402.87 296.433C409.066 292.233 429.036 277.986 434.871 275.501C434.887 275.511 435.979 275.969 435.996 276.619C436.981 312.907 435.874 349.658 436.52 386.068C436.554 387.976 436.289 389.146 435.845 390.392L435.028 390.724C433.271 390.228 426.548 385.888 425.031 384.708C420.651 381.299 392.222 365.545 392.115 361.485C395.786 361.086 427.49 382.589 433.104 386.039C433.822 351.571 433.04 314.756 432.993 280.1C423.762 285.685 411.319 294.686 402.082 300.893L333.781 346.983C336.947 359.093 348.341 423.681 352.486 429.251C353.51 430.628 354.711 431.343 356.442 431.507C360.143 431.857 364.817 428.681 367.421 426.37C369.077 424.9 370.912 422.955 371.315 420.692C372.428 414.456 360.94 359.207 358.967 348.598C358.106 343.963 355.985 337.614 356.336 333.023L357.286 332.656C358.539 333.496 358.937 334.069 359.467 335.495C363.912 347.439 371.717 413.327 375.581 417.329C376.458 418.236 377.695 418.572 378.911 418.627C384.079 418.864 389.462 412.774 392.665 409.3C392.55 403.267 390.719 392.534 389.82 386.167L383.47 342.566C382.58 336.547 379.887 322.553 381.042 317.208L381.624 317.244C384.717 322.875 387.807 350.419 389.042 358.747C390.7 369.809 392.233 380.89 393.64 391.986C394.314 397.248 395.585 405.215 395.513 410.346C391.695 415.536 386.352 419.246 380.378 421.503L374.71 419.738L374.016 420.499C373.978 421.368 373.889 423.509 373.365 424.296C369.879 430.077 358.495 437.073 351.972 433.196C347.8 429.177 345.957 418.298 344.967 413.239C340.745 391.672 334.971 369.872 331.567 348.26C324.35 353.234 317.164 358.251 310.007 363.311L308.272 364.316C307.339 364.785 304.001 367.203 302.956 367.925C299.229 379.256 253.162 484.203 254.044 487.774C254.493 489.593 255.583 491.017 257.163 492.002C261.255 494.555 265.475 494.33 269.924 493.241C288.208 452.335 305.17 410.809 323.503 370.153C321.809 368.387 316.595 364.895 317.357 362.139C320.53 362.337 324.163 366.1 326.654 368.237C323.594 378.148 315.398 396.023 311.111 406.132C318.515 411.087 325.957 415.984 333.438 420.823C336.4 422.749 347.474 429.106 347.766 432.018L346.855 432.436C343.093 431.839 314.568 411.914 310.052 408.812C300.881 432.693 288.713 456.284 279.106 480.053C277.383 484.318 275.331 488.657 273.201 492.762C268.229 502.34 248.647 495.526 251.108 485.216C254.743 475.08 259.871 463.737 264.088 453.836L287.157 398.624C290.766 389.954 295.618 379.678 298.648 371.044C292.367 375.014 284.53 380.846 278.054 385.179L222.118 422.575C221.603 434.432 219.754 446.746 219.036 458.635C218.778 462.912 218.322 468.046 217.611 472.237C223.212 476.081 257.107 497.828 258.645 500.887L258.144 501.287C254.003 500.92 223.31 480.005 217.612 476.188C216.628 487.3 215.739 498.42 214.946 509.547C214.542 515.639 214.302 524.756 213.309 530.452C206.396 535.961 201.109 539.389 192.529 534.334C192.058 541.931 191.883 549.544 192.004 557.154Z"/><path fill="#FBF4ED" transform="scale(0.390625 0.390625)" d="M218.753 424.938L219.307 425.745C215.054 458.022 213.677 491.466 211.011 523.93C210.13 534.648 200.613 536.268 192.734 530.829C193.165 511.019 194.881 491.184 195.81 471.404C196.044 466.402 198.251 444.041 196.125 441.451C196.011 441.539 195.884 441.612 195.784 441.715C192.725 444.852 192.883 479.539 192.129 486.434L192.075 486.9C190.531 509.969 189.432 533.065 188.778 556.177C185.07 558.889 176.78 566.008 172.357 563.712C170.85 557.994 171.408 518.678 171.407 510.33L171.449 476.618C171.47 470.715 171.278 462.929 171.817 457.151C175.027 453.98 183.093 448.775 187.128 446.043L218.753 424.938Z"/><path fill="#102B40" transform="scale(0.390625 0.390625)" d="M433.628 391.929C435.266 392.112 434.662 391.725 435.644 392.83L435.454 393.923C433.004 397.11 417.426 406.338 412.863 409.339C398.48 418.926 384.043 428.433 369.552 437.858L265.482 507.501C244.585 521.535 217.677 541.777 196.467 554.122C195.176 553.839 195.684 554.195 194.824 553.187C195.63 551.074 217.124 537.22 221.08 534.48C243.509 518.713 266.156 503.257 289.013 488.118C322.609 465.463 356.354 443.029 390.246 420.818C404.776 411.178 418.908 401.447 433.628 391.929Z"/><path fill="#102B40" transform="scale(0.390625 0.390625)" d="M379.232 641.425C380.565 641.908 380.055 641.489 380.768 642.775C379.812 645.281 363.017 655.813 359.519 658.203L304.889 695.56L137.062 810.605C135.933 810.216 136.419 810.536 135.737 809.421C136.05 808.269 136.678 807.673 137.648 806.998C162.362 789.788 187.348 772.912 212.122 755.798L379.232 641.425Z"/><path fill="#102B40" transform="scale(0.390625 0.390625)" d="M663.481 304.356C664.745 304.476 664.298 304.326 665.344 305.092L665.298 306.165C663.246 308.607 651.767 315.764 648.464 317.931L613.257 340.901C582.41 360.955 551.763 381.314 521.319 401.976C501.423 415.207 478.813 429.403 459.886 443.607C458.539 443.151 458.303 442.292 458.066 441.116C459.097 438.639 472.064 430.764 475.257 428.605L518.331 399.842C566.381 367.509 614.767 335.678 663.481 304.356Z"/><path fill="#17344D" transform="scale(0.390625 0.390625)" d="M665.64 94.6188C667.302 94.8874 666.765 94.6236 668.117 95.4592C668.61 97.7757 668.313 109.534 668.309 112.601L668.246 154.281C668.139 202.221 668.102 250.196 668.263 298.135C668.271 300.602 668.32 302.422 667.37 304.706L665.829 303.945C664.932 302.616 665.084 302.778 665.081 300.826L665.283 161.44L665.37 118.707C665.38 112.04 665.067 100.961 665.64 94.6188Z"/><path fill="#102B40" transform="scale(0.390625 0.390625)" d="M67.2256 254.483C71.3372 256.138 145.546 304.766 146.248 305.777C146.707 306.438 146.314 307.172 146.172 307.908C144.784 307.591 143.873 307.291 142.633 306.528C120.347 292.818 98.6298 278.191 76.5876 264.093C73.5171 262.129 69.3342 259.697 66.6718 257.372C66.2827 255.599 66.3008 256.534 67.2256 254.483Z"/><path fill="#102B40" transform="scale(0.390625 0.390625)" d="M59.2118 663.37C65.3569 665.178 124.404 705.211 134.395 711.103C135.276 711.622 134.674 713.066 134.416 714.314C129.542 712.442 111.767 700.348 105.979 696.62L76.1836 677.375C70.8421 673.909 63.998 669.7 59.0127 665.943C58.3721 664.479 58.5025 665.282 59.2118 663.37Z"/><path fill="#102B40" transform="scale(0.390625 0.390625)" d="M216.344 802.841L217.393 803.674L217.496 804.664C214.461 808.753 143.622 855.414 134.82 861.378C134.628 861.359 133.817 860.949 133.604 860.85L133.609 859.801C135.577 857.328 159.163 841.674 163.374 838.824L216.344 802.841Z"/><path fill="#102B40" transform="scale(0.390625 0.390625)" d="M324.323 825.434C325.751 826.599 325.471 825.913 325.786 827.334C324.113 829.373 310.843 837.999 307.964 839.876C288.682 852.452 270.045 866.327 250.722 878.78C249.715 878.23 249.777 878.284 249.181 877.302C250.177 875.477 316.821 830.326 324.323 825.434Z"/><path fill="#102B40" transform="scale(0.390625 0.390625)" d="M239.234 835.918L240.431 836.105L240.918 836.993C240.055 839.507 192.494 871.226 186.207 875.627C185.997 875.654 185.144 875.521 184.894 875.489L184.568 874.527C185.829 872.011 232.925 840.147 239.234 835.918Z"/><path fill="#102B40" transform="scale(0.390625 0.390625)" d="M297.999 889.341C299.376 889.906 298.812 889.482 299.726 890.697C298.471 893.741 261.246 918.618 255.206 922.071L253.904 921.744L253.514 920.783C254.39 918.944 292.736 893.029 297.999 889.341Z"/><path fill="#102B40" transform="scale(0.390625 0.390625)" d="M365.91 899.348L367.285 899.867L367.506 900.793C365.046 904.027 338.162 921.89 332.786 925.652L331.243 925.05L330.938 924.217C331.999 921.951 361.115 902.699 365.91 899.348Z"/><path fill="#102B40" transform="scale(0.390625 0.390625)" d="M387.886 448.695L389.592 449.115C391.018 452.054 390.537 471.584 389.39 475.356L387.888 474.735C386.596 472.683 386.599 450.905 387.886 448.695Z"/><path fill="#102B40" transform="scale(0.390625 0.390625)" d="M308.272 364.316L310.007 363.311C312.203 363.578 317.466 365.786 319.216 367.218L319.786 368.542L319.297 369.524C315.795 370.695 310.232 366.988 308.272 364.316Z"/></svg>