<?xml version="1.0" encoding="utf-8" ?><svg xmlns="http://www.w3.org/2000/svg" xmlns:xlink="http://www.w3.org/1999/xlink" width="400" height="400" viewBox="0 0 400 400"><path fill="#B6A9AA" transform="scale(0.390625 0.390625)" d="M0 0L1024 0L1024 1024L0 1024L0 0Z"/><path fill="#1E0F60" transform="scale(0.390625 0.390625)" d="M460.389 25.4034C472.56 32.5331 484.664 39.7738 496.702 47.1246C507.16 41.2095 518.857 34.7171 528.934 28.3234C623.22 84.2002 716.975 140.969 810.185 198.621L915.781 263.361C936.54 275.995 960.548 289.701 980.5 302.992L980.46 723.033C974.274 727.902 954.59 739.416 947.217 743.957C917.889 761.719 888.465 779.323 858.948 796.769L556.275 977.578L514.03 1002.27L301.145 876.443C243.369 842.798 185.84 808.731 128.561 774.245C107.837 761.577 86.1085 749.835 65.3191 737.224C60.6926 734.417 45.5256 725.844 42.0514 722.638L41.9388 473.097C41.7813 416.887 41.9707 360.677 42.5069 304.469C46.5023 301.68 54.3811 297.41 58.7904 294.818C69.2551 288.728 79.6427 282.506 89.9506 276.155C89.8272 271.45 90.2998 266.748 91.3572 262.162C94.9526 246.731 103.503 235.906 117.075 228.287C124.962 223.86 132.955 218.873 140.761 214.251C164.297 200.231 187.921 186.361 211.632 172.643L356.07 87.2936L417.425 51.0007C431.662 42.6052 446.411 34.1595 460.389 25.4034Z"/><path fill="#FDECCC" transform="scale(0.390625 0.390625)" d="M530.179 73.1656C532.29 74.0965 538.542 78.2192 540.786 79.62C547.986 84.1445 555.219 88.6162 562.484 93.0349L658.348 151.466L851.848 270.193L908.211 305.149C918.235 311.374 931.975 319.358 941.08 326.213C941.581 349.388 941.018 374.715 941.094 398.103L941.303 549.797C941.031 590.93 941.067 632.065 941.411 673.198C923.38 662.09 904.239 650.304 886.054 639.475C886.72 633.519 888.624 629.65 889.325 623.735L899.628 534.878C901.592 518.816 904.181 502.54 905.9 486.499C907.365 477.721 908.562 466.643 909.628 457.737C905.378 451.632 886.795 437.592 880.272 434.178C878.305 421.544 870.685 414.344 857.869 419.943C863.642 402.069 843.58 388.103 827.595 405.362C823.738 400.582 820.444 396.465 814.272 394.373C809.755 392.863 804.813 393.304 800.635 395.591C794.151 399.075 791.888 404.415 789.974 410.971C785.602 412.865 784.498 413.742 781.205 416.902C773.776 404.924 763.069 406.305 753.882 415.369C751.296 423.614 751.204 424.757 751.944 433.231C747.298 435.766 741.586 439.299 738.25 443.444C735.799 446.49 739.259 456.771 740.036 460.919L746.392 495.635L762.11 586.877C753.696 580.803 742.375 574.188 733.461 568.748L685.657 539.674L530.489 443.398L530.179 73.1656Z"/><path fill="#1E0F60" transform="scale(0.390625 0.390625)" d="M605.446 157.853C606.721 158.282 611.891 161.889 613.5 162.935C640.489 180.487 668.193 196.895 695.499 213.925C701.632 217.75 718.909 226.715 723.082 230.758L723.944 486.31C720.608 488.663 716.246 491.152 712.695 493.302L709.064 495.252C700.188 489.348 688.232 482.909 678.823 477.104C651.615 460.315 623.63 444.012 596.498 427.155L596.449 248.521L596.45 194.911C596.456 186.498 596.879 172.319 595.931 164.487C599.111 162.369 602.312 160.057 605.446 157.853Z"/><path fill="#FDECCC" transform="scale(0.390625 0.390625)" d="M599.824 169.607C603.392 171.542 609.908 176.067 613.64 178.485C623.113 184.661 632.624 190.78 642.172 196.841C663.457 210.194 687.956 224.191 708.56 238.401L708.556 489.881C705.958 490.007 647.228 453.734 640.58 449.658C630.361 443.392 610.197 432.007 600.147 425.35C599.67 380.689 600.065 335.717 600.126 291.029C600.18 250.683 599.425 209.898 599.824 169.607Z"/><path fill="#0E055F" transform="scale(0.390625 0.390625)" d="M612.821 193.827C620.582 194.26 669.804 229.789 681.231 235.145C684.036 236.459 693.923 242.956 696.493 244.996L696.46 334.006L696.547 358.017C696.558 361.413 696.583 365.317 696.433 368.732C696.375 370.066 695.161 370.668 694.067 371.547C686.143 367.928 671.552 357.781 663.501 353.061C645.584 342.561 627.675 331.639 610.044 320.674L609.528 197.937C610.571 196.329 611.557 195.275 612.821 193.827Z"/><path fill="#FB7A7B" transform="scale(0.390625 0.390625)" d="M613.507 197.13C615.724 197.922 623.314 202.905 625.751 204.427L658.536 225.291C669.567 232.288 682.373 239.199 693.003 246.657L692.982 367.078C683.035 361.331 672.56 354.621 662.671 348.614L613.04 318.474L613.007 235.915C612.993 229.412 612.338 202.124 613.507 197.13Z"/><path fill="#0E055F" transform="scale(0.390625 0.390625)" d="M650.24 227.893C656.153 233.394 665.326 261.674 665.612 270.623C671.634 274.033 691.817 286.957 691.856 293.461C689.797 297.85 678.443 301.75 673.941 303.393C675.518 309.858 678.801 329.962 673.95 334.867C669.093 337.092 661.363 325.574 658.358 322.011C655.886 319.231 651.029 312.462 648.594 309.261C642.263 310.446 632.955 311.293 626.406 311.4C624.774 311.427 624.849 311.15 624.155 310.264C623.389 304.112 628.049 288.348 629.713 281.946C626.665 275.122 616.619 263.497 615.063 255.223C614.814 253.903 615.59 253.23 616.324 252.443C621.944 250.3 633.949 255.857 639.634 258.137C640.62 250.924 644.574 232.508 650.24 227.893Z"/><path fill="#FDECCC" transform="scale(0.390625 0.390625)" d="M650.03 233.802C655.004 240.432 662.351 264.78 662.505 273.414C672.068 277.308 682.055 285.682 689.219 292.992C682.695 296.947 677.1 299.203 669.78 301.088C672.23 311.609 673.575 321.469 672.638 332.335C667.402 327.919 661.775 320.924 657.404 315.486C654.873 311.913 652.687 308.766 649.82 305.432C641.621 306.824 635.623 307.734 627.202 308.052C629.013 298.764 631.048 290.811 633.475 281.639C631.986 278.564 628.398 273.329 626.505 270.17C623.317 264.852 620.935 260.25 618.164 254.736C623.907 255.889 628.435 257.265 633.831 259.447C636.151 260.385 642.149 262.949 644.186 262.796C644.726 259.955 642.681 258.936 643.02 256.71C644.157 249.252 647.369 240.81 650.03 233.802Z"/><path fill="#1E0F60" transform="scale(0.390625 0.390625)" d="M648.305 271.984L648.737 272.613C649.8 274.184 649.952 275.692 651.294 276.496C652.536 275.806 652.718 274.739 653.173 273.147C653.526 271.87 653.863 270.589 654.184 269.304L654.52 269.43L655.639 273.474C655.034 275.084 653.47 278.545 653.611 279.983L654.984 280.498C656.941 279.372 656.659 279.091 658.418 279.324C660.049 282.854 654.136 286.94 661.978 289.368L662.714 289.633C662.61 290.989 662.457 291.783 662.787 293.119L662.036 293.567C660.099 293.579 660.389 293.347 658.425 292.228C656.801 290.613 656.237 289.967 654.902 288.109C654.745 290.846 654.698 300.439 653.335 302.059C652.259 300.282 652.399 297.131 652.377 295.028C651.045 293.636 649.882 292.108 648.101 291.51L647.078 292.078L645.996 291.764C643.562 289.103 641.684 286.869 643.468 283.395L644.951 282.917C646.317 283.562 646.726 283.947 648.2 283.789L649.04 283.508C649.496 282.082 649.706 281.62 650.324 280.307L650.359 279.112C649.374 276.189 648.205 274.943 648.305 271.984Z"/><path fill="#FDF2E9" transform="scale(0.390625 0.390625)" d="M644.951 282.917C646.317 283.562 646.726 283.947 648.2 283.789L649.04 283.508C649.145 284.568 649.217 285.952 649.48 286.947L650.346 288.046L651.992 287.992C653.12 289.066 653.003 290.09 652.463 291.538C651.004 291.341 650.333 290.678 649.13 289.82L647.592 290.124L647.078 292.078L645.996 291.764C643.562 289.103 641.684 286.869 643.468 283.395L644.951 282.917Z"/><path fill="#1E0F60" transform="scale(0.390625 0.390625)" d="M643.468 283.395C646.805 286.041 645.135 287.312 647.592 290.124L647.078 292.078L645.996 291.764C643.562 289.103 641.684 286.869 643.468 283.395Z"/><path fill="#403E40" transform="scale(0.390625 0.390625)" d="M650.324 280.307C651.761 281.343 651.661 281.277 652.57 282.813C652.433 284.787 652.765 283.892 651.319 285.499L649.955 285.608C649.491 286.634 649.606 286.175 649.48 286.947C649.217 285.952 649.145 284.568 649.04 283.508C649.496 282.082 649.706 281.62 650.324 280.307Z"/><path fill="#D7CEDA" transform="scale(0.390625 0.390625)" d="M661.978 289.368L662.714 289.633C662.61 290.989 662.457 291.783 662.787 293.119L662.036 293.567C660.099 293.579 660.389 293.347 658.425 292.228C659.892 288.66 659.253 292.046 661.978 289.368Z"/><path fill="#FDF2E9" transform="scale(0.390625 0.390625)" d="M653.611 279.983L654.984 280.498C654.892 283.029 656.75 283.999 656.86 287.427L656.279 287.546C654.354 284.679 654.283 283.364 653.611 279.983Z"/><path fill="#1E0F60" transform="scale(0.390625 0.390625)" d="M649.751 279.269C647.91 279.559 648.041 279.631 646.806 278.649C645.251 273.941 644.247 270.99 644.721 265.92C645.345 266.459 646.717 269.742 647.307 270.819L648.305 271.984C648.205 274.943 649.374 276.189 650.359 279.112L649.751 279.269Z"/><path fill="#D7CEDA" transform="scale(0.390625 0.390625)" d="M647.307 270.819L648.305 271.984C648.205 274.943 649.374 276.189 650.359 279.112L649.751 279.269C647.24 276.295 646.766 274.645 647.307 270.819Z"/><path fill="#1E0F60" transform="scale(0.390625 0.390625)" d="M656.385 291.903C657.808 292.761 662.992 299.516 663.375 301.36L663.127 301.406C662.088 302.29 662.089 302.51 660.784 302.617C658.13 301.066 656.497 294.813 656.385 291.903Z"/><path fill="#1E0F60" transform="scale(0.390625 0.390625)" d="M644.951 282.917L644.638 282.56C643.105 280.838 640.36 278.91 639.755 277.509L640.605 276.615C643.137 277.011 647.132 281.545 648.2 283.789C646.726 283.947 646.317 283.562 644.951 282.917Z"/><path fill="#1E0F60" transform="scale(0.390625 0.390625)" d="M662.714 289.633C664.507 291.521 665.739 292.383 665.572 295.129L664.848 295.325C663.612 294.361 663.657 294.418 662.787 293.119C662.457 291.783 662.61 290.989 662.714 289.633Z"/><path fill="#0E055F" transform="scale(0.390625 0.390625)" d="M614.272 338.79C618.761 340.082 693.058 385.919 695.933 388.679C695.957 394.331 696.316 400.035 696.27 405.662C696.243 408.993 696.009 410.248 693.712 412.423C687.419 410.598 661.566 394.8 655.537 391.011C646.389 385.262 617.546 370.31 611.424 362.987C610.87 357.549 610.771 348.472 611.311 342.972C611.533 340.706 612.506 340.058 614.272 338.79Z"/><path fill="#FB7A7B" transform="scale(0.390625 0.390625)" d="M614.679 342.68C618.439 344.572 625.084 349.071 629.132 351.512C641.006 358.536 652.802 365.69 664.517 372.976C669.48 376.019 689.359 387.371 692.47 390.438C692.479 396.397 692.62 402.455 692.708 408.422C680.609 402.264 663.691 391.072 651.516 384.243C645.107 380.647 619.205 365.501 615.354 361.693C614.756 356.968 614.564 347.388 614.679 342.68Z"/><path fill="#0E055F" transform="scale(0.390625 0.390625)" d="M620.337 378.12C626.301 379.095 675.493 410.466 685.786 415.762C686.2 419.885 686.813 424.142 685.653 428.139C684.452 428.503 683.422 428.817 682.232 428.163C674.013 423.641 665.924 418.734 657.927 413.824L619.998 390.812C619.805 386.965 619.695 381.859 620.337 378.12Z"/><path fill="#FB7A7B" transform="scale(0.390625 0.390625)" d="M622.987 382.422C627.948 384.833 634.079 389.223 639.07 392.095C653.384 400.333 668.309 410.495 682.999 417.905L683.046 424.931C680.919 424.091 667.318 415.688 664.438 413.952L622.945 388.89L622.987 382.422Z"/><path fill="#1E0F60" transform="scale(0.390625 0.390625)" d="M619.095 416.822C626.759 417.914 662.322 441.812 671.236 446.079C673.889 447.35 672.39 452.347 670.704 454.472C667.116 453.064 652.684 444.271 648.804 441.832C637.695 434.847 627.457 429.027 615.991 422.719C617.103 419.909 617.37 419.282 619.095 416.822Z"/><path fill="#FCD7BB" transform="scale(0.390625 0.390625)" d="M619.851 419.904C620.293 420.035 620.869 420.187 621.255 420.412C634.237 427.955 647.278 435.411 660.278 442.923C662.7 444.322 665.137 445.754 667.394 447.339C669.155 448.576 669.137 448.764 669.744 450.693L640.976 433.625C634.734 429.988 628.41 426.414 622.173 422.77C620.06 421.536 620.241 421.619 619.851 419.904Z"/><path fill="#0E055F" transform="scale(0.390625 0.390625)" d="M613.094 400.217C615.811 400.386 627.184 407.635 630.093 409.341C642.023 416.299 653.871 423.396 665.635 430.629C672.45 434.744 680.448 439.375 687.13 443.857C688.435 444.733 688.18 445.505 688.154 446.691C687.142 446.856 686.098 446.782 685.2 446.229C661.474 431.615 637.077 417.885 613.569 403.011C612.752 402.494 613.047 400.967 613.094 400.217Z"/><defs><linearGradient id="gradient_0" gradientUnits="userSpaceOnUse" x1="752.37817" y1="347.81635" x2="568.61212" y2="303.28708"><stop offset="0" stop-color="#5D5D89"/><stop offset="1" stop-color="#8D9ABB"/></linearGradient></defs><path fill="url(#gradient_0)" transform="scale(0.390625 0.390625)" d="M605.523 161.949C608.478 163.365 612.619 166.346 615.546 168.16C650.075 189.563 684.405 211.711 719.512 232.143C720.018 274.609 720.206 317.079 720.076 359.548L720.543 484.484L714.681 488.003C713.631 488.592 714.203 488.378 712.956 488.615C712.282 487.384 712.236 486.051 712.259 484.649C712.713 457.541 712.51 430.271 712.517 403.144L712.489 236.943C702.807 229.435 679.257 215.429 667.98 208.512C645.255 194.505 622.693 180.235 600.299 165.706L605.523 161.949Z"/><path fill="#1E0F60" transform="scale(0.390625 0.390625)" d="M865.716 324.623C883.99 322.524 902.178 349.227 905.231 365.185C909.102 385.423 905.852 401.105 882.715 405.577C862.767 403.972 847.987 385.039 843.045 366.959C839.063 352.394 839.776 334.324 855.754 327.258C859.012 325.818 862.308 325.447 865.716 324.623Z"/><path fill="#FB7A7B" transform="scale(0.390625 0.390625)" d="M858.735 330.007C893.183 329.251 916.03 389.047 885.731 401.74C856.688 406.486 824.715 344.65 858.735 330.007Z"/><path fill="#1E0F60" transform="scale(0.390625 0.390625)" d="M862.591 344.078C881.936 341.359 900.906 380.995 882.42 389.216C862.899 392.923 844.471 355.061 862.591 344.078Z"/><path fill="#FDECCC" transform="scale(0.390625 0.390625)" d="M864.426 346.948C873.542 347.354 878.904 354.625 882.849 361.914C878.639 363.829 875.276 365.485 871.21 367.686C868.103 369.379 864.963 371.011 861.793 372.582C858.466 364.752 855.571 352.19 864.426 346.948Z"/><path fill="#FDECCC" transform="scale(0.390625 0.390625)" d="M884.455 366.006C889.798 372.224 888.352 393.882 870.855 382.533C868.401 380.627 866.424 378.604 864.21 376.433L884.455 366.006Z"/><path fill="#8D567B" transform="scale(0.390625 0.390625)" d="M871.381 328.082C880.924 330.45 891.713 341.587 895.891 350.218C893.554 348.528 887.133 339.423 883.525 336.394C880.247 333.642 872.919 330.078 871.381 328.082Z"/><path fill="#5B5787" transform="scale(0.390625 0.390625)" d="M902.455 368.821C905.16 374.615 903.561 384.251 901.43 390.012L901.295 389.98C900.783 388.769 902.325 384.695 902.593 382.568C903.204 377.712 902.857 373.664 902.455 368.821Z"/><path fill="#1E0F60" transform="scale(0.390625 0.390625)" d="M783.005 274.671C802.232 272.905 823.182 302.975 825.598 319.924C828.097 337.451 822.187 351.383 803.492 354.283C795.581 354.581 788.535 351.495 782.274 346.849C770.355 337.842 762.47 324.496 760.334 309.71C757.861 292.521 763.838 277.34 783.005 274.671Z"/><path fill="#FB7A7B" transform="scale(0.390625 0.390625)" d="M777.992 280.584C809.686 280.393 837.577 342.428 804.12 350.979C770.012 352.719 746.134 287.667 777.992 280.584Z"/><path fill="#1E0F60" transform="scale(0.390625 0.390625)" d="M780.99 293.102C800.591 294.026 822.624 333.534 803.369 342.152C781.539 342.541 761.942 299.276 780.99 293.102Z"/><path fill="#FDECCC" transform="scale(0.390625 0.390625)" d="M798.314 307.495C801.985 311.531 804.489 317.7 806.559 322.641C801.118 324.719 794.346 328.285 788.658 330.727C788.466 330.748 787.779 330.544 787.554 330.487C785.005 327.671 782.713 323.84 780.969 320.462C787.034 317.016 793 312.041 798.314 307.495Z"/><path fill="#FDECCC" transform="scale(0.390625 0.390625)" d="M780.421 296.478C786.431 296.294 791.653 300.665 796.154 304.252L787.507 310.882C784.572 313.145 782.399 314.634 779.275 316.64C776.88 310.483 774.827 301.412 780.421 296.478Z"/><path fill="#FDECCC" transform="scale(0.390625 0.390625)" d="M806.496 326.406C807.09 326.697 807.006 326.8 807.463 327.445C808.104 331.98 806.953 336.695 802.208 338.459C799.68 339.399 797.205 337.937 794.916 336.9L790.27 333.929C796.366 331.797 800.776 329.354 806.496 326.406Z"/><path fill="#FB7A7B" transform="scale(0.390625 0.390625)" d="M820.536 317.59C815.021 299.702 805.366 287.857 788.896 279.245C790.905 279.004 794.708 280.99 796.521 282.111C809.227 289.964 817.511 302.934 821.266 317.076L820.536 317.59Z"/><path fill="#8D567B" transform="scale(0.390625 0.390625)" d="M821.266 317.076C822.475 320.839 823.887 329.094 822.371 332.598C821.696 326.562 821.849 323.728 820.536 317.59L821.266 317.076Z"/><path fill="#FDECCC" transform="scale(0.390625 0.390625)" d="M530.494 477.343C561.26 496.751 596.088 517.991 628.009 535.484C601.666 529.253 569.355 534.864 559.657 564.771C557.473 571.506 560.291 585.855 559.609 593.235C557.803 605.621 553.112 610.434 561.434 623.117C568.975 634.608 581.666 636.383 594.032 639.854C593.847 641.857 593.662 646.262 592.843 647.844C589.785 647.438 593.139 645.909 589.904 646.425C579.419 656.703 578.177 665.258 577.162 679.494C576.313 691.407 572.876 697.34 567.43 707.647C565.868 710.604 563.825 715.611 560.974 717.61C559.786 718.334 559.469 719.379 558.882 720.721C556.627 720.537 549.052 719.949 547.002 719.208C545.615 719.1 544.353 718.95 542.978 718.78C542.171 716.525 537.634 707.233 536.276 705.523C534.605 704.885 534.111 704.662 532.669 703.627C532.202 704.222 531.746 704.826 531.3 705.437L530.034 705.503C528.746 704.262 528.865 704.167 528.53 702.452C522.736 691.316 517.896 678.95 512.623 667.516C510.309 662.498 508.18 656.881 505.527 652.082L504.316 652.548L503.188 651.05C503.143 651.823 503.081 652.54 502.921 653.299L502.436 653.704C501.545 655.425 495.639 658.338 493.629 659.551L455.248 682.693L308.084 772.775L253.737 805.851C244.806 811.272 231.302 820.035 222.425 824.488C195.408 807.376 167.07 792.147 139.856 775.34C138.481 774.49 131.066 770.537 130.72 769.644C131.838 768.995 132.4 769.057 133.696 768.912C140.703 763.998 140.886 751.203 141.59 743.324C146.4 746.661 148.13 747.512 153.967 748.831C163.205 745.346 162.846 740.917 164.511 732.127C176.575 737.647 179.02 734.637 179.606 721.975L401.877 588.522L462.362 552.408C469.663 548.084 480.696 542.276 487.379 537.968C495.038 540.103 498.789 540.317 506.475 536.375C512.799 533.133 515.316 526.803 519.837 521.628C523.312 517.65 525.986 515.675 530.311 512.602L530.494 477.343Z"/><path fill="#0E055F" transform="scale(0.390625 0.390625)" d="M506.365 647.579C512.826 643.146 537.251 629.871 544.311 627.543C548.926 634.746 556.288 653.534 560.058 661.756C562.865 667.879 570.977 685.875 572.227 691.587C566.548 696.011 549.135 707.829 542.732 710.646C544.154 713.71 545.393 716.242 547.002 719.208C545.615 719.1 544.353 718.95 542.978 718.78C542.171 716.525 537.634 707.233 536.276 705.523C534.605 704.885 534.111 704.662 532.669 703.627C532.202 704.222 531.746 704.826 531.3 705.437L530.034 705.503C528.746 704.262 528.865 704.167 528.53 702.452C522.736 691.316 517.896 678.95 512.623 667.516C510.309 662.498 508.18 656.881 505.527 652.082C506.283 651.141 506.378 651.267 507.488 650.591C506.657 648.585 507.972 649.17 506.365 647.579Z"/><defs><linearGradient id="gradient_1" gradientUnits="userSpaceOnUse" x1="537.42072" y1="668.70038" x2="515.82562" y2="680.20105"><stop offset="0" stop-color="#FFB2A8"/><stop offset="1" stop-color="#FFEAD0"/></linearGradient></defs><path fill="url(#gradient_1)" transform="scale(0.390625 0.390625)" d="M524.325 641.364L528.641 651.494C525.154 653.61 521.198 656.147 517.675 658.104L518.524 660.04C519.776 663.007 520.586 664.674 520.977 667.957L521.571 667.933C520.121 669.129 518.588 670.089 518.014 671.823C518.064 676.272 530.087 698.866 532.669 703.627C532.202 704.222 531.746 704.826 531.3 705.437L530.034 705.503C528.746 704.262 528.865 704.167 528.53 702.452C522.736 691.316 517.896 678.95 512.623 667.516C510.309 662.498 508.18 656.881 505.527 652.082C506.283 651.141 506.378 651.267 507.488 650.591C513.094 647.865 518.87 644.445 524.325 641.364Z"/><path fill="#0E055F" transform="scale(0.390625 0.390625)" d="M520.977 667.957L519.327 667.844C516.359 665.213 511.979 654.716 513.576 650.927L514.207 651.036C516.144 653.291 516.275 655.481 517.675 658.104L518.524 660.04C519.776 663.007 520.586 664.674 520.977 667.957Z"/><path fill="#FDECCC" transform="scale(0.390625 0.390625)" d="M528.641 651.494C529.042 652.352 529.063 652.601 529.65 653.312C531.481 654.888 532.819 658.564 533.811 660.902C531.624 662.201 523.444 667.245 521.571 667.933L520.977 667.957C520.586 664.674 519.776 663.007 518.524 660.04L517.675 658.104C521.198 656.147 525.154 653.61 528.641 651.494Z"/><path fill="#1E0F60" transform="scale(0.390625 0.390625)" d="M528.641 651.494C529.042 652.352 529.063 652.601 529.65 653.312C525.973 655.612 522.324 657.952 518.524 660.04L517.675 658.104C521.198 656.147 525.154 653.61 528.641 651.494Z"/><path fill="#FB7A7B" transform="scale(0.390625 0.390625)" d="M521.135 673.04C527.017 667.877 543.402 658.421 551.167 656.433L552.351 658.573C548.561 659.252 547.684 659.601 544.099 661.446L531.882 668.353C532.232 668.837 533.012 669.993 533.394 670.35L534.719 673.139C535.644 672.028 535.567 671.966 536.03 670.565L536.352 669.474C538.09 667.901 539.206 666.786 541.652 666.67L542.704 667.871L543.936 666.586C543.605 665.668 543.693 665.822 543.611 664.822L544.923 663.529C546.774 662.811 548.618 662.076 550.455 661.324C554.291 669.465 558.307 678.261 561.605 686.646C560.014 687.717 556.179 690.159 554.956 691.355L553.554 692.262C551.439 693.549 549.122 694.894 547.092 696.281L545.252 697.41C542.835 698.907 539.837 700.648 537.523 702.206L535.832 701.808C532.112 698.297 523.818 678.964 521.135 673.04Z"/><path fill="#FB7A7B" transform="scale(0.390625 0.390625)" d="M521.135 673.04C527.017 667.877 543.402 658.421 551.167 656.433L552.351 658.573C548.561 659.252 547.684 659.601 544.099 661.446L531.882 668.353C532.232 668.837 533.012 669.993 533.394 670.35L534.719 673.139C537.784 681.171 541.601 689.605 545.252 697.41C542.835 698.907 539.837 700.648 537.523 702.206L535.832 701.808C532.112 698.297 523.818 678.964 521.135 673.04Z"/><path fill="#FB7A7B" transform="scale(0.390625 0.390625)" d="M521.135 673.04C527.017 667.877 543.402 658.421 551.167 656.433L552.351 658.573C548.561 659.252 547.684 659.601 544.099 661.446L531.882 668.353C532.232 668.837 533.012 669.993 533.394 670.35C531.272 671.639 528.847 673.034 526.823 674.426C528.862 679.01 538.066 697.068 537.246 700.589L537.523 702.206L535.832 701.808C532.112 698.297 523.818 678.964 521.135 673.04Z"/><path fill="#1E0F60" transform="scale(0.390625 0.390625)" d="M523.591 673.464C526.609 671.386 528.675 670.137 531.882 668.353C532.232 668.837 533.012 669.993 533.394 670.35C531.272 671.639 528.847 673.034 526.823 674.426C528.862 679.01 538.066 697.068 537.246 700.589C533.668 696.133 526.35 679.403 523.591 673.464Z"/><path fill="#FB7A7B" transform="scale(0.390625 0.390625)" d="M536.03 670.565L536.352 669.474C538.09 667.901 539.206 666.786 541.652 666.67L542.704 667.871C544.156 672.723 551.074 687.624 553.554 692.262C551.439 693.549 549.122 694.894 547.092 696.281L545.252 697.41C541.601 689.605 537.784 681.171 534.719 673.139C535.644 672.028 535.567 671.966 536.03 670.565Z"/><path fill="#1E0F60" transform="scale(0.390625 0.390625)" d="M536.03 670.565C538.661 676.942 544.003 690.713 547.092 696.281L545.252 697.41C541.601 689.605 537.784 681.171 534.719 673.139C535.644 672.028 535.567 671.966 536.03 670.565Z"/><path fill="#1E0F60" transform="scale(0.390625 0.390625)" d="M543.936 666.586C545.636 668.995 554.275 688.694 554.956 691.355L553.554 692.262C551.074 687.624 544.156 672.723 542.704 667.871L543.936 666.586Z"/><path fill="#FDF2E9" transform="scale(0.390625 0.390625)" d="M540.056 632.944C541.027 632.562 541.638 632.053 542.264 632.416C544.432 633.673 545.846 638.82 546.935 641.265L547.508 642.222C551.172 649.94 554.619 658.007 558.121 665.838C561.358 673.074 565.651 681.756 568.228 689.121C567.351 690.587 567.945 690.076 566.422 690.75C564.746 688.744 557.039 668.275 555.092 664.499C554.356 663.072 553.479 660.032 552.351 658.573L551.167 656.433C550.573 654.949 550.435 654.091 549.097 653.258C546.308 653.097 539.512 657.919 536.267 659.711C535.027 656.439 534.032 654.19 532.509 651.035C532.117 649.66 532.448 650.294 531.153 649.304C529.864 646.208 528.134 643.238 526.51 640.297C531.01 637.818 535.525 635.367 540.056 632.944Z"/><path fill="#FCD7BB" transform="scale(0.390625 0.390625)" d="M540.056 632.944C541.027 632.562 541.638 632.053 542.264 632.416C544.432 633.673 545.846 638.82 546.935 641.265L547.508 642.222C542.476 646.117 534.938 648.866 532.509 651.035C532.117 649.66 532.448 650.294 531.153 649.304C529.864 646.208 528.134 643.238 526.51 640.297C531.01 637.818 535.525 635.367 540.056 632.944Z"/><path fill="#1E0F60" transform="scale(0.390625 0.390625)" d="M546.935 641.265L547.508 642.222C542.476 646.117 534.938 648.866 532.509 651.035C532.117 649.66 532.448 650.294 531.153 649.304C535.205 646.847 539.292 644.447 543.412 642.105C544.447 641.785 545.85 641.513 546.935 641.265Z"/><path fill="#FDF2E9" transform="scale(0.390625 0.390625)" d="M540.056 632.944C541.027 632.562 541.638 632.053 542.264 632.416C544.432 633.673 545.846 638.82 546.935 641.265C545.85 641.513 544.447 641.785 543.412 642.105C543.122 640.407 543.492 641.115 542.258 639.908C543.091 638.577 542.964 638.587 542.993 636.979C542.219 635.246 541.966 635.29 540.365 634.294L540.056 632.944Z"/><path fill="#1E0F60" transform="scale(0.390625 0.390625)" d="M540.365 634.294C541.966 635.29 542.219 635.246 542.993 636.979C542.964 638.587 543.091 638.577 542.258 639.908C540.685 639.382 540 639.311 538.887 638.074C538.884 636.062 539.154 636.333 540.365 634.294Z"/><path fill="#FDF2E9" transform="scale(0.390625 0.390625)" d="M563.649 689.41L564.298 689.496C565.302 690.589 565.007 689.957 565.156 691.481C562.667 695.392 546.799 704.563 542.28 707.331L541.707 707.267L540.685 704.86C541.43 702.823 560.766 691.26 563.649 689.41Z"/><path fill="#0E055F" transform="scale(0.390625 0.390625)" d="M502.436 653.704C501.873 652.08 501.765 652.16 502.196 650.532C503.281 648.914 504.607 648.483 506.365 647.579C507.972 649.17 506.657 648.585 507.488 650.591C506.378 651.267 506.283 651.141 505.527 652.082L504.316 652.548L503.188 651.05C503.143 651.823 503.081 652.54 502.921 653.299L502.436 653.704Z"/><path fill="#0E055F" transform="scale(0.390625 0.390625)" d="M197.738 763.278C196.312 760.152 196.388 753.587 199.049 751.392C206.238 745.46 214.891 740.771 222.904 735.949L269.798 707.949L482.113 580.078C501.675 568.451 521.051 556.514 540.234 544.271C542.472 542.84 556.108 533.48 557.567 533.557C558.653 534.528 558.409 533.942 558.636 535.186C556.299 538.48 547.258 543.634 543.511 546.072C529.009 555.521 514.326 564.692 499.472 573.578C492.65 577.682 478.946 585.413 472.86 589.813L472.079 590.385C479.445 597.642 487.386 604.291 495.825 610.267C500.399 613.51 526.672 629.438 527.937 631.04L527.608 631.801C525.175 632.478 520.882 629.922 518.752 628.647C501.531 618.349 482.674 606.933 469.334 591.787C465.076 593.954 460.386 596.706 456.345 599.248C438.979 610.174 419.663 620.255 402.929 631.993C409.012 637.917 462.21 668.964 461.206 672.801C460.322 673.032 458.304 672.704 457.647 672.213C439.996 659.02 415.998 647.936 399.532 633.818C377.844 646.96 354.8 659.969 333.706 673.778C341.198 684.801 360.894 697.47 373.044 703.308C377.134 705.274 381.893 706.953 386.004 708.947C387.353 709.602 386.969 709.239 387.396 710.557L386.722 711.303C384.48 711.926 378.713 709.336 376.421 708.398C357.863 700.806 343.936 690.135 330.488 675.514C307.316 688.095 283.421 704.272 260.037 717.508C271.782 732.042 287.33 741.356 303.513 750.233C307.811 752.591 313.212 754.444 317.238 757L317.368 757.902C316.855 758.254 316.07 758.613 315.449 758.436C293.835 752.279 272.102 735.471 256.732 719.957C248.918 724.105 205.467 749.08 201.556 753.917C199.602 756.333 200.213 759.616 200.526 762.457L199.705 761.982C199.124 759.666 199.141 759.324 199.127 756.898C197.976 757.289 198.474 757.164 197.576 758.766C197.558 760.604 197.459 760.713 198.099 762.495L197.738 763.278Z"/><path fill="#1E0F60" transform="scale(0.390625 0.390625)" d="M197.738 763.278L198.099 762.495C197.459 760.713 197.558 760.604 197.576 758.766C198.474 757.164 197.976 757.289 199.127 756.898C199.141 759.324 199.124 759.666 199.705 761.982L200.526 762.457C209.444 775.682 224.121 784.13 238.161 791.104C239.886 791.96 247.511 794.916 248.315 795.785C244.693 803.129 200.786 774.745 197.738 763.278Z"/><path fill="#FDECCC" transform="scale(0.390625 0.390625)" d="M422.181 236.456L422.452 236.543C423.121 237.488 422.317 248.05 422.248 250.124C421.418 270.668 422.681 291.242 426.018 311.53C430.488 337.327 440.731 365.426 456.669 386.182C461.982 393.101 466.806 399.216 474.002 404.27C474.081 408.597 474.776 412.159 475.647 416.367C467.136 426.436 464.311 432.971 458.32 444.759C448.691 449.004 436.699 456.56 427.341 462.091L374.905 493.295L194.218 600.739C183.714 606.889 169.304 614.929 159.516 621.698L159.555 601.9C161.685 600.253 163.714 598.481 165.632 596.592C222.819 539.871 219.973 435.684 220.1 360.903C229.643 355.917 243.321 346.944 252.766 341.164L306.592 308.208L422.181 236.456Z"/><path fill="#FDECCC" transform="scale(0.390625 0.390625)" d="M875.432 664.406C879.824 668.163 899.358 679.504 904.993 682.905C927.126 696.372 949.412 709.584 971.849 722.537C819.866 814.579 667.369 905.77 514.365 996.105C493.644 985.301 468.731 969.743 448.407 957.73L341.618 894.632C328.699 887.378 315.984 879.769 303.487 871.812C307.409 869.161 311.981 866.386 316.09 864.014C345.14 847.245 373.783 828.338 402.874 811.825C409.364 814.999 414.062 816.935 420.837 819.197C412.394 823.349 404.355 826.616 396.077 830.594C396.093 836.358 395.616 843.238 395.455 849.149C401.91 853.772 414.49 860.736 421.844 865.459C420.986 874.088 421.298 885.265 421.488 894.083C435.004 902.953 449.98 911.485 463.915 919.746L509.64 947.208C515.126 945.092 533.372 933.407 539.492 929.729L609.716 887.458L776.873 786.864L827.292 756.101C836.302 750.689 852.555 741.753 860.468 735.636C860.43 727.298 860.109 718.491 860.169 710.21C860.178 708.913 862.074 699.788 862.469 697.582C864.165 688.106 865.883 678.967 867.18 669.393C870.508 667.692 872.319 666.519 875.432 664.406Z"/><path fill="#FDECCC" transform="scale(0.390625 0.390625)" d="M505.418 65.4231C505.803 67.6472 505.399 86.4352 505.395 89.9517L505.462 154.021C497.713 159.524 487.294 165.352 479.084 170.629C455.686 185.667 431.49 199.265 407.608 213.411C353.405 246.187 299.018 278.657 244.448 310.819L168.583 356.372C163.486 359.369 152.691 366.836 147.523 368.4C146.947 361.165 147.179 352.202 147.227 344.859L147.385 312.642C147.409 306.435 146.973 284.141 147.914 279.367C151.52 274.544 189.105 253.596 197.068 248.838C239.469 223.202 282.108 197.963 324.98 173.124L424.101 114.069C451.416 97.8544 478.398 82.3132 505.418 65.4231Z"/><path fill="#0E055F" transform="scale(0.390625 0.390625)" d="M202.325 258.437L203.671 258.832C204.191 260.68 203.995 276.127 203.995 279.105L204.076 323.251C192.523 331.18 179.91 337.875 167.898 345.095C165.073 346.793 162.121 348.38 159.126 349.753L158.227 349.461C156.722 347.207 157.458 291.219 157.477 284.086C171.943 276.089 187.948 265.708 202.325 258.437Z"/><path fill="#FDECCC" transform="scale(0.390625 0.390625)" d="M199.399 263.913L199.776 264.042C199.97 264.261 200.165 264.48 200.359 264.699C200.343 270.66 200.32 284.757 200.324 289.843C200.331 300.882 200.401 310.646 200.473 321.047C190.082 328.679 173.459 337.784 161.791 344.73L161.39 344.747C160.449 343.299 161.055 293.058 161.092 286.28C173.898 278.976 186.668 271.369 199.399 263.913Z"/><path fill="#0E055F" transform="scale(0.390625 0.390625)" d="M259.869 224.399L261.01 225.221C262.562 228.194 261.974 280.892 261.977 288.221C257.902 291.486 249.694 296.138 245.036 298.906C235.703 304.391 226.416 309.952 217.175 315.59C215.759 315.469 216.372 315.687 215.349 314.81C214.835 308.898 215.13 298.677 215.128 292.519L215.162 250.312C220.843 246.202 229.933 241.258 236.22 237.684C243.74 233.409 252.257 228.263 259.869 224.399Z"/><path fill="#FDECCC" transform="scale(0.390625 0.390625)" d="M257.55 229.433L258.087 229.765C258.599 232.571 258.41 245.255 258.418 248.73L258.595 286.73C245.426 294.239 232.392 301.983 219.5 309.958C218.242 308.4 218.817 257.485 218.851 251.51C222.157 250.064 228.915 245.963 232.249 244.057C240.717 239.242 249.151 234.367 257.55 229.433Z"/><path fill="#0E055F" transform="scale(0.390625 0.390625)" d="M317.68 189.389L319.194 189.794C319.431 190.139 319.667 190.485 319.903 190.831C320.211 208.656 320.3 236.585 320.002 253.603C317.054 256.091 310.142 260.046 306.62 262.189C296.51 268.408 286.251 274.38 275.851 280.102C274.263 278.66 273.696 278.316 273.565 275.996C273.184 269.243 273.321 262.419 273.297 255.648L273.154 215.245C286.64 208.357 303.957 197.296 317.68 189.389Z"/><path fill="#FDECCC" transform="scale(0.390625 0.390625)" d="M316.328 194.44C317.53 197.992 316.577 244.865 316.546 251.899C303.405 259.87 290.221 267.769 276.995 275.597L276.661 217.305C289.018 211.109 303.554 201.415 316.328 194.44Z"/><path fill="#0E055F" transform="scale(0.390625 0.390625)" d="M435.367 119.906C435.983 119.988 436.506 120.2 437.111 120.392C438.526 123.172 437.977 175.726 437.978 183.068C423.093 192.915 408.101 201.33 393.237 210.832C391.898 210.884 392.548 210.989 391.289 210.513C390.349 207.836 391.053 151.999 391.08 146.07C403.861 137.937 422.188 127.01 435.367 119.906Z"/><path fill="#FDECCC" transform="scale(0.390625 0.390625)" d="M433.875 124.448C433.931 124.5 434 124.541 434.043 124.604C435.294 126.418 434.713 175.564 434.683 181.348C422.706 189.16 407.667 197.761 395.173 205.077C393.823 203.714 394.457 153.752 394.475 147.781C407.198 140.809 421.272 131.989 433.875 124.448Z"/><path fill="#0E055F" transform="scale(0.390625 0.390625)" d="M375.412 155.412C376.608 155.449 376.032 155.338 377.099 155.966C377.8 158.502 377.596 172.811 377.601 176.583L377.635 219.198C373.332 222.654 367.335 225.895 362.591 228.85C352.793 234.953 342.175 240.711 332.645 247.15C331.633 246.125 331.322 245.816 331.276 244.023C331.086 236.669 331.199 229.063 331.224 221.718C331.238 208.34 331.181 194.962 331.055 181.585C345.502 173.611 360.732 163.715 375.412 155.412Z"/><path fill="#FDECCC" transform="scale(0.390625 0.390625)" d="M373.635 160.517C374.745 161.857 374.474 210.335 374.501 217.028C361.525 225.117 348.469 233.078 335.336 240.91L334.981 240.835C334.235 239.432 334.412 190.079 334.382 184.035C347.195 175.843 360.516 168.238 373.635 160.517Z"/><path fill="#0E055F" transform="scale(0.390625 0.390625)" d="M490.816 87.4293C491.631 87.6143 491.454 87.6386 492.196 88.1771C493.824 93.1178 493.251 140.983 493.445 149.739C488.947 153.957 458.345 171.497 451.655 174.548C450.433 174.313 450.878 174.442 449.779 173.725C449.021 171.158 449.206 156.304 449.185 152.46C449.161 138.975 449.051 125.491 448.853 112.008C462.665 104.419 477.257 94.4611 490.816 87.4293Z"/><path fill="#FDECCC" transform="scale(0.390625 0.390625)" d="M488.987 92.5332C489.967 93.7985 489.608 142.851 489.612 148.817C478.195 154.635 464.908 163.688 452.711 170.168C452.225 167.537 452.409 157.075 452.367 153.974C452.191 140.783 452.743 127.167 452.229 114.013C463.783 107.883 477.577 99.2575 488.987 92.5332Z"/><path fill="#FB7A7B" transform="scale(0.390625 0.390625)" d="M460.285 31.4011C461.884 31.3769 502.573 56.7082 507.093 59.3699C498.103 65.2015 487.551 70.9315 478.247 76.5067C455.983 89.9816 433.621 103.296 411.165 116.448L238.008 219.232C217.763 231.046 197.592 242.986 177.495 255.05C167.987 260.692 156.271 266.969 147.472 273.349C140.379 278.492 141.694 301.016 141.705 308.463C141.729 322.558 141.824 336.652 141.99 350.746L139.309 352.185C136.511 353.611 133.701 355.014 130.881 356.395C123.209 350.039 104.485 339.338 94.9771 333.526L94.9136 294.731C94.8891 284.809 94.2178 270.679 96.5794 261.331C98.8695 252.086 104.123 243.844 111.537 237.865C117.625 233.048 139.58 220.777 147.307 216.243C170.972 202.055 194.766 188.083 218.685 174.328L460.285 31.4011Z"/><path fill="#7571A0" transform="scale(0.390625 0.390625)" d="M510.694 61.5017C515.847 64.4285 520.977 67.3961 526.084 70.4044C526.627 85.4394 526.113 102.413 526.065 117.617L526.197 193.732L526.441 510.924C519.523 515.774 515.045 520.672 510.631 527.77C511.549 498.361 510.786 464.832 510.705 435.096L510.494 277.049L510.43 208.972C510.418 201.386 510.705 191.129 510.029 183.491C509.919 182.256 508.633 181.04 507.44 180.418C502.035 181.336 462.959 206.494 454.392 211.177C425.71 229.065 397.622 248.195 369.181 266.449C357.806 273.751 345.835 280.042 334.225 286.875C323.794 293.013 313.207 299.763 302.925 306.198L252.273 337.21C244.657 341.872 230.182 351.291 222.631 354.94C220.81 356.947 202.169 367.502 198.266 369.834C183.901 378.405 169.581 387.052 155.308 395.775C146.805 400.956 137.655 406.275 129.495 411.868C129.081 395.15 129.044 378.426 129.384 361.707C135.54 364.974 141.253 368.873 147.405 372.103C160.907 366.677 178.6 354.729 191.731 346.874L273.504 298.02L433.262 202.819C451.815 191.893 470.229 180.733 488.5 169.341C493.138 166.492 506.73 158.769 510.301 155.661C509.771 131.545 510.235 107.287 510.035 83.1603C509.976 75.9612 509.94 68.6641 510.694 61.5017Z"/><path fill="#FB7A7B" transform="scale(0.390625 0.390625)" d="M222.631 354.94C222.64 348.812 225.063 344.503 230.26 341.397C299.452 300.048 367.242 256.484 436.419 215.146C440.666 212.608 445.535 209.048 450.134 207.361C451.543 208.644 452.962 209.916 454.392 211.177C425.71 229.065 397.622 248.195 369.181 266.449C357.806 273.751 345.835 280.042 334.225 286.875C323.794 293.013 313.207 299.763 302.925 306.198L252.273 337.21C244.657 341.872 230.182 351.291 222.631 354.94Z"/><path fill="#FB7A7B" transform="scale(0.390625 0.390625)" d="M86.1264 334.332C97.7682 340.849 112.629 350.839 124.462 358.127C123.962 376.529 124.233 396.034 124.175 414.51L124.021 515.194L123.742 765.394C121.931 764.897 114.5 760.148 112.434 758.922L85.8177 743.237C86.2755 728.98 85.9637 713.662 85.9529 699.302L85.9581 624.469L86.1264 334.332Z"/><path fill="#FB7A7B" transform="scale(0.390625 0.390625)" d="M528.679 34.0261C530.939 34.6731 542.013 42.0752 544.854 43.7717L616.498 86.7661C695.509 134.182 774.183 182.157 852.514 230.688L922.214 273.539C939.097 283.783 956.651 293.929 973.228 304.588C964.159 310.321 954.438 315.2 945.233 320.912L944.517 321.24C942.685 321.305 924.868 309.451 922.046 307.697L868.92 274.691L501.254 49.7454C508.068 46.9033 521.858 38.127 528.679 34.0261Z"/><path fill="#FB7A7B" transform="scale(0.390625 0.390625)" d="M47.4748 310.084C50.4958 311.432 57.2449 315.859 60.158 317.687L82.5855 331.771C83.1522 346.543 82.8859 362.858 82.8874 377.721L82.6561 467.377L82.4756 740.826C80.9859 740.92 51.4213 723.033 47.1642 720.519C46.234 676.804 47.1406 630.424 47.0887 586.448L47.4748 310.084Z"/><path fill="#FB7A7B" transform="scale(0.390625 0.390625)" d="M975.081 309.428L975.835 309.984L975.884 594.561C975.997 636.074 975.895 677.588 975.579 719.101L895.401 670.958C890.277 667.869 885.195 664.711 880.156 661.486C881.814 660.11 882.815 659.047 884.316 657.483C884.562 651.978 884.737 649.206 885.815 643.828C892.71 648.161 939.84 677.993 944.913 677.98C945.7 677.129 946.043 676.758 946.049 675.35C946.102 663.413 946.088 651.244 946.094 639.328L946.115 564.092L945.906 326.652C955.691 321.014 965.417 315.272 975.081 309.428Z"/><path fill="#FB7A7B" transform="scale(0.390625 0.390625)" d="M378.819 534.934C379.996 536.351 379.551 591.591 379.552 597.667C313.505 638.344 246.978 678.236 179.985 717.334C180.707 695.507 180.498 682.71 171.191 662.605C187.418 652.167 204.207 642.416 220.472 631.887C220.495 638.258 219.857 669.578 220.958 673.702C222.63 674.465 221.827 674.426 223.409 674.135C225.068 672.151 224.325 651.204 224.304 647.125L224.245 629.55C228.326 627.235 232.849 624.243 236.866 621.721C236.679 629.134 235.691 674.424 237.172 677.327C237.545 678.058 237.528 677.836 238.436 678.142C238.989 677.904 240.396 677.211 240.428 676.481C240.629 671.8 240.554 667.084 240.559 662.396L240.474 619.478C244.14 617.516 248.317 614.959 251.858 612.7C274.634 598.172 299.94 585.019 322.085 569.659C322.067 577.238 321.199 624.608 322.641 627.972C323.07 628.971 323.262 629.006 324.218 629.349L325.263 628.85C326.4 626.185 325.925 574.181 325.937 567.532C338.407 559.991 351.352 552.582 363.547 544.684C363.538 551.297 362.667 592.189 364.071 594.974C364.491 595.808 364.655 595.677 365.465 595.981L366.93 595.205C367.972 593.573 367.349 547.085 367.324 542.156L378.819 534.934Z"/><path fill="#1E0F60" transform="scale(0.390625 0.390625)" d="M336.295 572.742C336.877 572.783 339.441 572.989 339.436 573.675C339.372 583.122 341.504 614.566 338.925 622.155L337.128 622.738L336.386 622.207C335.416 617.943 335.803 578.384 336.295 572.742Z"/><path fill="#FDECCC" transform="scale(0.390625 0.390625)" d="M359.481 745.422C366.381 749.67 410.895 776.466 413.238 780.008L413.062 780.753C410.701 780.342 409.467 778.657 407.444 777.6C402.168 774.842 396.117 771.449 390.038 772.745C386.667 773.462 383.732 775.518 381.905 778.441C373.994 791.151 390.491 803.832 399.582 809.831C389.766 814.695 376.212 823.713 366.324 829.723C344.279 843.226 322.116 856.536 299.837 869.65C293.954 866.088 287.218 862.514 281.188 858.993L239.749 834.618L226.356 826.614C244.607 814.466 267.618 801.384 286.616 790.008C297.771 796.99 308.984 803.879 320.255 810.673C328.84 815.84 337.978 821.058 346.202 826.819C348.444 828.389 349.755 831.426 352.676 831.431C353.55 830.49 353.478 830.55 353.703 829.275C348.379 821.227 302.085 796.46 290.416 788.074C300.657 780.897 312.341 774.165 323.087 767.684L359.481 745.422Z"/><path fill="#7571A0" transform="scale(0.390625 0.390625)" d="M784.067 632.863C786.823 634.006 786.949 637.806 786.655 640.291C785.383 651.028 782.8 661.866 780.865 672.505C775.717 700.464 770.282 728.37 764.561 756.218C760.079 757.542 752.036 763.569 747.658 766.185L688.708 801.825C687.604 802.587 687.951 802.389 686.7 802.851C686.576 802.679 686.453 802.506 686.329 802.334C693.13 771.36 700.928 733.585 707.288 703.046C710.733 686.505 712.24 684.821 713.073 677.125L762.388 646.623C769.681 642.074 776.656 637.159 784.067 632.863Z"/><path fill="#7571A0" transform="scale(0.390625 0.390625)" d="M876.402 575.85C877.615 576.052 877.16 575.906 878.217 576.643C879.063 579.855 875.12 604.373 874.199 608.955C868.224 638.678 864.285 669.834 858.026 699.357C834.179 712.101 805.193 730.862 781.796 745.512L780.838 745.795C780.378 742.956 785.989 720.01 786.988 715.184L797.099 665.027C800.27 649.764 803.717 634.618 806.445 619.252C814.975 614.956 827.398 606.708 835.884 601.46C849.058 593.314 863.799 584.656 876.402 575.85Z"/><path fill="#7571A0" transform="scale(0.390625 0.390625)" d="M690.528 690.426C692.04 690.533 691.319 690.342 692.617 691.314C693.221 695.341 687.305 725.16 686.049 731.628C680.834 758.463 676.021 786.093 670.157 812.765C662.309 818.849 652.335 824.09 643.871 829.416C628.315 839.206 612.182 848.395 596.712 858.262C595.773 858.917 596.293 858.723 595.15 858.841C594.331 856.792 607.109 797.086 608.727 789.06C611.032 777.207 613.427 765.371 615.913 753.554C616.937 748.661 618.279 741.03 619.703 736.473C625.005 732.307 638.023 724.508 644.199 720.545C659.697 710.59 675.14 700.55 690.528 690.426Z"/><path fill="#7571A0" transform="scale(0.390625 0.390625)" d="M597.034 750.028C598.15 750.752 599.834 752.563 600.852 753.584C592.723 791.624 586.284 833.097 577.15 870.253C572.694 872.275 562.991 878.704 558.297 881.562L522.135 903.365C519.192 905.172 509.833 911.449 507.522 912.035C505.799 911 504.068 909.978 502.33 908.97C502.892 899.472 505.963 888.644 507.803 879.091C513.447 851.087 519.283 823.123 525.311 795.199C532.493 791.299 541.989 784.995 549.083 780.584C565.253 770.694 581.24 760.507 597.034 750.028Z"/><path fill="#7571A0" transform="scale(0.390625 0.390625)" d="M855.074 713.118C856.169 714.873 856.007 730.136 856.022 733.063C849.342 737.881 838.769 743.857 831.457 748.294L778.842 779.972L592.113 892.552C565.397 908.695 536.746 924.965 510.827 941.978L510.386 941.859C509.797 940.39 510.407 924.858 510.458 922.112C519.841 917.179 532.094 909.378 541.221 903.842L605.628 864.527L855.074 713.118Z"/><path fill="#FDECCC" transform="scale(0.390625 0.390625)" d="M652.78 551.779C655.801 552.818 679.35 567.487 683.227 569.814C710.054 586.209 737.072 602.29 764.276 618.053C756.439 622.085 747.463 628.457 739.917 633.368C728.191 640.937 716.369 648.356 704.454 655.624L703.39 656.296C691.362 663.943 691.938 670.615 688.853 684.54C686.072 683.037 683.01 681.309 680.48 679.437C672.882 673.814 670.487 675.357 663.526 680.311C663.41 664.31 659.792 646.331 646.596 636.106C649.304 634.463 652.001 632.803 654.689 631.128C685.378 611.68 670.832 594.458 660.538 567.513C658.369 561.834 656.135 556.921 652.78 551.779Z"/><path fill="#5B5787" transform="scale(0.390625 0.390625)" d="M602.789 536.695C614.141 535.089 627.285 538.62 637.533 543.457C651.649 550.119 654.183 561.988 659.806 575.352C662.814 581.837 664.777 588.862 667.566 595.397C677.505 618.683 648.537 632.532 630.783 638.296C619.272 642.033 607.083 643.296 595.476 637.235L596.834 633.874C598.736 629.564 600.788 626.129 603.16 622.102C605.706 621.346 607.957 620.742 610.203 619.242C615.1 615.923 618.456 610.772 619.515 604.951C622.196 590.96 612.726 579.758 599.434 590.008C592.132 584.575 583.95 576.451 581.376 567.526C580.433 564.254 579.637 559.793 578.755 556.248C577.484 561.92 577.473 576.617 567.418 573.624C565.141 572.947 563.569 571.629 562.516 569.493C562.477 566.436 563.666 564.514 564.932 561.856C572.38 546.213 586.168 538.71 602.789 536.695Z"/><path fill="#FB7A7B" transform="scale(0.390625 0.390625)" d="M530.401 447.71C536.548 451.132 545.188 456.907 551.427 460.78C568.936 471.609 586.375 482.55 603.745 493.6C635.405 513.192 667.171 532.61 699.044 551.854C720.125 564.976 741.315 577.921 762.612 590.689C763.017 593.685 765.236 605.978 766.168 608.603C766.456 604.928 765.797 596.735 765.629 592.695C772.722 597.419 780.125 601.661 787.788 605.392C787.925 605.667 788.062 605.942 788.2 606.217C786.411 610.303 784.475 616.746 783.598 620.7C778.61 618.018 772.76 615.922 768.082 613.222C759.455 608.242 750.928 603.009 742.304 597.992L650.702 544.157C610.928 521.138 568.64 498.401 530.383 472.969C530.319 464.55 530.325 456.13 530.401 447.71Z"/><path fill="#FB7A7B" transform="scale(0.390625 0.390625)" d="M199.297 373.425L199.888 374.227C200.381 385.736 199.225 399.778 198.529 411.431C195.284 465.741 192.35 527.491 151.348 568.379C145.389 574.321 137.355 579.527 130.248 584.067C129.234 582.082 129.58 552.432 129.578 548.041C131.932 545.909 134.238 543.724 136.494 541.489C176.554 501.36 174.383 440.628 174.404 388.576L199.297 373.425Z"/><path fill="#FB7A7B" transform="scale(0.390625 0.390625)" d="M470.516 205.894L471.282 206.283C469.346 226.636 469.913 247.149 472.97 267.363C476.652 293.089 485.027 327.292 506.612 343.507C506.871 354.663 506.588 366.982 506.53 378.218C499.647 375.964 493.466 372.115 487.506 368.102C471.146 355.094 457.964 336.277 451.405 316.406C442.562 289.619 437.597 252.559 441.068 224.434C450.035 218.181 461.114 211.939 470.516 205.894Z"/><path fill="#FB7A7B" transform="scale(0.390625 0.390625)" d="M455.504 488.086C456.004 489.467 454.788 494.7 454.555 496.376C451.026 521.71 451.514 532.801 478.071 539.144C468.913 543.897 457.912 550.696 449.016 556.064C432.842 565.907 416.598 575.633 400.283 585.24L383.674 595.188C382.826 576.071 383.349 551.291 383.432 532.066C390.75 527.106 398.323 523.206 405.746 518.649C422.03 508.651 439.84 498.865 455.504 488.086Z"/><path fill="#FB7A7B" transform="scale(0.390625 0.390625)" d="M215.444 363.893C216.77 365.066 216.301 376.793 216.285 379.145L216.019 406.379C215.462 456.84 212.026 513.037 188.035 558.659C175.907 581.723 158.83 606.704 130.525 609.726L130.033 609.238C129.349 606.918 129.694 591.376 129.714 588.039C139.333 583.372 148.11 577.141 155.688 569.6C190.481 534.624 197.039 484.53 200.719 437.93C202.553 415.676 203.483 393.356 203.505 371.026C207.666 368.725 211.418 366.397 215.444 363.893Z"/><path fill="#FB7A7B" transform="scale(0.390625 0.390625)" d="M170.346 390.928C170.625 392.585 170.597 397.363 170.59 399.344C170.407 452.552 170.37 502.364 129.905 542.97C129.211 531.467 129.923 512.927 129.943 500.71L129.963 415.707C143.422 407.35 156.901 399.467 170.346 390.928Z"/><path fill="#FB7A7B" transform="scale(0.390625 0.390625)" d="M505.599 184.903L506.386 185.498C506.717 188.084 506.464 197.683 506.447 200.727L506.342 232.326L506.562 338.084C500.166 333.143 496.648 327.306 492.568 320.426C476.412 290.923 470.88 235.68 475.655 202.615C485.587 196.916 495.611 190.705 505.599 184.903Z"/><path fill="#FB7A7B" transform="scale(0.390625 0.390625)" d="M476.995 420.281C478.006 420.742 477.533 420.453 478.244 421.608C477.841 423.797 476.125 425.308 474.968 427.376C470.056 436.158 466.873 445.542 463.849 455.059L290.76 559.568C262.492 576.292 234.352 593.23 206.341 610.382C190.802 619.75 175.65 628.077 160.461 638.072C158.879 637.248 159.124 628.592 159.069 626.491C166.464 620.718 188.971 608.121 198.342 602.53L270.82 559.122L380.464 494.216C397.23 484.107 414.082 474.142 431.019 464.323C439.164 459.526 452.638 450.013 461.365 448.425C464.456 438.335 470.497 428.525 476.995 420.281Z"/><path fill="#FB7A7B" transform="scale(0.390625 0.390625)" d="M436.884 226.983C437.463 228.38 436.38 252.281 436.714 257.055C440.358 309.193 453.93 360.474 506.564 382.48L506.571 399.035C502.846 400.324 499.542 401.237 495.73 402.271C483.527 404.528 476.883 403.702 468.236 394.183C427.592 349.441 424.058 290.901 426.538 233.513C429.797 231.634 433.652 229.034 436.884 226.983Z"/><path fill="#FDECCC" transform="scale(0.390625 0.390625)" d="M429.143 702.411C430.824 702.481 452.136 716.25 455.349 718.275C451.828 723.284 448.429 729.597 445.138 734.86C435.795 749.804 427.073 765.34 417.28 779.978C415.263 774.595 407.374 770.945 402.263 767.893C392.347 762.28 372.238 749.781 363.374 743.187C368.697 739.305 377.554 734.238 383.439 730.531C398.568 720.988 413.804 711.614 429.143 702.411Z"/><path fill="#9F97B3" transform="scale(0.390625 0.390625)" d="M482.873 712.229C487.284 712.015 492.044 712.466 496.4 713.194C499.222 716.283 501.169 719.117 503.332 722.664C508.143 722.143 511.229 722.376 516.069 722.665C517.945 724.518 519.528 726.645 521.525 728.434C524.975 731.525 528.114 733.866 531.429 737.169C516.65 735.799 500.788 733.092 485.819 732.422C484.402 732.359 482.936 727.63 480.094 728.677C479.708 730.898 482.577 738.817 483.406 741.397C474.868 750.049 459.895 770.732 451.993 781.189C446.73 787.66 439.204 797.193 434.686 803.962C426.543 801.402 419.423 797.52 414.566 790.365C424.553 775.28 434.194 759.968 443.481 744.442C448.344 736.458 453.908 726.399 459.626 719.221C464.421 713.201 475.622 712.609 482.873 712.229Z"/><path fill="#7571A0" transform="scale(0.390625 0.390625)" d="M458.484 474.439C458.663 476.223 457.55 480.612 457.113 482.568C434.138 498.143 409.126 511.969 385.435 526.486C375.625 532.498 365.956 538.933 356.188 544.902C293.641 582.343 231.502 620.462 169.781 659.252C168.547 658.772 168.236 657.65 167.346 656.234L163.602 649.74C172.007 645.263 183.973 637.447 192.422 632.325L263.312 589.023L458.484 474.439Z"/><path fill="#FDF2E9" transform="scale(0.390625 0.390625)" d="M598.868 667.06C615.64 667.871 614.079 687.685 609.935 699.094C604.436 714.235 594.654 725.498 586.685 739.012C583.749 737.436 581.43 736.225 578.385 734.88C573.832 736.661 562.314 744.754 557.07 747.862L550.281 744.591C545.111 741.863 539.055 739.107 533.726 736.557C534.509 730.126 534.938 727.532 539.227 722.32C545.792 722.601 554.98 723.749 561.788 724.338C562.499 725.419 562.468 725.485 563.463 726.277C565.147 725.792 564.463 726.238 565.586 724.89C565.773 723.228 565.257 722.576 564.523 721.048L564.233 720.456C564.889 718.376 566.324 716.627 567.558 714.782C574.831 703.908 579.124 690.005 585.245 678.387C588.291 672.605 592.496 668.867 598.868 667.06Z"/><path fill="#FDECCC" transform="scale(0.390625 0.390625)" d="M503.824 657.532C505.479 659.768 508.826 668.015 510.138 670.926C514.754 681.094 519.307 691.292 523.797 701.517C518.467 698.903 507.143 689.002 503.228 695.613C502.963 697.946 504.105 700.61 504.809 703.021C503.412 705.057 498.703 704.075 496.493 705.45C495.07 706.337 495.282 707.401 495.006 709.126C493.415 709.444 489.585 708.58 487.502 708.481C478.687 708.035 469.882 709.52 461.702 712.833L457.475 715.623L433.082 700.184C456.158 685.8 480.452 671.526 503.824 657.532Z"/><path fill="#FDF2E9" transform="scale(0.390625 0.390625)" d="M433.305 815.434C436.202 815.872 484.209 845.12 490.958 849.483C489.171 859.48 487.25 869.453 485.194 879.398C480.151 876.612 475.156 873.74 470.211 870.785L428.964 846.545C420.782 841.716 411.227 836.347 403.404 831.098C413.161 827.432 424.381 820.769 433.305 815.434Z"/><path fill="#FDF2E9" transform="scale(0.390625 0.390625)" d="M499.092 776.068C501.65 778.877 503.183 780.543 506.059 782.993C502.992 787.285 500.851 801.931 499.643 807.939L491.872 845.951C481.984 839.834 472.029 833.828 462.008 827.933L436.998 812.808C443.896 809.629 450.915 804.73 457.504 800.932C471.477 792.877 485.119 784.084 499.092 776.068Z"/><path fill="#FDECCC" transform="scale(0.390625 0.390625)" d="M760.649 467.042C767.613 471.481 776.579 477.435 783.961 480.956C785.654 495.736 785.726 511.239 787.081 526.083C787.822 534.198 787.852 542.668 789.09 550.718C789.297 553.569 789.499 556.768 789.547 559.63C790.413 565.979 793.903 599.511 791.27 603.185C788.724 603.37 779.787 597.329 777.142 595.696C775.849 587.914 774.944 577.612 774.038 569.648L767.404 512.703C765.694 498.397 763.746 480.994 760.649 467.042Z"/><path fill="#FB7A7B" transform="scale(0.390625 0.390625)" d="M904.375 465.445L904.852 465.942C904.871 467.374 903.298 476.484 903.017 478.617L898.02 516.266C894 546.96 891.183 578.587 886.916 609.039C884.31 610.738 879.922 614.974 877.46 614.832C876.824 613.323 877.238 612.995 877.59 611.053C879.141 600.687 881.589 589.425 882.471 579.022C882.742 575.825 879.507 573.05 877.28 570.878C877.462 556.784 879.674 542.958 880.646 528.981C881.791 512.531 883.938 495.178 884.059 478.749C891.03 474.625 897.808 470.186 904.375 465.445Z"/><path fill="#FDECCC" transform="scale(0.390625 0.390625)" d="M788.397 484.379L809.946 497.475C810.314 507.276 810.473 516.989 810.604 526.792C810.88 547.475 812.275 568.288 812.398 588.96C806.958 592.405 801.621 596.009 796.392 599.766L794.665 573.875C794.429 570.4 794.175 563.712 793.671 560.453C792.218 560.127 791.012 559.88 789.547 559.63C789.499 556.768 789.297 553.569 789.09 550.718C792.378 548.713 791.261 544.902 792.392 541.412C792.464 536.003 791.675 529.921 791.375 524.436C790.651 511.209 788.998 497.539 788.397 484.379Z"/><path fill="#0E055F" transform="scale(0.390625 0.390625)" d="M792.392 541.412C792.914 547.741 793.526 554.108 793.671 560.453C792.218 560.127 791.012 559.88 789.547 559.63C789.499 556.768 789.297 553.569 789.09 550.718C792.378 548.713 791.261 544.902 792.392 541.412Z"/><path fill="#FB7A7B" transform="scale(0.390625 0.390625)" d="M129.872 633.716L136.437 634.854C138.394 647.842 147.547 661.724 153.752 673.564C162.058 689.415 164.536 725.133 158.51 741.712C153.436 748.35 146.693 742.635 142.04 738.687C142.106 722.837 142.572 703.334 139.689 687.862C135.708 666.499 130.081 656.124 129.872 633.716Z"/><path fill="#7571A0" transform="scale(0.390625 0.390625)" d="M485.48 735.997C497.743 736.105 510.651 738.791 522.826 739.678C535.071 740.57 542.704 744.17 553.166 750.261C546.269 754.386 539.456 758.653 532.734 763.057C523.641 768.752 515.279 773.189 506.591 779.652C500.302 772.269 486.711 755.712 481.749 748.206C484.239 746.118 485.1 745.401 487.211 742.882C486.736 740.457 486.137 738.368 485.48 735.997Z"/><path fill="#7571A0" transform="scale(0.390625 0.390625)" d="M461.947 460.7C462.151 462.239 460.485 467.888 459.989 469.757C456.421 471.024 443.228 479.108 439.116 481.535L397.137 506.169C351.353 532.817 305.733 559.745 260.278 586.95L200.819 623.078C188.59 630.553 174.722 639.559 162.249 646.273C161.714 645.087 161.474 644.47 161.071 643.234C162.296 640.222 194.835 621.581 199.582 618.689L361.25 521.737L429.66 480.057C439.991 473.777 451.431 466.493 461.947 460.7Z"/><path fill="#FDF2E9" transform="scale(0.390625 0.390625)" d="M578.859 572.401C579.263 572.787 579.06 572.545 579.399 573.135C584.73 582.423 588.279 586.999 597.663 592.319C593.869 601.727 589.416 614.014 599.344 620.876C597.125 625.917 593.972 629.858 592.591 635.212L591.724 635.379L590.096 633.865C587.421 633.911 586.753 633.823 584.121 633.301C569.423 629.721 562.482 622.505 559.438 607.9C564.233 594.192 562.418 589.415 562.452 575.122C569.565 578.382 573.378 578.348 578.859 572.401Z"/><path fill="#0E055F" transform="scale(0.390625 0.390625)" d="M571.349 580.891C581.647 581.13 583.959 597.154 577.439 603.535C569.269 605.795 569.397 594.107 568.922 588.77C568.594 585.075 568.829 583.591 571.349 580.891Z"/><path fill="#FB6572" transform="scale(0.390625 0.390625)" d="M572.312 592.242C574.286 593.186 576.263 593.814 577.446 595.539C577.837 597.417 577.159 598.444 576.417 600.246C575.135 600.941 575.787 600.907 574.444 600.579C572.521 598.405 572.587 595.155 572.312 592.242Z"/><path fill="#FCD7BB" transform="scale(0.390625 0.390625)" d="M572.76 584.221C575.23 585.191 577.452 588.547 577.233 591.163C575.347 590.18 573.247 589.482 572.169 587.74C571.843 586.052 572.12 585.827 572.76 584.221Z"/><path fill="#FDF2E9" transform="scale(0.390625 0.390625)" d="M857.355 703.922C858.045 704.522 857.754 704.325 858.072 705.501C856.967 708.698 838.113 719.103 833.979 721.628L782.267 753.079L587.202 871.705L539.71 900.708C530.024 906.519 517.265 913.677 508.09 919.878C482.017 904.13 451.573 887.464 426.289 870.99C425.099 870.047 425.526 870.621 424.969 869.2L425.336 868.495C429.234 867.964 497.707 911.657 508.039 916.202C513.795 913.547 527.681 904.258 534.1 900.505C556.14 887.617 577.883 873.312 599.757 860.176L857.355 703.922Z"/><path fill="#FB7A7B" transform="scale(0.390625 0.390625)" d="M504.285 429.245C505.779 429.041 505.182 428.822 506.222 429.586C506.848 432.021 506.438 451.336 506.498 455.257C506.886 480.377 506.15 506.155 506.909 531.218L506.923 531.226C502.127 534.188 500.935 534.895 495.386 536.194C493.417 535.875 492.606 535.681 490.709 535.065C487.323 529.535 494.899 443.367 495.567 429.526C498.718 429.573 501.152 429.442 504.285 429.245Z"/><path fill="#FDECCC" transform="scale(0.390625 0.390625)" d="M507.35 787.108L521.611 795.155C517.589 810.15 515.385 826.19 511.779 841.346C507.769 858.202 504.931 875.383 501.147 892.28C498.834 892.399 490.405 886.776 487.791 885.159C490.406 875.184 492.35 862.131 494.407 851.792C498.847 830.256 503.161 808.694 507.35 787.108Z"/><path fill="#FB7A7B" transform="scale(0.390625 0.390625)" d="M813.506 499.22C819.802 502.726 827.254 507.546 833.541 511.384C834.57 530.425 833.857 556.235 834.009 575.756L827.25 579.988C823.377 582.385 819.523 584.812 815.688 587.27L813.506 499.22Z"/><path fill="#7571A0" transform="scale(0.390625 0.390625)" d="M399.434 833.333C426.946 850.509 455.929 865.896 483.472 883.117C484.723 883.9 484.33 885.543 484.35 886.902C485.705 889.448 497.134 895.043 500.772 897.109C499.796 901.014 499.619 902.463 499.414 906.404L499.233 906.652C497.662 906.802 485.583 898.694 483.316 897.344C455.146 880.818 427.134 864.023 399.286 846.961C399.147 842.088 399.233 838.183 399.434 833.333Z"/><path fill="#FDF2E9" transform="scale(0.390625 0.390625)" d="M578.336 738.934C583.019 741.632 589.675 744.385 594.778 747.009C580.993 756.185 567.077 765.162 553.033 773.938C543.784 779.715 533.186 785.846 524.287 791.94L523.942 792.285C522.486 792.398 511.006 784.884 508.905 783.591C509.908 782.366 511.833 780.189 513.106 779.448C534.776 766.817 556.454 750.896 578.336 738.934Z"/><path fill="#FB7A7B" transform="scale(0.390625 0.390625)" d="M742.404 455.417C745.033 456.606 754.487 463.288 757.283 465.194C763.263 505.545 769.569 552.587 773.096 593.351C771.153 592.532 767.448 590.146 765.469 588.939C758.444 544.32 750.755 499.807 742.404 455.417Z"/><path fill="#FDF2E9" transform="scale(0.390625 0.390625)" d="M671.584 679.361C674.466 679.138 684.463 685.831 687.469 687.694C682.505 691.638 671.151 698.582 665.253 702.414L618.801 732.533C618.058 733.032 618.256 732.881 617.345 733.115C612.974 731.182 608.349 728.354 604.283 725.835C610.231 717.048 623.492 709.947 632.52 704.16C645.495 695.82 658.516 687.554 671.584 679.361Z"/><path fill="#7571A0" transform="scale(0.390625 0.390625)" d="M425.127 874.674C432.04 878.507 439.172 883.27 446.094 887.298L506.069 922.53L506.316 939.694L425.118 890.931C425.152 885.512 425.155 880.093 425.127 874.674Z"/><path fill="#FB7A7B" transform="scale(0.390625 0.390625)" d="M486.866 427.329L492.146 429.042C489.851 466.357 486.164 496.907 486.079 535.081C482.067 535.601 479.847 535.723 475.919 534.805C473.561 534.307 471.926 533.582 469.699 532.709C468.545 503.148 479.974 456.056 486.866 427.329Z"/><path fill="#FDECCC" transform="scale(0.390625 0.390625)" d="M879.808 481.422C880.018 481.698 880.229 481.974 880.439 482.25C879.76 506.554 874.971 546.819 873.863 569.407C871.289 567.894 868.461 566.506 865.796 565.133L860.162 562.368C860.321 541.62 859.707 513.3 861.085 493.187L879.808 481.422Z"/><path fill="#FDF2E9" transform="scale(0.390625 0.390625)" d="M766.457 621.434C768.908 622.443 777.488 627.879 781.198 629.746C776.427 633.805 761.418 642.811 755.797 646.269C741.125 655.1 726.622 664.209 712.295 673.59L711.472 673.961C708.507 673.864 700.193 667.103 697.709 665.112C701.522 661.228 725.172 646.89 730.93 643.343C741.134 637.058 756.214 626.443 766.457 621.434Z"/><path fill="#FB7A7B" transform="scale(0.390625 0.390625)" d="M856.977 495.526C857.683 496.431 856.701 555.042 856.641 561.71C850.289 565.166 844.258 569.159 838.186 573.079C837.989 572.804 837.791 572.529 837.594 572.253C837.314 555.802 837.505 523.561 837.528 508.722C843.937 504.215 850.42 499.816 856.977 495.526Z"/><path fill="#FDF2E9" transform="scale(0.390625 0.390625)" d="M857.525 565.356C861.002 565.86 870.303 571.181 873.497 573.181C852.096 587.135 828.313 601.761 806.521 615.249C805.448 615.858 805.67 615.741 804.506 616.121C801.162 615.091 794.088 609.693 790.911 607.379C804.454 598.383 818.147 589.615 831.987 581.081C840.037 576.011 849.237 569.765 857.525 565.356Z"/><path fill="#FB7A7B" transform="scale(0.390625 0.390625)" d="M154.614 630.971L155.317 631.277C155.36 649.477 164.407 656.019 171.127 672.222C177.778 688.259 176.893 711.444 175.517 728.621C175.142 733.3 167.186 729.28 164.95 728.329C166.055 704.179 165.656 684.854 152.957 663.418C147.414 654.062 142.616 645.697 139.884 635.095C146.486 634.229 148.706 633.851 154.614 630.971Z"/><path fill="#9F97B3" transform="scale(0.390625 0.390625)" d="M479.126 751.854C481.333 753.052 494.275 769.985 496.597 772.928C480.808 782.021 461.043 793.844 445.987 803.731C442.474 806.072 438.871 808.574 435.185 810.602C441.574 800.849 448.738 791.397 455.79 782.103C463.395 772.081 471.158 761.583 479.126 751.854Z"/><path fill="#FB7A7B" transform="scale(0.390625 0.390625)" d="M89.6302 282.455L90.0191 282.569C90.7652 283.998 90.4286 326.14 90.4232 330.411L67.0222 316.067C61.3434 312.714 55.7158 309.274 50.1412 305.75C61.9009 299.668 78.0016 289.53 89.6302 282.455Z"/><path fill="#FB7A7B" transform="scale(0.390625 0.390625)" d="M481.042 424.765C482.068 425.206 482.905 425.788 483.297 426.8C482.743 429.915 481.96 432.633 481.168 435.657C473.742 463.986 468.353 493.129 466.082 522.346C465.892 524.786 466.667 528.338 465.481 530.365C463.776 530.521 463.929 530.109 462.07 528.755C459.524 526.087 457.582 522.723 457.257 519.09C455.096 494.924 467.835 443.588 481.042 424.765Z"/><path fill="#FDF2E9" transform="scale(0.390625 0.390625)" d="M696.172 669.153C699.237 670.625 706.635 675.567 709.159 677.787C704.209 699.383 699.518 721.038 695.089 742.747C693.674 749.429 692.295 756.119 690.952 762.817C690.318 766.073 689.398 771.957 688.507 774.969L686.745 775.914C684.74 777.726 682.913 778.928 680.707 780.45C682.387 764.638 697.998 700.059 696.355 691.279C695.958 689.159 693.706 687.682 692.151 686.433C692.978 681.129 694.633 674.259 696.172 669.153Z"/><path fill="#FDF2E9" transform="scale(0.390625 0.390625)" d="M789.542 611.593C794.424 614.069 798.462 616.194 802.953 619.326C796.842 651.319 789.113 684.273 782.673 716.515C780.567 717.46 777.824 718.941 775.713 720.011C778.317 701.422 783.593 682.762 786.411 664.181C788.025 653.536 794.683 636.157 785.917 627.798C787.046 622.183 788.069 617.143 789.542 611.593Z"/><path fill="#FDF2E9" transform="scale(0.390625 0.390625)" d="M656.584 657.785C659.474 663.645 659.756 676.726 659.154 683.098C645.968 691.314 632.98 700.198 619.699 708.222L618.506 708.729C617.654 707.127 620.35 700.329 620.93 697.775C622.678 690.074 622.718 685.68 622.466 677.997C637.547 677.771 650.926 672.983 656.584 657.785Z"/><path fill="#FDF2E9" transform="scale(0.390625 0.390625)" d="M603.397 729.211C607.062 731.137 612.099 734.426 615.746 736.65C614.857 744.279 610.766 760.402 609.05 768.906L601.517 805.23C600.04 812.299 598.553 819.473 596.9 826.505C596.423 828.534 595.992 828.338 594.226 829.318L589.097 832.74C594.236 806.208 599.931 779.327 604.027 752.647C601.936 749.397 600.549 748.261 597.754 745.683C600.699 739.442 601.645 735.842 603.397 729.211Z"/><path fill="#FDECCC" transform="scale(0.390625 0.390625)" d="M840.27 400.6C844.731 400.484 847.502 400.692 850.936 403.89C863.71 415.782 847.557 428.783 839.236 436.775C836.638 432.153 835.458 430.654 831.379 427.222C827.052 424.513 820.117 423.929 815.386 426.014C814.362 426.465 814.249 426.698 813.109 426.538L812.902 425.586C813.852 422.28 816.223 418.301 820.049 417.986C822.621 417.774 823.454 419.797 825.403 421.149C826.623 420.838 826.974 420.196 827.849 419.239C828.372 416.97 828.042 417.319 827.187 414.713C829.858 406.451 832.082 403.296 840.27 400.6Z"/><path fill="#FDF2E9" transform="scale(0.390625 0.390625)" d="M792.434 444.529L795.007 444.519C811.552 444.322 816.776 464.568 804.527 474.162C802.903 475.434 801.009 476.513 799.228 477.571C793.023 473.956 786.865 470.261 780.755 466.488C779.914 458.286 780.159 455.514 784.324 448.438C786.594 447.192 790.021 445.682 792.434 444.529Z"/><path fill="#FB7A7B" transform="scale(0.390625 0.390625)" d="M129.652 662.582C131.588 668.928 135.012 682.222 135.896 688.414C138.338 705.523 140.484 748.642 134.29 763.353C133.068 764.92 131.327 766.867 129.243 766.236C128.924 763.82 128.886 761.391 128.926 758.957C129.461 726.946 128.126 694.538 129.652 662.582Z"/><path fill="#FB7A7B" transform="scale(0.390625 0.390625)" d="M832.604 506.849C825.568 502.176 818.601 498.441 811.425 494.097L767.688 467.553C760.218 463.013 747.245 455.525 740.805 450.228C740.064 448.69 740.046 448.811 740.314 447.136C743.263 446.882 751.283 453.121 754.254 454.87L804.656 485.115C813.625 490.457 824.907 497.457 834.151 501.865C839.38 499.535 854.279 489.113 860.344 485.277L887.738 468.047C890.57 466.272 897.571 462.254 899.58 460.447C899.586 461.956 899.471 462.04 900.057 463.391C894.823 468.003 872.386 481.924 866.11 485.736C855.694 492.064 842.931 500.906 832.604 506.849Z"/><path fill="#FDF2E9" transform="scale(0.390625 0.390625)" d="M852.034 455.588C866.168 453.719 868.93 464.663 869.092 475.982C863.579 479.553 858.038 483.081 852.47 486.566L846.549 490.439C846.227 482.122 845.136 477.862 839.54 471.617C839.979 470.002 840.48 468.405 841.041 466.828C843.244 460.63 846.406 458.232 852.034 455.588Z"/><path fill="#FB6572" transform="scale(0.390625 0.390625)" d="M645.426 638.985C663.872 652.901 648.146 671.342 630.751 673.607C627.72 674.001 624.54 673.92 621.548 674.333C617.42 665.467 614.048 659.575 604.955 655.103L605.454 653.843C609.081 654.943 613.975 657.245 617.299 657.875C631.32 660.531 648.452 656.709 645.426 638.985Z"/><path fill="#FDECCC" transform="scale(0.390625 0.390625)" d="M820.996 427.566C823.301 427.481 825.597 427.909 827.716 428.82C831.412 430.39 834.293 433.422 835.673 437.193C837.722 442.684 836.641 448.063 834.275 453.175C830.092 450.575 827.622 450.226 822.879 450.533C818.707 451.641 817.139 452.607 813.815 455.213C810.916 448.569 804.095 443.511 809.249 435.542C812.467 430.568 815.486 429.025 820.996 427.566Z"/><path fill="#FB7A7B" transform="scale(0.390625 0.390625)" d="M397.788 777.979C401.169 777.951 410.394 782.551 412.568 784.807C406.976 791.024 415.569 797.408 420.318 801.068C424.096 803.981 428.549 805.527 433.069 806.892C431.938 808.567 430.41 811.128 428.912 812.332C418.117 810.667 372.115 789.477 397.788 777.979Z"/><path fill="#FB7A7B" transform="scale(0.390625 0.390625)" d="M154.925 604.961C156.189 606.643 155.482 621.685 155.523 625.182C154.855 625.693 154.18 626.194 153.499 626.686C146.265 631.825 139.239 631.478 131.105 630.149L130 629.507C129.259 627.2 129.535 616.135 129.564 612.91C140.202 613.209 145.779 609.838 154.925 604.961Z"/><path fill="#FDECCC" transform="scale(0.390625 0.390625)" d="M765.955 429.612C775.802 429.896 779.477 435.954 781.346 444.622C780.482 447.544 779.314 450.144 778.128 452.945C773.997 450.76 772.593 450.562 768.124 450.188C763.086 450.078 762.075 450.586 757.721 452.759L753.706 450.885C751.988 439.333 753.524 432.559 765.955 429.612Z"/><path fill="#FB7A7B" transform="scale(0.390625 0.390625)" d="M506.39 403.081C506.842 405.467 506.55 421.25 506.517 424.786C497.549 426.246 490.282 426.544 482.524 421.048C479.2 417.454 478.528 411.082 477.711 406.292C489.958 408.209 494.992 406.996 506.39 403.081Z"/><path fill="#FDF2E9" transform="scale(0.390625 0.390625)" d="M828.634 471.074C831.366 470.788 832.746 471.108 835.409 471.523C836.137 472.397 836.854 473.28 837.559 474.172C842.979 481.048 843.361 485.532 842.376 493.756C839.394 496.173 838.254 497.504 834.354 497.524C830.618 496.392 820.614 491.609 819.288 487.913C816.56 480.313 822.371 473.925 828.634 471.074Z"/><path fill="#FDECCC" transform="scale(0.390625 0.390625)" d="M806.298 397.072C819.247 395.885 820.328 404.625 826.691 407.796C825.817 410.153 825.133 412.512 824.404 414.915C818.914 414.989 816.795 415.942 812.518 418.93L810.861 421.408C809.538 420.802 809.219 420.136 808.254 418.894C803.96 413.367 800.268 411.845 793.55 411.178C795.765 402.87 798.224 399.84 806.298 397.072Z"/><path fill="#FDF2E9" transform="scale(0.390625 0.390625)" d="M789.953 414.638C800.029 413.813 806.795 419.703 809.553 429.149L805.524 437.322C802.219 434.836 800.858 434.064 796.832 433.211C790.554 433.215 788.351 434.588 783.077 437.648C779.655 431.776 783.2 435.245 783.219 431.2C782.453 430.377 781.77 429.93 780.828 429.321C778.416 421.973 783.688 417.213 789.953 414.638Z"/><path fill="#FDF2E9" transform="scale(0.390625 0.390625)" d="M879.057 446.563C889.486 445.784 891.818 450.563 894.363 459.78C889.619 462.587 883.825 466.737 878.915 469.831L872.523 473.907C872.227 466.383 871.79 462.539 866.647 456.801C868.505 453.487 869.343 451.779 871.888 448.952C874.233 448.042 876.656 447.321 879.057 446.563Z"/><path fill="#FDECCC" transform="scale(0.390625 0.390625)" d="M862.778 421.539C875.842 420.827 878.852 431.623 874.052 441.923C872.588 445.065 870.786 446.24 868.21 448.418C866.57 444.964 865.874 443.746 863.703 440.602C857.048 433.249 852.437 434.557 843.733 436.986C850.919 430.723 854.093 424.69 862.778 421.539Z"/><path fill="#FB6572" transform="scale(0.390625 0.390625)" d="M583.762 663.946C592.942 655.856 602.565 654.017 611.924 664.656C623.294 677.582 619.854 700.251 611.216 713.722C610.037 715.561 604.534 719.811 602.383 722.433L601.975 721.885C607.111 713.324 610.072 708.464 613.876 697.768C618.769 684.008 616.168 660.658 596.055 664.399C589.685 665.584 583.385 674.31 580.206 680.43C580.782 674.204 581.639 669.898 583.762 663.946Z"/><path fill="#FDECCC" transform="scale(0.390625 0.390625)" d="M641.322 638.023L641.781 638.442C643.477 644.045 643.343 648.35 637.737 651.604C625.62 658.639 614.409 652.231 602.322 649.361L598.048 648.764L596.475 642.298C612.531 648.053 626.219 644.292 641.322 638.023Z"/><path fill="#FDECCC" transform="scale(0.390625 0.390625)" d="M607.576 588.956C622.033 589.87 617.566 610.656 607.008 617.279C592.844 619.661 598.909 593.976 607.576 588.956Z"/><path fill="#FDF2E9" transform="scale(0.390625 0.390625)" d="M823.361 453.552C830.736 453.209 835.125 458.064 837.657 465.103C838.067 466.242 837.374 467.144 836.759 468.021C832.997 470.09 826.955 463.801 818.733 474.28L818.367 474.756C817.275 476.786 816.736 478.794 816.027 480.988C812.898 478.205 811.427 477.389 807.831 475.567C813.329 469.989 814.969 467.297 814.16 459.603C817.221 455.922 818.824 454.863 823.361 453.552Z"/><path fill="#FDECCC" transform="scale(0.390625 0.390625)" d="M848.356 438.638C855.796 438.349 860.265 439.208 863.877 446.575C864.847 448.553 866.29 453.04 865.195 455.032C859.25 452.189 857.331 451.161 850.468 452.898L849.855 453.059C844.719 455.326 843.227 457.109 839.746 461.201L836.754 455.434C841.946 446.204 837.03 440.643 848.356 438.638Z"/><path fill="#FCD7BB" transform="scale(0.390625 0.390625)" d="M542.978 718.78C537.688 718.448 518.923 714.69 513.573 712.08C512.336 711.477 509.661 706.354 509.636 704.279L510.716 703.497C508.66 702.224 505.737 699.575 506.276 696.884L507.184 696.39C511.728 696.928 520.02 704.366 524.835 706.933C525.668 705.867 525.505 706.004 526.074 704.727C524.995 703.781 525.099 704.255 524.967 703.262C526.548 703.224 527.119 703.318 528.53 702.452C528.865 704.167 528.746 704.262 530.034 705.503L531.3 705.437C531.746 704.826 532.202 704.222 532.669 703.627C534.111 704.662 534.605 704.885 536.276 705.523C537.634 707.233 542.171 716.525 542.978 718.78Z"/><path fill="#1E0F60" transform="scale(0.390625 0.390625)" d="M526.074 704.727C528.385 705.338 530.888 706.259 532.58 707.986L532.589 708.742C530.307 709.487 527.11 707.851 524.835 706.933C525.668 705.867 525.505 706.004 526.074 704.727Z"/><path fill="#FDECCC" transform="scale(0.390625 0.390625)" d="M767.485 411.605C773.783 412.159 775.186 413.935 777.989 419.29C777.346 423.076 777.479 426.474 777.489 430.306C773.702 428.098 770.336 426.567 765.907 426.699C760.911 427.616 758.886 428.566 754.531 430.926C754.165 420.619 756.301 413.737 767.485 411.605Z"/><path fill="#FDF2E9" transform="scale(0.390625 0.390625)" d="M882.155 634.981L882.627 635.069C882.752 636.618 881.215 652.342 881 655.556C876.647 658.909 873.429 661.253 868.803 664.279L868.213 664.199C868.14 661.428 871.693 644.515 872.369 641.144C875.441 639.078 878.989 636.964 882.155 634.981Z"/><path fill="#FB7A7B" transform="scale(0.390625 0.390625)" d="M390.073 776.009C391.644 775.915 392.14 775.81 393.704 776.195C393.777 777.26 387.263 781.122 386.801 784.051C384.405 799.252 415.768 812.012 425.949 815.4C423.954 816.356 423.522 816.737 420.946 815.939C408.43 811.788 392.563 804.106 385.525 792.418C381.218 785.265 383.145 779.9 390.073 776.009Z"/><defs><linearGradient id="gradient_2" gradientUnits="userSpaceOnUse" x1="513.96716" y1="705.24359" x2="526.83539" y2="730.84216"><stop offset="0" stop-color="#F78A82"/><stop offset="1" stop-color="#FFB49F"/></linearGradient></defs><path fill="url(#gradient_2)" transform="scale(0.390625 0.390625)" d="M500.554 708.573C503.245 708.626 505.057 708.463 507.58 709.399C507.186 713.583 512.031 715.931 515.467 716.607C522.538 717.998 528.858 719.226 535.693 721.539C533.547 725.403 532.439 727.732 530.755 731.822C524.109 726.662 519.286 719.715 511.769 718.869C508.933 715.654 504.394 709.44 500.554 708.573Z"/><path fill="#FB7A7B" transform="scale(0.390625 0.390625)" d="M885.992 614.007C886.729 614.742 885.476 626.774 885.426 628.726C882.265 630.482 877.344 633.971 874.192 636.062C873.162 634.382 875.578 623.28 876.065 620.534C879.412 618.189 882.529 616.183 885.992 614.007Z"/><path fill="#FB6572" transform="scale(0.390625 0.390625)" d="M686.619 779.926L687.228 780.258C686.121 785.33 685.742 792.48 683.435 796.391C681.724 797.342 681.922 796.935 679.432 796.517C678.594 796.077 678.631 796.037 677.892 795.423C677.544 793.141 679.073 787.478 679.608 784.819C682.343 783.275 684.134 781.835 686.619 779.926Z"/><path fill="#FB6572" transform="scale(0.390625 0.390625)" d="M594.986 833.022L595.353 833.434C595.363 836.171 593.529 845.585 592.657 848.248C591.03 848.866 589.371 848.333 587.602 848.008L586.879 847.669C586.129 845.932 587.868 838.945 588.313 836.775C590.558 835.727 592.838 834.291 594.986 833.022Z"/><path fill="#FDECCC" transform="scale(0.390625 0.390625)" d="M762.084 453.736C768.512 452.897 771.645 453.071 777.06 456.572C777.104 459.177 777.178 460.889 776.868 463.5L776.182 463.854C773.542 462.192 761.854 456.021 760.868 454.362L762.084 453.736Z"/><path fill="#FB6572" transform="scale(0.390625 0.390625)" d="M780.962 721.612C781.587 723.184 778.661 735.705 777.806 737.732L774.64 737.112C774.043 736.697 773.792 736.431 773.257 735.94C772.944 733.39 774.576 726.116 775.116 723.371L780.962 721.612Z"/><path fill="#FB6572" transform="scale(0.390625 0.390625)" d="M585.24 851.766L591.953 852.776C591.259 856.065 591.033 858.26 590.697 861.593L587.584 863.587L582.021 867.126C583.421 861.408 584.451 857.667 585.24 851.766Z"/><path fill="#FDECCC" transform="scale(0.390625 0.390625)" d="M792.648 436.596C797.717 436.345 801.192 437.134 804.182 441.548L803.949 442.332C802.317 442.618 798.736 441.489 795.933 441.289L795.234 441.243C791.397 441.717 789.57 442.47 785.927 443.752L785.386 443.373L785.076 441.07C786.451 438.337 789.583 437.753 792.648 436.596Z"/><path fill="#FDECCC" transform="scale(0.390625 0.390625)" d="M889.309 444.59C894.516 448.48 901.766 453.676 905.701 458.676C903.691 460.559 902.395 461.864 900.057 463.391C899.471 462.04 899.586 461.956 899.58 460.447C896.597 454.889 893.162 449.585 889.309 444.59Z"/><defs><linearGradient id="gradient_3" gradientUnits="userSpaceOnUse" x1="594.40082" y1="741.57544" x2="597.91205" y2="722.91882"><stop offset="0" stop-color="#FF626A"/><stop offset="1" stop-color="#E76586"/></linearGradient></defs><path fill="url(#gradient_3)" transform="scale(0.390625 0.390625)" d="M601.975 721.885L602.383 722.433C599.764 727.05 597.526 737.329 595.171 743.563C593.653 742.604 591.689 741.557 590.098 740.649C593.95 734.328 597.91 728.072 601.975 721.885Z"/><path fill="#FB6572" transform="scale(0.390625 0.390625)" d="M772.026 739.794C773.831 740.489 775.771 740.814 777.671 741.213C777.395 742.664 777.108 744.113 776.811 745.56C776.111 748.905 775.62 749.329 772.765 751.163L769.453 753.104L772.026 739.794Z"/><path fill="#FB6572" transform="scale(0.390625 0.390625)" d="M676.505 799.323L682.822 800.897C682.031 804.062 681.995 806.044 679.266 807.74L674.685 810.728C674.993 807.137 675.857 802.93 676.505 799.323Z"/><path fill="#FDECCC" transform="scale(0.390625 0.390625)" d="M750.143 437.941L750.728 438.272C750.352 442.165 750.214 444.829 750.188 448.74L745.689 446.187L741.773 443.622L750.143 437.941Z"/><path fill="#FDECCC" transform="scale(0.390625 0.390625)" d="M142.005 355.499C143.05 356.616 142.938 363.506 142.995 365.562L138.723 363.039L133.928 360.229C136.45 358.646 139.404 357.015 142.005 355.499Z"/><path fill="#FB7A7B" transform="scale(0.390625 0.390625)" d="M497.134 709.176C500.097 708.078 502.953 706.587 505.934 706.612C507.426 707.465 506.943 707.155 507.58 709.399C505.057 708.463 503.245 708.626 500.554 708.573C501.256 712.581 505.32 715.047 506.925 718.854L506.376 719.179C502.592 717.914 499.978 712.466 497.134 709.176Z"/><path fill="#FDF2E9" transform="scale(0.390625 0.390625)" d="M583.941 659.803C586.348 654.82 586.433 652.493 592.341 652.591C594.212 652.858 595.899 652.869 597.464 653.743C591.3 654.813 588.708 656.248 583.941 659.803Z"/><path fill="#FDECCC" transform="scale(0.390625 0.390625)" d="M879.354 437.754C881.599 438.981 885.371 441.121 886.751 443.299L886.138 443.749C882.749 442.787 879.474 443.547 878.155 442.713C877.772 441.178 878.745 439.337 879.354 437.754Z"/><path fill="#FDECCC" transform="scale(0.390625 0.390625)" d="M812.456 485.382C808.417 483.283 806.239 482.719 803.714 479.016L804.536 478.114C808.073 478.712 808.702 479.849 811.189 482.356L812.456 485.382Z"/><path fill="#FDF2E9" transform="scale(0.390625 0.390625)" d="M811.189 482.356C813.436 482.062 812.737 481.853 814.629 482.652C815.675 484.034 815.629 483.918 815.826 485.641L815.178 486.821C813.704 486.773 813.89 486.513 812.456 485.382L811.189 482.356Z"/><path fill="#FDBDB1" transform="scale(0.390625 0.390625)" d="M592.341 652.591C598.053 652.418 599.886 652.201 605.454 653.843L604.955 655.103C602.241 654.215 600.276 654.087 597.464 653.743C595.899 652.869 594.212 652.858 592.341 652.591Z"/><path fill="#FCD7BB" transform="scale(0.390625 0.390625)" d="M772.874 621.007C776.249 621.056 781.494 623.2 783.428 626.073C780.862 625.973 775.246 622.374 772.874 621.007Z"/></svg>