<?xml version="1.0" encoding="utf-8" ?><svg xmlns="http://www.w3.org/2000/svg" xmlns:xlink="http://www.w3.org/1999/xlink" width="400" height="400" viewBox="0 0 400 400"><path fill="#FCFAF4" transform="scale(0.390625 0.390625)" d="M0 0L1024 0L1024 1024L0 1024L0 0Z"/><path fill="#471248" transform="scale(0.390625 0.390625)" d="M101.783 222.946C97.2995 220.444 93.8521 217.382 89.72 214.288C65.1158 195.862 40.785 171.246 51.0539 137.892C54.1176 128.536 61.5265 117.688 69.0992 111.329C79.9947 102.18 81.5832 92.9734 88.3456 81.5417C98.9932 63.5417 117.524 47.3882 136.397 38.359C158.266 27.8966 184.43 34.1506 206.688 39.8989C228.122 44.7963 247.906 48.9768 268.702 56.8516C297.607 67.7968 335.312 79.7468 351.261 108.374C354.445 114.089 355.005 124.74 352.561 130.513C348.211 141.741 338.28 150.707 329.424 158.46C324.811 162.498 323.858 165.208 317.757 168.065C316.394 177.051 315.908 181.244 316.616 190.346C325.015 204.649 347.803 195.823 344.456 217.729C341.767 235.33 336.016 252.531 325.709 267.257C322.279 272.157 316.379 276.795 311.854 280.68C298.744 291.037 282.087 295.667 265.518 295.268C263.499 295.219 256.26 293.769 253.521 293.4L253.246 294.287C253.512 294.709 254.899 296.961 254.915 297.203C255.186 301.38 254.766 307.342 254.792 311.579C255.984 311.405 259.971 310.714 260.815 311.528C267.709 318.17 272.237 329.482 276.388 337.995C278.676 342.686 279.121 348.997 280.834 353.596C291.218 381.475 297.039 410.715 301.541 440.032C302.73 447.795 303.823 451.321 308.303 457.937C318.262 472.649 325.556 489.059 334.311 504.481C335.299 506.222 336.35 507.568 337.876 508.868C342.353 508.949 351.974 496.181 355.256 493.084C357.314 491.142 362.519 490.497 365.191 489.381C371.909 480.469 380.322 449.668 379.92 438.921C379.669 432.199 323.29 420.655 320.275 416.352C318.978 411.311 323.754 402.858 323.916 397.818C324.096 392.214 323.721 386.901 323.987 381.04C324.559 368.426 326.781 355.925 329.589 343.666C330.513 339.631 333.128 330.225 336.921 328.376C339.182 327.274 341.533 326.539 343.981 325.042C345.22 323.144 346.43 304.28 347.179 300.593C351.603 278.803 355.709 260.668 370.198 243.097C372.678 240.09 375.875 237.04 378.263 233.661C387.95 219.952 396.514 204.271 410.765 194.672C421.903 187.759 436.291 179.694 425.128 200.848C427.176 198.659 428.321 197.052 431.515 196.975C438.937 196.795 435.632 194.151 438.294 192.111C440.553 192.002 442.83 192.613 445.075 193.068C447.084 190.303 447.838 189.333 450.273 186.934C454.817 190.209 459.259 190.802 463.652 193.359C476.472 200.825 489.678 207.69 502.366 215.339C508.86 207.704 550.753 159.129 559.098 162.05C561.795 163.897 566.031 166.041 569.226 166.737C573.073 168.346 573.722 168.886 577.159 171.169C573.435 190.273 564.756 247.628 583.353 259.511C578.725 268.161 574.988 276.438 570.692 285.158C562.667 301.128 554.753 317.154 546.948 333.233C526.567 374.338 504.698 415.562 482.824 455.917C479.48 462.085 475.978 467.534 472.156 473.389C462.696 470.897 459.037 467.63 450.598 463.087C438.595 483.457 423.186 499.084 406.579 515.653L406.723 515.51C405.17 523.732 400.441 539.706 396.372 547.146C398.931 555.575 396.273 569.457 394.136 577.873C426.816 536.454 492.124 459.502 541.263 438.552C547.239 436.005 553.585 434.497 560.026 433.739C570.359 432.523 584.912 433.85 593.446 440.43C598.891 444.629 602.311 451.938 607.557 455.712C614.142 460.448 626.195 463.912 634.346 468.891C673.328 492.703 712.903 516.516 749.578 543.81L749.994 543.643C749.285 541.269 749.215 542.36 749.822 540.251C751.075 539.097 752.268 538.478 754.034 538.64C757.803 538.984 786.351 565.458 788.911 569.41C791.238 573.002 789.283 579.793 788.256 583.621C786.867 588.792 785.532 594.068 783.981 599.189C802.906 610.103 820.592 621.627 840.771 629.802C846.343 621.423 850.163 622.224 856.484 616.304C853.432 612.799 847.759 607.199 847.862 602.368C847.954 598.058 852.819 596.424 856.387 597.446C862.93 599.281 864.251 604.495 865.224 610.264C867.406 608.313 881.717 598.329 884.174 597.316C888.965 599.226 888.666 599.363 890.953 603.976C900.95 596.028 911.872 588.24 921.519 579.897C935.341 567.375 945.709 553.085 963.285 545.27C1009.96 524.43 990.714 593.338 981.775 613.035C962.544 655.406 936.626 696.59 906.255 731.869C899.652 739.539 881.032 760.768 870.374 753.88C844.826 737.367 822.992 716.43 811.355 687.859C810.175 685.135 760.542 654.351 753.604 647.387C749.849 650.61 745.105 653.99 739.874 653.496C731.661 652.72 688.821 624.407 680.85 618.11C686.941 630.622 692.053 643.138 697.614 655.852C700.34 662.083 704.499 672.012 707.903 677.711C711.228 677.53 716.737 676.845 719.351 679.403C721.803 681.802 738.694 724.752 738.526 727.894C738.114 735.583 724.32 741.528 719.862 746.852C726.046 757.874 731.564 770.128 736.938 781.615C744.414 797.782 752.108 813.846 760.02 829.803C765.551 824.296 765.478 823.836 772.657 821.112C775.021 821.576 777.51 821.968 779.681 823.039C788.215 827.248 789.825 838.365 787.935 846.81C787.681 847.929 787.408 849.043 787.115 850.153C790.789 846.08 790.82 845.64 793.313 840.851C796.469 834.787 797.767 822.55 805.496 821.407C806.242 821.297 809.624 821.483 810.463 821.53C812.767 823.257 813.553 823.718 815.275 826.121L815.434 826.339C815.48 827.341 815.666 831.504 815.483 832.353C813.435 841.841 806.206 851.188 799.902 858.221C796.855 861.62 793.024 864.97 789.801 867.747C801.22 868.916 810.386 871.343 820.667 876.765C824.704 878.895 829.256 880.858 832.113 884.546C836.06 889.536 834.374 895.957 826.834 894.215L826.058 893.496L826.107 892.65C826.668 892.459 827.337 892.215 827.897 892.05L827.539 891.113C824.515 890.199 820.825 888.552 817.817 887.356C806.366 882.801 795.227 878.977 783.266 875.997C792.076 882.929 801.788 893.831 810.286 901.604C813.883 905.48 819.033 908.559 822.79 912.124C833.73 922.502 844.758 931.121 858.141 938.232C863.152 941.416 868.755 945.631 872.579 950.098C884.444 963.962 893.662 981.113 869.95 988.775C855.634 993.402 850.951 995.499 835.009 994.253C805.747 992.166 777.502 982.641 752.952 966.58C740.264 958.316 727.07 948.888 713.935 941.087C703.032 934.611 683.487 927.627 674.833 918.339C668.953 912.027 668.884 890.04 669.932 882.065C672.083 865.688 675.739 834.687 688.975 823.781C686.849 818.851 685.103 812.878 682.8 808.16C676.643 795.542 671.583 781.863 665.598 769.296C655.067 770.73 643.18 770.438 633.293 773.285C626.767 764.419 610.198 737.675 608.801 727.164C610.463 726.672 612.474 726.215 614.182 725.779C609.93 717.165 605.478 709.052 600.803 700.672C590.597 682.38 583.013 661.72 573.259 643.378C568.521 653.725 558.752 671.439 553.09 681.875C542.541 700.997 531.087 719.606 518.766 737.638C493.275 775.323 466.252 810.787 420.248 825.259C388.276 835.317 349.491 827.359 320.424 811.316C312.58 807.031 305.177 801.984 298.323 796.247C281.62 782.328 254.814 752.814 248.767 731.824C239.043 735.042 215.947 739.797 206.009 736.836C196.787 734.088 189.42 718.692 185.545 710.328C175.81 709.234 166.899 707.684 158.44 702.304C141.226 691.206 131.927 668.044 127.604 648.745C110.066 570.449 99.0634 486.367 115.521 406.957C121.08 380.135 125.99 362.854 140.135 338.98C137.484 336.736 136.582 335.324 134.747 332.53C132.696 334.141 129.723 335.709 127.222 336.458C100.128 344.509 67.3278 331.785 51.914 308.191C49.7392 304.862 47.8628 294.102 46.778 292.885C45.3799 299.041 47.0464 309.423 45.9755 313.698C42.2162 313.449 39.4306 307.959 37.6962 304.934C30.8798 293.047 26.0738 277.168 29.8329 263.637C33.0142 250.747 37.9838 244.716 48.2455 237.008C62.3414 226.42 83.8086 217.744 101.783 222.946Z"/><path fill="#FCFAF4" transform="scale(0.390625 0.390625)" d="M559.098 162.05C561.795 163.897 566.031 166.041 569.226 166.737C567.913 167.167 566.642 167.553 565.358 168.066C564.67 168.901 564.039 169.78 563.47 170.699C554.551 185.264 552.925 220.33 557.023 237.266L557.229 238.099L556.711 237.919C554.532 232.989 554.259 229.388 553.254 224.236C549.4 204.485 551.865 182.959 558.59 163.962L559.098 162.05Z"/><path fill="#401646" transform="scale(0.390625 0.390625)" d="M559.098 162.05C561.795 163.897 566.031 166.041 569.226 166.737C567.913 167.167 566.642 167.553 565.358 168.066C563.057 166.514 561.137 165.082 558.59 163.962L559.098 162.05Z"/><path fill="#FCFAF4" transform="scale(0.390625 0.390625)" d="M783.339 872.378C792.752 872.264 828.048 879.294 830.338 888.923C829.82 890.772 829.779 890.678 827.897 892.05L827.539 891.113C827.103 881.364 791.754 874.947 783.339 872.378Z"/><path fill="#CB6B6D" transform="scale(0.390625 0.390625)" d="M561.774 440.586C569.778 440.392 577.846 440.67 584.971 444.775C603.802 455.625 611.127 479.579 619.93 497.869C627.088 512.74 632.772 527.544 639.143 542.366L662.739 596.327L690.486 658.062C694.972 668.075 700.466 678.175 703.682 688.551C687.964 702.265 671.964 708.548 652.864 716.443C642.216 693.918 630.741 671.509 620.106 648.957C614.279 636.431 608.662 623.808 603.257 611.094C593.185 588.025 584.375 568.012 578.867 543.249C577.48 537.009 570.762 530.936 568.449 522.47C569.69 519.261 576.463 509.587 574.306 506.99C573.472 507.127 573.758 507.005 572.925 507.524C558.709 516.387 552.175 555.056 548.84 570.921C547.377 558.827 548.196 546.628 549.766 534.564C550.814 526.51 557.807 503.235 556.657 496.406L555.75 495.841C554.861 496.296 550.463 503.221 549.12 504.951C518.301 545.144 488.606 586.186 460.07 628.031C445.23 649.398 430.646 670.963 414.685 691.558C401.685 708.333 388.08 726.996 367.935 735.629C364.947 736.91 354.343 741.299 354.068 744.037C355.171 744.619 354.967 744.598 356.273 744.293C391.353 736.08 412.407 702.846 432.941 675.325C458.033 641.695 481.204 605.436 506.006 571.193L528.114 540.596C534.54 531.573 540.958 522.046 548.019 513.55C546.924 519.032 544.62 525.334 543.551 530.854C542.045 538.624 540.658 558.192 542.021 565.703C543.617 572.277 548.097 579.364 550.077 585.415C554.239 598.138 558.729 610.299 563.961 622.613C565.804 626.951 566.956 631.752 569.656 635.613C561.237 649.536 553.89 663.31 545.744 677.329C538.305 689.896 530.582 702.292 522.582 714.51C495.212 757.095 461.116 807.756 408.134 818.96C405.992 819.413 401.514 819.852 399.54 819.328C358.005 808.309 323.718 779.889 294.95 749.001C288.142 741.638 280.45 728.942 274.247 720.611C277.855 718.112 281.847 714.851 285.328 712.114C290.13 717.358 308.925 738.659 313.951 740.685L314.337 740.173C312.117 733.996 293.322 714.896 288.217 709.467C295.198 703 307.468 689.07 310.649 680.317C313.644 679.241 316.895 677.852 319.873 676.647C319.705 681.705 318.885 685.704 318.643 691.749C317.873 710.975 315.119 735.615 319.928 754.099C320.762 757.304 333.244 772.037 335.583 773.726C337.592 772.455 339.628 771.021 341.6 769.678C340.026 758.489 339.736 745.775 339.552 734.443C339.168 710.817 339.752 686.964 340.055 663.31C350.498 654.248 370.141 632.24 376.811 620.305C379.952 614.588 382.984 608.811 385.903 602.978C386.901 600.957 390.462 593.295 391.596 591.719C397.473 583.559 404.674 575.664 411.28 567.788C447.476 524.633 485.953 479.423 534.295 449.536C542.698 444.341 552.39 442.715 561.774 440.586Z"/><path fill="#FCFAF4" transform="scale(0.390625 0.390625)" d="M263.313 670.828C257.643 674.035 251.789 679.015 246.348 682.281C230.263 691.936 213.984 702.128 194.761 702.815C182.313 703.586 166.35 702.26 156.834 693.107C140.106 677.017 134.888 648.472 130.718 626.512C127.09 608.265 124.245 589.87 122.193 571.379C113.593 500.328 111.195 422.601 138.879 355.031C140.676 350.645 142.864 345.318 146.033 341.827C150.481 343.575 153.275 344.552 157.907 345.854C156.561 354.978 156.679 383.06 161.67 390.773L162.387 390.743C164.347 386.211 160.769 354.974 160.324 347.248C168.155 350.774 177.183 353.584 184.929 357.056C196.665 362.316 210.724 373.284 219.354 382.921C215.617 385.88 214.099 386.884 211.823 391.203L211.779 392.884C205.512 390.2 177.34 376.231 171.878 376.78C173.577 381.639 205.337 394.974 211.933 397.604C216.578 399.455 223.598 399.521 227.566 401.28C229.323 400.621 229.736 400.569 231.147 399.263L233.782 398.704C234.5 399.172 235.454 399.977 236.104 400.557C248.025 411.252 260.414 423.702 269.85 436.703C272.405 440.224 275.382 456.853 276.8 461.651C284.359 487.238 287.721 515.388 295.254 540.755C291.926 533.525 287.949 529.37 283.709 523.345C279.463 517.312 264.028 495.803 263.642 490.094L262.287 488.949C263.657 486.635 264.556 485.02 266.288 482.917L266.859 482.206C268.695 483.701 275.03 487.854 277.229 487.362C276.433 485.695 271.179 480.085 269.734 478.277C261.336 467.768 252.131 458.017 243.293 447.9C238.824 442.783 235.018 437.5 230.28 432.522C223.216 424.994 215.687 417.915 207.739 411.327C196.107 401.866 175.548 384.484 163.393 402.625C155.851 413.881 155.299 432.098 153.665 445.391C153.205 449.135 154.431 455.617 154.875 459.443C159.389 483.182 167.067 505.908 175.292 528.471C189.747 568.128 205.707 607.566 232.77 640.49C243.105 653.064 249.735 661.23 263.313 670.828Z"/><path fill="#401646" transform="scale(0.390625 0.390625)" d="M266.288 482.917C267.612 486.647 266.186 487.38 263.642 490.094L262.287 488.949C263.657 486.635 264.556 485.02 266.288 482.917Z"/><path fill="#491744" transform="scale(0.390625 0.390625)" d="M218.563 633.736C218.79 633.922 219.01 634.083 219.182 634.332C221.077 637.072 215.453 681.408 214.486 687.659C214.16 689.762 212.901 690.444 211.299 691.639C206.834 686.052 215.969 641.711 218.563 633.736Z"/><path fill="#491744" transform="scale(0.390625 0.390625)" d="M152.347 645.823C152.962 645.935 153.999 646.217 154.351 646.724C158.635 652.881 186.202 680.857 186.334 686.576C185.989 686.614 184.554 686.734 184.351 686.589C177.146 681.423 151.185 653.538 152.347 645.823Z"/><path fill="#491744" transform="scale(0.390625 0.390625)" d="M151.962 479.256L153.058 479.585L153.19 480.258C151.15 486.751 131.436 520.84 126.377 526.063L125.404 525.724L125.184 524.802C127.915 515.867 144.634 484.604 151.962 479.256Z"/><path fill="#471248" transform="scale(0.390625 0.390625)" d="M232.492 404.738C237.062 407.36 239.73 423.766 240.899 429.429C249.155 433.634 266.782 436.275 270.63 442.98C262.049 442.969 245.765 436.74 238.256 432.399C236.024 425.831 233.473 411.721 232.492 404.738Z"/><path fill="#491744" transform="scale(0.390625 0.390625)" d="M166.112 584.265C167.029 584.454 166.887 584.452 167.749 584.859C167.764 589.351 152.251 612.36 149.482 617.4C147.517 620.979 146.201 623.564 144.503 627.777C143.303 626.628 143.235 626.696 142.559 625.216C142.519 613.519 159.524 593.878 166.112 584.265Z"/><path fill="#491744" transform="scale(0.390625 0.390625)" d="M132.285 542.108C135.879 542.367 138.606 545.421 141.24 547.828C150.869 556.628 163.121 562.242 169.941 573.765C166.668 573.15 161.596 569.094 158.692 567.025C150.656 561.298 135.574 551.872 132.285 542.108Z"/><path fill="#491744" transform="scale(0.390625 0.390625)" d="M157.154 387.341L158.059 387.646C158.04 389.459 148.773 397.764 146.838 399.805C138.486 408.676 130.515 417.899 122.947 427.448C122.722 427.408 122.029 427.021 121.788 426.899L121.491 425.984C130.696 412.802 142.809 395.55 157.154 387.341Z"/><path fill="#471248" transform="scale(0.390625 0.390625)" d="M120.662 438.876C121.359 438.916 122.844 439.015 123.426 439.572C131.775 447.571 139.613 456.383 147.931 464.516C148.77 465.336 149.068 466.561 149.269 467.463C142.197 468.32 122.653 445.164 120.662 438.876Z"/><path fill="#FCFAF4" transform="scale(0.390625 0.390625)" d="M289.505 83.1696C294.738 85.1736 299.995 93.3881 303.459 97.6246C307.908 103.065 309.969 109.029 312.794 115.175C321.338 133.508 315.47 152.344 312.996 171.324C311.004 186.611 310.138 200.739 328.857 204.911C331.16 205.424 333.575 205.89 335.738 207.014C340.75 209.619 339.363 214.722 338.896 219.288C336.505 235.271 328.725 250.441 320.162 264.013C315.459 262.698 310.569 261.392 306.049 259.532C303.274 258.39 297.482 252.837 294.758 253.536C293.763 258.96 312.778 265.373 317.687 266.486C287.609 298.272 251.97 292.165 215.474 273.885C213.7 272.996 214.098 272.113 211.98 273.265L211.771 274.304C216.442 289.779 231.024 317.958 240.673 331.169C240.432 331.233 240.191 331.297 239.95 331.362C232.65 333.762 213.979 330.323 208.068 325.765C200.016 319.556 193.475 314.499 184.276 308.959C183.748 308.812 182.773 308.576 182.226 308.337C181.968 308.125 181.71 307.913 181.452 307.7C182.191 305.996 183.963 301.947 184.571 300.506C190.938 285.427 199.946 261.265 197.36 245.172C201.309 243.945 209.804 241.528 209.05 236.246C206.597 234.395 205.338 236.271 202.672 237.338C199.2 238.724 195.533 239.561 191.804 239.818C181.785 240.446 172.678 237.897 163.841 230.633C147.168 216.928 144.717 171.615 172.217 169.358C185.666 168.254 200.904 190.644 208.108 199.805C208.98 200.913 210.316 201.199 211.745 201.165C214.328 196.125 216.081 188.343 217.948 182.748C220.288 175.732 222.859 169.581 225.772 162.764C242.755 157.58 253.143 149.173 264.081 135.839C262.857 142.025 258.457 151.398 260.531 155.533C265.604 158.421 275.968 142.826 279.283 139.054C283.68 134.049 287.138 126.722 289.891 120.627C302.436 120.754 306.587 130.618 310.852 131.747L311.47 131.007C311.224 128.15 309.219 124.951 307.189 123.048C301.655 117.86 298.29 116.535 291.218 116.435C293.423 101.763 292.637 97.8638 289.505 83.1696Z"/><path fill="#491744" transform="scale(0.390625 0.390625)" d="M286.318 154.56C286.671 154.517 287.026 154.479 287.381 154.448C305.985 152.867 308.068 194.904 300.645 203.433C292.06 204.475 286.136 172.893 293.972 169.649C297.812 170.606 299.411 176.695 300.494 180.019L299.688 175.12C298.646 169.373 295.812 161.99 290.283 158.938C289.181 158.33 287.287 158.342 286.194 159.031C276.765 164.969 273.707 176.197 273.776 186.726C273.767 189.509 274.747 192.777 274.118 194.676C272.67 195.266 273.375 195.258 271.935 194.746C267.298 188.927 269.989 172.862 273.353 166.606C277.093 159.651 279.12 157.2 286.318 154.56Z"/><path fill="#F2EECC" transform="scale(0.390625 0.390625)" d="M277.073 232.494C272.248 230.958 266.618 229.054 264.675 223.801C263.871 221.647 264.024 219.252 265.097 217.218C268.785 210.052 278.159 208.296 285.014 212.006C293.401 216.573 290.422 226.338 283.704 230.73L283.262 230.71L282.367 230.543C280.754 231.315 278.788 231.905 277.073 232.494Z"/><path fill="#FCFAF4" transform="scale(0.390625 0.390625)" d="M277.073 232.494C272.248 230.958 266.618 229.054 264.675 223.801C263.871 221.647 264.024 219.252 265.097 217.218C268.785 210.052 278.159 208.296 285.014 212.006L282.106 211.72C281.186 212.657 278.748 215.363 277.574 215.421L278.652 213.182C276.468 214.346 268.128 222.745 266.021 225.007C266.826 226.391 267.109 226.948 268.854 227.332C271.618 229.649 272.462 230.357 276.041 230.548C277.561 229.751 277.796 229.31 279.291 229.335C280.322 229.751 281.32 230.165 282.367 230.543C280.754 231.315 278.788 231.905 277.073 232.494Z"/><path fill="#401646" transform="scale(0.390625 0.390625)" d="M277.073 232.494C272.248 230.958 266.618 229.054 264.675 223.801C263.871 221.647 264.024 219.252 265.097 217.218C268.785 210.052 278.159 208.296 285.014 212.006L282.106 211.72C273.89 209.704 263.256 215.083 266.021 225.007C266.826 226.391 267.109 226.948 268.854 227.332C271.618 229.649 272.462 230.357 276.041 230.548C277.561 229.751 277.796 229.31 279.291 229.335C280.322 229.751 281.32 230.165 282.367 230.543C280.754 231.315 278.788 231.905 277.073 232.494Z"/><path fill="#7B2F5D" transform="scale(0.390625 0.390625)" d="M282.106 211.72L285.014 212.006C293.401 216.573 290.422 226.338 283.704 230.73L283.262 230.71C285.416 225.659 288.314 221.807 287.893 216.627L287.855 215.293C286.643 214.301 286.247 213.765 284.695 213.655C277.755 216.415 274.41 222.318 268.854 227.332C267.109 226.948 266.826 226.391 266.021 225.007C268.128 222.745 276.468 214.346 278.652 213.182L277.574 215.421C278.748 215.363 281.186 212.657 282.106 211.72Z"/><path fill="#CB6B6D" transform="scale(0.390625 0.390625)" d="M276.041 230.548C277.073 225.995 281.379 219.976 284.558 216.505C285.922 215.017 286.148 215.306 287.855 215.293L287.893 216.627C288.314 221.807 285.416 225.659 283.262 230.71L282.367 230.543C281.32 230.165 280.322 229.751 279.291 229.335C277.796 229.31 277.561 229.751 276.041 230.548Z"/><path fill="#FCFAF4" transform="scale(0.390625 0.390625)" d="M287.893 216.627C288.314 221.807 285.416 225.659 283.262 230.71L282.367 230.543C281.32 230.165 280.322 229.751 279.291 229.335C281.263 227.566 286.213 219.313 287.893 216.627Z"/><path fill="#471248" transform="scale(0.390625 0.390625)" d="M169.936 182.033C179.468 182.33 187.282 190.573 192.749 197.692C194.154 199.521 195.466 201.306 195.465 203.69C194.377 205.256 190.604 201.43 186.933 203.72C183.813 205.666 177.889 206.351 177.379 211.267C179.507 218.23 188.318 214.858 192.448 218.32C192.327 219.818 191.975 219.741 190.818 221.161C188.078 222.588 184.878 222.133 181.909 221.693C175.052 219.356 168.921 214.58 174 206.624C177.234 201.558 182 200.527 187.514 199.448C184.05 195.814 175.865 187.173 170.096 188.096C166.376 188.691 165.412 194.621 163.753 197.701L162.987 197.895L162.435 197.011C161.799 190.275 163.684 185.102 169.936 182.033Z"/><path fill="#FCFAF4" transform="scale(0.390625 0.390625)" d="M430.695 199.26C437.897 201.407 455.983 211.972 463.548 215.835L527.22 248.066C531.405 250.24 535.643 252.311 539.929 254.278C541.477 254.988 547.269 257.138 547.579 258.494C548.145 260.969 546.446 264.995 545.367 267.276C532.806 293.819 519.554 319.974 505.917 345.979C488.379 381.347 472.026 417.749 454.841 453.428C455.186 450.022 457.466 437.865 458.577 434.777C461.163 427.588 463.893 421.831 465.414 413.89C466.451 408.481 464.281 404.773 464.596 400.604C465.313 396.593 467.364 392.352 467.323 388.261C467.292 385.033 464.869 377.915 462.652 375.664C464.59 369.203 465.213 365.13 464.335 358.429C457.976 348.278 446.044 354.717 437.577 358.696C414.042 369.755 391.659 391.93 383.465 416.842C382.113 421.411 381.655 425.294 381.301 429.998C370.426 425.935 335.705 413.925 325.717 413.425C327.243 408.439 328.768 403.438 330.544 398.535C334.573 387.415 369.798 316 376.015 310.506C382.597 304.689 400.765 297.64 409.292 293.625C421.542 301.333 431.085 304.722 443.794 310.935C454.84 316.335 465.761 322.248 476.947 327.542C481.797 329.837 496.31 335.835 499.794 338.473C504.384 330.719 509.249 321.928 512.932 313.727C514.305 310.669 497.929 304.135 495.014 302.734L455.494 283.86C450.75 281.62 421.526 269.565 423.133 262.767C424.701 261.739 426.611 261.691 428.511 261.442C429.57 260.547 431.045 256.719 431.738 255.186C424.425 246.568 415.975 239.52 405.093 236.389C409.072 231.579 412.886 225.101 416.351 219.82C420.996 212.873 425.778 206.018 430.695 199.26Z"/><path fill="#491744" transform="scale(0.390625 0.390625)" d="M471.189 233.674C498.759 243.133 480.534 250.408 482.737 255.442C485.785 255.55 495.131 247.89 499.758 246.05C502.373 247.791 504.403 248.749 507.195 250.115C501.126 260.539 497.369 267.693 492.144 278.681C488.634 277.184 485.739 275.581 482.379 273.763L484.413 270.303C487.465 265.364 489.984 261.269 493.459 256.596C485.997 261.053 480.642 265.772 472.617 269.476C472.524 266.316 472.468 253.055 471.887 251.101L471.162 250.966C468.538 253.408 464.771 260.471 462.795 263.923C460.79 262.93 457.466 261.622 456.652 259.635C457.64 255.677 468.372 239.169 471.189 233.674Z"/><path fill="#491744" transform="scale(0.390625 0.390625)" d="M432.625 216.71C441.719 219.614 438.675 226.185 438.677 234.686C441.256 231.627 446.057 227.151 449.035 224.13C452.83 225.377 456.768 226.868 460.542 228.228C457.384 237.974 454.6 247.837 452.197 257.796C448.536 256.543 446.409 255.405 443.443 253.005L447.065 243.612C448.186 240.749 450.851 235.133 449.249 232.473C445.302 232.848 439.634 245.512 433.926 247.248C429.148 246.285 430.337 237.652 430.674 234.008C428.412 238.018 424.706 247.661 418.768 240.225L418.986 239.113C422.986 236.648 430.333 221.176 432.625 216.71Z"/><path fill="#491744" transform="scale(0.390625 0.390625)" d="M515.849 255.575C519.384 256.852 522.434 258.997 525.601 261.027C524.423 271.494 523.177 279.376 521.183 289.783C518.343 289.406 515.602 289.156 512.752 288.894C513.303 285.464 514.025 281.696 514.073 278.257L513.451 277.674C511.833 277.317 511.185 277.049 509.537 277.354C507.541 278.584 506.117 281.283 504.565 283.231C500.351 282.192 499.34 281.8 495.527 280.015C499.079 275.275 502.532 271.347 506.599 267.074C509.524 264.001 514.696 259.565 515.849 255.575Z"/><path fill="#FCFAF4" transform="scale(0.390625 0.390625)" d="M515.873 265.897L516.515 266.983C516.477 269.621 516.432 270.853 513.877 271.933C513.083 271.218 513.241 271.34 512.622 270.446C512.946 268.518 514.465 267.344 515.873 265.897Z"/><path fill="#471248" transform="scale(0.390625 0.390625)" d="M431.6 324.5C434.45 324.368 436.802 323.962 437.837 327.104C437.525 329.174 437.479 329.087 436.323 330.892C435.302 330.94 434.28 330.842 433.287 330.602C431.493 330.183 431.225 329.571 430.469 328.29C430.39 326.327 430.611 326.151 431.6 324.5Z"/><path fill="#471248" transform="scale(0.390625 0.390625)" d="M426.39 336.729C428.484 337.059 428.98 337.05 430.308 338.352C430.741 340.159 430.161 341.148 429.534 342.92C427.651 342.355 427.269 342.215 426.075 340.707C425.532 338.841 425.77 338.546 426.39 336.729Z"/><path fill="#935D6F" transform="scale(0.390625 0.390625)" d="M120.797 233.019C111.662 227.267 105.517 219.706 97.5925 212.687C76.6195 194.112 50.8475 176.779 57.2361 144.58C60.5976 127.638 72.446 119.727 82.7396 107.152C86.4273 102.647 88.5489 94.2269 91.6115 89.1193C100.243 74.9022 114.939 59.4533 128.951 50.4629C151.489 36.0013 176.57 40.1815 200.908 45.3101C173.002 62.734 149.179 106.775 142.564 138.726C136.609 167.487 131.33 203.301 147.69 229.527C145.879 230.158 143.832 230.675 142.884 232.332L143.573 232.814C146.485 233 148.37 232.033 151.131 231.021C147.874 224.641 145.383 217.899 143.711 210.933C143.969 208.991 144.231 208.745 145.227 207.118C148.41 221.871 149.651 230.123 163.379 238.88C172.338 244.595 181.644 247.667 192.286 246.844C192.354 250.209 192.08 263.619 189.855 265.333C183.978 269.862 173.383 272.052 166.2 271.874C153.261 271.555 146.518 267.503 135.943 261.364C135.86 258.322 135.765 256.041 135.44 252.999C139.46 255.501 157.595 265.439 161.708 260.976C159.741 256.652 141.447 258.046 132.703 244.622C135.608 245.643 151.766 250.975 152.819 246.871C149.094 242.625 132.857 243.942 127.525 238.299C126.687 236.518 128.075 231.79 127.687 227.937C126.645 216.106 122.832 206.769 119.444 195.577C117.679 189.749 116.217 183.844 114.387 178.078C114.234 191.203 118.679 202.242 121.851 214.858C124.026 223.514 124.929 227.976 125.638 236.779C112.897 210.493 86.2067 192.48 78.6039 163.243C77.8169 160.216 76.1876 153.306 74.7453 150.915L74.2268 151.09C73.3477 155.282 74.5898 159.162 75.2548 163.242C79.0131 186.306 95.984 202.134 110.771 218.751C114.169 222.569 117.893 228.667 120.797 233.019Z"/><path fill="#471248" transform="scale(0.390625 0.390625)" d="M128.577 222.287C128.376 219.884 127.518 216.804 128.159 215.165C133.227 215.733 133.933 232.781 128.71 237.553L127.525 238.299C126.687 236.518 128.075 231.79 127.687 227.937C128.793 226.28 128.547 224.338 128.577 222.287Z"/><path fill="#7B2F5D" transform="scale(0.390625 0.390625)" d="M128.577 222.287C129.236 227.216 128.255 235.834 128.71 237.553L127.525 238.299C126.687 236.518 128.075 231.79 127.687 227.937C128.793 226.28 128.547 224.338 128.577 222.287Z"/><path fill="#935D6F" transform="scale(0.390625 0.390625)" d="M252.951 59.3556C254.136 59.5079 263.249 62.3554 265.269 63.0117C291.548 71.55 319.355 82.7085 339.556 102.141C344.656 107.419 348.215 115.911 347.589 123.305C346.366 137.724 331.164 151.835 320.937 160.69C324.158 146.279 325.923 130.323 320.727 115.732C315.227 100.289 301.035 84.385 286.523 76.5033C285.373 75.8785 283.734 75.4598 282.435 75.9438C282.379 77.9759 284.632 84.3571 285.302 86.9618C290.749 108.142 282.777 129.14 268.073 144.922L267.463 145.565C269.405 137.754 272.339 128.634 272.249 120.594C272.183 114.754 272.757 93.3934 267.204 90.1906L266.488 90.7469C264.545 95.0432 268.054 109.236 267.079 115.305C261.921 147.416 223.444 164.345 193.379 160.796C190.334 160.539 181.832 158.537 180.307 158.618C179.91 159.857 179.903 159.257 180.494 160.445C190.261 167.037 208.616 165.355 219.822 164.321C214.264 174.902 212.433 180.241 209.699 191.776C203.632 183.486 193.681 172.146 184.273 167.39C180.075 165.267 171.796 163.644 167.162 165.053C164.5 165.863 161.495 167.504 158.68 168.52C158.77 164.019 169.641 144.304 172.231 139.713C194.915 147.852 222.978 145.017 241.599 128.916C250.75 121.003 260.801 108.821 262.836 96.4464C263.02 95.3251 262.633 94.5343 261.91 93.7602C259.634 94.8591 258.135 100.127 256.954 102.476C254.983 106.395 252.814 109.927 250.138 113.412C245.241 119.699 239.272 125.071 232.505 129.281C214.85 140.113 194.367 141.778 174.59 136.951C186.115 114.938 209.619 91.2396 228.934 75.327C236.081 69.4381 246.503 65.5634 252.951 59.3556Z"/><path fill="#935D6F" transform="scale(0.390625 0.390625)" d="M87.8364 228.702C90.8931 228.207 96.0246 228.835 99.2378 229.113C112.048 230.219 129.418 240.819 132.496 253.89C133.338 257.467 132.201 266.373 131.941 270.413C130.775 288.518 134.611 300.162 145.317 314.401C139.123 320.179 138.541 324.445 133.659 330.188C111.014 339.275 71.5425 326.631 58.5694 305.989C46.2708 284.679 49.6905 266.753 65.9916 249.16C66.2437 247.444 66.4868 248.128 65.6431 246.933C64.5542 246.981 64.1267 247.13 63.2152 247.709C47.5775 257.647 43.9476 280.269 40.2506 297.056C38.9184 293.194 37.5268 289.233 36.4363 285.294C27.3301 252.403 58.1792 231.698 87.8364 228.702Z"/><path fill="#471248" transform="scale(0.390625 0.390625)" d="M95.5736 239.858C96.6674 240.424 96.2805 240.136 97.0323 241.193C96.4555 243.173 87.3347 249.466 84.5115 254.224C74.6191 270.895 75.6814 284.596 82.3023 302.249C83.9584 306.665 89.7906 314.46 90.7069 318.698L89.8033 319.672C73.5498 309.43 67.805 276.411 77.1367 260.148C82.9367 250.04 84.9288 245.364 95.5736 239.858Z"/><path fill="#471248" transform="scale(0.390625 0.390625)" d="M107.867 252.262L108.365 252.593C109.084 254.493 106.526 261.182 106.127 263.545C102.828 283.125 109.635 306.712 126.632 318.27C128.57 319.588 131.889 321.791 133.074 323.754C132.754 325.467 132.703 325.069 131.381 326.6C127.543 325.468 123.95 323.632 120.784 321.186C103.041 307.71 94.0739 270.477 107.867 252.262Z"/><path fill="#471248" transform="scale(0.390625 0.390625)" d="M117.637 284.376C120.866 296.134 127.462 303.526 134.898 312.791C134.853 313.347 134.808 313.904 134.763 314.46C125.563 314.043 115.133 292.992 117.637 284.376Z"/><path fill="#F4C65A" transform="scale(0.390625 0.390625)" d="M175.763 514.76C180.262 501.83 193.454 482.115 203.842 473.806C215.661 464.353 224.297 460.95 239.108 462.227C247.377 478.74 255.138 493.482 265.981 508.649C266.259 508.937 267.242 509.916 267.506 510.27C269.905 514.643 276.563 522.955 279.658 527.569C257.981 539.026 240.525 552.686 228.699 575.026C226.358 579.448 224.422 586.071 222.916 590.956C221.294 596.066 219.975 601.267 218.967 606.533C215.386 599.504 204.956 583.486 205.515 577.387L203.263 577.098C197.573 565.78 192.108 552.312 186.962 540.633C183.304 532.332 179.011 523.036 175.763 514.76Z"/><path fill="#FCFAF4" transform="scale(0.390625 0.390625)" d="M267.506 510.27C269.905 514.643 276.563 522.955 279.658 527.569C257.981 539.026 240.525 552.686 228.699 575.026C226.358 579.448 224.422 586.071 222.916 590.956C221.294 596.066 219.975 601.267 218.967 606.533C215.386 599.504 204.956 583.486 205.515 577.387C208.766 571.043 211.593 564.396 214.897 558.057C222.859 542.786 233.642 530.907 247.511 520.782C253.758 516.222 260.41 513.423 267.506 510.27Z"/><path fill="#491744" transform="scale(0.390625 0.390625)" d="M265.981 508.649C266.259 508.937 267.242 509.916 267.506 510.27C260.41 513.423 253.758 516.222 247.511 520.782C233.642 530.907 222.859 542.786 214.897 558.057C211.593 564.396 208.766 571.043 205.515 577.387L203.263 577.098C205.687 573.211 208.784 563.76 211.598 558.383C220.524 541.327 233.14 526.7 249.455 516.339C253.52 513.758 261.436 510.6 265.981 508.649Z"/><path fill="#FCFAF4" transform="scale(0.390625 0.390625)" d="M457.714 358.31L457.832 359.016C460.178 361.661 460.039 362.075 459.463 365.544L459.448 368.082C456.034 377.75 437.765 391.226 432.537 401.395C431.055 404.279 425.599 413.082 429.693 415.473C429.437 415.615 452.188 384.302 457.658 380.739C469.034 387.218 452.863 403.219 448.646 409.118C446.078 412.71 436.632 428.036 438.234 431.941C439.735 432.75 438.943 432.572 440.714 432.396C443.031 431.013 455.626 410.165 458.985 406.035L459.451 405.468L459.506 406.001C460.58 417.038 456.288 422.433 452.466 432.37C450.084 438.563 450.338 449.81 448.371 453.925C438.69 474.173 417.724 493.702 403.824 510.805C399.059 500.639 380.816 491.788 370.217 489.854C383.125 465.554 384.928 449.406 388.939 422.989C393.057 395.86 430.304 359.881 457.714 358.31Z"/><path fill="#491744" transform="scale(0.390625 0.390625)" d="M451.075 369.55C437.324 374.156 424.162 393.888 414.94 404.645C412.592 407.384 409.369 414.73 405.803 415.227C404.401 414.202 404.877 414.862 404.388 413.134C404.942 410.638 407.43 407.533 408.915 405.004C419.625 386.774 432.298 375.167 448.663 362.331L453.346 364.287L452.303 365.664C450.997 366.771 451.387 367.245 451.075 369.55Z"/><path fill="#7B2F5D" transform="scale(0.390625 0.390625)" d="M457.714 358.31L457.832 359.016C460.178 361.661 460.039 362.075 459.463 365.544C456.54 364.856 455.202 365.082 452.303 365.664L453.346 364.287L448.663 362.331C451.499 360.438 454.532 359.44 457.714 358.31Z"/><path fill="#FCFAF4" transform="scale(0.390625 0.390625)" d="M457.832 359.016C460.178 361.661 460.039 362.075 459.463 365.544C456.54 364.856 455.202 365.082 452.303 365.664L453.346 364.287C457.438 362.682 457.143 363.051 457.832 359.016Z"/><path fill="#401646" transform="scale(0.390625 0.390625)" d="M452.303 365.664C455.202 365.082 456.54 364.856 459.463 365.544L459.448 368.082C456.258 367.961 454.062 368.355 451.075 369.55C451.387 367.245 450.997 366.771 452.303 365.664Z"/><path fill="#CB6B6D" transform="scale(0.390625 0.390625)" d="M612.104 464.645C626.542 470.301 634.41 477.014 647.283 485.171L717.439 530.18C727.76 536.921 739.936 546.454 750.676 551.901C746.57 565.667 744.606 570.512 738.029 583.272C735.642 587.692 733.217 592.092 730.756 596.471C715.174 588.44 699.848 578.036 684.801 568.968C672.681 561.664 661.286 555.131 649.433 547.318C638.188 519.235 625.733 491.652 612.104 464.645Z"/><path fill="#F4C65A" transform="scale(0.390625 0.390625)" d="M221.573 610.166C226.711 580.858 237.298 558.211 262.465 541.025C268.652 536.8 274.851 534.088 280.982 530.289L281.383 530.037C284.164 533.003 295.41 545.664 298.051 546.902L298.484 546.926C295.142 553.739 291.535 560.695 288.345 567.538C284.166 577.687 278.866 612.776 284.423 623.713C285.588 626.005 289.56 630.75 290.006 632.362C292.953 643.011 295.094 662.836 300.268 672.138L299.86 672.715C294.529 673.499 277.686 668.043 272.879 664.446C271.876 663.696 271.582 662.593 271.181 661.457L270.778 661.336L270.407 660.332L269.946 660.243L269.341 662.526L268.892 661.941L267.857 662.148C254.961 655.877 238.947 635.494 230.168 623.615C227.251 619.669 224.836 614.736 222.127 610.934L221.573 610.166Z"/><path fill="#FCFAF4" transform="scale(0.390625 0.390625)" d="M282.858 565.904C285.127 566.844 285.953 567.349 288.345 567.538C284.166 577.687 278.866 612.776 284.423 623.713C285.588 626.005 289.56 630.75 290.006 632.362C292.953 643.011 295.094 662.836 300.268 672.138L299.86 672.715C294.529 673.499 277.686 668.043 272.879 664.446C271.876 663.696 271.582 662.593 271.181 661.457C270.705 653.789 266.257 644.395 266.537 635.941C267.337 611.818 275.595 588.618 282.858 565.904Z"/><path fill="#401646" transform="scale(0.390625 0.390625)" d="M268.892 661.941C260.56 637.739 263.503 621.092 269.688 597.257C271.491 590.31 280.746 559.956 285.019 555.613L285.34 556.288C285.284 560.219 284.269 562.238 282.858 565.904C275.595 588.618 267.337 611.818 266.537 635.941C266.257 644.395 270.705 653.789 271.181 661.457L270.778 661.336L270.407 660.332L269.946 660.243L269.341 662.526L268.892 661.941Z"/><path fill="#F4C65A" transform="scale(0.390625 0.390625)" d="M313.975 532.079C320.579 525.934 336.578 511.866 344.978 513.542C365.595 517.656 394.253 538.614 390.789 562.563C388.49 578.457 381.737 597.068 374.242 609.603L372.635 611.657C373.316 614.637 362.122 627.787 359.553 630.865C353.319 615.704 337.082 593.419 323.858 583.154C322.461 576.042 320.931 568.956 319.269 561.901C318.316 557.954 316.744 553.037 316.145 549.17L315.138 546.786C314.407 541.917 314.019 537.002 313.975 532.079Z"/><path fill="#FCFAF4" transform="scale(0.390625 0.390625)" d="M316.145 549.17C336.96 564.135 359.096 579.435 369.59 603.919C371.373 603.885 370.684 604.216 371.833 603.157C372.787 605.437 373.458 607.259 374.242 609.603L372.635 611.657C373.316 614.637 362.122 627.787 359.553 630.865C353.319 615.704 337.082 593.419 323.858 583.154C322.461 576.042 320.931 568.956 319.269 561.901C318.316 557.954 316.744 553.037 316.145 549.17Z"/><path fill="#401646" transform="scale(0.390625 0.390625)" d="M371.833 603.157C372.787 605.437 373.458 607.259 374.242 609.603L372.635 611.657C371.446 609.075 370.568 606.579 369.59 603.919C371.373 603.885 370.684 604.216 371.833 603.157Z"/><defs><linearGradient id="gradient_0" gradientUnits="userSpaceOnUse" x1="342.65094" y1="576.29871" x2="348.1666" y2="571.10999"><stop offset="0" stop-color="#2F1835"/><stop offset="1" stop-color="#4A1451"/></linearGradient></defs><path fill="url(#gradient_0)" transform="scale(0.390625 0.390625)" d="M315.138 546.786C320.76 549.081 326.665 553.693 331.628 557.325C347.01 568.583 363.731 583.303 371.139 601.341C371.385 601.941 371.617 602.546 371.833 603.157C370.684 604.216 371.373 603.885 369.59 603.919C359.096 579.435 336.96 564.135 316.145 549.17L315.138 546.786Z"/><path fill="#CB6B6D" transform="scale(0.390625 0.390625)" d="M688.511 831.543L689.798 829.693C692.697 830.335 693.433 836.019 693.17 838.588C693.122 839.063 691.888 839.656 691.427 839.949C688.245 847.366 691.727 851.32 697.719 855.957C713.091 867.852 733.499 880.134 753.682 878.104C764.038 900.984 779.904 916.045 800.692 929.746C804.961 932.559 806.199 928.453 808.043 925.035C812.568 923.137 816.902 922.445 821.521 920.374C827.248 924.574 832.584 930.476 838.431 933.783C830.32 934.59 823.716 935.964 816.641 940.148C806.527 946.13 801.95 950.709 798.672 962.052C782.567 956.104 763.236 943.664 749.22 933.737C733.897 922.884 723.57 918.302 706.209 911.099C702.728 886.469 696.64 885.009 679.152 868.992C680.873 857.078 684.213 842.688 688.511 831.543Z"/><path fill="#EADAB8" transform="scale(0.390625 0.390625)" d="M688.511 831.543L689.798 829.693C692.697 830.335 693.433 836.019 693.17 838.588C693.122 839.063 691.888 839.656 691.427 839.949L688.511 831.543Z"/><path fill="#CB6B6D" transform="scale(0.390625 0.390625)" d="M564.95 527.258C567.235 530.07 573.069 541.337 574.619 544.729C577.602 551.913 578.932 559.762 581.338 567.125C592.849 602.356 608.885 635.698 624.875 669.009C632.585 685.357 640.471 701.621 648.53 717.799L632.656 722.468C629.297 723.833 625.194 724.463 621.585 725.154C615.654 715.105 606.806 695.823 601.361 684.857C587.727 657.398 573.558 629.056 562.134 600.648C559.239 593.448 555.165 584.54 552.926 577.436C555.568 562.459 560.826 542.13 564.95 527.258Z"/><path fill="#CB6B6D" transform="scale(0.390625 0.390625)" d="M935.501 608.452C936.695 609.926 937.58 611.853 938.731 613.411C942.971 619.149 945.939 620.616 952.069 623.274C946.992 631.035 942.846 640.002 937.718 647.974C922.267 671.846 905.401 694.772 887.21 716.629C867.096 697.409 862.389 708.626 844.339 719.468L841.016 721.353C834.112 714.432 825.408 703.601 820.858 695.052C831.157 697.564 841.015 698.961 850.153 691.817C859.365 684.617 861.805 672.754 863.165 661.741C866.483 661.558 874.68 660.572 877.487 659.116C894.806 650.13 927.355 625.957 935.501 608.452Z"/><path fill="#F2EECC" transform="scale(0.390625 0.390625)" d="M759.663 646.239C758.752 645.829 758.182 645.353 757.363 644.779C757.188 643.314 765.079 635.317 766.555 632.813C772.213 623.221 777.12 613.58 781.688 603.456C783.017 603.634 783.139 604.205 784.347 605.392C786.864 606.981 790.499 609.122 792.841 610.799L798.812 615.094C801.876 617.008 806.377 619.626 809.032 621.871C811.044 623.093 813.496 624.502 815.436 625.768C818.491 627.368 821.737 629.143 824.828 630.617L831.593 633.719L840.54 637.522C841.563 637.892 844.232 638.933 845.184 639.128L852.724 641.491C854.715 641.901 857.142 642.473 859.119 642.73C858.489 649.308 857.913 661.628 856.327 667.414C855.075 681.93 845.448 690.614 831.021 691.26C826.92 691.156 825.436 690.108 821.924 688.151L816.169 683.564C814.064 682.12 811.857 680.383 809.8 678.836C807.105 677.28 805.755 676.068 803.406 674.1L795.381 669.142C794.141 668.404 792.89 667.684 791.629 666.983C787.862 664.302 783.852 661.689 780.002 659.106L777.262 657.214C773.834 655.375 770.859 653.629 767.532 651.607L764.11 649.425C762.9 648.804 760.835 647.125 759.663 646.239Z"/><path fill="#F2EECC" transform="scale(0.390625 0.390625)" d="M759.663 646.239C758.752 645.829 758.182 645.353 757.363 644.779C757.188 643.314 765.079 635.317 766.555 632.813C772.213 623.221 777.12 613.58 781.688 603.456C783.017 603.634 783.139 604.205 784.347 605.392C786.864 606.981 790.499 609.122 792.841 610.799L798.812 615.094C801.876 617.008 806.377 619.626 809.032 621.871C804.126 630.8 794.038 640.855 786.494 647.989C784.142 650.213 778.737 654.814 777.262 657.214C773.834 655.375 770.859 653.629 767.532 651.607L764.11 649.425C762.9 648.804 760.835 647.125 759.663 646.239Z"/><path fill="#F2EECC" transform="scale(0.390625 0.390625)" d="M759.663 646.239C758.752 645.829 758.182 645.353 757.363 644.779C757.188 643.314 765.079 635.317 766.555 632.813C772.213 623.221 777.12 613.58 781.688 603.456C783.017 603.634 783.139 604.205 784.347 605.392C786.864 606.981 790.499 609.122 792.841 610.799C784.911 624.822 775.259 637.798 764.11 649.425C762.9 648.804 760.835 647.125 759.663 646.239Z"/><path fill="#F4C65A" transform="scale(0.390625 0.390625)" d="M759.663 646.239C758.752 645.829 758.182 645.353 757.363 644.779C757.188 643.314 765.079 635.317 766.555 632.813C772.213 623.221 777.12 613.58 781.688 603.456C783.017 603.634 783.139 604.205 784.347 605.392C780.175 615.105 774.277 625.19 769.008 634.408C767.124 637.703 760.851 642.722 759.663 646.239Z"/><path fill="#EBA937" transform="scale(0.390625 0.390625)" d="M792.841 610.799L798.812 615.094C793.598 624.994 780.21 645.234 769.542 650.88C769.608 650.845 767.809 651.488 767.532 651.607L764.11 649.425C775.259 637.798 784.911 624.822 792.841 610.799Z"/><path fill="#F2EECC" transform="scale(0.390625 0.390625)" d="M852.724 641.491C854.715 641.901 857.142 642.473 859.119 642.73C858.489 649.308 857.913 661.628 856.327 667.414C855.075 681.93 845.448 690.614 831.021 691.26C826.92 691.156 825.436 690.108 821.924 688.151L816.169 683.564C832.736 671.792 844.001 660.577 852.724 641.491Z"/><path fill="#EBA937" transform="scale(0.390625 0.390625)" d="M852.724 641.491C854.715 641.901 857.142 642.473 859.119 642.73C858.546 642.8 857 642.806 856.849 643.263C850.413 662.81 840.66 676.462 821.924 688.151L816.169 683.564C832.736 671.792 844.001 660.577 852.724 641.491Z"/><path fill="#EBA937" transform="scale(0.390625 0.390625)" d="M856.327 667.414C855.075 681.93 845.448 690.614 831.021 691.26C843.943 682.089 846.023 677.898 856.327 667.414Z"/><path fill="#F2EECC" transform="scale(0.390625 0.390625)" d="M809.032 621.871C811.044 623.093 813.496 624.502 815.436 625.768C818.491 627.368 821.737 629.143 824.828 630.617C817.534 642.111 807.183 651.723 797.446 661.101C795.412 663.06 793.464 664.833 791.629 666.983C787.862 664.302 783.852 661.689 780.002 659.106L777.262 657.214C778.737 654.814 784.142 650.213 786.494 647.989C794.038 640.855 804.126 630.8 809.032 621.871Z"/><path fill="#EBA937" transform="scale(0.390625 0.390625)" d="M809.032 621.871C811.044 623.093 813.496 624.502 815.436 625.768C805.523 637.385 795.485 653.551 780.002 659.106L777.262 657.214C778.737 654.814 784.142 650.213 786.494 647.989C794.038 640.855 804.126 630.8 809.032 621.871Z"/><path fill="#F2EECC" transform="scale(0.390625 0.390625)" d="M824.828 630.617L831.593 633.719L840.54 637.522C833.489 646.76 826.32 655.48 817.553 663.221C813.224 667.043 807.977 670.49 803.406 674.1L795.381 669.142C794.141 668.404 792.89 667.684 791.629 666.983C793.464 664.833 795.412 663.06 797.446 661.101C807.183 651.723 817.534 642.111 824.828 630.617Z"/><path fill="#EBA937" transform="scale(0.390625 0.390625)" d="M824.828 630.617L831.593 633.719C819.13 647.117 813.301 659.907 795.381 669.142C794.141 668.404 792.89 667.684 791.629 666.983C793.464 664.833 795.412 663.06 797.446 661.101C807.183 651.723 817.534 642.111 824.828 630.617Z"/><path fill="#EBA937" transform="scale(0.390625 0.390625)" d="M840.54 637.522C841.563 637.892 844.232 638.933 845.184 639.128C840.432 648.412 829.368 661.616 821.825 668.7C818.92 671.428 811.942 676.207 809.8 678.836C807.105 677.28 805.755 676.068 803.406 674.1C807.977 670.49 813.224 667.043 817.553 663.221C826.32 655.48 833.489 646.76 840.54 637.522Z"/><path fill="#F4C65A" transform="scale(0.390625 0.390625)" d="M164.984 482.937C157.054 466.125 153.771 413.226 169.55 400.371C172 398.36 175.157 397.423 178.307 397.774C189.443 398.942 215.781 427.984 223.595 437.107C222.242 438.052 219.821 438.736 218.176 438.354C220.438 438.336 221.583 438.919 223.781 439.46C228.264 440.353 234.987 454.652 237.344 459.092C229.994 458.932 223.671 459.278 216.813 462.206C196.533 470.863 181.642 492.55 175.248 512.905C173.98 509.472 164.908 485.685 165.57 484.008L164.984 482.937Z"/><path fill="#FCFAF4" transform="scale(0.390625 0.390625)" d="M223.781 439.46C228.264 440.353 234.987 454.652 237.344 459.092C229.994 458.932 223.671 459.278 216.813 462.206C196.533 470.863 181.642 492.55 175.248 512.905C173.98 509.472 164.908 485.685 165.57 484.008C168.522 481.768 171.604 474.07 174.011 470.504C183.171 456.935 197.476 445.899 213.008 440.69C216.035 439.675 220.59 439.609 223.781 439.46Z"/><path fill="#491744" transform="scale(0.390625 0.390625)" d="M164.984 482.937C166.558 480.359 167.989 476.707 169.35 473.959C175.409 461.797 184.613 452.869 196.148 445.962C206.91 439.518 211.123 437.279 223.595 437.107C222.242 438.052 219.821 438.736 218.176 438.354C220.438 438.336 221.583 438.919 223.781 439.46C220.59 439.609 216.035 439.675 213.008 440.69C197.476 445.899 183.171 456.935 174.011 470.504C171.604 474.07 168.522 481.768 165.57 484.008L164.984 482.937Z"/><path fill="#CB6B6D" transform="scale(0.390625 0.390625)" d="M712.581 682.389C717.231 685.241 728.496 721.188 731.09 728.734C712.222 744.155 683.525 757.091 659.802 762.382C651.582 764.216 644.359 763.922 634.824 766.505L616.087 731.563C620.101 730.845 624.468 730.914 627.882 730.407C653.152 726.655 696.13 708.999 712.498 689.685C712.42 686.963 712.412 685.143 712.581 682.389Z"/><path fill="#F4C65A" transform="scale(0.390625 0.390625)" d="M237.19 317.58C249.924 324.256 255.821 331.589 259.935 345.407C263.85 358.557 261.113 370.755 265.251 384.491C267.944 397.883 273.421 403.471 281.25 413.306C283.339 415.93 289.635 432.597 291.275 437.026C301.172 463.747 305.91 494.731 317.699 520.59C310.31 527.78 307.27 532.715 300.917 540.135C297.729 529.088 295.344 515.516 293.02 504.085C290.251 490.76 287.315 477.471 284.211 464.221C279.062 441.936 277.176 431.701 259.874 415.731C258.698 414.646 254.181 410.28 254.427 408.991L253.671 408.035L252.35 407.974C255.789 406.414 257.155 404.345 257.984 400.794C258.944 401.946 260.425 403.931 261.604 404.649C262.59 407.858 270.34 413.003 273.427 414.644C273.037 413.296 271.296 407.092 270.684 406.255C266.502 400.541 261.36 395.321 257.118 389.632C250.927 381.263 244.793 372.852 238.717 364.399C230.218 352.402 224.405 342.976 213.243 332.489C221.364 336.076 231.768 340.218 240.489 336.597C244.546 334.912 245.397 333.373 248.68 330.844C244.224 323.587 241.836 327.192 237.19 317.58Z"/><path fill="#935D6F" transform="scale(0.390625 0.390625)" d="M257.984 400.794C258.944 401.946 260.425 403.931 261.604 404.649L260.797 405.692C259.292 405.475 259.848 405.655 258.546 404.763C257.362 406.185 255.968 408.03 254.427 408.991L253.671 408.035L252.35 407.974C255.789 406.414 257.155 404.345 257.984 400.794Z"/><path fill="#401646" transform="scale(0.390625 0.390625)" d="M256.73 346.59L257.718 347.109C259.856 355.086 244.669 354.552 239.942 354.622L238.57 353.607C239.417 351.567 252.245 348.578 256.73 346.59Z"/><path fill="#F4C65A" transform="scale(0.390625 0.390625)" d="M544.383 279.205C549.571 284.501 554.917 285.901 561.753 288.288C560.868 289.988 559.855 292.117 558.814 293.674C555.806 299.049 552.806 305.355 550.126 310.948C524.82 363.764 495.429 414.885 470.493 467.819C465.374 464.341 457.666 460.498 453.455 457.238L453.651 455.641L454.437 455.259C455.982 456.082 456.162 456.254 457.903 456.688C459.028 455.928 463.519 444.91 464.594 442.578C477.652 414.159 490.985 385.866 504.59 357.704C507.829 351.028 511.469 345.013 514.739 338.49C523.35 320.877 532.135 303.35 541.092 285.91L544.383 279.205Z"/><path fill="#401646" transform="scale(0.390625 0.390625)" d="M541.945 286.668C547.368 286.397 545.542 288.338 549.366 289.462C547.969 290.423 547.942 290.582 546.222 290.826C544.429 290.3 543.178 288.224 541.945 286.668Z"/><path fill="#31242D" transform="scale(0.390625 0.390625)" d="M553.613 291.914C555.236 290.443 554.86 290.273 556.511 290.239C557.647 291.551 557.575 291.511 558.229 293.14C556.932 293.907 556.962 293.85 555.47 294.166C553.827 293.338 554.542 293.943 553.613 291.914Z"/><path fill="#CB6B6D" transform="scale(0.390625 0.390625)" d="M208.699 47.3184C221.809 50.1408 233.436 52.4385 246.336 56.3799C240.392 60.539 232.412 63.7952 226.704 68.1637C188.289 97.5633 141.122 157.039 145.227 207.118C144.231 208.745 143.969 208.991 143.711 210.933C139.072 192.427 142.452 174.126 145.755 155.81C148.663 139.688 151.412 124.461 157.986 109.316C161.58 101.036 166.412 95.0485 170.999 87.6611C181.249 71.1524 191.409 57.143 208.699 47.3184Z"/><path fill="#F4C65A" transform="scale(0.390625 0.390625)" d="M307.615 539.817C308.667 543.784 308.428 548.656 309.397 552.543C315.137 575.548 318.22 598.616 319.502 622.256C319.585 623.793 320.104 624.549 321.161 625.543C329.25 624.371 324.928 593.184 324.37 586.648C335.68 596.226 351.739 619.754 357.683 633.258C354.89 636.642 352.953 638.733 349.833 641.831C338.796 653.218 330.188 662.777 315.297 669.46C312.739 670.608 306.657 673.484 304.113 672.51C299.912 667.606 294.331 639.475 293.635 632.686C296.814 630.796 299.682 627.713 300.291 623.96C300.882 620.309 302.75 617.328 303.684 613.581C306.252 603.311 307.84 592.821 308.427 582.251C308.76 576.257 308.696 568.585 308.248 562.455C307.843 556.911 305.998 549.585 305.884 543.916C305.872 543.34 307.278 540.503 307.615 539.817Z"/><path fill="#F4C65A" transform="scale(0.390625 0.390625)" d="M709.322 755.706C711.433 754.238 713.511 752.219 715.716 752.324C717.297 753.506 717.027 754.651 717.787 756.3C719.381 758.518 719.823 759.56 720.933 762.009C722.691 765.81 724.248 769.034 725.556 773.038L729.694 781.485C731.466 785.277 733.353 789.171 735.049 792.983L739.388 802.109C741.614 805.691 743.233 809.446 744.989 813.273C729.12 821.612 714.327 829.531 695.717 825.948C694.548 822.723 693.307 819.489 692.1 816.275C690.67 813.166 689.453 809.716 688.245 806.493C686.544 802.851 685.166 799.425 683.672 795.689C682.457 793.103 681.417 790.199 680.384 787.516C678.652 784.174 677.353 780.271 676.058 776.703L673.962 772.252C673.071 770.719 672.844 770.871 672.8 769.3C687.182 765.201 695.548 761.483 709.322 755.706Z"/><path fill="#F4C65A" transform="scale(0.390625 0.390625)" d="M709.322 755.706C711.433 754.238 713.511 752.219 715.716 752.324C717.297 753.506 717.027 754.651 717.787 756.3C719.381 758.518 719.823 759.56 720.933 762.009C722.691 765.81 724.248 769.034 725.556 773.038C716.378 781.329 698.772 788.974 686.625 788.299C684.529 788.185 682.443 787.924 680.384 787.516C678.652 784.174 677.353 780.271 676.058 776.703L673.962 772.252C673.071 770.719 672.844 770.871 672.8 769.3C687.182 765.201 695.548 761.483 709.322 755.706Z"/><path fill="#F6F6F6" transform="scale(0.390625 0.390625)" d="M709.322 755.706C711.433 754.238 713.511 752.219 715.716 752.324C717.297 753.506 717.027 754.651 717.787 756.3C719.381 758.518 719.823 759.56 720.933 762.009C705.578 773.151 694.665 776.501 676.058 776.703L673.962 772.252C673.071 770.719 672.844 770.871 672.8 769.3C687.182 765.201 695.548 761.483 709.322 755.706Z"/><path fill="#EBA937" transform="scale(0.390625 0.390625)" d="M673.962 772.252C673.071 770.719 672.844 770.871 672.8 769.3C687.182 765.201 695.548 761.483 709.322 755.706L710.009 757.527C709.026 759.55 708.351 759.837 707.112 761.58C697.579 765.804 684.473 771.805 673.962 772.252Z"/><path fill="#EBA937" transform="scale(0.390625 0.390625)" d="M709.322 755.706C711.433 754.238 713.511 752.219 715.716 752.324C717.297 753.506 717.027 754.651 717.787 756.3C712.784 760.605 711.25 759.087 707.112 761.58C708.351 759.837 709.026 759.55 710.009 757.527L709.322 755.706Z"/><path fill="#F4C65A" transform="scale(0.390625 0.390625)" d="M725.556 773.038L729.694 781.485C731.466 785.277 733.353 789.171 735.049 792.983C717.592 803.578 709.532 807.739 688.245 806.493C686.544 802.851 685.166 799.425 683.672 795.689C682.457 793.103 681.417 790.199 680.384 787.516C682.443 787.924 684.529 788.185 686.625 788.299C698.772 788.974 716.378 781.329 725.556 773.038Z"/><path fill="#F6F6F6" transform="scale(0.390625 0.390625)" d="M725.556 773.038L729.694 781.485C725.616 783.172 722.342 786.293 718.551 788.404C708.258 794.135 695.338 796.302 683.672 795.689C682.457 793.103 681.417 790.199 680.384 787.516C682.443 787.924 684.529 788.185 686.625 788.299C698.772 788.974 716.378 781.329 725.556 773.038Z"/><path fill="#F6F6F6" transform="scale(0.390625 0.390625)" d="M735.049 792.983L739.388 802.109C729.777 810.248 708.356 817.705 695.263 816.58C694.208 816.488 693.153 816.386 692.1 816.275C690.67 813.166 689.453 809.716 688.245 806.493C709.532 807.739 717.592 803.578 735.049 792.983Z"/><path fill="#CB6B6D" transform="scale(0.390625 0.390625)" d="M756.874 548.806C760.239 551.555 782.881 572.149 783.022 572.953C785.205 585.373 754.324 650.336 738.817 646.277C735.301 644.432 731.648 641.876 728.133 639.867C722.127 636.436 716.092 633.086 710.04 629.738C734.739 611.462 748.78 577.386 756.874 548.806Z"/><path fill="#FCFAF4" transform="scale(0.390625 0.390625)" d="M676.312 901.197C693.497 913.664 708.112 917.966 726.689 927.565C738.589 933.898 749.549 941.692 760.624 949.281C787.267 967.535 846.221 987.593 874.853 965.694C876.356 969.879 877.984 972.778 876.857 977.007C871.821 983.096 857.086 986.837 849.505 987.286C811.42 989.542 776.55 975.406 745.926 953.756C739.405 949.146 731.876 944.793 725.081 940.594C711.076 932.43 695.121 926.735 682.082 916.999C676.747 913.028 676.847 907.691 676.312 901.197Z"/><path fill="#CB6B6D" transform="scale(0.390625 0.390625)" d="M271.423 722.408C276.035 725.851 286.481 742.675 291.161 748.383C310.894 772.448 334.64 794.637 362.237 809.388C369.815 813.44 383.948 818.825 391.785 821.663C386.269 821.395 381.846 820.956 376.38 820.324C374.898 820.18 373.418 820.005 371.943 819.799C324.402 813.209 292.701 786.164 265.292 748.564C261.036 742.726 258.13 735.051 254.205 730.133C260.897 727.895 265.488 726.138 271.423 722.408Z"/><path fill="#F4C65A" transform="scale(0.390625 0.390625)" d="M744.989 813.273C746.196 815.961 747.441 818.633 748.723 821.287C749.859 823.41 753.126 829.335 753.861 831.525L756.908 834.119C755.849 836.171 753.918 839.635 753.269 841.707C752.032 847.028 752.252 850.078 752.476 855.574C753.226 858.952 753.615 860.471 754.821 863.714C756.466 866.825 757.013 867.515 759.2 870.187C749.138 873.696 743.782 874.097 733.359 870.934C729.101 869.39 726.417 868.274 722.345 866.299C716.483 864.005 708.002 858.079 703.157 854.042C699.649 851.521 697.155 849.496 694.526 846.075C694.315 845.489 694.068 844.799 693.783 844.006C695.209 841.413 696.104 839.686 696.91 836.88L697.08 836.27C697.094 833.263 696.242 829.028 695.717 825.948C714.327 829.531 729.12 821.612 744.989 813.273Z"/><path fill="#F4C65A" transform="scale(0.390625 0.390625)" d="M753.269 841.707C752.032 847.028 752.252 850.078 752.476 855.574C753.226 858.952 753.615 860.471 754.821 863.714C756.466 866.825 757.013 867.515 759.2 870.187C749.138 873.696 743.782 874.097 733.359 870.934C729.101 869.39 726.417 868.274 722.345 866.299C716.483 864.005 708.002 858.079 703.157 854.042C722.475 853.611 736.417 852.672 753.269 841.707Z"/><path fill="#F6F6F6" transform="scale(0.390625 0.390625)" d="M722.345 866.299C724.81 864.446 747.885 857.22 752.476 855.574C753.226 858.952 753.615 860.471 754.821 863.714C756.466 866.825 757.013 867.515 759.2 870.187C749.138 873.696 743.782 874.097 733.359 870.934C729.101 869.39 726.417 868.274 722.345 866.299Z"/><path fill="#EBA937" transform="scale(0.390625 0.390625)" d="M754.821 863.714C756.466 866.825 757.013 867.515 759.2 870.187C749.138 873.696 743.782 874.097 733.359 870.934C737.352 866.824 748.008 865.805 754.821 863.714Z"/><path fill="#F6F6F6" transform="scale(0.390625 0.390625)" d="M744.989 813.273C746.196 815.961 747.441 818.633 748.723 821.287C744.261 823.061 739.292 826.017 734.932 828.269C722.261 834.813 711.098 836.2 697.08 836.27C697.094 833.263 696.242 829.028 695.717 825.948C714.327 829.531 729.12 821.612 744.989 813.273Z"/><path fill="#F6F6F6" transform="scale(0.390625 0.390625)" d="M753.861 831.525L756.908 834.119C755.849 836.171 753.918 839.635 753.269 841.707C736.417 852.672 722.475 853.611 703.157 854.042C699.649 851.521 697.155 849.496 694.526 846.075C722.97 846.851 728.153 846.572 753.861 831.525Z"/><path fill="#FCFAF4" transform="scale(0.390625 0.390625)" d="M976.758 549.202C986.722 550.324 986.667 554.692 986.362 563.767C985.348 585.082 976.638 608.602 966.797 627.479C960.865 638.859 953.028 653.206 946.079 664.001C930.861 687.64 914.526 711.262 895.102 731.641C888.805 738.248 882.708 746.314 873.536 748.394C872.389 747.849 867.71 743.562 866.44 742.444C868.616 740.285 872.318 737.965 874.897 735.957C879.334 732.474 883.547 728.715 887.513 724.704C899.057 712.895 909.379 697.567 919.454 684.378C944.83 651.125 964.824 615.126 975.923 574.622C978.726 564.393 979.409 559.321 976.758 549.202Z"/><path fill="#F4C65A" transform="scale(0.390625 0.390625)" d="M400.795 271.403C410.612 275.66 414.946 278.253 425.736 278.015C426.547 276.978 427.459 275.556 428.217 274.439L509.27 313.498C506.77 318.451 504.355 323.447 502.026 328.484L499.366 333.948C484.479 327.809 468.673 319.342 454.064 312.365C439.804 305.556 425.569 298.597 411.307 291.791C417.433 280.463 403.375 279.027 395.49 280.25C397.814 276.948 399.028 274.986 400.795 271.403Z"/><path fill="#401646" transform="scale(0.390625 0.390625)" d="M484.369 313.79C482.433 315.121 482.224 316.977 479.225 316.563C479.256 314.465 482.563 309.692 484.589 309.236C486.221 310.554 485.537 309.757 486.418 311.953L487.074 312.069C488.832 310.948 487.926 311.162 489.799 311.121L490.733 312.068C489.625 314.988 488.239 317.225 485.86 319.281L484.846 319.399C483.876 317.762 484.598 316.025 484.369 313.79Z"/><path fill="#471248" transform="scale(0.390625 0.390625)" d="M484.369 313.79C482.433 315.121 482.224 316.977 479.225 316.563C479.256 314.465 482.563 309.692 484.589 309.236C486.221 310.554 485.537 309.757 486.418 311.953C484.138 311.1 484.921 311.002 483.143 311.784L483.021 312.7C483.674 313.341 483.589 313.388 484.369 313.79Z"/><path fill="#401646" transform="scale(0.390625 0.390625)" d="M467.861 305.706C469.539 306.415 469.634 306.483 471.043 307.464C471.869 309.283 471.601 308.763 471.359 311.038C470.27 310.148 469.179 309.644 467.941 308.986C467.047 307.562 467.355 307.971 467.861 305.706Z"/><path fill="#FCFAF4" transform="scale(0.390625 0.390625)" d="M383.363 238.466C398.026 238.368 408.128 240.831 419.27 250.212C421.299 251.92 423.218 252.537 424.918 254.824L424.603 255.609C420.863 256.181 405.745 247.336 399.109 248.841C394.201 249.953 386.113 247.588 382.133 254.046C380.003 257.503 372.777 257.44 373.415 261.019C375.156 261.592 377.536 260.734 379.465 260.4C397.099 257.35 403.765 256.945 419.298 266.912C421.578 268.376 423.788 269.864 424.295 272.476C419.521 276.047 405.547 268.14 399.614 266.691L398.858 266.509C398.13 266.702 397.404 266.899 396.679 267.101C379.803 271.814 378.332 274.006 370.335 288.211C369.825 289.633 369.757 289.013 370.035 290.244C376.726 293.341 405.409 279.003 407.599 288.148L407.043 289.005C399.63 291.183 393.451 295.896 387.502 297.967C363.904 306.179 365.809 316.233 354.014 336.191C352.591 331.482 350.884 325.724 351.001 320.513C351.343 305.257 356.907 281.764 362.142 267.874C364.528 261.541 378.9 243.024 383.363 238.466Z"/><path fill="#CB6B6D" transform="scale(0.390625 0.390625)" d="M652.221 554.261C655.042 555.271 668.898 563.827 672.248 565.802C691.561 577.187 708.827 588.499 728.7 599.092C725.903 604.087 721.142 609.956 717.591 614.611C713.501 618.881 709.762 622.258 705.361 626.142C700.134 622.221 683.367 611.535 677.902 609.02C672.846 601.006 667.249 586.929 663.497 578.255C659.94 570.164 656.18 562.163 652.221 554.261Z"/><path fill="#FCFAF4" transform="scale(0.390625 0.390625)" d="M840.639 937.701C843.829 936.849 848.233 939.876 850.829 941.565C860.068 947.577 866.608 952.737 872.63 961.965C862.266 968.968 847.671 971.59 835.374 970.925C820.979 969.767 815.956 968.155 802.026 964.274C807.383 946.905 823.675 939.541 840.639 937.701Z"/><path fill="#FCFAF4" transform="scale(0.390625 0.390625)" d="M971.305 549.986C971.942 550.132 972.8 550.116 972.891 550.702C975.887 569.993 959.94 603.497 953.922 619.309C950.916 617.211 947.585 614.311 944.743 611.944C943.14 610.493 941.917 609.08 940.985 607.237C937.99 601.308 935.124 579.108 937.805 573.723C942.2 564.892 962.735 553.638 971.305 549.986Z"/><path fill="#FCFAF4" transform="scale(0.390625 0.390625)" d="M553.789 168.402C554.186 170.432 550.898 176.392 550.14 178.998C548.031 186.244 547.68 191.78 547.169 198.896C545.615 220.554 549.489 230.287 558.735 248.897C552.033 244.152 541.522 238.464 534.175 234.055C525.993 228.617 516.772 223.141 508.33 218.214C512.58 212.434 518.308 207.127 522.996 201.59C532.709 190.118 543.878 179.631 553.789 168.402Z"/><path fill="#CB6B6D" transform="scale(0.390625 0.390625)" d="M924.039 595.562C923.865 593.021 923.204 591.185 923.972 589.023C925.412 587.779 924.849 588.154 927.237 588.117C928.875 588.222 930.386 587.945 931.338 589.105C933.399 591.614 933.873 598.547 933.589 601.513C928.974 615.963 879.408 661.024 865.028 658.256C864.013 657.514 863.545 657.523 863.492 656.193C863.331 652.079 863.898 646.989 864.25 642.879C866.714 646.38 868.041 648.511 869.634 652.567C874.87 651.921 879.884 651.637 878.083 644.639C877.033 646.372 876.627 647.141 874.685 646.587L873.61 644.568C871.623 644.43 870.202 644.502 868.905 642.899L869.238 641.8C870.994 640.971 871.204 640.901 872.354 639.353L865.871 637.584L869.635 631.397C870.445 630.028 871.765 629.38 873.298 629.127L873.985 628.607C876.358 625.524 876.089 622.24 880.966 620.884C881.737 621.763 881.46 621.722 881.771 623.182C888.215 627.744 889.024 627.879 896.742 630.089C901.261 626.6 909.325 619.492 900.233 615.745C901.713 613.428 903.194 610.866 904.615 608.497C907.897 611.587 912.361 615.577 917.179 613.108C920.135 611.594 921.907 606.874 920.341 603.842C918.848 602.38 917.714 602.273 915.633 601.65C916.167 599.211 918.158 590.985 919.777 589.415L919.449 589.539L920.442 589.995C922.188 593.639 919.414 593.561 922.835 596.946C923.972 596.296 923.577 596.762 924.039 595.562Z"/><path fill="#491744" transform="scale(0.390625 0.390625)" d="M869.635 631.397C870.445 630.028 871.765 629.38 873.298 629.127C878.108 632.329 885.402 631.044 887.303 635.557C887.196 641.575 880.529 642.243 878.083 644.639C877.033 646.372 876.627 647.141 874.685 646.587L873.61 644.568C871.623 644.43 870.202 644.502 868.905 642.899L869.238 641.8C870.994 640.971 871.204 640.901 872.354 639.353L865.871 637.584L869.635 631.397Z"/><path fill="#CB6B6D" transform="scale(0.390625 0.390625)" d="M869.635 631.397C871.317 631.278 871.761 631.113 873.266 631.906C875.02 634.185 874.311 637.58 872.354 639.353L865.871 637.584L869.635 631.397Z"/><path fill="#CB6B6D" transform="scale(0.390625 0.390625)" d="M878.078 633.947C880.25 633.86 881.424 633.662 883.082 634.928C883.131 636.851 883.004 636.382 881.784 638.339C879.84 639.271 880.198 639.495 878.539 639.136C877.681 637.643 878 635.745 878.078 633.947Z"/><path fill="#491744" transform="scale(0.390625 0.390625)" d="M924.039 595.562C923.865 593.021 923.204 591.185 923.972 589.023C925.412 587.779 924.849 588.154 927.237 588.117C928.875 588.222 930.386 587.945 931.338 589.105C933.399 591.614 933.873 598.547 933.589 601.513C933.346 600.072 933.289 599.043 932.574 597.764C929.32 596.754 929.119 600.444 922.835 596.946C923.972 596.296 923.577 596.762 924.039 595.562Z"/><path fill="#935D6F" transform="scale(0.390625 0.390625)" d="M924.039 595.562C923.865 593.021 923.204 591.185 923.972 589.023C925.412 587.779 924.849 588.154 927.237 588.117C927.292 590.447 927.453 592.872 926.711 595.1C925.721 595.297 925.045 595.427 924.039 595.562Z"/><path fill="#491744" transform="scale(0.390625 0.390625)" d="M873.985 628.607C876.358 625.524 876.089 622.24 880.966 620.884C881.737 621.763 881.46 621.722 881.771 623.182C879.344 625.069 876.701 627.153 873.985 628.607Z"/><path fill="#FCFAF4" transform="scale(0.390625 0.390625)" d="M136.221 267.387C138.424 268.828 140.405 270.733 142.773 272.232C156.173 280.722 174.505 280.32 188.431 273.246C185.051 280.735 181.171 292.318 178.078 300.346C177.527 301.661 177.818 301.245 176.866 302.289C173.936 301.302 171.15 299.959 168.104 298.922C158.339 300.917 155.772 302.318 149.751 310.4C144.145 301.304 138.095 290.788 136.703 280.028C136.103 275.391 136.641 271.88 136.265 267.82L136.221 267.387Z"/><path fill="#CB6B6D" transform="scale(0.390625 0.390625)" d="M335.471 666.553C335.634 667.017 333.467 688.999 333.467 692.321C333.468 717.733 332.632 743.348 335.893 768.621C334.025 766.455 331.631 762.866 329.911 760.438C328.718 758.794 324.134 752.764 323.98 751.089C321.678 726.143 324.35 699.318 323.721 674.545C328.262 671.976 331.324 669.71 335.471 666.553Z"/><path fill="#FCFAF4" transform="scale(0.390625 0.390625)" d="M440.29 194.085C449.065 198.828 446.043 197.041 450.492 191.178L450.872 190.686C464.001 199.287 481.144 208.787 494.975 216.652L567.401 257.667C555.702 255.895 542.697 246.393 532.03 240.522L472.291 207.996C467.649 205.484 454.636 197.969 450.119 197.053L449.697 197.486C453.276 202.36 500.917 227.725 508.657 231.573C523.268 238.838 539.424 249.313 553.653 257.176C553.152 257.826 552.186 259.175 551.636 259.675C550.169 257.605 548.026 256.369 545.855 255.074C531.439 246.477 515.978 239.496 501.302 231.501C485.935 223.129 470.727 215.483 454.921 207.995C449.42 205.389 444.895 202.459 439.164 200.091L440.29 194.085Z"/><path fill="#FCFAF4" transform="scale(0.390625 0.390625)" d="M867.087 709.907C872.378 710.262 880.213 716.207 884.826 719.296C878.069 726.546 871.124 733.899 862.702 739.157L862.441 739.258C859.733 738.471 847.726 726.984 844.992 724.453C852.613 719.638 859.603 714.841 867.087 709.907Z"/><path fill="#CB6B6D" transform="scale(0.390625 0.390625)" d="M241.322 694.953L242.112 695.202C244.794 698.324 254.047 717.047 255.644 721.48C253.936 723.926 243.298 726.375 240.104 727.044C237.492 726.539 228.592 708.085 225.233 703.538C231.223 701.56 235.716 698.118 241.322 694.953Z"/><path fill="#CB6B6D" transform="scale(0.390625 0.390625)" d="M257.372 684.945C261.777 689.513 272.238 704.918 275.355 710.734C270.355 714.075 266.473 716.492 261.232 719.441L259.274 720.232C257.468 717.599 255.878 713.245 254.543 710.189C251.576 703.396 249.429 698.807 244.907 693.005C249.549 690.905 252.245 687.66 257.372 684.945Z"/><path fill="#FCFAF4" transform="scale(0.390625 0.390625)" d="M567.211 168.222C570.547 169.305 571.389 169.735 574.444 171.446C567.103 191.167 565.132 214.28 566.66 235.237C567.209 242.771 569.397 248.254 573.079 254.745L573.551 255.803L573.244 256.383C571.39 256.169 569.579 254.872 567.916 253.901C566.162 248.151 563.468 243.419 562.255 236.741C558.362 215.312 560.124 188.477 567.211 168.222Z"/><path fill="#CB6B6D" transform="scale(0.390625 0.390625)" d="M380.588 499.2C383.088 500.389 385.578 501.601 388.055 502.837C388.601 503.234 390.127 504.408 390.64 504.644C393.075 506.093 394.494 506.988 396.805 508.739C393.263 514.137 388.179 526.085 384.851 532.502C383.021 530.781 381.021 528.677 378.729 527.681L378.412 528.074L376.519 525.578C373.633 523.28 371.249 521.761 368.134 519.762C372.772 513.157 376.608 506.208 380.588 499.2Z"/><path fill="#CB6B6D" transform="scale(0.390625 0.390625)" d="M380.588 499.2C383.088 500.389 385.578 501.601 388.055 502.837C384.164 510.354 380.584 518.242 376.519 525.578C373.633 523.28 371.249 521.761 368.134 519.762C372.772 513.157 376.608 506.208 380.588 499.2Z"/><path fill="#401646" transform="scale(0.390625 0.390625)" d="M388.055 502.837C388.601 503.234 390.127 504.408 390.64 504.644C387.421 511.381 382.887 522.153 378.729 527.681L378.412 528.074L376.519 525.578C380.584 518.242 384.164 510.354 388.055 502.837Z"/><path fill="#FCFAF4" transform="scale(0.390625 0.390625)" d="M278.692 357.129C282.35 363.189 295.142 424.375 294.317 428.691L293.541 427.609C291.213 422.715 289.664 417.534 286.715 412.707C284.517 408.719 279.707 404.023 278.026 399.847C273.26 388.007 277.2 369.573 278.692 357.129Z"/><path fill="#CB6B6D" transform="scale(0.390625 0.390625)" d="M757.855 877.81C764.465 875.919 765.96 875.954 773.017 875.99C770.964 878.464 765.788 883.535 765.906 886.272C767.967 887.365 774.273 885.513 779.777 887.885C781.399 887.68 782.509 887.782 783.341 886.35C782.171 885.141 782.307 885.495 780.352 885.032L784.428 884.679C786.215 886.534 787.017 887.352 788.449 889.468C786.412 890.334 783.353 891.518 781.503 892.552C781.374 892.679 781.245 892.807 781.116 892.934L780.492 893.575C778.802 895.291 777.663 896.084 777.979 898.637C780.77 899.305 788.514 894.26 791.735 892.509C794.148 894.843 799.724 899.246 801.159 902.086L800.681 902.72C795.157 904.464 783.715 904.558 777.49 904.778C769.969 898.455 762.746 886.35 757.855 877.81Z"/><path fill="#D64856" transform="scale(0.390625 0.390625)" d="M784.428 884.679C786.215 886.534 787.017 887.352 788.449 889.468C786.412 890.334 783.353 891.518 781.503 892.552C781.713 890.66 781.85 890.559 783.105 889.116L783.038 888.6L779.777 887.885C781.399 887.68 782.509 887.782 783.341 886.35C782.171 885.141 782.307 885.495 780.352 885.032L784.428 884.679Z"/><path fill="#CB6B6D" transform="scale(0.390625 0.390625)" d="M272.408 673.634L275.994 675.608C274.644 679.551 287.826 694.065 290.367 698.588C286.543 701.923 282.989 705.409 279.26 708.688L276.382 704.332C271.27 696.532 266.619 689.69 260.629 682.51C263.765 680.097 269.247 675.609 272.408 673.634Z"/><path fill="#FCFAF4" transform="scale(0.390625 0.390625)" d="M423.849 192.962C424.659 199.92 415.367 210.022 411.435 215.61C407.137 221.719 403.045 227.928 398.928 234.162C394.797 233.562 391.648 233.272 387.496 233.583L387.125 233.245C387.3 231.536 390.491 227.193 391.587 225.39C399.82 211.857 409.689 200.447 423.849 192.962Z"/><path fill="#FCFAF4" transform="scale(0.390625 0.390625)" d="M303.086 548.355C306.364 564.339 298.813 609.366 291.464 623.715C287.829 609.885 294.287 575.125 298.25 560.381C299.057 557.378 301.717 551.374 303.086 548.355Z"/><path fill="#CB6B6D" transform="scale(0.390625 0.390625)" d="M214.369 341.808C216.975 345.093 221.429 349.318 220.762 353.46C221.394 353.208 221.907 353.132 222.36 352.62L222.158 352.283L222.463 352.181L223.184 353.015L222.74 352.899L223.714 353.506L230.08 363.075C227.158 368.84 225.335 372.434 223.447 378.674C221.149 376.327 218.054 372.986 215.631 370.941L214.815 370.191C211.936 367.757 208.239 365.402 205.068 363.265C207.337 355.781 210.458 348.581 214.369 341.808Z"/><path fill="#CB6B6D" transform="scale(0.390625 0.390625)" d="M220.762 353.46C221.394 353.208 221.907 353.132 222.36 352.62L222.158 352.283L222.463 352.181L223.184 353.015L222.74 352.899L223.714 353.506L230.08 363.075C227.158 368.84 225.335 372.434 223.447 378.674C221.149 376.327 218.054 372.986 215.631 370.941L214.815 370.191C215.896 362.575 217.521 360.257 220.762 353.46Z"/><defs><linearGradient id="gradient_1" gradientUnits="userSpaceOnUse" x1="219.83905" y1="361.86926" x2="217.28311" y2="360.41589"><stop offset="0" stop-color="#56123F"/><stop offset="1" stop-color="#371247"/></linearGradient></defs><path fill="url(#gradient_1)" transform="scale(0.390625 0.390625)" d="M220.762 353.46C221.394 353.208 221.907 353.132 222.36 352.62L222.158 352.283L222.463 352.181L223.184 353.015L222.74 352.899L223.714 353.506C221.41 359.237 218.271 365.274 215.631 370.941L214.815 370.191C215.896 362.575 217.521 360.257 220.762 353.46Z"/><path fill="#FCFAF4" transform="scale(0.390625 0.390625)" d="M677.919 874.749C688.707 881.684 700.614 895.358 700.621 908.919L699.899 909.523C689.802 905.365 684.638 902.901 676.468 895.625C676.497 888.209 676.797 882.098 677.919 874.749Z"/><path fill="#CB6B6D" transform="scale(0.390625 0.390625)" d="M182.147 313.225C185.917 315.527 189.345 318.055 192.925 320.63C185.01 326.743 181.321 340.572 178.646 349.753C175.785 349.081 170.684 346.675 167.788 345.377C170.875 332.435 175.311 324.25 182.147 313.225Z"/><path fill="#CB6B6D" transform="scale(0.390625 0.390625)" d="M170.774 306.266C173.346 308.29 176.943 310.413 179.779 312.191C174.81 318.112 169.491 328.43 166.778 335.726C165.881 338.137 165.459 341.426 164.565 343.635L164.29 344.297C160.944 343.189 157.441 341.708 154.148 340.387C160.472 324.405 160.698 321.524 170.774 306.266Z"/><path fill="#CB6B6D" transform="scale(0.390625 0.390625)" d="M221.282 704.962L221.691 704.94C223.347 705.89 233.58 725.465 235.381 728.482C231.152 729.174 226.908 729.78 222.654 730.299C222.28 730.39 221.601 730.289 221.168 730.258C218.478 727.389 211.045 713.095 208.732 708.825C213.385 707.598 216.754 706.579 221.282 704.962Z"/><path fill="#CB6B6D" transform="scale(0.390625 0.390625)" d="M162.139 304.467C164.374 304.538 167.698 304.634 169.085 306.502C168.173 308.441 165.085 309.859 163.217 312.332C157.029 320.525 154.017 328.887 151.364 338.608L150.765 338.887L142.437 334.692C146.008 323.375 151.565 310.873 162.139 304.467Z"/><path fill="#CB6B6D" transform="scale(0.390625 0.390625)" d="M194.562 321.484C197.547 323.944 200.064 326.315 202.881 328.973C198.124 334.49 195.541 339.917 193.11 346.811C192.316 349.062 191.553 352.816 190.321 354.615C187.325 353.199 184.606 352.139 181.525 350.936C185.64 338.349 188.543 333.019 194.562 321.484Z"/><path fill="#CB6B6D" transform="scale(0.390625 0.390625)" d="M203.937 330.722C205.595 331.479 211.549 338.409 213.144 340.174C208.601 345.224 204.451 355.367 202.628 361.855C202.276 361.741 195.029 357.22 193.584 356.426C195.249 347.761 199.764 338.395 203.937 330.722Z"/><path fill="#FCFAF4" transform="scale(0.390625 0.390625)" d="M768.607 827.655C772.773 827.321 774.111 827.571 777.98 828.573C779.612 830.769 780.817 833.251 781.532 835.892C783.92 844.932 779.634 856.254 775.026 864.042C777.394 853.996 779.486 843.05 775.562 833.259L772.507 830.649C769.301 832.561 768.298 832.947 765.621 835.611C759.552 842.993 758.429 852.6 762.329 861.484C763.409 863.946 766.261 866.488 766.666 869.037L766.259 869.488C760.648 869.149 757.167 856.841 757.174 852.01C757.188 842 762.012 834.61 768.607 827.655Z"/><path fill="#CB6B6D" transform="scale(0.390625 0.390625)" d="M245.421 318.193C249.856 317.065 255.132 315.133 259.192 314.281C262.53 320.177 267.01 327.659 269.437 333.852C270.289 335.35 270.205 335.267 270.308 337.009L272.566 345.195C269.402 344.655 268.425 344.532 265.178 344.503C264.501 342.456 263.544 339.823 263.062 337.776L262.425 335.85C261.454 335.035 260.379 332.663 259.707 331.419C261.675 330.433 262.2 330.236 263.852 328.85L263.887 328.062C261.339 326.635 260.215 327.916 258.161 329.283C256.837 328.689 256.105 327.072 255.165 325.672L254.144 324.883C251.066 321.092 249.847 320.34 245.421 318.193Z"/><path fill="#CB6B6D" transform="scale(0.390625 0.390625)" d="M263.062 337.776L270.308 337.009L272.566 345.195C269.402 344.655 268.425 344.532 265.178 344.503C264.501 342.456 263.544 339.823 263.062 337.776Z"/><path fill="#491744" transform="scale(0.390625 0.390625)" d="M269.437 333.852C270.289 335.35 270.205 335.267 270.308 337.009L263.062 337.776L262.425 335.85C264.159 335.107 267.257 334.611 269.437 333.852Z"/><path fill="#7B2F5D" transform="scale(0.390625 0.390625)" d="M254.144 324.883C255.681 322.19 256.16 321.499 259.094 320.604C259.736 322.956 256.632 324.186 255.165 325.672L254.144 324.883Z"/><path fill="#CB6B6D" transform="scale(0.390625 0.390625)" d="M231.78 365.908L236.934 373.655C237.179 375.522 236.793 374.69 238.422 376.084C240.383 378.216 242.751 381.976 244.438 384.484C242.568 387.594 240.552 391.128 238.585 394.134C236.651 391.666 232.294 388.502 232.187 386.021C231.829 385.584 231.45 385.356 230.988 384.999L229.927 385.081C227.896 383.193 226.121 381.426 224.183 379.454C226.756 376.025 229.714 369.878 231.78 365.908Z"/><path fill="#CB6B6D" transform="scale(0.390625 0.390625)" d="M238.422 376.084C240.383 378.216 242.751 381.976 244.438 384.484C242.568 387.594 240.552 391.128 238.585 394.134C236.651 391.666 232.294 388.502 232.187 386.021C234.223 384.465 237.136 378.511 238.422 376.084Z"/><path fill="#491744" transform="scale(0.390625 0.390625)" d="M236.934 373.655C237.179 375.522 236.793 374.69 238.422 376.084C237.136 378.511 234.223 384.465 232.187 386.021C231.829 385.584 231.45 385.356 230.988 384.999C232.738 381.265 234.968 377.313 236.934 373.655Z"/><path fill="#CB6B6D" transform="scale(0.390625 0.390625)" d="M203.761 709.748L204.002 709.737C205.519 710.725 208.538 717.917 209.607 719.957C211.752 724.019 214.102 727.969 216.65 731.791C213.647 731.869 210.643 731.924 207.64 731.955C202.202 726.627 196.228 717.508 192.943 710.618C196.546 710.29 200.152 710 203.761 709.748Z"/><path fill="#E67168" transform="scale(0.390625 0.390625)" d="M238.585 394.134C240.552 391.128 242.568 387.594 244.438 384.484L246.183 385.893C247.845 387.87 257.308 399.119 257.984 400.794C257.155 404.345 255.789 406.414 252.35 407.974C247.893 403.769 243.779 399.833 239.507 395.436L238.585 394.134Z"/><path fill="#491744" transform="scale(0.390625 0.390625)" d="M238.585 394.134C240.552 391.128 242.568 387.594 244.438 384.484L246.183 385.893C243.906 389.591 242.378 392.173 239.507 395.436L238.585 394.134Z"/><path fill="#CB6B6D" transform="scale(0.390625 0.390625)" d="M275.994 675.608C286.874 678.833 292.998 680.875 304.822 681.016C302.59 684.229 300.708 686.928 298.236 689.947L293.014 696.049C288.685 689.036 282.7 680.556 275.994 675.608Z"/><path fill="#F4C65A" transform="scale(0.390625 0.390625)" d="M553.653 257.176C563.557 261.109 565.126 261.794 575.709 261.524L569.916 271.267C563.492 268.995 556.778 266.728 550.419 264.339C550.788 262.947 551.352 261.039 551.636 259.675C552.186 259.175 553.152 257.826 553.653 257.176Z"/><path fill="#E67168" transform="scale(0.390625 0.390625)" d="M333.192 359.503C334.284 352.691 335.844 329.174 345.518 329.985C346.591 331.621 342.919 336.13 341.776 338.02C338.349 343.689 335.468 353.568 335.432 360.039C334.773 365.38 333.861 369.581 335.25 374.795C333.42 379.267 331.854 383.288 329.528 387.549C331.237 378.425 330.864 369.298 333.192 359.503Z"/><path fill="#CB6B6D" transform="scale(0.390625 0.390625)" d="M805.251 905.887C806.947 906.46 808.952 908.617 810.357 909.92C808.591 912.833 803.649 923.869 801.953 924.799L800.775 924.372C797.639 922.338 795.897 920.865 793.03 918.434C797.711 912.88 798.707 909.769 805.251 905.887Z"/><path fill="#CB6B6D" transform="scale(0.390625 0.390625)" d="M371.768 495.766C373.628 496.449 375.717 497.526 377.528 498.397C374.243 503.063 367.83 515.245 365.521 517.864C363.054 516.632 360.563 515.447 358.05 514.31C362.662 508.67 368.334 502.105 371.768 495.766Z"/><path fill="#CB6B6D" transform="scale(0.390625 0.390625)" d="M362.285 494.575L369.425 495.237C367.44 497.751 356.707 512.071 354.884 512.713C352.209 511.645 349.525 510.142 346.957 508.8C352.413 504.306 356.843 498.819 362.285 494.575Z"/><path fill="#F4C65A" transform="scale(0.390625 0.390625)" d="M770.716 836.789C775.236 838.358 771.491 859.992 769.912 863.134L769.031 862.165C762.083 855.213 764.018 843.419 770.716 836.789Z"/><path fill="#E67168" transform="scale(0.390625 0.390625)" d="M346.908 333.58C348.457 335.04 350.917 339.394 352.043 341.321C348.179 347.818 344.428 356.711 341.021 363.768L338.955 367.601C339.619 363.719 340.27 359.835 340.959 355.958C342.313 348.339 344.911 341.038 346.908 333.58Z"/><path fill="#CB6B6D" transform="scale(0.390625 0.390625)" d="M398.479 511.266C399.433 512.503 400.407 513.724 401.399 514.931C399.357 521.007 394.501 536.556 391.188 541.155L387.362 535.117C392.569 526.983 395.324 520.298 398.479 511.266Z"/><path fill="#CB6B6D" transform="scale(0.390625 0.390625)" d="M320.705 490.296C321.312 490.698 332.659 510.951 332.72 511.7L331.305 512.619L326.625 515.232C320.549 503.672 319.74 503.573 320.705 490.296Z"/><path fill="#F4C65A" transform="scale(0.390625 0.390625)" d="M548.41 268.936C553.332 272.986 560.892 276.21 567.172 277.392C566.124 279.703 565.549 280.507 564.079 282.602C560.029 281.674 550.015 277.815 545.644 276.259L548.41 268.936Z"/><path fill="#F6F6F6" transform="scale(0.390625 0.390625)" d="M211.779 392.884L211.823 391.203C214.099 386.884 215.617 385.88 219.354 382.921C221.456 385.168 220.848 385.314 219.03 387.817L219.283 388.521L219.776 387.823C220.379 386.975 220.751 386.565 221.478 385.799L222.276 385.716L222.799 386.234L222.069 388.451C223.126 387.728 222.575 388.065 223.723 387.443C224.703 388.437 224.91 388.405 225.088 389.733C223.949 390.823 219.902 394.422 219.747 395.752C223.035 394.54 224.25 389.47 226.877 390.605C226.826 392.865 224.236 394.414 222.683 396.354C220.649 398.35 216.08 395.9 214.978 393.897L215.556 392.457L215.286 392.036C214.693 392.537 214.094 393.032 213.492 393.521L211.779 392.884Z"/><path fill="#FCE05C" transform="scale(0.390625 0.390625)" d="M262.287 488.949C258.156 480.086 250.681 469.21 245.593 458.835C250.937 465.92 260.304 476.464 266.859 482.206L266.288 482.917C264.556 485.02 263.657 486.635 262.287 488.949Z"/><path fill="#FCE05C" transform="scale(0.390625 0.390625)" d="M800.261 839.35C801.562 836.076 803.771 829.043 806.485 827.417C814.18 828.612 804.6 839.987 804.099 842.703C803.187 845.017 802.969 845.208 801.402 847.208C800.028 845.428 799.989 845.34 798.012 844.374C798.525 842.817 799.537 840.866 800.261 839.35Z"/><path fill="#FCFAF4" transform="scale(0.390625 0.390625)" d="M800.261 839.35C801.531 840.479 802.81 841.596 804.099 842.703C803.187 845.017 802.969 845.208 801.402 847.208C800.028 845.428 799.989 845.34 798.012 844.374C798.525 842.817 799.537 840.866 800.261 839.35Z"/><path fill="#FCFAF4" transform="scale(0.390625 0.390625)" d="M798.012 844.374C799.989 845.34 800.028 845.428 801.402 847.208C800.295 848.423 797.797 852.357 796.723 853.932C792.4 860.268 786.816 865.271 779.876 868.626C784.662 863.422 789.935 857.948 793.753 852.028C795.262 849.687 796.477 846.942 798.012 844.374Z"/><path fill="#F4C65A" transform="scale(0.390625 0.390625)" d="M309.502 473.928C309.934 473.751 310.989 473.488 311.479 473.352L311.933 473.732L312.8 473.884C318.121 478.814 317.464 488.883 315.93 495.264C313.999 490.06 310.916 482.587 310.71 477.201C310.621 474.89 310.891 475.736 309.502 473.928Z"/><path fill="#FCFAF4" transform="scale(0.390625 0.390625)" d="M385.37 277.148C389.109 274.296 391.567 273.024 396.026 271.42C393.729 274.933 392.765 276.945 390.97 280.785C388.931 281.518 387.747 282.028 385.624 282.357C384.054 282.937 383.59 283.074 382.129 283.995C381.59 283.905 381.949 283.997 381.133 283.502C381.094 281.167 382.346 279.106 383.734 277.334L385.37 277.148Z"/><path fill="#31242D" transform="scale(0.390625 0.390625)" d="M383.734 277.334L385.37 277.148C385.113 279.587 385.138 279.952 385.624 282.357C384.054 282.937 383.59 283.074 382.129 283.995C381.59 283.905 381.949 283.997 381.133 283.502C381.094 281.167 382.346 279.106 383.734 277.334Z"/><path fill="#FCFAF4" transform="scale(0.390625 0.390625)" d="M383.734 277.334C383.844 280.017 383.452 281.588 382.129 283.995C381.59 283.905 381.949 283.997 381.133 283.502C381.094 281.167 382.346 279.106 383.734 277.334Z"/><path fill="#FCFAF4" transform="scale(0.390625 0.390625)" d="M397.666 253.208C406.372 252.293 416.767 257.967 422.621 264.167C418.738 262.324 414.638 260.058 410.662 258.119C401.828 254.023 392.738 255.528 383.208 255.968C389.168 253.996 391.361 253.648 397.666 253.208Z"/><path fill="#FCFAF4" transform="scale(0.390625 0.390625)" d="M853.628 600.736C858.725 602.359 862.677 608.366 860.194 613.231C859.592 612.907 859.003 612.561 858.426 612.194C854.06 609.365 850.43 605.696 853.628 600.736Z"/><path fill="#CB6B6D" transform="scale(0.390625 0.390625)" d="M794.184 907.26L794.634 907.232C794.746 908.216 790.793 914.124 789.797 915.919L786.284 913.111C784.461 911.623 782.519 909.756 780.76 908.15C785.028 908.08 789.886 907.593 794.184 907.26Z"/><path fill="#CB6B6D" transform="scale(0.390625 0.390625)" d="M913.958 594.013C915.027 596.501 911.542 603.731 909.44 605.647C908.202 606.776 907.692 606.382 906.128 606.349C905.294 604.854 905.387 604.669 905.212 602.998C906.428 599.275 910.798 596.497 913.958 594.013Z"/><path fill="#FCFAF4" transform="scale(0.390625 0.390625)" d="M303.295 457.185C305.972 460.631 312.926 469.12 311.479 473.352C310.989 473.488 309.934 473.751 309.502 473.928L308.923 474.613L308.351 474.391C305.702 468.245 304.732 463.692 303.295 457.185Z"/><path fill="#CB6B6D" transform="scale(0.390625 0.390625)" d="M265.643 346.704C268.284 346.855 270.213 346.609 272.098 348.368C272.973 350.464 272.404 354.116 272.439 356.601C270.993 356.028 268.734 354.807 267.272 354.077C266.826 351.7 266.177 349.086 265.643 346.704Z"/><path fill="#CB6B6D" transform="scale(0.390625 0.390625)" d="M777.081 877.567C780.091 880.179 781.861 881.674 784.428 884.679L780.352 885.032C779.646 885.037 772.976 884.002 771.21 883.851L777.081 877.567Z"/><path fill="#CB6B6D" transform="scale(0.390625 0.390625)" d="M902.835 603.537C902.859 603.149 897.853 613.737 897.176 615.596C895.359 614.69 894.6 614.595 892.587 614.129C891.714 613.884 892.122 614.107 891.406 613.393C892.615 610.696 900.102 605.58 902.835 603.537Z"/><path fill="#FCFAF4" transform="scale(0.390625 0.390625)" d="M869.786 617.005L870.405 617.105L870.303 617.781C866.891 621.293 863.458 625.47 858.668 625.738L856.657 624.622L856.731 623.936C859.839 621.714 866.143 617.815 869.786 617.005Z"/><path fill="#CB6B6D" transform="scale(0.390625 0.390625)" d="M812.044 911.212C814.009 912.694 816.58 915.184 818.459 916.897C817.196 917.47 815.484 917.969 814.127 918.412C812.098 919.304 812.328 919.575 810.44 919.369L809.797 918.449C809.894 915.86 811.045 913.652 812.044 911.212Z"/><path fill="#F6F6F6" transform="scale(0.390625 0.390625)" d="M229.983 393.531C231.534 395.124 232.748 395.762 232.935 397.589L231.147 399.263C229.736 400.569 229.323 400.621 227.566 401.28C226.669 400.212 226.263 400.048 226.175 398.732C226.622 396.724 228.52 395.106 229.983 393.531Z"/><path fill="#D64856" transform="scale(0.390625 0.390625)" d="M896.089 622.273C896.728 620.09 896.357 620.083 897.775 618.786C899.657 618.414 898.84 618.238 900.347 619.111C901.19 621.015 901.025 620.034 900.756 622.177C899.497 623.739 898.061 625.946 895.961 625.953C895.12 624.572 895.588 624.446 896.089 622.273Z"/><path fill="#CB6B6D" transform="scale(0.390625 0.390625)" d="M896.089 622.273L900.756 622.177C899.497 623.739 898.061 625.946 895.961 625.953C895.12 624.572 895.588 624.446 896.089 622.273Z"/><path fill="#E67168" transform="scale(0.390625 0.390625)" d="M270.432 364.516L271.135 364.403C271.008 370.244 270.029 375.563 268.986 381.264C268.774 377.873 268.024 369.413 268.499 366.551C269.493 365.876 270.051 365.699 270.432 364.516Z"/><path fill="#E67168" transform="scale(0.390625 0.390625)" d="M270.432 364.516C268.06 362.331 266.332 360.982 268.302 357.784C269.871 357.196 269.072 357.223 270.777 357.907C272.234 360.326 271.631 361.301 271.135 364.403L270.432 364.516Z"/><path fill="#F6F6F6" transform="scale(0.390625 0.390625)" d="M222.683 396.354C224.623 395.358 227.475 391.976 228.881 392.281C229.153 393.37 229.126 392.788 228.369 394.132C226.793 395.955 225.69 397.519 223.632 398.744L222.582 398.287C222.59 397.707 222.542 396.864 222.683 396.354Z"/><path fill="#F2EECC" transform="scale(0.390625 0.390625)" d="M874.305 620.306C878.402 615.491 880.123 614.017 886.036 611.814C882.374 614.747 878.754 617.732 875.178 620.77L874.305 620.306Z"/><path fill="#FCE05C" transform="scale(0.390625 0.390625)" d="M298.051 546.902C297.75 544.92 297.206 543.148 298.094 541.418L299.217 540.448L300.084 540.709C301.184 543.561 300.072 544.322 298.484 546.926L298.051 546.902Z"/><path fill="#F2EECC" transform="scale(0.390625 0.390625)" d="M861.641 632.234C863.068 632.306 862.44 632.048 863.622 632.777C863.563 634.823 862.69 635.485 861.21 637.001C859.895 636.823 859.813 636.861 858.612 636.343C858.644 634.771 860.27 633.667 861.641 632.234Z"/><path fill="#FCFAF4" transform="scale(0.390625 0.390625)" d="M882.096 604.747C883.708 605.972 883.685 605.536 884.043 607.063C883.046 608.453 880.818 609.038 879.128 609.7L878.146 609.879C878.287 608.789 881.141 605.861 882.096 604.747Z"/><path fill="#EADAB8" transform="scale(0.390625 0.390625)" d="M143.35 323.022C143.183 324.306 139.767 331.847 139.093 333.116C138.004 329.839 141.535 325.797 143.35 323.022Z"/><path fill="#B7A077" transform="scale(0.390625 0.390625)" d="M874.305 620.306L875.178 620.77C874.116 622.051 872.507 624.317 870.785 624.372C871.332 622.777 873.007 621.512 874.305 620.306Z"/></svg>