<?xml version="1.0" encoding="utf-8" ?><svg xmlns="http://www.w3.org/2000/svg" xmlns:xlink="http://www.w3.org/1999/xlink" width="400" height="400" viewBox="0 0 400 400"><path fill="#4B2C76" transform="scale(0.390625 0.390625)" d="M0 0L357.307 0L361.895 0L370.747 0L375.44 0L428.003 0L435.007 0L631.465 0L757.869 0L901.16 0L1024 0L1024 2.17061L1024 329.137L1024 335.634L1024 424.968L1024 428.129L1024 432.401L1024 436.673L1024 480.593L1024 496.176L1024 774.79L1024 793.077L1024 1024L699.023 1024L543.023 1024L540.776 1024L408.409 1024L256.331 1024L247.705 1024L0 1024L0 932.085L0 915.765L0 802.67L0 542.577L0 466.077L0 447.04L0 446.359L0 0Z"/><path fill="#FEFEFE" transform="scale(0.390625 0.390625)" d="M0 0L357.307 0L356.897 230.18C356.897 260.023 356.559 291.005 357.264 320.78L126.876 401.191C97.6059 411.269 68.4259 421.607 39.3396 432.205L13.0529 441.595C9.73033 442.785 2.90434 445.021 0 446.359L0 0Z"/><path fill="#FEFEFE" transform="scale(0.390625 0.390625)" d="M566.391 845.776C561.607 830.983 559.654 815.841 560.005 800.32C560.811 764.578 572.757 728.305 599.147 703.297C611.662 691.437 631.714 678.099 649.795 678.931C663.567 679.565 674.431 690.318 683.05 699.974C737.38 760.843 759.912 839.234 755.225 919.921C715.678 953.55 688.375 975.553 664.989 1023.09C667.817 1023.37 671.436 1023.42 674.346 1023.53C701.845 964.055 783.45 906.496 837.809 872.254C894.527 836.524 962.004 800.04 1024 774.79L1024 793.077L1024 1024L699.023 1024L543.023 1024C543.073 1011.08 540.02 995.372 543.682 982.758C548.327 966.08 560.552 954.119 569.77 940.278C593.118 905.22 616.246 868.834 633.424 830.309C635.361 825.966 647.821 793.503 641.731 792.057C639.023 794.692 635.997 811.828 633.807 816.77C630.525 823.855 627.954 832.38 624.175 839.183C605.682 872.468 585.635 906.797 564.147 938.215C562.875 912.432 563.97 882.094 569.785 856.916C572.032 846.948 574.768 837.095 577.984 827.396C582.589 813.339 598.9 772.373 597.777 759.188C597.666 757.888 597.648 756.92 596.636 756.078C594.727 757.798 592.469 768.662 591.532 772.003C588.026 784.503 583.307 796.405 579.016 808.628C574.717 820.98 570.508 833.363 566.391 845.776Z"/><path fill="#583979" transform="scale(0.390625 0.390625)" d="M692.347 1023.27C715.976 976.729 777.816 933.506 820.161 905.415C856.554 881.084 894.079 858.491 932.611 837.713C963.122 821.08 991.587 805.777 1024 793.077L1024 1024L699.023 1024C697.075 1023.65 694.376 1023.47 692.347 1023.27Z"/><path fill="#4B2C76" transform="scale(0.390625 0.390625)" d="M675.653 878.056C678.446 877.833 681.176 878.099 682.195 881.073C684.09 886.611 679.705 898.048 677.705 903.057C659.808 947.874 622.649 986.283 579.352 1007.28C577.317 1008.26 575.242 1008.97 573.198 1008.14C572.566 1005.6 575.672 1004.39 577.707 1003.41C580.863 1001.91 583.789 1000.45 586.841 998.723C595.111 994.006 603.053 988.735 610.612 982.948C640.245 960.846 662.932 930.724 675.995 896.141C677.34 892.675 680.26 885.667 677.961 882.431C673.905 881.666 663.969 893.19 660.97 896.448C634.424 925.365 604.663 951.129 570.016 969.894C566.578 971.757 554.929 978.788 552.337 976.45L552.412 975.413C553.228 974.26 554.328 973.2 555.598 972.578C570.421 965.314 584.01 957.138 597.515 947.568C613.113 936.39 627.822 924.022 641.509 910.572C649.867 902.507 666.861 882.903 675.653 878.056Z"/><path fill="#A795A6" transform="scale(0.390625 0.390625)" d="M435.007 0L631.465 0L757.869 0L901.16 0C885.991 10.8966 871.442 22.1176 856.487 33.302C830.121 53.0258 803.627 72.5798 777.009 91.9628L722.771 131.838C718.856 134.688 700.919 147.101 698.501 149.67C690.613 148.872 680.968 145.891 672.816 144.809C624.442 138.391 556.02 137.98 528.339 186.445C522.417 196.814 518.906 209.401 522.103 221.14C517.964 230.511 515.52 238.295 514.632 248.639C513.296 263.949 516.641 280.749 511.05 295.33C504.692 311.911 490.255 317.257 474.819 322.537C465.815 325.895 463.965 334.613 466.694 342.964C470.525 354.689 483.641 360.741 475.751 374.56C472.656 379.979 468.408 382.89 466.174 388.894C467.625 394.919 468.699 395.935 473.238 399.918C463.292 410.646 465.928 414.569 473.371 425.568C473.382 432.244 473.058 440.724 474.519 446.979C478.74 466.01 488.574 474.247 506.993 478.903C520.665 482.359 529.888 483.165 543.692 483.407C546.926 483.463 563.68 492.934 567.577 495.487C556.161 501.097 537.844 507.988 525.738 512.917C495.555 525.12 465.274 537.076 434.896 548.787C434.38 493.191 434.39 437.592 434.926 381.996L435.377 251.596L435.007 0Z"/><path fill="#FEFEFE" transform="scale(0.390625 0.390625)" d="M631.465 0L757.869 0C739.201 13.7226 719.21 27.1127 700.2 40.4188C652.542 73.7049 604.336 106.2 555.602 137.891L473.385 190.149C462.141 197.404 446.391 206.97 435.925 214.816L435.914 194.552C441.644 189.092 447.93 182.034 453.465 176.207C461.226 168.098 469.082 160.083 477.034 152.162C515.765 113.008 554.866 74.2216 594.331 35.8078C606.689 23.8727 618.842 11.6361 631.465 0Z"/><path fill="#A795A6" transform="scale(0.390625 0.390625)" d="M901.16 0L1024 0L1024 2.17061L1024 329.137C1020.31 330.769 1016.2 332.16 1012.44 333.652C978.012 347.288 943.063 359.616 908.639 373.233C906.915 366.173 904.647 359.258 901.855 352.548C892.788 330.707 879.102 312.187 858.647 299.864C852.805 296.344 847.395 296.273 842.684 291.043C839.67 287.697 835.366 285.255 831.203 283.549C832.632 271.512 825.509 248.511 820.527 237.445C800.478 192.921 764.658 173.354 721.196 157.052C713.65 154.482 705.955 152.451 698.501 149.67C700.919 147.101 718.856 134.688 722.771 131.838L777.009 91.9628C803.627 72.5798 830.121 53.0258 856.487 33.302C871.442 22.1176 885.991 10.8966 901.16 0Z"/><path fill="#FEFEFE" transform="scale(0.390625 0.390625)" d="M901.16 0L1024 0L1024 2.17061C997.321 16.6986 970.771 30.1575 943.87 44.1336L810.04 112.887C790.724 122.706 771.338 132.388 751.885 141.933C744.955 145.317 727.053 153.407 721.196 157.052C713.65 154.482 705.955 152.451 698.501 149.67C700.919 147.101 718.856 134.688 722.771 131.838L777.009 91.9628C803.627 72.5798 830.121 53.0258 856.487 33.302C871.442 22.1176 885.991 10.8966 901.16 0Z"/><path fill="#FEFEFE" transform="scale(0.390625 0.390625)" d="M357.307 0L361.895 0L370.747 0L375.44 0L428.003 0L427.547 261.664C427.579 301.307 427.001 342.685 427.565 382.191C419.149 384.357 407.519 389.108 399.2 392.263L348.149 411.759L156.105 484.516C120.956 497.981 85.7217 511.224 50.4047 524.244L15.382 536.986C11.7177 538.335 3.54626 541.014 0.40374 542.581L0 542.577L0 466.077L0 447.04L0 446.359C2.90434 445.021 9.73033 442.785 13.0529 441.595L39.3396 432.205C68.4259 421.607 97.6059 411.269 126.876 401.191L357.264 320.78C356.559 291.005 356.897 260.023 356.897 230.18L357.307 0Z"/><path fill="#A795A6" transform="scale(0.390625 0.390625)" d="M357.307 0L361.895 0L370.747 0C369.935 110.049 369.858 220.103 370.516 330.153L151.599 408.017L52.5197 442.718C36.2569 448.442 19.9858 454.289 3.72974 460.04C2.60389 460.438 1.46354 461.168 0.77457 462.166C0.321134 462.822 0.454141 465.259 0.475749 466.153L0 466.077L0 447.04L0 446.359C2.90434 445.021 9.73033 442.785 13.0529 441.595L39.3396 432.205C68.4259 421.607 97.6059 411.269 126.876 401.191L357.264 320.78C356.559 291.005 356.897 260.023 356.897 230.18L357.307 0Z"/><path fill="#4B2C76" transform="scale(0.390625 0.390625)" d="M357.307 0L361.895 0L362.342 214.34L362.457 280.284C362.469 287.036 363.077 320.014 361.343 323.39C356.127 327.178 323.719 337.967 316.173 340.563L268.9 357.051L65.6231 428.079C48.88 433.997 32.0631 439.864 15.3986 446.009C12.8149 446.962 3.5898 450.74 1.33373 450.954L0 447.04L0 446.359C2.90434 445.021 9.73033 442.785 13.0529 441.595L39.3396 432.205C68.4259 421.607 97.6059 411.269 126.876 401.191L357.264 320.78C356.559 291.005 356.897 260.023 356.897 230.18L357.307 0Z"/><path fill="#4B2C76" transform="scale(0.390625 0.390625)" d="M370.747 0L375.44 0L375.09 215.316L375.061 293.073C375.027 304.784 375.486 320.919 374.768 332.35C368.878 335.718 350.06 342.265 342.639 344.949L284.278 365.819L82.0725 437.256L27.978 456.362C20.2398 459.047 7.44863 462.949 0.475749 466.153C0.454141 465.259 0.321134 462.822 0.77457 462.166C1.46354 461.168 2.60389 460.438 3.72974 460.04C19.9858 454.289 36.2569 448.442 52.5197 442.718L151.599 408.017L370.516 330.153C369.858 220.103 369.935 110.049 370.747 2.84217e-14L370.747 0Z"/><path fill="#A795A6" transform="scale(0.390625 0.390625)" d="M577.315 501.133C579.438 503.057 584.38 507.45 585.79 509.543C593.432 520.884 599.168 539.584 602.83 552.68C591.904 567.663 575.933 599.342 568.193 615.954C562.745 617.429 549.212 622.351 544.817 621.964C513.56 614.963 461.073 633.467 434.023 650.511C423.323 657.254 406.909 669.67 400.584 680.416C392.612 680.866 385.576 681.815 377.801 683.249C375.757 683.626 364.729 685.991 363.426 685.761C353.276 683.968 343.333 682.367 332.763 683.273C291.022 686.849 246.49 704.243 217.096 734.716C214.004 738.002 210.999 742.537 208.984 746.441C173.293 741.2 119.696 759.698 87.9093 775.078C79.6912 779.055 70.4322 784.344 62.4833 788.946C39.9533 787.423 20.1558 792.901 0 802.67L0 542.577L0.40374 542.581C0.621816 545.493 0.747991 548.411 0.782075 551.331C17.9495 544.656 35.176 538.134 52.4595 531.766L52.2903 698.484C35.2975 705.204 17.1852 711.909 0.454314 718.831L0.457189 728.501C71.7125 701.303 142.813 673.701 213.755 645.697L403.626 571.286L514.25 527.441L556.122 509.887C562.757 507.093 570.652 503.531 577.315 501.133Z"/><path fill="#583979" transform="scale(0.390625 0.390625)" d="M0 915.765C4.36905 912.629 10.0014 907.701 14.4546 904.217C23.2966 897.304 32.468 890.823 41.9365 884.797C98.9825 849.044 174.968 820.52 242.147 812.246C258.395 810.122 274.277 809.417 290.395 812.563C325.1 819.337 308.771 862.892 302.991 886.653C299.839 895.216 297.149 904.24 294.122 912.905C288.051 929.793 282.066 946.712 276.169 963.661C269.971 981.524 260.809 1006.14 256.331 1024L247.705 1024L0 1024L0 932.085L0 915.765Z"/><path fill="#FEFEFE" transform="scale(0.390625 0.390625)" d="M0 915.765C4.36905 912.629 10.0014 907.701 14.4546 904.217C23.2966 897.304 32.468 890.823 41.9365 884.797C98.9825 849.044 174.968 820.52 242.147 812.246C258.395 810.122 274.277 809.417 290.395 812.563C325.1 819.337 308.771 862.892 302.991 886.653C299.839 895.216 297.149 904.24 294.122 912.905C288.051 929.793 282.066 946.712 276.169 963.661C269.971 981.524 260.809 1006.14 256.331 1024L247.705 1024C249.782 1020.69 253.002 1012.03 254.46 1008.21C259.082 995.887 263.574 983.512 267.936 971.091C278.531 941.552 290.205 911.773 299.12 881.767C301.962 872.2 304.645 860.11 304.918 850.352C304.995 845.715 305.41 828.377 301.467 825.534C284.542 813.33 245.915 820.368 227.645 823.921C162.327 836.623 99.568 861.8 43.43 897.217C27.749 907.11 13.2729 919.361 0 932.085L0 915.765Z"/><path fill="#583979" transform="scale(0.390625 0.390625)" d="M538.209 711.941C538.459 717.789 536.399 724.495 535.602 730.281C531.826 757.709 528.308 787.181 526.558 814.752C526.141 820.644 525.892 826.547 525.81 832.454C525.783 834.664 525.86 843.38 525.572 845.03C523.473 844.508 523.94 844.478 522.402 843.935C509.987 839.544 495.529 841.345 482.746 842.715C479.987 843.01 476.68 844.294 474.761 844.009C474.011 840.738 469.718 818.219 470.226 816.992C470.91 815.342 474.742 812.701 476.211 811.412C484.985 803.707 503.544 788.782 509.531 779.946C510.858 777.987 512.01 775.469 511.685 773.043C511.525 771.851 510.837 771.108 509.856 770.475C508.095 769.34 504.449 769.11 502.464 769.669C497.009 771.207 458.429 807.49 453.325 813.893C454.749 820.6 458.822 840.432 459.118 847.021C457.188 849.645 449.876 850.025 446.272 851.308C423.154 859.54 393.499 873.724 411.429 902.617C412.14 903.762 417.767 903.697 419.218 903.709C423.134 914.944 430.526 940.191 432.862 951.717C417.272 956.782 414.175 971.259 418.907 985.167C419.132 985.829 412.84 995.326 412.799 996.892C411.737 1000.19 414.365 1005.09 414.372 1008.4C414.381 1012.21 410.587 1019.08 411.603 1022.65L414.828 1023.37C412.912 1023.54 410.246 1023.7 408.409 1024L256.331 1024C260.809 1006.14 269.971 981.524 276.169 963.661C282.066 946.712 288.051 929.793 294.122 912.905C297.149 904.24 299.839 895.216 302.991 886.653L303.6 886.598C305.224 883.794 308.037 870.833 309.292 866.761C311.547 859.445 312.084 848.872 312.523 841.217C312.732 837.574 312.295 832.707 311.501 829.094C310.823 827.206 309.509 824.205 308.772 822.597C309.209 823.551 314.456 813.763 314.792 812.697C316.154 808.376 320.722 803.206 322.048 799.123L321.344 798.892C323.221 795.684 325.413 792.672 327.887 789.9C358.796 755.283 490.098 714.598 538.209 711.941Z"/><path fill="#A795A6" transform="scale(0.390625 0.390625)" d="M909.911 379.256C939.109 367.709 968.977 357.748 998.07 345.866C1006.61 342.378 1015.36 338.79 1024 335.634L1024 424.968C1017.82 423.913 1007.05 424.308 1001.09 426.19C973.468 434.911 943.626 452.582 919.114 467.459C918.226 456.081 917.309 445.275 915.313 434.011C914.652 426.647 911.131 417.239 910.857 410.034C910.45 399.313 912.016 390.294 909.911 379.256Z"/><path fill="#583979" transform="scale(0.390625 0.390625)" d="M929.766 468.622L927.629 467.57L927.701 466.598C951.373 452.68 979.584 434.999 1006.82 428.246C1011.38 427.117 1019.12 428.041 1024 428.129L1024 432.401L1024 436.673L1024 480.593L1024 496.176C1023.7 494.125 1023.45 492.513 1023.35 490.45C1007.21 501.474 990.898 523.11 981.2 540.095C978.085 545.552 976.275 551.493 973.723 556.222L973.456 557.804C962.701 545.98 940.088 538.083 924.558 543.22C924.89 521.676 923.512 500.139 920.436 478.813C919.902 477.178 919.431 473.82 919.12 472.003C922.732 470.308 925.895 469.438 929.766 468.622Z"/><path fill="#FEFEFE" transform="scale(0.390625 0.390625)" d="M967.315 549.472C978.839 521.757 999.716 497.893 1024 480.593L1024 496.176C1023.7 494.125 1023.45 492.513 1023.35 490.45C1007.21 501.474 990.898 523.11 981.2 540.095C978.085 545.552 976.275 551.493 973.723 556.222C971.648 553.915 969.511 551.664 967.315 549.472Z"/><path fill="#FEFEFE" transform="scale(0.390625 0.390625)" d="M929.766 468.622C948.71 464.942 976.237 470.085 978.419 492.261C979.326 501.481 968.094 538.236 963.681 545.836C962.706 546.376 963.041 546.443 962.267 546.312C960.966 543.441 963.702 538.532 964.423 535.439C968.386 518.446 985.022 485.077 960.297 476.923C946.708 472.443 933.414 472.865 920.436 478.813C919.902 477.178 919.431 473.82 919.12 472.003C922.732 470.308 925.895 469.438 929.766 468.622Z"/><path fill="#FEFEFE" transform="scale(0.390625 0.390625)" d="M1024 432.401L1024 436.673C1001.98 446.792 991.055 460.765 977.359 479.562L976.4 479.522L976.042 478.837C976.249 476.286 981.549 469.91 983.303 467.533C994.652 452.157 1006.06 439.966 1024 432.401Z"/><path fill="#583979" transform="scale(0.390625 0.390625)" d="M924.558 543.22C940.088 538.083 962.701 545.98 973.456 557.804C984.077 571.148 985.678 582.312 983.542 599.327C981.44 616.062 972.761 645.975 965.503 661.3C965.446 658.953 965.202 655.56 965.668 653.356C965.2 652.669 964.019 652.563 963.541 651.663C961.711 648.223 960.049 644.696 958.205 641.263C954.21 633.764 949.803 626.492 945.005 619.479C935.731 606.006 927.495 599.602 918.335 587.951L917.738 587.184C919.59 579.936 924.803 557.736 924.323 550.894C924.508 548.472 924.501 545.678 924.558 543.22Z"/><path fill="#FEFEFE" transform="scale(0.390625 0.390625)" d="M924.558 543.22C940.088 538.083 962.701 545.98 973.456 557.804C984.077 571.148 985.678 582.312 983.542 599.327C981.44 616.062 972.761 645.975 965.503 661.3C965.446 658.953 965.202 655.56 965.668 653.356C966.365 652.34 967.251 649.712 967.565 648.412C974.952 617.804 993.462 563.464 950.314 551.384C942.549 549.21 932.316 547.083 925.027 551.151L924.323 550.894C924.508 548.472 924.501 545.678 924.558 543.22Z"/><path fill="#583979" transform="scale(0.390625 0.390625)" d="M400.584 680.416C406.909 669.67 423.323 657.254 434.023 650.511C461.073 633.467 513.56 614.963 544.817 621.964L545.005 622.599L546.281 623.098L545.365 622.66L546.113 623.136L545.584 623.312C540.582 625.028 535.615 627.626 530.536 629.604C501.559 640.886 466.871 655.727 452.134 684.953C448.166 692.822 446.753 700.931 442.401 708.833C434.207 686.709 425.281 679.349 400.584 680.416Z"/><path fill="#FEFEFE" transform="scale(0.390625 0.390625)" d="M432.736 955.53C433.959 958.331 435.182 961.233 436.459 964C435.451 965.609 434.091 967.666 434.366 969.677C435.299 976.48 474.313 998.623 482.057 1002.99C494.446 1009.99 507.022 1016.17 520.88 1019.67C527.27 1021.29 534.731 1021.63 540.776 1024L408.409 1024C410.246 1023.7 412.912 1023.54 414.828 1023.37C415.678 1019.44 416.501 1015.66 417.504 1011.77C420.136 1014.97 428.05 1025.14 432.506 1022.36C431.486 1015.16 407.381 1009.14 421.743 988.22C428.563 998.312 440.823 1014.03 452.686 1018.25L453.728 1018.04C453.845 1017.08 453.885 1015.98 453.097 1015.26C438.318 1001.86 404.114 974.583 432.736 955.53Z"/><path fill="#FEFEFE" transform="scale(0.390625 0.390625)" d="M299.739 812.354C302.967 804.703 306.28 799.143 311.596 792.656C318.886 783.855 327.363 776.11 336.786 769.643C384.276 736.773 482.513 707.381 540.322 701.7L538.209 711.941C490.098 714.598 358.796 755.283 327.887 789.9C325.413 792.672 323.221 795.684 321.344 798.892C317.133 804.875 313.109 813.54 309.837 820.195C306.338 816.197 304.199 814.995 299.739 812.354Z"/><path fill="#FEFEFE" transform="scale(0.390625 0.390625)" d="M477.834 401.73C481.833 403.207 494.153 407.859 497.633 405.176C495.156 401.193 474.109 397.864 471.527 390.821C471.91 385.863 481.444 378.52 482.605 369.801C484.66 354.372 474.071 352.339 470.855 338.954C467.113 326.023 483.801 325.502 492.585 321.149C524.622 305.271 517.839 277.324 519.517 247.64C520.229 235.049 527.194 220.741 535.001 209.736C551.793 186.065 580.047 174.047 608.067 169.496C604.912 176.55 603.041 184.111 602.541 191.822C600.469 222.881 616.398 250.202 636.081 272.849L635.721 273.348C635.197 273.607 635.073 273.826 634.628 274.256C633.223 289.775 641.027 309.843 649.394 322.718C654.713 330.902 660.26 337.701 657.34 347.675C655.594 353.642 654.869 361.218 654.948 367.376C656.38 365.341 658.003 362.249 659.162 359.881C667.416 343.008 697.041 320.034 712.61 341.474C717.705 348.49 719.287 359.028 717.69 367.655C714.937 382.524 705.546 395.463 693.141 403.945C685.967 408.861 671.974 415.537 662.97 413.704C653.45 411.766 655.649 401.845 654.22 399.689L653.393 400.22C651.229 404.141 651.251 410.82 654.362 413.855C667.457 426.631 692.237 413.287 702.236 404.767C702.25 407.281 702.339 409.793 702.502 412.301C703.768 429.348 712.574 452.682 725.786 464.099C722.973 478.502 720.789 495.439 723.957 509.888C676.644 522.734 645.336 552.316 614.677 588.677C612.179 562.787 606.126 542.45 595.972 518.753C598.135 515.597 600.133 512.219 602.017 508.875C614.508 486.719 628.267 465.28 640.697 443.108C641.96 440.857 642.938 438.513 643.456 435.98C637.45 440.285 631.24 445.492 625.074 449.355C588.177 472.473 540.337 486.895 498.024 470.475C484.982 465.414 479.543 453.062 478.598 439.912C478.282 435.522 478.748 430.739 477.941 426.373C474.109 413.181 467.135 414.272 477.834 401.73Z"/><path fill="#4B2C76" transform="scale(0.390625 0.390625)" d="M538.697 261.523C562.738 259.51 568.503 305.213 560.807 310.748C559.92 309.139 560.571 304.967 560.586 302.897C560.665 291.765 557.416 281.747 551.182 272.453C550.556 273.172 550.085 279.515 549.744 281.124C547.83 290.143 543.205 300.831 535.035 305.756C532.67 305.659 532.569 303.212 532.507 301.197C532.1 288.063 535.714 276.3 545.412 267.6C540.158 264.57 540.47 266.666 535.061 265.549L534.829 264.794C535.837 263.051 536.921 262.635 538.697 261.523Z"/><path fill="#4B2C76" transform="scale(0.390625 0.390625)" d="M539.66 233.389C542.804 233.657 545.992 234.925 548.75 236.443C563.459 244.541 574.941 251.781 579.935 268.598C581.052 272.36 582.109 276.632 580.292 280.064C579.998 279.981 578.845 279.614 578.707 279.44C569.646 267.922 561.232 254.948 548.759 246.744C544.532 243.963 536.137 238.969 539.66 233.389Z"/><path fill="#4B2C76" transform="scale(0.390625 0.390625)" d="M692.502 344.585C712.866 343.024 713.278 371.235 705.29 376.824C704.726 374.809 708.21 365.044 705.857 358.958C698.838 340.799 684.162 350.072 676.472 363.378C686.217 370.144 685.442 379.944 682.986 390.072C682.313 391.342 682.283 391.733 681.049 392.437C677.989 388.834 686.179 377.872 674.282 366.498C673.189 368.225 672.127 370.415 671.172 372.257C673.816 378.642 675.163 385.67 670.722 391.807C669.316 393.749 666.714 396.26 664.168 396.016L663.899 395.292C669.524 389.099 671.789 383.402 667.698 375.671L667.375 375.072C673.16 362.355 677.095 348.1 692.502 344.585Z"/><path fill="#4B2C76" transform="scale(0.390625 0.390625)" d="M476.224 335.888C483.326 336.078 494.654 351.071 495.972 357.944C495.572 357.88 494.058 357.606 493.865 357.444C490.671 354.761 476.957 338.476 476.224 335.888Z"/><path fill="#4B2C76" transform="scale(0.390625 0.390625)" d="M527.512 314.323C528.656 314.43 532.68 315.748 534.056 316.263C536.725 317.262 542.492 317.317 543.77 319.235C538.063 320.375 530.339 320.422 527.512 314.323Z"/><path fill="#A795A6" transform="scale(0.390625 0.390625)" d="M525.424 216.055C525.51 198.069 532.986 185.552 545.463 172.592C565.128 152.168 604.99 146.641 632.614 146.787C687.211 147.076 753.355 165.962 792.996 205.235C802.448 214.599 809.943 227.557 814.752 239.892C812.352 238.565 811.804 235.789 808.308 233.914C799.95 221.097 789.34 208.527 777.9 198.123C776.914 197.226 776.843 197.533 775.472 197.693C775.777 199.329 777.945 201.521 779.171 202.755C801.182 224.916 812.034 249.923 822.079 279.171C812.354 263.672 796.798 242.618 780.127 234.429C784.608 239.825 790.519 244.037 795.366 249.098C808.022 262.315 817.769 276.901 826.115 293.137C825.495 297.862 824.87 302.77 824.084 307.46C812.584 284.079 798.821 263.278 778.999 246.076C774.856 242.48 763.248 233.014 757.531 233.061L757.188 233.685C758.52 235.315 763.824 237.664 766.088 239.418C788.343 256.667 811.073 285.848 822.5 311.768C819.847 321.527 817.287 341.288 818.798 351.104L819.148 355.544L819.617 355.696C818.782 366.087 808.731 384.398 802.568 393.297C791.163 409.762 771.483 422.652 751.458 412.239C749.438 411.189 745.613 407.283 743.225 405.528L742.726 405.166C749.833 422.247 771.497 424.228 785.91 415.677C804.1 404.886 816.098 382.604 820.92 362.511C821.213 361.288 821.835 360.302 822.927 359.699L823.644 360.182C824.216 361.703 824.317 362.777 824.362 364.454C825.131 393.112 820.397 422.813 801.029 445.14C789.126 458.66 771.594 468.18 753.558 469.35C720.489 471.494 706.492 428.332 705.339 402.051C706.68 400.581 707.993 399.084 709.275 397.561C719.637 385.056 724.736 372.184 723.387 355.709C722.099 339.967 711.337 325.505 693.826 327.838C680.262 329.645 670.438 338.142 662.35 348.721C662.703 345.265 663.583 338.883 662.427 335.76C658.1 324.073 648.506 314.296 643.722 302.632C641.836 298.034 640.801 293.802 639.451 289.207C638.236 285.069 637.639 276.356 635.721 273.348L636.081 272.849C639.13 276.056 646.525 287.092 649.478 291.258C658.883 304.522 678.006 318.006 693.347 323.727C688.131 318.418 683.861 316.355 677.586 312.395C665.794 304.955 655.688 296.781 648.393 284.781C660.482 296.986 676.703 306.864 693.772 310.856C695.17 311.183 695.933 311.24 696.958 310.555C696.346 308.803 679.815 301.786 676.662 299.804C634.478 273.292 594.084 221.713 612.039 169.422C613.12 166.275 618.602 160.143 618.58 157.283C617.104 156.727 617.891 156.818 616.128 157.362C615.01 159.283 611.478 164.003 610.09 165.984C592.448 165.552 571.628 172.818 556.841 182.228C551.331 185.734 544.276 192.005 539.106 196.376C541.571 191.694 544.496 186.449 547.902 182.481C561.899 166.175 587.578 160.905 608.046 159.575C611.229 159.368 613.5 159.396 615.399 157.104C597.624 156.27 586.493 159.879 569.975 162.566C554.365 169.019 541.269 178.816 534.971 194.89C530.794 205.552 531.691 205.74 525.424 216.055Z"/><path fill="#FEFEFE" transform="scale(0.390625 0.390625)" d="M525.424 216.055C525.51 198.069 532.986 185.552 545.463 172.592C565.128 152.168 604.99 146.641 632.614 146.787C687.211 147.076 753.355 165.962 792.996 205.235C802.448 214.599 809.943 227.557 814.752 239.892C812.352 238.565 811.804 235.789 808.308 233.914C799.95 221.097 789.34 208.527 777.9 198.123C776.914 197.226 776.843 197.533 775.472 197.693C774.275 197.653 765.367 191.439 763.723 190.367C712.299 156.835 644.32 142.819 584.277 157.042C580.379 157.966 573.068 160.202 569.975 162.566C554.365 169.019 541.269 178.816 534.971 194.89C530.794 205.552 531.691 205.74 525.424 216.055Z"/><path fill="#4B2C76" transform="scale(0.390625 0.390625)" d="M818.798 351.104L819.148 355.544C817.815 357.974 815.759 364.649 813.854 368.276C806.881 381.548 796.29 394.155 783.237 401.729C778.451 404.506 766.461 409.455 761.167 407.973L760.896 407.343C763.19 406.366 765.82 405.382 768.192 404.641C787.391 398.65 801.424 383.101 811.327 366.211C814.098 361.487 815.842 355.834 818.798 351.104Z"/><path fill="#4B2C76" transform="scale(0.390625 0.390625)" d="M652.844 158.273L654.26 159.355C654.29 161.101 651.239 163.575 649.91 167.077C647.554 173.289 646.46 179.196 646.598 185.913C647.491 225.08 664.28 263.393 689.503 293.011C695.256 299.768 699.954 303.148 705.658 309.006L705.268 309.761C701.72 308.089 698.548 305.822 695.556 303.176C664.816 275.996 647.191 238.413 643.292 197.854C641.921 183.592 643.31 169.318 652.844 158.273Z"/><path fill="#4B2C76" transform="scale(0.390625 0.390625)" d="M820.142 370.797C820.544 371.647 820.627 372.403 820.585 373.346C818.854 412.733 794.556 460.021 750.24 461.096L750.219 460.448C751.792 459.194 759.959 457.892 762.876 456.847C767.599 455.166 772.143 453.018 776.439 450.433C798.963 436.744 812.385 408.618 817.456 383.659C818.329 379.363 819.114 375.061 820.142 370.797Z"/><path fill="#4B2C76" transform="scale(0.390625 0.390625)" d="M772.928 296.139C780.891 295.576 788.86 297.157 796.004 300.718C801.118 303.215 814.922 313.212 816.493 317.722C815.919 318.002 815.535 318.19 814.883 317.982C810.766 316.668 804.281 320.41 800.127 320.912C787.773 322.405 774.959 319.814 763.914 314.842C762.323 314.023 761.017 313.615 760.151 312.111C761.11 310.473 772.278 315.313 774.78 315.867C787.841 318.758 797.52 319.096 810.179 314.822C801.351 307.106 792.979 301.146 780.948 299.3C777.064 298.704 773.001 299.152 769.013 298.221L768.677 297.602C770.114 296.508 771.155 296.48 772.928 296.139Z"/><path fill="#4B2C76" transform="scale(0.390625 0.390625)" d="M617.345 181.621C618.062 182.128 618.607 182.402 618.668 183.418C620.42 212.543 634.038 240.264 649.989 264.179C653.326 269.181 658.892 273.74 662.146 278.914C658.327 276.978 653.651 272.408 650.875 269.139C632.2 247.148 615.292 210.702 617.345 181.621Z"/><path fill="#4B2C76" transform="scale(0.390625 0.390625)" d="M672.315 221.635C672.897 221.97 673.388 222.096 673.568 222.655C675.546 228.797 676.624 236.054 678.696 242.17C684.392 258.985 692.34 274.477 701.543 289.593C704.85 295.025 712.287 305.005 714.568 310.46C713.844 309.759 713.139 309.039 712.454 308.301C694.454 288.924 671.286 248.107 672.315 221.635Z"/><path fill="#4B2C76" transform="scale(0.390625 0.390625)" d="M811.271 339.017L811.64 338.669C812.779 337.609 812.575 337.558 813.952 337.093L814.548 337.62C814.332 342.048 807.005 349.906 803.747 352.783C794.875 360.616 784.218 365.558 772.251 364.896C763.308 364.441 754.855 360.675 748.536 354.331C746.143 351.24 746.098 350.814 744.499 347.169C749.997 352.229 754.876 357.104 762.216 359.369C779.294 364.639 796.894 356.652 808.059 343.574C809.276 342.149 810.759 340.872 811.271 339.017Z"/><path fill="#4B2C76" transform="scale(0.390625 0.390625)" d="M756.595 343.196C760.374 343.87 763.143 346.242 766.722 347.131C778.4 350.031 790.86 347.303 801.282 341.669C804.133 340.131 808.894 335.845 811.754 336.017L812.215 336.818C811.902 337.571 811.617 338.278 811.271 339.017C808.889 340.284 806.831 342.905 804.633 344.057C793.855 349.705 781.315 353.216 769.171 350.51C765.808 349.766 757.059 346.863 756.595 343.196Z"/><path fill="#FEFEFE" transform="scale(0.390625 0.390625)" d="M794.743 508.707C803.184 508.173 806.366 508.678 813.372 513.477C813.359 520.884 813.955 525.723 815.183 533.048C811.481 534.557 798.025 539.356 796.634 542.121L797.228 542.751C802.654 542.548 810.966 538.663 815.668 536.239C819.56 557.056 824.304 573.834 835.772 592.087C849.062 613.238 868.094 627.193 889.938 638.558C904.339 646.049 922.348 656.691 938.399 647.03C940.506 645.743 942.934 643.671 943.501 641.169C942.965 639.65 943.459 640.092 942.283 639.501C938.958 640.475 934.129 644.825 931.678 645.466C923.505 647.605 913.622 643.725 906.529 640.611C910.662 638.807 931.844 631.428 932.609 630.8C933.093 629.208 933.123 629.963 932.611 628.455C928.168 626.432 907.893 635.91 902.192 637.648L901.489 637.859C906.517 632.144 913.455 625.853 919.62 621.315C922.198 619.418 928.308 616.789 929.321 614.299L928.641 613.478C921.081 610.447 900.172 634.227 896.378 634.748L896.021 634.022C896.814 630.513 905.966 615.535 908.201 610.947C911.717 603.73 913.492 599.046 916.238 591.483C919.554 596.121 924.699 601.194 928.506 605.942C939.918 620.463 953.999 639.091 957.761 657.486C962.86 682.409 940.36 707.797 916.645 712.123C905.989 714.022 895.008 712.648 885.148 708.182C870.171 701.557 853.54 685.887 841.089 674.858C812.016 649.105 780.638 621.719 741.671 613.002C738.54 612.302 734.322 611.369 731.173 611.949L731.3 612.523C734.524 614.565 744.85 617.405 749.06 618.928C770.374 626.638 788.511 638.44 806.233 652.401C809.237 654.767 816.917 660.276 818.421 663.572C820.793 668.766 821.951 676.455 823.722 682.208C827.678 695.051 831.854 706.919 837.536 719.041C848.299 742.003 859.029 754.864 883.386 763.583C887.436 764.86 891.563 765.876 895.743 766.626C899.807 767.321 919.624 769.353 920.124 763.721C918.161 761.194 913.706 763.087 910.538 763.124C853.282 763.802 836.966 712.653 823.799 667.25C851.042 691.658 882.413 729.72 923.05 716.457C925.228 715.746 927.403 714.993 929.564 714.232C930.531 730.981 933.753 760.154 923.129 773.656C882.746 824.98 813.778 739.344 788.629 710.48C779.351 699.958 770.01 689.492 760.605 679.082C745.923 662.99 728.733 645.914 711.278 632.947C697.873 622.988 686.057 619.106 669.384 622.467C631.926 630.018 596.573 648.705 574.234 680.05C581.157 658.324 585.845 648.624 600.539 631.363C640.659 583.408 691.715 545.796 749.408 521.697C764.989 515.319 777.796 510.074 794.743 508.707Z"/><path fill="#4B2C76" transform="scale(0.390625 0.390625)" d="M768.275 559.704C772.091 559.326 781.822 558.742 784.251 561.626L784.084 562.739C777.709 564.028 767.173 563.608 759.396 564.755C740.62 567.526 711.636 577.959 696.03 588.314C698.367 587.676 700.723 587.114 703.096 586.627C730.93 580.837 762.536 582.237 789.728 590.454C793.363 591.552 808.832 596.717 809.614 600.849C806.426 601.808 803.055 599.992 800.139 598.681C799.266 598.316 798.384 597.972 797.495 597.648C763.006 585.107 713.232 582.426 679.031 598.48C677.838 599.04 677.071 599.397 675.879 598.942C676.179 595.722 687.545 590.175 690.569 588.3C713.913 573.825 740.677 562.096 768.275 559.704Z"/><path fill="#FEFEFE" transform="scale(0.390625 0.390625)" d="M698.403 631.897C713.442 642.063 727.383 653.764 740.003 666.812C750.329 677.561 760.334 688.615 770.004 699.957C790.606 724.124 810.498 748.927 834.792 769.592C859.609 790.701 891.129 810.135 920.542 786.056C924.21 793.895 928.601 801.265 932.093 808.931C910.886 819.151 886.529 833.096 866.136 845.058C829.643 866.462 792.122 890.861 759.038 917.372C759.067 867.108 758.201 832.955 739.444 785.12C727.645 755.031 693.004 690.756 662.556 677.712C649.865 672.276 638.221 674.927 625.867 679.84C586.932 697.364 569.909 729.474 558.644 768.272C558.578 759.018 561.353 736.254 564.772 727.349C566.48 724.203 569.604 721.168 571.576 718.234C592.268 687.269 633.596 655.686 671.591 676.621C688.767 686.085 705.239 704.119 716.731 720.182C738.862 751.491 755.945 788.553 760.191 826.961C762.309 846.112 761.811 866.258 763.882 885.533C764.41 890.447 764.146 900.672 765.474 905.027C766.767 905.471 768.64 906.212 769.741 905.688C770.397 901.052 770.017 884.601 769.842 879.006C768.999 852.142 769.903 824.751 762.724 798.57C751.253 756.731 727.314 714.714 695.191 685.246C688.289 678.914 680.465 674.345 672.536 669.749C678.227 656.074 687.662 642.083 698.403 631.897Z"/><path fill="#A795A6" transform="scale(0.390625 0.390625)" d="M194.087 478.518L194.311 478.721C195.099 480.995 194.479 521.86 194.467 526.638L194.526 643.392C182.805 647.188 164.258 655.25 152.13 659.91L58.9543 695.918C57.9804 694.511 58.4912 548.025 58.4971 529.311C103.845 512.786 149.043 495.854 194.087 478.518Z"/><path fill="#A795A6" transform="scale(0.390625 0.390625)" d="M427.73 388.016L428.09 388.055C428.934 389.682 428.565 533.656 428.529 551.113C418.478 555.459 406.453 559.972 396.136 564.069L314.66 596.024L314.261 595.727C313 591.918 313.737 554.442 313.724 547.398L313.268 433.298C336.7 424.559 360.067 415.643 383.365 406.552C397.299 401.128 414.699 394.786 427.73 388.016Z"/><path fill="#A795A6" transform="scale(0.390625 0.390625)" d="M307.782 435.527C308.577 436.607 308.086 448.68 308.063 451.221L307.964 484.81L308.005 598.579C297.744 603.262 283.175 608.578 272.499 612.804L200.694 640.963C199.544 639.15 199.979 607.603 199.978 602.665L199.944 476.387L263.218 452.391C277.947 446.833 293.248 441.389 307.782 435.527Z"/><path fill="#A795A6" transform="scale(0.390625 0.390625)" d="M846.061 307.077C849.398 308.51 851.733 309.571 854.855 311.294C856.181 312.027 862.937 316.173 863.595 316.36C864.158 318.735 871.538 325.4 873.639 328.08C892.262 351.839 898.283 381.232 899.944 410.527C902.569 456.819 889.837 499.486 880.116 544.137C875.494 565.365 869.043 586.962 871.143 608.858C871.39 611.427 872.917 619.155 872.771 620.747C870.623 619.156 868.251 611.643 867.354 608.986C857.598 580.099 863.338 550.024 868.624 520.954C875.107 485.306 882.499 449.259 880.728 412.829C879.734 392.2 876.994 371.316 868.134 352.422C866.959 349.915 865.04 345.255 863.034 343.421C862.577 345.587 869.322 361.741 870.32 365.642C883.847 418.092 873.17 471.93 863.141 523.946C856.725 557.22 853.124 583.217 866.053 615.643C865.246 614.692 864.471 613.715 863.729 612.713C855.619 601.809 851.737 590.209 848.718 577.195C839.872 539.4 849.146 503.325 854.967 466.075C860.251 432.258 869.307 370.272 847.263 340.619C848.757 346.076 851.184 351.305 852.619 356.697C872.492 431.373 826.67 506.365 844.906 580.592C847.08 589.439 850.354 596.749 854.271 604.862C849.282 599.002 845.575 594.637 841.388 588.046C817.481 550.412 817.53 504.013 823.53 461.358C826.005 443.759 830.271 425.159 832.437 407.503C833.512 398.737 836.302 373.416 834.539 365.34C843.134 347.756 846.017 326.583 846.061 307.077Z"/><path fill="#FEFEFE" transform="scale(0.390625 0.390625)" d="M604.114 559.322C606.391 561.916 610.159 586.94 611.217 592.344C609.686 594.285 608.156 596.571 606.763 598.633C572.539 650.368 553.57 710.693 552.026 772.705C551.823 785.612 552.07 798.523 552.767 811.413C552.938 814.908 554.393 820.609 554.129 823.584C551.874 848.971 551.282 874.927 553.612 900.343C554.838 913.705 558.869 928.077 561.472 941.518C554.542 950.05 549.831 956.515 544.518 966.249C543.238 968.713 541.998 971.197 540.798 973.7C540.373 960.243 537.786 943.165 536.244 929.537C534.551 914.085 533.404 898.577 532.804 883.044C531.092 836.661 533.285 790.216 539.361 744.201C541.603 726.999 543.559 711.593 547.638 694.655C555.659 661.661 567.311 629.657 582.381 599.229C588.412 586.876 596.392 570.755 604.114 559.322Z"/><path fill="#4B2C76" transform="scale(0.390625 0.390625)" d="M606.236 578.854L606.91 579.735C604.886 584.8 595.72 599.037 592.562 605.341C581.692 627.036 570.12 650.273 562.767 673.445C557.813 689.309 554.259 705.575 552.146 722.059C551.561 726.367 550.14 744.448 549.264 746.968C546.673 743.589 549.36 725.483 549.891 720.476C554.088 680.851 569.291 644.073 587.852 609.166C592.16 601.064 599.801 585.083 606.236 578.854Z"/><path fill="#FEFEFE" transform="scale(0.390625 0.390625)" d="M527.278 921.393L527.801 921.333C528.032 921.545 528.264 921.756 528.495 921.968C529.914 933.67 531.997 956.202 533.154 966.939C510.76 978.843 486.207 980.628 462.096 984.152L462.357 984.348C455.44 980.425 450.7 977.652 444.13 973.296C442.6 972.14 438.912 969.841 438.931 967.96C440.565 969.122 441.078 969.857 442.87 970.052C444.157 967.365 435.585 942.956 434.205 938.752C461.436 943.599 502.629 933.75 527.278 921.393Z"/><path fill="#FEFEFE" transform="scale(0.390625 0.390625)" d="M524.519 882.522L525.315 882.401C526.331 883.507 527.944 913.125 528.234 916.912C498.536 930.602 466.087 937.279 433.397 936.428C432.898 934.892 432.343 933.327 431.819 931.795C428.985 922.4 425.906 913.338 422.895 904.015C461.689 901.96 488.431 895.598 524.519 882.522Z"/><path fill="#A795A6" transform="scale(0.390625 0.390625)" d="M826.289 362.325C827.613 362.927 829.241 363.979 830.53 364.752C830.653 371.29 829.773 378.79 829.152 385.374C826.604 412.366 820.401 438.988 816.331 465.803C815.594 470.655 814.437 490.797 813.564 492.802C809.924 490.83 807.242 494.236 803.369 495.371C793.502 498.261 783.213 498.794 773.196 500.983C755.883 495.41 746.399 493.388 728.635 500.556L728.241 500.442C726.805 498.588 729.969 471.837 730.411 467.508C740.927 474.012 750.188 476.315 762.535 473.932C781.892 470.195 799.634 458.076 810.609 441.789C824.765 420.782 831.332 387.185 826.289 362.325Z"/><path fill="#A795A6" transform="scale(0.390625 0.390625)" d="M887.004 335.79C898.551 352.543 903.796 375.778 905.984 395.926C906.67 402.237 906.21 409.477 906.988 415.683C908.151 424.972 910.187 434.419 911.329 443.715C914.774 470.245 913.995 497.152 909.022 523.438C906.301 537.867 902.368 552.04 897.267 565.809C892.81 578.07 887.531 589.851 883.677 602.352C880.944 611.216 880.836 617.317 880.752 626.4C868.887 603.512 878.412 576.614 883.194 552.934C889.305 522.677 898.239 492.396 902.697 461.864C906.539 437.187 906.437 412.056 902.397 387.41C900.145 374.452 896.35 361.809 891.094 349.753C889.005 344.981 886.602 340.587 884.499 335.91L887.004 335.79Z"/><path fill="#FEFEFE" transform="scale(0.390625 0.390625)" d="M678.818 627.697C680.562 627.498 681.071 627.319 682.763 627.878C670.591 638.815 662.528 649.256 658.606 665.474C620.378 654.765 584.188 691.909 566.436 721.681C565.538 723.556 564.694 725.573 563.854 727.484C566.79 706.114 568.347 696.4 582.246 678.835C603.344 652.173 645.552 631.741 678.818 627.697Z"/><path fill="#FEFEFE" transform="scale(0.390625 0.390625)" d="M186.867 749.708C204.539 748.007 232.052 750.417 237.491 771.47C238.948 777.107 240.045 807.697 233.135 808.466C231.585 806.626 238.158 776.071 227.778 766.246C208.132 747.653 173.892 756.82 149.15 763.451C113.436 773.021 65.8836 793.708 37.2758 818.559C19.6223 835.345 18.6511 857.629 15.8557 880.394C15.2613 885.234 15.7436 898.158 11.1774 899.954C10.6293 899.171 10.3955 898.718 10.4631 897.664C12.0759 872.513 11.0193 841.351 27.7607 820.877C34.7414 812.34 45.9716 803.998 54.9642 798.205C93.7895 773.197 140.748 754.291 186.867 749.708Z"/><path fill="#FEFEFE" transform="scale(0.390625 0.390625)" d="M722.662 514.556C728.203 514.308 731.452 516.662 735.474 520.117C679.403 546.316 636.47 577.51 598.596 626.58C596.475 629.544 594.198 632.932 591.705 635.533C592.562 633.738 593.449 631.957 594.366 630.191C615.861 588.83 647.585 552.081 688.764 529.992C702.03 522.876 707.71 519.326 722.662 514.556Z"/><path fill="#FEFEFE" transform="scale(0.390625 0.390625)" d="M532.281 970.984C532.66 971.073 533.04 971.162 533.419 971.251C534.373 987.101 535.856 1002.88 536.685 1018.81C519.983 1015.78 503.037 1008.19 488.251 999.912C480.628 995.797 472.664 990.71 465.35 986.071C486.974 987.957 513.139 980.855 532.281 970.984Z"/><path fill="#FEFEFE" transform="scale(0.390625 0.390625)" d="M496.648 846.209C502.083 845.798 522.461 846.238 525.601 851.185C525.548 853.044 525.89 852.326 524.923 853.555C496.286 865.1 455.862 876.505 424.875 877.595C421.844 877.644 417.369 878.097 414.93 876.559C414.67 875.539 414.469 875.655 415.002 874.855C423.505 862.092 446.539 855.52 460.219 851.872C462.027 868.681 463.201 869.519 478.543 864.162C477.36 859.547 476.494 853.568 475.671 848.785C482.127 847.243 489.973 846.708 496.648 846.209Z"/><path fill="#A795A6" transform="scale(0.390625 0.390625)" d="M917.723 493.317C918.706 495.777 918.709 501.168 918.886 504.132C920.529 531.744 919.429 560.972 911.683 587.615C909.807 594.068 893.681 630.424 890.013 632.297L888.76 631.696C887.964 631.071 887.124 630.398 886.475 629.614C879.094 620.696 898.143 577.277 902.4 565.894C905.039 558.836 907.548 551.556 909.467 544.268C913.957 527.218 916.578 510.887 917.723 493.317Z"/><path fill="#FEFEFE" transform="scale(0.390625 0.390625)" d="M393.501 684.703C404.989 683.599 421.097 683.601 429.735 692.445C434.021 696.833 436.815 703.833 436.637 710.009C436.572 712.28 436.867 718.807 435.32 720.357C432.719 717.611 433.769 706.319 430.096 700.81C424.401 692.267 409.823 689.232 399.999 690.329C359.769 694.824 309.117 709.137 273.813 728.721C254.582 739.457 245.883 746.166 241.166 767.838L237.112 760.436C239.075 755.424 241.764 748.793 245.295 744.698C271.89 713.849 354.831 688.786 393.501 684.703Z"/><path fill="#FEFEFE" transform="scale(0.390625 0.390625)" d="M524.358 858.494L525.294 858.664C525.837 860.279 525.614 863.264 525.584 865.088C493.21 877.961 446.339 888.616 411.553 889.648C411.454 885.271 411.498 883.747 412.203 879.467C430.838 884.982 478.967 874.296 497.866 868.347C506.644 865.584 515.856 862.162 524.358 858.494Z"/><path fill="#FEFEFE" transform="scale(0.390625 0.390625)" d="M525.332 870.049C525.882 871.333 525.803 874.902 525.845 876.486C494.876 887.103 467.556 894.89 434.792 898.426C429.506 898.996 419.501 900.467 414.45 899.901L412.271 892.601C448.371 892.776 491.566 882.583 525.332 870.049Z"/><path fill="#FEFEFE" transform="scale(0.390625 0.390625)" d="M504.8 772.855C506.68 773.174 507.484 773.723 508.304 775.381C507.48 779.371 471.464 810.244 465.926 815.877C468.813 830.959 470.745 846.911 473.422 862.234C471.862 862.72 469.744 863.156 468.113 863.545C467.082 862.647 457.127 815.822 459.102 813.84C468.893 804.012 493.614 778.226 504.8 772.855Z"/><path fill="#FEFEFE" transform="scale(0.390625 0.390625)" d="M565.274 620.52C565.777 620.494 565.417 620.484 566.31 620.825C566.21 622.622 564.885 625.032 564.087 626.758C550.15 630.764 534.713 636.575 521.62 642.515C497.927 653.264 469.055 664.669 458.287 690.318C454.805 698.611 452.36 707.014 449.784 715.604C449.545 716.399 447.785 716.822 446.942 717.169L445.798 716.706C445.14 712.559 453.875 689.709 456.292 685.11C472.902 653.505 532.687 630.549 565.274 620.52Z"/><path fill="#FEFEFE" transform="scale(0.390625 0.390625)" d="M772.405 506.345C767.754 507.852 737.772 519.205 736.288 518.971C737.916 513.837 728.524 513.183 725.816 508.687L726.182 507.721C734.894 502.948 748.753 501.497 758.49 503.043C762.865 503.738 767.199 505.012 771.582 505.558L772.08 505.615L772.405 506.345Z"/><path fill="#FEFEFE" transform="scale(0.390625 0.390625)" d="M686.785 627.883C689.285 628.507 692.135 629.396 694.642 630.12C683.546 639.653 673.753 654.562 670.29 668.969L662.099 666.092C666.789 649.939 675.132 639.656 686.785 627.883Z"/><path fill="#FEFEFE" transform="scale(0.390625 0.390625)" d="M846.4 300.428C864.899 307.774 876.622 319.132 887.004 335.79L884.499 335.91C882.171 331.378 871.778 320.205 867.147 317.085C865.268 315.819 865.428 316.04 863.595 316.36C862.937 316.173 856.181 312.027 854.855 311.294C851.733 309.571 849.398 308.51 846.061 307.077C846.138 304.96 846.164 302.504 846.4 300.428Z"/><path fill="#FEFEFE" transform="scale(0.390625 0.390625)" d="M557.627 834.382C560.391 840.215 560.859 846.977 565.082 852.616C561.073 865.211 559.925 875.474 559.023 888.376C559.023 890.902 559.126 891.821 558.531 894.223C557.42 889.914 557.567 878.554 557.441 873.756C557.092 860.484 556.749 847.644 557.627 834.382Z"/><path fill="#A795A6" transform="scale(0.390625 0.390625)" d="M808.308 233.914C811.804 235.789 812.352 238.565 814.752 239.892C821.082 249.024 826.467 274.674 826.87 286.598L826.504 286.97C825.497 284.692 825.354 281.466 824.67 278.972C823.126 273.335 821.451 267.628 819.895 261.998C817.114 251.93 812.538 243.351 808.308 233.914Z"/><defs><linearGradient id="gradient_0" gradientUnits="userSpaceOnUse" x1="813.3869" y1="499.91229" x2="795.02258" y2="501.72849"><stop offset="0" stop-color="#9D8AA6"/><stop offset="1" stop-color="#B6A9B8"/></linearGradient></defs><path fill="url(#gradient_0)" transform="scale(0.390625 0.390625)" d="M789.929 501.807C795.573 501.088 801.715 500.111 807.108 498.135C809.849 497.132 810.966 494.683 813.977 494.209C814.268 495.737 813.822 504.911 813.813 507.435C806.34 501.598 799.567 501.688 790.437 502.796L789.521 502.908L789.929 501.807Z"/><path fill="#FEFEFE" transform="scale(0.390625 0.390625)" d="M823.651 327.719C827.011 329.493 834.97 334.762 837.902 337.016C838.409 338.524 837.997 340.025 837.786 341.71C836.253 341.702 825.606 334.236 823.727 332.784C823.032 331.372 823.473 329.384 823.651 327.719Z"/><path fill="#583979" transform="scale(0.390625 0.390625)" d="M827.37 310.869L827.941 309.546C831.215 308.524 835.303 312.714 838.82 311.965C839.307 311.942 839.794 311.918 840.281 311.895L840.311 311.337L840.672 308.418C841.902 310.169 841.638 314.855 840.676 316.588L839.732 317.167C839.796 318.206 839.868 318.386 839.732 319.405C837.271 318.447 830.903 314.272 829.018 312.347L827.37 310.869Z"/><path fill="#FEFEFE" transform="scale(0.390625 0.390625)" d="M827.37 310.869L827.941 309.546C831.215 308.524 835.303 312.714 838.82 311.965C839.307 311.942 839.794 311.918 840.281 311.895C840.209 313.373 840.331 313.568 839.696 314.864C834.12 312.288 833.539 312.241 827.37 310.869Z"/><path fill="#FEFEFE" transform="scale(0.390625 0.390625)" d="M829.018 312.347C833.478 313.59 835.667 314.952 839.732 317.167C839.796 318.206 839.868 318.386 839.732 319.405C837.271 318.447 830.903 314.272 829.018 312.347Z"/><path fill="#FEFEFE" transform="scale(0.390625 0.390625)" d="M826.6 315.035C828.188 316.018 837.514 320.38 839.121 320.629C839.957 322.663 839.52 325.56 839.393 327.881C835.493 324.788 829.044 320.936 826.052 318.005C825.752 316.134 825.737 317.098 826.6 315.035Z"/><path fill="#FEFEFE" transform="scale(0.390625 0.390625)" d="M828.808 305.254L829.696 300.47C834.044 302.789 839.763 303.275 840.672 308.418L840.311 311.337C836.459 309.343 832.625 307.315 828.808 305.254Z"/><path fill="#FEFEFE" transform="scale(0.390625 0.390625)" d="M830.698 287.202C833.759 288.958 838.046 291.12 840.284 293.782C841.809 295.595 841.414 296.305 841.198 298.338C838.748 297.724 832.179 294.39 830.845 292.04C829.856 290.298 830.411 289.31 830.698 287.202Z"/><path fill="#FEFEFE" transform="scale(0.390625 0.390625)" d="M822.888 341.404C825.821 342.432 834.132 346.469 836.182 348.985C836.702 349.624 836.348 350.776 836.241 351.795C834.141 352.01 826.449 346.747 824.42 345.177C822.712 343.855 823.054 343.373 822.888 341.404Z"/><path fill="#FEFEFE" transform="scale(0.390625 0.390625)" d="M822.717 349.316C825.02 350.103 833.115 354.245 834.135 356.649C834.423 357.327 833.813 358.537 833.527 359.402C832.971 359.776 833.355 359.585 832.271 359.679C828.573 357.119 823.555 353.841 822.717 349.316Z"/><path fill="#FEFEFE" transform="scale(0.390625 0.390625)" d="M826.134 324.983L824.887 324.119L824.593 322.313L825.061 321.673C827.577 322.212 836.629 329.231 838.858 331.605C839.172 331.939 839.07 333.357 839.083 334.005C835.729 333.774 830.959 327.107 826.134 324.983Z"/><path fill="#FEFEFE" transform="scale(0.390625 0.390625)" d="M772.08 505.615C777.288 503.524 784.292 502.65 789.929 501.807L789.521 502.908C783.764 503.932 777.964 505.383 772.405 506.345L772.08 505.615Z"/><path fill="#FEFEFE" transform="scale(0.390625 0.390625)" d="M829.819 295.477C830.647 295.864 840.056 301.288 840.737 301.725L841.063 303.261C838.753 302.967 831.113 297.83 829.819 295.477Z"/></svg>