<?xml version="1.0" encoding="iso-8859-1"?>
<!-- Uploaded to: SVG Repo, www.svgrepo.com, Generator: SVG Repo Mixer Tools -->
<svg height="800px" width="800px" version="1.1" id="Layer_1" xmlns="http://www.w3.org/2000/svg" xmlns:xlink="http://www.w3.org/1999/xlink" 
	 viewBox="0 0 512 512" xml:space="preserve">
<path style="fill:#8AE9FF;" d="M493.121,235.927l-70.858-70.857c-5.34-5.34-12.441-8.281-19.992-8.281
	c-7.553,0-14.652,2.94-19.993,8.281c-5.34,5.34-8.282,12.441-8.282,19.992c0,7.554,2.941,14.653,8.282,19.993l22.59,22.59H284.273
	V106.734l22.59,22.59c5.34,5.34,12.441,8.282,19.993,8.282s14.652-2.941,19.993-8.283c5.339-5.34,8.281-12.44,8.281-19.992
	c0-7.553-2.941-14.653-8.281-19.992L275.993,18.48c-5.342-5.339-12.442-8.281-19.994-8.281c-7.553,0-14.652,2.941-19.992,8.281
	L165.15,89.338c-5.34,5.34-8.281,12.441-8.281,19.992c0,7.553,2.94,14.652,8.281,19.992c5.34,5.34,12.441,8.282,19.992,8.282
	c7.554,0,14.653-2.941,19.993-8.282l22.59-22.59v120.913H107.131l22.59-22.59c5.34-5.34,8.282-12.441,8.282-19.993
	s-2.941-14.652-8.283-19.993c-5.34-5.34-12.44-8.281-19.992-8.281c-7.553,0-14.653,2.941-19.992,8.281l-70.858,70.857
	c-5.339,5.34-8.281,12.44-8.281,19.992c0,7.553,2.941,14.653,8.281,19.992l70.858,70.857c5.34,5.34,12.441,8.281,19.992,8.281
	c7.551,0,14.652-2.94,19.992-8.281s8.282-12.441,8.282-19.992c0-7.554-2.941-14.653-8.282-19.993l-22.59-22.59h120.594v121.073
	l-22.59-22.59c-5.34-5.34-12.441-8.282-19.993-8.282c-7.553,0-14.653,2.941-19.993,8.283c-5.34,5.34-8.281,12.44-8.281,19.992
	s2.941,14.653,8.281,19.992l70.857,70.858c5.341,5.342,12.442,8.284,19.995,8.284c7.552,0,14.652-2.941,19.992-8.281l70.857-70.858
	c5.34-5.34,8.281-12.441,8.281-19.992c0-7.553-2.94-14.652-8.281-19.992c-5.34-5.34-12.441-8.282-19.992-8.282
	c-7.554,0-14.653,2.941-19.993,8.282l-22.59,22.59V284.195h120.594l-22.59,22.59c-5.34,5.341-8.282,12.441-8.282,19.993
	c0,7.553,2.941,14.652,8.283,19.993c5.34,5.34,12.44,8.281,19.992,8.281c7.553,0,14.652-2.941,19.992-8.281l70.858-70.857
	c5.339-5.34,8.281-12.44,8.281-19.992C501.402,248.367,498.461,241.267,493.121,235.927z"/>
<g>
	<path style="fill:#248A9C;" d="M255.999,512c-10.276,0-19.936-4.001-27.204-11.267l-70.858-70.859
		c-7.267-7.267-11.268-16.928-11.268-27.204c0-10.276,4.001-19.936,11.268-27.203c7.267-7.267,16.929-11.27,27.205-11.27
		c10.276,0,19.937,4.002,27.204,11.268l5.179,5.179v-86.25h-85.771l5.178,5.178c7.267,7.267,11.269,16.929,11.269,27.205
		c0,10.276-4.002,19.937-11.268,27.204c-7.267,7.267-16.929,11.268-27.205,11.268s-19.938-4.002-27.205-11.268l-70.858-70.857
		c-7.267-7.268-11.268-16.929-11.268-27.205c0-10.277,4.001-19.937,11.267-27.204l70.859-70.858
		c7.267-7.267,16.928-11.268,27.204-11.268c10.276,0,19.936,4.001,27.203,11.268c7.267,7.267,11.27,16.929,11.27,27.205
		c0,10.276-4.002,19.937-11.268,27.204l-5.179,5.179h85.772v-86.089l-5.178,5.178c-7.267,7.267-16.929,11.269-27.205,11.269
		c-10.276,0-19.937-4.002-27.204-11.268c-7.267-7.267-11.268-16.929-11.268-27.205s4.002-19.938,11.268-27.205l70.857-70.858
		C236.063,4.001,245.723,0,255.999,0c10.275,0,19.936,4.001,27.204,11.266l70.859,70.86c7.266,7.267,11.268,16.929,11.268,27.204
		c0,10.275-4.002,19.935-11.268,27.203c-7.267,7.268-16.929,11.27-27.205,11.27s-19.938-4.002-27.205-11.268l-5.179-5.179v86.089
		h85.773l-5.179-5.179c-7.267-7.266-11.269-16.928-11.269-27.205c0-10.277,4.002-19.937,11.269-27.205
		c7.267-7.267,16.93-11.268,27.205-11.268c10.276,0,19.937,4.002,27.204,11.268l70.859,70.857l0,0
		c7.266,7.267,11.268,16.929,11.268,27.204s-4.002,19.937-11.268,27.204l-70.858,70.858c-7.268,7.267-16.93,11.268-27.205,11.268
		c-10.277,0-19.938-4.002-27.204-11.268c-7.267-7.266-11.27-16.928-11.27-27.205c0-10.277,4.002-19.937,11.269-27.205l5.179-5.179
		h-85.773l0.001,86.25l5.178-5.179c7.266-7.267,16.929-11.269,27.205-11.269c10.276,0,19.937,4.002,27.204,11.268
		c7.267,7.268,11.269,16.93,11.269,27.205c0,10.277-4.002,19.937-11.268,27.204l-70.858,70.858
		C275.936,507.999,266.275,512,255.999,512z M185.142,384.595c-4.828,0-9.367,1.881-12.782,5.294
		c-3.414,3.414-5.293,7.953-5.293,12.781c0,4.828,1.88,9.367,5.294,12.781l70.857,70.858c3.414,3.414,7.953,5.293,12.781,5.293
		c4.827,0,9.368-1.88,12.782-5.294l70.857-70.857c3.414-3.414,5.293-7.952,5.293-12.781c0-4.827-1.881-9.367-5.293-12.782
		c-3.415-3.413-7.953-5.293-12.781-5.293c-4.828,0-9.368,1.88-12.781,5.293l-22.589,22.59c-2.916,2.917-7.306,3.79-11.114,2.211
		c-3.811-1.579-6.297-5.297-6.297-9.423l-0.001-121.073c0-2.705,1.075-5.299,2.987-7.212c1.913-1.912,4.507-2.987,7.212-2.987
		H404.87c4.126,0,7.844,2.486,9.423,6.296c1.578,3.811,0.705,8.198-2.211,11.115l-22.59,22.59
		c-3.415,3.414-5.294,7.953-5.294,12.781c0,4.828,1.881,9.367,5.294,12.781c3.415,3.415,7.953,5.294,12.781,5.294
		c4.827,0,9.367-1.881,12.782-5.294L485.91,268.7c3.414-3.414,5.293-7.952,5.293-12.781c0-4.828-1.881-9.367-5.293-12.782
		l-70.858-70.857c-3.415-3.414-7.953-5.294-12.781-5.294c-4.827,0-9.368,1.88-12.782,5.293c-3.414,3.414-5.293,7.953-5.293,12.781
		c0,4.828,1.881,9.367,5.293,12.781l22.591,22.59c2.916,2.917,3.789,7.304,2.211,11.115c-1.579,3.811-5.297,6.296-9.423,6.296
		H284.274c-5.632,0-10.199-4.566-10.199-10.199V106.733c0-4.126,2.486-7.844,6.296-9.423c3.81-1.58,8.198-0.707,11.115,2.211
		l22.589,22.59c3.415,3.414,7.953,5.293,12.782,5.293c4.827,0,9.367-1.881,12.781-5.294c3.414-3.415,5.293-7.953,5.293-12.781
		c0-4.828-1.881-9.367-5.293-12.782L268.78,25.69c-3.414-3.412-7.953-5.291-12.781-5.291c-4.827,0-9.367,1.88-12.783,5.294
		L172.36,96.55c-3.415,3.415-5.294,7.953-5.294,12.782c0,4.828,1.88,9.368,5.293,12.782c3.414,3.414,7.953,5.293,12.781,5.293
		c4.828,0,9.368-1.88,12.782-5.294l22.589-22.59c2.918-2.917,7.305-3.789,11.115-2.211c3.811,1.579,6.296,5.297,6.296,9.423v120.913
		c0,5.633-4.566,10.199-10.199,10.199H107.128c-4.125,0-7.844-2.486-9.423-6.296c-1.579-3.81-0.706-8.198,2.211-11.115l22.59-22.59
		c3.414-3.414,5.293-7.953,5.293-12.781c0-4.828-1.881-9.367-5.294-12.782c-3.414-3.414-7.953-5.293-12.781-5.293
		c-4.828,0-9.367,1.88-12.781,5.294l-70.857,70.856c-3.413,3.414-5.292,7.952-5.292,12.781s1.88,9.368,5.293,12.782l70.857,70.856
		c3.415,3.415,7.953,5.294,12.782,5.294c4.828,0,9.367-1.88,12.782-5.293c3.414-3.414,5.293-7.953,5.293-12.781
		c0-4.828-1.88-9.368-5.294-12.782l-22.59-22.589c-2.917-2.917-3.79-7.304-2.211-11.115c1.579-3.811,5.297-6.296,9.423-6.296
		h120.594c5.633,0,10.199,4.566,10.199,10.199v121.073c0,4.125-2.486,7.844-6.296,9.423c-3.811,1.577-8.198,0.707-11.115-2.211
		l-22.59-22.59C194.509,386.474,189.969,384.595,185.142,384.595z"/>
	<path style="fill:#248A9C;" d="M77.421,305.242c-2.61,0-5.221-0.995-7.212-2.987l-1.13-1.13c-3.983-3.983-3.983-10.441,0-14.425
		c3.983-3.983,10.441-3.983,14.425,0l1.13,1.13c3.983,3.983,3.983,10.441,0,14.425C82.642,304.246,80.031,305.242,77.421,305.242z"
		/>
	<path style="fill:#248A9C;" d="M56.739,284.56c-2.61,0-5.22-0.995-7.212-2.987l-18.686-18.686c-3.983-3.983-3.984-10.441,0-14.424
		s10.441-3.984,14.424,0l18.686,18.686c3.983,3.983,3.984,10.441,0,14.424C61.96,283.563,59.349,284.56,56.739,284.56z"/>
</g>
</svg>